<?xml version="1.0" encoding="UTF-8" standalone="no"?>
<!-- Created with Inkscape (http://www.inkscape.org/) -->

<svg
     width="15"
     height="15"
     viewBox="0 0 15 15"
     version="1.1"
     id="svg5"
     sodipodi:docname="カラスの足.svg"
     inkscape:version="1.1 (c68e22c387, 2021-05-23)"
     inkscape:export-filename="C:\Program Files\XAMPP\htdocs\koko-campus.org\subjects\データベース理論\pics\カラスの足.png"
     inkscape:export-xdpi="96"
     inkscape:export-ydpi="96"
     xmlns:inkscape="http://www.inkscape.org/namespaces/inkscape"
     xmlns:sodipodi="http://sodipodi.sourceforge.net/DTD/sodipodi-0.dtd"
     xmlns="http://www.w3.org/2000/svg"
     xmlns:svg="http://www.w3.org/2000/svg">
    <sodipodi:namedview
         id="namedview7"
         pagecolor="#ffffff"
         bordercolor="#666666"
         borderopacity="1.0"
         inkscape:pageshadow="2"
         inkscape:pageopacity="0.0"
         inkscape:pagecheckerboard="0"
         inkscape:document-units="px"
         showgrid="false"
         units="px"
         width="600px"
         inkscape:zoom="24.003"
         inkscape:cx="-0.95821"
         inkscape:cy="2.1456"
         inkscape:window-width="1920"
         inkscape:window-height="1009"
         inkscape:window-x="-8"
         inkscape:window-y="-8"
         inkscape:window-maximized="1"
         inkscape:current-layer="layer1" />
    <defs
         id="defs2" />
    <g
         inkscape:label="レイヤー 1"
         inkscape:groupmode="layer"
         id="layer1">
        <g
             id="g833"
             transform="matrix(1.3114,0,0,1.3114,-1.0637,-2.7353)">
            <path
                 style="fill:#e6e6e6;stroke-width:0.0335004"
                 d="m 11.066,12.296 c 0,-1.489 -0.02,-1.649 -0.06,-1.566 l -0.05,0.09 -2.2771,-1.1391 c -1.2526,-0.6265 -2.2848,-1.1387 -2.2941,-1.1387 -0.01,0 -0.017,0.4529 -0.017,1.0064 v 1.0064 l -0.3266,-0.01 -0.3266,-0.01 -0.01,-1.0967 -0.01,-1.0971 h -1.8084 -1.8087 v -0.335 -0.335 h 1.8091 1.809 v -1.1055 -1.1055 h 0.335 0.335 v 1.005 1.005 l 2.2781,-1.139 c 1.2529,-0.6264 2.2923,-1.139 2.3093,-1.139 0.02,0 0.04,0.034 0.06,0.075 0.02,0.043 0.04,-0.4526 0.04,-1.1474 l 0.02,-1.2227 v 1.2659 c 0,1.1913 0.01,1.2737 0.07,1.3973 0.04,0.072 0.07,0.1534 0.07,0.1806 0,0.027 -0.03,0.059 -0.07,0.071 -0.07,0.021 -0.07,0.05 -0.07,2.1758 v 2.1543 l 0.07,0.05 0.08,0.05 -0.07,0.13 c -0.06,0.124 -0.07,0.215 -0.08,1.855 l -0.02,1.725 z m 0,-3.065 v -0.8878 h -1.7838 -1.7839 l 1.7588,0.8841 c 0.9669,0.4861 1.7699,0.8847 1.7839,0.8857 0.01,0 0.02,-0.3976 0.02,-0.8857 z m 0,-2.4623 v -0.9045 l -1.7838,0.8914 c -0.9812,0.4902 -1.7903,0.8975 -1.798,0.9045 -0.01,0.01 0.7953,0.013 1.7839,0.013 h 1.7979 z"
                 id="path847" />
            <path
                 style="fill:#ddd;stroke-width:0.0335004"
                 d="m 8.6806,9.6832 c -1.2439,-0.6244 -2.2727,-1.136 -2.2865,-1.1373 -0.014,0 -0.025,0.4512 -0.025,1.0047 v 1.0064 l -0.3266,-0.01 -0.3266,-0.01 -0.01,-1.0967 -0.01,-1.0971 h -1.8084 -1.8087 v -0.335 -0.335 h 1.8091 1.809 v -1.1055 -1.1055 h 0.335 0.335 v 1.005 1.005 l 2.2781,-1.139 c 1.2529,-0.6264 2.29,-1.139 2.304,-1.139 0.03,0 0.276,0.4841 0.276,0.5451 0,0.023 -0.848,0.4663 -1.8849,0.9859 l -1.8844,0.9443 h 1.8174 1.8179 v 0.335 0.335 h -1.8011 -1.8007 l 1.8677,0.9364 c 1.0271,0.5148 1.8681,0.9521 1.8681,0.9701 0,0.04 -0.262,0.571 -0.277,0.568 0,0 -1.026,-0.513 -2.2695,-1.1382 z"
                 id="path845" />
            <path
                 style="fill:#bdbdbd;stroke-width:0.0335004"
                 d="m 8.6806,9.6812 c -1.2439,-0.6231 -2.2727,-1.134 -2.2865,-1.1353 -0.014,0 -0.025,0.4429 -0.025,0.9866 v 0.9885 h -0.335 -0.335 v -1.089 -1.0888 h -1.809 -1.8091 v -0.335 -0.335 h 1.8087 1.8084 l 0.01,-1.0971 0.01,-1.0971 0.3266,-0.01 0.3266,-0.01 v 1.0063 1.006 l 2.2824,-1.1413 c 1.2556,-0.6275 2.2943,-1.129 2.3093,-1.1139 0.06,0.066 0.268,0.5239 0.243,0.5481 -0.02,0.014 -0.872,0.4489 -1.9034,0.9651 l -1.876,0.939 h 1.8342 1.8342 v 0.335 0.335 h -1.8175 -1.8174 l 1.876,0.9397 c 1.0319,0.5172 1.8829,0.947 1.8909,0.954 0.02,0.01 -0.236,0.547 -0.266,0.564 0,0 -1.0346,-0.5 -2.2781,-1.1234 z"
                 id="path843" />
            <path
                 style="fill:#9d9d9d;stroke-width:0.0335004"
                 d="m 8.6806,9.6815 c -1.2439,-0.6234 -2.2727,-1.1343 -2.2865,-1.1356 -0.014,0 -0.025,0.4429 -0.025,0.9866 v 0.9885 h -0.3179 -0.3176 l -0.01,-1.0974 -0.01,-1.0971 -1.8175,-0.01 -1.8174,-0.01 v -0.3179 -0.3179 h 1.8258 1.8258 v -1.1055 -1.1055 h 0.3183 0.3182 v 1.005 1.005 l 2.2781,-1.139 c 1.2529,-0.6264 2.2861,-1.139 2.2951,-1.139 0.02,0 0.285,0.5196 0.285,0.5521 0,0.01 -0.856,0.4462 -1.9017,0.9702 l -1.9012,0.953 h 1.8342 1.8347 v 0.3267 0.3266 l -1.1647,-0.01 c -0.6402,0 -1.4657,0 -1.8342,0 l -0.67,0.01 1.8928,0.95 c 1.0411,0.5226 1.8981,0.9547 1.9041,0.9607 0,0 -0.253,0.555 -0.274,0.573 0,0 -1.0231,-0.505 -2.2666,-1.1286 z"
                 id="path841" />
            <path
                 style="fill:#5f5f5f;stroke-width:0.0335004"
                 d="m 8.6387,9.6477 -2.2697,-1.137 v 1.005 1.0053 h -0.3182 -0.3183 v -1.1058 -1.1055 h -1.8258 -1.8258 v -0.3182 -0.3183 h 1.8258 1.8258 v -1.1068 -1.1069 l 0.3099,0.01 0.3099,0.01 0.01,0.9966 c 0,0.548 0.016,0.9966 0.025,0.9966 0.01,0 1.0412,-0.5125 2.2938,-1.139 l 2.2779,-1.1387 0.134,0.267 c 0.07,0.1471 0.135,0.2751 0.135,0.2848 0,0.01 -0.856,0.4462 -1.9016,0.9702 l -1.9012,0.953 h 1.8342 1.8346 v 0.3183 0.3182 h -1.8514 -1.8509 l 1.9095,0.9565 c 1.0508,0.5262 1.9148,0.961 1.9198,0.966 0.02,0.02 -0.261,0.553 -0.287,0.551 -0.01,0 -1.0462,-0.514 -2.2944,-1.1392 z"
                 id="path839" />
            <path
                 style="fill:#3e3e3e;stroke-width:0.0335004"
                 d="m 8.6471,9.6497 c -1.2439,-0.6244 -2.2727,-1.136 -2.2865,-1.1373 -0.014,0 -0.025,0.4506 -0.025,1.0033 v 1.0053 h -0.3015 -0.3015 v -1.1058 -1.1055 h -1.8258 -1.8258 v -0.3182 -0.3183 h 1.8258 1.8258 v -1.0887 -1.0888 h 0.3015 0.3015 v 0.9883 c 0,0.6385 0.012,0.9882 0.034,0.9882 0.018,0 1.056,-0.5112 2.3055,-1.136 l 2.2729,-1.136 0.136,0.2734 0.137,0.2734 -1.9154,0.9614 -1.9142,0.9611 h 1.8509 1.8517 v 0.3179 0.318 l -1.8517,0.01 -1.8509,0.01 1.9183,0.9634 1.9183,0.9632 -0.134,0.268 c -0.07,0.147 -0.146,0.267 -0.16,0.266 -0.01,0 -1.0428,-0.513 -2.2863,-1.1374 z"
                 id="path837" />
            <path
                 style="fill:black;stroke-width:0.0335004"
                 d="m 8.6471,9.6497 c -1.2439,-0.6244 -2.2727,-1.136 -2.2865,-1.1373 -0.014,0 -0.025,0.4506 -0.025,1.0033 v 1.0053 h -0.3015 -0.3015 v -1.1058 -1.1055 h -1.8258 -1.8258 v -0.3015 -0.3015 h 1.8258 1.8258 v -1.1055 -1.1055 h 0.3015 0.3015 v 1.005 1.005 l 2.3055,-1.1527 2.3059,-1.1528 0.136,0.2751 0.137,0.2753 -1.9313,0.9699 -1.9313,0.9695 1.8677,0.01 1.8679,0.01 v 0.3011 0.3012 h -1.8679 -1.8677 l 1.935,0.9698 1.9346,0.9699 -0.134,0.268 c -0.07,0.147 -0.146,0.267 -0.16,0.266 -0.01,0 -1.0423,-0.513 -2.2858,-1.1374 z"
                 id="path835" />
        </g>
    </g>
</svg>
