<?xml version="1.0" encoding="UTF-8" standalone="no"?>
<!-- Created with Inkscape (http://www.inkscape.org/) -->

<svg
     width="1000"
     height="100"
     viewBox="0 0 1000 100"
     version="1.1"
     id="svg5"
     sodipodi:docname="bg.svg"
     inkscape:version="1.1 (c68e22c387, 2021-05-23)"
     inkscape:export-filename="C:\Program Files\XAMPP\htdocs\koko-campus.org\my-profile\bg.png"
     inkscape:export-xdpi="96"
     inkscape:export-ydpi="96"
     xmlns:inkscape="http://www.inkscape.org/namespaces/inkscape"
     xmlns:sodipodi="http://sodipodi.sourceforge.net/DTD/sodipodi-0.dtd"
     xmlns="http://www.w3.org/2000/svg"
     xmlns:svg="http://www.w3.org/2000/svg">
    <sodipodi:namedview
         id="namedview7"
         pagecolor="#ffffff"
         bordercolor="#666666"
         borderopacity="1.0"
         inkscape:pageshadow="2"
         inkscape:pageopacity="0.0"
         inkscape:pagecheckerboard="0"
         inkscape:document-units="px"
         showgrid="false"
         units="px"
         width="600px"
         inkscape:zoom="0.5303995268"
         inkscape:cx="314.8569928"
         inkscape:cy="180.052951"
         inkscape:window-width="1920"
         inkscape:window-height="1009"
         inkscape:window-x="-8"
         inkscape:window-y="-8"
         inkscape:window-maximized="1"
         inkscape:current-layer="layer1" />
    <defs
         id="defs2">
        <rect
             x="21.68176842"
             y="4.71342802"
             width="45.248909"
             height="39.59279633"
             id="rect2803" />
    </defs>
    <g
         inkscape:label="レイヤー 1"
         inkscape:groupmode="layer"
         id="layer1">
        <g
             aria-label="*"
             transform="matrix(2.39401665,0,0,2.39401665,-23.4259438,6.225581225)"
             id="text2801"
             style="font-size:26px;line-height:1.25;font-family:'Copperplate Gothic Light';-inkscape-font-specification:'Copperplate Gothic Light, Normal';font-variant-ligatures:none;white-space:pre;shape-inside:url(#rect2803)">
            <path
                 d="m 25.73144531,14.37797496 h 2.80566407 v 0.34277344 q -0.46972657,0.12695312 -0.62207032,0.609375 -0.15234375,0.46972656 -0.16503906,1.828125 1.25683594,-0.44433594 1.66308594,-0.7109375 0.41894531,-0.26660157 0.41894531,-0.64746094 0,-0.0507813 -0.0126953,-0.13964844 l 0.34277344,-0.11425781 0.86328125,2.66601562 -0.34277344,0.1015625 q -0.24121094,-0.39355468 -0.68554688,-0.39355468 -0.55859375,0 -1.86621093,0.40625 0.73632812,0.96484375 1.07910156,1.28222656 0.34277344,0.31738281 0.63476562,0.31738281 0.12695313,0 0.35546875,-0.0888672 l 0.203125,0.27929688 -2.25976562,1.65039062 -0.203125,-0.29199218 q 0.21582031,-0.26660157 0.21582031,-0.46972657 0,-0.49511718 -1.015625,-1.95507812 -1.02832031,1.48535156 -1.02832031,1.95507812 0,0.203125 0.22851562,0.48242188 l -0.203125,0.27929687 -2.27246093,-1.65039062 0.21582031,-0.27929688 q 0.21582031,0.0888672 0.35546875,0.0888672 0.52050781,0 1.70117187,-1.59960937 -1.34570312,-0.40625 -1.86621093,-0.40625 -0.41894532,0 -0.69824219,0.40625 l -0.33007813,-0.1015625 0.87597657,-2.66601563 0.33007812,0.1015625 q -0.0126953,0.1015625 -0.0126953,0.15234375 0,0.36816406 0.43164062,0.66015625 0.44433594,0.27929688 1.65039063,0.68554688 -0.0126953,-1.35839844 -0.17773438,-1.828125 -0.15234375,-0.48242188 -0.609375,-0.609375 z"
                 id="path6851" />
        </g>
        <g
             aria-label="*"
             transform="matrix(2.39401665,0,0,2.39401665,51.87780201,-16.39887335)"
             id="text2801-5"
             style="font-size:26px;line-height:1.25;font-family:'Copperplate Gothic Light';-inkscape-font-specification:'Copperplate Gothic Light, Normal';font-variant-ligatures:none;white-space:pre;shape-inside:url(#rect2803);fill:#00ff00;fill-opacity:1">
            <path
                 d="m 47.55857668,27.40742997 -0.89384543,2.65947199 -0.32491287,-0.10920283 q 0.0293102,-0.48569647 -0.37943994,-0.78379506 -0.39671636,-0.29405408 -1.68028948,-0.73885465 0.020773,1.3329064 0.14405737,1.80292386 0.11923988,0.48205126 0.48025417,0.60338774 0.0481353,0.0161783 0.13641647,0.0324563 l -8.9856e-4,0.36131382 -2.80212942,-0.0310563 0.0129324,-0.35726926 q 0.44989453,-0.10326137 0.59145377,-0.52444471 0.17796018,-0.52948763 0.20946684,-1.89839562 -1.14915341,0.39057521 -1.55920149,0.61437434 -0.41004808,0.22379913 -0.50307271,0.50057675 -0.0404455,0.12033807 -0.0290107,0.36525853 l -0.32945662,0.10356086 -0.84446547,-2.66780956 0.34149041,-0.0995163 q 0.18395267,0.2895103 0.37649361,0.35422312 0.46931857,0.15773743 2.17677067,-0.33984418 -1.08034724,-1.44795087 -1.52559821,-1.5975992 -0.19254097,-0.0647128 -0.53008666,0.0629157 l -0.20003102,-0.28152104 2.28836961,-1.62826053 0.19598649,0.29355486 q -0.15299403,0.17626289 -0.19748409,0.3086348 -0.16582653,0.4933862 0.97429041,2.12214374 0.813804,-1.14615836 0.97963068,-1.63954445 0.13347014,-0.39711574 -0.16263169,-0.79128513 l 0.20142862,-0.28052276 2.24802614,1.67968829 -0.20142862,0.28052276 q -0.092226,-0.0443902 -0.14036119,-0.0605684 -0.34898048,-0.11729192 -0.76327279,0.19883296 -0.40630306,0.33220326 -1.17561716,1.34598961 1.29166219,0.42073299 1.78949231,0.41394178 0.50581936,0.009287 0.77176124,-0.3834845 z"
                 id="path6851-8"
                 style="fill:#00ff00;fill-opacity:1" />
        </g>
        <g
             aria-label="*"
             transform="matrix(2.39401665,0,0,2.39401665,206.3671486,6.225581225)"
             id="text2801-1"
             style="font-size:26px;line-height:1.25;font-family:'Copperplate Gothic Light';-inkscape-font-specification:'Copperplate Gothic Light, Normal';font-variant-ligatures:none;white-space:pre;shape-inside:url(#rect2803)">
            <path
                 d="m 25.73144531,14.37797496 h 2.80566407 v 0.34277344 q -0.46972657,0.12695312 -0.62207032,0.609375 -0.15234375,0.46972656 -0.16503906,1.828125 1.25683594,-0.44433594 1.66308594,-0.7109375 0.41894531,-0.26660157 0.41894531,-0.64746094 0,-0.0507813 -0.0126953,-0.13964844 l 0.34277344,-0.11425781 0.86328125,2.66601562 -0.34277344,0.1015625 q -0.24121094,-0.39355468 -0.68554688,-0.39355468 -0.55859375,0 -1.86621093,0.40625 0.73632812,0.96484375 1.07910156,1.28222656 0.34277344,0.31738281 0.63476562,0.31738281 0.12695313,0 0.35546875,-0.0888672 l 0.203125,0.27929688 -2.25976562,1.65039062 -0.203125,-0.29199218 q 0.21582031,-0.26660157 0.21582031,-0.46972657 0,-0.49511718 -1.015625,-1.95507812 -1.02832031,1.48535156 -1.02832031,1.95507812 0,0.203125 0.22851562,0.48242188 l -0.203125,0.27929687 -2.27246093,-1.65039062 0.21582031,-0.27929688 q 0.21582031,0.0888672 0.35546875,0.0888672 0.52050781,0 1.70117187,-1.59960937 -1.34570312,-0.40625 -1.86621093,-0.40625 -0.41894532,0 -0.69824219,0.40625 l -0.33007813,-0.1015625 0.87597657,-2.66601563 0.33007812,0.1015625 q -0.0126953,0.1015625 -0.0126953,0.15234375 0,0.36816406 0.43164062,0.66015625 0.44433594,0.27929688 1.65039063,0.68554688 -0.0126953,-1.35839844 -0.17773438,-1.828125 -0.15234375,-0.48242188 -0.609375,-0.609375 z"
                 id="path6851-3" />
        </g>
        <g
             aria-label="*"
             transform="matrix(2.39401665,0,0,2.39401665,321.2636939,6.225581225)"
             id="text2801-8"
             style="font-size:26px;line-height:1.25;font-family:'Copperplate Gothic Light';-inkscape-font-specification:'Copperplate Gothic Light, Normal';font-variant-ligatures:none;white-space:pre;shape-inside:url(#rect2803)">
            <path
                 d="m 25.73144531,14.37797496 h 2.80566407 v 0.34277344 q -0.46972657,0.12695312 -0.62207032,0.609375 -0.15234375,0.46972656 -0.16503906,1.828125 1.25683594,-0.44433594 1.66308594,-0.7109375 0.41894531,-0.26660157 0.41894531,-0.64746094 0,-0.0507813 -0.0126953,-0.13964844 l 0.34277344,-0.11425781 0.86328125,2.66601562 -0.34277344,0.1015625 q -0.24121094,-0.39355468 -0.68554688,-0.39355468 -0.55859375,0 -1.86621093,0.40625 0.73632812,0.96484375 1.07910156,1.28222656 0.34277344,0.31738281 0.63476562,0.31738281 0.12695313,0 0.35546875,-0.0888672 l 0.203125,0.27929688 -2.25976562,1.65039062 -0.203125,-0.29199218 q 0.21582031,-0.26660157 0.21582031,-0.46972657 0,-0.49511718 -1.015625,-1.95507812 -1.02832031,1.48535156 -1.02832031,1.95507812 0,0.203125 0.22851562,0.48242188 l -0.203125,0.27929687 -2.27246093,-1.65039062 0.21582031,-0.27929688 q 0.21582031,0.0888672 0.35546875,0.0888672 0.52050781,0 1.70117187,-1.59960937 -1.34570312,-0.40625 -1.86621093,-0.40625 -0.41894532,0 -0.69824219,0.40625 l -0.33007813,-0.1015625 0.87597657,-2.66601563 0.33007812,0.1015625 q -0.0126953,0.1015625 -0.0126953,0.15234375 0,0.36816406 0.43164062,0.66015625 0.44433594,0.27929688 1.65039063,0.68554688 -0.0126953,-1.35839844 -0.17773438,-1.828125 -0.15234375,-0.48242188 -0.609375,-0.609375 z"
                 id="path6851-6" />
        </g>
        <g
             aria-label="*"
             transform="matrix(1.775292403,1.606129697,-1.606129697,1.775292403,481.8020329,-25.96076269)"
             id="text2801-0"
             style="font-size:26px;line-height:1.25;font-family:'Copperplate Gothic Light';-inkscape-font-specification:'Copperplate Gothic Light, Normal';font-variant-ligatures:none;white-space:pre;shape-inside:url(#rect2803);fill:#ff0000;fill-opacity:1">
            <path
                 d="m 25.73144531,14.37797496 h 2.80566407 v 0.34277344 q -0.46972657,0.12695312 -0.62207032,0.609375 -0.15234375,0.46972656 -0.16503906,1.828125 1.25683594,-0.44433594 1.66308594,-0.7109375 0.41894531,-0.26660157 0.41894531,-0.64746094 0,-0.0507813 -0.0126953,-0.13964844 l 0.34277344,-0.11425781 0.86328125,2.66601562 -0.34277344,0.1015625 q -0.24121094,-0.39355468 -0.68554688,-0.39355468 -0.55859375,0 -1.86621093,0.40625 0.73632812,0.96484375 1.07910156,1.28222656 0.34277344,0.31738281 0.63476562,0.31738281 0.12695313,0 0.35546875,-0.0888672 l 0.203125,0.27929688 -2.25976562,1.65039062 -0.203125,-0.29199218 q 0.21582031,-0.26660157 0.21582031,-0.46972657 0,-0.49511718 -1.015625,-1.95507812 -1.02832031,1.48535156 -1.02832031,1.95507812 0,0.203125 0.22851562,0.48242188 l -0.203125,0.27929687 -2.27246093,-1.65039062 0.21582031,-0.27929688 q 0.21582031,0.0888672 0.35546875,0.0888672 0.52050781,0 1.70117187,-1.59960937 -1.34570312,-0.40625 -1.86621093,-0.40625 -0.41894532,0 -0.69824219,0.40625 l -0.33007813,-0.1015625 0.87597657,-2.66601563 0.33007812,0.1015625 q -0.0126953,0.1015625 -0.0126953,0.15234375 0,0.36816406 0.43164062,0.66015625 0.44433594,0.27929688 1.65039063,0.68554688 -0.0126953,-1.35839844 -0.17773438,-1.828125 -0.15234375,-0.48242188 -0.609375,-0.609375 z"
                 id="path6851-2"
                 style="fill:#ff0000;fill-opacity:1" />
        </g>
        <g
             aria-label="*"
             transform="matrix(2.39401665,0,0,2.39401665,551.0568229,6.225581225)"
             id="text2801-7"
             style="font-size:26px;line-height:1.25;font-family:'Copperplate Gothic Light';-inkscape-font-specification:'Copperplate Gothic Light, Normal';font-variant-ligatures:none;white-space:pre;shape-inside:url(#rect2803)">
            <path
                 d="m 25.73144531,14.37797496 h 2.80566407 v 0.34277344 q -0.46972657,0.12695312 -0.62207032,0.609375 -0.15234375,0.46972656 -0.16503906,1.828125 1.25683594,-0.44433594 1.66308594,-0.7109375 0.41894531,-0.26660157 0.41894531,-0.64746094 0,-0.0507813 -0.0126953,-0.13964844 l 0.34277344,-0.11425781 0.86328125,2.66601562 -0.34277344,0.1015625 q -0.24121094,-0.39355468 -0.68554688,-0.39355468 -0.55859375,0 -1.86621093,0.40625 0.73632812,0.96484375 1.07910156,1.28222656 0.34277344,0.31738281 0.63476562,0.31738281 0.12695313,0 0.35546875,-0.0888672 l 0.203125,0.27929688 -2.25976562,1.65039062 -0.203125,-0.29199218 q 0.21582031,-0.26660157 0.21582031,-0.46972657 0,-0.49511718 -1.015625,-1.95507812 -1.02832031,1.48535156 -1.02832031,1.95507812 0,0.203125 0.22851562,0.48242188 l -0.203125,0.27929687 -2.27246093,-1.65039062 0.21582031,-0.27929688 q 0.21582031,0.0888672 0.35546875,0.0888672 0.52050781,0 1.70117187,-1.59960937 -1.34570312,-0.40625 -1.86621093,-0.40625 -0.41894532,0 -0.69824219,0.40625 l -0.33007813,-0.1015625 0.87597657,-2.66601563 0.33007812,0.1015625 q -0.0126953,0.1015625 -0.0126953,0.15234375 0,0.36816406 0.43164062,0.66015625 0.44433594,0.27929688 1.65039063,0.68554688 -0.0126953,-1.35839844 -0.17773438,-1.828125 -0.15234375,-0.48242188 -0.609375,-0.609375 z"
                 id="path6851-62" />
        </g>
        <g
             aria-label="*"
             transform="matrix(2.39401665,0,0,2.39401665,665.9533507,6.225581225)"
             id="text2801-16"
             style="font-size:26px;line-height:1.25;font-family:'Copperplate Gothic Light';-inkscape-font-specification:'Copperplate Gothic Light, Normal';font-variant-ligatures:none;white-space:pre;shape-inside:url(#rect2803)">
            <path
                 d="m 25.73144531,14.37797496 h 2.80566407 v 0.34277344 q -0.46972657,0.12695312 -0.62207032,0.609375 -0.15234375,0.46972656 -0.16503906,1.828125 1.25683594,-0.44433594 1.66308594,-0.7109375 0.41894531,-0.26660157 0.41894531,-0.64746094 0,-0.0507813 -0.0126953,-0.13964844 l 0.34277344,-0.11425781 0.86328125,2.66601562 -0.34277344,0.1015625 q -0.24121094,-0.39355468 -0.68554688,-0.39355468 -0.55859375,0 -1.86621093,0.40625 0.73632812,0.96484375 1.07910156,1.28222656 0.34277344,0.31738281 0.63476562,0.31738281 0.12695313,0 0.35546875,-0.0888672 l 0.203125,0.27929688 -2.25976562,1.65039062 -0.203125,-0.29199218 q 0.21582031,-0.26660157 0.21582031,-0.46972657 0,-0.49511718 -1.015625,-1.95507812 -1.02832031,1.48535156 -1.02832031,1.95507812 0,0.203125 0.22851562,0.48242188 l -0.203125,0.27929687 -2.27246093,-1.65039062 0.21582031,-0.27929688 q 0.21582031,0.0888672 0.35546875,0.0888672 0.52050781,0 1.70117187,-1.59960937 -1.34570312,-0.40625 -1.86621093,-0.40625 -0.41894532,0 -0.69824219,0.40625 l -0.33007813,-0.1015625 0.87597657,-2.66601563 0.33007812,0.1015625 q -0.0126953,0.1015625 -0.0126953,0.15234375 0,0.36816406 0.43164062,0.66015625 0.44433594,0.27929688 1.65039063,0.68554688 -0.0126953,-1.35839844 -0.17773438,-1.828125 -0.15234375,-0.48242188 -0.609375,-0.609375 z"
                 id="path6851-26" />
        </g>
        <g
             aria-label="*"
             transform="matrix(2.39401665,0,0,2.39401665,780.7238115,6.483288285)"
             id="text2801-03"
             style="font-size:26px;line-height:1.25;font-family:'Copperplate Gothic Light';-inkscape-font-specification:'Copperplate Gothic Light, Normal';font-variant-ligatures:none;white-space:pre;shape-inside:url(#rect2803);fill:#ffff00;fill-opacity:1">
            <path
                 d="m 28.29198896,14.29398328 2.21605285,1.72071515 -0.21022312,0.27073949 q -0.44887379,-0.18780966 -0.86507202,0.0997986 -0.40841219,0.27758087 -1.25154601,1.3427254 1.26522291,0.4198595 1.74960621,0.45843767 0.49441069,0.0463642 0.72799192,-0.25445745 0.0311442,-0.0401096 0.0756191,-0.11808731 l 0.34081386,0.11997663 -0.95320627,2.63520238 -0.33302782,-0.13000401 q 0.0508469,-0.45878382 -0.3001117,-0.73129527 -0.4412051,-0.34258582 -1.72317942,-0.82367165 -0.0101506,1.21367192 0.0659378,1.67457975 0.0760885,0.46090782 0.30671839,0.63998677 0.10027389,0.0778604 0.33526917,0.14781743 l -0.0108547,0.34517921 -2.79706051,-0.0823549 0.0186407,-0.35520659 q 0.33397248,-0.0782125 0.45854914,-0.23865067 0.30365561,-0.39106815 0.39685929,-2.16710113 -1.7231853,0.54253509 -2.01126883,0.91354846 -0.12457666,0.16043822 -0.11537659,0.52118951 l -0.33173112,0.0960259 -0.78271715,-2.6972619 0.34175852,-0.0882399 q 0.1159633,0.20255444 0.22626458,0.28820089 0.41112292,0.3192277 2.32471126,-0.22012139 -0.81374985,-1.14619682 -1.22487278,-1.46542451 -0.33090382,-0.25693937 -0.80065969,-0.10735585 l -0.19842377,-0.28265619 2.3269585,-1.56851471 0.19842377,0.28265618 q -0.0723157,0.0724331 -0.10345988,0.11254262 -0.22579519,0.29079427 -0.063943,0.78614961 0.17966569,0.493114 0.88311427,1.55366436 0.82307905,-1.0807166 0.98080652,-1.55294852 0.17554091,-0.47447326 -0.10758466,-0.85504463 z"
                 id="path6851-36"
                 style="fill:#ffff00;fill-opacity:1" />
        </g>
        <g
             aria-label="*"
             transform="matrix(2.39401665,0,0,2.39401665,895.7464301,6.225581225)"
             id="text2801-78"
             style="font-size:26px;line-height:1.25;font-family:'Copperplate Gothic Light';-inkscape-font-specification:'Copperplate Gothic Light, Normal';font-variant-ligatures:none;white-space:pre;shape-inside:url(#rect2803)">
            <path
                 d="m 25.73144531,14.37797496 h 2.80566407 v 0.34277344 q -0.46972657,0.12695312 -0.62207032,0.609375 -0.15234375,0.46972656 -0.16503906,1.828125 1.25683594,-0.44433594 1.66308594,-0.7109375 0.41894531,-0.26660157 0.41894531,-0.64746094 0,-0.0507813 -0.0126953,-0.13964844 l 0.34277344,-0.11425781 0.86328125,2.66601562 -0.34277344,0.1015625 q -0.24121094,-0.39355468 -0.68554688,-0.39355468 -0.55859375,0 -1.86621093,0.40625 0.73632812,0.96484375 1.07910156,1.28222656 0.34277344,0.31738281 0.63476562,0.31738281 0.12695313,0 0.35546875,-0.0888672 l 0.203125,0.27929688 -2.25976562,1.65039062 -0.203125,-0.29199218 q 0.21582031,-0.26660157 0.21582031,-0.46972657 0,-0.49511718 -1.015625,-1.95507812 -1.02832031,1.48535156 -1.02832031,1.95507812 0,0.203125 0.22851562,0.48242188 l -0.203125,0.27929687 -2.27246093,-1.65039062 0.21582031,-0.27929688 q 0.21582031,0.0888672 0.35546875,0.0888672 0.52050781,0 1.70117187,-1.59960937 -1.34570312,-0.40625 -1.86621093,-0.40625 -0.41894532,0 -0.69824219,0.40625 l -0.33007813,-0.1015625 0.87597657,-2.66601563 0.33007812,0.1015625 q -0.0126953,0.1015625 -0.0126953,0.15234375 0,0.36816406 0.43164062,0.66015625 0.44433594,0.27929688 1.65039063,0.68554688 -0.0126953,-1.35839844 -0.17773438,-1.828125 -0.15234375,-0.48242188 -0.609375,-0.609375 z"
                 id="path6851-9" />
        </g>
    </g>
</svg>
