<?xml version="1.0" encoding="UTF-8" standalone="no"?>
<!-- Created with Inkscape (http://www.inkscape.org/) -->

<svg
     width="600"
     height="400"
     viewBox="0 0 600 400"
     version="1.1"
     id="svg5"
     sodipodi:docname="git-diff_状態の例示.svg"
     inkscape:version="1.1 (c68e22c387, 2021-05-23)"
     inkscape:export-filename="C:\Program Files\XAMPP\htdocs\koko-campus.org\subjects\git\pics\git-diff_状態の例示.png"
     inkscape:export-xdpi="96"
     inkscape:export-ydpi="96"
     xmlns:inkscape="http://www.inkscape.org/namespaces/inkscape"
     xmlns:sodipodi="http://sodipodi.sourceforge.net/DTD/sodipodi-0.dtd"
     xmlns="http://www.w3.org/2000/svg"
     xmlns:svg="http://www.w3.org/2000/svg">
    <sodipodi:namedview
         id="namedview7"
         pagecolor="#ffffff"
         bordercolor="#666666"
         borderopacity="1.0"
         inkscape:pageshadow="2"
         inkscape:pageopacity="0.0"
         inkscape:pagecheckerboard="0"
         inkscape:document-units="px"
         showgrid="false"
         units="px"
         width="600px"
         inkscape:zoom="1.5002"
         inkscape:cx="323.29"
         inkscape:cy="197.64"
         inkscape:window-width="1920"
         inkscape:window-height="1009"
         inkscape:window-x="-8"
         inkscape:window-y="-8"
         inkscape:window-maximized="1"
         inkscape:current-layer="layer1" />
    <defs
         id="defs2" />
    <g
         inkscape:label="レイヤー 1"
         inkscape:groupmode="layer"
         id="layer1">
        <text
             xml:space="preserve"
             style="font-size:16px;line-height:1.25;font-family:Consolas;-inkscape-font-specification:'Consolas, Normal';font-variant-ligatures:none"
             x="41.057"
             y="75.543"
             id="text1377"><tspan
                 sodipodi:role="line"
                 id="tspan1375"
                 x="41.057"
                 y="75.543">1. ワークツリー</tspan></text>
        <text
             xml:space="preserve"
             style="font-size:16px;line-height:1.25;font-family:Consolas;-inkscape-font-specification:'Consolas, Normal';font-variant-ligatures:none"
             x="212.68"
             y="76.105"
             id="text1975"><tspan
                 sodipodi:role="line"
                 id="tspan1973"
                 x="212.68"
                 y="76.105">2. ステージングファイル</tspan></text>
        <text
             xml:space="preserve"
             style="font-size:16px;line-height:1.25;font-family:Consolas;-inkscape-font-specification:'Consolas, Normal';font-variant-ligatures:none"
             x="465.28"
             y="75.324"
             id="text2771"><tspan
                 sodipodi:role="line"
                 id="tspan2769"
                 x="465.28"
                 y="75.324">3. コミット</tspan></text>
        <g
             id="g1825"
             transform="matrix(1.1073,0,0,1.1073,-65.747,169.03)">
            <path
                 style="fill:#f2c9b0;stroke-width:0.391391"
                 d="m 501.04,188.94 c -0.11,-0.1 -1.69,-0.3 -3.52,-0.44 -5.4,-0.41 -9.32,-1.13 -17.29,-3.19 -10.16,-2.62 -17.03,-7.29 -17.82,-12.09 -0.93,-5.81 7.37,-11.56 21.21,-14.7 2.16,-0.49 4.14,-0.94 4.41,-1.02 0.36,-0.1 0.49,-1.85 0.49,-7.09 v -6.96 h -6.36 c -8.16,0 -9.71,-0.52 -13.83,-4.66 -2.26,-2.26 -2.97,-3.28 -3.82,-5.51 -1.67,-4.38 -3.62,-7.02 -7.24,-9.77 -4.24,-3.23 -4.21,-4.68 0.12,-4.64 4.63,0 7.71,2.23 11.84,8.42 3.29,4.91 8.31,7.09 14.18,6.16 1.4,-0.23 3.27,-0.73 4.15,-1.12 1.41,-0.62 1.7,-0.99 2.47,-3.11 0.6,-1.63 1.55,-3.12 2.96,-4.65 l 2.09,-2.26 -4.26,-0.7 c -3.81,-0.61 -6.53,-1.28 -10.91,-2.67 -6.13,-1.92 -13.22,-7.26 -16.43,-12.35 l -1.28,-2.02 -2.79,0.18 c -13.8,0.92 -29.3,3.23 -34.01,5.06 -0.46,0.18 -0.68,0.1 -0.68,-0.32 0,-1.29 15.91,-4.18 28.82,-5.24 l 8.27,-0.68 -0.64,-1.35 -0.64,-1.35 -11.74,0.24 c -10.93,0.21 -17.63,0.81 -23.43,2.07 -0.85,0.18 -1.08,0.11 -0.95,-0.29 0.41,-1.24 14.66,-2.72 27.02,-2.81 4.68,0 8.51,-0.204 8.51,-0.368 0,-0.164 -0.35,-1.573 -0.79,-3.131 -1.01,-3.593 -1.59,-12.748 -1.14,-17.848 0.49,-5.593 2.18,-9.882 5.91,-15.037 l 1.92,-2.65 -0.57,-1.921 c -1.4,-4.719 -1.04,-12.011 0.84,-17.104 0.7,-1.88 0.72,-1.895 2.62,-2.017 2.66,-0.168 7,0.873 10.35,2.479 3.03,1.448 8.07,4.31 9.07,5.145 0.45,0.373 0.96,0.411 1.91,0.138 0.71,-0.205 3.78,-0.744 6.82,-1.198 7.58,-1.13 16.45,-1.123 24.12,0.02 3.13,0.465 5.77,0.875 5.89,0.91 0.12,0.04 1.62,-0.754 3.33,-1.754 7.03,-4.111 11.69,-5.814 15.88,-5.814 h 2.21 l 0.65,1.611 c 1.69,4.214 2.35,12.109 1.38,16.336 -0.39,1.689 -0.38,1.728 1.59,4.112 2.55,3.068 5.6,9.338 6.52,13.362 1.17,5.174 0.7,18.223 -0.87,23.874 -0.21,0.768 0,0.785 8.9,0.835 12.72,0.1 27.2,1.55 27.63,2.83 0.13,0.39 -0.11,0.47 -0.95,0.28 -5.92,-1.28 -12.46,-1.85 -23.86,-2.07 l -12.17,-0.23 -0.45,1.29 c -0.25,0.71 -0.45,1.36 -0.45,1.43 0,0.1 0.74,0.14 1.66,0.14 9.82,0 35.91,4.2 35.91,5.76 0,0.4 -0.22,0.49 -0.68,0.31 -4.77,-1.84 -19.98,-4.09 -34.37,-5.08 l -3.15,-0.21 -0.47,1.27 c -0.72,1.96 -3.74,5.77 -6.24,7.85 -2.56,2.14 -8.26,5.1 -11.45,5.95 -4.53,1.21 -8.9,2.12 -11.44,2.38 l -2.63,0.27 2.11,2.28 c 3.88,4.19 4.49,7.26 4.51,22.52 v 10.23 l 1.79,0.27 c 5.14,0.77 14.65,3.79 18.19,5.77 7.11,4 9.21,8.43 6.17,13.02 -3.47,5.24 -14.45,9.49 -30.84,11.95 -2.98,0.45 -23.91,1.03 -24.27,0.67 z m -1.56,-43.97 c 0,-9.66 -0.1,-11.14 -0.56,-10.74 -1.43,1.18 -1.79,3.8 -1.79,13.01 v 8.93 h 1.17 1.18 z m 21.91,2.49 c 0,-8.95 -0.25,-10.92 -1.56,-12.49 -0.75,-0.91 -0.76,-0.86 -0.77,9.92 0,11.28 0,11.17 1.65,11.25 0.63,0 0.68,-0.63 0.68,-8.68 z m -10.96,-0.23 c 0,-11.13 -0.27,-14.54 -1.17,-14.54 -0.88,0 -1.17,3.63 -1.17,14.77 v 8.32 h 1.17 1.18 v -8.55 z m -19.46,-40.13 c 1.77,-0.75 2.78,-2 4.02,-4.94 2.59,-6.182 0.58,-14.041 -4.24,-16.499 -3.33,-1.699 -6.56,-0.05 -8.87,4.528 -1.23,2.447 -1.35,2.975 -1.34,6.051 0,5.18 2.03,9.55 5.02,10.85 1.56,0.68 3.84,0.68 5.41,0 z m -5.22,-4.05 c -3.48,-2.93 -3.67,-9.42 -0.37,-12.724 1.13,-1.123 1.79,-1.475 2.8,-1.475 3.17,0 5.57,3.288 5.57,7.632 0,5.867 -4.47,9.547 -8,6.567 z m 47.49,4.05 c 1.72,-0.73 2.78,-1.97 4.07,-4.75 0.91,-1.97 1.09,-2.873 1.1,-5.671 0,-4.129 -0.83,-6.724 -2.97,-9.159 -2.72,-3.08 -6.05,-3.303 -9.11,-0.61 -3.95,3.463 -4.54,12.54 -1.16,17.73 1.66,2.55 5.27,3.66 8.07,2.46 z m -5.58,-4.5 c -2.54,-2.665 -3.02,-7.005 -1.18,-10.606 0.9,-1.765 2.78,-3.139 4.31,-3.139 2.47,0 4.85,2.857 5.34,6.415 0.6,4.411 -2.11,8.85 -5.4,8.85 -1.38,0 -1.85,-0.24 -3.07,-1.52 z m -72.9,27.32 c -0.86,-0.51 -0.84,-1.92 0.1,-4.47 l 0.7,-1.96 0.64,2.12 c 0.76,2.53 0.81,3.62 0.17,4.26 -0.56,0.56 -0.69,0.56 -1.58,0 z"
                 id="path1839" />
            <path
                 style="fill:#9bd8ee;stroke-width:0.391391"
                 d="m 501.04,188.94 c -0.11,-0.1 -1.69,-0.3 -3.52,-0.44 -5.4,-0.41 -9.32,-1.13 -17.29,-3.19 -10.16,-2.62 -17.03,-7.29 -17.82,-12.09 -0.93,-5.81 7.37,-11.56 21.21,-14.7 2.16,-0.49 4.14,-0.94 4.41,-1.02 0.36,-0.1 0.49,-1.85 0.49,-7.09 v -6.96 h -6.36 c -8.16,0 -9.71,-0.52 -13.83,-4.66 -2.26,-2.26 -2.97,-3.28 -3.82,-5.51 -1.67,-4.38 -3.62,-7.02 -7.24,-9.77 -4.24,-3.23 -4.21,-4.68 0.12,-4.64 4.63,0 7.71,2.23 11.84,8.42 3.29,4.91 8.31,7.09 14.18,6.16 1.4,-0.23 3.27,-0.73 4.15,-1.12 1.41,-0.62 1.7,-0.99 2.47,-3.11 0.6,-1.63 1.55,-3.12 2.96,-4.65 l 2.09,-2.26 -4.26,-0.7 c -3.81,-0.61 -6.53,-1.28 -10.91,-2.67 -6.13,-1.92 -13.22,-7.26 -16.43,-12.35 l -1.28,-2.02 -2.79,0.18 c -13.8,0.92 -29.3,3.23 -34.01,5.06 -0.46,0.18 -0.68,0.1 -0.68,-0.32 0,-1.29 15.91,-4.18 28.82,-5.24 l 8.27,-0.68 -0.64,-1.35 -0.64,-1.35 -11.74,0.24 c -10.93,0.21 -17.63,0.81 -23.43,2.07 -0.85,0.18 -1.08,0.11 -0.95,-0.29 0.41,-1.24 14.66,-2.72 27.02,-2.81 4.68,0 8.51,-0.204 8.51,-0.368 0,-0.164 -0.35,-1.573 -0.79,-3.131 -1.01,-3.593 -1.59,-12.748 -1.14,-17.848 0.49,-5.593 2.18,-9.882 5.91,-15.037 l 1.92,-2.65 -0.57,-1.921 c -1.4,-4.719 -1.04,-12.011 0.84,-17.104 0.7,-1.88 0.72,-1.895 2.62,-2.017 2.66,-0.168 7,0.873 10.35,2.479 3.03,1.448 8.07,4.31 9.07,5.145 0.45,0.373 0.96,0.411 1.91,0.138 0.71,-0.205 3.78,-0.744 6.82,-1.198 7.58,-1.13 16.45,-1.123 24.12,0.02 3.13,0.465 5.77,0.875 5.89,0.91 0.12,0.04 1.62,-0.754 3.33,-1.754 7.03,-4.111 11.69,-5.814 15.88,-5.814 h 2.21 l 0.65,1.611 c 1.69,4.214 2.35,12.109 1.38,16.336 -0.39,1.689 -0.38,1.728 1.59,4.112 2.55,3.068 5.6,9.338 6.52,13.362 1.17,5.174 0.7,18.223 -0.87,23.874 -0.21,0.768 0,0.785 8.9,0.835 12.72,0.1 27.2,1.55 27.63,2.83 0.13,0.39 -0.11,0.47 -0.95,0.28 -5.92,-1.28 -12.46,-1.85 -23.86,-2.07 l -12.17,-0.23 -0.45,1.29 c -0.25,0.71 -0.45,1.36 -0.45,1.43 0,0.1 0.74,0.14 1.66,0.14 9.82,0 35.91,4.2 35.91,5.76 0,0.4 -0.22,0.49 -0.68,0.31 -4.77,-1.84 -19.98,-4.09 -34.37,-5.08 l -3.15,-0.21 -0.47,1.27 c -0.72,1.96 -3.74,5.77 -6.24,7.85 -2.56,2.14 -8.26,5.1 -11.45,5.95 -4.53,1.21 -8.9,2.12 -11.44,2.38 l -2.63,0.27 2.11,2.28 c 3.88,4.19 4.49,7.26 4.51,22.52 v 10.23 l 1.79,0.27 c 5.14,0.77 14.65,3.79 18.19,5.77 7.11,4 9.21,8.43 6.17,13.02 -3.47,5.24 -14.45,9.49 -30.84,11.95 -2.98,0.45 -23.91,1.03 -24.27,0.67 z m -1.56,-43.97 c 0,-9.66 -0.1,-11.14 -0.56,-10.74 -1.43,1.18 -1.79,3.8 -1.79,13.01 v 8.93 h 1.17 1.18 z m 21.91,2.49 c 0,-8.95 -0.25,-10.92 -1.56,-12.49 -0.75,-0.91 -0.76,-0.86 -0.77,9.92 0,11.28 0,11.17 1.65,11.25 0.63,0 0.68,-0.63 0.68,-8.68 z m -10.96,-0.23 c 0,-11.13 -0.27,-14.54 -1.17,-14.54 -0.88,0 -1.17,3.63 -1.17,14.77 v 8.32 h 1.17 1.18 v -8.55 z m 11.94,-29.04 c 5.11,-0.44 10.29,-1.52 12.94,-2.69 0.92,-0.41 2.73,-1.46 4.01,-2.33 4.54,-3.08 7.2,-9.33 7.25,-17.035 0,-4 -0.39,-5.57 -2.39,-8.975 -2.87,-4.9 -7.1,-7.718 -12.76,-8.505 -2.4,-0.333 -5.24,-0.29 -12.77,0.2 -8.8,0.571 -10.56,0.571 -19.42,0.04 -10.17,-0.63 -13.86,-0.47 -17.27,0.74 -3.87,1.369 -7.39,4.869 -9.59,9.526 -2.05,4.368 -1.8,11.029 0.61,16.269 3.45,7.48 11.41,11.56 24.93,12.78 5.04,0.45 19.17,0.45 24.46,0 z m -16.13,-4.39 c -1.27,-0.89 -2.21,-2.37 -1.78,-2.8 0.5,-0.5 1.11,-0.18 1.75,0.95 0.6,1.05 0.86,1.17 2.63,1.17 1.73,0 2.07,-0.14 2.83,-1.18 1.43,-1.94 2.66,-1.27 1.28,0.7 -1.46,2.09 -4.62,2.64 -6.71,1.16 z m 1.29,-5.99 c -0.34,-0.34 -0.62,-0.95 -0.62,-1.35 0,-0.87 1.01,-1.95 1.82,-1.95 1.79,0 2.85,2.22 1.63,3.44 -0.66,0.66 -2.1,0.58 -2.83,-0.14 z m -21.33,-4.54 c -2.04,-1.4 -2.97,-3.527 -2.96,-6.787 0,-4.571 2.13,-7.464 5.36,-7.382 2.86,0.08 4.99,3.225 4.99,7.382 0,5.537 -3.93,9.147 -7.39,6.787 z m 42.49,0.1 c -4.42,-2.91 -4.15,-11.76 0.42,-13.94 5.04,-2.411 9.2,6.791 5.5,12.18 -1.66,2.44 -3.89,3.1 -5.92,1.76 z m -73.93,26.55 c -0.86,-0.51 -0.84,-1.92 0.1,-4.47 l 0.7,-1.96 0.64,2.12 c 0.76,2.53 0.81,3.62 0.17,4.26 -0.56,0.56 -0.69,0.56 -1.58,0 z"
                 id="path1837" />
            <path
                 style="fill:#7ab8e3;stroke-width:0.391391"
                 d="m 502.16,188.76 -2.6,-0.14 -0.16,-5.56 c -0.13,-4.53 -0.3,-5.89 -0.95,-7.32 -0.45,-0.97 -1.08,-1.99 -1.42,-2.27 -0.55,-0.45 -0.57,-0.34 -0.27,0.98 0.19,0.82 0.35,4.26 0.36,7.65 0,7.12 0.58,6.45 -4.89,5.64 l -3.13,-0.46 -0.2,-6.26 c -0.18,-5.73 -0.27,-6.39 -1.13,-7.77 -0.51,-0.83 -1.88,-2.11 -3.03,-2.85 -2.09,-1.34 -2.56,-2.26 -1.62,-3.19 0.36,-0.37 0.36,-0.47 0,-0.47 -0.9,0 -0.51,-1.9 0.54,-2.62 4.78,-3.31 5.25,-4.56 5.25,-14 v -6.69 h -6.56 c -5.95,0 -6.76,-0.1 -8.83,-0.91 -2.75,-1.1 -6.83,-4.76 -8,-7.18 -0.45,-0.92 -1.43,-3 -2.19,-4.61 -1.49,-3.17 -3.36,-5.35 -6.69,-7.82 -3.06,-2.25 -3.3,-3.81 -0.61,-3.97 5.37,-0.34 8.88,1.9 13.33,8.49 1.59,2.36 2.37,3.11 4.42,4.26 4.32,2.41 9.23,2.64 13.79,0.63 1.39,-0.62 1.69,-0.99 2.46,-3.1 0.6,-1.65 1.55,-3.13 3,-4.7 l 2.12,-2.29 -3.29,-0.46 c -1.81,-0.25 -5.49,-1.06 -8.19,-1.8 -9.29,-2.55 -15.84,-6.83 -19.84,-12.96 l -1.63,-2.52 -3.19,0.23 c -11.54,0.81 -22.83,2.34 -29.69,4.03 -3.02,0.74 -4.6,0.97 -4.6,0.68 0,-1.37 19.88,-4.71 32.95,-5.53 l 4.18,-0.27 -0.64,-1.32 -0.63,-1.33 h -8.24 c -9.88,0 -17.28,0.49 -23.31,1.55 -4.3,0.74 -5.26,0.76 -4.48,0.1 1.2,-1.06 16.34,-2.47 27.23,-2.54 4.67,0 8.41,-0.18 8.32,-0.328 -0.1,-0.145 -0.53,-1.64 -0.99,-3.327 -1.16,-4.376 -1.51,-17.155 -0.57,-21.37 0.7,-3.159 2.81,-7.891 4.47,-10.067 2.9,-3.8 2.86,-3.659 2.14,-6.364 -1.22,-4.638 -0.65,-12.832 1.23,-17.313 0.54,-1.308 0.66,-1.372 2.52,-1.372 4.25,0 9.69,1.903 15.45,5.412 1.47,0.898 2.78,1.633 2.9,1.633 0.13,0 0.53,0.277 0.91,0.615 0.56,0.509 0.94,0.541 2.18,0.185 3.73,-1.068 12.24,-1.962 18.72,-1.965 6.01,0 16.25,1.032 17.43,1.76 0.33,0.203 2.46,-0.866 4.3,-2.157 3.98,-2.803 11.52,-5.465 15.51,-5.477 1.97,0 2.03,0.03 2.6,1.462 1.37,3.447 1.95,7.478 1.72,11.976 -0.12,2.4 -0.32,4.805 -0.45,5.343 -0.18,0.783 0.21,1.519 1.96,3.671 3.82,4.716 6.18,10.493 6.82,16.744 0.45,4.286 -0.1,13.601 -0.95,17.871 -0.33,1.573 -0.6,2.892 -0.6,2.935 0,0.04 4.01,0.09 8.91,0.123 11.18,0.1 26.43,1.47 27.66,2.55 0.78,0.69 -0.18,0.67 -4.48,-0.1 -6.11,-1.07 -13.45,-1.55 -23.78,-1.55 h -8.72 l -0.38,1.01 c -0.21,0.55 -0.38,1.14 -0.38,1.31 0,0.18 1.98,0.44 4.4,0.58 13.01,0.79 33.17,4.16 33.17,5.55 0,0.29 -1.58,0.1 -4.6,-0.68 -7.22,-1.77 -18.24,-3.25 -30.06,-4.06 l -3.54,-0.23 -0.85,1.88 c -1.9,4.19 -6.41,8.35 -11.99,11.09 -3.49,1.71 -10.54,3.65 -15.9,4.38 l -3.44,0.47 2.08,2.25 c 3.76,4.05 3.86,4.58 4.11,20.29 0.16,9.73 0.36,13.83 0.72,14.67 0.65,1.51 1.84,2.79 3.67,3.96 1.89,1.21 2.47,2.25 1.67,3.04 -0.36,0.36 -0.43,0.68 -0.19,0.83 0.97,0.6 0.31,1.79 -1.7,3.08 -1.15,0.74 -2.52,2.02 -3.03,2.85 -0.88,1.4 -0.95,1.97 -1.08,7.83 l -0.14,6.32 -1.07,0.21 c -0.59,0.12 -2.42,0.34 -4.07,0.49 l -3,0.27 v -6.22 c 0,-3.42 0.17,-6.89 0.36,-7.7 0.3,-1.32 0.28,-1.43 -0.27,-0.98 -1.57,1.3 -2.2,3.85 -2.37,9.55 l -0.16,5.53 -2.6,0.24 c -1.43,0.14 -3.37,0.25 -4.31,0.25 h -1.71 l 0.18,-4.99 c 0.23,-6.21 1.08,-8.99 3.43,-11.11 0.87,-0.79 2.22,-1.73 3.02,-2.11 l 1.44,-0.68 -1.73,-0.89 c -2.83,-1.44 -4.43,-3.28 -5.39,-6.21 -0.81,-2.47 -0.85,-3.27 -0.85,-16.48 v -13.89 h -1.18 -1.17 v 13.89 c 0,13.21 0,14.01 -0.86,16.48 -0.95,2.93 -2.55,4.77 -5.38,6.21 l -1.74,0.89 1.45,0.68 c 0.79,0.38 2.15,1.32 3.01,2.11 2.35,2.12 3.21,4.9 3.43,11.11 l 0.18,4.99 -1.71,-0.1 c -0.94,0 -2.88,-0.14 -4.31,-0.21 z m -5.53,-21.83 c 0.46,-0.33 1.24,-1.6 1.74,-2.84 0.87,-2.18 0.9,-2.65 1,-16.33 0.11,-14.08 0.11,-14.09 -0.67,-13.18 -1.36,1.6 -1.57,3.5 -1.58,14.35 0,9.79 -0.1,10.7 -0.81,12.33 -1.31,2.9 -2.96,4.26 -6.37,5.28 l -1.52,0.45 2.32,0.84 c 1.27,0.47 2.83,1.39 3.47,2.06 l 1.16,1.21 0.21,-1.79 c 0.15,-1.23 0.48,-1.99 1.05,-2.38 z m 31.45,0.77 2.09,-0.69 -1.55,-0.46 c -3.45,-1.03 -5.09,-2.38 -6.41,-5.29 -0.74,-1.63 -0.8,-2.55 -0.81,-12.13 0,-10.61 -0.19,-12.24 -1.58,-14.29 l -0.8,-1.17 0.11,14.09 c 0.11,13.43 0.15,14.18 0.97,16.17 0.46,1.14 1.3,2.5 1.85,3.01 0.77,0.72 1.01,1.32 1.01,2.56 v 1.63 l 1.51,-1.36 c 0.83,-0.75 2.45,-1.68 3.61,-2.07 z m -49.54,-31.88 c 0,-0.35 -0.44,-0.64 -1.08,-0.71 -0.88,-0.1 -1.08,0 -1.08,0.71 0,0.68 0.2,0.81 1.08,0.71 0.64,-0.1 1.08,-0.36 1.08,-0.71 z m 4.3,0 c 0,-0.7 -1.29,-1.02 -1.85,-0.47 -0.21,0.22 -0.27,0.6 -0.11,0.84 0.39,0.63 1.96,0.33 1.96,-0.37 z m 4.7,-0.79 c 0,-0.68 -1.67,-1.03 -2.24,-0.46 -0.63,0.63 0.1,1.3 1.2,1.17 0.61,-0.1 1.04,-0.36 1.04,-0.71 z m -14.12,-0.24 c 0.34,-0.13 0.61,-0.46 0.61,-0.74 0,-0.62 -0.97,-1.03 -1.76,-0.73 -0.71,0.28 -0.77,1.18 -0.1,1.45 0.27,0.11 0.52,0.21 0.55,0.23 0,0 0.35,-0.1 0.69,-0.21 z m -2.71,-3.28 c 0,-0.69 -1.29,-1.02 -1.85,-0.46 -0.21,0.21 -0.27,0.59 -0.12,0.84 0.39,0.63 1.97,0.33 1.97,-0.38 z m -2.77,-2.2 c 0.34,-0.13 0.62,-0.46 0.62,-0.74 0,-0.62 -0.98,-1.03 -1.77,-0.72 -0.71,0.27 -0.77,1.17 -0.1,1.44 0.27,0.11 0.52,0.21 0.55,0.23 0,0 0.35,-0.1 0.69,-0.21 z m -1.55,-3.65 c 0.28,-0.46 -0.98,-1.16 -1.65,-0.91 -0.27,0.1 -0.49,0.42 -0.49,0.72 0,0.63 1.77,0.78 2.14,0.19 z m -2.21,-3.06 c -0.1,-0.43 -0.49,-0.68 -1.1,-0.68 -0.61,0 -1.02,0.25 -1.1,0.68 -0.11,0.54 0.13,0.69 1.1,0.69 0.96,0 1.2,-0.15 1.1,-0.69 z m -4.04,-2.05 c 0,-0.69 -1.29,-1.02 -1.85,-0.46 -0.21,0.21 -0.27,0.59 -0.11,0.84 0.39,0.63 1.96,0.33 1.96,-0.38 z m 62.23,-2.37 c 5.11,-0.44 10.29,-1.52 12.94,-2.69 0.92,-0.4 2.73,-1.45 4.01,-2.32 4.54,-3.09 7.2,-9.34 7.25,-17.039 0,-4 -0.39,-5.57 -2.39,-8.975 -2.87,-4.9 -7.1,-7.718 -12.76,-8.505 -2.4,-0.332 -5.24,-0.289 -12.77,0.2 -8.8,0.571 -10.56,0.571 -19.42,0.04 -10.17,-0.63 -13.86,-0.47 -17.27,0.74 -3.87,1.37 -7.39,4.869 -9.59,9.526 -2.05,4.368 -1.8,11.033 0.61,16.273 3.45,7.48 11.41,11.55 24.93,12.77 5.04,0.46 19.17,0.45 24.46,0 z m -16.13,-4.38 c -1.27,-0.9 -2.21,-2.37 -1.78,-2.8 0.5,-0.51 1.11,-0.18 1.75,0.94 0.6,1.06 0.86,1.17 2.63,1.17 1.73,0 2.07,-0.14 2.83,-1.17 1.43,-1.94 2.66,-1.27 1.28,0.7 -1.46,2.09 -4.62,2.63 -6.71,1.16 z m 1.29,-6 c -0.34,-0.34 -0.62,-0.94 -0.62,-1.34 0,-0.87 1.01,-1.96 1.82,-1.96 1.79,0 2.85,2.23 1.63,3.45 -0.66,0.65 -2.1,0.58 -2.83,-0.15 z m -21.33,-4.54 c -2.04,-1.39 -2.97,-3.521 -2.96,-6.781 0,-4.571 2.13,-7.464 5.36,-7.382 2.86,0.08 4.99,3.226 4.99,7.382 0,5.531 -3.93,9.141 -7.39,6.781 z m 42.49,0.11 c -4.42,-2.91 -4.15,-11.764 0.42,-13.944 5.04,-2.411 9.2,6.791 5.5,12.184 -1.66,2.43 -3.89,3.1 -5.92,1.76 z"
                 id="path1835" />
            <path
                 style="fill:#9a9da1;stroke-width:0.391391"
                 d="m 496.05,170.39 c -0.83,-0.33 -0.56,-2.28 0.46,-3.23 0.52,-0.49 1.36,-1.8 1.86,-2.91 0.89,-1.97 0.91,-2.31 1.03,-16.24 0.1,-9.98 0,-14.15 -0.3,-13.97 -0.23,0.15 -0.72,0.82 -1.1,1.51 -0.59,1.08 -0.7,2.8 -0.87,12.99 l -0.2,11.74 -1.11,1.89 c -1.35,2.31 -3.73,3.89 -6.8,4.54 -5.88,1.24 -8.61,-0.87 -4.26,-3.3 1.92,-1.08 3.25,-2.82 3.73,-4.93 0.22,-0.95 0.4,-4.72 0.41,-8.38 v -6.67 h -6.56 c -5.95,0 -6.76,-0.1 -8.83,-0.91 -2.75,-1.1 -6.83,-4.76 -8,-7.18 -0.45,-0.92 -1.43,-3 -2.19,-4.61 -1.49,-3.17 -3.36,-5.35 -6.69,-7.82 -3.06,-2.25 -3.29,-3.81 -0.61,-3.97 5.38,-0.34 8.88,1.9 13.33,8.49 1.59,2.36 2.38,3.11 4.43,4.26 4.31,2.41 9.23,2.64 13.78,0.63 1.39,-0.62 1.69,-0.99 2.46,-3.1 0.6,-1.65 1.55,-3.13 3,-4.7 l 2.12,-2.29 -3.29,-0.46 c -1.81,-0.25 -5.49,-1.06 -8.18,-1.8 -9.3,-2.55 -15.85,-6.83 -19.85,-12.96 l -1.63,-2.52 -3.18,0.23 c -11.55,0.81 -22.84,2.34 -29.7,4.03 -3.02,0.74 -4.6,0.97 -4.6,0.68 0,-1.37 19.89,-4.71 32.95,-5.53 l 4.18,-0.27 -0.64,-1.32 -0.63,-1.33 h -8.24 c -9.88,0 -17.28,0.49 -23.31,1.55 -4.3,0.74 -5.26,0.76 -4.48,0.1 1.2,-1.06 16.34,-2.47 27.24,-2.54 4.66,0 8.4,-0.18 8.31,-0.328 -0.1,-0.145 -0.53,-1.64 -0.98,-3.327 -1.17,-4.376 -1.51,-17.155 -0.57,-21.37 0.7,-3.159 2.8,-7.891 4.46,-10.067 2.91,-3.8 2.86,-3.659 2.14,-6.364 -1.22,-4.638 -0.64,-12.832 1.23,-17.313 0.55,-1.308 0.66,-1.372 2.53,-1.372 4.25,0 9.68,1.903 15.44,5.412 1.48,0.898 2.78,1.633 2.9,1.633 0.13,0 0.53,0.277 0.91,0.615 0.56,0.509 0.94,0.541 2.18,0.185 3.73,-1.068 12.25,-1.962 18.73,-1.965 6,0 16.25,1.032 17.43,1.76 0.32,0.203 2.45,-0.866 4.29,-2.157 3.98,-2.803 11.53,-5.465 15.51,-5.477 1.97,0 2.03,0.03 2.6,1.462 1.37,3.447 1.95,7.478 1.72,11.976 -0.12,2.4 -0.32,4.805 -0.45,5.343 -0.18,0.783 0.21,1.519 1.96,3.671 3.82,4.716 6.18,10.493 6.82,16.744 0.45,4.286 -0.1,13.601 -0.94,17.871 -0.34,1.573 -0.61,2.892 -0.61,2.935 0,0.04 4.01,0.09 8.91,0.123 11.18,0.1 26.44,1.47 27.66,2.55 0.78,0.69 -0.18,0.67 -4.48,-0.1 -6.11,-1.07 -13.45,-1.55 -23.78,-1.55 h -8.72 l -0.38,1.01 c -0.21,0.55 -0.38,1.14 -0.38,1.31 0,0.18 1.98,0.44 4.4,0.58 13.02,0.79 33.17,4.16 33.17,5.55 0,0.29 -1.57,0.1 -4.6,-0.68 -7.22,-1.77 -18.24,-3.25 -30.06,-4.06 l -3.53,-0.23 -0.86,1.88 c -1.9,4.19 -6.4,8.35 -11.99,11.09 -3.49,1.71 -10.54,3.65 -15.89,4.38 l -3.45,0.47 2.08,2.25 c 3.76,4.06 3.86,4.55 4.12,20.48 0.14,9 0.37,14.04 0.67,14.68 0.68,1.49 2.11,3 3.6,3.81 4.26,2.31 1.38,4.42 -4.39,3.21 -3.06,-0.65 -5.44,-2.24 -6.8,-4.54 l -1.11,-1.89 -0.19,-11.55 c -0.2,-11.43 -0.21,-11.56 -1.18,-13.26 l -0.98,-1.71 -0.12,2.69 c -0.1,1.48 -0.1,7.88 0,14.24 0.12,11.12 0.16,11.62 1.03,13.56 0.51,1.11 1.34,2.42 1.86,2.91 1.09,1.01 1.28,2.89 0.33,3.25 -1.28,0.49 -2.85,0.2 -5.16,-0.95 -3.19,-1.6 -4.94,-3.61 -5.94,-6.85 -0.74,-2.43 -0.8,-3.59 -0.8,-16.27 v -13.66 h -1.18 -1.17 v 13.66 c 0,12.68 -0.1,13.84 -0.81,16.27 -0.51,1.66 -1.31,3.16 -2.18,4.14 -2.35,2.59 -7,4.47 -9.05,3.64 z m -17.51,-34.57 c 0,-0.35 -0.44,-0.64 -1.08,-0.71 -0.88,-0.1 -1.08,0 -1.08,0.71 0,0.68 0.2,0.81 1.08,0.71 0.64,-0.1 1.08,-0.36 1.08,-0.71 z m 4.3,0 c 0,-0.7 -1.29,-1.02 -1.85,-0.47 -0.21,0.22 -0.27,0.6 -0.11,0.84 0.39,0.63 1.96,0.33 1.96,-0.37 z m 4.7,-0.79 c 0,-0.68 -1.67,-1.03 -2.24,-0.46 -0.63,0.63 0.1,1.3 1.2,1.17 0.61,-0.1 1.04,-0.36 1.04,-0.71 z m -14.12,-0.24 c 0.34,-0.13 0.61,-0.46 0.61,-0.74 0,-0.62 -0.97,-1.03 -1.76,-0.73 -0.71,0.28 -0.77,1.18 -0.1,1.45 0.27,0.11 0.52,0.21 0.55,0.23 0,0 0.35,-0.1 0.69,-0.21 z m -2.71,-3.28 c 0,-0.69 -1.29,-1.02 -1.85,-0.46 -0.21,0.21 -0.27,0.59 -0.12,0.84 0.39,0.63 1.97,0.33 1.97,-0.38 z m -2.77,-2.2 c 0.34,-0.13 0.62,-0.46 0.62,-0.74 0,-0.62 -0.98,-1.03 -1.77,-0.72 -0.71,0.27 -0.77,1.17 -0.1,1.44 0.27,0.11 0.52,0.21 0.55,0.23 0,0 0.35,-0.1 0.69,-0.21 z m -1.55,-3.65 c 0.28,-0.46 -0.98,-1.16 -1.65,-0.91 -0.27,0.1 -0.49,0.42 -0.49,0.72 0,0.63 1.77,0.78 2.14,0.19 z m -2.21,-3.06 c -0.1,-0.43 -0.49,-0.68 -1.1,-0.68 -0.61,0 -1.02,0.25 -1.1,0.68 -0.11,0.54 0.13,0.69 1.1,0.69 0.96,0 1.2,-0.15 1.1,-0.69 z m -4.04,-2.05 c 0,-0.69 -1.29,-1.02 -1.85,-0.46 -0.21,0.21 -0.27,0.59 -0.11,0.84 0.39,0.63 1.96,0.33 1.96,-0.38 z m 62.23,-2.37 c 5.11,-0.44 10.29,-1.52 12.94,-2.69 0.92,-0.4 2.73,-1.45 4.01,-2.32 4.54,-3.09 7.2,-9.34 7.25,-17.039 0,-4 -0.39,-5.57 -2.39,-8.975 -2.87,-4.9 -7.1,-7.718 -12.76,-8.505 -2.4,-0.332 -5.24,-0.289 -12.77,0.2 -8.8,0.571 -10.56,0.571 -19.42,0.04 -10.17,-0.63 -13.86,-0.47 -17.27,0.74 -3.87,1.37 -7.39,4.869 -9.59,9.526 -2.05,4.368 -1.8,11.033 0.61,16.273 3.45,7.48 11.41,11.55 24.93,12.77 5.04,0.46 19.17,0.45 24.46,0 z m -16.13,-4.38 c -1.27,-0.9 -2.21,-2.37 -1.78,-2.8 0.5,-0.51 1.11,-0.18 1.75,0.94 0.6,1.06 0.86,1.17 2.63,1.17 1.73,0 2.07,-0.14 2.83,-1.17 1.43,-1.94 2.66,-1.27 1.28,0.7 -1.46,2.09 -4.62,2.63 -6.71,1.16 z m 1.29,-6 c -0.34,-0.34 -0.62,-0.94 -0.62,-1.34 0,-0.87 1.01,-1.96 1.82,-1.96 1.79,0 2.85,2.23 1.63,3.45 -0.66,0.65 -2.1,0.58 -2.83,-0.15 z m -21.33,-4.54 c -2.04,-1.39 -2.97,-3.521 -2.96,-6.781 0,-4.571 2.13,-7.464 5.36,-7.382 2.86,0.08 4.99,3.226 4.99,7.382 0,5.531 -3.93,9.141 -7.39,6.781 z m 42.49,0.11 c -4.42,-2.91 -4.15,-11.764 0.42,-13.944 5.04,-2.411 9.2,6.791 5.5,12.184 -1.66,2.43 -3.89,3.1 -5.92,1.76 z"
                 id="path1833" />
            <path
                 style="fill:#aa5c51;stroke-width:0.391391"
                 d="m 496.05,170.21 c -0.79,-0.81 -0.57,-1.79 0.73,-3.26 2.46,-2.81 2.7,-4.55 2.7,-19.84 0,-7.76 -0.15,-13.59 -0.35,-13.48 -0.19,0.12 -0.67,0.88 -1.08,1.69 -0.65,1.31 -0.75,2.78 -0.92,13.27 l -0.2,11.79 -1.47,2.13 c -1.79,2.6 -3.94,3.78 -7.95,4.36 -5.23,0.75 -6.49,-0.95 -2.61,-3.53 3.57,-2.38 3.79,-3.07 3.94,-12.61 0.12,-7.51 0.1,-7.96 -0.57,-7.71 -0.38,0.15 -2.64,0.37 -5.02,0.49 -9.63,0.49 -15.54,-2.84 -18.67,-10.51 -1.64,-4.04 -3.6,-6.7 -6.78,-9.21 -3.41,-2.7 -3.98,-3.44 -3.27,-4.29 0.72,-0.87 5.49,-0.51 7.57,0.57 1.95,1.01 5.06,4.22 7.19,7.42 3.3,4.94 8.85,7.2 14.73,5.98 4.02,-0.83 5.18,-1.46 5.71,-3.07 0.81,-2.51 1.94,-4.43 3.77,-6.38 0.98,-1.04 1.62,-1.9 1.43,-1.9 -1.33,0 -8.12,-1.36 -11.7,-2.33 -5.09,-1.39 -9.01,-3.28 -13.18,-6.38 -2.69,-2 -4.21,-3.68 -7.47,-8.27 -0.5,-0.71 -0.8,-0.72 -6.96,-0.28 -8.06,0.59 -21.27,2.47 -26.31,3.76 -4.13,1.05 -4.97,1.17 -4.38,0.63 1.52,-1.37 24.22,-5 32.47,-5.18 1.29,0 2.82,-0.16 3.39,-0.3 1.02,-0.23 1.03,-0.29 0.53,-1.48 -0.5,-1.18 -0.64,-1.24 -3.48,-1.51 -5.92,-0.56 -25.52,0.76 -31.55,2.12 -0.96,0.21 -1.82,0.31 -1.92,0.21 -1.18,-1.18 15.4,-2.91 27.92,-2.91 h 8.1 l -0.28,-0.879 c -1.4,-4.357 -1.77,-6.815 -2,-13.218 -0.38,-10.97 0.72,-14.963 6.27,-22.869 l 1.51,-2.141 -0.63,-2.486 c -1.2,-4.792 -0.67,-12.462 1.17,-17.068 0.6,-1.495 0.75,-1.612 2.14,-1.612 2.25,0 6.72,1.034 9.47,2.192 1.35,0.566 4.36,2.162 6.7,3.547 l 4.24,2.517 2.8,-0.605 c 10.3,-2.223 23.12,-2.302 33.28,-0.206 1.71,0.354 2.06,0.298 3.52,-0.569 7.35,-4.37 13.85,-6.857 17.94,-6.87 h 1.85 l 0.78,2.553 c 0.44,1.405 1,3.728 1.25,5.163 0.5,2.881 0.27,9.056 -0.4,10.809 -0.4,1.029 -0.29,1.268 1.54,3.319 2.24,2.512 5.39,8.438 6.49,12.207 1.03,3.523 1.05,17.292 0,22.341 -0.37,1.847 -0.67,3.475 -0.67,3.62 0,0.145 3.81,0.265 8.46,0.265 4.66,0 11.48,0.27 15.17,0.59 6.39,0.58 12.64,1.5 13.08,1.94 0.48,0.47 -0.24,0.53 -1.88,0.17 -6.27,-1.42 -27.29,-2.74 -32.61,-2.06 -2.51,0.31 -2.71,0.42 -3.2,1.58 l -0.52,1.24 3.39,0.24 c 14.38,1.03 32.65,3.88 34.3,5.36 0.59,0.53 -0.26,0.41 -4.38,-0.65 -4.72,-1.2 -17.99,-3.13 -25.37,-3.69 -8.67,-0.65 -8.01,-0.78 -9.35,1.84 -1.73,3.38 -6.48,7.83 -10.7,10.01 -4.55,2.34 -11.76,4.38 -18.21,5.14 l -2.28,0.27 1.74,1.86 c 0.96,1.03 2.05,2.45 2.41,3.15 1.88,3.64 1.92,3.89 2.14,18.02 0.25,15.76 0.22,15.59 4.03,18.13 3.68,2.44 2.75,4.11 -2.01,3.62 -4,-0.41 -6.75,-1.84 -8.54,-4.43 l -1.48,-2.15 -0.2,-11.79 c -0.17,-10.24 -0.28,-11.96 -0.87,-13.04 -0.38,-0.69 -0.86,-1.36 -1.08,-1.5 -0.26,-0.16 -0.4,4.29 -0.4,13.25 0,15.08 0.25,16.85 2.7,19.64 1.29,1.47 1.52,2.47 0.75,3.24 -0.67,0.67 -1.94,0.58 -4.31,-0.31 -2.88,-1.07 -5.56,-3.6 -6.66,-6.27 -0.85,-2.08 -0.89,-2.63 -1.01,-16.53 l -0.12,-14.39 h -1.13 -1.13 l -0.13,14.39 c -0.12,14.14 -0.14,14.42 -1.06,16.66 -0.99,2.4 -2.94,4.41 -5.61,5.79 -1.93,1 -4.64,1.35 -5.28,0.69 z m -17.51,-34.39 c 0,-0.69 -1.68,-1.03 -2.25,-0.46 -0.62,0.62 0.1,1.3 1.2,1.17 0.62,-0.1 1.05,-0.37 1.05,-0.71 z m 4.3,0 c 0,-0.35 -0.43,-0.64 -1.08,-0.71 -0.87,-0.1 -1.07,0 -1.07,0.71 0,0.68 0.2,0.81 1.07,0.71 0.65,-0.1 1.08,-0.36 1.08,-0.71 z m 4.7,-0.78 c 0,-0.69 -1.67,-1.03 -2.24,-0.46 -0.63,0.62 0.1,1.29 1.2,1.16 0.61,-0.1 1.04,-0.36 1.04,-0.7 z m -13.59,-0.47 c 0.58,-0.58 -0.1,-1.49 -1.11,-1.49 -0.86,0 -1.3,0.61 -1,1.39 0.26,0.68 1.47,0.74 2.11,0.1 z m -3.24,-3.05 c 0,-0.7 -1.29,-1.03 -1.85,-0.47 -0.21,0.22 -0.27,0.6 -0.12,0.84 0.39,0.63 1.97,0.33 1.97,-0.37 z m -2.24,-2.43 c 0.58,-0.58 -0.1,-1.49 -1.11,-1.49 -0.86,0 -1.3,0.61 -1,1.39 0.26,0.68 1.47,0.74 2.11,0.1 z m -1.87,-3.83 c 0,-0.46 -1.45,-0.91 -1.95,-0.6 -0.56,0.34 -0.5,1.27 0.1,1.48 0.59,0.21 1.86,-0.38 1.86,-0.88 z m -2.78,-1.93 c 0.73,-0.47 0.25,-1.6 -0.69,-1.6 -1.04,0 -1.74,0.9 -1.14,1.49 0.55,0.55 1.08,0.58 1.83,0.11 z m -3.56,-2.84 c 0.14,-0.78 -1.38,-1.38 -1.97,-0.79 -0.22,0.23 -0.3,0.7 -0.16,1.05 0.32,0.83 1.96,0.62 2.13,-0.26 z m 63.14,-2.3 c 10.32,-1.05 16.4,-3.79 19.66,-8.88 2.12,-3.31 2.89,-5.57 3.46,-10.201 0.79,-6.458 -0.8,-11.311 -5.17,-15.753 -4.38,-4.466 -8.65,-5.484 -19.87,-4.744 -8.74,0.579 -16.34,0.579 -25.37,0 -8.47,-0.536 -11.99,-0.172 -15.7,1.64 -2.97,1.448 -6.1,4.775 -7.97,8.446 -1.14,2.251 -1.33,3.049 -1.47,6.192 -0.37,8.47 3.19,15.35 9.71,18.78 4.83,2.53 10.51,4.02 17.82,4.65 3.8,0.33 21.23,0.23 24.9,-0.14 z m -16.32,-3.89 c -1.31,-0.52 -3.03,-2.78 -2.52,-3.29 0.3,-0.31 0.69,-0.1 1.39,0.81 0.54,0.68 1.48,1.35 2.1,1.48 1.46,0.33 3.8,-0.64 4.13,-1.71 0.15,-0.45 0.42,-0.82 0.61,-0.82 0.74,0 0.7,0.71 -0.12,1.88 -1.25,1.78 -3.58,2.47 -5.59,1.65 z m 0.48,-6.6 c -0.84,-0.93 -0.82,-1.74 0.1,-2.55 0.9,-0.81 1.79,-0.82 2.58,0 0.79,0.79 0.79,1.9 0,2.69 -0.82,0.82 -1.85,0.78 -2.65,-0.1 z m -20.92,-4.24 c -2.75,-1.36 -4.17,-5.818 -3.05,-9.65 0.89,-3.057 2.48,-4.568 4.81,-4.568 1.53,0 1.97,0.196 3.04,1.335 3.27,3.46 2.65,10.493 -1.12,12.793 -1.47,0.9 -2.02,0.91 -3.68,0.1 z m 42.62,0.18 c -0.52,-0.28 -1.48,-1.17 -2.14,-1.99 -1.03,-1.27 -1.23,-1.891 -1.36,-4.177 -0.18,-3.166 0.37,-5.06 1.98,-6.896 1.02,-1.163 1.41,-1.335 3.02,-1.335 1.49,0 2.03,0.2 2.87,1.077 2.94,3.072 3.11,8.794 0.33,11.851 -1.57,1.74 -3.22,2.25 -4.7,1.47 z"
                 id="path1831" />
            <path
                 style="fill:#56595b;stroke-width:0.391391"
                 d="m 496.05,170.21 c -0.79,-0.81 -0.57,-1.79 0.73,-3.26 2.46,-2.81 2.7,-4.55 2.7,-19.84 0,-7.76 -0.15,-13.59 -0.35,-13.48 -0.19,0.12 -0.67,0.88 -1.08,1.69 -0.65,1.31 -0.75,2.78 -0.92,13.27 l -0.2,11.79 -1.47,2.13 c -1.79,2.6 -3.94,3.78 -7.95,4.36 -5.23,0.75 -6.49,-0.95 -2.61,-3.53 3.57,-2.38 3.79,-3.07 3.94,-12.61 0.12,-7.51 0.1,-7.96 -0.57,-7.71 -0.38,0.15 -2.64,0.37 -5.02,0.49 -9.63,0.49 -15.54,-2.84 -18.67,-10.51 -1.64,-4.04 -3.6,-6.7 -6.78,-9.21 -3.41,-2.7 -3.98,-3.44 -3.27,-4.29 0.72,-0.87 5.49,-0.51 7.57,0.57 1.95,1.01 5.06,4.22 7.19,7.42 3.3,4.94 8.85,7.2 14.73,5.98 4.02,-0.83 5.18,-1.46 5.71,-3.07 0.81,-2.51 1.94,-4.43 3.77,-6.38 0.98,-1.04 1.62,-1.9 1.43,-1.9 -1.33,0 -8.12,-1.36 -11.7,-2.33 -5.09,-1.39 -9.01,-3.28 -13.18,-6.38 -2.69,-2 -4.21,-3.68 -7.47,-8.27 -0.5,-0.71 -0.8,-0.72 -6.96,-0.28 -8.06,0.59 -21.27,2.47 -26.31,3.76 -4.13,1.05 -4.97,1.17 -4.38,0.63 1.52,-1.37 24.22,-5 32.47,-5.18 1.29,0 2.82,-0.16 3.39,-0.3 1.02,-0.23 1.03,-0.29 0.53,-1.48 -0.5,-1.18 -0.64,-1.24 -3.48,-1.51 -5.92,-0.56 -25.52,0.76 -31.55,2.12 -0.96,0.21 -1.82,0.31 -1.92,0.21 -1.18,-1.18 15.4,-2.91 27.92,-2.91 h 8.1 l -0.28,-0.879 c -1.4,-4.357 -1.77,-6.815 -2,-13.218 -0.38,-10.97 0.72,-14.963 6.27,-22.869 l 1.51,-2.141 -0.63,-2.486 c -1.2,-4.792 -0.67,-12.462 1.17,-17.068 0.6,-1.495 0.75,-1.612 2.14,-1.612 2.25,0 6.72,1.034 9.47,2.192 1.35,0.566 4.36,2.162 6.7,3.547 l 4.24,2.517 2.8,-0.605 c 10.3,-2.223 23.12,-2.302 33.28,-0.206 1.71,0.354 2.06,0.298 3.52,-0.569 7.35,-4.37 13.85,-6.857 17.94,-6.87 h 1.85 l 0.78,2.553 c 0.44,1.405 1,3.728 1.25,5.163 0.5,2.881 0.27,9.056 -0.4,10.809 -0.4,1.029 -0.29,1.268 1.54,3.319 2.24,2.512 5.39,8.438 6.49,12.207 1.03,3.523 1.05,17.292 0,22.341 -0.37,1.847 -0.67,3.475 -0.67,3.62 0,0.145 3.81,0.265 8.46,0.265 4.66,0 11.48,0.27 15.17,0.59 6.39,0.58 12.64,1.5 13.08,1.94 0.48,0.47 -0.24,0.53 -1.88,0.17 -6.27,-1.42 -27.29,-2.74 -32.61,-2.06 -2.51,0.31 -2.71,0.42 -3.2,1.58 l -0.52,1.24 3.39,0.24 c 14.38,1.03 32.65,3.88 34.3,5.36 0.59,0.53 -0.26,0.41 -4.38,-0.65 -4.72,-1.2 -17.99,-3.13 -25.37,-3.69 -8.67,-0.65 -8.01,-0.78 -9.35,1.84 -1.73,3.38 -6.48,7.83 -10.7,10.01 -4.55,2.34 -11.76,4.38 -18.21,5.14 l -2.28,0.27 1.74,1.86 c 0.96,1.03 2.05,2.45 2.41,3.15 1.88,3.64 1.92,3.89 2.14,18.02 0.25,15.76 0.22,15.59 4.03,18.13 3.68,2.44 2.75,4.11 -2.01,3.62 -4,-0.41 -6.75,-1.84 -8.54,-4.43 l -1.48,-2.15 -0.2,-11.79 c -0.17,-10.24 -0.28,-11.96 -0.87,-13.04 -0.38,-0.69 -0.86,-1.36 -1.08,-1.5 -0.26,-0.16 -0.4,4.29 -0.4,13.25 0,15.08 0.25,16.85 2.7,19.64 1.29,1.47 1.52,2.47 0.75,3.24 -0.67,0.67 -1.94,0.58 -4.31,-0.31 -2.88,-1.07 -5.56,-3.6 -6.66,-6.27 -0.85,-2.08 -0.89,-2.63 -1.01,-16.53 l -0.12,-14.39 h -1.13 -1.13 l -0.13,14.39 c -0.12,14.14 -0.14,14.42 -1.06,16.66 -0.99,2.4 -2.94,4.41 -5.61,5.79 -1.93,1 -4.64,1.35 -5.28,0.69 z m -17.51,-34.39 c 0,-0.69 -1.68,-1.03 -2.25,-0.46 -0.62,0.62 0.1,1.3 1.2,1.17 0.62,-0.1 1.05,-0.37 1.05,-0.71 z m 4.3,0 c 0,-0.35 -0.43,-0.64 -1.08,-0.71 -0.87,-0.1 -1.07,0 -1.07,0.71 0,0.68 0.2,0.81 1.07,0.71 0.65,-0.1 1.08,-0.36 1.08,-0.71 z m 4.7,-0.78 c 0,-0.69 -1.67,-1.03 -2.24,-0.46 -0.63,0.62 0.1,1.29 1.2,1.16 0.61,-0.1 1.04,-0.36 1.04,-0.7 z m -13.59,-0.47 c 0.58,-0.58 -0.1,-1.49 -1.11,-1.49 -0.86,0 -1.3,0.61 -1,1.39 0.26,0.68 1.47,0.74 2.11,0.1 z m -3.24,-3.05 c 0,-0.7 -1.29,-1.03 -1.85,-0.47 -0.21,0.22 -0.27,0.6 -0.12,0.84 0.39,0.63 1.97,0.33 1.97,-0.37 z m -2.24,-2.43 c 0.58,-0.58 -0.1,-1.49 -1.11,-1.49 -0.86,0 -1.3,0.61 -1,1.39 0.26,0.68 1.47,0.74 2.11,0.1 z m -1.87,-3.83 c 0,-0.46 -1.45,-0.91 -1.95,-0.6 -0.56,0.34 -0.5,1.27 0.1,1.48 0.59,0.21 1.86,-0.38 1.86,-0.88 z m -2.78,-1.93 c 0.73,-0.47 0.25,-1.6 -0.69,-1.6 -1.04,0 -1.74,0.9 -1.14,1.49 0.55,0.55 1.08,0.58 1.83,0.11 z m -3.56,-2.84 c 0.14,-0.78 -1.38,-1.38 -1.97,-0.79 -0.22,0.23 -0.3,0.7 -0.16,1.05 0.32,0.83 1.96,0.62 2.13,-0.26 z m 67.79,-2.79 c 4.41,-0.87 7.68,-2.11 10.59,-3.98 2.9,-1.88 4.04,-3.2 5.76,-6.67 1.68,-3.38 2.23,-6.07 2.23,-10.978 0,-4.231 0,-4.391 -1.49,-7.362 -1.86,-3.757 -5.21,-7.307 -8.15,-8.65 -3.19,-1.448 -6.81,-1.922 -12.45,-1.628 -13.13,0.677 -18.62,0.728 -26.73,0.235 -9.89,-0.595 -13.26,-0.325 -17.05,1.378 -3.07,1.377 -6.52,4.958 -8.34,8.653 -1.14,2.309 -1.32,3.1 -1.45,6.403 -0.51,12.749 7.46,20.669 22.83,22.689 1.72,0.22 3.66,0.48 4.31,0.57 0.64,0.1 6.98,0.11 14.09,0 9.4,-0.1 13.71,-0.28 15.85,-0.7 z"
                 id="path1829" />
            <path
                 style="fill:black;stroke-width:0.391391"
                 d="m 495.81,169.67 c -0.28,-0.73 0.37,-2.54 0.91,-2.54 0.65,0 2.27,-3.59 2.72,-6.06 0.25,-1.36 0.43,-7.51 0.43,-14.99 0,-13.77 -0.1,-14.17 -1.96,-10.44 -0.96,1.91 -0.98,2.13 -1.17,13.49 -0.2,11.2 -0.23,11.58 -1.1,12.99 -1.97,3.17 -5.09,4.62 -9.95,4.62 -2.14,0 -2.73,-0.14 -2.93,-0.66 -0.17,-0.43 0.1,-0.92 0.82,-1.46 3.09,-2.37 4.56,-3.94 4.93,-5.26 0.21,-0.79 0.39,-4.84 0.39,-9.01 v -7.59 l -1.46,0.23 c -6.14,0.96 -10.72,0.59 -14.68,-1.18 -3.05,-1.37 -6.98,-5.5 -7.92,-8.32 -0.37,-1.1 -1.13,-2.84 -1.69,-3.85 -1.07,-1.92 -4.69,-5.75 -7.22,-7.63 -2.43,-1.81 -1.78,-3 1.63,-3.02 1.28,0 1.3,0 0.66,0.73 -0.6,0.67 -0.6,0.8 -0.1,1.34 1.07,1.07 3.11,0 2.17,-1.11 -0.64,-0.77 -0.25,-0.72 1.58,0.22 2.33,1.18 4.19,2.98 6.53,6.32 3.55,5.07 6.58,6.99 11.47,7.28 4.23,0.25 9.79,-1.34 9.79,-2.79 0,-1.15 2.45,-5.33 4.09,-6.98 l 1.83,-1.84 -1.5,-0.24 c -6.58,-1.06 -11.86,-2.34 -15.64,-3.79 -5.5,-2.1 -11.72,-6.95 -14.47,-11.3 l -1.52,-2.4 -5.28,0.24 c -2.91,0.13 -7.92,0.6 -11.15,1.03 -3.23,0.43 -6.76,0.86 -7.83,0.96 l -1.96,0.18 1.76,-0.39 c 3.29,-0.73 13.69,-1.94 18.79,-2.2 2.8,-0.14 5.09,-0.4 5.09,-0.57 0,-0.18 -0.31,-0.97 -0.69,-1.76 l -0.68,-1.44 -10.77,0.18 c -5.92,0.1 -9.26,0.1 -7.43,-0.1 1.83,-0.16 6.65,-0.3 10.71,-0.32 h 7.38 l -0.25,-0.879 c -1.72,-6.043 -1.92,-7.582 -1.94,-15.363 0,-7.577 0,-7.929 1.06,-10.958 1.27,-3.637 2.83,-6.552 5.15,-9.621 l 1.65,-2.184 -0.7,-2.708 c -1.05,-4.013 -0.97,-8.998 0.21,-13.661 0.54,-2.097 1.17,-4.057 1.42,-4.356 0.58,-0.704 1.59,-0.684 5.54,0.104 3.82,0.765 7.34,2.295 12.43,5.405 l 3.72,2.273 2.15,-0.428 c 10.56,-2.097 21.34,-2.415 30.87,-0.91 l 5.62,0.889 3.19,-1.938 c 6.3,-3.84 10.84,-5.51 15.4,-5.665 l 2.26,-0.08 0.88,2.635 c 1.46,4.354 1.89,9.249 1.2,13.4 l -0.58,3.511 2.28,2.876 c 2.6,3.269 4.98,7.993 6.06,12.02 1.33,5.018 0.78,20.689 -0.89,25.049 -0.2,0.509 0.84,0.599 7.74,0.629 4.38,0 9.46,0.16 11.29,0.32 1.84,0.15 -1.72,0.2 -7.89,0.1 l -11.22,-0.19 -0.62,1.48 c -0.34,0.81 -0.62,1.61 -0.62,1.76 0,0.15 2.42,0.39 5.38,0.53 5.29,0.24 15.81,1.44 19.28,2.21 l 1.76,0.39 -1.96,-0.18 c -1.07,-0.1 -4.6,-0.53 -7.82,-0.97 -3.23,-0.43 -8.36,-0.9 -11.4,-1.04 l -5.52,-0.26 -1.33,2.5 c -2.7,5.1 -9.97,10.68 -15.76,12.11 -0.67,0.17 -2.63,0.68 -4.35,1.14 -2.48,0.66 -9.82,1.98 -10.99,1.98 -0.13,0 0.58,0.85 1.58,1.9 2.35,2.45 2.66,2.92 3.75,5.73 0.88,2.26 0.92,2.9 1.13,16.07 0.19,11.85 0.31,13.85 0.87,14.7 0.6,0.91 1.36,1.61 4.41,4.02 1.87,1.47 1.19,2.2 -2.04,2.2 -4.86,0 -7.97,-1.45 -9.94,-4.62 -0.88,-1.41 -0.91,-1.79 -1.1,-12.99 -0.19,-11.43 -0.21,-11.57 -1.17,-13.28 -1.91,-3.37 -1.96,-3.08 -1.96,10.21 0,6.74 0.19,13.38 0.41,14.75 0.42,2.57 2.04,6.32 2.74,6.32 0.54,0 1.19,1.81 0.9,2.54 -0.32,0.84 -3.08,0.74 -5.13,-0.18 -2.7,-1.23 -4.65,-3.05 -5.61,-5.24 -1.04,-2.37 -1.45,-8.6 -1.5,-22.85 v -8.71 h -1.17 -1.18 v 8.9 c 0,14.13 -0.45,20.26 -1.5,22.66 -0.95,2.19 -2.9,4.01 -5.61,5.24 -2.04,0.92 -4.81,1.02 -5.13,0.18 z m -17.7,-32.92 c 0.81,-0.31 0.8,-1.56 0,-1.88 -0.97,-0.37 -2.09,0.13 -2.09,0.94 0,0.97 0.95,1.39 2.12,0.94 z m 4.48,-0.11 c 0.76,-0.48 0.38,-1.78 -0.57,-1.92 -1.14,-0.16 -1.98,0.9 -1.33,1.68 0.55,0.67 1.12,0.74 1.9,0.24 z m 4.53,-0.67 c 0.81,-0.31 0.79,-1.57 0,-1.88 -0.98,-0.37 -2.1,0.13 -2.1,0.94 0,0.96 0.95,1.39 2.12,0.94 z m -12.89,-1.91 c 0,-0.57 -0.3,-0.82 -1.13,-0.92 -1.2,-0.13 -1.87,0.48 -1.52,1.39 0.13,0.35 0.65,0.51 1.43,0.43 0.92,-0.1 1.22,-0.31 1.22,-0.9 z m -3.5,-1.96 c 0.73,-0.56 0.73,-0.61 0.1,-1.13 -0.69,-0.54 -2.06,-0.44 -2.44,0.17 -0.21,0.33 0.84,1.55 1.33,1.55 0.16,0 0.63,-0.27 1.05,-0.59 z m -1.98,-3.52 c 0,-0.57 -0.3,-0.82 -1.12,-0.91 -1.34,-0.16 -1.94,0.32 -1.58,1.26 0.39,1.01 2.7,0.71 2.7,-0.35 z m -2.58,-2.51 c 0.81,-0.52 0.2,-1.6 -0.91,-1.6 -1.18,0 -1.63,0.62 -0.99,1.38 0.53,0.65 1.11,0.72 1.9,0.22 z m -2.03,-2.82 c 0.7,-0.71 0.12,-1.52 -1.08,-1.52 -1.22,0 -1.74,0.51 -1.4,1.39 0.26,0.67 1.85,0.75 2.48,0.13 z m 54.71,-4.66 c 8.52,-0.45 13.41,-1.4 17.41,-3.38 6.91,-3.41 10.57,-10 10.57,-19.028 0,-4.188 -0.74,-6.638 -3.04,-10.028 -2.19,-3.229 -4.95,-5.601 -7.92,-6.802 -2.06,-0.838 -2.53,-0.865 -11.54,-0.713 -15.21,0.259 -21.44,0.235 -29.94,-0.125 -6.98,-0.293 -8.36,-0.25 -10.56,0.317 -4.58,1.186 -8.1,3.949 -10.73,8.427 -1.97,3.366 -2.36,4.888 -2.31,9.029 0.1,8.303 3.66,14.373 10.51,17.883 7.85,4.04 19.36,5.39 37.55,4.42 z m -94.03,-9.22 c 0.38,-0.39 7.47,-2.11 8.51,-2.07 0.78,0 0.82,0.1 0.2,0.21 -0.43,0.1 -2.51,0.6 -4.62,1.13 -4.08,1.02 -4.45,1.08 -4.09,0.73 z m 166.83,-0.22 c -0.65,-0.21 -2.59,-0.7 -4.31,-1.11 -1.72,-0.4 -2.69,-0.74 -2.15,-0.75 1.06,0 8.14,1.7 8.51,2.08 0.33,0.33 -0.69,0.22 -2.05,-0.22 z m -156.85,-2.16 c 0.27,-0.11 0.71,-0.11 0.98,0 0.27,0.11 0.1,0.19 -0.49,0.19 -0.54,0 -0.76,-0.1 -0.49,-0.19 z m 147.94,0 c 0.27,-0.11 0.71,-0.11 0.98,0 0.27,0.11 0,0.19 -0.49,0.19 -0.54,0 -0.76,-0.1 -0.49,-0.19 z m -158.41,-4.17 c 0.31,-0.34 7.09,-1.44 8.61,-1.41 1.24,0 -0.45,0.37 -6.85,1.34 -1.08,0.16 -1.87,0.19 -1.76,0.1 z m 167.69,-0.11 c -0.23,-0.1 -2.08,-0.41 -4.11,-0.71 -2.17,-0.32 -3.05,-0.55 -2.13,-0.57 0.86,0 3.15,0.3 5.09,0.7 1.93,0.4 3.08,0.72 2.54,0.73 -0.54,0 -1.16,-0.1 -1.39,-0.15 z m -156.43,-1.61 c 0.48,-0.1 1.19,-0.1 1.56,0 0.38,0.1 0,0.17 -0.88,0.17 -0.87,0 -1.17,-0.1 -0.68,-0.18 z m 145.98,0 c 0.49,-0.1 1.2,-0.1 1.57,0 0.37,0.1 0,0.17 -0.89,0.17 -0.86,0 -1.16,-0.1 -0.68,-0.18 z"
                 id="path1827" />
        </g>
        <text
             xml:space="preserve"
             style="font-size:12px;line-height:1.25;font-family:Consolas;-inkscape-font-specification:'Consolas, Normal';font-variant-ligatures:none"
             x="24.664"
             y="130.32"
             id="text3574"><tspan
                 sodipodi:role="line"
                 id="tspan3572"
                 x="24.664"
                 y="130.32"><tspan
     style="fill:blue;fill-opacity:1"
     id="tspan8864">print</tspan>(<tspan
     style="fill:#009600;fill-opacity:1"
     id="tspan7366">&quot;ワークツリー♥&quot;</tspan>)</tspan></text>
        <text
             xml:space="preserve"
             style="font-size:12px;line-height:1.25;font-family:Consolas;-inkscape-font-specification:'Consolas, Normal';font-variant-ligatures:none"
             x="232.34"
             y="130.72"
             id="text3574-4"><tspan
                 sodipodi:role="line"
                 id="tspan3572-9"
                 x="232.34"
                 y="130.72"><tspan
     style="fill:blue;fill-opacity:1"
     id="tspan8864-0">print</tspan>(<tspan
     style="fill:#009600;fill-opacity:1"
     id="tspan7366-9">&quot;ステージング!&quot;</tspan>)</tspan></text>
        <text
             xml:space="preserve"
             style="font-size:12px;line-height:1.25;font-family:Consolas;-inkscape-font-specification:'Consolas, Normal';font-variant-ligatures:none"
             x="452.02"
             y="130.11"
             id="text3574-45"><tspan
                 sodipodi:role="line"
                 id="tspan3572-0"
                 x="452.02"
                 y="130.11"><tspan
     style="fill:blue;fill-opacity:1"
     id="tspan8864-09">print</tspan>(<tspan
     style="fill:#009600;fill-opacity:1"
     id="tspan7366-6">&quot;コミット♪&quot;</tspan>)</tspan></text>
        <path
             style="fill:none;stroke:black;stroke-width:1px;stroke-linecap:butt;stroke-linejoin:miter;stroke-opacity:0.7"
             d="m 186.64,17.998 v 168.642"
             id="path13513" />
        <path
             style="fill:none;stroke:black;stroke-width:1px;stroke-linecap:butt;stroke-linejoin:miter;stroke-opacity:0.7"
             d="m 431.94,17.999 v 168.641"
             id="path13513-3" />
    </g>
</svg>
