<?xml version="1.0" encoding="UTF-8" standalone="no"?>
<!-- Created with Inkscape (http://www.inkscape.org/) -->

<svg
     width="300"
     height="150"
     viewBox="0 0 300 150"
     version="1.1"
     id="svg5"
     sodipodi:docname="git.svg"
     inkscape:version="1.1 (c68e22c387, 2021-05-23)"
     inkscape:export-filename="C:\Program Files\XAMPP\htdocs\koko-campus.org\pics\subjects\git.png"
     inkscape:export-xdpi="96"
     inkscape:export-ydpi="96"
     xmlns:inkscape="http://www.inkscape.org/namespaces/inkscape"
     xmlns:sodipodi="http://sodipodi.sourceforge.net/DTD/sodipodi-0.dtd"
     xmlns="http://www.w3.org/2000/svg"
     xmlns:svg="http://www.w3.org/2000/svg">
    <sodipodi:namedview
         id="namedview7"
         pagecolor="#ffffff"
         bordercolor="#666666"
         borderopacity="1.0"
         inkscape:pageshadow="2"
         inkscape:pageopacity="0.0"
         inkscape:pagecheckerboard="0"
         inkscape:document-units="px"
         showgrid="false"
         units="px"
         width="600px"
         inkscape:zoom="2.1216"
         inkscape:cx="79.657"
         inkscape:cy="115.24"
         inkscape:window-width="1920"
         inkscape:window-height="1009"
         inkscape:window-x="-8"
         inkscape:window-y="-8"
         inkscape:window-maximized="1"
         inkscape:current-layer="layer1" />
    <defs
         id="defs2" />
    <g
         inkscape:label="レイヤー 1"
         inkscape:groupmode="layer"
         id="layer1">
        <g
             id="g1038"
             transform="translate(24.296,-5.9765)">
            <path
                 style="fill:#f2c9b0;stroke-width:0.342174"
                 d="m 50.185,146.78 c -0.09,-0.1 -1.478,-0.27 -3.079,-0.39 -4.719,-0.36 -8.147,-0.99 -15.114,-2.79 -8.879,-2.29 -14.891,-6.37 -15.576,-10.57 -0.821,-5.07 6.443,-10.11 18.543,-12.85 1.882,-0.43 3.613,-0.83 3.849,-0.89 0.322,-0.1 0.428,-1.62 0.428,-6.2 v -6.09 h -5.561 c -7.134,0 -8.482,-0.45 -12.089,-4.07 -1.977,-1.98 -2.593,-2.87 -3.336,-4.818 -1.461,-3.829 -3.165,-6.132 -6.332,-8.538 -3.7092,-2.823 -3.6767,-4.096 0.105,-4.058 4.048,0.04 6.737,1.947 10.354,7.357 2.878,4.298 7.264,6.203 12.397,5.386 1.225,-0.195 2.854,-0.637 3.623,-0.976 1.232,-0.544 1.489,-0.869 2.163,-2.716 0.52,-1.427 1.352,-2.734 2.59,-4.072 l 1.824,-1.971 -3.726,-0.609 c -3.33,-0.541 -5.711,-1.123 -9.54,-2.334 -5.352,-1.687 -11.552,-6.351 -14.361,-10.799 l -1.122,-1.772 -2.437,0.16 c -12.0589,0.808 -25.611,2.823 -29.728,4.421 -0.407,0.161 -0.599,0.07 -0.599,-0.277 0,-1.126 13.9108,-3.654 25.1971,-4.582 l 7.2309,-0.591 -0.557,-1.181 -0.562,-1.177 -10.2649,0.205 c -9.5552,0.188 -15.4161,0.705 -20.4851,1.807 -0.738,0.161 -0.944,0.1 -0.828,-0.25 0.359,-1.081 12.8187,-2.378 23.6204,-2.46 4.0916,-0.03 7.4416,-0.175 7.4416,-0.318 0,-0.144 -0.308,-1.376 -0.692,-2.738 -0.88,-3.141 -1.393,-11.144 -0.999,-15.603 0.431,-4.89 1.91,-8.64 5.171,-13.146 l 1.676,-2.317 -0.496,-1.68 c -1.228,-4.125 -0.914,-10.5 0.736,-14.953 0.609,-1.643 0.626,-1.657 2.289,-1.763 2.32,-0.147 6.121,0.763 9.05,2.167 2.642,1.266 7.053,3.768 7.925,4.498 0.394,0.327 0.838,0.359 1.67,0.121 0.623,-0.179 3.305,-0.65 5.964,-1.047 6.625,-0.989 14.378,-0.982 21.088,0.02 2.731,0.407 5.047,0.765 5.15,0.796 0.103,0.03 1.413,-0.66 2.908,-1.534 6.149,-3.594 10.218,-5.083 13.882,-5.083 h 1.937 l 0.565,1.409 c 1.474,3.684 2.056,10.586 1.204,14.281 -0.342,1.477 -0.328,1.511 1.396,3.595 2.224,2.683 4.897,8.164 5.692,11.682 1.03,4.523 0.61,15.931 -0.754,20.872 -0.185,0.671 0,0.685 7.784,0.726 11.12,0.06 23.78,1.358 24.15,2.477 0.11,0.346 -0.1,0.411 -0.83,0.25 -5.17,-1.122 -10.9,-1.619 -20.86,-1.81 l -10.641,-0.202 -0.394,1.126 c -0.215,0.622 -0.393,1.184 -0.393,1.249 0,0.06 0.653,0.119 1.454,0.123 8.584,0 31.394,3.671 31.394,5.037 0,0.345 -0.19,0.431 -0.6,0.273 -4.16,-1.615 -17.46,-3.582 -30.04,-4.445 l -2.752,-0.188 -0.411,1.112 c -0.633,1.718 -3.278,5.044 -5.461,6.864 -2.238,1.869 -7.216,4.459 -10.008,5.201 -3.959,1.058 -7.785,1.855 -10.002,2.081 l -2.303,0.236 1.844,1.995 c 3.395,3.664 3.932,6.351 3.949,19.681 v 8.95 l 1.564,0.23 c 4.492,0.68 12.807,3.32 15.901,5.05 6.217,3.49 8.059,7.37 5.396,11.38 -3.035,4.58 -12.63,8.3 -26.967,10.45 -2.601,0.39 -20.9,0.9 -21.215,0.59 z m -1.368,-38.45 c 0,-8.443 -0.07,-9.736 -0.49,-9.387 -1.249,1.037 -1.563,3.327 -1.563,11.377 v 7.81 h 1.026 1.027 z m 19.158,2.18 c 0,-7.83 -0.216,-9.54 -1.362,-10.92 -0.66,-0.794 -0.664,-0.75 -0.677,8.67 0,9.87 -0.04,9.77 1.444,9.84 0.554,0 0.598,-0.55 0.595,-7.59 z m -9.577,-0.2 c 0,-9.73 -0.24,-12.715 -1.027,-12.715 -0.77,0 -1.023,3.175 -1.023,12.915 v 7.27 h 1.026 1.027 v -7.47 z m -17.013,-35.083 c 1.543,-0.657 2.429,-1.749 3.51,-4.322 2.269,-5.403 0.503,-12.274 -3.709,-14.422 -2.908,-1.485 -5.731,-0.04 -7.753,3.959 -1.078,2.138 -1.181,2.6 -1.174,5.29 0,4.53 1.783,8.345 4.393,9.481 1.362,0.596 3.357,0.599 4.733,0 z m -4.568,-3.538 c -3.046,-2.563 -3.21,-8.24 -0.322,-11.128 0.985,-0.982 1.567,-1.29 2.443,-1.29 2.779,0 4.873,2.875 4.873,6.673 0,5.129 -3.908,8.342 -6.994,5.745 z m 41.522,3.538 c 1.499,-0.64 2.43,-1.725 3.552,-4.151 0.801,-1.728 0.955,-2.515 0.962,-4.961 0,-3.61 -0.726,-5.879 -2.597,-8.007 -2.372,-2.693 -5.284,-2.888 -7.963,-0.534 -3.449,3.028 -3.969,10.963 -1.016,15.497 1.454,2.235 4.612,3.2 7.062,2.156 z m -4.882,-3.935 c -2.218,-2.33 -2.642,-6.125 -1.034,-9.273 0.787,-1.543 2.437,-2.744 3.768,-2.744 2.162,0 4.243,2.498 4.667,5.608 0.53,3.856 -1.838,7.733 -4.719,7.733 -1.208,0 -1.615,-0.202 -2.682,-1.324 z m -63.7337,23.88 c -0.7518,-0.438 -0.7312,-1.676 0.065,-3.907 l 0.6107,-1.711 0.56,1.858 c 0.667,2.21 0.705,3.165 0.15,3.719 -0.49,0.489 -0.608,0.493 -1.3854,0.04 z"
                 id="path1052" />
            <path
                 style="fill:#9bd8ee;stroke-width:0.342174"
                 d="m 50.185,146.78 c -0.09,-0.1 -1.478,-0.27 -3.079,-0.39 -4.719,-0.36 -8.147,-0.99 -15.114,-2.79 -8.879,-2.29 -14.891,-6.37 -15.576,-10.57 -0.821,-5.07 6.443,-10.11 18.543,-12.85 1.882,-0.43 3.613,-0.83 3.849,-0.89 0.322,-0.1 0.428,-1.62 0.428,-6.2 v -6.09 h -5.561 c -7.134,0 -8.482,-0.45 -12.089,-4.07 -1.977,-1.98 -2.593,-2.87 -3.336,-4.818 -1.461,-3.829 -3.165,-6.132 -6.332,-8.538 -3.7092,-2.823 -3.6767,-4.096 0.105,-4.058 4.048,0.04 6.737,1.947 10.354,7.357 2.878,4.298 7.264,6.203 12.397,5.386 1.225,-0.195 2.854,-0.637 3.623,-0.976 1.232,-0.544 1.489,-0.869 2.163,-2.716 0.52,-1.427 1.352,-2.734 2.59,-4.072 l 1.824,-1.971 -3.726,-0.609 c -3.33,-0.541 -5.711,-1.123 -9.54,-2.334 -5.352,-1.687 -11.552,-6.351 -14.361,-10.799 l -1.122,-1.772 -2.437,0.16 c -12.0589,0.808 -25.611,2.823 -29.728,4.421 -0.407,0.161 -0.599,0.07 -0.599,-0.277 0,-1.126 13.9108,-3.654 25.1971,-4.582 l 7.2309,-0.591 -0.557,-1.181 -0.562,-1.177 -10.2649,0.205 c -9.5552,0.188 -15.4161,0.705 -20.4851,1.807 -0.738,0.161 -0.944,0.1 -0.828,-0.25 0.359,-1.081 12.8187,-2.378 23.6204,-2.46 4.0916,-0.03 7.4416,-0.175 7.4416,-0.318 0,-0.144 -0.308,-1.376 -0.692,-2.738 -0.88,-3.141 -1.393,-11.144 -0.999,-15.603 0.431,-4.89 1.91,-8.64 5.171,-13.146 l 1.676,-2.317 -0.496,-1.68 c -1.228,-4.125 -0.914,-10.5 0.736,-14.953 0.609,-1.643 0.626,-1.657 2.289,-1.763 2.32,-0.147 6.121,0.763 9.05,2.167 2.642,1.266 7.053,3.768 7.925,4.498 0.394,0.327 0.838,0.359 1.67,0.121 0.623,-0.179 3.305,-0.65 5.964,-1.047 6.625,-0.989 14.378,-0.982 21.088,0.02 2.731,0.407 5.047,0.765 5.15,0.796 0.103,0.03 1.413,-0.66 2.908,-1.534 6.149,-3.594 10.218,-5.083 13.882,-5.083 h 1.937 l 0.565,1.409 c 1.474,3.684 2.056,10.586 1.204,14.281 -0.342,1.477 -0.328,1.511 1.396,3.595 2.224,2.683 4.897,8.164 5.692,11.682 1.03,4.523 0.61,15.931 -0.754,20.872 -0.185,0.671 0,0.685 7.784,0.726 11.12,0.06 23.78,1.358 24.15,2.477 0.11,0.346 -0.1,0.411 -0.83,0.25 -5.17,-1.122 -10.9,-1.619 -20.86,-1.81 l -10.641,-0.202 -0.394,1.126 c -0.215,0.622 -0.393,1.184 -0.393,1.249 0,0.06 0.653,0.119 1.454,0.123 8.584,0 31.394,3.671 31.394,5.037 0,0.345 -0.19,0.431 -0.6,0.273 -4.16,-1.615 -17.46,-3.582 -30.04,-4.445 l -2.752,-0.188 -0.411,1.112 c -0.633,1.718 -3.278,5.044 -5.461,6.864 -2.238,1.869 -7.216,4.459 -10.008,5.201 -3.959,1.058 -7.785,1.855 -10.002,2.081 l -2.303,0.236 1.844,1.995 c 3.395,3.664 3.932,6.351 3.949,19.681 v 8.95 l 1.564,0.23 c 4.492,0.68 12.807,3.32 15.901,5.05 6.217,3.49 8.059,7.37 5.396,11.38 -3.035,4.58 -12.63,8.3 -26.967,10.45 -2.601,0.39 -20.9,0.9 -21.215,0.59 z m -1.368,-38.45 c 0,-8.443 -0.07,-9.736 -0.49,-9.387 -1.249,1.037 -1.563,3.327 -1.563,11.377 v 7.81 h 1.026 1.027 z m 19.158,2.18 c 0,-7.83 -0.216,-9.54 -1.362,-10.92 -0.66,-0.794 -0.664,-0.75 -0.677,8.67 0,9.87 -0.04,9.77 1.444,9.84 0.554,0 0.598,-0.55 0.595,-7.59 z m -9.577,-0.2 c 0,-9.73 -0.24,-12.715 -1.027,-12.715 -0.77,0 -1.023,3.175 -1.023,12.915 v 7.27 h 1.026 1.027 v -7.47 z m 10.436,-25.393 c 4.462,-0.383 8.996,-1.327 11.312,-2.35 0.804,-0.356 2.382,-1.273 3.504,-2.033 3.966,-2.696 6.293,-8.161 6.34,-14.895 0.04,-3.497 -0.342,-4.869 -2.087,-7.846 -2.508,-4.284 -6.207,-6.748 -11.162,-7.435 -2.097,-0.291 -4.574,-0.253 -11.158,0.174 -7.692,0.5 -9.239,0.5 -16.978,0.03 -8.897,-0.55 -12.117,-0.41 -15.104,0.647 -3.384,1.198 -6.46,4.257 -8.38,8.329 -1.796,3.818 -1.577,9.646 0.534,14.227 3.014,6.536 9.971,10.101 21.793,11.165 4.407,0.397 16.76,0.394 21.386,0 z m -14.101,-3.832 c -1.109,-0.784 -1.93,-2.074 -1.56,-2.447 0.441,-0.441 0.971,-0.157 1.529,0.825 0.527,0.924 0.753,1.023 2.299,1.023 1.513,0 1.811,-0.123 2.478,-1.026 1.252,-1.698 2.327,-1.112 1.122,0.609 -1.28,1.827 -4.044,2.306 -5.868,1.016 z m 1.122,-5.242 c -0.294,-0.298 -0.537,-0.825 -0.537,-1.174 0,-0.763 0.879,-1.711 1.588,-1.711 1.57,0 2.491,1.944 1.423,3.011 -0.575,0.575 -1.834,0.51 -2.474,-0.126 z m -18.641,-3.969 c -1.787,-1.219 -2.601,-3.08 -2.587,-5.93 0.03,-3.997 1.854,-6.526 4.684,-6.454 2.501,0.07 4.359,2.82 4.359,6.454 0,4.838 -3.435,7.993 -6.456,5.93 z m 37.143,0.09 c -3.864,-2.546 -3.631,-10.282 0.366,-12.188 4.41,-2.108 8.044,5.936 4.814,10.652 -1.458,2.128 -3.405,2.706 -5.18,1.536 z m -64.6337,23.206 c -0.7518,-0.438 -0.7312,-1.676 0.065,-3.907 l 0.6107,-1.711 0.56,1.858 c 0.667,2.21 0.705,3.165 0.15,3.719 -0.49,0.489 -0.608,0.493 -1.3854,0.04 z"
                 id="path1050" />
            <path
                 style="fill:#7ab8e3;stroke-width:0.342174"
                 d="m 51.164,146.61 -2.272,-0.12 -0.14,-4.85 c -0.113,-3.96 -0.267,-5.15 -0.835,-6.41 -0.387,-0.84 -0.941,-1.73 -1.236,-1.98 -0.479,-0.39 -0.503,-0.3 -0.236,0.86 0.168,0.71 0.305,3.72 0.312,6.68 0,6.23 0.51,5.64 -4.271,4.94 l -2.737,-0.41 -0.174,-5.47 c -0.161,-5.01 -0.243,-5.58 -0.993,-6.79 -0.448,-0.73 -1.639,-1.85 -2.648,-2.49 -1.831,-1.17 -2.238,-1.98 -1.42,-2.8 0.318,-0.31 0.318,-0.41 0,-0.41 -0.784,0 -0.438,-1.66 0.479,-2.29 4.174,-2.89 4.585,-3.98 4.585,-12.23 v -5.85 h -5.731 c -5.205,0 -5.913,-0.1 -7.723,-0.8 -2.406,-0.96 -5.971,-4.16 -6.994,-6.279 -0.39,-0.804 -1.253,-2.621 -1.917,-4.03 -1.3,-2.769 -2.935,-4.678 -5.847,-6.83 -2.672,-1.975 -2.879,-3.333 -0.531,-3.477 4.698,-0.294 7.764,1.66 11.655,7.429 1.389,2.06 2.073,2.717 3.866,3.719 3.771,2.108 8.069,2.307 12.048,0.551 1.222,-0.54 1.482,-0.866 2.156,-2.713 0.524,-1.437 1.352,-2.734 2.621,-4.103 l 1.851,-2.002 -2.874,-0.403 c -1.581,-0.223 -4.801,-0.931 -7.155,-1.574 -8.13,-2.228 -13.851,-5.968 -17.348,-11.333 l -1.43,-2.2 -2.782,0.198 c -10.0934,0.708 -19.9637,2.05 -25.961,3.521 -2.641,0.647 -4.021,0.852 -4.021,0.599 0,-1.198 17.38492,-4.12 28.804,-4.838 l 3.655,-0.233 -0.554,-1.157 -0.551,-1.16 h -7.2081 c -8.6354,0 -15.1035,0.431 -20.3799,1.352 -3.755,0.653 -4.598,0.667 -3.914,0.06 1.047,-0.921 14.2867,-2.156 23.8101,-2.221 4.0749,-0.03 7.3459,-0.154 7.2679,-0.284 -0.08,-0.127 -0.466,-1.434 -0.859,-2.909 -1.021,-3.825 -1.32,-14.997 -0.5,-18.682 0.613,-2.762 2.45,-6.899 3.904,-8.801 2.539,-3.323 2.498,-3.199 1.872,-5.564 -1.071,-4.055 -0.565,-11.218 1.071,-15.136 0.479,-1.144 0.582,-1.199 2.21,-1.199 3.716,0 8.466,1.664 13.503,4.731 1.29,0.785 2.432,1.428 2.539,1.428 0.109,0 0.461,0.242 0.79,0.538 0.493,0.444 0.825,0.472 1.909,0.161 3.261,-0.934 10.704,-1.715 16.37,-1.718 5.249,0 14.207,0.902 15.237,1.539 0.287,0.178 2.149,-0.758 3.754,-1.886 3.483,-2.45 10.077,-4.777 13.563,-4.788 1.718,0 1.773,0.03 2.272,1.278 1.198,3.013 1.704,6.538 1.506,10.47 -0.11,2.098 -0.284,4.201 -0.394,4.671 -0.16,0.684 0.182,1.328 1.708,3.21 3.343,4.123 5.404,9.173 5.964,14.638 0.39,3.747 0,11.89 -0.825,15.624 -0.291,1.375 -0.527,2.528 -0.527,2.566 0,0.03 3.502,0.08 7.782,0.106 9.78,0.06 23.12,1.287 24.19,2.228 0.68,0.605 -0.16,0.591 -3.92,-0.06 -5.34,-0.931 -11.76,-1.348 -20.79,-1.352 h -7.621 l -0.332,0.88 c -0.185,0.482 -0.335,0.999 -0.335,1.153 0,0.15 1.728,0.38 3.848,0.506 11.38,0.691 29,3.638 29,4.849 0,0.253 -1.38,0.05 -4.02,-0.596 -6.31,-1.543 -15.95,-2.843 -26.28,-3.544 l -3.092,-0.209 -0.746,1.646 c -1.667,3.664 -5.602,7.302 -10.484,9.693 -3.049,1.496 -9.219,3.196 -13.896,3.833 l -3.015,0.41 1.824,1.968 c 3.282,3.545 3.374,4.003 3.593,17.736 0.137,8.51 0.315,12.09 0.63,12.83 0.564,1.31 1.608,2.44 3.206,3.46 1.653,1.05 2.156,1.96 1.464,2.65 -0.318,0.32 -0.383,0.6 -0.171,0.73 0.849,0.53 0.274,1.57 -1.485,2.69 -1.009,0.65 -2.2,1.77 -2.652,2.49 -0.763,1.23 -0.831,1.73 -0.941,6.85 l -0.119,5.52 -0.941,0.19 c -0.517,0.1 -2.118,0.3 -3.559,0.43 l -2.618,0.24 v -5.44 c 0,-2.99 0.144,-6.02 0.312,-6.74 0.267,-1.15 0.243,-1.25 -0.236,-0.85 -1.376,1.14 -1.927,3.36 -2.07,8.35 l -0.141,4.83 -2.272,0.22 c -1.249,0.11 -2.946,0.21 -3.767,0.21 h -1.495 l 0.157,-4.36 c 0.195,-5.43 0.944,-7.86 2.997,-9.72 0.757,-0.68 1.944,-1.51 2.639,-1.84 l 1.262,-0.6 -1.519,-0.77 c -2.471,-1.26 -3.87,-2.87 -4.708,-5.43 -0.712,-2.16 -0.746,-2.86 -0.746,-14.41 v -12.142 h -1.027 -1.026 v 12.142 c 0,11.55 -0.04,12.25 -0.746,14.41 -0.839,2.56 -2.238,4.17 -4.709,5.43 l -1.519,0.77 1.263,0.6 c 0.694,0.33 1.882,1.16 2.638,1.84 2.053,1.86 2.802,4.29 2.997,9.72 l 0.158,4.36 -1.496,-0.1 c -0.821,0 -2.518,-0.12 -3.767,-0.18 z m -4.835,-19.08 c 0.4,-0.28 1.085,-1.4 1.519,-2.48 0.767,-1.91 0.791,-2.32 0.88,-14.28 0.09,-12.309 0.09,-12.32 -0.585,-11.522 -1.191,1.402 -1.376,3.062 -1.386,12.552 0,8.55 -0.06,9.35 -0.705,10.77 -1.15,2.54 -2.587,3.73 -5.574,4.62 l -1.324,0.39 2.022,0.74 c 1.112,0.41 2.477,1.22 3.035,1.8 l 1.013,1.06 0.188,-1.57 c 0.127,-1.07 0.417,-1.73 0.917,-2.08 z m 27.494,0.68 1.827,-0.61 -1.355,-0.4 c -3.018,-0.9 -4.452,-2.08 -5.605,-4.63 -0.643,-1.42 -0.698,-2.22 -0.705,-10.6 0,-9.28 -0.167,-10.7 -1.382,-12.493 l -0.698,-1.027 0.1,12.32 c 0.09,11.74 0.13,12.4 0.842,14.14 0.407,1 1.139,2.18 1.622,2.63 0.674,0.63 0.879,1.15 0.879,2.24 v 1.43 l 1.321,-1.2 c 0.729,-0.65 2.145,-1.47 3.155,-1.8 z m -43.313,-27.88 c 0,-0.3 -0.379,-0.556 -0.941,-0.621 -0.766,-0.09 -0.941,0.03 -0.941,0.621 0,0.6 0.175,0.71 0.941,0.62 0.562,-0.1 0.941,-0.31 0.941,-0.62 z m 3.764,0 c 0,-0.607 -1.129,-0.891 -1.615,-0.405 -0.188,0.185 -0.236,0.525 -0.102,0.735 0.342,0.55 1.717,0.29 1.717,-0.33 z m 4.106,-0.686 c 0,-0.598 -1.461,-0.899 -1.96,-0.4 -0.544,0.544 0.06,1.136 1.05,1.016 0.534,-0.1 0.91,-0.314 0.91,-0.616 z m -12.345,-0.208 c 0.297,-0.113 0.54,-0.404 0.54,-0.647 0,-0.547 -0.855,-0.9 -1.539,-0.636 -0.623,0.239 -0.678,1.026 -0.09,1.266 0.236,0.09 0.455,0.184 0.486,0.198 0.03,0 0.301,-0.06 0.599,-0.181 z m -2.368,-2.868 c 0,-0.609 -1.129,-0.893 -1.615,-0.407 -0.188,0.188 -0.236,0.52 -0.103,0.736 0.342,0.551 1.718,0.287 1.718,-0.329 z m -2.423,-1.923 c 0.298,-0.113 0.541,-0.403 0.541,-0.646 0,-0.548 -0.856,-0.9 -1.54,-0.637 -0.623,0.24 -0.677,1.027 -0.09,1.266 0.236,0.1 0.455,0.185 0.485,0.199 0.04,0 0.302,-0.06 0.599,-0.182 z m -1.351,-3.196 c 0.246,-0.4 -0.856,-1.009 -1.444,-0.797 -0.236,0.08 -0.428,0.37 -0.428,0.637 0,0.547 1.55,0.677 1.872,0.16 z m -1.937,-2.669 c -0.07,-0.376 -0.428,-0.598 -0.962,-0.598 -0.533,0 -0.889,0.222 -0.961,0.598 -0.09,0.469 0.12,0.599 0.961,0.599 0.842,0 1.051,-0.13 0.962,-0.599 z m -3.528,-1.793 c 0,-0.609 -1.129,-0.893 -1.615,-0.407 -0.189,0.188 -0.235,0.52 -0.102,0.736 0.342,0.551 1.717,0.287 1.717,-0.329 z m 54.406,-2.073 c 4.462,-0.383 8.996,-1.328 11.312,-2.351 0.804,-0.356 2.382,-1.273 3.504,-2.032 3.966,-2.697 6.293,-8.161 6.34,-14.895 0.04,-3.497 -0.342,-4.869 -2.087,-7.846 -2.508,-4.284 -6.207,-6.748 -11.162,-7.436 -2.097,-0.291 -4.574,-0.253 -11.158,0.175 -7.692,0.499 -9.239,0.499 -16.978,0.03 -8.897,-0.551 -12.117,-0.411 -15.104,0.647 -3.384,1.197 -6.46,4.256 -8.38,8.328 -1.796,3.819 -1.577,9.646 0.534,14.228 3.014,6.535 9.971,10.101 21.793,11.165 4.407,0.397 16.76,0.393 21.386,0 z m -14.101,-3.832 c -1.109,-0.784 -1.93,-2.074 -1.56,-2.447 0.441,-0.441 0.971,-0.157 1.529,0.825 0.527,0.923 0.753,1.023 2.299,1.023 1.513,0 1.811,-0.123 2.478,-1.027 1.252,-1.697 2.327,-1.112 1.122,0.609 -1.28,1.827 -4.044,2.307 -5.868,1.017 z m 1.122,-5.243 c -0.294,-0.297 -0.537,-0.824 -0.537,-1.173 0,-0.763 0.879,-1.711 1.588,-1.711 1.57,0 2.491,1.943 1.423,3.011 -0.575,0.575 -1.834,0.51 -2.474,-0.127 z m -18.641,-3.969 c -1.787,-1.218 -2.601,-3.079 -2.587,-5.93 0.03,-3.996 1.854,-6.525 4.684,-6.453 2.501,0.07 4.359,2.819 4.359,6.453 0,4.839 -3.435,7.994 -6.456,5.93 z m 37.143,0.09 c -3.864,-2.546 -3.631,-10.283 0.366,-12.189 4.41,-2.107 8.044,5.937 4.814,10.652 -1.458,2.129 -3.405,2.707 -5.18,1.537 z"
                 id="path1048" />
            <path
                 style="fill:#9a9da1;stroke-width:0.342174"
                 d="m 45.823,130.56 c -0.729,-0.29 -0.486,-2 0.4,-2.83 0.455,-0.42 1.187,-1.57 1.625,-2.54 0.78,-1.72 0.801,-2.02 0.904,-14.2 0.07,-8.73 0,-12.365 -0.26,-12.208 -0.202,0.123 -0.633,0.715 -0.962,1.318 -0.517,0.94 -0.619,2.45 -0.766,11.35 l -0.171,10.27 -0.972,1.65 c -1.184,2.02 -3.265,3.41 -5.947,3.97 -5.14,1.08 -7.521,-0.76 -3.723,-2.88 1.683,-0.95 2.84,-2.48 3.264,-4.32 0.192,-0.82 0.349,-4.12 0.356,-7.33 v -5.82 h -5.731 c -5.205,0 -5.913,-0.1 -7.723,-0.8 -2.406,-0.96 -5.971,-4.16 -6.994,-6.279 -0.39,-0.804 -1.253,-2.621 -1.916,-4.03 -1.301,-2.769 -2.936,-4.678 -5.848,-6.83 -2.6718,-1.975 -2.8788,-3.333 -0.53,-3.477 4.698,-0.294 7.763,1.66 11.654,7.429 1.389,2.06 2.074,2.717 3.867,3.719 3.77,2.108 8.068,2.307 12.047,0.551 1.222,-0.54 1.482,-0.866 2.156,-2.713 0.524,-1.437 1.352,-2.734 2.621,-4.103 l 1.851,-2.002 -2.874,-0.403 c -1.581,-0.223 -4.801,-0.931 -7.155,-1.574 -8.13,-2.228 -13.851,-5.968 -17.348,-11.333 l -1.43,-2.2 -2.782,0.198 c -10.0932,0.708 -19.9636,2.05 -25.961,3.521 -2.64,0.647 -4.02,0.852 -4.02,0.599 0,-1.198 17.38408,-4.12 28.803,-4.838 l 3.655,-0.233 -0.554,-1.157 -0.551,-1.16 h -7.2079 c -8.6354,0 -15.1036,0.431 -20.3791,1.352 -3.756,0.653 -4.599,0.667 -3.915,0.06 1.047,-0.921 14.2869,-2.156 23.8103,-2.221 4.0747,-0.03 7.3457,-0.154 7.2677,-0.284 -0.08,-0.127 -0.466,-1.434 -0.859,-2.909 -1.021,-3.825 -1.32,-14.997 -0.5,-18.682 0.613,-2.762 2.45,-6.899 3.904,-8.801 2.539,-3.323 2.498,-3.199 1.872,-5.564 -1.071,-4.055 -0.564,-11.218 1.071,-15.136 0.479,-1.144 0.582,-1.199 2.211,-1.199 3.716,0 8.465,1.664 13.502,4.731 1.29,0.785 2.433,1.428 2.539,1.428 0.109,0 0.462,0.242 0.79,0.538 0.493,0.444 0.825,0.472 1.909,0.161 3.261,-0.934 10.704,-1.715 16.37,-1.718 5.249,0 14.207,0.902 15.237,1.539 0.288,0.178 2.149,-0.758 3.754,-1.886 3.483,-2.45 10.077,-4.777 13.563,-4.788 1.718,0 1.773,0.03 2.273,1.278 1.197,3.013 1.704,6.538 1.505,10.47 -0.109,2.098 -0.284,4.201 -0.393,4.671 -0.161,0.684 0.181,1.328 1.707,3.21 3.343,4.123 5.401,9.173 5.971,14.638 0.39,3.747 0,11.89 -0.832,15.624 -0.29,1.375 -0.526,2.528 -0.526,2.566 0,0.03 3.508,0.08 7.788,0.106 9.78,0.06 23.11,1.287 24.18,2.228 0.69,0.605 -0.16,0.591 -3.91,-0.06 -5.34,-0.931 -11.77,-1.348 -20.79,-1.352 h -7.628 l -0.332,0.88 c -0.184,0.482 -0.335,0.999 -0.335,1.153 0,0.15 1.735,0.38 3.845,0.506 11.38,0.691 29,3.638 29,4.849 0,0.253 -1.38,0.05 -4.02,-0.596 -6.31,-1.543 -15.95,-2.843 -26.28,-3.544 l -3.089,-0.209 -0.746,1.646 c -1.666,3.664 -5.601,7.302 -10.484,9.693 -3.049,1.496 -9.218,3.196 -13.896,3.833 l -3.014,0.41 1.823,1.968 c 3.285,3.548 3.371,3.979 3.597,17.906 0.126,7.87 0.328,12.27 0.585,12.83 0.599,1.31 1.847,2.63 3.148,3.33 3.729,2.02 1.204,3.87 -3.833,2.81 -2.682,-0.57 -4.763,-1.96 -5.947,-3.97 l -0.971,-1.66 -0.171,-10.09 c -0.168,-9.99 -0.182,-10.11 -1.027,-11.59 l -0.855,-1.501 -0.106,2.351 c -0.06,1.3 -0.06,6.9 0,12.45 0.102,9.73 0.136,10.16 0.903,11.86 0.438,0.97 1.17,2.11 1.625,2.54 0.948,0.89 1.116,2.53 0.288,2.84 -1.119,0.43 -2.495,0.18 -4.51,-0.83 -2.796,-1.39 -4.318,-3.15 -5.194,-5.99 -0.654,-2.12 -0.705,-3.13 -0.705,-14.22 v -11.939 h -1.027 -1.026 v 11.939 c 0,11.09 -0.05,12.1 -0.705,14.22 -0.448,1.46 -1.143,2.77 -1.91,3.62 -2.056,2.27 -6.114,3.91 -7.907,3.19 z m -15.313,-30.23 c 0,-0.3 -0.379,-0.556 -0.941,-0.621 -0.766,-0.09 -0.941,0.03 -0.941,0.621 0,0.6 0.175,0.71 0.941,0.62 0.562,-0.1 0.941,-0.31 0.941,-0.62 z m 3.764,0 c 0,-0.607 -1.129,-0.891 -1.615,-0.405 -0.188,0.185 -0.236,0.525 -0.102,0.735 0.342,0.55 1.717,0.29 1.717,-0.33 z m 4.106,-0.686 c 0,-0.598 -1.461,-0.899 -1.96,-0.4 -0.544,0.544 0.06,1.136 1.05,1.016 0.534,-0.1 0.91,-0.314 0.91,-0.616 z m -12.345,-0.208 c 0.297,-0.113 0.54,-0.404 0.54,-0.647 0,-0.547 -0.855,-0.9 -1.539,-0.636 -0.623,0.239 -0.678,1.026 -0.09,1.266 0.236,0.09 0.455,0.184 0.486,0.198 0.03,0 0.301,-0.06 0.599,-0.181 z m -2.368,-2.868 c 0,-0.609 -1.129,-0.893 -1.615,-0.407 -0.188,0.188 -0.236,0.52 -0.103,0.736 0.342,0.551 1.718,0.287 1.718,-0.329 z m -2.423,-1.923 c 0.298,-0.113 0.541,-0.403 0.541,-0.646 0,-0.548 -0.856,-0.9 -1.54,-0.637 -0.623,0.24 -0.677,1.027 -0.09,1.266 0.236,0.1 0.455,0.185 0.485,0.199 0.04,0 0.302,-0.06 0.599,-0.182 z m -1.351,-3.196 c 0.246,-0.4 -0.856,-1.009 -1.444,-0.797 -0.236,0.08 -0.428,0.37 -0.428,0.637 0,0.547 1.55,0.677 1.872,0.16 z m -1.937,-2.669 c -0.07,-0.376 -0.428,-0.598 -0.962,-0.598 -0.533,0 -0.889,0.222 -0.961,0.598 -0.09,0.469 0.12,0.599 0.961,0.599 0.842,0 1.051,-0.13 0.962,-0.599 z m -3.528,-1.793 c 0,-0.609 -1.129,-0.893 -1.615,-0.407 -0.189,0.188 -0.235,0.52 -0.102,0.736 0.342,0.551 1.717,0.287 1.717,-0.329 z m 54.406,-2.073 c 4.462,-0.383 8.996,-1.328 11.312,-2.351 0.804,-0.356 2.382,-1.273 3.504,-2.032 3.966,-2.697 6.293,-8.161 6.34,-14.895 0.04,-3.497 -0.342,-4.869 -2.087,-7.846 -2.508,-4.284 -6.207,-6.748 -11.162,-7.436 -2.097,-0.291 -4.574,-0.253 -11.158,0.175 -7.692,0.499 -9.239,0.499 -16.978,0.03 -8.897,-0.551 -12.117,-0.411 -15.104,0.647 -3.384,1.197 -6.46,4.256 -8.38,8.328 -1.796,3.819 -1.577,9.646 0.534,14.228 3.014,6.535 9.971,10.101 21.793,11.165 4.407,0.397 16.76,0.393 21.386,0 z m -14.101,-3.832 c -1.109,-0.784 -1.93,-2.074 -1.56,-2.447 0.441,-0.441 0.971,-0.157 1.529,0.825 0.527,0.923 0.753,1.023 2.299,1.023 1.513,0 1.811,-0.123 2.478,-1.027 1.252,-1.697 2.327,-1.112 1.122,0.609 -1.28,1.827 -4.044,2.307 -5.868,1.017 z m 1.122,-5.243 c -0.294,-0.297 -0.537,-0.824 -0.537,-1.173 0,-0.763 0.879,-1.711 1.588,-1.711 1.57,0 2.491,1.943 1.423,3.011 -0.575,0.575 -1.834,0.51 -2.474,-0.127 z m -18.641,-3.969 c -1.787,-1.218 -2.601,-3.079 -2.587,-5.93 0.03,-3.996 1.854,-6.525 4.684,-6.453 2.501,0.07 4.359,2.819 4.359,6.453 0,4.839 -3.435,7.994 -6.456,5.93 z m 37.143,0.09 c -3.864,-2.546 -3.631,-10.283 0.366,-12.189 4.41,-2.107 8.044,5.937 4.814,10.652 -1.458,2.129 -3.405,2.707 -5.18,1.537 z"
                 id="path1046" />
            <path
                 style="fill:#aa5c51;stroke-width:0.342174"
                 d="m 45.823,130.4 c -0.692,-0.71 -0.5,-1.56 0.636,-2.85 2.149,-2.45 2.358,-3.98 2.358,-17.35 0,-6.78 -0.13,-11.88 -0.301,-11.777 -0.165,0.103 -0.589,0.766 -0.941,1.475 -0.568,1.142 -0.661,2.422 -0.811,11.602 l -0.171,10.31 -1.284,1.86 c -1.563,2.27 -3.445,3.3 -6.953,3.81 -4.571,0.65 -5.673,-0.83 -2.285,-3.09 3.124,-2.07 3.315,-2.68 3.449,-11.02 0.102,-6.57 0.07,-6.96 -0.5,-6.74 -0.335,0.13 -2.309,0.32 -4.39,0.43 -8.421,0.43 -13.588,-2.48 -16.318,-9.191 -1.437,-3.535 -3.152,-5.862 -5.929,-8.055 -2.9858,-2.358 -3.4792,-3.004 -2.8609,-3.75 0.6309,-0.76 4.7999,-0.445 6.6169,0.499 1.704,0.886 4.428,3.692 6.289,6.484 2.885,4.325 7.733,6.296 12.88,5.232 3.51,-0.725 4.527,-1.273 4.985,-2.682 0.708,-2.194 1.701,-3.87 3.299,-5.578 0.855,-0.913 1.416,-1.663 1.252,-1.663 -1.16,0 -7.1,-1.191 -10.228,-2.039 -4.448,-1.208 -7.88,-2.868 -11.527,-5.578 -2.348,-1.745 -3.675,-3.216 -6.526,-7.23 -0.438,-0.616 -0.705,-0.629 -6.086,-0.239 -7.0504,0.51 -18.6001,2.155 -23.005,3.281 -3.61,0.924 -4.338,1.03 -3.822,0.558 1.321,-1.205 21.1734,-4.373 28.383,-4.53 1.129,-0.03 2.464,-0.141 2.967,-0.261 0.886,-0.208 0.9,-0.253 0.458,-1.296 -0.438,-1.037 -0.554,-1.089 -3.045,-1.321 -5.1677,-0.486 -22.3062,0.664 -27.58,1.851 -0.838,0.188 -1.592,0.274 -1.676,0.188 -1.034,-1.033 13.4607,-2.546 24.4092,-2.546 h 7.0778 l -0.247,-0.769 c -1.221,-3.809 -1.547,-5.958 -1.741,-11.556 -0.332,-9.591 0.626,-13.081 5.481,-19.993 l 1.318,-1.872 -0.548,-2.173 c -1.05,-4.19 -0.592,-10.895 1.02,-14.922 0.523,-1.307 0.657,-1.409 1.872,-1.409 1.967,0 5.875,0.903 8.28,1.916 1.181,0.495 3.812,1.89 5.851,3.101 l 3.713,2.201 2.447,-0.529 c 9.002,-1.944 20.215,-2.013 29.091,-0.18 1.499,0.309 1.803,0.26 3.08,-0.498 6.426,-3.821 12.106,-5.995 15.688,-6.006 h 1.612 l 0.688,2.232 c 0.38,1.228 0.869,3.259 1.088,4.514 0.438,2.518 0.236,7.916 -0.353,9.45 -0.345,0.899 -0.249,1.108 1.349,2.901 1.957,2.196 4.711,7.377 5.677,10.672 0.9,3.08 0.92,15.117 0,19.531 -0.328,1.615 -0.592,3.039 -0.592,3.165 0,0.127 3.332,0.23 7.402,0.23 4.06,0 10.03,0.236 13.26,0.52 5.59,0.499 11.05,1.307 11.43,1.694 0.42,0.41 -0.21,0.465 -1.64,0.143 -5.49,-1.235 -23.86,-2.392 -28.51,-1.8 -2.195,0.278 -2.373,0.367 -2.8,1.383 l -0.452,1.081 2.962,0.212 c 12.57,0.9 28.54,3.398 29.98,4.688 0.52,0.465 -0.22,0.356 -3.82,-0.565 -4.13,-1.053 -15.73,-2.744 -22.19,-3.23 -7.572,-0.571 -6.997,-0.684 -8.167,1.605 -1.513,2.963 -5.667,6.847 -9.355,8.753 -3.973,2.05 -10.279,3.829 -15.922,4.496 l -1.988,0.236 1.523,1.629 c 0.838,0.896 1.786,2.135 2.104,2.751 1.646,3.182 1.673,3.401 1.872,15.754 0.219,13.78 0.188,13.63 3.524,15.85 3.21,2.14 2.399,3.6 -1.762,3.17 -3.497,-0.36 -5.902,-1.61 -7.463,-3.87 l -1.297,-1.88 -0.171,-10.31 c -0.147,-8.95 -0.249,-10.46 -0.766,-11.41 -0.329,-0.597 -0.753,-1.183 -0.941,-1.302 -0.229,-0.141 -0.346,3.752 -0.346,11.582 0,13.18 0.212,14.73 2.358,17.17 1.126,1.29 1.328,2.16 0.653,2.83 -0.588,0.59 -1.697,0.51 -3.77,-0.26 -2.512,-0.94 -4.859,-3.15 -5.817,-5.49 -0.75,-1.82 -0.78,-2.3 -0.883,-14.45 l -0.106,-12.58 h -0.989 -0.989 l -0.109,12.58 c -0.11,12.36 -0.127,12.61 -0.931,14.56 -0.866,2.11 -2.566,3.86 -4.9,5.07 -1.694,0.87 -4.058,1.18 -4.619,0.6 z m -15.313,-30.07 c 0,-0.597 -1.461,-0.898 -1.96,-0.398 -0.544,0.548 0.06,1.128 1.05,1.018 0.534,-0.1 0.91,-0.32 0.91,-0.62 z m 3.764,0 c 0,-0.3 -0.38,-0.556 -0.941,-0.621 -0.766,-0.09 -0.941,0.03 -0.941,0.621 0,0.6 0.175,0.71 0.941,0.62 0.561,-0.1 0.941,-0.31 0.941,-0.62 z m 4.106,-0.682 c 0,-0.599 -1.461,-0.9 -1.96,-0.4 -0.544,0.544 0.06,1.132 1.05,1.022 0.534,-0.1 0.91,-0.321 0.91,-0.622 z m -11.88,-0.404 c 0.51,-0.51 -0.08,-1.307 -0.972,-1.307 -0.749,0 -1.136,0.534 -0.876,1.215 0.23,0.599 1.29,0.65 1.848,0.09 z m -2.833,-2.672 c 0,-0.609 -1.129,-0.893 -1.615,-0.407 -0.188,0.188 -0.236,0.52 -0.103,0.735 0.342,0.551 1.718,0.288 1.718,-0.328 z m -1.957,-2.118 c 0.509,-0.51 -0.08,-1.307 -0.972,-1.307 -0.749,0 -1.136,0.533 -0.876,1.214 0.229,0.599 1.29,0.65 1.848,0.09 z m -1.636,-3.35 c 0,-0.407 -1.269,-0.797 -1.707,-0.527 -0.483,0.301 -0.432,1.112 0.08,1.297 0.516,0.184 1.625,-0.339 1.625,-0.77 z m -2.429,-1.691 c 0.639,-0.407 0.219,-1.399 -0.599,-1.399 -0.917,0 -1.523,0.787 -1.003,1.307 0.479,0.479 0.948,0.503 1.602,0.09 z m -3.114,-2.48 c 0.126,-0.681 -1.201,-1.208 -1.722,-0.688 -0.195,0.195 -0.257,0.606 -0.139,0.914 0.277,0.722 1.714,0.544 1.861,-0.226 z m 55.206,-2.016 c 9.02,-0.913 14.33,-3.312 17.184,-7.76 1.851,-2.892 2.525,-4.869 3.022,-8.917 0.694,-5.646 -0.699,-9.889 -4.514,-13.773 -3.832,-3.904 -7.565,-4.794 -17.379,-4.147 -7.64,0.507 -14.282,0.507 -22.176,0 -7.408,-0.469 -10.481,-0.15 -13.721,1.434 -2.597,1.266 -5.338,4.174 -6.97,7.384 -0.999,1.967 -1.164,2.665 -1.283,5.413 -0.326,7.408 2.785,13.417 8.489,16.418 4.215,2.213 9.187,3.514 15.572,4.068 3.323,0.287 18.56,0.199 21.776,-0.127 z m -14.275,-3.394 c -1.14,-0.459 -2.649,-2.433 -2.204,-2.878 0.27,-0.27 0.609,-0.08 1.222,0.709 0.465,0.592 1.29,1.177 1.834,1.296 1.276,0.281 3.319,-0.568 3.613,-1.502 0.127,-0.393 0.363,-0.715 0.527,-0.715 0.654,0 0.612,0.619 -0.106,1.643 -1.088,1.556 -3.128,2.159 -4.886,1.447 z m 0.421,-5.769 c -0.736,-0.814 -0.716,-1.526 0.06,-2.231 0.787,-0.708 1.564,-0.719 2.258,-0.03 0.688,0.687 0.688,1.659 0,2.347 -0.715,0.715 -1.621,0.681 -2.319,-0.09 z m -18.286,-3.709 c -2.409,-1.188 -3.644,-5.088 -2.669,-8.438 0.777,-2.673 2.169,-3.993 4.209,-3.993 1.331,0 1.721,0.171 2.658,1.166 2.854,3.025 2.313,9.174 -0.985,11.186 -1.287,0.787 -1.759,0.797 -3.213,0.08 z m 37.259,0.154 c -0.452,-0.243 -1.297,-1.023 -1.872,-1.742 -0.896,-1.109 -1.071,-1.649 -1.184,-3.648 -0.157,-2.768 0.319,-4.424 1.725,-6.029 0.893,-1.016 1.232,-1.166 2.638,-1.166 1.311,0 1.779,0.174 2.512,0.941 2.573,2.686 2.717,7.688 0.294,10.361 -1.376,1.519 -2.819,1.967 -4.113,1.283 z"
                 id="path1044" />
            <path
                 style="fill:#56595b;stroke-width:0.342174"
                 d="m 45.823,130.4 c -0.692,-0.71 -0.5,-1.56 0.636,-2.85 2.149,-2.45 2.358,-3.98 2.358,-17.35 0,-6.78 -0.13,-11.88 -0.301,-11.777 -0.165,0.103 -0.589,0.766 -0.941,1.475 -0.568,1.142 -0.661,2.422 -0.811,11.602 l -0.171,10.31 -1.284,1.86 c -1.563,2.27 -3.445,3.3 -6.953,3.81 -4.571,0.65 -5.673,-0.83 -2.285,-3.09 3.124,-2.07 3.315,-2.68 3.449,-11.02 0.102,-6.57 0.07,-6.96 -0.5,-6.74 -0.335,0.13 -2.309,0.32 -4.39,0.43 -8.421,0.43 -13.588,-2.48 -16.318,-9.191 -1.437,-3.535 -3.152,-5.862 -5.929,-8.055 -2.9858,-2.358 -3.4792,-3.004 -2.8609,-3.75 0.6309,-0.76 4.7999,-0.445 6.6169,0.499 1.704,0.886 4.428,3.692 6.289,6.484 2.885,4.325 7.733,6.296 12.88,5.232 3.51,-0.725 4.527,-1.273 4.985,-2.682 0.708,-2.194 1.701,-3.87 3.299,-5.578 0.855,-0.913 1.416,-1.663 1.252,-1.663 -1.16,0 -7.1,-1.191 -10.228,-2.039 -4.448,-1.208 -7.88,-2.868 -11.527,-5.578 -2.348,-1.745 -3.675,-3.216 -6.526,-7.23 -0.438,-0.616 -0.705,-0.629 -6.086,-0.239 -7.0504,0.51 -18.6001,2.155 -23.005,3.281 -3.61,0.924 -4.338,1.03 -3.822,0.558 1.321,-1.205 21.1734,-4.373 28.383,-4.53 1.129,-0.03 2.464,-0.141 2.967,-0.261 0.886,-0.208 0.9,-0.253 0.458,-1.296 -0.438,-1.037 -0.554,-1.089 -3.045,-1.321 -5.1677,-0.486 -22.3062,0.664 -27.58,1.851 -0.838,0.188 -1.592,0.274 -1.676,0.188 -1.034,-1.033 13.4607,-2.546 24.4092,-2.546 h 7.0778 l -0.247,-0.769 c -1.221,-3.809 -1.547,-5.958 -1.741,-11.556 -0.332,-9.591 0.626,-13.081 5.481,-19.993 l 1.318,-1.872 -0.548,-2.173 c -1.05,-4.19 -0.592,-10.895 1.02,-14.922 0.523,-1.307 0.657,-1.409 1.872,-1.409 1.967,0 5.875,0.903 8.28,1.916 1.181,0.495 3.812,1.89 5.851,3.101 l 3.713,2.201 2.447,-0.529 c 9.002,-1.944 20.215,-2.013 29.091,-0.18 1.499,0.309 1.803,0.26 3.08,-0.498 6.426,-3.821 12.106,-5.995 15.688,-6.006 h 1.612 l 0.688,2.232 c 0.38,1.228 0.869,3.259 1.088,4.514 0.438,2.518 0.236,7.916 -0.353,9.45 -0.345,0.899 -0.249,1.108 1.349,2.901 1.957,2.196 4.711,7.377 5.677,10.672 0.9,3.08 0.92,15.117 0,19.531 -0.328,1.615 -0.592,3.039 -0.592,3.165 0,0.127 3.332,0.23 7.402,0.23 4.06,0 10.03,0.236 13.26,0.52 5.59,0.499 11.05,1.307 11.43,1.694 0.42,0.41 -0.21,0.465 -1.64,0.143 -5.49,-1.235 -23.86,-2.392 -28.51,-1.8 -2.195,0.278 -2.373,0.367 -2.8,1.383 l -0.452,1.081 2.962,0.212 c 12.57,0.9 28.54,3.398 29.98,4.688 0.52,0.465 -0.22,0.356 -3.82,-0.565 -4.13,-1.053 -15.73,-2.744 -22.19,-3.23 -7.572,-0.571 -6.997,-0.684 -8.167,1.605 -1.513,2.963 -5.667,6.847 -9.355,8.753 -3.973,2.05 -10.279,3.829 -15.922,4.496 l -1.988,0.236 1.523,1.629 c 0.838,0.896 1.786,2.135 2.104,2.751 1.646,3.182 1.673,3.401 1.872,15.754 0.219,13.78 0.188,13.63 3.524,15.85 3.21,2.14 2.399,3.6 -1.762,3.17 -3.497,-0.36 -5.902,-1.61 -7.463,-3.87 l -1.297,-1.88 -0.171,-10.31 c -0.147,-8.95 -0.249,-10.46 -0.766,-11.41 -0.329,-0.597 -0.753,-1.183 -0.941,-1.302 -0.229,-0.141 -0.346,3.752 -0.346,11.582 0,13.18 0.212,14.73 2.358,17.17 1.126,1.29 1.328,2.16 0.653,2.83 -0.588,0.59 -1.697,0.51 -3.77,-0.26 -2.512,-0.94 -4.859,-3.15 -5.817,-5.49 -0.75,-1.82 -0.78,-2.3 -0.883,-14.45 l -0.106,-12.58 h -0.989 -0.989 l -0.109,12.58 c -0.11,12.36 -0.127,12.61 -0.931,14.56 -0.866,2.11 -2.566,3.86 -4.9,5.07 -1.694,0.87 -4.058,1.18 -4.619,0.6 z m -15.313,-30.07 c 0,-0.597 -1.461,-0.898 -1.96,-0.398 -0.544,0.548 0.06,1.128 1.05,1.018 0.534,-0.1 0.91,-0.32 0.91,-0.62 z m 3.764,0 c 0,-0.3 -0.38,-0.556 -0.941,-0.621 -0.766,-0.09 -0.941,0.03 -0.941,0.621 0,0.6 0.175,0.71 0.941,0.62 0.561,-0.1 0.941,-0.31 0.941,-0.62 z m 4.106,-0.682 c 0,-0.599 -1.461,-0.9 -1.96,-0.4 -0.544,0.544 0.06,1.132 1.05,1.022 0.534,-0.1 0.91,-0.321 0.91,-0.622 z m -11.88,-0.404 c 0.51,-0.51 -0.08,-1.307 -0.972,-1.307 -0.749,0 -1.136,0.534 -0.876,1.215 0.23,0.599 1.29,0.65 1.848,0.09 z m -2.833,-2.672 c 0,-0.609 -1.129,-0.893 -1.615,-0.407 -0.188,0.188 -0.236,0.52 -0.103,0.735 0.342,0.551 1.718,0.288 1.718,-0.328 z m -1.957,-2.118 c 0.509,-0.51 -0.08,-1.307 -0.972,-1.307 -0.749,0 -1.136,0.533 -0.876,1.214 0.229,0.599 1.29,0.65 1.848,0.09 z m -1.636,-3.35 c 0,-0.407 -1.269,-0.797 -1.707,-0.527 -0.483,0.301 -0.432,1.112 0.08,1.297 0.516,0.184 1.625,-0.339 1.625,-0.77 z m -2.429,-1.691 c 0.639,-0.407 0.219,-1.399 -0.599,-1.399 -0.917,0 -1.523,0.787 -1.003,1.307 0.479,0.479 0.948,0.503 1.602,0.09 z m -3.114,-2.48 c 0.126,-0.681 -1.201,-1.208 -1.722,-0.688 -0.195,0.195 -0.257,0.606 -0.139,0.914 0.277,0.722 1.714,0.544 1.861,-0.226 z m 59.264,-2.443 c 3.857,-0.76 6.721,-1.838 9.26,-3.48 2.539,-1.643 3.534,-2.796 5.04,-5.828 1.464,-2.953 1.943,-5.303 1.95,-9.598 0,-3.698 -0.03,-3.839 -1.307,-6.436 -1.625,-3.285 -4.551,-6.388 -7.127,-7.562 -2.786,-1.266 -5.951,-1.68 -10.878,-1.423 -11.483,0.592 -16.281,0.636 -23.374,0.205 -8.647,-0.52 -11.589,-0.284 -14.905,1.204 -2.683,1.205 -5.701,4.336 -7.292,7.566 -0.996,2.019 -1.15,2.71 -1.266,5.598 -0.448,11.144 6.522,18.074 19.959,19.836 1.506,0.195 3.199,0.421 3.764,0.499 0.565,0.08 6.108,0.09 12.318,0.03 8.223,-0.08 11.99,-0.246 13.858,-0.615 z"
                 id="path1042" />
            <path
                 style="fill:black;stroke-width:0.342174"
                 d="m 45.614,129.93 c -0.246,-0.64 0.322,-2.22 0.794,-2.22 0.568,0 1.981,-3.15 2.378,-5.3 0.219,-1.19 0.373,-6.57 0.373,-13.1 0,-12.047 -0.06,-12.396 -1.711,-9.14 -0.842,1.67 -0.859,1.87 -1.027,11.8 -0.167,9.79 -0.195,10.13 -0.961,11.36 -1.721,2.77 -4.445,4.03 -8.691,4.03 -1.872,0 -2.389,-0.11 -2.563,-0.57 -0.147,-0.38 0.09,-0.8 0.712,-1.28 2.706,-2.07 3.986,-3.44 4.311,-4.6 0.188,-0.68 0.346,-4.23 0.346,-7.88 v -6.63 l -1.284,0.2 c -5.368,0.85 -9.372,0.52 -12.828,-1.03 -2.669,-1.2 -6.108,-4.81 -6.925,-7.27 -0.322,-0.969 -0.989,-2.488 -1.482,-3.371 -0.934,-1.68 -4.099,-5.026 -6.31,-6.672 -2.119,-1.581 -1.5558,-2.621 1.422,-2.635 1.121,0 1.141,0.03 0.583,0.64 -0.523,0.578 -0.529,0.698 -0.06,1.167 0.935,0.934 2.715,0.03 1.89,-0.969 -0.558,-0.674 -0.212,-0.629 1.386,0.189 2.039,1.036 3.658,2.607 5.704,5.529 3.104,4.428 5.759,6.111 10.033,6.365 3.698,0.215 8.554,-1.171 8.554,-2.443 0,-1 2.149,-4.657 3.582,-6.098 l 1.595,-1.608 -1.307,-0.209 c -5.752,-0.931 -10.368,-2.05 -13.673,-3.312 -4.815,-1.841 -10.245,-6.084 -12.651,-9.886 l -1.327,-2.097 -4.62,0.212 c -2.5402,0.116 -6.9286,0.52 -9.7515,0.897 -2.82294,0.376 -5.9025,0.752 -6.8435,0.838 l -1.7109,0.157 1.5398,-0.339 c 2.8757,-0.633 11.9665,-1.693 16.4291,-1.919 2.445,-0.123 4.444,-0.349 4.444,-0.503 0,-0.154 -0.271,-0.845 -0.599,-1.54 l -0.599,-1.259 -9.4099,0.161 c -5.17534,0.09 -8.1009,0.05 -6.5013,-0.09 1.5997,-0.137 5.8136,-0.263 9.3643,-0.28 l 6.4549,-0.03 -0.219,-0.769 c -1.506,-5.284 -1.677,-6.628 -1.698,-13.431 -0.02,-6.624 0.01,-6.932 0.931,-9.581 1.102,-3.178 2.467,-5.728 4.5,-8.41 l 1.444,-1.91 -0.616,-2.367 c -0.914,-3.509 -0.845,-7.867 0.188,-11.944 0.465,-1.833 1.023,-3.546 1.239,-3.808 0.509,-0.615 1.389,-0.598 4.838,0.09 3.343,0.668 6.423,2.006 10.871,4.725 l 3.25,1.987 1.882,-0.374 c 9.229,-1.834 18.656,-2.112 26.988,-0.796 l 4.917,0.777 2.782,-1.694 c 5.512,-3.357 9.481,-4.817 13.464,-4.953 l 1.978,-0.07 0.77,2.304 c 1.273,3.806 1.656,8.086 1.05,11.715 l -0.51,3.069 1.999,2.515 c 2.268,2.857 4.349,6.987 5.288,10.508 1.17,4.387 0.69,18.087 -0.775,21.899 -0.171,0.445 0.736,0.517 6.765,0.548 3.84,0.03 8.28,0.143 9.88,0.28 1.6,0.134 -1.51,0.171 -6.9,0.08 l -9.813,-0.16 -0.541,1.293 c -0.298,0.708 -0.541,1.403 -0.541,1.54 0,0.133 2.115,0.342 4.705,0.462 4.62,0.208 13.82,1.262 16.85,1.929 l 1.54,0.339 -1.71,-0.157 c -0.94,-0.09 -4.02,-0.462 -6.84,-0.842 -2.82,-0.376 -7.31,-0.787 -9.96,-0.91 l -4.831,-0.229 -1.16,2.186 c -2.364,4.459 -8.715,9.338 -13.783,10.59 -0.585,0.148 -2.296,0.592 -3.801,0.993 -2.17,0.575 -8.589,1.731 -9.612,1.731 -0.113,0 0.51,0.746 1.382,1.66 2.06,2.145 2.327,2.556 3.282,5.013 0.77,1.97 0.807,2.532 0.992,14.037 0.164,10.37 0.267,12.11 0.756,12.86 0.524,0.79 1.191,1.4 3.857,3.51 1.632,1.29 1.043,1.92 -1.783,1.92 -4.247,0 -6.97,-1.26 -8.691,-4.03 -0.767,-1.23 -0.794,-1.57 -0.962,-11.36 -0.168,-9.99 -0.181,-10.12 -1.026,-11.61 -1.663,-2.943 -1.711,-2.689 -1.708,8.93 0,5.89 0.161,11.7 0.356,12.89 0.363,2.25 1.783,5.53 2.392,5.53 0.472,0 1.04,1.58 0.794,2.22 -0.281,0.73 -2.7,0.65 -4.486,-0.16 -2.365,-1.07 -4.072,-2.67 -4.91,-4.58 -0.907,-2.08 -1.263,-7.52 -1.308,-19.98 l -0.03,-7.611 h -1.026 -1.027 l -0.03,7.781 c -0.04,12.35 -0.397,17.71 -1.314,19.81 -0.835,1.91 -2.539,3.51 -4.907,4.58 -1.786,0.81 -4.205,0.89 -4.486,0.16 z m -15.473,-28.78 c 0.708,-0.27 0.694,-1.369 -0.03,-1.646 -0.856,-0.325 -1.834,0.113 -1.834,0.826 0,0.84 0.834,1.21 1.854,0.82 z m 3.911,-0.1 c 0.671,-0.42 0.335,-1.556 -0.496,-1.676 -0.996,-0.144 -1.732,0.786 -1.164,1.476 0.479,0.57 0.979,0.64 1.66,0.2 z m 3.959,-0.58 c 0.708,-0.27 0.694,-1.373 -0.03,-1.65 -0.856,-0.325 -1.834,0.113 -1.834,0.821 0,0.849 0.834,1.219 1.854,0.829 z m -11.265,-1.678 c 0,-0.499 -0.266,-0.715 -0.988,-0.797 -1.047,-0.12 -1.636,0.418 -1.332,1.211 0.117,0.305 0.575,0.442 1.253,0.373 0.804,-0.08 1.067,-0.27 1.067,-0.787 z m -3.059,-1.71 c 0.637,-0.493 0.637,-0.534 0.05,-0.989 -0.602,-0.473 -1.8,-0.387 -2.128,0.147 -0.181,0.291 0.736,1.355 1.163,1.355 0.141,0 0.551,-0.233 0.917,-0.513 z m -1.731,-3.08 c 0,-0.5 -0.267,-0.715 -0.982,-0.797 -1.167,-0.134 -1.694,0.287 -1.382,1.102 0.342,0.882 2.364,0.622 2.364,-0.305 z m -2.258,-2.193 c 0.711,-0.452 0.178,-1.4 -0.791,-1.4 -1.037,0 -1.427,0.544 -0.872,1.211 0.468,0.568 0.971,0.623 1.663,0.189 z m -1.773,-2.467 c 0.616,-0.616 0.106,-1.328 -0.948,-1.328 -1.064,0 -1.515,0.448 -1.221,1.215 0.226,0.588 1.622,0.66 2.169,0.113 z m 47.829,-4.069 c 7.449,-0.397 11.727,-1.228 15.224,-2.953 6.042,-2.987 9.242,-8.746 9.242,-16.64 0,-3.661 -0.65,-5.803 -2.662,-8.766 -1.917,-2.823 -4.329,-4.897 -6.919,-5.947 -1.807,-0.732 -2.217,-0.756 -10.094,-0.623 -13.297,0.226 -18.745,0.205 -26.177,-0.109 -6.097,-0.257 -7.305,-0.219 -9.231,0.277 -4.004,1.036 -7.083,3.452 -9.376,7.367 -1.725,2.942 -2.067,4.273 -2.022,7.894 0.09,7.261 3.202,12.564 9.187,15.637 6.864,3.524 16.924,4.708 32.828,3.863 z m -82.207,-8.065 c 0.338,-0.339 6.5331,-1.844 7.4423,-1.807 0.6809,0.04 0.7158,0.06 0.171,0.182 -0.3763,0.08 -2.1923,0.523 -4.0343,0.985 -3.572,0.893 -3.891,0.951 -3.579,0.64 z m 145.853,-0.188 c -0.57,-0.181 -2.26,-0.616 -3.77,-0.968 -1.5,-0.353 -2.35,-0.651 -1.88,-0.664 0.93,-0.03 7.12,1.488 7.45,1.82 0.28,0.288 -0.61,0.192 -1.8,-0.188 z m -137.1276,-1.892 c 0.2354,-0.1 0.6204,-0.1 0.8554,0 0.2355,0.1 0.043,0.171 -0.4277,0.171 -0.4705,0 -0.6628,-0.08 -0.4277,-0.171 z m 129.3376,0 c 0.24,-0.1 0.62,-0.1 0.86,0 0.24,0.1 0,0.171 -0.43,0.171 -0.47,0 -0.66,-0.08 -0.43,-0.171 z m -138.488,-3.641 c 0.274,-0.298 6.199,-1.266 7.5251,-1.232 1.0843,0.03 -0.3956,0.318 -5.9881,1.164 -0.941,0.143 -1.633,0.174 -1.537,0.07 z m 146.598,-0.103 c -0.19,-0.08 -1.81,-0.359 -3.59,-0.619 -1.9,-0.277 -2.67,-0.479 -1.86,-0.493 0.75,0 2.75,0.26 4.44,0.606 1.7,0.349 2.7,0.636 2.23,0.643 -0.47,0 -1.02,-0.06 -1.22,-0.137 z m -136.7591,-1.406 c 0.4256,-0.08 1.0415,-0.08 1.3687,0 0.3271,0.09 -0.021,0.154 -0.774,0.151 -0.7528,0 -1.0204,-0.08 -0.5947,-0.158 z m 127.6291,0 c 0.43,-0.08 1.04,-0.08 1.37,0 0.33,0.09 0,0.154 -0.77,0.151 -0.76,0 -1.02,-0.08 -0.6,-0.158 z"
                 id="path1040" />
        </g>
        <g
             id="g900"
             transform="translate(40.614,-3.0008)">
            <path
                 style="fill:#a1a09e;stroke-width:0.322896"
                 d="m 104.81,121.78 c -4.6,-2.44 -8.064,-6.53 -9.676,-11.43 -1.249,-3.8 -1.246,-8.34 0,-12.022 2.07,-6.074 6.696,-10.704 12.626,-12.648 3.7,-1.211 8.26,-1.205 12.01,0.03 14,4.559 18.23,22.1 7.85,32.49 -2.61,2.61 -6.65,5 -8.11,4.79 -0.76,-0.11 -0.78,-0.19 -0.93,-4.16 -0.13,-3.12 -0.29,-4.25 -0.73,-4.91 -0.73,-1.11 -0.71,-1.21 0.18,-1.21 1.55,0 4.17,-1.04 5.37,-2.12 1.94,-1.75 2.69,-3.86 2.55,-7.21 -0.1,-2.36 -0.24,-2.96 -0.96,-4.005 -0.69,-1.004 -0.81,-1.482 -0.68,-2.644 0.1,-0.782 0.1,-1.938 -0.1,-2.571 -0.27,-1.433 -1.01,-1.504 -3.28,-0.316 -1.51,0.794 -1.85,0.839 -7.06,0.888 -5.37,0.06 -5.49,0.04 -7.23,-0.833 -0.96,-0.488 -2.03,-0.888 -2.37,-0.888 -0.86,0 -1.33,1.456 -1.12,3.523 0.14,1.404 0.1,1.901 -0.44,2.521 -1.05,1.345 -1.46,4.025 -1.02,6.645 0.44,2.56 1.25,4.08 2.75,5.2 1.13,0.83 3.79,1.81 4.95,1.81 0.91,0 0.9,-0.1 0.11,1.7 -0.45,1.01 -0.9,1.52 -1.46,1.66 -0.44,0.11 -0.8,0.43 -0.8,0.71 0,0.28 -0.19,0.44 -0.41,0.36 -0.22,-0.1 -0.37,-0.3 -0.33,-0.48 0,-0.18 -0.21,-0.4 -0.54,-0.49 -0.45,-0.12 -0.56,0 -0.43,0.33 0.13,0.33 0,0.44 -0.26,0.34 -0.25,-0.1 -0.41,-0.4 -0.36,-0.7 0.1,-0.43 -0.1,-0.5 -0.73,-0.34 -0.51,0.13 -0.82,0.1 -0.82,-0.15 0,-0.2 0.16,-0.36 0.34,-0.36 0.19,0 0.26,-0.14 0.15,-0.31 -0.1,-0.17 -0.42,-0.22 -0.7,-0.11 -0.4,0.15 -0.46,0 -0.3,-0.47 0.12,-0.37 0.1,-0.76 -0.12,-0.87 -0.19,-0.12 -0.34,0 -0.34,0.15 0,0.2 -0.15,0.26 -0.34,0.15 -0.19,-0.12 -0.27,-0.43 -0.17,-0.68 0.11,-0.28 0,-0.39 -0.16,-0.26 -0.19,0.11 -0.53,0 -0.76,-0.36 -0.27,-0.38 -0.61,-0.5 -1.013,-0.34 -0.539,0.21 -0.494,0.32 0.443,1.05 0.58,0.45 1.42,1.55 1.87,2.43 1,1.98 2.85,2.97 5.24,2.8 l 1.51,-0.11 0.1,1.88 c 0.16,3.18 -0.7,3.49 -4.35,1.56 z m 54.14,-0.88 c -2.78,-0.49 -4.68,-1.31 -6.19,-2.66 -2.68,-2.41 -3.81,-5.65 -3.81,-10.87 0,-7.757 2.65,-12.375 8,-13.928 3.15,-0.917 11.36,-0.03 11.36,1.237 0,0.588 -1.01,4.288 -1.23,4.514 -0.12,0.123 -1.17,0 -2.32,-0.271 -2.2,-0.517 -4.96,-0.401 -6.25,0.258 -2.81,1.44 -4.18,5.47 -3.44,10.11 0.73,4.56 2.16,5.99 6.03,5.99 h 2.37 v -2.57 -2.56 l -1.86,-0.1 -1.85,-0.1 v -2.42 -2.42 l 4.76,-0.1 4.76,-0.1 v 6.94 c 0,7.87 0.19,7.32 -2.88,8.4 -1.43,0.51 -5.98,0.89 -7.45,0.63 z m 28.06,-0.1 c -1.84,-0.38 -3.31,-1.4 -4.01,-2.79 -0.54,-1.06 -0.66,-2.07 -0.75,-6.04 l -0.11,-4.76 h -1.44 -1.44 l 0.1,-2.02 0.1,-2.02 1.36,-0.28 1.36,-0.29 0.1,-2.619 0.1,-2.622 2.82,-0.09 2.83,-0.09 v 2.58 2.581 l 2.02,0.1 2.01,0.1 0.1,2.32 0.1,2.33 -2.04,0.1 -2.03,0.1 -0.1,3.72 c -0.11,4.48 0,4.82 2.35,4.92 l 1.61,0.1 0.1,2.15 c 0.1,1.84 0,2.18 -0.49,2.32 -1.19,0.35 -3.52,0.47 -4.64,0.24 z m 32.85,0 c -1.68,-0.42 -2.93,-1.36 -3.56,-2.69 -0.44,-0.91 -0.52,-2.33 -0.52,-8.41 v -7.31 l 2.82,0.1 2.83,0.1 0.16,6.44 0.16,6.45 0.81,0.42 c 0.72,0.37 1.69,0.33 3.3,-0.12 0.5,-0.14 0.57,-0.82 0.65,-6.68 l 0.1,-6.51 2.83,-0.1 2.83,-0.1 v 9.05 9.06 h -1.95 c -1.36,0 -2,-0.14 -2.12,-0.45 -0.14,-0.37 -0.46,-0.34 -1.79,0.17 -1.97,0.75 -4.85,1 -6.53,0.58 z m 23.04,0 c -0.62,-0.14 -1.69,-0.49 -2.38,-0.79 -1.52,-0.65 -1.49,-0.65 -1.49,0 0,0.41 -0.39,0.48 -2.18,0.4 l -2.18,-0.1 v -13.07 -13.08 h 2.9 2.91 l 0.1,4.311 c 0.1,3.919 0.14,4.289 0.65,4.089 0.3,-0.11 1.28,-0.35 2.17,-0.52 5.43,-1.05 8.55,2.25 8.54,9.07 0,4.59 -1.32,8.05 -3.48,9.17 -1.11,0.58 -4.08,0.87 -5.55,0.55 z m 2.42,-5.48 c 0.57,-0.93 0.75,-1.77 0.78,-3.84 0.1,-3.9 -1.32,-5.4 -4.17,-4.53 l -1.45,0.45 -0.1,3.82 c -0.1,2.21 0,3.95 0.21,4.14 0.94,0.94 4.15,0.91 4.73,0 z m -73.31,4.72 c -0.1,-0.23 -0.12,-4.26 -0.1,-8.96 l 0.1,-8.55 2.82,-0.1 2.83,-0.1 v 9.05 9.06 h -2.76 c -1.92,0 -2.8,-0.13 -2.91,-0.41 z m 22.46,-12.83 v -13.267 l 2.82,0.09 2.83,0.09 0.1,4.763 0.1,4.764 h 3.71 3.71 v -4.858 -4.856 l 2.82,0.09 2.83,0.09 v 13.084 13.07 l -2.82,0.1 -2.82,0.1 -0.1,-5.58 -0.1,-5.58 -3.62,-0.1 -3.63,-0.1 -0.1,5.58 -0.1,5.58 -2.83,0.1 -2.82,0.1 z m -86.54,9.36 c 0,-0.18 0.22,-0.32 0.49,-0.32 0.26,0 0.48,0.14 0.48,0.32 0,0.18 -0.22,0.32 -0.48,0.32 -0.27,0 -0.49,-0.14 -0.49,-0.32 z m 65.36,-15.87 c -0.88,-0.43 -1.75,-1.927 -1.75,-3.018 0,-0.562 0.39,-1.266 1.1,-1.97 1.46,-1.463 3.05,-1.517 4.42,-0.155 2.62,2.622 -0.42,6.773 -3.77,5.143 z m -45.1,-33.939 c -9.71,-9.561 -9.93,-9.796 -9.93,-11.053 0,-1.239 0.23,-1.504 6.64,-7.881 l 6.64,-6.6 2.39,2.376 c 1.97,1.957 2.36,2.512 2.21,3.129 -0.24,0.946 0.43,2.599 1.22,3.022 0.55,0.297 0.6,0.798 0.6,6.139 v 5.818 l -0.88,0.756 c -0.69,0.597 -0.88,1.039 -0.88,2.082 0,1.014 0.21,1.534 0.88,2.209 1.69,1.695 4.74,0.83 5.18,-1.472 0.19,-1.034 -0.52,-2.894 -1.22,-3.162 -0.42,-0.161 -0.5,-1.039 -0.5,-5.809 0,-3.086 0.12,-5.615 0.25,-5.615 0.14,0 1.15,0.908 2.26,2.018 1.6,1.618 1.96,2.164 1.8,2.748 -0.27,1.053 0.48,2.619 1.53,3.161 1.41,0.724 2.5,0.578 3.55,-0.474 1.99,-1.986 0.79,-5.192 -1.93,-5.192 -1.03,0 -1.47,-0.294 -3.53,-2.374 -1.3,-1.307 -2.34,-2.576 -2.3,-2.825 0.27,-1.931 -1.03,-3.52 -2.89,-3.52 -1.03,0 -1.47,-0.29 -3.57,-2.415 l -2.4,-2.412 2.12,-2.073 c 2.23,-2.171 3.08,-2.639 4.25,-2.344 0.39,0.1 5.11,4.507 10.48,9.797 9.57,9.428 9.76,9.644 9.76,10.904 0,1.256 -0.25,1.527 -9.78,11.059 -9.08,9.086 -9.85,9.774 -10.9,9.774 -1.04,0 -1.85,-0.717 -11.05,-9.771 z m 48.12,3.972 c -1.95,-0.359 -3.34,-1.35 -3.79,-2.712 -0.38,-1.163 -0.24,-1.828 0.68,-3.158 0.52,-0.75 0.54,-0.898 0.11,-1.25 -0.26,-0.22 -0.48,-0.92 -0.48,-1.556 0,-0.898 0.27,-1.431 1.18,-2.364 l 1.18,-1.208 -1,-1.143 c -1.14,-1.295 -1.53,-2.835 -1.22,-4.788 0.31,-1.973 1.48,-3.303 3.59,-4.091 1.64,-0.614 2.21,-0.653 6.94,-0.459 l 5.15,0.213 v 1.405 1.401 h -1.29 c -0.71,0 -1.29,0.05 -1.29,0.113 0,0.06 0.24,0.581 0.52,1.159 0.68,1.363 0.45,3.501 -0.53,4.873 -1.06,1.492 -3.1,2.296 -5.79,2.289 -1.57,0 -2.33,0.133 -2.61,0.468 -0.22,0.262 -0.34,0.524 -0.27,0.578 0.1,0.05 1.89,0.259 4.06,0.456 5.66,0.513 6.88,1.32 6.88,4.556 0,3.429 -2.43,5.173 -7.5,5.376 -1.65,0.06 -3.68,0 -4.52,-0.158 z m 6.78,-3.423 c 0.4,-0.274 0.72,-0.713 0.72,-0.975 0,-0.678 -1.06,-0.982 -4.28,-1.221 -2.83,-0.209 -2.84,-0.209 -3.22,0.637 -0.34,0.749 -0.3,0.917 0.36,1.456 0.99,0.801 5.33,0.872 6.42,0.103 z m -0.81,-12.115 c 0.74,-0.907 0.71,-2.296 -0.1,-3.248 -0.5,-0.604 -0.93,-0.762 -2.13,-0.762 -1.2,0 -1.64,0.158 -2.13,0.762 -1.15,1.414 -0.66,3.368 1,4.029 0.89,0.356 2.74,-0.08 3.31,-0.781 z m 7.73,7.372 c 0.1,-1.227 0.19,-1.382 0.99,-1.476 l 0.88,-0.1 v -4.814 -4.815 l -1,-0.52 c -0.88,-0.455 -0.98,-0.639 -0.81,-1.501 0.11,-0.539 0.2,-1.108 0.2,-1.266 0,-0.155 1.45,-0.281 3.23,-0.281 h 3.23 v 6.597 6.6 l 0.88,0.1 c 0.8,0.09 0.9,0.249 0.99,1.476 l 0.1,1.372 h -4.39 -4.4 z m 13.2,0.949 c -2.17,-0.759 -2.43,-1.547 -2.55,-7.51 l -0.1,-5.306 h -1.11 c -1.09,0 -1.11,-0.03 -1.11,-1.401 0,-1.356 0,-1.414 1.29,-1.789 1.36,-0.407 2.17,-1.492 2.57,-3.429 0.18,-0.891 0.32,-0.975 1.72,-1.066 l 1.52,-0.1 v 2.28 2.276 h 2.27 2.26 v 1.615 1.614 h -2.26 -2.27 v 4.353 c 0,4.291 0,4.359 0.82,4.882 0.77,0.507 1.75,0.494 3.12,-0.04 0.43,-0.165 0.63,0.08 0.95,1.146 0.37,1.214 0.35,1.401 -0.18,1.782 -0.69,0.511 -3.37,1.118 -4.8,1.092 -0.57,0 -1.53,-0.191 -2.14,-0.404 z m -11.33,-18.628 c -1,-1.007 -0.89,-3.31 0.21,-4.175 0.46,-0.368 1.32,-0.668 1.89,-0.668 0.58,0 1.43,0.3 1.9,0.668 1.15,0.911 1.21,3.081 0.1,4.12 -1,0.933 -3.19,0.966 -4.1,0.05 z"
                 id="path914" />
            <path
                 style="fill:#a88674;stroke-width:0.322896"
                 d="m 106.3,122.43 c -5.35,-2.1 -9.964,-7.56 -11.482,-13.6 -0.846,-3.38 -0.507,-8.19 0.814,-11.487 2.056,-5.154 6.078,-9.17 11.168,-11.172 3.29,-1.298 8.13,-1.631 11.47,-0.795 3.08,0.775 6.35,2.499 8.6,4.537 6.92,6.261 8.43,16.617 3.59,24.647 -1.59,2.63 -5.23,5.92 -8.15,7.36 -3.44,1.71 -3.52,1.64 -3.72,-3.45 -0.1,-2.35 -0.33,-4.29 -0.58,-4.72 -0.37,-0.66 -0.33,-0.73 0.49,-0.91 3.8,-0.83 5.48,-1.97 6.76,-4.58 0.76,-1.56 0.91,-2.27 0.91,-4.44 0,-2.23 -0.12,-2.8 -0.89,-4.168 -0.74,-1.311 -0.86,-1.841 -0.71,-3.068 0.42,-3.513 -0.77,-4.307 -3.99,-2.667 -1.86,0.943 -1.94,0.952 -4.36,0.604 -1.78,-0.259 -3.15,-0.262 -4.88,0 -2.33,0.339 -2.46,0.319 -4.25,-0.582 -2.47,-1.246 -3.56,-1.236 -3.84,0.04 -0.12,0.53 -0.17,1.669 -0.13,2.532 0.1,1.197 -0.1,1.866 -0.7,2.831 -0.61,0.988 -0.81,1.808 -0.9,3.788 -0.15,3.16 0.35,4.97 1.83,6.7 1.15,1.34 3.83,2.87 5.07,2.88 0.35,0 0.83,0.13 1.07,0.28 0.72,0.46 -0.54,2.69 -1.68,2.99 -1.02,0.27 -2.7,0 -2.97,-0.41 -0.1,-0.15 -0.32,-0.28 -0.5,-0.28 -0.18,0 -0.23,0.15 -0.12,0.33 0.11,0.17 0,0.32 -0.13,0.32 -0.17,0 -0.3,-0.26 -0.28,-0.57 0.1,-1.35 -2.03,-3.31 -3.61,-3.31 -0.871,0 -0.842,0.49 0.1,1.12 0.4,0.28 1.16,1.26 1.7,2.17 1.38,2.35 2.33,2.95 4.84,3.11 l 2.1,0.14 v 2.02 c 0,1.55 -0.12,2.08 -0.51,2.23 -0.28,0.11 -0.54,0.19 -0.57,0.18 0,0 -0.71,-0.28 -1.52,-0.59 z m 50,-2.27 c -4.49,-1.47 -6.7,-4.93 -7.23,-11.34 -0.24,-2.78 0.29,-6.8 1.21,-9.246 1.78,-4.782 6.59,-7.11 13.05,-6.322 1.41,0.171 3.09,0.536 3.74,0.81 l 1.18,0.494 -0.56,2.209 c -0.63,2.496 -0.13,2.299 -4.71,1.863 -5.7,-0.539 -8.08,1.942 -8.06,8.422 0,3.68 0.54,5.46 2.04,6.96 1.32,1.32 3.05,1.8 5.22,1.43 l 1.29,-0.22 v -2.55 -2.56 h -1.78 -1.77 v -2.59 -2.59 l 4.6,0.1 4.6,0.1 0.1,6.88 0.1,6.87 -1.86,0.87 c -1.62,0.75 -2.34,0.87 -5.58,0.95 -2.93,0.1 -4.09,0 -5.55,-0.52 z m 29.29,0.15 c -1.19,-0.53 -2.27,-1.66 -2.73,-2.87 -0.19,-0.5 -0.34,-3.01 -0.34,-5.57 v -4.66 h -1.47 -1.47 l 0.1,-1.99 0.1,-1.99 1.3,-0.36 1.29,-0.36 0.1,-2.671 0.1,-2.667 2.65,0.09 2.65,0.09 0.1,2.486 0.1,2.482 2.01,0.1 2,0.1 v 2.26 2.26 l -2.01,0.1 -2.02,0.1 v 4 c 0,3.77 0,4.03 0.72,4.5 0.39,0.28 1.34,0.51 2.09,0.51 h 1.39 v 1.94 c 0,1.79 -0.1,1.98 -0.83,2.26 -1.19,0.45 -4.65,0.37 -5.79,-0.14 z m 33.24,0 c -1.44,-0.62 -2.66,-2.24 -2.89,-3.82 -0.1,-0.75 -0.15,-4.2 -0.1,-7.67 l 0.1,-6.29 2.66,-0.1 2.67,-0.1 v 5.58 c 0,5.55 0.26,7.56 1.04,8.06 0.66,0.42 2.47,0.31 3.49,-0.23 l 0.96,-0.49 v -6.46 -6.46 l 2.66,0.1 2.66,0.1 0.1,8.96 0.1,8.96 h -1.94 c -1.51,0 -1.94,-0.11 -1.94,-0.49 0,-0.62 -0.15,-0.61 -2.18,0.16 -1.99,0.76 -5.83,0.86 -7.36,0.19 z m 21.92,-0.32 c -1.6,-0.75 -1.67,-0.75 -1.82,-0.16 -0.14,0.52 -0.47,0.62 -2.14,0.62 h -1.97 l 0.1,-13.16 0.1,-13.16 h 2.58 2.59 l 0.1,4.44 c 0,2.44 0.12,4.44 0.16,4.43 0,0 0.65,-0.21 1.36,-0.46 2.05,-0.74 4.97,-0.63 6.64,0.25 2.45,1.29 3.81,5.2 3.39,9.75 -0.57,6.15 -2.39,8.23 -7.19,8.23 -1.63,0 -2.62,-0.2 -3.86,-0.78 z m 4.46,-4.36 c 0.71,-0.58 0.76,-0.83 0.76,-4.06 0,-3.38 0,-3.47 -0.91,-4.23 -0.99,-0.86 -1.71,-0.94 -3.53,-0.44 l -1.21,0.34 v 4.15 4.16 l 0.89,0.32 c 1.46,0.54 3.17,0.43 4,-0.24 z m -73.19,4.42 c -0.1,-0.23 -0.13,-4.27 -0.1,-8.97 l 0.1,-8.55 h 2.74 2.74 v 8.87 8.88 l -2.67,0.1 c -1.96,0.1 -2.7,0 -2.82,-0.33 z m 22.52,-12.76 0.1,-13.16 2.37,-0.1 c 1.47,-0.06 2.54,0.05 2.82,0.284 0.36,0.291 0.46,1.421 0.46,5.018 v 4.648 h 3.7 3.71 l 0.1,-4.929 0.1,-4.924 h 2.58 2.58 l 0.1,13.163 0.1,13.16 h -2.75 -2.74 v -5.65 -5.66 h -3.72 -3.71 v 5.15 c 0,2.82 -0.1,5.37 -0.2,5.65 -0.15,0.41 -0.73,0.51 -2.91,0.51 h -2.71 z m -89.52,9.28 c 0,-0.18 0.15,-0.32 0.33,-0.32 0.18,0 0.32,0.14 0.32,0.32 0,0.18 -0.14,0.32 -0.32,0.32 -0.18,0 -0.33,-0.14 -0.33,-0.32 z m 3.23,0 c 0,-0.18 0.16,-0.32 0.35,-0.32 0.18,0 0.25,0.14 0.14,0.32 -0.11,0.18 -0.27,0.32 -0.34,0.32 -0.1,0 -0.15,-0.14 -0.15,-0.32 z m 64.62,-16.43 c -2.63,-2.458 0.23,-6.749 3.36,-5.057 2.27,1.217 2.32,4.381 0.11,5.527 -1.35,0.7 -2.37,0.56 -3.47,-0.47 z m -44.67,-33.543 c -8.51,-8.506 -9.94,-10.072 -9.94,-10.879 0,-0.797 1.02,-1.97 6.53,-7.501 3.59,-3.607 6.62,-6.558 6.73,-6.558 0.12,0 1.18,0.92 2.36,2.044 1.98,1.892 2.14,2.141 2.14,3.413 0,1.095 0.2,1.569 0.97,2.341 l 0.97,0.969 v 5.502 5.505 l -0.97,1.101 c -1.46,1.66 -1.14,3.872 0.7,4.818 1.45,0.752 2.48,0.572 3.69,-0.636 1.42,-1.421 1.46,-2.664 0.13,-4.182 l -0.97,-1.101 v -5.366 c 0,-2.951 0.12,-5.367 0.26,-5.367 0.14,0 1.08,0.853 2.1,1.896 1.65,1.695 1.84,2.034 1.84,3.251 0,2.822 2.98,4.237 5.12,2.432 1.23,-1.034 1.55,-2.37 0.87,-3.675 -0.6,-1.169 -2.22,-2.092 -3.22,-1.84 -1.02,0.255 -5.24,-3.985 -5.09,-5.118 0.12,-0.963 -0.71,-2.629 -1.53,-3.071 -0.35,-0.184 -1.11,-0.333 -1.71,-0.333 -0.91,0 -1.44,-0.368 -3.41,-2.35 l -2.33,-2.348 2.25,-2.236 c 3.64,-3.606 2.72,-4.089 14.4,7.606 9.06,9.077 9.83,9.929 9.83,10.949 0,1.021 -0.74,1.851 -9.29,10.427 -5.1,5.127 -9.67,9.528 -10.15,9.78 -0.48,0.255 -1.21,0.462 -1.61,0.462 -0.54,0 -3.44,-2.709 -10.67,-9.935 z m 48.88,4.11 c -2.02,-0.274 -3.38,-0.898 -4.16,-1.899 -0.61,-0.797 -0.49,-2.744 0.24,-3.664 0.77,-0.985 0.78,-1.111 0.16,-1.734 -0.88,-0.882 -0.59,-2.219 0.81,-3.672 l 1.3,-1.35 -0.79,-0.619 c -0.44,-0.34 -1.04,-1.276 -1.35,-2.08 -0.48,-1.256 -0.5,-1.705 -0.17,-3.177 0.43,-1.941 1.42,-3.084 3.43,-3.952 1.07,-0.469 2.14,-0.549 6.45,-0.485 2.85,0.04 5.29,0.197 5.43,0.342 0.15,0.146 0.22,0.756 0.17,1.353 -0.1,1.011 -0.2,1.098 -1.34,1.195 -1.02,0.08 -1.2,0.2 -1.02,0.646 0.63,1.534 0.76,2.518 0.5,3.687 -0.6,2.642 -3.17,4.214 -6.69,4.088 -1.74,-0.06 -2.18,0.03 -2.44,0.485 -0.17,0.31 -0.25,0.632 -0.17,0.716 0.1,0.08 1.77,0.281 3.74,0.443 5.87,0.474 7.45,1.618 7.06,5.082 -0.4,3.546 -4.97,5.428 -11.16,4.595 z m 6.24,-3.562 c 0.5,-0.497 0.57,-0.752 0.29,-1.191 -0.47,-0.752 -6.31,-1.35 -7.06,-0.723 -0.58,0.478 -0.65,1.801 -0.11,2.131 1.52,0.943 5.84,0.807 6.88,-0.217 z m -1.33,-11.624 c 1.1,-0.868 1.18,-2.661 0.15,-3.752 -0.91,-0.969 -2.76,-1.004 -3.94,-0.08 -1.08,0.855 -1.19,2.864 -0.2,3.852 0.87,0.872 2.87,0.859 3.99,-0.03 z m 22.32,8.211 c -3.16,-0.752 -3.49,-1.469 -3.65,-7.946 l -0.13,-5.086 h -1.09 c -1.07,0 -1.1,-0.04 -1.1,-1.301 0,-0.959 0.15,-1.346 0.57,-1.472 1.94,-0.582 3.01,-1.841 3.47,-4.108 0.17,-0.839 0.28,-0.897 1.54,-0.807 l 1.36,0.1 0.1,2.341 0.1,2.341 h 2.25 2.25 v 1.453 1.453 h -2.26 -2.27 v 4.508 c 0,4.278 0,4.53 0.7,4.882 0.42,0.223 1.29,0.288 2.24,0.162 l 1.55,-0.204 0.34,1.208 c 0.18,0.665 0.22,1.308 0.1,1.424 -0.7,0.639 -4.8,1.353 -6.05,1.052 z m -14.36,-1.207 c 0,-0.95 0.12,-1.114 0.96,-1.282 l 0.97,-0.194 v -4.982 -4.979 l -0.98,-0.342 c -0.99,-0.346 -1.04,-0.646 -0.45,-2.561 0.1,-0.307 0.9,-0.391 3.12,-0.323 l 3,0.09 0.1,6.548 0.1,6.548 0.96,0.191 c 0.84,0.168 0.96,0.332 0.96,1.282 v 1.091 h -4.35 -4.36 z m 2.08,-17.782 c -1.43,-1.431 -0.84,-4.049 1.01,-4.514 0.46,-0.116 1.35,-0.05 1.96,0.155 2.82,0.93 1.99,5.15 -1.02,5.15 -0.8,0 -1.4,-0.245 -1.95,-0.791 z"
                 id="path912" />
            <path
                 style="fill:#ed3d2f;stroke-width:0.322896"
                 d="m 104.98,121.68 c -6.52,-3.26 -10.611,-9.94 -10.611,-17.32 0,-17.182 20.861,-25.929 33.021,-13.85 6.14,6.093 7.59,15.04 3.71,22.83 -1.88,3.76 -6.41,7.85 -10.16,9.17 -2.16,0.76 -2.35,0.44 -2.35,-3.87 0,-2.66 -0.14,-3.98 -0.48,-4.65 l -0.49,-0.93 1.77,-0.36 c 4.04,-0.84 6.46,-3.78 6.84,-8.3 0.17,-2.04 0.1,-2.47 -0.71,-4.17 -0.7,-1.483 -0.91,-2.403 -0.93,-4.163 0,-1.243 -0.15,-2.441 -0.29,-2.664 -0.43,-0.671 -1.99,-0.458 -3.87,0.53 -1.54,0.814 -1.95,0.898 -3.18,0.659 -1.87,-0.362 -5.3,-0.355 -6.87,0 -1.09,0.252 -1.52,0.164 -3.14,-0.656 -2.24,-1.13 -3.69,-1.24 -3.99,-0.297 -0.11,0.355 -0.17,1.498 -0.13,2.538 0.1,1.524 -0.1,2.131 -0.7,3.145 -1.04,1.668 -1.28,5.748 -0.47,8.168 0.85,2.56 4.2,5.17 6.67,5.2 0.99,0 1.33,0.51 0.91,1.33 -0.23,0.42 -0.51,0.99 -0.63,1.25 -0.3,0.62 -1.83,0.92 -3.06,0.58 -0.53,-0.14 -1.73,-1.05 -2.66,-2.03 -1.32,-1.39 -1.91,-1.78 -2.67,-1.78 -0.535,0 -0.975,0.1 -0.975,0.21 0,0.11 0.545,0.81 1.215,1.55 0.66,0.75 1.45,1.81 1.75,2.37 0.83,1.55 2.35,2.33 4.54,2.33 h 1.86 v 2.06 c 0,1.92 -0.25,2.46 -1.12,2.46 0,0 -1.31,-0.61 -2.8,-1.35 z m 51.56,-1.43 c -5.13,-1.63 -7.43,-5.7 -7.4,-13.04 0.1,-8.64 2.96,-12.964 9.33,-13.865 2.49,-0.352 6.95,0.03 8.63,0.73 l 1.15,0.481 -0.56,2.209 c -0.51,2.015 -0.63,2.202 -1.34,2.128 -0.43,-0.05 -2.09,-0.168 -3.69,-0.268 -2.62,-0.168 -3.05,-0.11 -4.35,0.565 -1.82,0.94 -2.7,2.24 -3.23,4.77 -0.9,4.24 0.32,9.45 2.51,10.74 1.19,0.71 3.26,1.04 4.73,0.76 l 1.15,-0.21 v -2.57 -2.57 h -1.78 -1.77 v -2.59 -2.59 l 4.6,0.1 4.6,0.1 0.1,6.88 0.1,6.87 -1.86,0.84 c -1.59,0.72 -2.41,0.86 -5.58,0.96 -2.73,0.1 -4.13,0 -5.31,-0.41 z m 29.41,0.19 c -0.51,-0.16 -1.3,-0.62 -1.74,-1.03 -1.44,-1.32 -1.69,-2.45 -1.69,-7.51 v -4.69 h -1.45 -1.46 v -1.94 -1.93 l 1.46,-0.36 1.45,-0.37 v -2.55 -2.54 h 2.74 2.75 v 2.422 2.418 h 1.94 1.93 v 2.43 2.42 h -1.93 -1.94 v 3.99 c 0,4.58 0.1,4.75 2.54,5.04 l 1.49,0.17 0.1,1.86 c 0.1,1.74 0.1,1.88 -0.75,2.18 -1,0.38 -4.14,0.37 -5.44,0 z m 32.9,-0.13 c -1.34,-0.59 -2.3,-1.73 -2.74,-3.25 -0.24,-0.84 -0.33,-3.62 -0.27,-7.92 l 0.1,-6.61 h 2.58 2.59 l 0.18,6.29 c 0.1,3.47 0.21,6.32 0.24,6.36 0.85,0.87 1.26,1.07 2.2,1.07 0.61,0 1.55,-0.22 2.07,-0.49 l 0.94,-0.49 0.1,-6.37 0.1,-6.37 h 2.58 2.58 v 8.87 8.88 l -1.85,0.1 c -1.51,0.1 -1.86,0 -1.86,-0.4 0,-0.65 -0.29,-0.63 -2.26,0.14 -1.92,0.76 -5.76,0.86 -7.26,0.19 z m 22.64,0 c -0.69,-0.24 -1.41,-0.6 -1.6,-0.79 -0.51,-0.51 -0.77,-0.43 -0.96,0.3 -0.14,0.55 -0.44,0.64 -2.14,0.64 h -1.96 v -13.07 -13.081 h 2.74 2.75 v 4.359 c 0,2.402 0,4.352 0.1,4.352 0,0 0.66,-0.21 1.37,-0.47 1.53,-0.55 4.6,-0.63 5.87,-0.15 1.46,0.55 2.95,2.23 3.56,3.99 0.82,2.41 0.72,7.81 -0.19,10.22 -0.74,1.94 -1.92,3.28 -3.37,3.83 -1.26,0.48 -4.65,0.41 -6.15,-0.13 z m 3.86,-4.72 c 0.89,-0.98 1.08,-5.87 0.29,-7.52 -0.65,-1.37 -2.07,-1.79 -4.06,-1.2 l -1.26,0.38 v 4.16 4.15 l 0.89,0.33 c 1.59,0.58 3.46,0.45 4.14,-0.3 z m -73.32,4.16 c -0.1,-0.41 -0.15,-4.45 -0.1,-8.97 l 0.1,-8.24 h 2.74 2.74 v 8.88 8.88 l -2.65,0.1 c -2.53,0.1 -2.66,0.1 -2.83,-0.65 z m 22.65,0.5 c -0.12,-0.12 -0.21,-6.01 -0.21,-13.08 v -12.861 h 2.73 2.74 l 0.1,4.762 0.1,4.759 3.79,0.1 3.8,0.1 v -4.848 -4.853 h 2.74 2.74 v 13.081 13.07 h -2.74 -2.74 v -5.65 -5.65 h -3.88 -3.87 v 5.65 5.65 h -2.53 c -1.39,0 -2.63,-0.1 -2.75,-0.21 z m -89.49,-3.66 c -0.11,-0.18 0,-0.32 0.14,-0.32 0.19,0 0.34,0.14 0.34,0.32 0,0.18 -0.1,0.32 -0.14,0.32 -0.1,0 -0.23,-0.14 -0.34,-0.32 z m 3.06,0 c 0,-0.18 0.16,-0.32 0.35,-0.32 0.18,0 0.25,0.14 0.14,0.32 -0.11,0.18 -0.27,0.32 -0.34,0.32 -0.1,0 -0.15,-0.14 -0.15,-0.32 z m -4.52,-0.99 c 0,-0.19 0.15,-0.25 0.33,-0.14 0.17,0.11 0.32,0.26 0.32,0.34 0,0.1 -0.15,0.14 -0.32,0.14 -0.18,0 -0.33,-0.15 -0.33,-0.34 z m 69.68,-15.01 c -1.08,-0.592 -1.55,-1.406 -1.55,-2.73 0,-1.362 0.48,-2.153 1.65,-2.76 1.3,-0.675 2.64,-0.356 3.67,0.871 1.3,1.547 0.9,3.756 -0.84,4.659 -1.11,0.58 -1.81,0.56 -2.93,0 z m -35.29,-24.509 c -0.53,-0.239 -5.17,-4.659 -10.32,-9.819 -8.76,-8.803 -9.34,-9.452 -9.34,-10.54 0,-1.078 0.46,-1.624 6.52,-7.678 l 6.52,-6.519 2.26,2.247 c 2,1.982 2.26,2.386 2.26,3.455 0,0.881 0.26,1.505 0.97,2.312 l 0.97,1.101 v 5.399 5.399 l -0.97,0.904 c -1.36,1.269 -1.37,3.2 0,4.546 2.95,2.948 7.42,-1.392 4.57,-4.443 -0.58,-0.623 -0.65,-1.221 -0.74,-6.2 l -0.1,-5.511 2.02,2.002 c 1.78,1.763 2.01,2.147 2.01,3.245 0,3.248 4.49,4.394 5.97,1.524 0.72,-1.389 0.6,-2.458 -0.4,-3.575 -0.66,-0.739 -1.26,-1.04 -2.34,-1.172 -1.23,-0.152 -1.75,-0.478 -3.47,-2.15 -1.73,-1.686 -2.02,-2.135 -2.02,-3.12 0,-0.629 -0.22,-1.472 -0.5,-1.866 -0.68,-0.972 -2.32,-1.782 -3.17,-1.56 -0.53,0.139 -1.17,-0.3 -2.86,-1.982 -1.2,-1.188 -2.18,-2.315 -2.18,-2.503 0,-0.532 3.61,-3.963 4.53,-4.308 0.57,-0.213 1.11,-0.18 1.78,0.112 0.52,0.231 5.13,4.61 10.23,9.734 7.4,7.427 9.32,9.532 9.49,10.391 0.21,1.056 0.1,1.227 -9.6,10.869 -5.4,5.386 -10.11,9.871 -10.46,9.968 -0.36,0.1 -1.08,-0.03 -1.62,-0.262 z m 37.22,-5.731 c -2.58,-0.685 -3.63,-3.455 -2.03,-5.357 0.79,-0.943 0.79,-0.956 0.16,-1.528 -0.99,-0.897 -0.78,-1.95 0.72,-3.574 l 1.35,-1.466 -0.84,-0.704 c -1.21,-1.017 -1.59,-1.97 -1.59,-3.93 0,-2.66 0.99,-4.175 3.41,-5.185 1.07,-0.443 2.06,-0.485 6.69,-0.291 l 5.44,0.233 v 1.049 c 0,1.143 -0.41,1.443 -1.97,1.443 -0.93,0 -0.94,0 -0.42,0.811 0.4,0.604 0.5,1.311 0.39,2.79 -0.13,1.779 -0.26,2.092 -1.3,3.045 -1.4,1.285 -3.37,1.866 -5.65,1.675 -1.49,-0.122 -1.76,-0.05 -2.18,0.598 -0.47,0.713 -0.45,0.746 0.56,0.897 0.58,0.09 2.34,0.243 3.92,0.343 3.9,0.252 5.51,0.975 6.03,2.699 0.85,2.845 -0.91,5.69 -4,6.468 -1.76,0.445 -7,0.432 -8.69,0 z m 7.35,-2.664 c 0.85,-0.352 1.12,-0.662 1.12,-1.256 0,-0.995 -0.23,-1.076 -3.83,-1.357 -3.21,-0.251 -3.92,-0.03 -3.92,1.305 0,1.256 0.92,1.676 3.81,1.737 0.93,0.03 2.2,-0.171 2.82,-0.429 z m -0.59,-12.18 c 0.97,-0.911 1.01,-2.767 0.1,-3.759 -0.88,-0.952 -3.25,-0.988 -4.18,-0.06 -0.94,0.943 -0.9,3.336 0.1,4.017 1.07,0.749 3.13,0.646 4.03,-0.197 z m 7.85,6.997 c 0,-0.965 0.11,-1.13 0.74,-1.13 1.37,0 1.52,-0.5 1.52,-5.399 v -4.62 l -1.07,-0.507 c -0.94,-0.453 -1.05,-0.627 -0.93,-1.608 l 0.13,-1.105 h 3.19 3.18 l 0.1,6.539 0.1,6.539 0.89,0.103 c 0.77,0.09 0.88,0.239 0.88,1.211 v 1.107 h -4.35 -4.36 z m 13.07,0.824 c -0.35,-0.146 -0.93,-0.585 -1.29,-0.979 -0.57,-0.639 -0.66,-1.304 -0.81,-6.093 l -0.16,-5.376 -1.22,-0.1 c -1.23,-0.104 -1.23,-0.107 -1.13,-1.434 0.1,-1.159 0.21,-1.363 1.02,-1.576 1.38,-0.365 2.35,-1.446 2.76,-3.051 0.36,-1.421 0.36,-1.427 1.81,-1.427 h 1.44 v 2.26 2.26 h 2.27 2.26 v 1.453 1.453 h -2.26 -2.27 v 4.508 c 0,5.215 0.12,5.409 2.93,5.076 1.41,-0.168 1.55,-0.123 1.72,0.578 0.11,0.417 0.28,0.972 0.38,1.233 0.41,1.066 -5.47,2.025 -7.45,1.215 z m -10.41,-18.112 c -0.93,-0.371 -1.47,-1.769 -1.22,-3.129 0.24,-1.246 0.96,-1.701 2.71,-1.701 1.01,0 1.44,0.184 1.96,0.849 0.79,1.007 0.84,1.76 0.2,3 -0.64,1.227 -2.08,1.614 -3.65,0.981 z"
                 id="path910" />
            <path
                 style="fill:#615e5b;stroke-width:0.322896"
                 d="m 104.98,121.68 c -6.52,-3.26 -10.611,-9.94 -10.611,-17.32 0,-17.182 20.861,-25.929 33.021,-13.85 6.14,6.093 7.59,15.04 3.71,22.83 -1.88,3.76 -6.41,7.85 -10.16,9.17 -2.16,0.76 -2.35,0.44 -2.35,-3.87 0,-2.66 -0.14,-3.98 -0.48,-4.65 l -0.49,-0.93 1.77,-0.36 c 4.04,-0.84 6.46,-3.78 6.84,-8.3 0.17,-2.04 0.1,-2.47 -0.71,-4.17 -0.7,-1.483 -0.91,-2.403 -0.93,-4.163 0,-1.243 -0.15,-2.441 -0.29,-2.664 -0.43,-0.671 -1.99,-0.458 -3.87,0.53 -1.54,0.814 -1.95,0.898 -3.18,0.659 -1.87,-0.362 -5.3,-0.355 -6.87,0 -1.09,0.252 -1.52,0.164 -3.14,-0.656 -2.24,-1.13 -3.69,-1.24 -3.99,-0.297 -0.11,0.355 -0.17,1.498 -0.13,2.538 0.1,1.524 -0.1,2.131 -0.7,3.145 -1.04,1.668 -1.28,5.748 -0.47,8.168 0.85,2.56 4.2,5.17 6.67,5.2 0.99,0 1.33,0.51 0.91,1.33 -0.23,0.42 -0.51,0.99 -0.63,1.25 -0.3,0.62 -1.83,0.92 -3.06,0.58 -0.53,-0.14 -1.73,-1.05 -2.66,-2.03 -1.32,-1.39 -1.91,-1.78 -2.67,-1.78 -0.535,0 -0.975,0.1 -0.975,0.21 0,0.11 0.545,0.81 1.215,1.55 0.66,0.75 1.45,1.81 1.75,2.37 0.83,1.55 2.35,2.33 4.54,2.33 h 1.86 v 2.06 c 0,1.92 -0.25,2.46 -1.12,2.46 0,0 -1.31,-0.61 -2.8,-1.35 z m 51.56,-1.43 c -5.13,-1.63 -7.43,-5.7 -7.4,-13.04 0.1,-8.64 2.96,-12.964 9.33,-13.865 2.49,-0.352 6.95,0.03 8.63,0.73 l 1.15,0.481 -0.56,2.209 c -0.51,2.015 -0.63,2.202 -1.34,2.128 -0.43,-0.05 -2.09,-0.168 -3.69,-0.268 -2.62,-0.168 -3.05,-0.11 -4.35,0.565 -1.82,0.94 -2.7,2.24 -3.23,4.77 -0.9,4.24 0.32,9.45 2.51,10.74 1.19,0.71 3.26,1.04 4.73,0.76 l 1.15,-0.21 v -2.57 -2.57 h -1.78 -1.77 v -2.59 -2.59 l 4.6,0.1 4.6,0.1 0.1,6.88 0.1,6.87 -1.86,0.84 c -1.59,0.72 -2.41,0.86 -5.58,0.96 -2.73,0.1 -4.13,0 -5.31,-0.41 z m 29.41,0.19 c -0.51,-0.16 -1.3,-0.62 -1.74,-1.03 -1.44,-1.32 -1.69,-2.45 -1.69,-7.51 v -4.69 h -1.45 -1.46 v -1.94 -1.93 l 1.46,-0.36 1.45,-0.37 v -2.55 -2.54 h 2.74 2.75 v 2.422 2.418 h 1.94 1.93 v 2.43 2.42 h -1.93 -1.94 v 3.99 c 0,4.58 0.1,4.75 2.54,5.04 l 1.49,0.17 0.1,1.86 c 0.1,1.74 0.1,1.88 -0.75,2.18 -1,0.38 -4.14,0.37 -5.44,0 z m 32.9,-0.13 c -1.34,-0.59 -2.3,-1.73 -2.74,-3.25 -0.24,-0.84 -0.33,-3.62 -0.27,-7.92 l 0.1,-6.61 h 2.58 2.59 l 0.18,6.29 c 0.1,3.47 0.21,6.32 0.24,6.36 0.85,0.87 1.26,1.07 2.2,1.07 0.61,0 1.55,-0.22 2.07,-0.49 l 0.94,-0.49 0.1,-6.37 0.1,-6.37 h 2.58 2.58 v 8.87 8.88 l -1.85,0.1 c -1.51,0.1 -1.86,0 -1.86,-0.4 0,-0.65 -0.29,-0.63 -2.26,0.14 -1.92,0.76 -5.76,0.86 -7.26,0.19 z m 22.64,0 c -0.69,-0.24 -1.41,-0.6 -1.6,-0.79 -0.51,-0.51 -0.77,-0.43 -0.96,0.3 -0.14,0.55 -0.44,0.64 -2.14,0.64 h -1.96 v -13.07 -13.081 h 2.74 2.75 v 4.359 c 0,2.402 0,4.352 0.1,4.352 0,0 0.66,-0.21 1.37,-0.47 1.53,-0.55 4.6,-0.63 5.87,-0.15 1.46,0.55 2.95,2.23 3.56,3.99 0.82,2.41 0.72,7.81 -0.19,10.22 -0.74,1.94 -1.92,3.28 -3.37,3.83 -1.26,0.48 -4.65,0.41 -6.15,-0.13 z m 3.86,-4.72 c 0.89,-0.98 1.08,-5.87 0.29,-7.52 -0.65,-1.37 -2.07,-1.79 -4.06,-1.2 l -1.26,0.38 v 4.16 4.15 l 0.89,0.33 c 1.59,0.58 3.46,0.45 4.14,-0.3 z m -73.32,4.16 c -0.1,-0.41 -0.15,-4.45 -0.1,-8.97 l 0.1,-8.24 h 2.74 2.74 v 8.88 8.88 l -2.65,0.1 c -2.53,0.1 -2.66,0.1 -2.83,-0.65 z m 22.65,0.5 c -0.12,-0.12 -0.21,-6.01 -0.21,-13.08 v -12.861 h 2.73 2.74 l 0.1,4.762 0.1,4.759 3.79,0.1 3.8,0.1 v -4.848 -4.853 h 2.74 2.74 v 13.081 13.07 h -2.74 -2.74 v -5.65 -5.65 h -3.88 -3.87 v 5.65 5.65 h -2.53 c -1.39,0 -2.63,-0.1 -2.75,-0.21 z m -89.49,-3.66 c -0.11,-0.18 0,-0.32 0.14,-0.32 0.19,0 0.34,0.14 0.34,0.32 0,0.18 -0.1,0.32 -0.14,0.32 -0.1,0 -0.23,-0.14 -0.34,-0.32 z m 3.06,0 c 0,-0.18 0.16,-0.32 0.35,-0.32 0.18,0 0.25,0.14 0.14,0.32 -0.11,0.18 -0.27,0.32 -0.34,0.32 -0.1,0 -0.15,-0.14 -0.15,-0.32 z m -4.52,-0.99 c 0,-0.19 0.15,-0.25 0.33,-0.14 0.17,0.11 0.32,0.26 0.32,0.34 0,0.1 -0.15,0.14 -0.32,0.14 -0.18,0 -0.33,-0.15 -0.33,-0.34 z m 69.68,-15.01 c -1.08,-0.592 -1.55,-1.406 -1.55,-2.73 0,-1.362 0.48,-2.153 1.65,-2.76 1.3,-0.675 2.64,-0.356 3.67,0.871 1.3,1.547 0.9,3.756 -0.84,4.659 -1.11,0.58 -1.81,0.56 -2.93,0 z m 1.93,-30.24 c -2.58,-0.685 -3.63,-3.455 -2.03,-5.357 0.79,-0.943 0.79,-0.956 0.16,-1.528 -0.99,-0.897 -0.78,-1.95 0.72,-3.574 l 1.35,-1.466 -0.84,-0.704 c -1.21,-1.017 -1.59,-1.97 -1.59,-3.93 0,-2.66 0.99,-4.175 3.41,-5.185 1.07,-0.443 2.06,-0.485 6.69,-0.291 l 5.44,0.233 v 1.049 c 0,1.143 -0.41,1.443 -1.97,1.443 -0.93,0 -0.94,0 -0.42,0.811 0.4,0.604 0.5,1.311 0.39,2.79 -0.13,1.779 -0.26,2.092 -1.3,3.045 -1.4,1.285 -3.37,1.866 -5.65,1.675 -1.49,-0.122 -1.76,-0.05 -2.18,0.598 -0.47,0.713 -0.45,0.746 0.56,0.897 0.58,0.09 2.34,0.243 3.92,0.343 3.9,0.252 5.51,0.975 6.03,2.699 0.85,2.845 -0.91,5.69 -4,6.468 -1.76,0.445 -7,0.432 -8.69,0 z m 7.35,-2.664 c 0.85,-0.352 1.12,-0.662 1.12,-1.256 0,-0.995 -0.23,-1.076 -3.83,-1.357 -3.21,-0.251 -3.92,-0.03 -3.92,1.305 0,1.256 0.92,1.676 3.81,1.737 0.93,0.03 2.2,-0.171 2.82,-0.429 z m -0.59,-12.18 c 0.97,-0.911 1.01,-2.767 0.1,-3.759 -0.88,-0.952 -3.25,-0.988 -4.18,-0.06 -0.94,0.943 -0.9,3.336 0.1,4.017 1.07,0.749 3.13,0.646 4.03,-0.197 z m 7.85,6.997 c 0,-0.965 0.11,-1.13 0.74,-1.13 1.37,0 1.52,-0.5 1.52,-5.399 v -4.62 l -1.07,-0.507 c -0.94,-0.453 -1.05,-0.627 -0.93,-1.608 l 0.13,-1.105 h 3.19 3.18 l 0.1,6.539 0.1,6.539 0.89,0.103 c 0.77,0.09 0.88,0.239 0.88,1.211 v 1.107 h -4.35 -4.36 z m 13.07,0.824 c -0.35,-0.146 -0.93,-0.585 -1.29,-0.979 -0.57,-0.639 -0.66,-1.304 -0.81,-6.093 l -0.16,-5.376 -1.22,-0.1 c -1.23,-0.104 -1.23,-0.107 -1.13,-1.434 0.1,-1.159 0.21,-1.363 1.02,-1.576 1.38,-0.365 2.35,-1.446 2.76,-3.051 0.36,-1.421 0.36,-1.427 1.81,-1.427 h 1.44 v 2.26 2.26 h 2.27 2.26 v 1.453 1.453 h -2.26 -2.27 v 4.508 c 0,5.215 0.12,5.409 2.93,5.076 1.41,-0.168 1.55,-0.123 1.72,0.578 0.11,0.417 0.28,0.972 0.38,1.233 0.41,1.066 -5.47,2.025 -7.45,1.215 z m -10.41,-18.112 c -0.93,-0.371 -1.47,-1.769 -1.22,-3.129 0.24,-1.246 0.96,-1.701 2.71,-1.701 1.01,0 1.44,0.184 1.96,0.849 0.79,1.007 0.84,1.76 0.2,3 -0.64,1.227 -2.08,1.614 -3.65,0.981 z"
                 id="path908" />
            <path
                 style="fill:#352600;stroke-width:0.322896"
                 d="m 106.24,122.22 c -1.79,-0.66 -4.49,-2.55 -6.272,-4.37 -7.404,-7.61 -7.313,-19.603 0.202,-27.12 10.03,-10.036 26.78,-6.293 31.84,7.113 0.81,2.151 0.91,2.857 0.93,6.297 0,3.27 -0.11,4.25 -0.78,6.3 -1.56,4.77 -5.39,9.15 -9.91,11.32 -3.3,1.58 -3.34,1.55 -3.35,-2.52 0,-2.14 -0.19,-3.97 -0.48,-4.75 -0.24,-0.71 -0.42,-1.3 -0.38,-1.31 0,0 0.79,-0.21 1.68,-0.43 4.09,-1.02 6.28,-3.85 6.55,-8.45 0.13,-2.24 0,-2.72 -0.74,-4.403 -0.67,-1.437 -0.87,-2.322 -0.82,-3.675 0,-0.981 -0.11,-2.199 -0.3,-2.702 -0.31,-0.804 -0.47,-0.898 -1.32,-0.727 -0.53,0.107 -1.76,0.572 -2.73,1.03 -1.69,0.798 -1.89,0.824 -4.08,0.485 -1.64,-0.256 -3.01,-0.262 -4.78,-0.03 -2.35,0.323 -2.59,0.297 -4.26,-0.468 -0.98,-0.446 -2.22,-0.901 -2.77,-1.011 -1.23,-0.248 -1.5,0.356 -1.53,3.42 0,1.66 -0.18,2.37 -0.82,3.39 -0.71,1.131 -0.81,1.641 -0.8,4.191 0,2.49 0.14,3.14 0.86,4.52 0.46,0.89 1.18,1.93 1.6,2.31 1.09,0.98 3.23,2 4.74,2.24 l 1.3,0.21 -0.54,1.18 c -0.7,1.5 -0.91,1.64 -2.57,1.65 -1.26,0 -1.53,-0.16 -3.23,-1.92 -1.87,-1.94 -3.06,-2.54 -3.941,-1.97 -0.401,0.26 -0.281,0.5 0.681,1.38 0.64,0.58 1.47,1.68 1.86,2.43 0.94,1.85 2.01,2.47 4.54,2.67 l 2.12,0.16 0.1,1.26 c 0.22,2.73 -0.26,3.14 -2.6,2.28 z m 51.58,-1.76 c -3.69,-0.8 -6.3,-2.98 -7.6,-6.34 -1.03,-2.67 -1.28,-8.85 -0.48,-12.18 0.91,-3.838 2.79,-6.415 5.66,-7.755 1.25,-0.585 2.06,-0.681 5.81,-0.685 3.45,0 4.62,0.11 5.61,0.552 1.37,0.614 1.37,0.646 0.5,3.882 -0.27,1.001 -0.45,1.207 -0.88,1.017 -0.3,-0.133 -2,-0.3 -3.78,-0.375 -2.94,-0.126 -3.36,-0.07 -4.67,0.636 -1.06,0.569 -1.66,1.198 -2.26,2.358 -0.74,1.43 -0.82,1.95 -0.82,5.47 0,3.5 0.1,4.04 0.81,5.48 1.23,2.43 2.11,2.92 5.27,2.92 h 2.64 l 0.1,-2.65 0.1,-2.64 -1.87,-0.1 -1.87,-0.1 -0.1,-2.32 -0.1,-2.32 4.54,-0.1 4.54,-0.1 -0.1,6.94 -0.1,6.94 -1.94,0.77 c -2.14,0.86 -6.7,1.21 -9.04,0.7 z m 28.66,0 c -1.48,-0.35 -2.57,-1.15 -3.23,-2.35 -0.45,-0.83 -0.6,-2.1 -0.73,-6.06 l -0.16,-5 -1.37,-0.1 -1.38,-0.1 v -1.72 -1.72 l 1.46,-0.36 1.45,-0.37 v -2.58 -2.576 h 2.57 2.57 l 0.1,2.506 0.1,2.5 2.02,0.1 2.01,0.1 v 2.07 2.07 l -2.01,0.1 -2.02,0.1 -0.1,3.54 c -0.13,4.94 0.35,5.82 3.08,5.72 h 1.05 v 2.04 2.05 l -1.49,0.21 c -1.78,0.24 -2.51,0.22 -3.91,-0.11 z m 33.21,0 c -3.3,-0.84 -3.88,-2.5 -3.9,-11.24 v -6.54 h 2.75 2.74 v 6.1 c 0,5.48 0.1,6.17 0.6,6.85 0.7,0.86 2.24,0.99 3.86,0.31 l 1.03,-0.42 v -6.42 -6.42 h 2.75 2.75 l -0.1,8.78 -0.1,8.77 -1.72,0.13 c -1.53,0.12 -1.74,0.1 -1.9,-0.54 -0.21,-0.81 0,-0.81 -1.84,0 -1.68,0.74 -5.25,1.07 -6.94,0.65 z m 22.73,0 c -0.54,-0.13 -1.47,-0.49 -2.07,-0.81 -1,-0.52 -1.12,-0.52 -1.39,-0.1 -0.21,0.38 -0.78,0.52 -2.21,0.52 h -1.92 v -12.92 -12.915 h 2.74 2.75 v 4.398 4.397 l 0.72,-0.21 c 5.22,-1.48 7.96,-0.75 9.6,2.55 0.66,1.33 0.83,2.21 0.93,4.96 0.27,7.16 -1.94,10.47 -6.89,10.35 -0.71,0 -1.73,-0.14 -2.26,-0.27 z m 2,-4.23 c 1.18,-0.41 1.66,-1.39 1.93,-3.89 0.23,-2.27 -0.35,-4.65 -1.31,-5.31 -0.77,-0.55 -2.68,-0.62 -3.89,-0.16 l -0.83,0.31 v 4.19 c 0,2.83 0.12,4.26 0.37,4.42 0.31,0.19 1.72,0.6 2.57,0.74 0.1,0 0.63,-0.12 1.16,-0.3 z m -72.23,-4.83 v -8.72 h 2.58 2.58 v 8.72 8.72 h -2.58 -2.58 z m 22.35,-4.12 0.1,-12.834 2.66,-0.09 2.67,-0.09 v 4.857 4.857 h 3.87 3.88 v -4.845 -4.843 h 2.74 2.74 v 12.918 12.92 h -2.74 -2.74 v -5.66 -5.66 l -3.8,0.1 -3.79,0.1 -0.1,5.57 -0.1,5.57 h -2.74 -2.74 z m -21.84,-7.532 c -0.47,-0.558 -0.84,-1.395 -0.84,-1.911 0,-0.517 0.37,-1.353 0.84,-1.912 2.06,-2.454 6.19,-0.05 4.97,2.893 -0.54,1.302 -1.49,1.922 -2.94,1.922 -0.94,0 -1.37,-0.21 -2.03,-0.992 z m 2.93,-29.477 c -1.91,-0.536 -2.76,-1.34 -2.99,-2.806 -0.14,-0.843 0,-1.385 0.59,-2.241 0.77,-1.123 0.77,-1.133 0.15,-1.982 -0.77,-1.059 -0.55,-1.854 0.99,-3.555 l 1.14,-1.269 -0.81,-0.875 c -1.22,-1.308 -1.55,-2.122 -1.53,-3.84 0,-2.399 0.81,-3.661 2.93,-4.724 l 1.81,-0.907 5.21,0.229 5.21,0.229 v 1.082 c 0,1.011 -0.1,1.082 -1.07,1.082 -1.41,0 -1.58,0.219 -1.01,1.317 1.14,2.219 0.19,5.109 -2.11,6.397 -1.08,0.607 -1.89,0.778 -3.78,0.807 -1.99,0.03 -2.49,0.145 -2.87,0.662 -0.25,0.346 -0.46,0.723 -0.46,0.84 0,0.116 1.56,0.3 3.47,0.406 6.06,0.343 7.69,1.292 7.65,4.456 -0.1,3.278 -2.47,4.86 -7.69,5.025 -2.09,0.07 -3.83,-0.05 -4.83,-0.333 z m 7.01,-2.447 c 1.08,-0.414 1.59,-1.379 1.08,-2.057 -0.28,-0.375 -1.27,-0.594 -3.55,-0.785 -1.74,-0.148 -3.28,-0.19 -3.42,-0.09 -0.15,0.1 -0.46,0.53 -0.68,0.963 -0.38,0.707 -0.33,0.859 0.45,1.533 0.73,0.624 1.23,0.746 3.09,0.746 1.22,0 2.59,-0.139 3.03,-0.306 z m -0.86,-11.812 c 0.68,-0.21 1.44,-2.079 1.23,-3.048 -0.32,-1.431 -1.3,-2.115 -3,-2.076 -1.18,0.03 -1.63,0.206 -2.23,0.907 -0.92,1.072 -0.96,2.418 -0.1,3.516 0.85,1.072 2.15,1.295 4.1,0.701 z m 8.49,6.49 c 0,-0.972 0.11,-1.123 0.89,-1.211 l 0.88,-0.103 0.1,-5.05 0.1,-5.053 -1,-0.346 c -0.87,-0.307 -0.98,-0.478 -0.89,-1.408 l 0.1,-1.059 2.98,-0.09 2.98,-0.09 0.1,6.548 0.1,6.552 1.04,0.1 c 0.97,0.09 1.05,0.197 1.05,1.211 v 1.111 h -4.19 -4.2 z m 12.66,0.643 c -1.68,-0.765 -2.01,-1.983 -2.01,-7.598 v -4.853 h -1.09 c -1.04,0 -1.1,-0.07 -1.22,-1.263 -0.11,-1.217 -0.1,-1.275 1.11,-1.634 1.35,-0.403 2.36,-1.701 2.69,-3.48 0.19,-0.969 0.3,-1.05 1.46,-1.05 h 1.25 v 2.26 2.261 h 2.26 2.26 v 1.453 1.453 h -2.26 -2.26 v 4.126 c 0,5.283 0.22,5.693 2.9,5.499 l 1.85,-0.135 0.32,1.227 c 0.33,1.22 0.33,1.227 -0.83,1.572 -2.04,0.611 -5.26,0.691 -6.43,0.162 z m -10.62,-18.195 c -0.6,-0.382 -1.09,-1.973 -0.88,-2.842 0.41,-1.611 2.76,-2.296 4.26,-1.243 0.93,0.655 1.01,3 0.12,3.807 -0.6,0.549 -2.8,0.723 -3.5,0.278 z"
                 id="path906" />
            <path
                 style="fill:#161415;stroke-width:0.322896"
                 d="m 106.15,122.15 c -4.47,-1.82 -8.965,-6.63 -10.667,-11.43 -0.839,-2.36 -1.172,-6.12 -0.804,-9.08 1.024,-8.214 8.271,-15.453 16.401,-16.38 6.75,-0.772 12.4,1.233 16.83,5.974 3.6,3.849 5.4,8.766 5.13,14.036 -0.38,7.21 -4.47,13.46 -10.83,16.51 -3.08,1.47 -3.11,1.45 -3.31,-3.11 -0.1,-2.13 -0.36,-4.19 -0.57,-4.58 -0.53,-0.95 -0.5,-1.07 0.24,-1.07 1.26,0 4.15,-1.33 5.28,-2.42 2.5,-2.43 3.25,-7.41 1.64,-10.819 -0.67,-1.411 -0.83,-2.209 -0.79,-3.875 0,-1.389 -0.1,-2.312 -0.41,-2.725 -0.42,-0.578 -0.58,-0.594 -1.87,-0.217 -0.78,0.226 -1.9,0.698 -2.5,1.043 -0.99,0.575 -1.31,0.601 -3.58,0.265 -1.87,-0.271 -3.11,-0.268 -4.94,0 -2.34,0.355 -2.52,0.336 -4.03,-0.426 -0.86,-0.439 -2.1,-0.898 -2.75,-1.021 -1.16,-0.216 -1.17,-0.206 -1.54,1.163 -0.21,0.759 -0.28,1.992 -0.17,2.741 0.17,1.127 0.1,1.566 -0.61,2.558 -1,1.483 -1.28,2.883 -1.07,5.453 0.17,2.16 1.28,4.74 2.55,5.9 1.13,1.04 3.32,2.09 4.77,2.28 l 1.27,0.17 -0.54,1.17 c -0.68,1.48 -0.93,1.65 -2.32,1.64 -1.47,0 -2.24,-0.47 -3.85,-2.3 -1.37,-1.56 -3,-2.26 -3.671,-1.59 -0.259,0.26 -0.04,0.64 0.791,1.41 0.63,0.57 1.44,1.63 1.81,2.34 0.36,0.71 0.93,1.53 1.26,1.83 0.75,0.68 3.17,1.25 4.33,1.02 0.81,-0.16 0.88,-0.1 1.09,1.32 0.41,2.75 -0.12,3.21 -2.57,2.21 z m 51.83,-1.69 c -2.44,-0.46 -4.33,-1.47 -5.74,-3.08 -2.06,-2.33 -2.72,-4.43 -2.9,-9.14 -0.29,-7.46 1.45,-11.556 5.89,-13.903 1.52,-0.801 1.88,-0.853 5.98,-0.84 3.34,0 4.64,0.136 5.57,0.549 1.38,0.614 1.4,0.672 0.68,3.229 -0.43,1.521 -0.64,1.847 -1.05,1.666 -0.29,-0.126 -1.97,-0.29 -3.75,-0.365 -2.94,-0.126 -3.36,-0.07 -4.67,0.636 -2.12,1.138 -2.96,2.948 -3.17,6.828 -0.18,3.54 0.3,6.01 1.47,7.58 1.11,1.49 2.57,2.03 5.18,1.91 l 2.16,-0.1 v -2.74 -2.75 l -1.86,-0.1 -1.85,-0.1 v -2.25 -2.24 h 4.52 4.53 l -0.1,6.86 -0.1,6.86 -1.9,0.75 c -2.11,0.84 -6.44,1.19 -8.92,0.72 z m 28.74,0 c -0.63,-0.12 -1.54,-0.49 -2.04,-0.82 -1.68,-1.1 -1.97,-2.13 -2.15,-7.6 l -0.17,-5 -1.37,-0.1 -1.38,-0.1 v -1.72 -1.72 l 1.46,-0.37 1.45,-0.36 v -2.58 -2.579 h 2.57 2.57 l 0.1,2.499 0.1,2.51 2.02,0.1 2.01,0.1 v 2.07 2.06 l -2.01,0.1 -2.02,0.1 -0.1,3.54 c -0.1,2.11 0.1,3.89 0.28,4.41 0.41,1 1.91,1.67 3.08,1.37 0.75,-0.19 0.77,-0.14 0.77,1.9 v 2.09 l -1.49,0.2 c -1.7,0.24 -2.08,0.23 -3.67,-0.1 z m 33.05,0 c -0.56,-0.14 -1.46,-0.58 -2.01,-0.97 -1.64,-1.17 -1.98,-2.99 -1.98,-10.42 v -6.4 h 2.74 2.75 v 6.15 c 0,6.09 0,6.15 0.79,6.94 0.93,0.93 1.62,0.98 3.4,0.27 l 1.3,-0.52 v -6.42 -6.42 h 2.74 2.75 v 8.69 8.68 l -1.83,0.12 c -1.53,0.1 -1.86,0 -1.98,-0.46 -0.18,-0.69 0,-0.7 -1.81,0.1 -1.66,0.73 -5.25,1.08 -6.86,0.66 z m 22.77,0 c -0.64,-0.13 -1.68,-0.55 -2.31,-0.92 -1.11,-0.66 -1.15,-0.66 -1.3,-0.1 -0.14,0.53 -0.47,0.62 -2.14,0.62 h -1.96 v -12.92 -12.911 h 2.74 2.75 v 4.398 4.393 l 0.72,-0.21 c 5.22,-1.48 7.96,-0.75 9.61,2.56 0.66,1.34 0.82,2.19 0.92,5.05 0.17,5.07 -0.92,8.31 -3.2,9.49 -1.12,0.58 -4.22,0.85 -5.83,0.51 z m 2.08,-4.27 c 1.4,-0.64 2.15,-3.54 1.69,-6.59 -0.4,-2.67 -2.48,-3.77 -5.17,-2.74 l -0.84,0.32 0.1,4.28 0.1,4.28 1.13,0.39 c 1.45,0.49 2.04,0.5 3.01,0.1 z m -72.43,-4.81 v -8.72 h 2.58 2.58 v 8.72 8.72 h -2.58 -2.58 z m 22.35,-4.11 0.1,-12.84 2.66,-0.09 2.67,-0.09 v 4.856 4.864 h 3.87 3.88 v -4.851 -4.843 h 2.74 2.74 v 12.914 12.92 h -2.74 -2.74 v -5.66 -5.66 l -3.8,0.1 -3.79,0.1 -0.1,5.57 -0.1,5.57 h -2.74 -2.74 z m -21.84,-7.538 c -0.47,-0.558 -0.84,-1.395 -0.84,-1.911 0,-0.517 0.37,-1.353 0.84,-1.912 1.5,-1.789 4.22,-1.195 4.97,1.085 0.99,2.993 -2.94,5.156 -4.97,2.738 z"
                 id="path904" />
            <path
                 style="fill:#0f0d0e;stroke-width:0.322896"
                 d="m 159.18,120.52 c -1.05,-0.1 -1.78,-0.24 -1.68,-0.41 0.1,-0.17 0,-0.23 -0.25,-0.13 -0.69,0.26 -3.18,-0.95 -4.44,-2.16 -2.34,-2.26 -3.54,-5.86 -3.54,-10.61 0,-4.71 1.45,-9.218 3.6,-11.156 1.43,-1.298 3.87,-2.286 6.24,-2.531 2.3,-0.239 6.93,0.242 8.01,0.833 0.76,0.417 0.77,0.433 0.31,2.457 -0.45,2.002 -0.48,2.035 -1.38,1.838 -0.51,-0.113 -2.3,-0.21 -3.98,-0.22 -2.62,0 -3.25,0.09 -4.38,0.726 -0.73,0.407 -1.33,0.863 -1.33,1.013 0,0.16 -0.28,0.68 -0.63,1.16 -1.43,1.96 -1.4,9.15 0,11.71 1.13,2.01 2.29,2.56 5.4,2.56 h 2.62 v -2.9 -2.91 h -1.94 -1.93 v -2.26 -2.26 h 4.52 4.53 l -0.1,6.81 -0.1,6.81 -1.78,0.73 c -1.87,0.75 -4.69,1.08 -7.84,0.9 z m 61.44,0 c -2.18,-0.3 -3.46,-1.21 -4.12,-2.92 -0.47,-1.22 -0.56,-2.55 -0.56,-8.08 v -6.62 h 2.58 2.59 l 0.16,6.4 c 0.15,5.93 0.21,6.44 0.8,6.88 1.12,0.81 1.93,0.83 3.41,0.1 l 1.44,-0.75 0.1,-6.37 0.1,-6.37 h 2.42 2.41 v 8.71 8.72 h -1.77 c -1.37,0 -1.78,-0.11 -1.78,-0.48 0,-0.63 -0.3,-0.61 -1.99,0.11 -1.7,0.72 -3.81,0.98 -5.76,0.72 z m -34.36,-0.38 c 0.15,-0.25 0.1,-0.31 -0.14,-0.16 -0.6,0.37 -2.19,-0.78 -2.82,-2.03 -0.46,-0.92 -0.63,-2.24 -0.76,-6.17 l -0.18,-5.01 h -1.29 -1.3 v -1.59 -1.59 l 1.38,-0.3 1.37,-0.31 v -2.68 -2.683 h 2.58 2.59 v 2.583 2.58 h 2.09 2.1 v 2.02 2.02 h -2.01 -2.02 v 4.35 4.34 l 1.11,0.75 c 0.81,0.55 1.37,0.7 2.04,0.55 l 0.92,-0.2 -0.1,1.89 -0.1,1.88 -2.85,0.1 c -2.15,0.1 -2.8,0 -2.61,-0.3 z m 54.27,-0.49 c -1.54,-0.8 -1.56,-0.8 -1.73,-0.14 -0.15,0.57 -0.43,0.66 -1.91,0.66 h -1.74 v -12.91 -12.919 h 2.39 2.39 v 4.279 c 0,2.35 0.15,4.38 0.27,4.5 0.13,0.12 1.28,-0.1 2.56,-0.46 2.27,-0.68 2.38,-0.68 4.12,-0.13 2.05,0.65 2.87,1.38 3.84,3.44 0.93,1.97 0.98,7.66 0.1,10.33 -1.08,3.23 -2.53,4.2 -6.25,4.18 -2.04,0 -2.81,-0.17 -4.08,-0.83 z m 4.2,-3.25 c 1.16,-0.77 1.72,-2.3 1.72,-4.69 0,-2.33 -0.44,-4.21 -1.12,-4.78 -0.58,-0.47 -3.8,-0.47 -4.69,0 -0.59,0.32 -0.65,0.68 -0.65,4.52 v 4.18 l 1.38,0.63 c 1.73,0.8 2.32,0.82 3.36,0.14 z m -72.54,-4.95 v -8.71 h 2.59 2.59 v 8.71 8.72 h -2.57 -2.56 v -8.72 z m 22.6,-4.19 v -12.919 h 2.57 2.58 l 0.1,4.925 0.1,4.924 3.78,0.1 3.79,0.1 0.1,-4.933 0.1,-4.934 h 2.58 2.58 l 0.1,12.837 0.1,12.83 h -2.75 -2.74 v -5.65 -5.65 h -3.88 -3.87 v 5.65 5.65 h -2.59 -2.58 z m -21.72,-7.21 c -0.73,-0.6 -0.88,-0.988 -0.88,-2.189 0,-1.243 0.14,-1.566 0.95,-2.167 1.38,-1.023 2.68,-0.923 3.7,0.288 2.35,2.786 -0.96,6.358 -3.77,4.068 z"
                 id="path902" />
        </g>
    </g>
</svg>
