<?xml version="1.0" encoding="UTF-8" standalone="no"?>
<!-- Created with Inkscape (http://www.inkscape.org/) -->

<svg
     width="300"
     height="150"
     viewBox="0 0 300 150"
     version="1.1"
     id="svg5"
     sodipodi:docname="numpy.svg"
     inkscape:version="1.1 (c68e22c387, 2021-05-23)"
     inkscape:export-filename="C:\Program Files\XAMPP\htdocs\koko-campus.org\pics\subjects\numpy.png"
     inkscape:export-xdpi="96"
     inkscape:export-ydpi="96"
     xmlns:inkscape="http://www.inkscape.org/namespaces/inkscape"
     xmlns:sodipodi="http://sodipodi.sourceforge.net/DTD/sodipodi-0.dtd"
     xmlns="http://www.w3.org/2000/svg"
     xmlns:svg="http://www.w3.org/2000/svg">
    <sodipodi:namedview
         id="namedview7"
         pagecolor="#ffffff"
         bordercolor="#666666"
         borderopacity="1.0"
         inkscape:pageshadow="2"
         inkscape:pageopacity="0.0"
         inkscape:pagecheckerboard="0"
         inkscape:document-units="px"
         showgrid="false"
         units="px"
         width="600px"
         inkscape:zoom="1.50019640780844"
         inkscape:cx="267.298333680054"
         inkscape:cy="118.317840968104"
         inkscape:window-width="1920"
         inkscape:window-height="1009"
         inkscape:window-x="-8"
         inkscape:window-y="-8"
         inkscape:window-maximized="1"
         inkscape:current-layer="layer1" />
    <defs
         id="defs2" />
    <g
         inkscape:label="レイヤー 1"
         inkscape:groupmode="layer"
         id="layer1">
        <g
             id="g7742"
             transform="matrix(2.09561159047638,0,0,2.09561159047638,-253.557614622967,-100.871580720584)"
             style="opacity:0.364549">
            <g
                 id="g1624"
                 transform="matrix(0.869680556933201,0,0,0.869680556933201,2.78384897164509,7.75214248997119)">
                <path
                     style="fill:#fde36a;stroke-width:0.19015"
                     d="m 267.715466138793,124.716524241086 c -2.317232523554,-0.58917610497 -3.699132572743,-1.425998590701 -4.101201999758,-2.483521188048 -0.09744089507,-0.256288942941 -0.175286033678,-2.022013340489 -0.172989196915,-3.923831994552 0.0048440847,-4.010981906792 0.183649590662,-4.687212572719 1.447030831974,-5.472575455757 0.702102409759,-0.436451923367 0.921227029542,-0.461540755728 4.823731754339,-0.552296667793 3.421996061365,-0.07958129343 4.188026783381,-0.149633143327 4.700688989054,-0.42986782383 1.536576359273,-0.839933157435 2.134724775844,-2.061481686653 2.140522565728,-4.371410371551 l 0.0041760668,-1.663809275627 h 1.63447090985 c 2.469136233376,0 3.149206878906,0.576004828547 3.868560737028,3.276585570487 0.743310839959,2.790519459933 0.345602375452,6.13756746113 -0.944584821047,7.949468063655 -0.776386933138,1.090334763638 -1.022974510819,1.133672413374 -6.450500569371,1.133672413374 -4.826567440646,0 -4.953333878084,0.0097326738 -4.953333878084,0.380299263001 0,0.364453460375 0.126766437438,0.380299263 3.0423944985,0.380299263 h 3.042394498499 l -0.0012529352,1.568734459877 c -0.0017594212,2.202878956747 -0.586855793687,2.994765490401 -2.79541157338,3.783391736599 -1.082504961961,0.386538493838 -4.389707746931,0.652420362113 -5.284695878017,0.424862007165 z m 6.286323866711,-2.440059312843 c 0.473066694756,-0.721990940584 -0.05740417221,-1.815731838796 -0.880640784556,-1.815731838796 -0.491478752948,0 -1.12731581864,0.661865166252 -1.12731581864,1.173462687191 0,1.055532688284 1.43617904751,1.514911888477 2.007956603196,0.642269151605 z m -14.941099883622,-4.449610607333 c -1.283912491981,-0.682271736035 -2.018972319718,-2.365588790521 -2.21789526075,-5.079070813838 -0.188669733932,-2.573619355879 0.320951019896,-4.652764815676 1.434433656709,-5.852187538129 1.047914243004,-1.128793671933 1.218688209365,-1.161492065649 6.443380536492,-1.233725480146 3.976257615067,-0.05497331641 4.801278817944,-0.112506406376 4.801278817944,-0.334818554015 0,-0.219967283271 -0.549361592274,-0.268438996855 -3.042394498499,-0.268438996855 h -3.0423944985 v -1.717454029331 c 0,-2.235579199894 0.280825102334,-2.929556759808 1.382713542254,-3.4169743450272 2.120202558069,-0.9378662790093 7.040031570622,-1.0074950759823 8.963594517107,-0.1268589418835 0.74347766002,0.3403752882147 1.175523503194,0.6938732139387 1.525350268315,1.2480345879277 0.48168113664,0.763032183694 0.488069322478,0.822609302016 0.488069322478,4.551803048364 0,3.60557645473 -0.01959635318,3.807444335069 -0.427836726351,4.407273756725 -0.989151381678,1.453364586622 -1.988271893876,1.764249459401 -5.120403662868,1.593257291664 -1.221341773567,-0.06667659371 -2.871841901633,-0.06020582526 -3.667778062369,0.01437948544 -1.213367480946,0.113701820608 -1.576516581105,0.23315455275 -2.247895513185,0.739413261667 -1.248779533965,0.941652298544 -1.656412310006,1.941117842943 -1.656412310006,4.061319718328 v 1.766130739643 h -1.476626497014 c -1.071862701586,0 -1.658242593629,-0.09651088396 -2.139183631757,-0.352083190534 z m 7.83166746662,-14.794283341558 c 0.485709827603,-0.439561295781 0.446905307803,-1.305624939203 -0.07487438809,-1.671093616936 -0.568791252337,-0.398396849351 -1.022031752787,-0.372563374541 -1.478887763574,0.08429257701 -1.038201314989,1.038201180369 0.46435151213,2.5727039909 1.553762151664,1.586801039926 z"
                     id="path7756"
                     sodipodi:nodetypes="cccscsccssssssccscsssssssssscssssscscsscsssscs" />
                <path
                     style="fill:#fdd950;stroke-width:0.19015"
                     d="m 268.190840279184,124.710704065886 c -1.103189960006,-0.220445960177 -2.427306534423,-0.671532558521 -3.137469326578,-1.068841213286 -0.930294288669,-0.52046372529 -1.624774087247,-1.776390939815 -1.597317954782,-2.888658667637 0.0164238599,-0.665342409625 0.03927744559,-0.704385561647 0.17119553361,-0.292471095516 0.08373277609,0.261455743313 0.16077076621,0.363364984152 0.171195533611,0.226464979643 0.0104247674,-0.13690000451 0.105125814498,-0.195652071519 0.210446771329,-0.130560148911 0.10532095683,0.06509192261 0.242826722684,-0.01542548469 0.305568368562,-0.178927571767 0.06274164588,-0.163502087081 0.247533213949,-0.297276521965 0.410647929045,-0.297276521965 0.163114715096,0 0.240034381343,-0.05653782059 0.17093259166,-0.125639601315 -0.128872759542,-0.128872742831 0.0046051091,-0.223574447505 1.374235822231,-0.97501163517 0.473467748955,-0.259764380516 0.740235123297,-0.520662939424 0.661928292868,-0.64736603618 -0.07514085812,-0.121580446624 -0.04565604982,-0.15938759979 0.06902653279,-0.08850987501 0.110108439466,0.06805074921 0.46995544586,-0.128263299142 0.79966001421,-0.436253440791 0.329704568349,-0.307990141649 0.766240798697,-0.612915333009 0.970080511885,-0.677611536356 0.203839713187,-0.06469620335 0.370617660341,-0.20248053836 0.370617660341,-0.306187411139 0,-0.10370687278 0.08556734527,-0.135674429662 0.190149656156,-0.07103901529 0.104582310886,0.06463541437 0.190149656156,0.02690167416 0.190149656156,-0.08385275602 0,-0.110754430178 0.06417550895,-0.180277290492 0.142612242117,-0.154495245141 0.146589782334,0.04818385804 1.614210650065,-0.990374993242 2.417424934777,-1.710685721719 0.145773885871,-0.130727871657 0.35672272736,-0.237687039376 0.468775203309,-0.237687039376 0.112052475949,0 0.203731774453,-0.133400928142 0.203731774453,-0.296446506983 0,-0.16304557884 0.0893302612,-0.241237376496 0.198511691555,-0.173759550345 0.250024079891,0.154523359342 1.132535901538,-0.409434371002 1.132535901538,-0.723732374908 0,-0.128932783917 0.278093872129,-0.357008425726 0.617986382508,-0.506834759575 0.690486720971,-0.304370031158 3.202813778277,-2.044627996007 3.419782092003,-2.368840874579 0.07683528782,-0.114813953301 0.141010796772,-0.142604559703 0.142612242117,-0.06175690312 0.0054053892,0.272886644836 0.95365999959,-0.473395073404 0.95365999959,-0.750535789953 0,-0.151017575782 0.08541723129,-0.221786665198 0.189816069526,-0.157264643146 0.230427062229,0.142411737919 1.000375854206,-0.362490719998 0.823105797499,-0.539760753719 -0.06905624273,-0.06905623378 0.01280358605,-0.125556788683 0.181910730621,-0.125556788683 0.169107144572,0 0.394684741433,-0.149742834806 0.501283548582,-0.332761855125 0.106598807149,-0.183019020319 0.196418003524,-0.25810908661 0.199598214166,-0.16686681398 0.0031802106,0.09124227263 0.126787852944,0.06546928285 0.274683649559,-0.05727331062 0.451879656166,-0.3750267567 0.930301655592,1.622545901909 0.930349177153,3.884520530977 4.9161055e-5,2.340012743709 -0.594158343509,4.185811743384 -1.668075566078,5.181577458382 -0.783916739628,0.726869256148 -0.432450493129,0.69272814597 -6.424100095129,0.624031215886 l -4.706203989866,-0.05395872388 v 0.499330983935 0.499330983934 h 3.137469326578 3.137469326577 v 1.337154766331 c 0,2.280083569862 -0.614932754323,3.139527567371 -2.786736478786,3.894806257262 -1.293779767175,0.449932135466 -3.840217327394,0.734843073087 -4.819249767463,0.539207004855 z m 5.384228501303,-1.996641558891 c 0.53622807381,-0.282248400789 0.694063385951,-0.530536376524 0.697648776886,-1.097459118861 0.0055443865,-0.876679512579 -1.102691812319,-1.491029296313 -1.822581264567,-1.01034635663 -0.715639431078,0.47784512526 -0.683645687407,1.684816731886 0.05606701419,2.115141475712 0.442872796531,0.257639381211 0.567072933715,0.256786951924 1.068865473491,-0.0073360002 z m -14.514378658605,-4.887208186085 c -1.28391249198,-0.682271736035 -2.018972319718,-2.365588790521 -2.21789526075,-5.079070813838 -0.188669733932,-2.573619355879 0.320951019896,-4.652764815676 1.434433656709,-5.852187538129 1.047914243004,-1.128793671933 1.218688209365,-1.161492065649 6.443380536492,-1.233725480146 3.976257615067,-0.05497331641 4.801278817944,-0.112506406376 4.801278817944,-0.334818554015 0,-0.219967283271 -0.549361592274,-0.268438996855 -3.042394498499,-0.268438996855 h -3.0423944985 v -1.717454029331 c 0,-2.235579199894 0.280825102334,-2.929556759808 1.382713542254,-3.4169743450272 2.120202558069,-0.9378662790093 7.040031570622,-1.0074950759823 8.963594517107,-0.1268589418835 0.74347766002,0.3403752882147 1.175523503194,0.6938732139387 1.525350268315,1.2480345879277 0.48168113664,0.763032183694 0.488069322478,0.822609302016 0.488069322478,4.551803048364 0,3.60557645473 -0.01959635318,3.807444335069 -0.427836726351,4.407273756725 -0.989151381678,1.453364586622 -1.988271893876,1.764249459401 -5.120403662868,1.593257291664 -1.221341773567,-0.06667659371 -2.871841901633,-0.06020582526 -3.667778062369,0.01437948544 -1.213367480946,0.113701820608 -1.576516581105,0.23315455275 -2.247895513185,0.739413261667 -1.248779533965,0.941652298544 -1.656412310006,1.941117842943 -1.656412310006,4.061319718328 v 1.766130739643 h -1.476626497014 c -1.071862701586,0 -1.658242593629,-0.09651088396 -2.139183631757,-0.352083190534 z m 7.83166746662,-14.794283341558 c 0.485709827603,-0.439561295781 0.446905307803,-1.305624939203 -0.07487438809,-1.671093616936 -0.568791252337,-0.398396849351 -1.022031752787,-0.372563374541 -1.478887763574,0.08429257701 -1.038201314989,1.038201180369 0.46435151213,2.5727039909 1.553762151664,1.586801039926 z m 6.812822719212,9.251727955584 c 0.156873466329,-0.10137940705 0.370791829505,-0.184326194636 0.47537414039,-0.184326194636 0.104582310886,0 0.06179863825,0.08294678759 -0.09507482808,0.184326194636 -0.156873466329,0.101379407051 -0.370791829504,0.184326194637 -0.47537414039,0.184326194637 -0.104582310886,0 -0.06179863825,-0.08294678759 0.09507482808,-0.184326194637 z"
                     id="path7754"
                     sodipodi:nodetypes="csssssssccccssssssssssssscscssscsssscccccsscccsscsssssscssssscscsscsssscssscss" />
                <path
                     style="fill:#fed23a;stroke-width:0.19015"
                     d="m 268.180686694301,124.632263366918 c -0.580787181558,-0.08545467141 -1.470941183616,-0.318371713522 -1.978120004574,-0.517593426922 -0.9037737177,-0.355005653085 -0.91114722064,-0.364444575991 -0.370145727431,-0.473828655638 0.303598670872,-0.0613840472 0.723132273944,-0.271510051818 0.932296895716,-0.466946676923 0.209164621772,-0.195436625104 0.674189885587,-0.522188143041 1.033389475145,-0.726114484304 0.359199589557,-0.203926341262 0.811549179083,-0.523639027191 1.005221310057,-0.710472635396 0.193672130975,-0.186833608205 0.455969301957,-0.28007416482 0.582882602184,-0.207201236922 0.126913300226,0.0728729279 0.17370655811,0.06886334317 0.10398501752,-0.0089101883 -0.166051154022,-0.185228044894 0.565802086742,-0.915215880724 0.782985129701,-0.780989395799 0.09183532677,0.05675734595 0.1956734815,0.03100639878 0.230751454958,-0.05722432704 0.03507797346,-0.08823072582 0.429490417862,-0.423218897427 0.876472098677,-0.744418159124 0.499086456797,-0.358641546906 0.71921492742,-0.621594836977 0.570448968469,-0.681426771613 -0.133234748157,-0.05358546269 0.688598125776,-0.104183429839 1.826295275406,-0.112439926996 l 2.068540272055,-0.01501181301 -0.08642387506,1.492920995672 c -0.06669277254,1.152077945078 -0.184611694785,1.630813055214 -0.516494716552,2.0968997198 -0.989068178365,1.389017991482 -4.379856906548,2.30740902933 -7.062084176271,1.912756982515 z m 5.677054509684,-2.032346923093 c 0.596438065927,-0.515723426111 0.668799072192,-1.059903014412 0.21726820387,-1.633931420168 -0.485500620135,-0.617213941551 -1.342159843043,-0.673819106388 -1.891026349391,-0.12495267121 -0.508710567832,0.50871050187 -0.479437396711,1.059046047595 0.08643166189,1.624915032821 0.550437383112,0.550437311739 1.056301267835,0.593131810377 1.587326483631,0.133969058557 z m -14.797051082103,-4.773062122915 c -1.283912491981,-0.682271736035 -2.018972319718,-2.365588790521 -2.21789526075,-5.079070813838 -0.188669733932,-2.573619355879 0.320951019896,-4.652764815676 1.434433656709,-5.852187538129 1.047914243004,-1.128793671933 1.218688209365,-1.161492065649 6.443380536492,-1.233725480146 3.976257615067,-0.05497331641 4.801278817944,-0.112506406376 4.801278817944,-0.334818554015 0,-0.219967283271 -0.549361592274,-0.268438996855 -3.042394498499,-0.268438996855 h -3.0423944985 v -1.717454029331 c 0,-2.235579199894 0.280825102334,-2.929556759808 1.382713542254,-3.4169743450272 2.120202558069,-0.9378662790093 7.040031570622,-1.0074950759823 8.963594517107,-0.1268589418835 0.74347766002,0.3403752882147 1.175523503194,0.6938732139387 1.525350268315,1.2480345879277 0.48168113664,0.763032183694 0.488069322478,0.822609302016 0.488069322478,4.551803048364 0,3.60557645473 -0.01959635318,3.807444335069 -0.427836726351,4.407273756725 -0.989151381678,1.453364586622 -1.988271893876,1.764249459401 -5.120403662868,1.593257291664 -1.221341773567,-0.06667659371 -2.871841901633,-0.06020582526 -3.667778062369,0.01437948544 -1.213367480946,0.113701820608 -1.576516581105,0.23315455275 -2.247895513185,0.739413261667 -1.248779533965,0.941652298544 -1.656412310006,1.941117842943 -1.656412310006,4.061319718328 v 1.766130739643 h -1.476626497014 c -1.071862701586,0 -1.658242593629,-0.09651088396 -2.139183631757,-0.352083190534 z m 7.83166746662,-14.794283341558 c 0.485709827603,-0.439561295781 0.446905307803,-1.305624939203 -0.07487438809,-1.671093616936 -0.568791252337,-0.398396849351 -1.022031752787,-0.372563374541 -1.478887763574,0.08429257701 -1.038201314989,1.038201180369 0.46435151213,2.5727039909 1.553762151664,1.586801039926 z m 7.611586587953,14.685959800889 c 0.28244666148,-0.147352795822 0.701850191389,-0.443352355229 0.932007844244,-0.657776798681 0.230157652855,-0.214424443453 0.481381800456,-0.350980046592 0.558275883558,-0.303456895863 0.0768940831,0.04752315073 0.245547403009,-0.04100313542 0.37478515535,-0.196725080329 0.129237752341,-0.155721944909 0.337107178208,-0.283130808926 0.461932057481,-0.283130808926 0.124824879274,0 0.499400663748,-0.307733222072 0.832390632164,-0.683851604605 0.332989968416,-0.376118382533 0.605436306211,-0.594277934217 0.605436306211,-0.484799003743 0,0.109478930474 0.291303932933,-0.100893452607 0.647342073183,-0.467494184624 0.356038140251,-0.366600732017 0.820730600384,-0.67960774402 1.032649911407,-0.695571137784 0.211919311023,-0.01596339377 0.349186794235,-0.0874694216 0.305038851581,-0.158902284088 -0.04414794265,-0.07143286248 0.132914686741,-0.269561221316 0.393472509765,-0.440285241849 0.260557823024,-0.170724020533 0.473741496407,-0.252558429887 0.473741496407,-0.181854243009 0,0.07070418688 0.166593467009,-0.06353078936 0.370207704464,-0.298299947201 0.537939870609,-0.62024980163 0.832411084771,-0.323995198464 0.721760933285,0.726132092334 -0.13712162707,1.301355315023 -0.87870257329,3.076157676591 -1.578713731713,3.778285935695 l -0.616122911742,0.617986302376 -3.013872050076,-0.0011714627 c -2.709092095478,-0.0010529977 -2.961940014577,-0.02826447416 -2.500332665569,-0.269085637003 z"
                     id="path7752"
                     sodipodi:nodetypes="csssssscssssscsscssssssssssscssssscscsscsssscscssssssscssscsscsc" />
                <path
                     style="fill:#9e9e9e;stroke-width:0.19015"
                     d="m 259.060690121882,117.82685432091 c -1.28391249198,-0.682271736035 -2.018972319718,-2.365588790521 -2.21789526075,-5.079070813838 -0.188669733932,-2.573619355879 0.320951019896,-4.652764815676 1.434433656709,-5.852187538129 1.047914243004,-1.128793671933 1.218688209365,-1.161492065649 6.443380536492,-1.233725480146 3.976257615067,-0.05497331641 4.801278817944,-0.112506406376 4.801278817944,-0.334818554015 0,-0.219967283271 -0.549361592274,-0.268438996855 -3.042394498499,-0.268438996855 h -3.0423944985 v -1.717454029331 c 0,-2.235579199894 0.280825102334,-2.929556759808 1.382713542254,-3.4169743450272 2.120202558069,-0.9378662790093 7.040031570622,-1.0074950759823 8.963594517107,-0.1268589418835 0.74347766002,0.3403752882147 1.175523503194,0.6938732139387 1.525350268315,1.2480345879277 0.48168113664,0.763032183694 0.488069322478,0.822609302016 0.488069322478,4.551803048364 0,3.60557645473 -0.01959635318,3.807444335069 -0.427836726351,4.407273756725 -0.989151381678,1.453364586622 -1.988271893876,1.764249459401 -5.120403662868,1.593257291664 -1.221341773567,-0.06667659371 -2.871841901633,-0.06020582526 -3.667778062369,0.01437948544 -1.213367480946,0.113701820608 -1.576516581105,0.23315455275 -2.247895513185,0.739413261667 -1.248779533965,0.941652298544 -1.656412310006,1.941117842943 -1.656412310006,4.061319718328 v 1.766130739643 h -1.476626497014 c -1.071862701586,0 -1.658242593629,-0.09651088396 -2.139183631757,-0.352083190534 z m 7.83166746662,-14.794283341558 c 0.485709827603,-0.439561295781 0.446905307803,-1.305624939203 -0.07487438809,-1.671093616936 -0.568791252337,-0.398396849351 -1.022031752787,-0.372563374541 -1.478887763574,0.08429257701 -1.038201314989,1.038201180369 0.46435151213,2.5727039909 1.553762151664,1.586801039926 z"
                     id="path7750"
                     sodipodi:nodetypes="sssssscssssscscsscsssscs" />
                <path
                     style="fill:#4785b6;stroke-width:0.19015"
                     d="m 259.558867790341,117.985408564609 c -1.327223554396,-0.406636546498 -2.183922252368,-1.891214490917 -2.595353277533,-4.497502147393 -0.211195026161,-1.337854843527 -0.202669662992,-1.809610050026 0.0614011665,-3.397664053424 0.348996995073,-2.098778105338 0.83507821133,-3.013913379032 1.978403266678,-3.724699812243 0.703252484781,-0.4372005345 0.879854029816,-0.454217663707 5.669752694307,-0.546331087619 4.785433013264,-0.09202754601 4.943891060061,-0.107263894692 4.943891060061,-0.47537407875 0,-0.362553748146 -0.144182326888,-0.3827372421 -3.089931912538,-0.43254692458 l -3.089931912539,-0.05224766158 2.95492395e-4,-1.564024206173 c 3.77019725e-4,-1.995543669004 0.33796716056,-2.732503415941 1.520901756859,-3.3201306503327 1.711555862928,-0.8502218477555 6.948885478927,-0.9597454648617 8.765818660456,-0.18331177088 0.771037339276,0.3294889298177 1.590798770892,1.1640613081967 1.870465068105,1.9042594837477 0.115541220684,0.305805174249 0.202246672343,2.000578480203 0.202246672343,3.953180047446 0,3.836720953226 -0.163703684619,4.472314462296 -1.374280143977,5.335759797877 -0.595182731075,0.424514906922 -0.804525601044,0.447991781839 -4.8055836811,0.538924908232 -4.139170389333,0.09407204211 -4.192644248062,0.100572326109 -5.069955010461,0.616303895802 -1.400551079364,0.823321036915 -1.757629726181,1.576855593314 -1.870507439241,3.947287260203 l -0.09507482808,1.996571130753 -1.235972765015,0.0351215745 c -0.679785020759,0.01931686598 -1.483748211007,-0.04079220154 -1.78658486722,-0.133575705586 z m 7.224921317564,-14.783666252239 c 0.115071498327,-0.07683527786 0.316327286412,-0.342912457803 0.447235084633,-0.591282622103 0.512757560641,-0.972850214523 -1.069664012898,-2.004356328822 -1.909244460025,-1.244546565302 -0.447005599339,0.404534455143 -0.469818152857,1.168386065569 -0.04878829211,1.633618764651 0.317931208712,0.351309985681 1.12560316711,0.459411614157 1.510797667502,0.202210422754 z"
                     id="path7748"
                     sodipodi:nodetypes="cssscsscsssssscssccccsssc" />
                <path
                     style="fill:#3672a3;stroke-width:0.19015"
                     d="m 258.948659412211,117.627366331223 c -0.668786637183,-0.407816370777 -1.303449702567,-1.360521398973 -1.469302510947,-2.20559847653 -0.06157521549,-0.313746891976 -0.06491431295,-0.461923550435 -0.0074202166,-0.329281463243 0.06509704262,0.150182508263 0.402712760158,-0.136767507986 0.894894589911,-0.760598526001 0.89843683295,-1.138751433396 1.761915508386,-2.131730239269 2.301415066623,-2.646569567594 0.202739235883,-0.19347213623 0.313911680126,-0.351767520418 0.247049876096,-0.351767520418 -0.06686180403,0 0.366232056231,-0.501875225289 0.962430800579,-1.11527827842 1.215377531336,-1.250449276346 3.024463587229,-3.461150174244 3.194078816621,-3.903160319465 0.09304567841,-0.242473119741 -0.147855950269,-0.300321899413 -1.474808974742,-0.35415243934 -0.872311223115,-0.03538707344 0.14671833606,-0.08175696564 2.2645101315,-0.103044204902 l 3.850530537164,-0.03870407138 v -0.47537407875 c 0,-0.471722556667 -0.01351063346,-0.475489389975 -1.758884319445,-0.490385891764 -0.967386375695,-0.0082564972 -1.651392002822,-0.05834848708 -1.520012504728,-0.111315533165 0.131379498095,-0.05296704608 0.182334125122,-0.187783611702 0.113232504504,-0.299592368041 -0.07074122036,-0.114461684106 -0.03669646233,-0.148318951971 0.07791454905,-0.07748546063 0.195193190057,0.120636010185 1.376402865211,-0.898024838004 1.376402865211,-1.186993079737 0,-0.07697107722 0.256702035811,-0.385883539843 0.570448968468,-0.686472139163 0.313746932658,-0.300588599321 0.570448968469,-0.66391675854 0.570448968469,-0.807395909377 0,-0.143479150837 0.06986716419,-0.217690906773 0.155260364863,-0.164915013191 0.08539320067,0.05277589358 0.304149205536,-0.156092514977 0.486124455247,-0.464152019018 0.181975249712,-0.308059504042 0.45942739414,-0.560108189167 0.61656032095,-0.560108189167 0.157132926811,0 0.238804767764,-0.07587197076 0.181492979895,-0.16860437946 -0.05731178787,-0.0927324087 0.0365828008,-0.285258910598 0.208654641487,-0.427836670876 0.281522406682,-0.2332678842314 0.257506247569,-0.2722991748234 -0.239780708791,-0.3896938923187 -0.303951230521,-0.071753880497 0.131900161214,-0.085286274839 0.968558648302,-0.030071987426 1.820114797044,0.1201163235417 2.938704479697,0.5910560142087 3.665550804323,1.5432409119107 0.515948054814,0.675903460122 0.517947588108,0.690821956527 0.577194083864,4.306438852506 0.05747708013,3.507635335925 0.04450802055,3.656283248119 -0.390327573186,4.473830849603 -0.309525142881,0.581947618379 -0.707979973123,0.982184481602 -1.277795253732,1.283510012627 -0.786005111299,0.415649449235 -1.024654254021,0.437864930449 -4.703750923791,0.437864930449 -4.382724203702,0 -4.81482093095,0.106838314643 -5.937747592193,1.468141056208 -0.752276920907,0.911971075399 -0.9628463565,1.681436161487 -0.964171760546,3.523286770673 l -0.0010604522,1.473659644127 -1.473659835211,-7.10790808e-4 c -1.110381907228,-5.3557085e-4 -1.619194737123,-0.0894558587 -2.064031347015,-0.360710757919 z m -1.961637031284,-4.122940594158 c 0.0091241262,-0.221513479496 0.05418129993,-0.266570647382 0.114882083927,-0.114882069031 0.05492864793,0.137264265239 0.0481733312,0.301268322408 -0.01501181496,0.364453460375 -0.06318514616,0.06318513797 -0.108126767196,-0.04912198814 -0.09987026897,-0.249571391344 z m 10.259673654409,-10.699510449241 c 0.119753352946,-0.246001882969 0.175237357206,-0.609781128496 0.123297787243,-0.808398323393 -0.05193956996,-0.198617194897 -0.01684814102,-0.31317050329 0.07798095319,-0.254562907541 0.265868031799,0.164315458868 0.204537589307,0.731934313022 -0.123297787243,1.141132296977 -0.281498178164,0.351360759794 -0.285247027572,0.347602770918 -0.07798095319,-0.07817106604 z"
                     id="path7746"
                     sodipodi:nodetypes="cscssssssccsccscssssssssssssssssccscsssssscss" />
            </g>
        </g>
        <g
             id="g833"
             transform="translate(0,-8)">
            <path
                 style="fill:#d1daf0;stroke-width:0.902235"
                 d="m 50.1413050971814,119.070819826721 -5.8645273692572,-3.53608434062 -8.3297905327027,-15.6045518034654 -8.3297905327027,-15.6045518034649 -0.01588303124,11.5034963226318 c -0.00873566718,6.3269229774475 -0.2476178503634,11.5034963226315 -0.5308492959583,11.5034963226315 -0.283231445595,0 -2.9174514083043,-1.319518695831 -5.853822139354,-2.932263768514 l -5.338855874636,-2.932263768514 -0.010705229903,-23.6950115593148 -0.010705229904,-23.6950115593152 6.1150143267221,3.0794719206606 6.115014326722,3.0794719206606 7.6440691165353,16.3189709960994 7.6440691165354,16.3189709960995 0.2510194139451,-12.1692202114081 c 0.1380606776697,-6.6930711162744 0.4527005644085,-12.1692202114081 0.6991997483083,-12.1692202114081 0.2464991838999,0 3.2800849399761,1.4261243308728 6.7413016801694,3.1691651797172 l 6.2931213458059,3.1691651797172 v 23.8978849911812 c 0,13.1438367451495 -0.3045043057114,23.8835490140455 -0.6766762349143,23.8660272642135 -0.3721719292028,-0.01752174984 -3.31571355108,-1.623095680247 -6.5412036041713,-3.567942067588 z m 12.6312897184002,-6.572281815734 v -10.17208161029 l 8.5831636456826,-4.2636784808558 c 4.7207400051255,-2.3450231644708 8.9838002850855,-4.2636784808561 9.4734672888002,-4.2636784808561 0.5329365861988,0 0.8903036431176,4.0830641275125 0.8903036431176,10.1720816102889 v 10.172081610291 l -8.5831636456826,4.263678480855 c -4.7207400051255,2.345023164471 -8.9838002850855,4.263678480857 -9.4734672888002,4.263678480857 -0.5329365861988,0 -0.8903036431176,-4.083064127512 -0.8903036431176,-10.17208161029 z m 24.3603444569147,-11.923621514081 v -10.3666480503162 l 8.1201148189716,-4.0781665560259 8.1201148189711,-4.078166556026 v 10.6348050327134 10.6348050327137 l -7.6822572683216,3.810009573628 c -4.2252414975761,2.095505265495 -7.8792931661137,3.810009573628 -8.1201148189712,3.810009573628 -0.2408216528574,0 -0.4378575506499,-4.664991622642 -0.4378575506499,-10.366648050315 z m 172.3268811581737,4.522108597605 c 0,-0.237121180191 1.051729061356,-2.575563781782 2.337175691903,-5.1965391146469 l 2.337175691902,-4.7654096961169 -5.04388063156,-11.5647588523772 c -2.774134347357,-6.3606173688073 -5.043880631559,-11.7362840659223 -5.043880631559,-11.9459259935887 0,-0.9449878955596 8.09299886268,-0.2591342142041 8.743543857153,0.7409851211243 0.401457887406,0.6171837442847 1.807946574077,3.9667312029334 3.125530414825,7.4434387969971 1.446504856694,3.8168913920984 2.599521012164,5.7851093767376 2.91030172274,4.9679340261162 0.283082106759,-0.7443438796997 1.439141828733,-3.9923899002075 2.569021604386,-7.2178800455729 l 2.054326864824,-5.864527537028 4.31661182183,-0.276354583796 4.316611821829,-0.2763545837961 -1.252400975679,2.9830596008859 c -0.688820536624,1.6406827804872 -3.998261957464,9.3776502037607 -7.354314268533,17.1932609406076 l -6.101913292853,14.2102013397216 h -3.956954845604 c -2.176325165082,0 -3.956954845604,-0.194008238339 -3.956954845604,-0.43112941853 z m -99.696965277373,-7.6396845935749 c -4.572367898041,-1.8714340312681 -5.395357972313,-4.1007014373944 -5.714529794894,-15.4791842712748 l -0.30111991558,-10.7349319330916 h 4.135618580094 4.135618580095 v 8.8499062095485 c 0,10.8311424764234 0.963407133557,12.8425154583985 5.29242850393,11.0493760436891 l 2.827686315041,-1.171266055334 v -9.3640080989517 -9.3640080989519 h 4.060057409486 4.060057409486 v 13.0824075826009 13.0824075826009 h -3.53375367122 c -1.943564519169,0 -3.686977053135,-0.4596701589011 -3.874250075479,-1.0214892420024 -0.235437441148,-0.7063123436525 -1.21914645092,-0.5671216312174 -3.18820375479,0.4511175028483 -3.099683026053,1.6029084344692 -5.111708417106,1.7607386855115 -7.899609586169,0.6196727783187 z m -41.953926564686,-18.5451186559451 v -18.4958176167806 h 2.706704939657 c 3.26348455115,0 3.83208888678,0.5454287506635 13.547585007873,12.9954027824304 l 7.654937019442,9.8094596425158 0.252892143194,-11.4529721855173 0.252892143194,-11.4529721855174 3.807165266292,0.2760997244684 3.807165266291,0.2760997244684 0.244239970323,18.2702588653564 0.244239970322,18.2702588653564 h -3.604841002354 c -3.52551663512,0 -3.798915277467,-0.2420296163702 -12.424412198779,-10.9988685103796 l -8.819571196426,-10.9988685103798 -0.287678870928,3.9906285955677 c -0.158223379011,2.1948457275623 -0.158223379011,7.1452901949123 0,11.0009877052222 l 0.287678870928,7.0103591096545 -3.834498664515,-0.00211919484 -3.834498664514,-0.00211919484 z m 64.960918551773,5.4134100341796 v -13.0824075826009 h 2.977375433622 c 1.637556488493,0 3.464582322762,0.4872069030762 4.060057409486,1.082682006836 0.842085981227,0.8420860053169 1.3232779705,0.8420860053169 2.165363951726,0 1.750105077376,-1.7501051274425 7.442686198535,-1.3228082138742 9.269489776325,0.6957870757527 1.601648847799,1.7698021063203 1.620510627844,1.7698021063203 3.870449348612,0 1.533155951958,-1.2059806820724 3.64811799886,-1.7784690825887 6.570254712361,-1.7784690825887 3.70437865097,0 4.637185053203,0.3896719700159 6.645088120058,2.7759292522812 2.21457531458,2.6318733004472 2.33579040301,3.3107806159138 2.33579040301,13.0824075826009 v 10.3064783303197 h -4.029533256957 -4.029533256957 l -0.2560828975,-9.6990263112386 -0.2560828975,-9.6990263112386 h -2.706704939658 -2.706704939657 l -0.2560828975,9.6990263112386 -0.2560828975,9.6990263112386 h -4.450126594371 -4.450126594371 l -0.2560828975,-9.6990263112386 -0.256082897501,-9.6990263112386 h -2.706704939657 -2.706704939657 l -0.2560828975,9.6990263112386 -0.2560828975,9.6990263112386 h -4.029533256957 -4.029533256957 z m 42.405044054629,-5.5316759622981 v -18.6140835448991 l 9.247908543828,0.4193667793985 c 13.064955463205,0.5924591781614 17.419637424784,3.2637386798825 18.398744872159,11.2862869132636 0.885186080525,7.2529813204624 -4.485962553422,12.5867032326783 -13.624860136582,13.5299206955591 l -4.999443480548,0.5159880995085 v 5.7383023010343 5.7383023010341 h -4.511174899429 -4.511174899428 z m 17.542421803758,-2.3380745079095 c 0.772482025613,-1.1028726132488 1.404512773842,-2.7268956235027 1.404512773842,-3.6089400227864 0,-2.6662054102754 -3.305652593345,-5.2126571123933 -6.766762349143,-5.2126571123933 h -3.1578224296 v 5.4134100341797 5.4134100341797 h 3.557779615529 c 2.653718694803,0 3.914677807298,-0.5095435600673 4.962292389372,-2.0052229331797 z m -179.9447181831894,8.7748171096197 v -10.3620821006289 l 9.0059574829371,-4.5194010777819 c 4.9532766156154,-2.48567059278 9.2163368955754,-4.5194010777818 9.4734672888001,-4.5194010777818 0.2571303932248,0 0.4675098058631,4.5765052096086 0.4675098058631,10.1700115769081 v 10.1700115769081 l -9.4734672888001,4.7114716015027 -9.4734672888002,4.7114716015026 z m 24.3603444569147,-12.1739496954241 v -9.9155305474672 l 8.1201148189716,-4.0781665560259 8.1201148189711,-4.078166556026 -0.0174420677,10.1591983292825 -0.0174420677,10.1591983292825 -7.2019751509658,3.8344987742106 c -3.9610863330307,2.1089743258159 -7.6072890711018,3.8344987742106 -8.1026727512695,3.8344987742106 -0.5448025661904,0 -0.9006976003041,-3.917949910441 -0.9006976003074,-9.9155305474671 z m -35.8638404504577,-7.480662555507 c -4.0938912212315,-2.0659280279019 -7.435263156129,-3.9705074236861 -7.4252709664389,-4.2323986572982 0.00999218969,-0.2618912336121 3.7655452934644,-2.3605731326546 8.345673563943,-4.6637375534277 l 8.3275059463246,-4.1875716741329 7.8945560740002,3.9717449245412 c 4.3420058407,2.1844597084977 7.8945560740001,4.1662938681604 7.8945560740001,4.4040759103615 0,0.5455738220825 -15.9592413778959,8.5893179221987 -16.8988772558286,8.5173374477204 -0.3820876685687,-0.029269690868 -4.0442522147689,-1.7435223698623 -8.1381434360004,-3.8094503977643 z m -23.679627638493,-11.8676452837352 -7.6649567455215,-3.9106327073607 8.7694111786656,-4.3561967679671 8.7694111786654,-4.3561967679672 7.3248051668449,3.5712505316785 c 4.0286428417646,1.9641877924231 7.4910896823222,3.8403045372208 7.6943263123502,4.1691483217726 0.4427317413449,0.7163550258878 -14.4629729286486,8.903517596841 -16.0916746883658,8.8385728571262 -0.6250011114147,-0.024922017957 -4.5855961926021,-1.805097478234 -8.8013224026388,-3.9559454672823 z m 48.0290872493036,-0.4021010949336 -8.3563248767074,-4.1967983708625 7.4542066634915,-3.9504677963312 7.4542066634915,-3.9504677963311 8.439745688792,4.2467894906056 c 4.6418601288356,2.335734219833 8.2959117973728,4.3772617177716 8.1201148189715,4.5367277731967 -0.1757969784012,0.1594660554253 -3.5677293424103,1.9146805598899 -7.5376274755763,3.9004766765881 l -7.2179966057554,3.6105383939969 z m -22.5449896510391,-11.225643550223 c -4.0938912212315,-2.045424148473 -7.4434385840573,-3.9534374904054 -7.4434385840573,-4.2400296487387 0,-0.2865921583333 3.2480459275886,-2.1046799667706 7.2178798390858,-4.0401951298608 l 7.2178798390858,-3.5191184783458 7.2178798390859,3.5191184783458 c 3.9698339114972,1.9355151630902 7.2174798729883,3.7423312021267 7.2169910255358,4.0151467534144 -4.888474526e-4,0.2728155512877 -3.1470333398041,2.1808288932202 -6.9923210941144,4.2400296487388 l -6.9914322805644,3.7440013736701 z"
                 id="path847" />
            <path
                 style="fill:#a5cce4;stroke-width:0.902235"
                 d="m 51.283602137134,119.594057618042 c -2.5972266811176,-1.613239093608 -5.4618652974832,-3.602522454233 -6.3658635919238,-4.420629690276 -0.9039982944405,-0.818107236044 -5.0720836309563,-8.093541579905 -9.2624118589241,-16.1676318752463 l -7.618778596305,-14.6801641733491 -0.4511174899429,11.4483252723458 -0.4511174899428,11.4483252723456 -5.4134098793144,-2.877092718228 -5.4134098793144,-2.877092718228 -0.2407906987609,-23.2325513966875 c -0.1738470290575,-16.7735301177509 0.041877380476,-23.2325513966878 0.7759423936815,-23.2325513966878 0.5592032008433,0 3.3065963314515,1.2383395043395 6.1053180680182,2.7518655651989 l 5.0885849755757,2.7518655651989 8.1201148189715,17.2402582426166 8.1201148189716,17.2402582426167 0.2503310505276,-12.7742437622426 c 0.1376820777902,-7.0258340692335 0.4537643253186,-12.7742437622427 0.7024049945074,-12.7742437622427 0.2486406691888,0 2.8765304478543,1.2238617842917 5.839755063701,2.7196928539815 l 5.3876811197213,2.7196928539814 v 23.8962398140687 c 0,13.1429318977379 -0.1015014352371,23.8639748107259 -0.2255587449714,23.8245398066409 -0.1240573097343,-0.03943500409 -2.3505623931585,-1.391622902199 -4.9477890742761,-3.004861995807 z m 11.4889926784476,-6.839797010129 v -9.916359013365 l 9.0059574829371,-4.5194010777811 c 4.9532766156153,-2.48567059278 9.2163368955754,-4.5194010777818 9.4734672888001,-4.5194010777818 0.2571303932247,0 0.4675098058631,4.4623615560138 0.4675098058631,9.9163590133639 v 9.916359013364 l -9.005957482937,4.519401077782 c -4.9532766156154,2.48567059278 -9.2163368955755,4.519401077782 -9.4734672888002,4.519401077782 -0.2571303932246,0 -0.4675098058631,-4.462361556014 -0.4675098058631,-9.916359013364 z m 25.2625794368004,-12.62944659205 v -9.9145155256598 l 7.197852524668,-3.6190095597888 c 3.9588188885677,-1.9904552578838 7.409867686631,-3.6190095597887 7.668997329029,-3.6190095597887 0.259129642399,0 0.47114480436,4.4615319865472 0.47114480436,9.9145155256606 v 9.9145155256607 l -7.1978525246675,3.619009559789 c -3.9588188885677,1.990455257883 -7.4098676866306,3.619009559788 -7.6689973290287,3.619009559788 -0.259129642399,0 -0.4711448043608,-4.461531986547 -0.4711448043608,-9.914515525661 z m 173.665034692155,0.922159125791 c 1.248932512059,-2.4646497542629 2.270786385562,-5.0704266091306 2.270786385562,-5.7906152330394 0,-0.7201886239087 -2.233031575217,-6.2844281372903 -4.962292389371,-12.3649766964034 -2.729260814155,-6.0805485591132 -4.962292389372,-11.2111265416434 -4.962292389372,-11.4012844056226 0,-0.1901578639793 1.907297935951,-0.2219945940387 4.238439857669,-0.070748289021 l 4.23843985767,0.2749932818505 2.862044701539,7.1523621461691 c 3.189944897147,7.9717976167366 3.274822803702,7.9543566412566 6.267350455158,-1.2878346091411 0.883706955067,-2.7292608922323 2.054379046624,-5.2605797712123 2.601493536791,-5.6251530644002 1.434944267409,-0.9561844303365 6.859280987745,-0.843245041664 6.859280987745,0.1428161711615 0,1.1265979852472 -12.706524163273,30.9018882427926 -13.794105849259,32.3238283127136 -0.474430901814,0.620286566416 -2.443750867169,1.12779375712 -4.376266589678,1.12779375712 h -3.513664950017 z m -143.891280355926,-21.6836337938147 v -18.0447001139323 h 3.13504228706 c 2.924325325555,0 3.727835963869,0.7387240554103 11.954613483486,10.9907201377062 l 8.819571196426,10.9907201377063 0.253328520207,-10.9907201377063 0.253328520208,-10.9907201377062 h 3.581170144307 3.581170144307 v 18.0447001139323 18.0447001139322 h -3.067143513893 c -2.851319435742,0 -3.69252344952,-0.7946657398649 -11.954613483486,-11.2932435093692 l -8.887469969593,-11.2932435093692 -0.252514767493,11.2932435093692 -0.252514767494,11.2932435093692 h -3.581983897021 -3.581983897021 z m 40.290478117501,17.0228877522781 c -2.955247698339,-1.7178467887323 -4.201078922072,-6.489837633038 -4.201078922072,-16.0916741934517 v -9.051328610096 h 4.029533256957 4.029533256957 l 0.2560828975,9.6029446160308 c 0.287618629309,10.785514357851 1.182685911245,12.4547166840535 5.599425879735,10.4423152230911 2.286047021187,-1.0415927580263 2.325654346794,-1.2221909598099 2.325654346794,-10.6043260068106 v -9.5446869430279 l 3.834498664515,0.2774353067825 3.834498664514,0.2774353067824 0.250331050527,12.8568488311768 0.250331050529,12.8568488311767 h -3.21091119625 c -2.008035164591,0 -3.403599383593,-0.502137381505 -3.725265661582,-1.3403862891059 -0.454992589137,-1.1856917150102 -0.735211901196,-1.1856917150102 -2.428023904665,0 -2.211772468876,1.5491857846356 -8.414116887969,1.7313873883202 -10.844609383459,0.3185739274518 z m 24.670440434272,-12.0605952209468 v -13.0824075826009 h 2.596231034283 c 1.427927068856,0 3.095471061811,0.6015474500289 3.70565331768,1.3367721111755 0.980037359804,1.1808728111027 1.331999706478,1.1808728111027 3.017931761075,0 2.712876127589,-1.9001724596352 7.230409144369,-1.6821569346574 9.152470458121,0.4416969714132 1.601648847799,1.7698021063203 1.620510627845,1.7698021063203 3.870449348612,0 1.379006608635,-1.0847267874742 3.644401062184,-1.7784690825887 5.807536925279,-1.7784690825887 7.788913850892,0 9.74359631015,3.339496418987 9.74359631015,16.6465426809721 v 9.5182724842297 h -4.029533256957 -4.029533256957 l -0.2560828975,-9.6029446160307 c -0.20947199029,-7.8550654534054 -0.533855530568,-9.7777496110569 -1.782181078794,-10.5633329093042 -1.168577638782,-0.7353971702634 -1.961205719913,-0.566621371377 -3.383381174571,0.7204297630497 -1.635300641889,1.4799267835597 -1.857282993278,2.742455696068 -1.857282993278,10.5633329093042 v 8.882514852981 h -3.608939919543 -3.608939919543 v -8.9579046994163 c 0,-6.9405697191467 -0.319290419398,-9.2771951279483 -1.417797825535,-10.3757025655111 -1.677335760285,-1.6773358082703 -1.797933006282,-1.6917250266356 -4.054926293287,-0.4838188418582 -1.554708609535,0.8320548208075 -1.745155720264,1.9643449382113 -1.745155720264,10.375702565511 v 9.4417235412746 h -4.060057409486 -4.060057409485 z m 42.405044054629,-4.9622925313313 v -18.0447001139323 h 8.963614607367 c 10.008224072986,0 12.651132339835,0.6960067995905 15.882411096599,4.1826143781775 1.719472651182,1.8553417479805 2.221023692606,3.3758990295946 2.221023692606,6.7334996231763 0,8.3761282338105 -3.648675984255,11.9516741989677 -13.307965953315,13.0412358275067 l -5.638968624286,0.6360719946537 v 5.7479892021751 5.7479892021752 h -4.060057409485 -4.060057409486 z m 17.529136752065,-2.3200328717914 c 1.847854015182,-1.8478540680439 1.810668138235,-5.6749976803008 -0.07538984428,-7.7590683520203 -1.010136228574,-1.1161880005445 -2.761393285599,-1.6499538502443 -5.413409879315,-1.6499538502443 h -3.920222209501 v 5.4134100341797 5.4134100341796 h 3.995612053779 c 2.429394621165,0 4.551366626644,-0.5557545887624 5.413409879317,-1.4177978660947 z m -179.9314331314963,7.939133894574 v -9.7188940740599 l 9.4734672888001,-4.7114716015026 9.4734672888002,-4.7114716015026 v 10.1666871947062 10.1666871947063 l -8.5831636456826,4.2636784808562 c -4.7207400051254,2.3450231644709 -8.9838002850855,4.2636784808562 -9.4734672888001,4.2636784808562 -0.5304817764619,0 -0.8903036431176,-3.9279527098326 -0.8903036431176,-9.7188940740598 z m 25.2625794368004,-12.1913702713422 v -10.168056757993 l 7.6689973290287,-3.8034333169515 7.6689973290282,-3.8034333169515 v 10.168056757993 10.168056757993 l -7.6689973290282,3.8034333169515 -7.6689973290287,3.8034333169514 z m -35.8638404504577,-7.2149838316281 c -4.0938912212315,-2.0659280279019 -7.4384041116898,-3.9705074236861 -7.4322508676853,-4.2323986572982 0.00615324401,-0.2618912336121 3.4562371476859,-2.2935977726724 7.6668531192918,-4.514903420134 l 7.6556654029198,-4.0387375408393 8.344309940136,4.1437211125321 8.344309940136,4.143721112532 -8.3241371133703,4.1806327053662 c -4.5782754123536,2.2993479879513 -8.4337514262703,4.1566847764738 -8.5677244753705,4.1274150856055 -0.1339730491001,-0.029269690868 -3.593134724826,-1.7435223698623 -7.6870259460575,-3.8094503977643 z m -23.6635129812389,-11.8595429923288 -7.6488420882671,-3.9025304159541 8.4988825533927,-4.2683951354802 8.4988825533927,-4.2683951354802 7.1281016449204,3.475346607785 c 3.9204559047064,1.9114406342817 7.3098545937068,3.7694290648896 7.5319970866677,4.1288631791286 0.3190912178421,0.5163004507503 -15.1723971714088,8.9585957299533 -16.1165922998389,8.7829540758768 -0.1339730491002,-0.024922017957 -3.6855663017206,-1.8014514471011 -7.8924294502675,-3.9478431758759 z m 47.4586420537893,-0.2368267734021 c -4.4042355882823,-2.2130808963021 -7.6520671136371,-4.3457339281437 -7.2174033896772,-4.7392289596481 0.4346637239598,-0.3934950315044 3.6888690553102,-2.2171093651274 7.2315674030007,-4.0524762969401 l 6.4412697230736,-3.3370307851139 8.314120824919,4.1756022232252 c 4.5727664537048,2.296581222774 8.1702869334987,4.3060744503914 7.9944899550975,4.4655405058165 -0.1757969784013,0.1594660554252 -3.5678911996432,1.9147619401168 -7.5379871583151,3.9006575215368 l -7.2183562884943,3.6107192389454 z m -22.9518375320541,-11.4572561867036 c -4.0614723295673,-2.0133943355246 -7.3844951446679,-3.8952014668627 -7.3844951446679,-4.181793625196 0,-0.2865921583333 3.2480459275887,-2.1046799667707 7.2178798390859,-4.0401951298608 l 7.2178798390858,-3.5191184783458 7.2178798390858,3.5191184783458 c 3.9698339114972,1.9355151630901 7.2110166856687,3.7423312021267 7.2026283870476,4.0151467534144 -0.00838829862,0.2728155512877 -3.1814573386977,2.154622682626 -7.0512645335037,4.181793625196 l -7.0360130814657,3.6857653501274 z"
                 id="path845" />
            <path
                 style="fill:#97acdf;stroke-width:0.902235"
                 d="m 49.7762603473487,118.360785711441 -6.2295721190899,-4.261398644282 -7.7550700691389,-15.091730501462 c -4.2652885380263,-8.300451775804 -8.0827788387683,-15.1010481312422 -8.4833117794265,-15.1124363454183 -0.4005329406582,-0.011388214176 -0.6035358111325,5.055105264243 -0.4511174899428,11.2588743964868 0.1747623549593,7.1132216567725 -0.056135916363,11.2711887791855 -0.625110759541,11.2568620421185 -0.4962292389371,-0.01249500908 -2.9322636846286,-1.131128545418 -5.4134098793143,-2.485852302977 l -4.5111748994287,-2.463134104651 -0.2407906987609,-23.229488028613 c -0.1324348843185,-12.7762184157368 0.070567986156,-23.2180727476502 0.4511174899429,-23.2041207375854 0.380549503787,0.013952010065 3.1099487034748,1.3334707058961 6.0653315548616,2.932263768514 l 5.3734233661579,2.9068964774871 7.8692288180275,16.5508475839151 c 4.3280758499151,9.1029661711532 8.1016228846099,16.7832416571457 8.3856600770994,17.0672788577609 0.2840371924897,0.2840372006151 0.5164312590721,-5.2353168874702 0.5164312590721,-12.2652313068562 0,-7.0299144193861 0.2145808122911,-12.781662580702 0.4768462495359,-12.781662580702 0.2622654372447,0 2.9013027534105,1.2238617842917 5.8645273692572,2.7196928539815 l 5.3876811197213,2.7196928539814 v 23.8962398140687 c 0,13.1429318977379 -0.1015014352371,23.8853418793189 -0.2255587449714,23.8720221812919 -0.1240573097343,-0.01331969802 -3.0288661985619,-1.941847022704 -6.4551308640614,-4.285616277059 z m 13.8985694481187,-5.868174580789 v -10.166154729955 l 8.5712323089144,-4.2577516005205 8.5712323089144,-4.2577516005208 v 10.1661547299543 10.166154729955 l -8.5712323089144,4.25775160052 -8.5712323089144,4.257751600521 z m 24.3603444569146,-12.367797114789 v -9.9145155256598 l 7.197852524668,-3.6190095597888 c 3.9588188885677,-1.9904552578838 7.409867686631,-3.6190095597887 7.668997329029,-3.6190095597887 0.259129642399,0 0.47114480436,4.4615319865472 0.47114480436,9.9145155256606 v 9.9145155256607 l -7.1978525246675,3.619009559789 c -3.9588188885677,1.990455257883 -7.4098676866306,3.619009559788 -7.6689973290287,3.619009559788 -0.259129642399,0 -0.4711448043608,-4.461531986547 -0.4711448043608,-9.914515525661 z m 173.993934088322,0.265054463838 2.598216014719,-5.1382860333392 -4.470849974045,-9.9741503120787 c -7.00611044225,-15.6301372355831 -6.813229943733,-14.1785983879407 -1.841442815078,-13.8579369212971 l 4.261437256807,0.274846586432 2.819813694408,7.5725414285754 c 1.550897531924,4.1648977857163 3.028624195336,7.2099409299424 3.283837029804,6.7667625427246 0.255212834469,-0.4431783872179 1.173090452972,-3.0388105249499 2.039728041118,-5.7680714171821 2.386264803232,-7.514951226505 3.598651144455,-9.0223500569662 7.256589134706,-9.0223500569662 1.725362773631,0 3.137023224785,0.3056007795269 3.137023224785,0.6791128433928 0,0.7957012239191 -12.785438523328,30.8165412594065 -13.831917221841,32.4780236159575 -0.390685267388,0.620286566417 -2.316907398615,1.127793757121 -4.280493624949,1.127793757121 h -3.570156775154 z m -144.220179752093,-21.0265291318617 v -18.0447001139323 h 3.15296602718 c 2.955043442132,0 3.719634989582,0.7103476378027 12.180172228457,11.3160505100667 l 9.027206201278,11.3160505100669 v -11.3160505100669 -11.3160505100667 h 3.608939919543 3.608939919543 v 18.0447001139323 18.0447001139322 h -3.011213853166 c -2.775284508046,0 -3.711931411201,-0.8828012855919 -11.954613483486,-11.2673709980067 l -8.94339963032,-11.2673709980067 -0.252514767493,11.2673709980067 -0.252514767494,11.2673709980067 h -3.581983897021 -3.581983897021 z m 39.266005065612,15.8899174049654 c -2.693876426405,-2.6938765034716 -3.348295330307,-6.1600889748976 -3.000007188526,-15.8899174049654 l 0.274518808286,-7.6689975484213 3.803463664976,-0.2759188544129 3.803463664975,-0.275918854413 0.25659374451,9.6533047190196 c 0.288127632391,10.839640065028 1.17818843425,12.5073587322366 5.599936726745,10.4926753260799 2.284881180085,-1.0410615652567 2.325654346794,-1.2260661775156 2.325654346794,-10.5524494514523 v -9.4928103876696 h 3.608939919543 3.608939919543 v 13.0824075826009 13.0824075826009 h -2.735021400751 c -1.627228006396,0 -2.950403230397,-0.5612760670706 -3.266775711997,-1.3857295620216 -0.47819238369,-1.246149412231 -0.74478053976,-1.246149412231 -2.646644879698,0 -3.312654115332,2.1705344025103 -9.074377428497,1.7896311121561 -11.6330616144,-0.7690531469452 z m 25.694913486161,-10.9276248736341 v -13.0824075826009 h 2.596231034283 c 1.427927068856,0 3.095471061811,0.6015474500289 3.70565331768,1.3367721111755 0.980037359804,1.1808728111027 1.331999706478,1.1808728111027 3.017931761075,0 2.625164133339,-1.8387365856719 6.305385742587,-1.6743493351256 8.850489063641,0.3953315092513 1.925476639724,1.5657997396661 2.278062069741,1.5988680586628 3.672280508729,0.3444162264504 2.047217674009,-1.8419896698284 8.941780099689,-2.5648680776834 11.484380072779,-1.2041098288257 3.293747548504,1.7627602429472 4.566903397013,6.2904280698527 4.566903397013,16.2410765370543 v 9.051328610096 h -4.060057409486 -4.060057409485 v -9.2930205586751 c 0,-9.164495536277 -0.6553968487,-11.458384572347 -3.273824069871,-11.458384572347 -3.02677910698,0 -3.944055769215,2.7428371567172 -3.944055769215,11.7935004316058 v 8.9579046994163 h -3.608939919543 -3.608939919543 v -8.9579046994163 c 0,-6.9405697191467 -0.319290419398,-9.2771951279483 -1.417797825535,-10.3757025655111 -1.554929156238,-1.5549292007209 -2.235517733216,-1.6903564681461 -4.372938028964,-0.8701513188937 -1.180508872724,0.453003771918 -1.427143984587,2.2461042512898 -1.427143984587,10.3757025655111 v 9.82805601831 h -4.060057409486 -4.060057409485 z m 42.405044054629,-4.9622925313313 v -18.0447001139323 h 9.058293096703 c 13.504060369928,0 18.008756299869,2.9338964764899 18.008756299869,11.729055074056 0,7.5835232259294 -3.580237360127,10.8923779808605 -12.631289718401,11.6738357939939 l -5.864527369257,0.5063367829103 -0.266781780701,6.0900862884522 -0.266781780703,6.0900862884521 h -4.018834373754 -4.018834373756 z m 17.819140852743,-2.4581025672379 c 1.561922558487,-2.0714841749784 1.411239083609,-6.1519114077687 -0.290004100678,-7.8531546407234 -0.862043252671,-0.8620432773323 -2.98401525815,-1.4177978660947 -5.413409879314,-1.4177978660947 h -3.99561205378 v 5.2630375332302 c 0,2.8946706432767 0.304504305712,5.5687491083552 0.676676234915,5.9423965890634 1.110213679012,1.1146153475336 7.805746399738,-0.3209735226406 9.022349798857,-1.9344816154755 z m -179.3192022522886,7.8274430525708 v -9.8624064834248 l 8.1020862019427,-4.0691120408304 c 4.4561474110684,-2.2380116224566 8.3264990939718,-4.0691120408303 8.6007815175629,-4.0691120408303 0.2742824235911,0 0.3838967364912,4.4853516142359 0.2435873620003,9.9674480316353 l -0.2551079536199,9.9674480316354 -8.345673563943,3.9640704926197 -8.345673563943,3.9640704926199 z m 24.3603444569146,-12.0218815758236 v -10.2483285999241 l 6.5412036041716,-2.9337880265583 c 3.5976619822943,-1.6135834146071 7.0487107803574,-3.1324005875477 7.6689973290284,-3.3751492732013 0.860190131804,-0.3366347768702 1.127793724857,1.8887450035132 1.127793724857,9.3786833095309 v 9.8200445561739 l -7.6689973290283,3.8034333169515 -7.6689973290287,3.8034333169514 z m -35.8638404504577,-7.2002378616246 c -4.0938912212315,-2.0298887983418 -7.4434385840572,-3.922962970825 -7.4434385840572,-4.2068314944073 0,-0.2838685235822 3.5743248448507,-2.2681088877659 7.9429440996683,-4.4094230315192 l 7.9429440996684,-3.8932984431877 7.8587577402995,3.9489410307647 7.8587577402995,3.9489410307649 -8.3582632559106,4.1511889068303 -8.3582632559106,4.1511889068303 z m -23.6635129812388,-11.7940171204012 -7.6488420882672,-3.9025304159541 8.326192627522,-4.1816650465653 8.326192627522,-4.1816650465654 7.6708587193258,3.8545237986673 7.6708587193257,3.8545237986673 -8.0005354890224,4.274984423774 c -4.4002945189623,2.3512414330757 -8.1569886853235,4.2545936818092 -8.3482092585806,4.2296716638521 -0.191220573257,-0.024922017957 -3.7896527092784,-1.8014514471011 -7.9965158578253,-3.9478431758759 z m 47.0133301268518,-0.8534084617379 -7.5517309154732,-3.8537038719955 7.0611654187372,-3.6855650060865 7.0611654187373,-3.6855650060865 8.137978100564,4.0871380347789 8.1379781005628,4.0871380347788 -6.7451776239412,3.4527922407619 c -3.7098476931684,1.899035732419 -7.1511833648908,3.4524946119053 -7.6474126038279,3.4521308433031 -0.4962292389372,-3.637686023e-4 -4.3005138918487,-1.7348281398566 -8.453965895359,-3.8543652694542 z m -23.1242584006415,-11.5793971652341 -7.2178798390859,-3.70446728142 7.3238140556788,-3.5201165297242 7.3238140556789,-3.5201165297242 6.8863868775214,3.4074752722061 c 3.7875127826368,1.8741113997133 6.8863868775214,3.6741587839677 6.8863868775214,4.0001052983431 0,0.6856564183581 -12.061668653548,7.1541800130803 -13.2143440704686,7.0866891525378 -0.4236639647681,-0.024806155439 -4.0183440453488,-1.7121123774375 -7.988177956846,-3.7495693822186 z"
                 id="path843" />
            <path
                 style="fill:#4da9ce;stroke-width:0.902235"
                 d="m 63.6748297954674,112.492611130652 v -10.166154729955 l 8.5712323089144,-4.2577516005205 8.5712323089144,-4.2577516005208 v 10.1661547299543 10.166154729955 l -8.5712323089144,4.25775160052 -8.5712323089144,4.257751600521 z m -13.9806728367919,5.756506120552 c -5.3288692031211,-3.341676818424 -5.5304453195317,-3.621938729255 -13.5335246982859,-18.8163734858396 -4.4682462937247,-8.4832941888083 -8.4285884761199,-15.7250048348369 -8.8007604053228,-16.0926903245083 -0.3721719292029,-0.3676854896713 -0.6766762349143,4.6772233366228 -0.6766762349143,11.2109085028759 0,6.533685166253 -0.2027909720977,11.879427575006 -0.4506466046615,11.879427575006 -0.2478556325639,0 -2.4750375939588,-1.11651581955 -4.9492932475443,-2.481146265666 l -4.4986466428826,-2.481146265666 -0.012999141828,-23.2823208209725 -0.012999141828,-23.2823208209728 5.5632868017104,2.982033192799 5.5632868017103,2.982033192799 7.5936415186433,16.240230102539 c 4.1765028352538,8.9321265563965 7.9661127591871,16.6259355674744 8.4213553865184,17.0973533579508 0.5035101336177,0.5214002828867 0.8277138678752,-4.1577521863988 0.8277138678752,-11.9461899401044 v -12.8033131955164 l 5.8645273692572,2.8919293278355 5.8645273692572,2.8919293278355 v 23.2644619519907 c 0,12.7954540735946 -0.3045043057114,23.2358722975346 -0.6766762349143,23.2009293865326 -0.3721719292028,-0.034942911 -3.1109244724591,-1.590023570515 -6.0861167627903,-3.455734798918 z m 38.3410172937065,-18.124303235341 v -9.9145155256598 l 7.197852524668,-3.6190095597888 c 3.9588188885677,-1.9904552578837 7.409867686631,-3.6190095597887 7.668997329029,-3.6190095597887 0.259129642399,0 0.47114480436,4.4615319865473 0.47114480436,9.9145155256606 v 9.9145155256607 l -7.1978525246675,3.619009559789 c -3.9588188885677,1.990455257883 -7.4098676866306,3.619009559788 -7.6689973290287,3.619009559788 -0.259129642399,0 -0.4711448043608,-4.461531986547 -0.4711448043608,-9.914515525661 z m 174.086209691576,0.264707941924 c 2.873784386244,-5.8956254499837 3.217690544383,-3.9994801908912 -3.452695571099,-19.0366243327854 -2.046023562889,-4.6123793585917 -3.720042841617,-8.5709354460856 -3.720042841617,-8.796791305542 0,-0.2258558594562 1.725524399031,-0.4088924458051 3.834498664514,-0.406747969664 l 3.834498664514,0.00389904753 2.663266066851,7.2123081218081 c 1.464796336768,3.9667694669946 2.986240526588,6.8893336528307 3.380987088491,6.4945870796359 0.394746561901,-0.3947465731948 1.667637727713,-3.5405383612557 2.828647035135,-6.9906484179132 l 2.110926013495,-6.2729273757409 3.733466421449,-0.2763344791083 3.733466421449,-0.2763344791084 -3.504073601365,8.3964495303779 c -1.927240480751,4.6180472417078 -5.08365842104,12.0505013034491 -7.014262089531,16.5165645816473 l -3.510188488165,8.120115051269 -3.73563479635,0.274777478926 -3.735634796349,0.274777478927 z m -144.312455355347,-21.0261826099477 v -18.0447001139323 h 3.101532700573 c 2.897090411334,0 3.68509711108,0.7443164745701 11.954613483486,11.2918021709057 l 8.853080782913,11.2918021709056 0.252514767493,-11.2918021709056 0.252514767494,-11.2918021709057 h 3.58198389702 3.581983897022 v 18.0447001139323 18.0447001139322 h -2.642259583951 c -3.175147799664,0 -3.202551213335,-0.026201313692 -13.271228706973,-12.689062414687 l -7.995738676048,-10.0558318923833 -0.252514767493,11.3724471535352 -0.252514767494,11.3724471535351 h -3.581983897021 -3.581983897021 z m 39.206210944125,15.8301232817679 c -2.095527390648,-2.0955274505968 -2.21457676881,-2.7745498491681 -2.21457676881,-12.6312900797526 v -10.4167132475882 h 3.578415767014 3.578415767014 l 0.2560828975,9.6990263112386 0.256082897501,9.6990263112385 2.535705936898,0.2907520943748 c 4.443674391689,0.5095258157906 5.13329139213,-0.938269095039 5.13329139213,-10.7769285684203 v -8.9118761484316 h 3.608939919543 3.608939919543 v 12.6312900797525 12.6312900797526 h -2.661872781039 c -1.533292583636,0 -3.014352480632,-0.6298462976107 -3.493232502198,-1.4855574461662 -0.771868908023,-1.3792532577574 -0.983130205747,-1.3792532577574 -2.952290014319,0 -3.238949618135,2.2686486861433 -8.583036725647,1.9218463949675 -11.233902430777,-0.7290193859981 z m 25.754707607648,-10.4167132475883 v -12.6312900797525 h 3.082636181276 c 1.695449899701,0 3.226094115132,0.4303738138808 3.401431589846,0.9563862530686 0.205693167939,0.61707952147 1.272676307776,0.459004068189 3.007449932952,-0.4455590661384 3.885449315117,-2.0259901117624 6.530839903641,-1.7411197613053 9.047380110929,0.9742721373926 1.216878697303,1.3130338815107 2.212506722368,1.9324687974526 2.212506722368,1.3765220354264 0,-1.3963888256931 4.823803162525,-3.7638563654459 7.668997329029,-3.7638563654459 3.048815333644,0 7.266660611534,2.2055332223299 8.131965377211,4.2522469698671 0.374899876951,0.8867543119386 0.881195792935,6.1798452835 1.12510203552,11.7624243812478 l 0.44346589561,10.1501438140869 h -4.173590419256 -4.173590419256 v -9.9073956558776 c 0,-9.8290868429942 -0.01792094309,-9.9118935264035 -2.267303860039,-10.4764527168477 -4.160928063425,-1.0443264956294 -4.950575979047,0.7135689484542 -4.950575979047,11.0208547214454 v 9.3629936512799 h -3.578415767014 -3.578415767015 l -0.2560828975,-9.6029446160307 c -0.287618629308,-10.7855143578509 -1.182685911244,-12.4547166840535 -5.599425879734,-10.4423152230911 -2.284881180085,1.0410615652566 -2.325654346795,1.2260661775154 -2.325654346795,10.5524494514522 v 9.4928103876696 h -3.608939919543 -3.608939919542 z m 42.405044054629,-5.4134100341796 v -18.0447001139323 h 8.600210861215 c 9.705327785399,0 13.509849482429,1.1639661311382 16.599567329154,5.0785185895429 1.691230729469,2.1427236201475 1.977693962829,3.406790238106 1.657326924598,7.3132304479581 -0.612080291647,7.4634864939714 -5.23414373161,11.0663611106109 -14.196836844267,11.0663611106109 h -4.540153451729 v 6.3156450398763 6.3156450398763 h -4.060057409485 -4.060057409486 z m 16.941711701786,-1.4045128140221 c 1.477205796594,-1.0346752449761 2.005222875814,-2.3122604595733 2.005222875814,-4.8518186227969 0,-4.2246495515002 -1.462427504287,-5.5541316250943 -6.76725611669,-6.1520626958856 l -4.059563641939,-0.4575716602217 v 6.4329828964632 6.4329828964631 h 3.4081870035 c 1.874502851925,0 4.310537297616,-0.63203076631 5.413409879315,-1.4045128140221 z m -178.4417731013316,6.8233386276454 v -9.9073155225483 l 6.4046973661167,-3.2253539641105 c 3.5225835513643,-1.7739446802608 7.3796380903757,-3.5960257774083 8.5712323089144,-4.0490691047723 l 2.1665349427977,-0.8237151406618 v 9.6986330267998 9.6986330267998 l -8.5712323089144,4.2577516005209 -8.5712323089144,4.2577516005209 z m 24.3603444569146,-11.8526313055197 v -9.7862855366382 l 7.197852524668,-3.6190095597887 c 3.9588188885677,-1.9904552578838 7.409867686631,-3.6190095597887 7.668997329029,-3.6190095597887 0.259129642399,0 0.47114480436,4.2408110771703 0.47114480436,9.4240246159339 v 9.4240246159339 l -7.6689973290283,3.981270480493 -7.6689973290287,3.9812704804931 z m -36.0427194848445,-7.5273669963575 -7.5905180015756,-3.816437905237 3.997477890467,-2.3159057190107 c 2.1986128397567,-1.2737481454559 5.8485777198831,-3.2041550737318 8.1110330669474,-4.2897931739464 l 4.1135551764805,-1.9738874549356 7.8536479989731,3.9463734408418 7.8536479989729,3.9463734408419 -8.3741630643449,4.1598576383415 -8.374163064345,4.1598576383416 z m -23.5047891876135,-11.7221481509523 -7.6689973290287,-3.939054982644 8.5712323089144,-4.0071422083403 8.5712323089144,-4.0071422083403 7.393627780261,3.6567008434972 7.3936277802611,3.6567008434971 -8.0819648604679,4.3348091074089 c -4.4450806732573,2.3841450090749 -8.1782189153234,4.3144183654441 -8.2958627601467,4.289496347487 -0.1176438448234,-0.024922017957 -3.6649466977419,-1.8178875021115 -7.8828952287076,-3.9843677425656 z m 47.1539314314908,-0.7563247970231 -7.4312848515956,-3.7931447739704 6.9801673616527,-3.7485773872484 6.9801673616529,-3.7485773872484 8.0978041802227,4.0899568821265 8.0978041802226,4.0899568821267 -6.744451710394,3.4524266765509 c -3.7094484407167,1.8988346721029 -7.1504574513427,3.4521290476944 -7.6466866902798,3.4517652790922 -0.4962292389372,-3.637686023e-4 -4.2463131631038,-1.7075765457455 -8.3335198314815,-3.7938061714291 z m -22.5680282296047,-11.2538613639558 c -3.5976619822944,-1.8157275046958 -6.5412036041716,-3.5295901767992 -6.5412036041716,-3.8085837157852 0,-0.278993538986 3.0450430571144,-2.0139885432761 6.766762349143,-3.855544453978 l 6.7667623491429,-3.3482834740035 6.766762349143,3.3482834740035 c 3.7217192920287,1.8415559107019 6.7640462792298,3.563756689772 6.7607266382249,3.8271128423779 -0.0078696685,0.6243222132461 -12.1953564593459,7.2619915864465 -13.205234149648,7.1919649871475 -0.4253547802145,-0.029494808173 -3.7169139495399,-1.5392221550664 -7.3145759318342,-3.3549496597622 z"
                 id="path841" />
            <path
                 style="fill:#3ca5cb;stroke-width:0.902235"
                 d="m 49.6941569586755,118.249117251204 c -5.3288692031211,-3.341676818424 -5.5304453195317,-3.621938729255 -13.5335246982859,-18.8163734858396 -4.4682462937247,-8.4832941888083 -8.4285884761199,-15.7250048348369 -8.8007604053228,-16.0926903245083 -0.3721719292029,-0.3676854896713 -0.6766762349143,4.6772233366228 -0.6766762349143,11.2109085028759 0,6.533685166253 -0.2027909720977,11.879427575006 -0.4506466046615,11.879427575006 -0.2478556325639,0 -2.4750375939588,-1.11651581955 -4.9492932475443,-2.481146265666 l -4.4986466428826,-2.481146265666 -0.012999141828,-23.2823208209725 -0.012999141828,-23.2823208209728 5.5632868017104,2.982033192799 5.5632868017103,2.982033192799 7.5936415186433,16.240230102539 c 4.1765028352538,8.9321265563965 7.9661127591871,16.6259355674744 8.4213553865184,17.0973533579508 0.5035101336177,0.5214002828867 0.8277138678752,-4.1577521863988 0.8277138678752,-11.9461899401044 v -12.8033131955164 l 5.8645273692572,2.8919293278355 5.8645273692572,2.8919293278355 v 23.2644619519907 c 0,12.7954540735946 -0.3045043057114,23.2358722975346 -0.6766762349143,23.2009293865326 -0.3721719292028,-0.034942911 -3.1109244724591,-1.590023570515 -6.0861167627903,-3.455734798918 z m 13.9806728367919,-5.900952997182 c 0,-5.181121198858 0.3045043057114,-9.609618965154 0.6766762349143,-9.841106147327 0.3721719292028,-0.231487182172 0.5486523908733,3.824888547613 0.3921788037121,9.014168288411 l -0.2844974312022,9.435054074179 4.5401199294215,-2.300652943942 c 2.4970659611818,-1.265359119169 4.85812138044,-2.281498585213 5.2467898205736,-2.25808770232 0.8131226892305,0.04897727237 -8.8709442951935,5.263888676404 -9.894591122505,5.328279550935 -0.3721719292029,0.02341088289 -0.6766762349143,-4.196533921079 -0.6766762349143,-9.377655119936 z m 15.7891121480002,-7.808400523262 c 0,-5.4111361073429 0.3045043057115,-9.8384292860783 0.6766762349143,-9.8384292860783 0.3721719292029,0 0.6766762349143,4.2390991627013 0.6766762349143,9.4202203615583 0,5.181121198857 -0.3045043057114,9.608414377592 -0.6766762349143,9.838429286079 -0.3721719292028,0.230014908486 -0.6766762349143,-4.009084254215 -0.6766762349143,-9.420220361559 z m 8.9124295541146,-4.425019251899 c 0,-5.7066364110307 0.1464947423303,-8.0411694882707 0.3255438718464,-5.1878512827552 0.1790491295151,2.8533182055156 0.1790491295151,7.5223843599952 0,10.3757025655112 -0.1790491295161,2.853318205515 -0.3255438718464,0.518785128275 -0.3255438718464,-5.187851282756 z m 173.7450124463758,0.274777478926 c 2.873784386244,-5.8956254499837 3.217690544383,-3.9994801908912 -3.452695571099,-19.0366243327854 -2.046023562889,-4.6123793585917 -3.720042841617,-8.5709354460856 -3.720042841617,-8.796791305542 0,-0.2258558594562 1.725524399031,-0.4088924458051 3.834498664514,-0.406747969664 l 3.834498664514,0.00389904753 2.663266066851,7.2123081218081 c 1.464796336768,3.9667694669945 2.986240526588,6.8893336528307 3.380987088491,6.4945870796359 0.394746561901,-0.3947465731948 1.667637727713,-3.5405383612557 2.828647035135,-6.9906484179133 l 2.110926013495,-6.2729273757408 3.733466421449,-0.2763344791084 3.733466421449,-0.2763344791083 -3.504073601365,8.3964495303779 c -1.927240480751,4.6180472417078 -5.08365842104,12.0505013034491 -7.014262089531,16.5165645816473 l -3.510188488165,8.120115051269 -3.73563479635,0.274777478926 -3.735634796349,0.274777478927 z m -144.312455355347,-21.0261826099477 v -18.0447001139323 h 3.101532700573 c 2.897090411334,0 3.68509711108,0.7443164745701 11.954613483486,11.2918021709057 l 8.853080782913,11.2918021709056 0.252514767493,-11.2918021709056 0.252514767494,-11.2918021709057 h 3.58198389702 3.581983897022 v 18.0447001139323 18.0447001139322 h -2.642259583951 c -3.175147799664,0 -3.202551213335,-0.026201313692 -13.271228706973,-12.689062414687 l -7.995738676048,-10.0558318923833 -0.252514767493,11.3724471535352 -0.252514767494,11.3724471535351 h -3.581983897021 -3.581983897021 z m 39.206210944125,15.8301232817679 c -2.095527390648,-2.0955274505968 -2.21457676881,-2.7745498491681 -2.21457676881,-12.6312900797526 v -10.4167132475882 h 3.578415767014 3.578415767014 l 0.2560828975,9.6990263112386 0.256082897501,9.6990263112385 2.535705936898,0.2907520943748 c 4.443674391689,0.5095258157906 5.13329139213,-0.938269095039 5.13329139213,-10.7769285684203 v -8.9118761484316 h 3.608939919543 3.608939919543 v 12.6312900797525 12.6312900797526 h -2.661872781039 c -1.533292583636,0 -3.014352480632,-0.6298462976107 -3.493232502198,-1.4855574461662 -0.771868908023,-1.3792532577574 -0.983130205747,-1.3792532577574 -2.952290014319,0 -3.238949618135,2.2686486861433 -8.583036725647,1.9218463949675 -11.233902430777,-0.7290193859981 z m 25.754707607648,-10.4167132475883 v -12.6312900797525 h 3.082636181276 c 1.695449899701,0 3.226094115132,0.4303738138808 3.401431589846,0.9563862530686 0.205693167939,0.61707952147 1.272676307776,0.459004068189 3.007449932952,-0.4455590661384 3.885449315117,-2.0259901117624 6.530839903641,-1.7411197613053 9.047380110929,0.9742721373926 1.216878697303,1.3130338815107 2.212506722368,1.9324687974526 2.212506722368,1.3765220354264 0,-1.3963888256931 4.823803162525,-3.7638563654459 7.668997329029,-3.7638563654459 3.048815333644,0 7.266660611534,2.2055332223299 8.131965377211,4.2522469698671 0.374899876951,0.8867543119386 0.881195792935,6.1798452835 1.12510203552,11.7624243812478 l 0.44346589561,10.1501438140869 h -4.173590419256 -4.173590419256 v -9.9073956558776 c 0,-9.8290868429942 -0.01792094309,-9.9118935264035 -2.267303860039,-10.4764527168477 -4.160928063425,-1.0443264956294 -4.950575979047,0.7135689484542 -4.950575979047,11.0208547214454 v 9.3629936512799 h -3.578415767014 -3.578415767015 l -0.2560828975,-9.6029446160307 c -0.287618629308,-10.7855143578509 -1.182685911244,-12.4547166840535 -5.599425879734,-10.4423152230911 -2.284881180085,1.0410615652566 -2.325654346795,1.2260661775154 -2.325654346795,10.5524494514522 v 9.4928103876696 h -3.608939919543 -3.608939919542 z m 42.405044054629,-5.4134100341796 v -18.0447001139323 h 8.600210861215 c 9.705327785399,0 13.509849482429,1.1639661311382 16.599567329154,5.0785185895429 1.691230729469,2.1427236201475 1.977693962829,3.406790238106 1.657326924598,7.3132304479581 -0.612080291647,7.4634864939714 -5.23414373161,11.0663611106109 -14.196836844267,11.0663611106109 h -4.540153451729 v 6.3156450398763 6.3156450398763 h -4.060057409485 -4.060057409486 z m 16.941711701786,-1.4045128140221 c 1.477205796594,-1.0346752449761 2.005222875814,-2.3122604595733 2.005222875814,-4.8518186227969 0,-4.2246495515002 -1.462427504287,-5.5541316250943 -6.76725611669,-6.1520626958856 l -4.059563641939,-0.4575716602217 v 6.4329828964632 6.4329828964631 h 3.4081870035 c 1.874502851925,0 4.310537297616,-0.63203076631 5.413409879315,-1.4045128140221 z m -178.2514940510146,6.5864372164423 0.1902790503171,-10.1442169337516 0.2924014111768,9.2479088083903 c 0.1608207761473,5.0863498446146 0.4902132359411,9.2479088083903 0.7319832439862,9.2479088083903 0.2417700080452,0 3.6786154689101,-1.6285543019049 7.6374343574777,-3.6190095597887 l 7.1978525246683,-3.6190095597888 v -8.5611630171155 c 0,-4.7086396594136 -0.2231650858844,-8.5611630171156 -0.4959224130764,-8.5611630171156 -0.272757327192,0 -1.7315076811472,0.6389459925579 -3.2416674532336,1.4198799834621 -1.5101597720865,0.7809339909042 -2.9021099562626,1.2635150628837 -3.0932226315023,1.0724023821766 -0.1911126752398,-0.191112680707 1.4706405491896,-1.2307876398567 3.6927849431765,-2.3103887981104 l 4.0402625345215,-1.9629111968248 v 9.709237916393 9.7092379163929 l -8.5712323089144,4.2577516005209 -8.5712323089144,4.2577516005209 z m 36.8013551249976,-0.1231028267362 c 0,-0.1950236521725 0.630095651351,-0.5963788535751 1.400212558558,-0.8919004475612 0.802921590343,-0.3081099324056 1.165075701804,-0.1568525519469 0.848987783153,0.3545884584956 -0.529844657174,0.8573066885898 -2.249200341711,1.2680439651401 -2.249200341711,0.5373119890656 z m -12.6312897184,-11.8155145814064 v -9.4633980228122 l 7.3112414828003,-3.6760204143524 c 4.0211828155404,-2.0218112278939 7.4630729885337,-3.5241889042757 7.6486448288747,-3.3386170586261 0.185571840341,0.1855718456495 -2.901483956445,1.9165413310989 -6.8601239928569,3.846598856554 l -7.1975273389323,3.5091955008277 v 8.8517716147645 8.8517716147646 l 7.2178798390858,-3.629079096791 c 3.9698339114974,-1.995993503235 7.2178798390854,-3.4260762205092 7.2178798390854,-3.1779615939427 0,0.4542199228689 -13.988621292358,7.6891366224258 -14.8668498536962,7.6891366224258 -0.259129642399,0 -0.4711448043607,-4.2585291102655 -0.4711448043608,-9.4633980228122 z m -21.3926118571228,-7.7529350508861 c 3.8652845051026,-1.9759320826586 6.7877390870517,-3.9810143489558 6.4943435154423,-4.4557383695492 -0.2962075315152,-0.4792738674264 0.089268208124,-0.6241765239332 0.8667660647226,-0.3258225938315 0.7701169072068,0.2955215939862 1.4002125585577,0.6923455037377 1.4002125585577,0.881830910559 0,0.4815255627048 -14.2388751252404,7.5926906505294 -15.0924085986684,7.5374359402723 -0.3831869521325,-0.024806155439 2.4658019548431,-1.6617738047919 6.3310864599458,-3.6377058874506 z m -21.0124321975064,-3.3694505816517 c 0,-0.4280165674645 1.0150143523714,-1.2406834424911 2.2555874497143,-1.8059263889481 1.2405730973429,-0.5652429464569 2.2555874497143,-0.880110538953 2.2555874497143,-0.6997057611024 0,0.1804047778506 -1.0150143523714,0.9930716528772 -2.2555874497143,1.8059263889481 -1.2405730973429,0.8128547360709 -2.2555874497143,1.127722328567 -2.2555874497143,0.6997057611024 z m 29.963197621267,-8.5848360738569 -7.4795540439906,-3.8174140498581 4.1619119753391,-2.0220130614755 c 2.2890515864366,-1.1121071838115 3.9380376549731,-1.6597767915521 3.6644134856368,-1.217043572757 -0.2736241693363,0.4427332187952 -1.7760538653164,1.3345644806933 -3.3387326577336,1.9818472486626 l -2.8412341680312,1.1768777599442 7.0474824965656,3.5459917315205 7.0474824965656,3.5459917315203 6.1081564512712,-2.9549367540992 c 3.3594860481993,-1.6252152147547 5.9029392630925,-3.2869851491469 5.6521182553191,-3.6928220764271 -0.2508210077743,-0.4058369272803 0.233741330996,-0.4731920745946 1.0768051972668,-0.149678105143 1.1235170853516,0.431133970475 -0.2493191044281,1.5006373392357 -5.140991045614,4.0050716050364 -3.670608941358,1.8792754133184 -7.0798401797812,3.416566758995 -7.5760694187184,3.4162029903928 -0.4962292389371,-3.637686023e-4 -4.2680342996815,-1.7184977198949 -8.3817890238764,-3.8180754473169 z m -36.2788424804671,2.5773723807149 c 0,-0.2481146265666 2.84204018664,-1.8823460306217 6.3156448592001,-3.6316253423446 3.47360467256,-1.7492793117228 6.3156448592001,-2.9775049632145 6.3156448592001,-2.7293903366479 0,0.2481146265666 -2.8420401866401,1.8823460306217 -6.3156448592001,3.6316253423446 -3.4736046725601,1.7492793117229 -6.3156448592001,2.9775049632145 -6.3156448592001,2.7293903366479 z m 18.4427021851704,-0.875147429551 c 0.9632452815065,-0.7717189723367 2.1474286926065,-1.4031254042486 2.6315186913334,-1.4031254042486 1.1463283284572,0 0.6344839454042,0.416742360479 -2.1272862989035,1.7320309511494 -2.1268099474769,1.0128897811851 -2.1555979193431,0.9941116864554 -0.5042323924299,-0.3289055469008 z m -35.5851668029992,-4.5574546438611 c 0,-0.6011395285751 14.5454012934317,-7.8635942122491 14.9463492600181,-7.4626462341925 0.1781264619293,0.1781264670251 -3.111932205331,2.02784792261 -7.3112414828006,4.110492123522 -4.1993092774696,2.082644200912 -7.6351077772175,3.5911135507138 -7.6351077772175,3.3521541106705 z m 66.7653885115439,-4.0635508059604 c -0.8131770958291,-0.5255154155721 -0.924459342835,-0.8801179525816 -0.2788059417043,-0.888419284493 0.5910005904686,-0.00759864666 1.3254718756586,0.3921900313598 1.6321584115329,0.888419284493 0.6922892022078,1.1201474912609 0.379952123819,1.1201474912609 -1.3533524698286,0 z m -35.8638404504578,-4.3108115894103 c -3.5976619822943,-1.8157275046959 -6.5412036041715,-3.5295901767993 -6.5412036041715,-3.8085837157853 0,-0.278993538986 3.0766009037073,-2.0296037829979 6.8368908971273,-3.8902449866931 3.76028999342,-1.8606412036952 6.6338031301452,-3.0543810876417 6.3855847482782,-2.6527552976589 -0.2482183818669,0.401625789983 -2.9188135446256,1.9095892061167 -5.9346559172416,3.3510298136308 -3.0158423726158,1.441440607514 -5.4833497683924,2.8737183010082 -5.4833497683924,3.1828393188762 0,1.1787669865924 12.4400981887506,6.5487137092244 13.5630560320723,5.8546875742638 0.7526524574095,-0.4651648137025 0.9285228899578,-0.3508720175181 0.5077419302758,0.3299658965434 -0.9612531661111,1.5553403390559 -2.1696587450292,1.248912001345 -9.3340643179481,-2.3669386031769 z m 12.4057309734288,0.2621973996087 c 0,-0.2289219817051 1.3195186580829,-1.0923076732364 2.9322636846286,-1.9186348700694 1.6127450265458,-0.8263271968331 3.1860172727215,-1.8951141542851 3.4961605470572,-2.3750821276712 0.3437599492738,-0.5319920818455 0.7666604511156,-0.5445906549582 1.0832906789256,-0.03227216984 0.2856665990733,0.4622182799743 -1.2876056471024,1.7183050406396 -3.4961605470572,2.7913039125896 -2.2085548999548,1.07299887195 -4.0155543635542,1.7636072366958 -4.0155543635542,1.534685254991 z"
                 id="path839" />
            <path
                 style="fill:#4b75cd;stroke-width:0.902235"
                 d="m 49.6941569586755,118.249117251204 c -5.3288692031211,-3.341676818424 -5.5304453195317,-3.621938729255 -13.5335246982859,-18.8163734858396 -4.4682462937247,-8.4832941888083 -8.4285884761199,-15.7250048348369 -8.8007604053228,-16.0926903245083 -0.3721719292029,-0.3676854896713 -0.6766762349143,4.6772233366228 -0.6766762349143,11.2109085028759 0,6.533685166253 -0.2027909720977,11.879427575006 -0.4506466046615,11.879427575006 -0.2478556325639,0 -2.4750375939588,-1.11651581955 -4.9492932475443,-2.481146265666 l -4.4986466428826,-2.481146265666 -0.012999141828,-23.2823208209725 -0.012999141828,-23.2823208209728 5.5632868017104,2.982033192799 5.5632868017103,2.982033192799 7.5936415186433,16.240230102539 c 4.1765028352538,8.9321265563965 7.9661127591871,16.6259355674744 8.4213553865184,17.0973533579508 0.5035101336177,0.5214002828867 0.8277138678752,-4.1577521863988 0.8277138678752,-11.9461899401044 v -12.8033131955164 l 5.8645273692572,2.8919293278355 5.8645273692572,2.8919293278355 v 23.2644619519907 c 0,12.7954540735946 -0.3045043057114,23.2358722975346 -0.6766762349143,23.2009293865326 -0.3721719292028,-0.034942911 -3.1109244724591,-1.590023570515 -6.0861167627903,-3.455734798918 z m 212.4272269852825,-17.859595293417 c 2.873784386244,-5.8956254499837 3.217690544383,-3.9994801908912 -3.452695571099,-19.0366243327854 -2.046023562889,-4.6123793585917 -3.720042841617,-8.5709354460856 -3.720042841617,-8.796791305542 0,-0.2258558594562 1.725524399031,-0.4088924458051 3.834498664514,-0.406747969664 l 3.834498664514,0.00389904753 2.663266066851,7.2123081218081 c 1.464796336768,3.9667694669946 2.986240526588,6.8893336528307 3.380987088491,6.4945870796359 0.394746561901,-0.3947465731948 1.667637727713,-3.5405383612557 2.828647035135,-6.9906484179132 l 2.110926013495,-6.2729273757409 3.733466421449,-0.2763344791083 3.733466421449,-0.2763344791084 -3.504073601365,8.3964495303779 c -1.927240480751,4.6180472417078 -5.08365842104,12.0505013034491 -7.014262089531,16.5165645816473 l -3.510188488165,8.120115051269 -3.73563479635,0.274777478926 -3.735634796349,0.274777478927 z m -144.312455355347,-21.0261826099477 v -18.0447001139323 h 3.101532700573 c 2.897090411334,0 3.68509711108,0.7443164745701 11.954613483486,11.2918021709057 l 8.853080782913,11.2918021709056 0.252514767493,-11.2918021709056 0.252514767494,-11.2918021709057 h 3.58198389702 3.581983897022 v 18.0447001139323 18.0447001139322 h -2.642259583951 c -3.175147799664,0 -3.202551213335,-0.026201313692 -13.271228706973,-12.689062414687 l -7.995738676048,-10.0558318923833 -0.252514767493,11.3724471535352 -0.252514767494,11.3724471535351 h -3.581983897021 -3.581983897021 z m 39.206210944125,15.8301232817679 c -2.095527390648,-2.0955274505968 -2.21457676881,-2.7745498491681 -2.21457676881,-12.6312900797526 v -10.4167132475882 h 3.578415767014 3.578415767014 l 0.2560828975,9.6990263112386 0.256082897501,9.6990263112385 2.535705936898,0.2907520943748 c 4.443674391689,0.5095258157906 5.13329139213,-0.938269095039 5.13329139213,-10.7769285684203 v -8.9118761484316 h 3.608939919543 3.608939919543 v 12.6312900797525 12.6312900797526 h -2.661872781039 c -1.533292583636,0 -3.014352480632,-0.6298462976107 -3.493232502198,-1.4855574461662 -0.771868908023,-1.3792532577574 -0.983130205747,-1.3792532577574 -2.952290014319,0 -3.238949618135,2.2686486861433 -8.583036725647,1.9218463949675 -11.233902430777,-0.7290193859981 z m 25.754707607648,-10.4167132475883 v -12.6312900797525 h 3.082636181276 c 1.695449899701,0 3.226094115132,0.4303738138808 3.401431589846,0.9563862530686 0.205693167939,0.61707952147 1.272676307776,0.459004068189 3.007449932952,-0.4455590661384 3.885449315117,-2.0259901117624 6.530839903641,-1.7411197613053 9.047380110929,0.9742721373926 1.216878697303,1.3130338815107 2.212506722368,1.9324687974526 2.212506722368,1.3765220354264 0,-1.3963888256931 4.823803162525,-3.7638563654459 7.668997329029,-3.7638563654459 3.048815333644,0 7.266660611534,2.2055332223299 8.131965377211,4.2522469698671 0.374899876951,0.8867543119386 0.881195792935,6.1798452835 1.12510203552,11.7624243812478 l 0.44346589561,10.1501438140869 h -4.173590419256 -4.173590419256 v -9.9073956558776 c 0,-9.8290868429942 -0.01792094309,-9.9118935264035 -2.267303860039,-10.4764527168477 -4.160928063425,-1.0443264956294 -4.950575979047,0.7135689484542 -4.950575979047,11.0208547214454 v 9.3629936512799 h -3.578415767014 -3.578415767015 l -0.2560828975,-9.6029446160307 c -0.287618629308,-10.7855143578509 -1.182685911244,-12.4547166840535 -5.599425879734,-10.4423152230911 -2.284881180085,1.0410615652566 -2.325654346795,1.2260661775154 -2.325654346795,10.5524494514522 v 9.4928103876696 h -3.608939919543 -3.608939919542 z m 42.405044054629,-5.4134100341796 v -18.0447001139323 h 8.600210861215 c 9.705327785399,0 13.509849482429,1.1639661311382 16.599567329154,5.0785185895429 1.691230729469,2.1427236201475 1.977693962829,3.406790238106 1.657326924598,7.3132304479581 -0.612080291647,7.4634864939714 -5.23414373161,11.0663611106109 -14.196836844267,11.0663611106109 h -4.540153451729 v 6.3156450398763 6.3156450398763 h -4.060057409485 -4.060057409486 z m 16.941711701786,-1.4045128140221 c 1.477205796594,-1.0346752449761 2.005222875814,-2.3122604595733 2.005222875814,-4.8518186227969 0,-4.2246495515002 -1.462427504287,-5.5541316250943 -6.76725611669,-6.1520626958856 l -4.059563641939,-0.4575716602217 v 6.4329828964632 6.4329828964631 h 3.4081870035 c 1.874502851925,0 4.310537297616,-0.63203076631 5.413409879315,-1.4045128140221 z"
                 id="path837" />
            <path
                 style="fill:#3b6bca;stroke-width:0.902235"
                 d="m 55.9487591106215,98.3102744674681 c 0,-13.1500752080281 0.1261273177177,-18.5296514294942 0.2802829282616,-11.9546138254801 0.154155610544,6.5750376040141 0.154155610544,17.334190046946 0,23.90922765096 -0.1541556105439,6.575037604014 -0.2802829282616,1.195461382548 -0.2802829282616,-11.9546138254799 z m 204.4132962999345,6.4719056919579 c 0,-0.410285894489 1.218017222846,-0.567207378108 2.706704939657,-0.348714408041 1.488687716812,0.218492970066 2.706704939658,0.554181429193 2.706704939658,0.745974353615 0,0.191792924423 -1.218017222846,0.348714408041 -2.706704939658,0.348714408041 -1.488687716811,0 -2.706704939657,-0.335688459127 -2.706704939657,-0.745974353615 z m -142.553126821945,-25.4188408115867 v -18.0447001139323 h 3.104575232867 c 1.707516378077,0 3.303059722327,0.3211546593714 3.545651876109,0.7136770208253 0.242592153783,0.392522361454 -0.951463830533,0.5511057634855 -2.653457742925,0.3524075600702 l -3.094534386165,-0.3612694607552 v 17.2411750510138 17.2411750510138 h 2.678072230663 2.678072230665 l 0.285740181943,-10.6012613169352 0.285740181944,-10.6012613169352 0.194010016992,11.0523788197835 0.194010016993,11.0523788197835 h -3.608939919543 -3.608939919543 z m 30.675989316115,0.4511175028483 v -17.593582611084 h -2.675141968107 -2.675141968105 l -0.292401411178,9.2479088083903 -0.292401411176,9.2479088083903 -0.190279050317,-9.6990263112386 -0.190279050317,-9.6990263112386 h 3.608939919543 3.608939919543 v 18.0447001139323 c 0,9.9245850626627 -0.203002870475,18.0447001139322 -0.451117489943,18.0447001139322 -0.248114619469,0 -0.451117489943,-7.9171121749878 -0.451117489943,-17.5935826110839 z m 12.856848463371,16.9716490023168 c 0.868401168141,-0.2269369578044 2.289421261461,-0.2269369578044 3.157822429601,0 0.86840116814,0.2269369578045 0.15789112148,0.4126126505535 -1.5789112148,0.4126126505535 -1.736802336281,0 -2.447312382941,-0.185675692749 -1.578911214801,-0.4126126505535 z m 23.919746274301,-0.016181903462 c 1.122301406639,-0.2158084939984 2.746324370433,-0.2076150123443 3.608939919543,0.018207737009 0.862615549109,0.2258227493535 -0.05563105632,0.4023933353521 -2.040548012072,0.3923790799971 -1.984916955748,-0.010014255355 -2.690693314111,-0.1947783230079 -1.568391907471,-0.4105868170061 z m 13.180124229853,-8.3842345447369 c 0,-5.2104071578979 0.149116668702,-7.3419373588562 0.331370374894,-4.7367337799072 0.182253706191,2.605203578949 0.182253706191,6.8682639808655 0,9.4734675598144 -0.182253706192,2.605203578949 -0.331370374894,0.4736733779908 -0.331370374894,-4.7367337799072 z m 6.3156448592,0 c 0,-5.2104071578979 0.149116668702,-7.3419373588562 0.331370374894,-4.7367337799072 0.182253706191,2.605203578949 0.182253706191,6.8682639808655 0,9.4734675598144 -0.182253706192,2.605203578949 -0.331370374894,0.4736733779908 -0.331370374894,-4.7367337799072 z m 20.622967294915,-8.796791305542 -0.205357831353,-18.2702588653564 8.345673563943,0.1855312814256 8.345673563943,0.1855312814254 -7.875599206972,0.3004363458675 -7.875599206971,0.3004363458675 -0.264716525619,17.7842912380634 -0.264716525618,17.7842912380635 z m 7.308581562073,11.9546138254802 c 0.0040026054,-3.473604771932 0.16707801579,-4.7840677858743 0.362389800829,-2.9121400309828 0.19531178504,1.8719277548915 0.192036926062,4.7139680228358 -0.0072774644,6.3156450398763 -0.199314390457,1.6016770170405 -0.359114941853,0.070099763038 -0.355112336429,-3.4035050088935 z m -187.6049518928779,-9.9245850626628 c 0.00140761637,-6.9472095438639 0.1430355051928,-9.6699854712554 0.3147286418312,-6.0506131719811 0.1716931366384,3.6193722992742 0.1705414505185,9.3034528351629 -0.00255930249,12.6312900797526 -0.1731007530072,3.3278372445896 -0.3135769557113,0.3665326360924 -0.3121693393412,-6.5806769077715 z m 119.4157101021369,10.6804047384875 c 0.620286548671,-0.2502910706592 1.635300901042,-0.2502910706592 2.255587449714,0 0.620286548671,0.2502910706593 0.112779372486,0.455074673926 -1.127793724857,0.455074673926 -1.240573097343,0 -1.748080273529,-0.2047836032667 -1.127793724857,-0.455074673926 z m -26.956575491198,-2.7858484386421 c -1.122263622513,-1.4309949052848 -1.090351279779,-1.4629072489326 0.340643584569,-0.3406435943138 1.502896131493,1.1786525214479 1.980837865675,1.9195548542829 1.238267630231,1.9195548542829 -0.187353971513,0 -0.897864018173,-0.7105100669861 -1.5789112148,-1.5789112599691 z m 32.929339189293,-8.3456738026937 c 0,-5.2104071578979 0.149116668703,-7.3419373588562 0.331370374895,-4.7367337799072 0.18225370619,2.605203578949 0.18225370619,6.8682639808655 0,9.4734675598144 -0.182253706192,2.605203578949 -0.331370374895,0.4736733779908 -0.331370374895,-4.7367337799072 z m -36.538279108836,3.8344987742106 c -1.122263622513,-1.4309949052848 -1.090351279779,-1.4629072489326 0.340643584569,-0.3406435943138 1.502896131493,1.1786525214479 1.980837865675,1.9195548542829 1.238267630231,1.9195548542829 -0.187353971513,0 -0.897864018173,-0.7105100669861 -1.5789112148,-1.5789112599691 z m 106.409643407385,-0.8418881467629 c 0.651300876105,-0.2606291800996 1.429478546256,-0.2285760943708 1.729283711448,0.071229079397 0.29980516519,0.299805173768 -0.233077369805,0.5130472302131 -1.1841834111,0.4738712365447 -1.051052311494,-0.043292773794 -1.264842644087,-0.2570831125049 -0.545100300348,-0.5451003159417 z m 7.838166387757,-2.9926106274477 c 0.898162578388,-0.9924585062663 1.836025740272,-1.8044700113932 2.084140359741,-1.8044700113932 0.248114619468,0 -0.283742801467,0.8120115051269 -1.181905379855,1.8044700113932 -0.898162578389,0.9924585062663 -1.836025740273,1.8044700113932 -2.084140359741,1.8044700113932 -0.248114619469,0 0.283742801466,-0.8120115051269 1.181905379855,-1.8044700113932 z m -117.856749714685,-0.6766762542725 c -1.122263622513,-1.4309949052848 -1.090351279779,-1.4629072489325 0.340643584569,-0.3406435943137 1.502896131493,1.1786525214479 1.980837865675,1.9195548542828 1.238267630231,1.9195548542828 -0.187353971513,0 -0.897864018173,-0.710510066986 -1.5789112148,-1.5789112599691 z m 102.35641965663,-7.443438796997 c 0,-3.2254901453654 0.163750808514,-4.5450088411967 0.363890685587,-2.932263768514 0.200139877073,1.6127450726827 0.200139877073,4.2517824643453 0,5.864527537028 -0.200139877073,1.6127450726827 -0.363890685587,0.2932263768514 -0.363890685587,-2.932263768514 z m -98.747479737087,2.0300287628174 c -1.122263622513,-1.4309949052848 -1.090351279779,-1.4629072489326 0.340643584569,-0.3406435943138 1.502896131493,1.1786525214479 1.980837865675,1.9195548542828 1.238267630231,1.9195548542828 -0.187353971513,0 -0.897864018173,-0.710510066986 -1.5789112148,-1.578911259969 z m 110.258981463015,-0.7518625047472 c 0.04329277256,-1.0510523415607 0.257083105151,-1.2648426802713 0.545100300348,-0.5451003159417 0.260629172644,0.6513008947372 0.228576087832,1.4294785871506 -0.07122907736,1.7292837609185 -0.299805165192,0.2998051737679 -0.513047215537,-0.2330773764717 -0.473871222988,-1.1841834449768 z m 7.37417945044,-1.7292837609185 c 0.01001425507,-1.9849170125326 0.194778317436,-2.6906933910856 0.410586805261,-1.5683919523401 0.215808487824,1.1223014387455 0.207615006405,2.7463244489994 -0.01820773649,3.6089400227865 -0.225822742893,0.862615573787 -0.40239332384,-0.055631057914 -0.392379068771,-2.0405480704464 z m -121.242100832998,-2.0300287628174 c -1.122263622513,-1.4309949052848 -1.090351279779,-1.4629072489326 0.340643584569,-0.3406435943138 1.502896131493,1.1786525214479 1.980837865675,1.9195548542829 1.238267630231,1.9195548542829 -0.187353971513,0 -0.897864018173,-0.7105100669861 -1.5789112148,-1.5789112599691 z m 65.809069312527,0.9625818646303 c 0.651300876105,-0.2606291800996 1.429478546256,-0.2285760943708 1.729283711448,0.071229079397 0.29980516519,0.299805173768 -0.233077369805,0.5130472302131 -1.1841834111,0.4738712365447 -1.051052311493,-0.043292773794 -1.264842644087,-0.2570831125049 -0.545100300348,-0.5451003159417 z m 14.435759678171,0 c 0.651300876105,-0.2606291800996 1.429478546257,-0.2285760943708 1.729283711448,0.071229079397 0.299805165191,0.299805173768 -0.233077369804,0.5130472302131 -1.1841834111,0.4738712365447 -1.051052311493,-0.043292773794 -1.264842644087,-0.2570831125049 -0.545100300348,-0.5451003159417 z m -83.853768910241,-5.4737568931134 c -1.122263622513,-1.4309949052848 -1.090351279779,-1.4629072489325 0.340643584569,-0.3406435943137 1.502896131493,1.1786525214479 1.980837865675,1.9195548542828 1.238267630231,1.9195548542828 -0.187353971513,0 -0.897864018173,-0.7105100669861 -1.5789112148,-1.5789112599691 z m 121.801722284573,-0.9022350056966 c -1.122263622513,-1.4309949052848 -1.090351279778,-1.4629072489326 0.340643584569,-0.3406435943138 1.502896131494,1.1786525214479 1.980837865675,1.9195548542829 1.238267630231,1.9195548542829 -0.187353971513,0 -0.897864018173,-0.7105100669861 -1.5789112148,-1.5789112599691 z"
                 id="path835" />
        </g>
    </g>
</svg>
