<?xml version="1.0" encoding="UTF-8" standalone="no"?>
<!-- Created with Inkscape (http://www.inkscape.org/) -->

<svg
     width="300"
     height="150"
     viewBox="0 0 300 150"
     version="1.1"
     id="svg5"
     sodipodi:docname="企業会計基準論.svg"
     inkscape:version="1.1 (c68e22c387, 2021-05-23)"
     inkscape:export-filename="C:\Program Files\XAMPP\htdocs\koko-campus.org\pics\subjects\企業会計基準論.png"
     inkscape:export-xdpi="96"
     inkscape:export-ydpi="96"
     xmlns:inkscape="http://www.inkscape.org/namespaces/inkscape"
     xmlns:sodipodi="http://sodipodi.sourceforge.net/DTD/sodipodi-0.dtd"
     xmlns="http://www.w3.org/2000/svg"
     xmlns:svg="http://www.w3.org/2000/svg">
    <sodipodi:namedview
         id="namedview7"
         pagecolor="#ffffff"
         bordercolor="#666666"
         borderopacity="1.0"
         inkscape:pageshadow="2"
         inkscape:pageopacity="0.0"
         inkscape:pagecheckerboard="0"
         inkscape:document-units="px"
         showgrid="false"
         units="px"
         width="600px"
         inkscape:zoom="1.607660195"
         inkscape:cx="127.5145087"
         inkscape:cy="107.9208159"
         inkscape:window-width="1920"
         inkscape:window-height="1009"
         inkscape:window-x="-8"
         inkscape:window-y="-8"
         inkscape:window-maximized="1"
         inkscape:current-layer="text102700"
         showguides="false" />
    <defs
         id="defs2">
        <rect
             x="65.93433135"
             y="32.96716567"
             width="220.1957858"
             height="49.13973751"
             id="rect102702" />
        <rect
             x="8.708307914"
             y="33.58918767"
             width="110.7199149"
             height="108.8538489"
             id="rect92923" />
        <rect
             x="156.1275205"
             y="97.03543104"
             width="77.75274923"
             height="44.78558356"
             id="rect88880" />
        <rect
             x="73.39859528"
             y="16.79459383"
             width="183.4964882"
             height="78.37477123"
             id="rect82646" />
        <rect
             x="40.90474521"
             y="36.94622148"
             width="222.9968368"
             height="82.24932639"
             id="rect72628" />
        <rect
             x="61.17997169"
             y="29.27311897"
             width="216.4805133"
             height="58.00124592"
             id="rect62325" />
        <rect
             x="78.29080266"
             y="24.63081432"
             width="208.9220858"
             height="128.4321032"
             id="rect48367" />
        <rect
             x="4.3983597"
             y="108.6394846"
             width="182.9717635"
             height="35.1868776"
             id="rect38517" />
        <rect
             x="84.88834221"
             y="109.9589925"
             width="91.04604579"
             height="32.98769775"
             id="rect32388" />
        <rect
             x="14.07475104"
             y="50.58113655"
             width="195.9269268"
             height="64.93289512"
             id="rect17084" />
        <rect
             x="156.7495425"
             y="91.4372331"
             width="116.3181129"
             height="37.32131963"
             id="rect11095" />
        <rect
             x="113.2080029"
             y="15.55054985"
             width="177.2762682"
             height="77.13072724"
             id="rect3576" />
        <rect
             x="32.98769775"
             y="34.74704163"
             width="257.3040425"
             height="69.49408327"
             id="rect174679" />
        <rect
             x="212.4407735"
             y="69.0542473"
             width="119.1955479"
             height="26.82999417"
             id="rect161626" />
        <rect
             x="28.14950208"
             y="43.54376103"
             width="58.93801999"
             height="29.02917402"
             id="rect157410" />
        <rect
             x="117.87604"
             y="44.42343297"
             width="94.56473356"
             height="47.50228477"
             id="rect153512" />
        <rect
             x="149.5442298"
             y="102.921617"
             width="132.830463"
             height="28.14950208"
             id="rect142692" />
        <rect
             x="198.8058585"
             y="34.30720566"
             width="78.73063864"
             height="28.58933805"
             id="rect138792" />
        <rect
             x="57.17867611"
             y="69.0542473"
             width="129.3117752"
             height="30.7885179"
             id="rect133624" />
        <rect
             x="7.464263927"
             y="13.06246187"
             width="127.0585836"
             height="21.28672807"
             id="rect123074" />
        <rect
             x="171.5360282"
             y="95.88424142"
             width="88.8468659"
             height="33.42753371"
             id="rect119454" />
        <rect
             x="80.05014651"
             y="9.676391336"
             width="213.7602813"
             height="60.69736383"
             id="rect113048" />
        <rect
             x="131.071119"
             y="98.52325724"
             width="92.36555366"
             height="43.10392504"
             id="rect104574" />
        <rect
             x="149.5442297"
             y="83.56883426"
             width="114.8655803"
             height="50.68057523"
             id="rect91383" />
        <rect
             x="66.56216221"
             y="26.39015863"
             width="90.01944299"
             height="41.34458072"
             id="rect70104" />
        <rect
             x="164.9384888"
             y="106.4403048"
             width="90.60620983"
             height="35.1868776"
             id="rect62975" />
        <rect
             x="167.6349274"
             y="38.25435264"
             width="83.03993623"
             height="33.58918769"
             id="rect59877" />
        <rect
             x="75.65178681"
             y="33.42753371"
             width="112.5980083"
             height="106.4403047"
             id="rect49085" />
        <rect
             x="167.1376685"
             y="87.08752202"
             width="92.36555366"
             height="39.58523729"
             id="rect45598" />
        <rect
             x="114.5305285"
             y="17.86009979"
             width="181.9189151"
             height="63.06971865"
             id="rect38415" />
        <rect
             x="156.7495425"
             y="87.70510114"
             width="106.9877829"
             height="33.58918767"
             id="rect32153" />
        <rect
             x="119.4282228"
             y="24.88087976"
             width="184.1185102"
             height="77.13072724"
             id="rect23647" />
        <rect
             x="21.55196253"
             y="59.37785596"
             width="70.94548817"
             height="61.12583224"
             id="rect15119" />
        <clipPath
             clipPathUnits="userSpaceOnUse"
             id="clipPath3444">
            <path
                 d="m 11.52,162 c 0,-80.323 123.787,-145.439 276.48,-145.439 v 0 c 152.693,0 276.481,65.116 276.481,145.439 v 0 c 0,80.322 -123.788,145.439 -276.481,145.439 v 0 c -152.693,0 -276.48,-65.117 -276.48,-145.439"
                 id="path3446" />
        </clipPath>
        <radialGradient
             cx="0"
             cy="0"
             fx="0"
             fy="0"
             gradientTransform="matrix(363.05789,0,0,-363.05789,177.52002,256.30713)"
             gradientUnits="userSpaceOnUse"
             id="radialGradient3452"
             r="1"
             spreadMethod="pad">
            <stop
                 id="stop3454"
                 offset="0"
                 style="stop-opacity:1;stop-color:#aeb2d5" />
            <stop
                 id="stop3456"
                 offset="0.3"
                 style="stop-opacity:1;stop-color:#aeb2d5" />
            <stop
                 id="stop3458"
                 offset="0.75"
                 style="stop-opacity:1;stop-color:#484c89" />
            <stop
                 id="stop3460"
                 offset="1"
                 style="stop-opacity:1;stop-color:#484c89" />
        </radialGradient>
        <clipPath
             clipPathUnits="userSpaceOnUse"
             id="clipPath3468">
            <path
                 d="m 0,324 h 576 v -324 h -576 z"
                 id="path3470" />
        </clipPath>
        <clipPath
             clipPathUnits="userSpaceOnUse"
             id="clipPath3480">
            <path
                 d="m 0,324 h 576 v -324 h -576 z"
                 id="path3482" />
        </clipPath>
        <rect
             x="21.5519619"
             y="59.37785721"
             width="70.94548798"
             height="61.1258316"
             id="rect15119-5" />
        <rect
             x="21.5519619"
             y="59.37785721"
             width="70.94548798"
             height="61.1258316"
             id="rect15119-7" />
        <rect
             x="21.5519619"
             y="59.37785721"
             width="70.94548798"
             height="61.1258316"
             id="rect15119-8" />
        <rect
             x="7.464263916"
             y="13.06246185"
             width="127.0585861"
             height="21.28672791"
             id="rect123074-0" />
    </defs>
    <g
         inkscape:label="レイヤー 1"
         inkscape:groupmode="layer"
         id="layer1">
        <g
             id="g149754"
             transform="translate(8)">
            <g
                 aria-label="vue.js"
                 transform="translate(-8)"
                 id="text3574"
                 style="font-size:48px;line-height:1.25;font-family:'Informal Roman';-inkscape-font-specification:'Informal Roman, Normal';font-variant-ligatures:none;white-space:pre;shape-inside:url(#rect3576)">
                <g
                     aria-label="￥"
                     id="text92921"
                     style="font-size:72px;font-family:'Yu Mincho';-inkscape-font-specification:'Yu Mincho, Normal';shape-inside:url(#rect92923)"
                     transform="translate(-16)">
                    <path
                         d="m 47.31054687,84.91796875 h 268.08050373 l -145.6063056,2.4609375 h -122.47419813 v 5.9765625 c 0,3.9609375 0.1640625,6.22265625 0.4921875,6.78515625 0.328125,0.5625 0.8203125,0.9492187 1.4765625,1.1601562 0.7265625,0.234375 1.9921875,0.421875 3.796875,0.5625 0.375,0 0.5625,0.3046875 0.5625,0.9140625 0,0.5859375 -0.1875,0.8789063 -0.5625,0.8789063 -5.625,-0.140625 -8.484375,-0.2109375 -8.578125,-0.2109375 -0.234375,0 -3.09375,0.070312 -8.578125,0.2109375 -0.375,0 -0.5625,-0.2929688 -0.5625,-0.8789063 0,-0.609375 0.1875,-0.9140625 0.5625,-0.9140625 1.8984375,-0.140625 3.1640625,-0.3515625 3.796875,-0.6328125 0.515625,-0.2109375 0.9140625,-0.5742187 1.1953125,-1.0898437 0.609375,-1.171875 0.9140625,-3.703125 0.9140625,-7.59375 v -5.16796875 h -13.46484374 v -2.4609375 h 13.46484374 v -1.58203125 l -0.0703125,-2.70703125 -1.23046875,-2.4609375 h -12.16406249 v -2.4609375 h 11.03906249 l -6.64453125,-12.33984375 c -1.99218749,-3.6796875 -3.14062499,-5.71875 -3.44531249,-6.1171875 -0.8671875,-1.1015625 -2.09765625,-1.72265625 -3.69140625,-1.86328125 -0.421875,-0.046875 -0.6328125,-0.3515625 -0.6328125,-0.9140625 0,-0.6328125 0.2109375,-0.94921875 0.6328125,-0.94921875 3.4921875,0.140625 5.77734375,0.2109375 6.85546874,0.2109375 0.375,0 2.9765625,-0.0703125 7.8046875,-0.2109375 0.328125,0 0.4921875,0.29296875 0.4921875,0.87890625 0,0.5859375 -0.1640625,0.9140625 -0.4921875,0.984375 -1.6875,0.1171875 -2.82421875,0.36328125 -3.41015625,0.73828125 -0.4453125,0.3046875 -0.66796875,0.76171875 -0.66796875,1.37109375 0,0.75 0.609375,2.26171875 1.828125,4.53515625 l 5.90625,11.14453125 c 0.609375,1.1484375 1.34765625,2.6484375 2.21484375,4.5 0.1640625,-0.328125 0.50390625,-1.078125 1.01953125,-2.25 0.3984375,-0.84375 0.76171875,-1.59375 1.08984375,-2.25 l 4.88671875,-9.87890625 c 1.3828125,-2.8359375 2.07421875,-4.60546875 2.07421875,-5.30859375 0,-0.9140625 -0.36328125,-1.55859375 -1.08984375,-1.93359375 -0.609375,-0.328125 -1.6171875,-0.55078125 -3.0234375,-0.66796875 -0.375,0 -0.5625,-0.3046875 -0.5625,-0.9140625 0,-0.6328125 0.1875,-0.94921875 0.5625,-0.94921875 4.2421875,0.140625 6.41015625,0.2109375 6.50390625,0.2109375 0.9609375,0 2.8828125,-0.0703125 5.765625,-0.2109375 0.42187501,0 0.63281251,0.29296875 0.63281251,0.87890625 0,0.609375 -0.2109375,0.9375 -0.63281251,0.984375 -1.4765625,0.1640625 -2.68359375,0.73828125 -3.62109375,1.72265625 -0.1875,0.2109375 -1.453125,2.51953125 -3.796875,6.92578125 l -6.29296875,11.671875 h 11.109375 v 2.4609375 h -12.234375 l -1.16015625,2.28515625 -0.0703125,2.8828125 z"
                         id="path97571"
                         sodipodi:nodetypes="ccccssccscscscccscccccccccccccscscsccsccccccsccscscssccccccccc" />
                </g>
                <g
                     aria-label="企業会計基準論"
                     transform="matrix(1.149209373,0,0,1.149209373,-7.592287412,8.299981446)"
                     id="text102700"
                     style="font-size:26px;font-family:HGGothicM;-inkscape-font-specification:'HGGothicM, Normal';shape-inside:url(#rect102702)">
                    <path
                         d="m 79.64453125,38.34960937 q 1.1171875,0.203125 0,0.8125 1.3203125,2.234375 4.5703125,4.5703125 2.5390625,1.828125 6.296875,3.3515625 l -1.015625,1.421875 q -3.65625,-1.7265625 -6.3984375,-3.65625 -2.7421875,-1.9296875 -4.1640625,-4.3671875 -2.03125,2.84375 -3.7578125,4.3671875 -3.3515625,2.9453125 -6.8046875,4.265625 l -0.8125,-1.5234375 q 3.5546875,-1.421875 6.3984375,-3.7578125 2.4375,-2.03125 4.265625,-5.6875 z m 0.5078125,6.703125 q 0.5078125,0.1015625 -0.203125,0.609375 v 4.7734375 h 6.8046875 v 1.5234375 h -6.8046875 v 6.296875 h 10.0546875 v 1.5234375 h -22.0390625 v -1.5234375 h 4.5703125 v -10.15625 l 1.828125,0.203125 q 0.5078125,0.1015625 -0.203125,0.609375 v 9.34375 h 4.1640625 v -13.40625 z"
                         id="path104854" />
                    <path
                         d="m 104.0195312,37.84179687 q 0.3046875,0.203125 -0.3046875,0.609375 v 3.9609375 h 2.5390625 v -4.7734375 l 1.7265625,0.203125 q 0.3046875,0.203125 -0.3046875,0.609375 v 3.9609375 h 2.84375 l -0.9140625,-0.5078125 q 1.3203125,-1.421875 2.03125,-3.1484375 l 1.5234375,0.8125 q 0.40625,0.3046875 -0.5078125,0.5078125 -0.8125,1.3203125 -1.7265625,2.3359375 h 5.28125 v 1.3203125 h -6.8046875 l -1.1171875,2.640625 h 6.1953125 v 1.3203125 h -8.734375 v 1.9296875 h 7.71875 v 1.3203125 h -7.71875 v 1.9296875 h 10.359375 v 1.3203125 h -9.4453125 q 2.03125,1.5234375 4.1640625,2.4375 2.4375,1.015625 5.7890625,2.03125 l -0.9140625,1.421875 q -6.6015625,-2.1328125 -9.953125,-4.875 v 5.890625 h -1.421875 v -5.7890625 q -2.3359375,2.03125 -5.17968745,3.25 -2.640625,1.1171875 -4.875,1.7265625 l -0.8125,-1.5234375 q 3.453125,-0.8125 5.484375,-1.7265625 2.53906245,-1.1171875 4.67187495,-2.84375 h -9.64843745 v -1.3203125 h 10.35937495 v -1.9296875 h -7.71874995 v -1.3203125 h 7.71874995 v -1.9296875 h -8.73437495 v -1.3203125 h 6.09374995 l -1.1171875,-2.640625 h -6.70312495 v -1.3203125 h 5.3828125 q -1.1171875,-1.5234375 -2.234375,-2.640625 l 1.21875,-0.9140625 q 1.21875,1.21875 2.33593745,2.84375 l -1.01562495,0.7109375 h 2.74218745 v -4.7734375 z m -0.8125,8.53125 h 3.5546875 l 1.1171875,-2.640625 h -5.7890625 z"
                         id="path104856" />
                    <path
                         d="m 131.8476563,37.94335937 q 0.609375,0.203125 -0.1015625,0.609375 1.625,2.3359375 4.5703125,4.5703125 2.84375,2.1328125 5.890625,3.25 l -0.9140625,1.625 q -2.9453125,-1.421875 -5.28125,-3.1484375 -2.640625,-1.9296875 -5.28125,-5.078125 -2.8437501,5.5859375 -10.1562501,8.9375 l -1.015625,-1.421875 q 8.0234375,-3.046875 10.5625001,-9.8515625 z m 9.546875,12.796875 v 1.5234375 h -11.4765625 q -1.3203125,2.84375 -3.3515626,5.6875 4.7734376,0 10.3593751,-0.5078125 -1.7265625,-1.7265625 -3.65625,-3.1484375 l 1.3203125,-0.9140625 q 4.265625,3.25 6.6015625,6.1953125 l -1.21875,1.015625 q -1.015625,-1.1171875 -1.828125,-1.9296875 -9.2421875,0.8125 -15.9453126,1.015625 -0.1015625,0.7109375 -0.40625,0.3046875 l -0.8125,-2.03125 h 3.859375 q 2.234375,-3.046875 3.2500001,-5.6875 h -7.6171876 v -1.5234375 z m -4.5703125,-4.46875 v 1.5234375 h -11.1718751 v -1.5234375 z"
                         id="path104858" />
                    <path
                         d="m 154.5976563,52.77148437 v 7.71875 h -1.21875 v -1.1171875 h -5.078125 v 1.21875 h -1.21875 v -7.8203125 z m 8.4296875,-14.421875 q 0.5078125,0.1015625 -0.203125,0.609375 v 7.515625 h 5.7890625 v 1.3203125 h -5.7890625 v 12.8984375 h -1.421875 v -12.8984375 h -5.5859375 v -1.3203125 h 5.5859375 v -8.328125 z m -8.6328125,0.5078125 v 1.5234375 h -7.0078125 v -1.5234375 z m 1.9296875,3.453125 v 1.3203125 h -10.5625 v -1.3203125 z m -1.9296875,3.453125 v 1.3203125 h -7.109375 v -1.3203125 z m 0,3.453125 v 1.3203125 h -7.109375 v -1.3203125 z m -6.09375,8.8359375 h 5.078125 v -3.9609375 h -5.078125 z"
                         id="path104860" />
                    <path
                         d="m 183.8476563,52.56835937 q 0.5078125,0.1015625 -0.203125,0.609375 v 1.7265625 h 5.078125 v 1.3203125 h -5.078125 v 2.5390625 h 9.140625 v 1.3203125 h -19.703125 v -1.3203125 h 9.140625 v -2.5390625 h -5.078125 v -1.3203125 h 5.078125 v -2.5390625 z m -4.5703125,-14.625 q 0.5078125,0.1015625 -0.203125,0.609375 v 2.234375 h 7.71875 v -3.046875 l 1.625,0.203125 q 0.5078125,0.1015625 -0.203125,0.609375 v 2.234375 h 4.5703125 v 1.3203125 h -4.5703125 v 8.125 h 6.09375 v 1.3203125 h -6.90625 q 2.640625,2.7421875 7.109375,4.1640625 l -0.8125,1.421875 q -5.1796875,-1.9296875 -8.0234375,-5.5859375 h -5.6875 q -2.9453125,4.0625 -7.921875,5.7890625 l -0.9140625,-1.3203125 q 4.7734375,-1.625 7.0078125,-4.46875 h -6.6015625 v -1.3203125 h 6.09375 v -8.125 h -4.5703125 v -1.3203125 h 4.5703125 v -3.046875 z m -0.203125,5.9921875 h 7.71875 v -1.828125 h -7.71875 z m 0,3.1484375 h 7.71875 v -1.828125 h -7.71875 z m 0,3.1484375 h 7.71875 v -1.828125 h -7.71875 z"
                         id="path104862" />
                    <path
                         d="m 204.0585938,47.79492187 -5.078125,4.46875 q -0.203125,0.9140625 -0.5078125,0.5078125 l -0.9140625,-1.7265625 q 2.7421875,-1.7265625 5.9921875,-4.7734375 z m -4.875,-5.3828125 q 1.625,1.015625 3.3515625,2.5390625 l -0.9140625,1.3203125 q -1.9296875,-1.828125 -3.3515625,-2.640625 z m 5.078125,-1.421875 -0.9140625,1.421875 q -2.03125,-1.7265625 -3.859375,-2.640625 l 0.9140625,-1.3203125 q 1.9296875,1.015625 3.859375,2.5390625 z m 4.7734375,-3.1484375 q 0.5078125,0.203125 -0.3046875,0.609375 -0.609375,1.421875 -1.21875,2.640625 h 3.7578125 q 1.1171875,-1.7265625 1.625,-3.5546875 l 1.7265625,0.5078125 q 0.609375,0.3046875 -0.40625,0.5078125 -0.609375,1.3203125 -1.421875,2.5390625 h 6.6015625 v 1.3203125 h -6.5 v 1.9296875 h 5.5859375 v 1.3203125 h -5.5859375 v 1.625 h 5.5859375 v 1.3203125 h -5.5859375 v 2.03125 h 7.109375 v 1.3203125 h -10.4609375 v 2.3359375 h 10.96875 v 1.3203125 h -10.96875 v 5.3828125 h -1.421875 v -5.3828125 h -10.8671875 v -1.3203125 h 10.8671875 v -2.3359375 h -1.015625 v 0.8125 h -1.421875 v -8.734375 q -0.7109375,1.1171875 -1.625,2.03125 l -1.015625,-1.21875 q 3.1484375,-2.9453125 4.3671875,-7.3125 z m -1.9296875,6.5 h 4.3671875 v -1.9296875 h -4.3671875 z m 0,2.9453125 h 4.3671875 v -1.625 h -4.3671875 z m 0,3.3515625 h 4.3671875 v -2.03125 h -4.3671875 z"
                         id="path104864" />
                    <path
                         d="m 245.4960938,48.30273437 v 10.96875 q 0,1.7265625 -1.828125,1.7265625 h -1.421875 l -0.40625,-1.5234375 h 1.625 q 0.609375,0 0.609375,-0.609375 v -4.671875 h -2.7421875 v 6.296875 h -1.421875 v -6.296875 h -2.234375 v 6.296875 h -1.421875 v -6.296875 h -2.5390625 v 6.8046875 h -1.421875 v -12.6953125 z m -6.1953125,-10.359375 q 0.9140625,0.203125 0,0.609375 2.5390625,3.65625 7.515625,6.90625 l -1.015625,1.421875 q -5.078125,-3.65625 -7.4140625,-7.2109375 -2.7421875,4.9765625 -7.0078125,8.0234375 l -1.015625,-1.21875 q 4.5703125,-3.046875 7.4140625,-8.8359375 z m 3.3515625,6.8046875 v 1.5234375 h -7.71875 v -1.5234375 z m -8.9375,8.125 h 2.5390625 v -3.25 h -2.5390625 z m 3.9609375,0 h 2.234375 v -3.25 h -2.234375 z m 3.65625,0 h 2.7421875 v -3.25 h -2.7421875 z m -11.171875,-14.421875 v 1.5234375 h -5.5859375 v -1.5234375 z m 1.625,3.5546875 v 1.5234375 h -8.4296875 v -1.5234375 z m -1.625,3.65625 v 1.5234375 h -5.5859375 v -1.5234375 z m 0,3.453125 v 1.5234375 h -5.5859375 v -1.5234375 z m 0.3046875,3.65625 v 8.0234375 h -1.421875 v -1.21875 h -3.5546875 v 1.421875 h -1.421875 v -8.2265625 z m -4.9765625,5.484375 h 3.5546875 v -4.1640625 h -3.5546875 z"
                         id="path104866" />
                </g>
            </g>
        </g>
    </g>
</svg>
