<?xml version="1.0" encoding="UTF-8" standalone="no"?>
<!-- Created with Inkscape (http://www.inkscape.org/) -->

<svg
     width="500"
     height="500"
     viewBox="0 0 500 500"
     version="1.1"
     id="svg5"
     sodipodi:docname="azure-logo.svg"
     inkscape:version="1.1 (c68e22c387, 2021-05-23)"
     inkscape:export-filename="C:\Program Files\XAMPP\htdocs\koko-campus.org\subjects\azure入門\pics\azure-logo.png"
     inkscape:export-xdpi="96"
     inkscape:export-ydpi="96"
     xmlns:inkscape="http://www.inkscape.org/namespaces/inkscape"
     xmlns:sodipodi="http://sodipodi.sourceforge.net/DTD/sodipodi-0.dtd"
     xmlns="http://www.w3.org/2000/svg"
     xmlns:svg="http://www.w3.org/2000/svg">
    <sodipodi:namedview
         id="namedview7"
         pagecolor="#ffffff"
         bordercolor="#666666"
         borderopacity="1.0"
         inkscape:pageshadow="2"
         inkscape:pageopacity="0.0"
         inkscape:pagecheckerboard="0"
         inkscape:document-units="px"
         showgrid="false"
         units="px"
         width="600px"
         inkscape:zoom="0.7500982043"
         inkscape:cx="226.636991030589"
         inkscape:cy="348.621018555877"
         inkscape:window-width="1920"
         inkscape:window-height="1009"
         inkscape:window-x="-8"
         inkscape:window-y="-8"
         inkscape:window-maximized="1"
         inkscape:current-layer="layer1" />
    <defs
         id="defs2" />
    <g
         inkscape:label="レイヤー 1"
         inkscape:groupmode="layer"
         id="layer1">
        <g
             id="g833"
             transform="matrix(0.72835208704311,0,0,0.72835208704311,80.1591666372052,183.631732022272)">
            <path
                 style="fill:#d2e6f6;stroke-width:1.26984"
                 d="m 56.7334452578891,333.789964282718 c 0.6634920501708,-0.614669348484 9.20634902151,-2.373693597045 18.9841266029759,-3.90894277458 9.7777775814658,-1.535249177535 26.634920100162,-4.442034880808 37.460316708213,-6.45952378505 24.389182221416,-4.545321182845 44.49291847308,-8.103914759368 63.492062217311,-11.23882854104 8.03174587049,-1.325261346472 25.74603122912,-4.435673885314 39.365078574733,-6.912027864094 13.619047345613,-2.47635397878 31.619046984221,-5.631510484789 39.999999196906,-7.011458902242 8.380952212685,-1.379948417453 27.809523251182,-4.777401533261 43.174602307771,-7.549895812906 15.365079056589,-2.772494279644 33.377819766335,-5.940215587217 40.028312688325,-7.039380683493 6.650492921989,-1.099165096276 15.054406306419,-2.633846190335 18.67536307651,-3.410402431239 l 6.583557763805,-1.411920438008 -5.342030010877,-6.696709308607 c -5.340546141082,-6.694849145962 -42.554912346631,-51.319742345237 -48.796320232399,-58.513171146355 -1.817941908527,-2.095238113404 -5.65129504058,-6.666666724466 -8.518562515674,-10.158730246804 -2.867267475093,-3.492063522339 -6.709821549348,-8.063492133401 -8.539009053899,-10.158730246804 -1.829187504549,-2.095238113404 -13.819464938765,-16.361569577333 -26.645060964922,-31.702958808733 -12.825596026157,-15.3413892314 -26.46212258186,-31.407872213587 -30.303392346007,-35.703295515972 -13.511464255373,-15.108925427101 -18.4237476686,-20.998634897392 -19.559128953011,-23.450924414301 -0.630537000495,-1.361885471928 -1.534900099428,-2.476155403506 -2.009695775408,-2.476155403506 -0.47479567598,0 -2.711030930413,-2.2992978427407 -4.969411676519,-5.1095507616446 l -4.1061468111,-5.1095507616446 5.930625045062,-16.1602906926012 c 3.261843774785,-8.8881598809313 8.191205054496,-22.1602907446198 10.954136177135,-29.4936241415314 2.762931122641,-7.3333333969116 6.952175024921,-19.1415793051657 9.309430893956,-26.240546462787 2.357255869036,-7.0989671576213 5.51231052251,-15.38468151517067 7.011232563275,-18.412698572332054 1.498922040764,-3.028017057161435 5.173486093032,-12.362628475068245 8.165697893926,-20.743580928681545 12.639626791995,-35.4026112534746 17.502681488114,-48.8905934585138 21.51837487503,-59.6825401999733 3.977597094276,-10.6895651297174 17.786204347426,-48.5700838314923 20.020250785321,-54.9206353967843 0.552809373603,-1.571428585052 1.447822712868,-2.850134498193 1.988918531699,-2.841568695867 0.915159949927,0.01448741416 8.145438182562,11.724020173451 15.61228410914,25.284303914914 1.759946281681,3.196178303933 5.650222567701,9.900243568808 8.645058413378,14.8979228108366 2.994835845676,4.9976792420271 6.69773683663,11.4181632876519 8.228668868786,14.2677423236091 3.201806415724,5.9596378204915 14.826286867658,26.0110560321815 19.95636983743,34.4233464241287 1.916614535824,3.142857170105 5.081552540126,8.5714286457409 7.033195565116,12.0634921680797 1.951643024989,3.4920635223389 6.807385001459,12.0634921680798 10.790537725488,19.0476192127575 3.98315272403,6.9841270446777 9.832817000271,17.269841419567 12.999253947201,22.85714305530927 3.16643694693,5.58730163574217 7.377017989932,12.68955600950343 9.356846762226,15.78278749724673 1.979828772292,3.0932314877433 5.323158717228,8.8075172515705 7.429622099856,12.6984128085049 3.974294547144,7.3410082145058 10.628516977828,18.8534833207772 20.970284747701,36.2807050176234 3.31565047959,5.5873016357422 7.550476549073,13.0158731287176 9.410724598851,16.5079366510565 1.860248049776,3.4920635223388 6.737378240912,12.0634921680796 10.838067091413,19.0476192127576 4.100688850501,6.984127044678 10.393271909555,17.841269995949 13.983517909012,24.126984336159 6.633575874806,11.613901389896 15.44852261698,26.892180131329 28.390066625435,49.206349632957 3.949318069631,6.809523868561 10.235314139701,17.666666819833 13.968880155709,24.126984336159 3.733566016009,6.460317516327 10.098913454315,17.460317611695 14.14521652957,24.444444656372 4.046303075255,6.984127044678 10.216860835162,17.84126999595 13.71235057757,24.12698433616 3.495489742407,6.28571434021 7.32865799288,12.857142968611 8.518151667718,14.603174729781 1.189493674837,1.746031761169 3.901280643392,6.317460372231 6.026193263457,10.158730246804 2.124912620064,3.841269874572 8.010631935169,14.126984249461 13.079376255789,22.857143055309 12.049848921023,20.754073990089 20.270090741112,35.437653515449 20.270090741112,36.207875132823 0,0.339637106512 -114.399997703151,0.617522011841 -254.222217118113,0.617522011841 -146.458341520449,0 -253.7108500760665,-0.473738376354 -253.0158679359829,-1.117580633608 z m -151.8095207615901,-55.950334788935 c 0,-0.657194485817 0.5856559246301,-1.556854342661 1.3014576102879,-1.99924412632 0.7158016856591,-0.442389783659 3.3073051510762,-4.618970959511 5.7588965898166,-9.281291501895 2.4515914387417,-4.662320542383 5.6559986638546,-10.476946458037 7.1209049446958,-12.921390923674 7.67543316797,-12.807761407119 17.2351460564274,-29.236083986568 19.9510075361388,-34.285714582963 1.6903344832041,-3.142857170105 5.5592175895538,-9.817161285565 8.5975180141122,-14.831786923245 3.0383004245571,-5.014625637679 5.5241825901049,-9.397558948865 5.5241825901049,-9.739851802635 0,-0.34229285377 3.3426214239328,-6.239417418731 7.4280476087387,-13.104721255466 4.0854261848072,-6.865303836738 10.5682636076775,-17.910942087885 14.4063053841563,-24.545862780329 22.8625385341399,-39.523053378827 31.99268585408021,-55.462787170923 35.4727042790641,-61.9295005086269 2.1537932130598,-4.0022671137488 4.5693736892775,-8.0777446887838 5.3679566138167,-9.0566168334101 1.6843159738444,-2.0645695504924 12.63787447923,-21.1365360848082 19.0337180218584,-33.1408676877033 2.4187185483718,-4.5396825790405 5.8936369784307,-10.4410122249618 7.7220409556843,-13.1140658798242 1.8284039772549,-2.6730536548636 4.7368007644544,-7.6473938771443 6.4631039715561,-11.0540893828472 1.7263032071016,-3.4066955057028 6.142109645658,-11.2342306047899 9.8129031967937,-17.3945224424153 3.6707935511344,-6.16029183762374 7.770635373882,-13.34084550372257 9.1107596061048,-15.95678592466118 2.5265793784945,-4.9319167312957 7.8187760355707,-10.13500019704942 23.5113560630779,-23.11545770425872 5.0660297224513,-4.1904762268066 12.2058865964768,-10.1904762788252 15.8663486089468,-13.3333334489302 12.59182602867,-10.8112884614291 29.357470705581,-24.9559593002138 56.527671401726,-47.690698489005 14.976970746923,-12.5320209290089 34.350218321357,-28.7854926502159 43.051661276523,-36.1188260471279 8.701442955166,-7.333333396912 21.018985876692,-17.549739628697 27.372317603391,-22.703124959523 6.353331726701,-5.153385330826 16.5808689407,-13.647838116976 22.727860475554,-18.876561747 6.146991534855,-5.228723630024 11.423726039394,-9.259392435081 11.726076676753,-8.957041789016 0.86672200662,0.866722031573 -7.235031913633,19.330819772755 -19.538223839,44.528095793004 -10.243156603307,20.978266925998 -26.035037060804,54.4013512449877 -47.837483283434,101.2467287663237 -4.388179457327,9.428571510315 -10.52464484518,22.57142876711693 -13.636589750784,29.206349459560822 -3.111944905603,6.634920692443806 -8.951457380967,19.206349372864377 -12.976694389697,27.936508178711477 -4.025237008729,8.7301588058472 -9.900905996054,21.3015874862671 -13.057042194056,27.9365081787109 -3.156136198001,6.6349206924436 -7.409519847907,15.7777779145675 -9.451963666458,20.317460493608 -2.04244381855,4.5396825790405 -5.345337261038,11.6825397838241 -7.339763205527,15.8730160106312 -14.684393562886,30.8532900408639 -19.064662183704,40.2271652723649 -19.064662183704,40.7988139794559 0,0.360343635167 -3.065182960126,7.04230964561 -6.81151768917,14.84881335654 -13.513686206297,28.159427586635 -17.226112108485,36.09977862542 -22.398216041108,47.90659872945 -2.8915212096031,6.600731770571 -6.042502795329,13.219396445477 -7.0021813016142,14.708143722012 -0.9596785062865,1.488747276535 -4.1337823695074,8.345890193128 -7.0535641404935,15.238095370206 -2.9197817709849,6.892205177079 -6.0262017182431,13.388425004716 -6.9031554383503,14.436044061418 -0.8769537201085,1.047619056701 -2.0310852673138,3.333333362232 -2.5647367715671,5.079365123402 -0.5336515042547,1.746031761169 -4.2781665897007,10.174603262814 -8.321144634324,18.730158892544 l -7.3508691720432,15.555555690419 h -76.2734956637854 c -46.8132660624956,0 -76.2734956637856,-0.461523370635 -76.2734956637853,-1.194899065121 z"
                 id="path847" />
            <path
                 style="fill:#a7ceee;stroke-width:1.26984"
                 d="m 59.2731277465815,333.825638537986 c 0.6634920501709,-0.595048508087 14.0634917811343,-3.21766742002 29.7777771799187,-5.828042026516 15.7142853987848,-2.610374606497 35.7142849972378,-6.097418401252 44.4444435521178,-7.748986210569 17.694353704131,-3.347410565419 68.029863953282,-12.185543406112 112.24005646239,-19.707608488544 15.986000226744,-2.719909760369 36.557428385153,-6.371747217626 45.714284796464,-8.115194349458 9.156856411313,-1.743447131832 28.9345438778,-5.204439982544 43.950416592194,-7.691095223806 15.015872714394,-2.48665524126 28.064517614275,-4.787197353303 28.996988666401,-5.112315804538 1.112662731992,-0.387944680264 -1.749608431723,-4.627880613314 -8.327396140283,-12.335528014088 -5.512538929284,-6.459421956514 -17.451053123394,-20.601546491229 -26.530031542467,-31.42694341048 -9.078978419073,-10.82539691925 -24.174753360582,-28.825397075306 -33.546166536685,-40.00000034679 -9.371413176103,-11.174603271485 -23.003272754389,-27.460317698392 -30.293021285079,-36.19047650424 -7.289748530689,-8.730158805847 -16.732359043864,-19.816395592442 -20.983578918168,-24.636081747989 -4.251219874303,-4.819686155546 -14.661635660809,-17.055157875836 -23.134257303347,-27.189937156197 l -15.404766622796,-18.4268714188415 1.907210785184,-4.5560948650647 c 1.780801917019,-4.254119436015 6.49310081137,-17.2295196063308 24.021413782696,-66.1433969863138 3.879286521603,-10.82539691925039 7.510232931052,-20.25396842956529 8.068769798777,-20.95238113403308 0.558536867724,-0.69841270446778 3.045998698116,-6.98412704467773 5.527692956428,-13.96825408935562 2.481694258311,-6.9841270446777 8.28220866636,-22.984127183394 12.890032017886,-35.5555558638139 8.833930662137,-24.1014294200395 18.068106181289,-49.6128482576264 25.944432165041,-71.6771382667614 2.604265831249,-7.295441641201 5.303459412679,-13.453916229283 5.998207958734,-13.685499084626 0.694748546055,-0.231582855342 8.585416894154,12.308843479497 17.534818551332,27.867614077421 8.949401657177,15.5587705979215 18.948270119131,32.8601024254667 22.219707693231,38.4474040612089 3.2714375741,5.5873016357422 9.570912281692,16.4444445870139 13.998832683539,24.1269843361595 4.427920401847,7.6825397491455 10.721871369553,18.5396827004172 13.986557706013,24.1269843361594 3.264686336462,5.5873016357422 12.658358176176,21.873016062649703 20.874826310477,36.1904765042392 18.161210018051,31.6464935729912 28.419375749031,49.4249578016495 36.268543002456,62.8571434020996 3.264968661005,5.5873016357421 11.837365622057,20.444444621693 19.049771024559,33.0158733021144 7.212405402503,12.57142868042 17.088550806102,29.714285971901 21.946989785775,38.095238425515 9.403918244402,16.222040044909 13.589873308417,23.505858389013 26.271652916418,45.714286110618 4.386995655419,7.682539749145 9.826581371927,17.11111125946 12.087968258908,20.952381134033 2.261386886979,3.841269874573 15.119453010771,26.126984353499 28.573480275092,49.523809953169 13.45402726432,23.396825599671 27.455488623735,47.682540095936 31.114358576475,53.968254436146 3.658869952742,6.28571434021 7.315172560938,12.714285824516 8.125116907103,14.285714409568 l 1.472626083937,2.857142881914 h -252.997053661425 c -139.463806124859,0 -252.4557005573953,-0.485508992637 -251.7907044792965,-1.08190637834 z m -152.6302691870113,-56.669511855097 c 0.6222744027788,-1.62162114627 26.6874755394038,-47.217004570513 46.1110832981974,-80.661281379267 8.9515886965044,-15.413172154306 39.03758413415641,-67.532792840944 50.21149493807285,-86.984127738259 5.21568401182509,-9.079365158081 15.92522908991415,-27.6507938905198 23.79898906242155,-41.2698416276414 7.8737599725062,-13.6190477371216 20.9664443282975,-36.4057615237246 29.0948541239792,-50.6371417480077 8.1284097956818,-14.23138022428364 16.3015584644856,-27.42434160281088 18.1625525973427,-29.3176919522829 2.8740767073032,-2.9240469070296 27.6053180499111,-24.0531691529366 46.1289546795881,-39.410246699656 4.957731520443,-4.110222465349 19.330603696042,-16.2087501128486 56.519163527217,-47.5756448810894 8.03174587049,-6.7744201084586 25.387326578654,-21.2698253139686 38.567957129254,-32.2120115678006 13.180630550599,-10.942186253831 30.320010380054,-25.191029337369 38.087510732123,-31.664095741195 7.767500352069,-6.473066403827 14.29429616578,-11.254506869742 14.503990697137,-10.625423257588 0.209694531356,0.629083612153 -2.571501194794,7.353800292604 -6.180434947002,14.943814845447 -3.608933752208,7.590014552843 -8.424044895041,17.800026494393 -10.700246984077,22.688915425668 -2.276202089033,4.888888931274 -8.698838339368,18.317460476268 -14.272525000743,29.841270099987 -5.573686661375,11.5238096237178 -13.712086592202,28.6666669151995 -18.085333179618,38.0952384255145 -4.373246587414,9.4285715103149 -14.101305706217,30.2857145482843 -21.617909152896,46.3492067510432 -7.516603446678,16.06349220275824 -17.503294143732,37.4920638171109 -22.192645993454,47.6190480318936 -4.689351849721,10.1269842147827 -10.402355328174,22.4126986070113 -12.695563285451,27.3015875382856 -2.293207957276,4.8888889312745 -8.190826240827,17.4603176116943 -13.105818407891,27.9365081787109 -4.914992167063,10.4761905670166 -10.328632761097,22.1904763828622 -12.030312431187,26.0317462574352 -1.701679670088,3.841269874573 -7.667996951587,16.698412843184 -13.258482847773,28.571428819136 -5.590485896187,11.873015975952 -14.027469134933,29.873016132008 -18.748851641657,40.000000346791 -8.7904215401532,18.854744357532 -10.9588773332296,23.514530786249 -26.29626168758,56.507936997847 -4.8699840284838,10.476190567017 -11.7658619546398,25.190476408872 -15.3241731692352,32.6984129819 l -6.4696567538092,13.650793769143 h -75.4645728571783 c -66.0872434940419,0 -75.3750039855861,-0.233412744561 -74.7437624457811,-1.878401876015 z"
                 id="path845" />
            <path
                 style="fill:#85bbe8;stroke-width:1.26984"
                 d="m 61.7493181730566,333.734199427932 c 1.3968253687808,-0.556800423613 14.8253965277421,-3.141300446822 29.8412692421361,-5.74333338491 15.0158727143943,-2.602032938088 44.7301578320953,-7.821921646297 66.0317447060033,-11.599752684909 71.388209928007,-12.660680955524 81.800963882085,-14.49861061431 104.12698203639,-18.379198184129 12.222221976832,-2.124400435003 36.507935774953,-6.384767875274 53.968252884714,-9.467483200603 17.46031710976,-3.082715325329 35.746031028346,-6.269165166742 40.634919819079,-7.080999647585 4.888888790733,-0.811834480843 9.105255459033,-1.668723448865 9.369703707332,-1.904197706716 0.264448248301,-0.235474257851 -10.898123705852,-14.021292188692 -24.805715453673,-30.635150957424 -13.90759174782,-16.613858768733 -41.779144436041,-49.921301828354 -61.936783751602,-74.016540132493 -20.15763931556,-24.095238304138 -37.304063744247,-44.380952765724 -38.103165397081,-45.079365470192 -1.602269478191,-1.400379232832 -21.359204858955,-24.447349640439 -29.133298727913,-33.9847380536545 l -4.926722744854,-6.0441858837731 3.511001760951,-9.8268081312723 c 6.832348664851,-19.1227985591324 17.431900275821,-48.1403896882053 23.766921359354,-65.0649038482689 22.073434775393,-58.9709417682116 28.521487637803,-76.4621130547499 45.524873511553,-123.4920645627122 5.744528806913,-15.888889026642 10.790987244152,-28.888889139349 11.214352082755,-28.888889139349 0.423364838602,0 6.277395315183,9.571428654411 13.008956614626,21.269841454246 6.731561299441,11.698412799835 18.676880294747,32.4126986937103 26.545153322902,46.0317464308319 7.868273028156,13.6190477371216 20.3947735563,35.333333639665 27.836667840321,48.2539686723189 7.441894284023,12.92063503265394 20.307620889159,35.20634951158 28.590503566971,49.5238099531694 8.282882677812,14.3174604415893 17.164553995341,29.7460320039228 19.737047372286,34.2857145829634 2.572493376944,4.5396825790405 9.973534123735,17.3968255476518 16.446757215091,28.5714288191362 6.473223091355,11.1746032714832 17.231194913266,29.7460320039212 23.90660404869,41.2698416276402 6.675409135426,11.523809623718 14.230691775441,24.666666880521 16.789516977811,29.206349459561 4.089479456028,7.255258634575 15.362136642991,26.798418023271 39.552571743074,68.571429165927 44.256426857751,76.423768510749 59.454257157665,103.076132603238 59.454257157665,104.264653397507 0,0.659466477468 -105.109357044892,1.098566388625 -251.746026691637,1.051682372172 -138.4603146804,-0.0442697975 -250.6031695717241,-0.536054523869 -249.2063442029444,-1.092854947482 z m -155.0172954143991,-56.810430929928 c 0.4454860357669,-1.160918033496 3.552343271124,-6.732346653228 6.904127189683,-12.380952488293 3.3517839185578,-5.648605835066 9.7169965443434,-16.555906767601 14.1449169461904,-24.238446516747 4.427920401847,-7.682539749146 10.7136345613608,-18.539682700417 13.9682536878084,-24.126984336159 10.4767921565032,-17.985821283255 20.8966062769707,-36.023748238498 42.5452208684431,-73.650794289329 23.58705389721803,-40.996210609415 33.7564459293723,-58.5974257411857 42.552959838312,-73.6507942893284 3.2649686610043,-5.5873016357429 11.8222784252292,-20.4444446216933 19.0162439204974,-33.0158733021136 28.4988192268527,-49.8015835108183 24.7136737857132,-44.75443069474405 48.9014453164664,-65.2057024696014 11.8730156346368,-10.0388855261992 36.6642997923758,-30.9029909777604 55.0917425727518,-46.3646787812484 18.427442780376,-15.4616878034879 39.856013778718,-33.4658331197522 47.619046662983,-40.0092118139202 7.763032884265,-6.54337869417 20.971747963587,-17.5621574488 29.352700176272,-24.48617501029 8.380952212685,-6.92401756149 21.095237671701,-17.457470032364 28.253967686703,-23.407672157498 7.158730015002,-5.950202125132 13.015872754549,-10.456780527715 13.015872754549,-10.014618672404 0,1.035676726058 -13.963991161342,30.926843641692 -26.942011206294,57.671774831803 -11.103194016352,22.8813146326817 -16.586673653666,34.4777128983588 -27.654281762983,58.4829499306475 -4.025037381022,8.7301588058472 -13.745710777432,29.5873018438166 -21.601496436469,46.3492067510431 -7.855785659039,16.76190490722656 -17.569609002925,37.619047945196 -21.586274097527,46.3492067510431 -4.016665094603,8.7301588058472 -10.285968591659,22.1587303508411 -13.931785549016,29.8412700999867 -3.645816957356,7.6825397491455 -8.062423022755,17.1111112594605 -9.81468014533,20.9523811340332 -1.752257122574,3.8412698745727 -7.058328568295,15.2698414022274 -11.791269879378,25.3968256170104 -4.732941311082,10.126984214782 -14.448771918397,30.984127252752 -21.59073468292,46.349206751043 -15.5232451968604,33.39640717619 -27.222299263248,58.497519037393 -36.1024824252939,77.46031813188 -3.5976946115482,7.682539749146 -9.6625277454661,20.679018120536 -13.4774069642614,28.881063047534 l -6.936144034173,14.912808958177 -75.3739525237494,0.0078260919 c -69.7486410142933,0.0072420147 -75.3135024697707,-0.149704228233 -74.5639779132648,-2.102933969169 z"
                 id="path843" />
            <path
                 style="fill:#6faee4;stroke-width:1.26984"
                 d="m 60.0097173785508,334.319103412614 c 0.3236428177383,-0.323642827041 13.7045949300365,-2.912416605125 29.7354491384409,-5.752830617961 71.2960681823193,-12.632536513186 109.4151286916103,-19.350968419661 147.8771639980153,-26.063146456644 22.698412242689,-3.961199216733 58.412697239926,-10.254831558745 79.365077771639,-13.985849648914 20.952380531712,-3.731018090169 40.523808710199,-7.155475046015 43.492062618858,-7.609904346325 2.968253908659,-0.45442930031 5.393374715785,-1.204579191357 5.389157349169,-1.666999757882 -0.0073575795,-0.806734724334 -10.621030711573,-13.682763676478 -46.293472516546,-56.161150339063 -22.702255733796,-27.033618905185 -78.64431757381,-93.276191071734 -97.20682839027,-115.105345297051 l -15.344450350845,-18.0447772676465 6.267063734265,-17.5107785961674 c 13.680107729683,-38.2235362178386 21.815951335379,-60.3138278721245 29.365625380247,-79.7330013578427 4.34439768214,-11.17460327148469 10.655384909757,-28.03174627477499 14.024416061371,-37.46031778508989 3.369031151613,-9.428571510315 9.662637030313,-26.8571430899881 13.985790841556,-38.7301590659402 4.323153811244,-11.8730159759522 10.484233259384,-28.8730161233383 13.691287662537,-37.7777781053023 3.207054403152,-8.904761981964 6.146348817057,-16.174729821675 6.531765364233,-16.155484088245 0.385416547175,0.01924573342 6.415042958059,10.057443812724 13.399169801963,22.307106842877 14.073594056891,24.6840855948296 20.174171485504,35.2844955031695 41.221133194344,71.626155697461 7.887355027305,13.6190477371215 20.758315733961,35.90476221604799 28.602134903679,49.52380995316955 7.843819169718,13.61904773712135 17.571743937232,30.47619074041175 21.617610594477,37.46031778508945 4.045866657245,6.9841270446777 13.779146688693,23.8412700479681 21.629511180997,37.4603177850897 7.850364492306,13.6190477371216 19.387239565523,33.6190479105173 25.637500162705,44.4444448297673 6.250260597182,10.825396919251 16.80267877421,29.111111363498 23.449818171173,40.634920987216 6.647139396965,11.523809623718 20.824745992025,36.095238408175 31.505792433467,54.603175076571 10.681046441443,18.507936668396 24.989801941026,43.365079741045 31.79723444352,55.238095716997 6.807432502493,11.873015975952 17.003172609834,29.587301843817 22.657200238535,39.365079706365 5.654027628702,9.777777862549 10.283359459204,18.206349364194 10.28740406778,18.730158892545 0.0040446086,0.523809528351 -113.230739130796,0.952380960638 -251.632852754164,0.952380960638 -138.402113623367,0 -251.3754079188831,-0.26479867667 -251.0517651011462,-0.588441503712 z m -153.8159516379056,-56.290377866562 c 0,-0.564268670079 0.5145656132397,-1.568800184072 1.143479140534,-2.232292253317 1.0379112368554,-1.094977042706 13.6648708283668,-22.766354201857 25.4888914478517,-43.746032125299 2.5585378677577,-4.539682579041 7.8062500596381,-13.682539801164 11.6615826486231,-20.317460493608 14.9020542221052,-25.646022913992 47.31511055744338,-81.753431184908 57.58626003166651,-99.682540546764 3.60093244106787,-6.28571434021 9.7812552358176,-17.0031475507215 13.7340506549994,-23.8165182455823 18.3663279385658,-31.6577478160412 22.4696140661179,-38.7503549542561 36.1770375386322,-62.5326888522504 8.0508824237234,-13.9682540893555 16.0389086964319,-27.8613626708142 17.7511694949076,-30.87357462546269 1.9766992433734,-3.47741249284554 9.1995241598172,-10.59876629557101 19.7853632395457,-19.50740511838641 9.1696889832722,-7.716860860464 20.9578759874376,-17.6297549505081 26.1959711203656,-22.0286535334303 5.238095132928,-4.3988985829221 22.966188748803,-19.3348521995308 39.395763590832,-33.1910080369087 16.42957484203,-13.8561558373767 36.715288720461,-30.8910254545642 45.079364174291,-37.8552658159712 8.36407545383,-6.964240361407 16.171258891352,-13.535668989809 17.349296527827,-14.603174729781 1.178037636475,-1.067505739973 7.036351739309,-5.940919561903 13.018475784076,-10.829808493177 5.982124044767,-4.888888931275 16.543105630802,-13.603174721111 23.468847968968,-19.36507953297 6.925742338166,-5.761904811859 12.889487225537,-10.476190567017 13.252766416379,-10.476190567017 0.738861588339,0 -5.654656303104,13.80967431449 -25.86774471251,55.873016357422 -7.551331724026,15.714285850525 -17.437802350659,36.5714288884957 -21.969934725851,46.3492067510445 -20.470893421831,44.1646077290607 -41.210390051598,88.6587017058553 -75.024045462714,160.9550602373881 -7.267360123562,15.5382098351344 -17.041611523988,36.5370049668844 -21.720558667613,46.6639891816664 -4.678947143624,10.126984214783 -10.513246852986,22.698412895203 -12.965110465249,27.936508178711 -5.855857350794,12.51029568557 -30.7955278264067,66.050862830365 -44.3627488317803,95.238096063788 -3.7334293917131,8.031746101379 -7.2808910652196,15.460317594354 -7.8832481633468,16.507936651056 -0.9506617245628,1.653390226869 -11.0061345688812,1.947986144532 -76.1950617371507,2.232292253317 -41.304926857307,0.180141682622 -75.0998670132841,-0.134144034389 -75.099867013284,-0.698412704468 z"
                 id="path841" />
            <path
                 style="fill:#4a96dc;stroke-width:1.26984"
                 d="m 61.2202176545786,334.420246116509 c 0.6858699454587,-0.631682619051 30.3527667941624,-6.284371420023 50.6878296701534,-9.657987776185 8.73015855488,-1.448345936879 31.587300953112,-5.445595818407 50.793649773849,-8.882777514506 50.673633353336,-9.068589072428 83.967865912707,-14.915257581403 109.206347013774,-19.177294713945 21.441368983682,-3.620816578267 80.639240054062,-14.136489344061 90.542050071094,-16.083527209279 l 4.827766077725,-0.949209703265 -11.214089620218,-13.33333344893 c -17.07931045181,-20.306966418498 -54.166610092192,-64.581402732934 -80.251879988972,-95.80386774282 -12.868757117598,-15.403111427057 -28.879419725878,-34.291371480313 -35.579250240621,-41.973911229459 -16.212891075716,-18.590944929673 -25.512736946775,-29.5535461394665 -29.510454738561,-34.7867428454123 l -3.292895683246,-4.3105521050007 4.994572286448,-14.1021464673315 c 7.155083629765,-20.2023379673083 21.263702998776,-58.3597455156466 32.446461098772,-87.7529407566604 2.391425034803,-6.2857143402099 12.629729649703,-34.2857145829634 22.751788033111,-62.2222227616743 23.467665014578,-64.7698907457088 22.266667826151,-61.5873021212488 23.24088514675,-61.5873021212488 0.457676490814,0 4.887283039268,7.000000060688 9.843570107675,15.555555690418 10.331150719304,17.833659244952 59.47558225218,102.958922798096 91.821212249621,159.047620426525 12.082968519191,20.9523811340332 26.091960245773,45.2380956302989 31.131092725737,53.9682544361461 5.039132479963,8.7301588058469 14.764157197389,25.5873018091379 21.611166038723,37.4603177850899 38.66140814176,67.040590593198 46.493418328295,80.61518280372 57.512937469823,99.682540546764 6.659907599321,11.523809623718 15.068398324843,26.095238321477 18.685534945606,32.380952661687 30.30096694263,52.655799988386 36.250925795878,62.954127099789 38.573643006281,66.764158098388 1.457523365596,2.390824496082 2.652178517395,4.775525061527 2.654789226219,5.299334589878 0.0026107088,0.523809528351 -112.947631941279,0.952380960638 -251.000539222452,0.952380960638 -138.052907281172,0 -250.7671907324519,-0.219284459918 -250.4761854472914,-0.487298799817 z m -153.7566106695872,-56.621018003454 c 0,-1.162291716188 15.2083701798053,-27.849037912842 61.8928882754611,-108.605970347719 30.6137803476152754,-52.957063539627 33.55583068093148,-58.035228152042 39.72706901631699,-68.571429165927 3.27258088569201,-5.5873016357406 17.27678736344651,-29.8730161320063 31.12045883945271,-53.9682544361445 13.8436714760061,-24.0952383041382 26.9261115328704,-46.850245069227625 29.0720890152541,-50.56668170019752 4.0337087619039,-6.98563853743729 9.7005178331808,-11.89347400013179 132.9546395889527,-115.14760545079398 54.517169757634,-45.670870331029 63.463907161857,-52.98587258671 64.067290574296,-52.382489156899 0.296227005264,0.296227013792 -6.386553468215,15.060613734378 -14.850623274399,32.809748267968 -27.127588929476,56.8864903653692 -27.18806171913,57.0144958641158 -44.040977058209,93.2235351782607 -4.875974509299,10.4761905670165 -11.283307789934,24.1904764002019 -14.238518401412,30.4761907404119 -2.955210611477,6.2857143402101 -12.681810519283,27.1428573781793 -21.614666461792,46.3492067510431 -14.551204076493,31.2862438494095 -35.76366510742,76.8110728484433 -48.81419415329,104.7619056701653 -6.780131002081,14.521274002185 -22.9889114113854,49.300146552199 -56.8140192253829,121.904762961648 l -9.4655178374229,20.317460493608 -74.4979594489129,0.327610756986 c -48.4763679917145,0.213178719676 -74.4979594489129,-0.110961585241 -74.4979594489129,-0.92799056241 z"
                 id="path839" />
            <path
                 style="fill:#2c88d7;stroke-width:1.26984"
                 d="m 78.8921749717305,331.14941035299 c 6.634920501709,-1.216862529319 25.7777772602285,-4.623415057335 42.5396816855985,-7.570116728924 16.76190442537,-2.946701671589 34.761904063977,-6.148946551922 39.999999196906,-7.116099734074 5.238095132928,-0.967153182151 26.380951851292,-4.650598069465 46.984126040809,-8.185433082918 20.603174189518,-3.534835013454 43.174602307772,-7.538514002156 50.158729151676,-8.897064419339 6.984126843904,-1.358550417182 23.269840802644,-4.235939441723 36.190475463867,-6.394197832314 12.920634661223,-2.158258390591 27.777777220074,-4.7838131656 33.015872353002,-5.834566166687 5.238095132928,-1.050753001088 16.009645401935,-2.983334750469 23.936778375571,-4.294626109738 7.927132973635,-1.311291359267 14.669415544549,-2.640612616708 14.982850157584,-2.954047238758 0.542321880301,-0.5423218959 -9.901439569694,-13.18634241652 -75.817530509676,-91.790531235036 -35.883654685365,-42.790850127249 -41.428210112489,-49.331301371476 -60.244953215965,-71.065964512172 -8.380952212685,-9.680589894824 -16.986144980518,-19.8649163226215 -19.122650595185,-22.6318365062201 l -3.884555663031,-5.0307639701781 5.563107461174,-15.3335482426439 c 3.059709103646,-8.4334515334548 8.361591656866,-23.0478340238118 11.781961229377,-32.4764055341268 7.711717886123,-21.2580781156016 15.294024663503,-41.6098357945755452 18.923822309337,-50.79365123401944 2.745818515662,-6.94724415478127 6.965205420557,-18.41829418125737 21.485895042737,-58.41269891912327 18.904821318633,-52.0696395961454 24.326177220405,-66.5655467368154 25.232553729174,-67.4681320332594 0.534735418269,-0.53249871477 7.776296444934,10.858562007006 16.092357837031,25.313468270614 18.740311331463,32.5742476966978 26.344821591175,45.7655311878695 35.281888158621,61.2022829754028 3.841269764147,6.6349206924439 10.126983923661,17.4920636437157 13.968253687808,24.1269843361595 17.789282153636,30.72694278504464 22.155199879906,38.3047254017209 28.89880880772,50.1587305935946 3.973190557042,6.9841270446777 10.566889986747,18.4126985723322 14.652665399346,25.3968256170099 4.085775412597,6.9841270446778 10.548524780448,18.1269842841408 14.361665261889,24.7619049765848 3.813140481442,6.6349206924438 10.083168092843,17.4920636437155 13.933394692004,24.1269843361594 3.850226599161,6.634920692444 9.098585297138,15.777777914567 11.663019328839,20.317460493608 2.564434031702,4.53968257904 9.154190988539,15.968254106695 14.643904348527,25.39682561701 13.576077016039,23.316884613361 22.768610052878,39.322085827906 29.537825838991,51.428571874445 3.124081611217,5.587301635742 6.179851270872,10.778567368226 6.790599243679,11.536146072188 0.610747972807,0.757578703961 3.301290125218,5.329007315023 5.978982560913,10.158730246804 2.677692435696,4.829722931782 11.34333482596,19.924171660883 19.256983089477,33.543219398005 7.913648263517,13.619047737121 17.95614860684,31.047619316794 22.316667429607,38.73015906594 4.360518822767,7.682539749145 11.661620224575,20.396825573661 16.224669781798,28.253968498923 l 8.296453740404,14.285714409568 -247.84389662045,-0.137907978226 c -239.6180776273482,-0.133330879165 -247.4435151646216,-0.211339030023 -235.7804047991595,-2.350385304259 z m -171.4285679867391,-54.400596099617 c 0,-0.558730163574 0.5356475220037,-1.558730172244 1.1903278266753,-2.222222241488 0.6546803046704,-0.663492069245 4.5753275262856,-7.206349268827 8.7125493813659,-14.539682665738 4.1372218550803,-7.333333396912 10.744431332524,-18.904762068662 14.6826877276523,-25.714285937223 3.9382563951296,-6.809523868561 10.2066053051432,-17.666666819832 13.9296642444753,-24.126984336159 3.7230589393321,-6.460317516327 10.105473065712,-17.460317611695 14.1831425030672,-24.444444656372 4.0776694373541,-6.984127044678 10.4546362907145,-17.987222234805 14.171037451911,-24.451322644725 6.9626026653637,-12.110361823479 9.7841792960066,-16.999880784662 35.35279204153896,-61.262963812684 8.27049487941704,-14.3174604415892 17.14429846254974,-29.7460320039229 19.71956351807444,-34.2857145829634 2.5752650555235,-4.5396825790405 7.8249987178128,-13.682539801164 11.6660748050878,-20.3174604936079 9.366179758663,-16.1787630543905 26.1511285694941,-45.199572734508805 29.5926280384588,-51.16500716906718 1.6374823682501,-2.83838303438079 11.8486480140496,-12.42809523404543 24.8682631154755,-23.35477598299813 12.1494974070341,-10.1964365607359 30.3133947889911,-25.4578979522975 40.3642164043501,-33.9143586479165 72.233838465052,-60.7753912316909 120.74937405385,-101.2273925482779 128.664428844341,-107.2797317775289 2.309436600845,-1.765937710696 -7.97076431701,21.356360515802 -25.335025860795,56.983713471199 -5.616539756337,11.523809623718 -16.337944195697,34.0952383908353 -23.825343198577,50.1587305935942 -18.960343300061,40.6775873230499 -38.714233468796,82.9682754191873 -49.031687561147,104.9709089077393 -4.802638943416,10.2419359954478 -10.784438533259,23.0990789640592 -13.292887977429,28.5714288191361 -5.516749203736,12.0351565289592 -14.753586161306,31.8830382799844 -33.292009837426,71.5370291304794 -7.673012298511,16.412698554993 -17.790476774333,38.126984457537 -22.4832543907147,48.253968672319 -4.6927776163821,10.126984214783 -10.689233645212,22.984127183394 -13.3254578418429,28.571428819137 -7.1234345179111,15.097645103511 -22.0403675649303,47.47675680563 -24.7167158601969,53.650794115933 l -2.3394391465312,5.396825443615 h -74.7277771139064 c -41.10027741265,0 -74.7277771139077,-0.457142861107 -74.7277771139075,-1.015873024681 z"
                 id="path837" />
            <path
                 style="fill:#0076d2;stroke-width:1.26984"
                 d="m 72.5429687499994,332.915845272192 c 5.751325593782,-1.290063605568 67.4257032773836,-12.480280804415 86.9841252377156,-15.782425227788 12.571428319028,-2.122495976501 28.857142277768,-5.009732677332 36.190475463867,-6.416081557403 7.3333331861,-1.406348880071 21.904761464973,-3.916648563343 32.380951730829,-5.578443740602 10.476190265856,-1.661795177261 31.619046984221,-5.307489298318 46.98412604081,-8.101542491238 15.365079056589,-2.79405319292 41.650792814556,-7.496673991475 58.412697239926,-10.450268441231 31.807961453277,-5.604841551556 33.650792975174,-6.010733969231 33.650792975174,-7.41174738716 0,-0.471523696986 -6.71428557948,-8.7751343971 -14.920634621068,-18.452468222473 -8.206349041587,-9.677333825374 -16.920634580913,-20.039060054683 -19.365078976279,-23.026058287356 -2.444444395367,-2.986998232671 -7.873015714947,-9.502484013014 -12.063491821289,-14.478857289651 -4.190476106343,-4.976373276636 -9.619047425923,-11.506538335363 -12.063491821289,-14.51147790828 -2.444444395367,-3.004939572918 -8.51565459405,-10.267563967229 -13.491578219294,-16.139165320691 -9.395697836752,-11.0869451161 -23.406767842899,-27.753885240116 -40.565293426509,-48.25465266794 -5.49858924543,-6.569637860339 -11.068575420214,-12.916482563446 -12.377747055076,-14.104099340236 -1.309171634862,-1.187616776792 -3.896952300111,-4.120306761258 -5.750623700554,-6.51708885437 -1.853671400442,-2.396782093111 -9.053162604834,-11.075028744033 -15.998869343096,-19.284992557604 l -12.628557705928,-14.9272069337644 3.567011950139,-9.6668155927043 c 3.226030369592,-8.7427351282305 9.863986891862,-26.9765656999465 23.628385580369,-64.9049113096996 2.661305758743,-7.33333339691114 6.07882091882,-16.10162046467239 7.594478133504,-19.4850823728011 1.515657214685,-3.38346190813 5.213102888921,-13.0977477066368 8.216545942747,-21.5873017744589 3.003443053827,-8.4895540678235 9.002397236086,-25.1498386490934 13.33100929391,-37.0228546250456 4.328612057824,-11.8730159759521 10.331420865303,-28.4444446910511 13.33957512773,-36.8253971446641 6.277178426306,-17.488708804206 11.95700717311,-32.411447495759 12.944376769517,-34.009045108129 0.844162309325,-1.365883347776 2.410254383165,0.866800359034 9.603815389381,13.691584614521 5.770307338443,10.28738710069 13.590822098539,23.8475534385557 28.787560335317,49.9153979735546 4.604236409097,7.8979131603575 9.730357683351,16.7550560942897 11.391380609451,19.6825398531827 9.055990398412,15.960806076459 30.494690595299,53.164098797599 35.189526002067,61.0655601575638 2.032356357647,3.420478853524 5.980907617363,10.3459334408105 8.774558354924,15.3898990828567 2.793650737562,5.0439656420475 6.650793517264,11.4189638771255 8.571428399337,14.1666627446198 1.920634882074,2.747698867493 3.492063421953,5.3761419236625 3.492063421953,5.8409845692634 0,0.4648426456022 2.788562077365,5.5769852126635 6.196804616366,11.3603168156912 3.408242539003,5.7833316030278 8.749575774313,15.0865769802029 11.869629411801,20.6738786159451 8.880921245398,15.9036963996705 20.342342645761,35.4914831368557 21.176170001258,36.1904765042387 0.416567342114,0.349206352234 1.737303884024,2.755032800145 2.934970093131,5.346280995357 1.197666209108,2.591248195214 4.551635617426,8.591248247232 7.453265351819,13.33333344893 2.901629734393,4.7420852017 6.983745582161,11.764830264104 9.071368550595,15.606100138677 2.087622968434,3.841269874573 5.666567807462,10.126984214783 7.953210753395,13.968254089355 2.286642945934,3.841269874573 7.456303424374,12.698412808505 11.488134396535,19.682539853183 4.031830972161,6.984127044678 10.017422105874,17.269841419567 13.301313630474,22.857143055309 3.283891524602,5.587301635742 8.390303872832,14.444444569674 11.347582996067,19.682539853183 11.103125519239,19.666466028713 18.431520079097,32.429720960266 32.445677870152,56.507936997847 3.658451791267,6.28571434021 9.778576392861,16.85714300329 13.600276892431,23.492063695734 3.82170049957,6.634920692444 9.039338801433,15.675875515826 11.594751781919,20.091010718626 2.555412980486,4.415135202802 4.646205419065,8.272278093385 4.646205419065,8.571428645741 0,0.299150552357 -110.428569211458,0.477623608634 -245.396820469906,0.396606791727 -134.968251258449,-0.08101681691 -244.5396776299729,-0.339566593824 -243.4920586033876,-0.574555059816 z m -159.7013749687298,-64.357507280305 c 6.2382418714129,-11.079913042968 16.1144866674136,-28.114032087243 24.9504732456802,-43.033495043585 3.5733148242458,-6.03350148616 6.4969360440819,-11.245397845961 6.4969360440819,-11.581991910666 0,-0.336594064706 3.4285713597347,-6.235342066821 7.6190474660772,-13.10832889359 4.1904761063426,-6.87298682677 7.6190474660773,-12.986704698194 7.6190474660773,-13.586039714279 0,-0.599335016085 1.6204642826298,-3.478371631206 3.6010317391777,-6.397859144711 1.9805674565478,-2.919487513507 6.1890119891505,-9.879587726529 9.3520989613406,-15.466889362271 6.1173659562614,-10.805763203594 13.5783240761399,-23.742937543357 29.65921389348904,-51.428571874445 5.47647988769751,-9.428571510315 11.19801815478736,-19.5222642038646 12.71452948241986,-22.4304282078892 1.5165113276337,-2.9081640040233 3.9019092165666,-6.9081640387023 5.3008841976293,-8.8888889659534 1.3989749810615,-1.9807249272499 5.2264461564331,-8.4584609487996 8.5054915008246,-14.3949689367757 9.9412795160613,-17.9980692730397 28.0877465409981,-49.6538120289669 33.4847336531056,-58.41269891912305 2.797228538215,-4.53968257904052 6.5464495957151,-11.01511052763431 8.3316023499996,-14.38983988576354 1.7851527542858,-3.37472935812923 5.2300286643104,-7.66044368099941 7.6552798000546,-9.52380960637851 2.4252511357442,-1.8633659253791 17.9222276481501,-14.8165095737979 34.4377255831229,-28.7847636631534 16.515497934973,-13.9682540893554 32.480983444439,-27.3968256343494 35.478856687701,-29.8412700999867 6.744942228626,-5.4997777970963 32.599399517566,-27.3129964867095 49.583851152929,-41.8335367315845 18.14855493327,-15.515768654325 32.807062354023,-27.657644574349 47.608980976105,-39.435279670577 5.238095132928,-4.167863278408 11.910211557326,-9.626589386687 14.82692538755,-12.130502462842 l 5.303116054954,-4.552569229372 -5.435242364983,12.521596582018 c -2.989383300741,6.886878120112 -10.337336298887,22.497481457041 -16.328784440325,34.69022963762 -9.709839736634,19.759768921934 -22.417291176202,46.7013318005354 -48.788535555642,103.4384750300332 -4.544680165834,9.7777778625488 -11.058799978514,23.62892713076802 -14.475821805957,30.7803317071542 -3.417021827442,7.1514045763857 -6.212766958985,13.3251030926416 -6.212766958985,13.7193300361243 0,0.3942269434826 -2.799941446958,6.5430778486583 -6.222092104351,13.6641131226132 -17.143835343528,35.6740156802911 -21.714415271266,45.3816220018164 -21.714415271266,46.1199668944183 0,0.4432462226212 -2.51336984385,6.0178754340427 -5.585266319665,12.3880649142689 -3.071896475815,6.3701894802259 -9.427439768941,19.8678770488709 -14.123429540281,29.9948612636539 -4.69598977134,10.126984214782 -11.611191166761,24.812178534535 -15.367114212048,32.633765155005 -3.755923045287,7.821586620472 -6.828950991431,14.527015615018 -6.828950991431,14.900953321215 0,0.648794991211 -2.500167917654,5.974884583582 -20.1801617024047,42.989652197617 -4.265990120266,8.931260659246 -7.7563456732137,16.48195732755 -7.7563456732137,16.779325929564 0,0.297368602014 -3.0677341438618,6.989973638553 -6.8171869863601,14.872455636754 -3.7494528424984,7.8824819982 -8.2892677646863,17.617499765473 -10.0884776048613,21.633372816163 l -3.2712906184989,7.301587364891 h -74.2586632772259 -74.2586632772259 z"
                 id="path835" />
        </g>
    </g>
</svg>
