<?xml version="1.0" encoding="UTF-8"?>
<!-- Created with Inkscape (http://www.inkscape.org/) -->
<svg width="600" height="400" version="1.1" viewBox="0 0 600 400" xmlns="http://www.w3.org/2000/svg">
	<path d="m58.604 240.37c-4.9902 7e-3 -7.6794 1.0188-10.995 4.1388-3.6944 3.4764-5.8646 10.839-4.4187 14.987 0.51887 1.4882 0.37402 1.7499-2.9605 5.1919-7.1934 7.4252-9.5015 15.257-6.9373 23.559 2.0447 6.62 6.8365 12.226 14.574 17.049 2.9469 1.8368 3.8562 2.6622 3.6086 3.2993-0.18214 0.46774-0.46957 2.4317-0.63349 4.3598l-0.29457 3.5055-3.8369 0.19026c-4.3726 0.22013-5.8217 1.1061-6.3408 3.8737-0.34295 1.8711-0.32345 2.4763-0.21364 3.8884 0.49408 2.9242 2.997 6.1707 5.8179 7.5412 1.2982 0.63074 2.3584 1.2765 2.3493 1.436-0.0092 0.16031-1.0811 0.93567-2.3787 1.7232-1.2976 0.78756-2.6478 2.0608-2.9973 2.828-1.4509 3.1845 2.2064 3.511 14.206 1.2667 3.1262-0.58483 6.1971-1.1737 6.8195-1.3107 2.0809-0.45848 1.9725 1.2993-0.19838 3.2183l-1.9885 1.7526 1.414 0.0233c0.77889 0.012 2.0676-0.22281 2.8574-0.52289 1.233-0.4688 1.6298-0.36011 2.8279 0.78788 1.8423 1.7651 2.6587 1.692 2.6587-0.24181 0-1.5235 0.08666-1.5833 2.3714-1.5833 1.3053 0 2.3714-0.22282 2.3714-0.50086 0-0.27805-1.1862-0.92833-2.6364-1.4433-1.8148-0.64457-2.6364-1.2297-2.6364-1.8705 0-0.84954 0.71416-0.92777 8.1746-0.92777 7.4603 0 8.1746 0.079 8.1746 0.92777 0 0.64056-0.82179 1.2259-2.6364 1.8705-1.4501 0.51527-2.6364 1.1653-2.6364 1.4433 0 0.27804 1.0661 0.50086 2.3714 0.50086 2.2853 0 2.3714 0.0593 2.3714 1.5833 0 1.935 0.81609 2.0083 2.6587 0.24181 1.1982-1.1479 1.6023-1.2566 2.8353-0.78788 0.78997 0.30029 2.0714 0.53511 2.85 0.52289l1.414-0.0233-1.9885-1.7526c-2.1714-1.9189-2.2798-3.6768-0.19838-3.2183 0.62233 0.13595 3.6933 0.72611 6.8195 1.3107 12 2.2442 15.657 1.9178 14.206-1.2667-0.34944-0.76716-1.6996-2.0404-2.9973-2.828-1.2977-0.78756-2.3622-1.5634-2.3714-1.7232-9e-3 -0.16032 1.0435-0.80556 2.3418-1.436 2.8142-1.3672 5.327-4.6131 5.8179-7.5191 0.38073-1.9252 0.27176-2.5861 0.27253-3.9106-0.51908-2.7677-1.9608-3.653-6.3334-3.8737l-3.8369-0.19026-0.30191-3.5055c-0.16307-1.9282-0.44436-3.892-0.62579-4.3598-0.24733-0.63702 0.65439-1.4626 3.6012-3.2993 7.7378-4.8228 12.53-10.429 14.574-17.049 2.5644-8.302 0.26364-16.134-6.93-23.559-3.3345-3.442-3.4794-3.7037-2.9605-5.1919 1.446-4.1479-0.7316-11.51-4.426-14.987-3.3158-3.1201-5.9976-4.1318-10.988-4.1388-4.0001-6e-3 -4.7906 0.16307-7.3424 1.576-2.771 1.533-6.4802 5.4922-7.1656 7.6517-0.30728 0.96804-0.80335 1.0457-6.3261 1.0457-5.5229 0-6.0188-0.0757-6.3261-1.0457-0.6854-2.1594-4.3872-6.1186-7.1583-7.6517-2.5519-1.4118-3.3423-1.5817-7.3424-1.576zm-0.19026 7.6222c4.5772-4e-3 8.1441 3.8759 7.6812 8.3587-0.58751 5.6881-6.679 9.0465-11.584 6.385-7.188-3.9-4.318-14.737 3.9032-14.744zm41.595 0.0233c3.9648 0.0403 7.9168 2.8297 7.9168 7.88 0 3.0551-1.4586 5.4519-4.1683 6.8342-2.4214 1.2354-4.3721 1.3373-6.6648 0.33892-3.3655-1.4659-5.5892-5.7372-4.7427-9.1098 0.9868-3.9316 4.0955-5.8255 7.2761-5.9358 0.12769-4e-3 0.25544-8e-3 0.38292-8e-3zm2.8132 2.644c-1.1479 0.0459-2.3263 0.7813-2.5923 1.8412-0.43977 1.7521 0.82727 3.1479 2.2684 3.2846-0.33638-0.12768-0.69112-0.43348-1.1784-0.92075-1.299-1.299-1.3091-1.6741-0.0866-3.1814 0.85877-1.0604 2.1573-1.1941 3.0857-0.58921-0.0403-0.0332-0.0812-0.0678-0.12493-0.0955-0.33914-0.21194-0.73621-0.32232-1.1414-0.33892-0.0757-3e-3 -0.15219-3e-3 -0.22832 0zm1.495 0.43461c0.95981 0.74378 1.1455 2.6035 0.40495 3.6749 0.72973-0.65468 0.87401-1.192 0.62579-2.1798-0.17112-0.68215-0.55255-1.1833-1.031-1.495zm0.40495 3.6749c-0.0678 0.0628-0.13581 0.11956-0.2147 0.18475-0.40573 0.32825-0.73401 0.56548-1.0164 0.71449 0.35086-0.11957 0.69409-0.31873 1.0014-0.62615 0.0845-0.0812 0.16031-0.17387 0.22832-0.27253zm-1.23 0.89848c-0.32903 0.11137-0.66499 0.14944-0.99415 0.11957 0.31907 0.12231 0.6212 0.079 0.99415-0.11957zm-42.758-4.971c-1.2871 8e-3 -2.113 0.82157-2.2904 2.3271-0.21738 1.8347 1.1523 2.9797 2.607 2.8058-0.37741-0.0845-0.80116-0.38017-1.414-0.87621-1.6072-1.3015-1.1001-3.6132 0.90583-4.1167 0.25544-0.065 0.48024-0.0955 0.68483-0.10311-0.17126-0.0233-0.33673-0.0381-0.49351-0.0381zm0.49351 0.0381c0.15219 0.0212 0.30898 0.0459 0.47127 0.09 0.19563 0.0494 0.37148 0.11413 0.53751 0.19838-0.30714-0.21469-0.62339-0.30382-1.0091-0.28722zm1.0091 0.28722c0.22013 0.15495 0.43998 0.36965 0.67749 0.6628 0.18475 0.22833 0.32882 0.4212 0.45651 0.6039-0.19838-0.52939-0.58511-0.98812-1.1341-1.2667zm1.1341 1.2667c0.30304 0.81422 0.16031 1.7988-0.54486 2.5777 1.1034-1.1031 1.2653-1.5466 0.54486-2.5777zm-2.3198 3.5423c0.45743 0.10311 0.85525-0.10643 1.414-0.61851-0.44493 0.36688-0.93436 0.56117-1.414 0.61851zm44.621 19.103c0.39563 9e-3 0.67749 0.52367 0.67749 1.5833 0 4.0623-4.8927 8.7907-11.511 11.135-6.8668 2.4325-17.001 3.1572-24.612 1.7529-8.1583-1.5056-14.509-4.899-16.938-9.0436-1.3944-2.3796-1.5523-5.214-0.28722-5.214 0.38942 0 1.0289 0.95334 1.4213 2.1135 1.0509 3.1065 4.7254 6.1995 9.3308 7.8579 5.318 1.9151 8.5705 2.4231 15.436 2.4231 6.8655 0 10.125-0.50764 15.443-2.4231 4.6073-1.6591 8.2753-4.7519 9.3234-7.8579 0.51358-1.5219 1.2072-2.3393 1.7159-2.3271zm-26.24 37.419c3.1767 0 7.1906 0.3647 9.4854 0.86908l3.9842 0.87643-0.35361 1.8926c-0.19563 1.0419-1.2161 5.6915-2.2684 10.332l-1.9148 8.4397-2.3567 0.35332c-2.8378 0.42932-10.515 0.41548-13.418-0.0297l-2.0915-0.32387-1.9148-8.4397c-1.0512-4.6408-2.0665-9.2903-2.2608-10.332l-0.35354-1.8926 3.9768-0.87644c2.2948-0.50418 6.3087-0.86907 9.4854-0.86907zm-22.027 7.2024 1.0754 2.8574c0.58921 1.5713 1.6936 4.2602 2.4524 5.9726 0.75881 1.7124 1.2974 3.1936 1.2004 3.2919-0.30523 0.30524-3.4666-2.2225-4.6322-3.7044-1.4746-1.8746-1.8733-5.0276-0.87643-6.93zm44.246 0.75848c0.18214-0.0184 0.3373 0.20651 0.53751 0.56711 1.4308 2.5788 0.72294 5.6178-1.9222 8.263-2.032 2.0317-4.0119 3.2183-3.5423 2.1208 0.16851-0.39619 1.3099-3.17 2.5407-6.164 1.4518-3.532 1.9874-4.7475 2.3861-4.7869z" fill="#93ff5c"/>
	<path d="m73.915 289.66c-7.5157-0.82838-13.883-3.1144-17.867-6.4142-2.9916-2.4782-5.3307-8.177-3.1772-7.7408 0.46315 0.0955 1.1561 1.0873 1.5404 2.2075 0.95312 2.779 2.9271 4.6972 6.7704 6.5785 5.709 2.7947 9.2275 3.4734 18.007 3.4734 8.7794 0 12.298-0.67883 18.007-3.4734 3.8433-1.8814 5.8173-3.7995 6.7704-6.5785 0.73949-2.1562 2.3823-3.1192 2.3823-1.3966 0 2.0233-2.4119 5.7086-5.01 7.6553-5.8088 4.3524-17.515 6.7807-27.423 5.6886zm-19.616-27.409c-3.5713-2.1776-4.6629-5.9257-2.8291-9.7138 2.0127-4.1577 7.1748-5.6818 10.924-3.2253 4.4411 2.9099 4.4554 10.236 0.02542 12.937-2.2103 1.3477-5.9114 1.3485-8.12 2e-3zm8.5034-7.1803c2.0339-2.0339-0.33638-5.7972-2.8154-4.4704-1.8181 0.97287-2.36 2.5374-1.3912 4.016 0.97046 1.4814 2.9643 1.6966 4.2066 0.45432zm33.156 7.1785c-5.8336-3.557-3.7086-12.966 3.1807-14.084 4.5299-0.73511 9.3504 4.0853 8.6152 8.6153-0.87807 5.4108-7.1343 8.3113-11.796 5.469zm9.0968-7.6329c0.96881-1.4786 0.42692-3.043-1.3912-4.016-1.4732-0.78833-3.6442 0.62529-3.6442 2.373 0 2.8357 3.5046 3.9792 5.0353 1.6431z" fill="#302f32"/>
	<ellipse cx="372.28" cy="172.31" rx="180.98" ry="122.32" fill="#64ceff" stroke-width=".61184"/>
	<path d="m483.29 218.41a95.321 61.325 0 0 1-107.41 29.573 95.321 61.325 0 0 1-71.249-59.572 95.321 61.325 0 0 1 71.954-59.22 95.321 61.325 0 0 1 107.06 30.1l-83.691 29.354z" fill="#009b21" stroke-width=".41232"/>
	<path transform="matrix(.088221 .16775 -.56289 .29602 154.12 207.1)" d="m125.26 64.451-133.21-1e-6 66.605-115.36z" fill="#e53331" stroke-width="0.5"/>
	<path transform="matrix(-.11395 -.15146 .50821 -.38234 182.78 276.35)" d="m125.26 64.451-133.21-1e-6 66.605-115.36z" fill="#e53331" stroke-width="0.5"/>
</svg>
