<?xml version="1.0" encoding="UTF-8" standalone="no"?>
<!-- Created with Inkscape (http://www.inkscape.org/) -->

<svg
     width="600"
     height="400"
     viewBox="0 0 600 400"
     version="1.1"
     id="svg5"
     inkscape:version="1.1 (c68e22c387, 2021-05-23)"
     sodipodi:docname="Vim-コマンドモード・インサートモード.svg"
     inkscape:export-filename="C:\Program Files\XAMPP\htdocs\koko-campus.org\subjects\Linux入門\pics\Vim-コマンドモード・インサートモード.png"
     inkscape:export-xdpi="96"
     inkscape:export-ydpi="96"
     xmlns:inkscape="http://www.inkscape.org/namespaces/inkscape"
     xmlns:sodipodi="http://sodipodi.sourceforge.net/DTD/sodipodi-0.dtd"
     xmlns="http://www.w3.org/2000/svg"
     xmlns:svg="http://www.w3.org/2000/svg">
    <sodipodi:namedview
         id="namedview7"
         pagecolor="#ffffff"
         bordercolor="#666666"
         borderopacity="1.0"
         inkscape:pageshadow="2"
         inkscape:pageopacity="0.0"
         inkscape:pagecheckerboard="0"
         inkscape:document-units="px"
         showgrid="false"
         units="px"
         width="600px"
         inkscape:zoom="1.5001964"
         inkscape:cx="292.62835"
         inkscape:cy="211.63896"
         inkscape:window-width="1920"
         inkscape:window-height="1027"
         inkscape:window-x="-8"
         inkscape:window-y="-8"
         inkscape:window-maximized="1"
         inkscape:current-layer="layer1" />
    <defs
         id="defs2">
        <rect
             x="375.2842"
             y="233.96937"
             width="187.30881"
             height="153.31326"
             id="rect34276" />
        <rect
             x="70.657417"
             y="222.63751"
             width="158.64589"
             height="139.98168"
             id="rect22526" />
        <rect
             x="75.99005"
             y="228.63673"
             width="163.97853"
             height="147.31405"
             id="rect20252" />
        <rect
             x="273.96413"
             y="107.31928"
             width="97.98717"
             height="25.996596"
             id="rect13914" />
        <rect
             x="265.96518"
             y="19.997382"
             width="75.99005"
             height="27.329755"
             id="rect9912" />
        <rect
             x="389.94894"
             y="143.31457"
             width="211.30567"
             height="41.327922"
             id="rect6870" />
        <rect
             x="99.320329"
             y="139.31509"
             width="155.97957"
             height="43.994239"
             id="rect2574" />
    </defs>
    <g
         inkscape:label="レイヤー 1"
         inkscape:groupmode="layer"
         id="layer1">
        <g
             id="g1026"
             transform="translate(13.331588,-108.38992)">
            <path
                 id="path3143"
                 style="fill:#93ff5c;fill-opacity:1;stroke:none;stroke-width:0.527368"
                 d="m 131.26148,143.05226 c -4.99021,0.007 -7.67942,1.01885 -10.99517,4.13882 -3.69435,3.47637 -5.86464,10.83885 -4.4187,14.98672 0.51887,1.48817 0.37402,1.74988 -2.96052,5.19194 -7.19335,7.4252 -9.50154,15.25695 -6.93733,23.55895 2.04471,6.61999 6.8365,12.22602 14.57429,17.04877 2.94687,1.83684 3.85615,2.66219 3.60861,3.29929 -0.18213,0.46774 -0.46957,2.43174 -0.63349,4.35976 l -0.29457,3.50547 -3.8369,0.19026 c -4.37265,0.22013 -5.8217,1.10607 -6.34081,3.87371 -0.34294,1.87109 -0.32345,2.47631 -0.21363,3.88845 0.49408,2.92425 2.997,6.17071 5.81793,7.54121 1.29821,0.63074 2.35844,1.27647 2.34926,1.436 -0.009,0.16031 -1.08105,0.93567 -2.37873,1.72325 -1.29763,0.78756 -2.64784,2.06078 -2.99733,2.82795 -1.45092,3.18449 2.20639,3.51099 14.20608,1.26668 3.12622,-0.58483 6.19712,-1.17374 6.81949,-1.31072 2.08089,-0.45848 1.97246,1.29931 -0.19838,3.21828 l -1.98851,1.75261 1.41399,0.0233 c 0.77889,0.012 2.06758,-0.22281 2.85743,-0.52289 1.23299,-0.4688 1.62977,-0.36011 2.82794,0.78788 1.84228,1.7651 2.65866,1.692 2.65866,-0.24181 0,-1.52351 0.0867,-1.58329 2.3714,-1.58329 1.30529,0 2.37141,-0.22282 2.37141,-0.50086 0,-0.27805 -1.18624,-0.92833 -2.63637,-1.44334 -1.81484,-0.64457 -2.63638,-1.22973 -2.63638,-1.87054 0,-0.84954 0.71416,-0.92777 8.17459,-0.92777 7.46034,0 8.17456,0.079 8.17456,0.92777 0,0.64056 -0.82179,1.22593 -2.63637,1.87054 -1.45014,0.51527 -2.63639,1.16534 -2.63639,1.44334 0,0.27804 1.06614,0.50086 2.37142,0.50086 2.28525,0 2.3714,0.0593 2.3714,1.58329 0,1.93495 0.81609,2.00833 2.65866,0.24181 1.19821,-1.14792 1.60231,-1.25663 2.83534,-0.78788 0.78997,0.30029 2.07138,0.53511 2.85004,0.52289 l 1.41398,-0.0233 -1.9885,-1.75261 c -2.17139,-1.91892 -2.27982,-3.67677 -0.19838,-3.21828 0.62233,0.13595 3.6933,0.72611 6.81952,1.31072 11.99965,2.24422 15.657,1.91784 14.20605,-1.26668 -0.34944,-0.76716 -1.69961,-2.0404 -2.99734,-2.82795 -1.29767,-0.78756 -2.36216,-1.56345 -2.3714,-1.72325 -0.009,-0.16032 1.04353,-0.80556 2.34178,-1.436 2.81425,-1.36724 5.32697,-4.61307 5.81794,-7.51911 0.38073,-1.92518 0.27176,-2.5861 0.27253,-3.91057 -0.51908,-2.76767 -1.96076,-3.65296 -6.33344,-3.87372 l -3.83689,-0.19026 -0.30191,-3.50551 c -0.16307,-1.92816 -0.44436,-3.89205 -0.62579,-4.35979 -0.24733,-0.63702 0.65439,-1.46262 3.60121,-3.29926 7.7378,-4.82276 12.52959,-10.42881 14.57431,-17.04877 2.56436,-8.30202 0.26364,-16.13375 -6.92998,-23.55895 -3.33451,-3.44198 -3.47935,-3.70369 -2.96052,-5.19194 1.44605,-4.1479 -0.7316,-11.51038 -4.42604,-14.98672 -3.31579,-3.12008 -5.99764,-4.1318 -10.98781,-4.13881 -4.0001,-0.006 -4.79055,0.16307 -7.34239,1.57595 -2.77105,1.53302 -6.48021,5.49222 -7.16561,7.65169 -0.30728,0.96804 -0.80335,1.04572 -6.3261,1.04572 -5.52285,0 -6.0188,-0.0757 -6.32608,-1.04572 -0.6854,-2.15943 -4.38721,-6.11859 -7.15827,-7.65169 -2.55187,-1.41182 -3.34226,-1.58166 -7.34237,-1.57595 z m -0.19026,7.62222 c 4.5772,-0.004 8.14413,3.8759 7.68115,8.35868 -0.58751,5.68814 -6.67901,9.04653 -11.58432,6.385 -7.18803,-3.90004 -4.31799,-14.73699 3.90317,-14.74368 z m 41.59454,0.0233 c 3.96485,0.0403 7.91683,2.82974 7.91683,7.88 0,3.0551 -1.45856,5.45186 -4.16832,6.83423 -2.4214,1.23542 -4.37206,1.33734 -6.66482,0.33892 -3.36552,-1.46589 -5.58922,-5.73716 -4.74274,-9.10983 0.9868,-3.93165 4.09545,-5.82546 7.27612,-5.93577 0.12768,-0.004 0.25544,-0.008 0.38291,-0.008 z m 2.81324,2.64399 c -1.14792,0.0459 -2.32629,0.7813 -2.59234,1.8412 -0.43977,1.75206 0.82727,3.14793 2.2684,3.28455 -0.33638,-0.12768 -0.69112,-0.43348 -1.17836,-0.92075 -1.29904,-1.29903 -1.30909,-1.67407 -0.0866,-3.18145 0.85877,-1.06043 2.15726,-1.19413 3.0857,-0.58921 -0.0403,-0.0332 -0.0812,-0.0678 -0.12493,-0.0955 -0.33914,-0.21194 -0.73621,-0.32232 -1.14141,-0.33892 -0.0757,-0.003 -0.15219,-0.003 -0.22832,0 z m 1.49498,0.43461 c 0.95981,0.74378 1.14548,2.60349 0.40495,3.67487 0.72973,-0.65468 0.87401,-1.19196 0.62579,-2.17981 -0.17112,-0.68215 -0.55255,-1.18326 -1.03102,-1.49497 z m 0.40495,3.67487 c -0.0678,0.0628 -0.13581,0.11956 -0.2147,0.18475 -0.40573,0.32825 -0.73401,0.56548 -1.01643,0.71449 0.35086,-0.11957 0.69409,-0.31873 1.00141,-0.62615 0.0845,-0.0812 0.16031,-0.17387 0.22832,-0.27253 z m -1.23001,0.89848 c -0.32903,0.11137 -0.66499,0.14944 -0.99415,0.11957 0.31907,0.12231 0.6212,0.079 0.99415,-0.11957 z m -42.75814,-4.97101 c -1.28708,0.008 -2.11297,0.82157 -2.29043,2.32711 -0.21738,1.83468 1.15228,2.97969 2.60703,2.80585 -0.37741,-0.0845 -0.80116,-0.38017 -1.41398,-0.87621 -1.60721,-1.30148 -1.10011,-3.61323 0.90582,-4.11673 0.25545,-0.065 0.48024,-0.0955 0.68484,-0.10311 -0.17126,-0.0233 -0.33673,-0.0381 -0.49352,-0.0381 z m 0.49351,0.0381 c 0.15219,0.0212 0.30898,0.0459 0.47127,0.09 0.19562,0.0494 0.37148,0.11413 0.53751,0.19838 -0.30714,-0.21469 -0.62339,-0.30382 -1.00908,-0.28722 z m 1.00908,0.28722 c 0.22013,0.15495 0.43998,0.36965 0.67749,0.6628 0.18475,0.22833 0.32882,0.4212 0.4565,0.6039 -0.19838,-0.52939 -0.58511,-0.98812 -1.13407,-1.26668 z m 1.13407,1.26669 c 0.30305,0.81422 0.16032,1.7988 -0.54486,2.57767 1.10336,-1.10308 1.26533,-1.5466 0.54486,-2.57767 z m -2.31977,3.54229 c 0.45742,0.10311 0.85525,-0.10643 1.41398,-0.61851 -0.44493,0.36688 -0.93436,0.56117 -1.41398,0.61851 z m 44.62136,19.10346 c 0.39563,0.009 0.67749,0.52367 0.67749,1.58329 0,4.06229 -4.8927,8.79073 -11.5107,11.13511 -6.86684,2.43254 -17.00149,3.15718 -24.61206,1.75286 -8.15828,-1.50556 -14.50945,-4.89901 -16.9383,-9.04357 -1.39442,-2.37956 -1.55232,-5.21402 -0.28722,-5.21402 0.38941,0 1.02893,0.95334 1.42132,2.1135 1.05088,3.10653 4.72542,6.19949 9.33077,7.85789 5.31798,1.91513 8.5705,2.42306 15.43595,2.42306 6.86547,0 10.12535,-0.50764 15.4433,-2.42306 4.60726,-1.65911 8.27527,-4.75188 9.32343,-7.85789 0.51358,-1.52188 1.20718,-2.33934 1.71592,-2.32711 z m -26.23965,37.41891 c 3.17673,0 7.19059,0.3647 9.48545,0.86908 l 3.98418,0.87643 -0.35361,1.89256 c -0.19563,1.04189 -1.21614,5.69148 -2.26842,10.33236 l -1.91484,8.43969 -2.35673,0.35332 c -2.83775,0.42932 -10.51465,0.41548 -13.41807,-0.0297 l -2.09149,-0.32387 -1.91485,-8.43971 c -1.0512,-4.64084 -2.06648,-9.29031 -2.2608,-10.33235 l -0.35354,-1.89256 3.97682,-0.87644 c 2.29478,-0.50418 6.30872,-0.86907 9.48545,-0.86907 z m -22.02715,7.20244 1.07535,2.85742 c 0.58921,1.57134 1.69363,4.2602 2.45239,5.9726 0.75882,1.71238 1.2974,3.19358 1.20037,3.29193 -0.30523,0.30524 -3.46657,-2.22249 -4.63222,-3.70436 -1.47459,-1.87462 -1.87327,-5.02757 -0.87643,-6.92996 z m 44.24579,0.75848 c 0.18214,-0.0184 0.3373,0.20651 0.53751,0.56711 1.43084,2.57876 0.72294,5.61781 -1.92218,8.26296 -2.03196,2.03171 -4.0119,3.2183 -3.54231,2.12084 0.16851,-0.39619 1.30989,-3.16999 2.54071,-6.16405 1.45176,-3.53201 1.9874,-4.74749 2.38608,-4.78692 z" />
            <path
                 style="fill:#302f32;stroke:none;stroke-width:0.527368"
                 d="m 146.57219,192.34061 c -7.51575,-0.82838 -13.88333,-3.11444 -17.86684,-6.41425 -2.9916,-2.4782 -5.33067,-8.17697 -3.17716,-7.74079 0.46315,0.0955 1.15609,1.08731 1.54036,2.20753 0.95312,2.77905 2.92706,4.69716 6.77035,6.57852 5.70902,2.7947 9.22748,3.47338 18.00691,3.47338 8.77945,0 12.29791,-0.67883 18.00693,-3.47338 3.8433,-1.88142 5.81733,-3.79947 6.77036,-6.57852 0.73949,-2.15617 2.38227,-3.11925 2.38227,-1.39659 0,2.02327 -2.4119,5.70865 -5.01001,7.65533 -5.80878,4.35235 -17.51523,6.78068 -27.42317,5.68855 z m -19.61586,-27.40926 c -3.57126,-2.17763 -4.66294,-5.92572 -2.82913,-9.71382 2.01268,-4.15766 7.17482,-5.68179 10.92383,-3.22534 4.44112,2.90993 4.45544,10.2361 0.0254,12.93734 -2.21025,1.34768 -5.91143,1.34849 -8.11997,0.002 z m 8.50343,-7.18031 c 2.03388,-2.03387 -0.33638,-5.79718 -2.81542,-4.4704 -1.81809,0.97287 -2.35999,2.53745 -1.39116,4.01603 0.97046,1.48139 2.96435,1.69662 4.20664,0.45432 z m 33.15569,7.17849 c -5.83356,-3.55695 -3.70861,-12.96626 3.1807,-14.08424 4.52993,-0.73511 9.35036,4.0853 8.61524,8.61528 -0.87807,5.41075 -7.13427,8.31133 -11.79594,5.46896 z m 9.09684,-7.63286 c 0.96881,-1.47865 0.42692,-3.04304 -1.39115,-4.01603 -1.47323,-0.78833 -3.64415,0.62529 -3.64415,2.37304 0,2.83566 3.5046,3.97916 5.03533,1.64309 z"
                 id="path3131" />
        </g>
        <g
             id="g1030"
             transform="translate(13.331588,-113.95048)">
            <path
                 id="path3143-7"
                 style="fill:#93ff5c;fill-opacity:1;stroke:none;stroke-width:0.527368"
                 d="m 415.1148,148.61282 c -4.99021,0.007 -7.67942,1.01885 -10.99517,4.13882 -3.69435,3.47637 -5.86464,10.83885 -4.4187,14.98672 0.51887,1.48817 0.37402,1.74988 -2.96052,5.19194 -7.19335,7.4252 -9.50154,15.25695 -6.93733,23.55895 2.04471,6.61999 6.8365,12.22602 14.57429,17.04877 2.94687,1.83684 3.85615,2.66219 3.60861,3.29929 -0.18213,0.46774 -0.46957,2.43174 -0.63349,4.35976 l -0.29457,3.50547 -3.8369,0.19026 c -4.37265,0.22013 -5.8217,1.10607 -6.34081,3.87371 -0.34294,1.87109 -0.32345,2.47631 -0.21363,3.88845 0.49408,2.92425 2.997,6.17071 5.81793,7.54121 1.29821,0.63074 2.35844,1.27647 2.34926,1.436 -0.009,0.16031 -1.08105,0.93567 -2.37873,1.72325 -1.29763,0.78756 -2.64784,2.06078 -2.99733,2.82795 -1.45092,3.18449 2.20639,3.51099 14.20608,1.26668 3.12622,-0.58483 6.19712,-1.17374 6.81949,-1.31072 2.08089,-0.45848 1.97246,1.29931 -0.19838,3.21828 l -1.98851,1.75261 1.41399,0.0233 c 0.77889,0.012 2.06758,-0.22281 2.85743,-0.52289 1.23299,-0.4688 1.62977,-0.36011 2.82794,0.78788 1.84228,1.7651 2.65866,1.692 2.65866,-0.24181 0,-1.52351 0.0867,-1.58329 2.3714,-1.58329 1.30529,0 2.37141,-0.22282 2.37141,-0.50086 0,-0.27805 -1.18624,-0.92833 -2.63637,-1.44334 -1.81484,-0.64457 -2.63638,-1.22973 -2.63638,-1.87054 0,-0.84954 0.71416,-0.92777 8.17459,-0.92777 7.46034,0 8.17456,0.079 8.17456,0.92777 0,0.64056 -0.82179,1.22593 -2.63637,1.87054 -1.45014,0.51527 -2.63639,1.16534 -2.63639,1.44334 0,0.27804 1.06614,0.50086 2.37142,0.50086 2.28525,0 2.3714,0.0593 2.3714,1.58329 0,1.93495 0.81609,2.00833 2.65866,0.24181 1.19821,-1.14792 1.60231,-1.25663 2.83534,-0.78788 0.78997,0.30029 2.07138,0.53511 2.85004,0.52289 l 1.41398,-0.0233 -1.9885,-1.75261 c -2.17139,-1.91892 -2.27982,-3.67677 -0.19838,-3.21828 0.62233,0.13595 3.6933,0.72611 6.81952,1.31072 11.99965,2.24422 15.657,1.91784 14.20605,-1.26668 -0.34944,-0.76716 -1.69961,-2.0404 -2.99734,-2.82795 -1.29767,-0.78756 -2.36216,-1.56345 -2.3714,-1.72325 -0.009,-0.16032 1.04353,-0.80556 2.34178,-1.436 2.81425,-1.36724 5.32697,-4.61307 5.81794,-7.51911 0.38073,-1.92518 0.27176,-2.5861 0.27253,-3.91057 -0.51908,-2.76767 -1.96076,-3.65296 -6.33344,-3.87372 l -3.83689,-0.19026 -0.30191,-3.50551 c -0.16307,-1.92816 -0.44436,-3.89205 -0.62579,-4.35979 -0.24733,-0.63702 0.65439,-1.46262 3.60121,-3.29926 7.7378,-4.82276 12.52959,-10.42881 14.57431,-17.04877 2.56436,-8.30202 0.26364,-16.13375 -6.92998,-23.55895 -3.33451,-3.44198 -3.47935,-3.70369 -2.96052,-5.19194 1.44605,-4.1479 -0.7316,-11.51038 -4.42604,-14.98672 -3.31579,-3.12008 -5.99764,-4.1318 -10.98781,-4.13881 -4.0001,-0.006 -4.79055,0.16307 -7.34239,1.57595 -2.77105,1.53302 -6.48021,5.49222 -7.16561,7.65169 -0.30728,0.96804 -0.80335,1.04572 -6.3261,1.04572 -5.52285,0 -6.0188,-0.0757 -6.32608,-1.04572 -0.6854,-2.15943 -4.38721,-6.11859 -7.15827,-7.65169 -2.55187,-1.41182 -3.34226,-1.58166 -7.34237,-1.57595 z m -0.19026,7.62222 c 4.5772,-0.004 8.14413,3.8759 7.68115,8.35868 -0.58751,5.68814 -6.67901,9.04653 -11.58432,6.385 -7.18803,-3.90004 -4.31799,-14.73699 3.90317,-14.74368 z m 41.59454,0.0233 c 3.96485,0.0403 7.91683,2.82974 7.91683,7.88 0,3.0551 -1.45856,5.45186 -4.16832,6.83423 -2.4214,1.23542 -4.37206,1.33734 -6.66482,0.33892 -3.36552,-1.46589 -5.58922,-5.73716 -4.74274,-9.10983 0.9868,-3.93165 4.09545,-5.82546 7.27612,-5.93577 0.12768,-0.004 0.25544,-0.008 0.38291,-0.008 z m 2.81324,2.64399 c -1.14792,0.0459 -2.32629,0.7813 -2.59234,1.8412 -0.43977,1.75206 0.82727,3.14793 2.2684,3.28455 -0.33638,-0.12768 -0.69112,-0.43348 -1.17836,-0.92075 -1.29904,-1.29903 -1.30909,-1.67407 -0.0866,-3.18145 0.85877,-1.06043 2.15726,-1.19413 3.0857,-0.58921 -0.0403,-0.0332 -0.0812,-0.0678 -0.12493,-0.0955 -0.33914,-0.21194 -0.73621,-0.32232 -1.14141,-0.33892 -0.0757,-0.003 -0.15219,-0.003 -0.22832,0 z m 1.49498,0.43461 c 0.95981,0.74378 1.14548,2.60349 0.40495,3.67487 0.72973,-0.65468 0.87401,-1.19196 0.62579,-2.17981 -0.17112,-0.68215 -0.55255,-1.18326 -1.03102,-1.49497 z m 0.40495,3.67487 c -0.0678,0.0628 -0.13581,0.11956 -0.2147,0.18475 -0.40573,0.32825 -0.73401,0.56548 -1.01643,0.71449 0.35086,-0.11957 0.69409,-0.31873 1.00141,-0.62615 0.0845,-0.0812 0.16031,-0.17387 0.22832,-0.27253 z m -1.23001,0.89848 c -0.32903,0.11137 -0.66499,0.14944 -0.99415,0.11957 0.31907,0.12231 0.6212,0.079 0.99415,-0.11957 z m -42.75814,-4.97101 c -1.28708,0.008 -2.11297,0.82157 -2.29043,2.32711 -0.21738,1.83468 1.15228,2.97969 2.60703,2.80585 -0.37741,-0.0845 -0.80116,-0.38017 -1.41398,-0.87621 -1.60721,-1.30148 -1.10011,-3.61323 0.90582,-4.11673 0.25545,-0.065 0.48024,-0.0955 0.68484,-0.10311 -0.17126,-0.0233 -0.33673,-0.0381 -0.49352,-0.0381 z m 0.49351,0.0381 c 0.15219,0.0212 0.30898,0.0459 0.47127,0.09 0.19562,0.0494 0.37148,0.11413 0.53751,0.19838 -0.30714,-0.21469 -0.62339,-0.30382 -1.00908,-0.28722 z m 1.00908,0.28722 c 0.22013,0.15495 0.43998,0.36965 0.67749,0.6628 0.18475,0.22833 0.32882,0.4212 0.4565,0.6039 -0.19838,-0.52939 -0.58511,-0.98812 -1.13407,-1.26668 z m 1.13407,1.26669 c 0.30305,0.81422 0.16032,1.7988 -0.54486,2.57767 1.10336,-1.10308 1.26533,-1.5466 0.54486,-2.57767 z m -2.31977,3.54229 c 0.45742,0.10311 0.85525,-0.10643 1.41398,-0.61851 -0.44493,0.36688 -0.93436,0.56117 -1.41398,0.61851 z m 44.62136,19.10346 c 0.39563,0.009 0.67749,0.52367 0.67749,1.58329 0,4.06229 -4.8927,8.79073 -11.5107,11.13511 -6.86684,2.43254 -17.00149,3.15718 -24.61206,1.75286 -8.15828,-1.50556 -14.50945,-4.89901 -16.9383,-9.04357 -1.39442,-2.37956 -1.55232,-5.21402 -0.28722,-5.21402 0.38941,0 1.02893,0.95334 1.42132,2.1135 1.05088,3.10653 4.72542,6.19949 9.33077,7.85789 5.31798,1.91513 8.5705,2.42306 15.43595,2.42306 6.86547,0 10.12535,-0.50764 15.4433,-2.42306 4.60726,-1.65911 8.27527,-4.75188 9.32343,-7.85789 0.51358,-1.52188 1.20718,-2.33934 1.71592,-2.32711 z m -26.23965,37.41891 c 3.17673,0 7.19059,0.3647 9.48545,0.86908 l 3.98418,0.87643 -0.35361,1.89256 c -0.19563,1.04189 -1.21614,5.69148 -2.26842,10.33236 l -1.91484,8.43969 -2.35673,0.35332 c -2.83775,0.42932 -10.51465,0.41548 -13.41807,-0.0297 l -2.09149,-0.32387 -1.91485,-8.43971 c -1.0512,-4.64084 -2.06648,-9.29031 -2.2608,-10.33235 l -0.35354,-1.89256 3.97682,-0.87644 c 2.29478,-0.50418 6.30872,-0.86907 9.48545,-0.86907 z m -22.02715,7.20244 1.07535,2.85742 c 0.58921,1.57134 1.69363,4.2602 2.45239,5.9726 0.75882,1.71238 1.2974,3.19358 1.20037,3.29193 -0.30523,0.30524 -3.46657,-2.22249 -4.63222,-3.70436 -1.47459,-1.87462 -1.87327,-5.02757 -0.87643,-6.92996 z m 44.24579,0.75848 c 0.18214,-0.0184 0.3373,0.20651 0.53751,0.56711 1.43084,2.57876 0.72294,5.61781 -1.92218,8.26296 -2.03196,2.03171 -4.0119,3.2183 -3.54231,2.12084 0.16851,-0.39619 1.30989,-3.16999 2.54071,-6.16405 1.45176,-3.53201 1.9874,-4.74749 2.38608,-4.78692 z" />
            <path
                 style="fill:#302f32;stroke:none;stroke-width:0.527368"
                 d="m 430.42551,197.90117 c -7.51575,-0.82838 -13.88333,-3.11444 -17.86684,-6.41425 -2.9916,-2.4782 -5.33067,-8.17697 -3.17716,-7.74079 0.46315,0.0955 1.15609,1.08731 1.54036,2.20753 0.95312,2.77905 2.92706,4.69716 6.77035,6.57852 5.70902,2.7947 9.22748,3.47338 18.00691,3.47338 8.77945,0 12.29791,-0.67883 18.00693,-3.47338 3.8433,-1.88142 5.81733,-3.79947 6.77036,-6.57852 0.73949,-2.15617 2.38227,-3.11925 2.38227,-1.39659 0,2.02327 -2.4119,5.70865 -5.01001,7.65533 -5.80878,4.35235 -17.51523,6.78068 -27.42317,5.68855 z m -19.61586,-27.40926 c -3.57126,-2.17763 -4.66294,-5.92572 -2.82913,-9.71382 2.01268,-4.15766 7.17482,-5.68179 10.92383,-3.22534 4.44112,2.90993 4.45544,10.2361 0.0254,12.93734 -2.21025,1.34768 -5.91143,1.34849 -8.11997,0.002 z m 8.50343,-7.18031 c 2.03388,-2.03387 -0.33638,-5.79718 -2.81542,-4.4704 -1.81809,0.97287 -2.35999,2.53745 -1.39116,4.01603 0.97046,1.48139 2.96435,1.69662 4.20664,0.45432 z m 33.15569,7.17849 c -5.83356,-3.55695 -3.70861,-12.96626 3.1807,-14.08424 4.52993,-0.73511 9.35036,4.0853 8.61524,8.61528 -0.87807,5.41075 -7.13427,8.31133 -11.79594,5.46896 z m 9.09684,-7.63286 c 0.96881,-1.47865 0.42692,-3.04304 -1.39115,-4.01603 -1.47323,-0.78833 -3.64415,0.62529 -3.64415,2.37304 0,2.83566 3.5046,3.97916 5.03533,1.64309 z"
                 id="path3131-8" />
        </g>
        <text
             xml:space="preserve"
             id="text2572"
             style="font-size:20px;line-height:1.25;font-family:monospace;-inkscape-font-specification:'monospace, Normal';font-variant-ligatures:none;white-space:pre;shape-inside:url(#rect2574)"
             transform="translate(-9.33185,47.993716)"><tspan
                 x="99.320312"
                 y="159.00195"
                 id="tspan3825">コマンドモード</tspan></text>
        <text
             xml:space="preserve"
             id="text6868"
             style="font-size:20px;line-height:1.25;font-family:monospace;-inkscape-font-specification:'monospace, Normal';font-variant-ligatures:none;white-space:pre;shape-inside:url(#rect6870)"
             transform="translate(-19.99869,44.660557)"><tspan
                 x="389.94922"
                 y="163.00195"
                 id="tspan3827">インサートモード</tspan></text>
        <text
             xml:space="preserve"
             id="text9910"
             style="font-size:13px;line-height:1.25;font-family:monospace;-inkscape-font-specification:'monospace, Normal';font-variant-ligatures:none;white-space:pre;shape-inside:url(#rect9912)"
             transform="translate(18.664223,107.31928)"><tspan
                 x="265.96484"
                 y="32.794922"
                 id="tspan3829">「esc」</tspan></text>
        <text
             xml:space="preserve"
             id="text13912"
             style="font-size:14px;line-height:1.25;font-family:monospace;-inkscape-font-specification:'monospace, Normal';font-variant-ligatures:none;white-space:pre;shape-inside:url(#rect13914)"
             transform="translate(-10.66527,-73.990312)"><tspan
                 x="273.96484"
                 y="121.09961"
                 id="tspan3831">「i」or「a」</tspan></text>
        <path
             sodipodi:type="star"
             style="fill:#000000;stroke-width:1.6"
             id="path18144"
             inkscape:flatsided="true"
             sodipodi:sides="3"
             sodipodi:cx="235.9691"
             sodipodi:cy="277.96362"
             sodipodi:r1="73.978302"
             sodipodi:r2="36.989151"
             sodipodi:arg1="0.52359878"
             sodipodi:arg2="1.5707963"
             inkscape:rounded="0"
             inkscape:randomized="0"
             d="m 300.03619,314.95277 -128.13418,0 64.06709,-110.96745 z"
             inkscape:transform-center-y="-0.64025614"
             transform="matrix(-0.00114871,0.08389537,-1.2641887,-0.01730943,642.26547,49.228509)"
             inkscape:transform-center-x="-23.343827" />
        <path
             sodipodi:type="star"
             style="fill:#000000;stroke-width:1.6"
             id="path18144-5"
             inkscape:flatsided="true"
             sodipodi:sides="3"
             sodipodi:cx="235.9691"
             sodipodi:cy="277.96362"
             sodipodi:r1="73.978302"
             sodipodi:r2="36.989151"
             sodipodi:arg1="0.52359878"
             sodipodi:arg2="1.5707963"
             inkscape:rounded="0"
             inkscape:randomized="0"
             inkscape:transform-center-y="-0.64025614"
             transform="matrix(0.00114871,0.08389537,1.2641887,-0.01730943,-17.699696,95.640537)"
             inkscape:transform-center-x="23.343827"
             d="m 300.03619,314.95277 -128.13418,0 64.06709,-110.96745 z" />
        <text
             xml:space="preserve"
             id="text20250"
             style="line-height:1.25;font-family:monospace;font-size:20px;-inkscape-font-specification:'monospace, Normal';font-variant-ligatures:none;white-space:pre;shape-inside:url(#rect20252)" />
        <rect
             style="fill:#000000;stroke-width:1.6"
             id="rect20652"
             width="179.97644"
             height="164.64511"
             x="70.657417"
             y="222.63751" />
        <text
             xml:space="preserve"
             id="text22524"
             style="line-height:1.25;font-family:monospace;font-size:20px;-inkscape-font-specification:'monospace, Normal';font-variant-ligatures:none;white-space:pre;shape-inside:url(#rect22526);fill:#ffffff;fill-opacity:1" />
        <text
             xml:space="preserve"
             style="font-style:normal;font-variant:normal;font-weight:normal;font-stretch:normal;font-size:20px;line-height:1.25;font-family:Consolas;-inkscape-font-specification:'Consolas, Normal';font-variant-ligatures:none;font-variant-caps:normal;font-variant-numeric:normal;font-variant-east-asian:normal;fill:#ffffff;fill-opacity:1"
             x="90.654793"
             y="251.96703"
             id="text27768"><tspan
                 sodipodi:role="line"
                 id="tspan27766"
                 x="90.654793"
                 y="251.96703">:q</tspan><tspan
                 sodipodi:role="line"
                 x="90.654793"
                 y="276.96701"
                 id="tspan31582">:q!</tspan><tspan
                 sodipodi:role="line"
                 x="90.654793"
                 y="301.96701"
                 id="tspan31584">:w</tspan><tspan
                 sodipodi:role="line"
                 x="90.654793"
                 y="326.96701"
                 id="tspan31586">:w file1</tspan></text>
        <rect
             style="fill:#000000;stroke-width:1.6"
             id="rect20652-4"
             width="179.97644"
             height="164.64511"
             x="358.61969"
             y="222.97081" />
        <text
             xml:space="preserve"
             id="text34274"
             style="font-size:18px;line-height:1.25;font-family:Consolas;-inkscape-font-specification:'Consolas, Normal';font-variant-ligatures:none;white-space:pre;shape-inside:url(#rect34276);fill:#ffffff;fill-opacity:1"
             transform="translate(-6.6657939,-4.6660557)"
             inkscape:export-filename="C:\Program Files\XAMPP\htdocs\koko-campus.org\subjects\Linux入門\pics\Vim-コマンドモード・インサートモード.png"
             inkscape:export-xdpi="96"
             inkscape:export-ydpi="96"><tspan
                 x="375.28516"
                 y="249.58691"
                 id="tspan3833">~its 10/31 today
</tspan><tspan
                 x="375.28516"
                 y="272.08691"
                 id="tspan3835">~Happy Halloween!
</tspan><tspan
                 x="375.28516"
                 y="294.58691"
                 id="tspan3837">~hey pumpkin!!
</tspan><tspan
                 x="375.28516"
                 y="317.08691"
                 id="tspan3839">~trick or treat!</tspan></text>
    </g>
</svg>
