<?xml version="1.0" encoding="UTF-8" standalone="no"?>
<!-- Created with Inkscape (http://www.inkscape.org/) -->

<svg
     width="600"
     height="400"
     viewBox="0 0 600 400"
     version="1.1"
     id="svg5"
     inkscape:version="1.1 (c68e22c387, 2021-05-23)"
     sodipodi:docname="シェル.svg"
     xmlns:inkscape="http://www.inkscape.org/namespaces/inkscape"
     xmlns:sodipodi="http://sodipodi.sourceforge.net/DTD/sodipodi-0.dtd"
     xmlns="http://www.w3.org/2000/svg"
     xmlns:svg="http://www.w3.org/2000/svg">
    <sodipodi:namedview
         id="namedview7"
         pagecolor="#ffffff"
         bordercolor="#666666"
         borderopacity="1.0"
         inkscape:pageshadow="2"
         inkscape:pageopacity="0.0"
         inkscape:pagecheckerboard="0"
         inkscape:document-units="px"
         showgrid="false"
         units="px"
         width="600px"
         inkscape:zoom="1.5001964"
         inkscape:cx="340.28878"
         inkscape:cy="211.63895"
         inkscape:window-width="1920"
         inkscape:window-height="1027"
         inkscape:window-x="-8"
         inkscape:window-y="-8"
         inkscape:window-maximized="1"
         inkscape:current-layer="layer1" />
    <defs
         id="defs2" />
    <g
         inkscape:label="レイヤー 1"
         inkscape:groupmode="layer"
         id="layer1">
        <path
             id="path3143"
             style="fill:#93ff5c;fill-opacity:1;stroke:none;stroke-width:0.527368"
             d="m 58.604326,240.37285 c -4.990206,0.007 -7.679417,1.01885 -10.995168,4.13882 -3.694355,3.47637 -5.864641,10.83885 -4.418702,14.98672 0.518869,1.48817 0.374021,1.74988 -2.960516,5.19194 -7.193353,7.4252 -9.501544,15.25695 -6.937337,23.55895 2.044718,6.61999 6.836501,12.22602 14.574294,17.04877 2.946865,1.83684 3.856153,2.66219 3.608612,3.29929 -0.182137,0.46774 -0.469574,2.43174 -0.63349,4.35976 l -0.294569,3.50547 -3.836901,0.19026 c -4.372649,0.22013 -5.821702,1.10607 -6.340811,3.87371 -0.342946,1.87109 -0.323454,2.47631 -0.213635,3.88845 0.49408,2.92425 2.997001,6.17071 5.817931,7.54121 1.298216,0.63074 2.358447,1.27647 2.349259,1.436 -0.0092,0.16031 -1.081051,0.93567 -2.378723,1.72325 -1.297638,0.78756 -2.64784,2.06078 -2.997333,2.82795 -1.450925,3.18449 2.206388,3.51099 14.206079,1.26668 3.12622,-0.58483 6.19712,-1.17374 6.819487,-1.31072 2.080898,-0.45848 1.972463,1.29931 -0.19838,3.21828 l -1.988502,1.75261 1.413982,0.0233 c 0.778889,0.012 2.067586,-0.22281 2.857435,-0.52289 1.232989,-0.4688 1.629764,-0.36011 2.827943,0.78788 1.842276,1.7651 2.658659,1.692 2.658659,-0.24181 0,-1.52351 0.08666,-1.58329 2.371399,-1.58329 1.305286,0 2.371407,-0.22282 2.371407,-0.50086 0,-0.27805 -1.186237,-0.92833 -2.636371,-1.44334 -1.814839,-0.64457 -2.636377,-1.22973 -2.636377,-1.87054 0,-0.84954 0.714156,-0.92777 8.174584,-0.92777 7.460343,0 8.174569,0.079 8.174569,0.92777 0,0.64056 -0.821792,1.22593 -2.636377,1.87054 -1.450134,0.51527 -2.636385,1.16534 -2.636385,1.44334 0,0.27804 1.066135,0.50086 2.371414,0.50086 2.285253,0 2.371406,0.0593 2.371406,1.58329 0,1.93495 0.816086,2.00833 2.658659,0.24181 1.198207,-1.14792 1.602313,-1.25663 2.835337,-0.78788 0.78997,0.30029 2.071378,0.53511 2.850041,0.52289 l 1.413982,-0.0233 -1.988502,-1.75261 c -2.171387,-1.91892 -2.279822,-3.67677 -0.19838,-3.21828 0.622331,0.13595 3.693296,0.72611 6.819524,1.31072 11.99965,2.24422 15.657,1.91784 14.20605,-1.26668 -0.34944,-0.76716 -1.69961,-2.0404 -2.99734,-2.82795 -1.29767,-0.78756 -2.36216,-1.56345 -2.3714,-1.72325 -0.009,-0.16032 1.04353,-0.80556 2.34178,-1.436 2.81425,-1.36724 5.32697,-4.61307 5.81794,-7.51911 0.38073,-1.92518 0.27176,-2.5861 0.27253,-3.91057 -0.51908,-2.76767 -1.96076,-3.65296 -6.33344,-3.87372 l -3.83689,-0.19026 -0.30191,-3.50551 c -0.16307,-1.92816 -0.44436,-3.89205 -0.62579,-4.35979 -0.24733,-0.63702 0.65439,-1.46262 3.60121,-3.29926 7.7378,-4.82276 12.52959,-10.42881 14.57431,-17.04877 2.56436,-8.30202 0.26364,-16.13375 -6.92998,-23.55895 -3.33451,-3.44198 -3.47935,-3.70369 -2.96052,-5.19194 1.44605,-4.1479 -0.7316,-11.51038 -4.42604,-14.98672 -3.31579,-3.12008 -5.99764,-4.1318 -10.98781,-4.13881 -4.000103,-0.006 -4.790553,0.16307 -7.342394,1.57595 -2.771049,1.53302 -6.480214,5.49222 -7.165605,7.65169 -0.307281,0.96804 -0.803352,1.04572 -6.326106,1.04572 -5.522853,0 -6.018797,-0.0757 -6.326079,-1.04572 -0.685398,-2.15943 -4.387211,-6.11859 -7.158274,-7.65169 -2.551862,-1.41182 -3.342256,-1.58166 -7.342367,-1.57595 z m -0.190259,7.62222 c 4.577201,-0.004 8.144131,3.8759 7.681153,8.35868 -0.587514,5.68814 -6.679017,9.04653 -11.58432,6.385 -7.188034,-3.90004 -4.317993,-14.73699 3.903167,-14.74368 z m 41.594543,0.0233 c 3.96485,0.0403 7.91683,2.82974 7.91683,7.88 0,3.0551 -1.45856,5.45186 -4.16832,6.83423 -2.4214,1.23542 -4.372067,1.33734 -6.664828,0.33892 -3.365519,-1.46589 -5.589217,-5.73716 -4.742735,-9.10983 0.986804,-3.93165 4.095453,-5.82546 7.276116,-5.93577 0.127687,-0.004 0.255444,-0.008 0.382917,-0.008 z m 2.81324,2.64399 c -1.14792,0.0459 -2.32629,0.7813 -2.59234,1.8412 -0.439772,1.75206 0.82727,3.14793 2.2684,3.28455 -0.33638,-0.12768 -0.69112,-0.43348 -1.17836,-0.92075 -1.29904,-1.29903 -1.30909,-1.67407 -0.0866,-3.18145 0.85877,-1.06043 2.15726,-1.19413 3.0857,-0.58921 -0.0403,-0.0332 -0.0812,-0.0678 -0.12493,-0.0955 -0.33914,-0.21194 -0.73621,-0.32232 -1.14141,-0.33892 -0.0757,-0.003 -0.15219,-0.003 -0.22832,0 z m 1.49498,0.43461 c 0.95981,0.74378 1.14548,2.60349 0.40495,3.67487 0.72973,-0.65468 0.87401,-1.19196 0.62579,-2.17981 -0.17112,-0.68215 -0.55255,-1.18326 -1.03102,-1.49497 z m 0.40495,3.67487 c -0.0678,0.0628 -0.13581,0.11956 -0.2147,0.18475 -0.40573,0.32825 -0.73401,0.56548 -1.01643,0.71449 0.35086,-0.11957 0.69409,-0.31873 1.00141,-0.62615 0.0845,-0.0812 0.16031,-0.17387 0.22832,-0.27253 z m -1.23001,0.89848 c -0.32903,0.11137 -0.66499,0.14944 -0.99415,0.11957 0.31907,0.12231 0.6212,0.079 0.99415,-0.11957 z m -42.758148,-4.97101 c -1.287073,0.008 -2.112968,0.82157 -2.290423,2.32711 -0.217378,1.83468 1.152274,2.97969 2.607026,2.80585 -0.37741,-0.0845 -0.801163,-0.38017 -1.413982,-0.87621 -1.607207,-1.30148 -1.100104,-3.61323 0.905827,-4.11673 0.255444,-0.065 0.480238,-0.0955 0.684833,-0.10311 -0.171261,-0.0233 -0.336731,-0.0381 -0.493514,-0.0381 z m 0.493514,0.0381 c 0.152193,0.0212 0.308977,0.0459 0.471269,0.09 0.195626,0.0494 0.371478,0.11413 0.537513,0.19838 -0.30714,-0.21469 -0.623391,-0.30382 -1.009078,-0.28722 z m 1.009078,0.28722 c 0.220133,0.15495 0.439983,0.36965 0.677489,0.6628 0.18475,0.22833 0.328821,0.4212 0.456508,0.6039 -0.198381,-0.52939 -0.585113,-0.98812 -1.134074,-1.26668 z m 1.134075,1.26669 c 0.303044,0.81422 0.160314,1.7988 -0.544858,2.57767 1.10336,-1.10308 1.265327,-1.5466 0.544858,-2.57767 z m -2.319774,3.54229 c 0.457426,0.10311 0.855254,-0.10643 1.413982,-0.61851 -0.444926,0.36688 -0.934359,0.56117 -1.413982,0.61851 z m 44.621365,19.10346 c 0.39563,0.009 0.67749,0.52367 0.67749,1.58329 0,4.06229 -4.8927,8.79073 -11.510706,11.13511 -6.86684,2.43254 -17.001485,3.15718 -24.612058,1.75286 -8.158277,-1.50556 -14.509448,-4.89901 -16.938299,-9.04357 -1.394419,-2.37956 -1.552319,-5.21402 -0.287225,-5.21402 0.389417,0 1.028938,0.95334 1.421327,2.1135 1.05088,3.10653 4.725418,6.19949 9.33077,7.85789 5.317975,1.91513 8.570498,2.42306 15.435946,2.42306 6.86547,0 10.125352,-0.50764 15.443306,-2.42306 4.607251,-1.65911 8.275269,-4.75188 9.323429,-7.85789 0.51358,-1.52188 1.20718,-2.33934 1.71592,-2.32711 z m -26.239655,37.41891 c 3.176729,0 7.19059,0.3647 9.485448,0.86908 l 3.984179,0.87643 -0.35361,1.89256 c -0.195627,1.04189 -1.216139,5.69148 -2.268417,10.33236 l -1.914835,8.43969 -2.35673,0.35332 c -2.837753,0.42932 -10.514655,0.41548 -13.418073,-0.0297 l -2.091491,-0.32387 -1.914849,-8.43971 c -1.051205,-4.64084 -2.066484,-9.29031 -2.260796,-10.33235 l -0.35354,-1.89256 3.97682,-0.87644 c 2.29478,-0.50418 6.308719,-0.86907 9.485449,-0.86907 z m -22.027152,7.20244 1.075351,2.85742 c 0.589209,1.57134 1.693629,4.2602 2.452397,5.9726 0.758811,1.71238 1.297398,3.19358 1.200368,3.29193 -0.305233,0.30524 -3.466574,-2.22249 -4.632223,-3.70436 -1.474591,-1.87462 -1.873273,-5.02757 -0.876427,-6.92996 z m 44.245797,0.75848 c 0.18214,-0.0184 0.3373,0.20651 0.53751,0.56711 1.43084,2.57876 0.72294,5.61781 -1.92218,8.26296 -2.031966,2.03171 -4.011901,3.2183 -3.542313,2.12084 0.168506,-0.39619 1.30989,-3.16999 2.540711,-6.16405 1.451762,-3.53201 1.987402,-4.74749 2.386082,-4.78692 z" />
        <path
             style="fill:#302f32;stroke:none;stroke-width:0.527368"
             d="m 73.915036,289.6612 c -7.515747,-0.82838 -13.883331,-3.11444 -17.866839,-6.41425 -2.991598,-2.4782 -5.330666,-8.17697 -3.17716,-7.74079 0.463147,0.0955 1.156087,1.08731 1.540355,2.20753 0.953123,2.77905 2.927063,4.69716 6.770355,6.57852 5.709022,2.7947 9.227483,3.47338 18.006905,3.47338 8.77945,0 12.297911,-0.67883 18.006934,-3.47338 3.843304,-1.88142 5.817334,-3.79947 6.770364,-6.57852 0.73949,-2.15617 2.38227,-3.11925 2.38227,-1.39659 0,2.02327 -2.4119,5.70865 -5.01001,7.65533 -5.80878,4.35235 -17.515229,6.78068 -27.423174,5.68855 z m -19.615857,-27.40926 c -3.571266,-2.17763 -4.662945,-5.92572 -2.829136,-9.71382 2.012682,-4.15766 7.17482,-5.68179 10.923831,-3.22534 4.441124,2.90993 4.455447,10.2361 0.02542,12.93734 -2.210251,1.34768 -5.911429,1.34849 -8.119971,0.002 z m 8.503426,-7.18031 c 2.033877,-2.03387 -0.336378,-5.79718 -2.815414,-4.4704 -1.818095,0.97287 -2.359994,2.53745 -1.391164,4.01603 0.970462,1.48139 2.964345,1.69662 4.206635,0.45432 z m 33.155691,7.17849 c -5.83356,-3.55695 -3.708614,-12.96626 3.180699,-14.08424 4.529935,-0.73511 9.350365,4.0853 8.615245,8.61528 -0.87807,5.41075 -7.13427,8.31133 -11.795944,5.46896 z m 9.096844,-7.63286 c 0.96881,-1.47865 0.42692,-3.04304 -1.39115,-4.01603 -1.47323,-0.78833 -3.64415,0.62529 -3.64415,2.37304 0,2.83566 3.5046,3.97916 5.03533,1.64309 z"
             id="path3131" />
        <ellipse
             style="fill:#64ceff;stroke-width:0.611836;fill-opacity:1"
             id="path1052"
             cx="372.28458"
             cy="172.31076"
             rx="180.97629"
             ry="122.31731" />
        <path
             style="fill:#009b21;fill-opacity:1;stroke-width:0.412323"
             id="path1552"
             sodipodi:type="arc"
             sodipodi:cx="399.94763"
             sodipodi:cy="188.64195"
             sodipodi:rx="95.320854"
             sodipodi:ry="61.325306"
             sodipodi:start="0.50676882"
             sodipodi:end="5.7840489"
             sodipodi:arc-type="slice"
             d="m 483.28831,218.40648 a 95.320854,61.325306 0 0 1 -107.41191,29.57319 95.320854,61.325306 0 0 1 -71.24893,-59.57175 95.320854,61.325306 0 0 1 71.95358,-59.22016 95.320854,61.325306 0 0 1 107.05794,30.09976 l -83.69136,29.35443 z" />
        <path
             sodipodi:type="star"
             style="fill:#e53331;fill-opacity:1;stroke-width:0.503"
             id="path2340"
             inkscape:flatsided="true"
             sodipodi:sides="3"
             sodipodi:cx="58.658985"
             sodipodi:cy="25.996595"
             sodipodi:r1="76.908356"
             sodipodi:r2="38.454178"
             sodipodi:arg1="0.52359878"
             sodipodi:arg2="1.5707963"
             inkscape:rounded="0"
             inkscape:randomized="0"
             d="m 125.26357,64.450774 -133.2091748,-10e-7 66.6045898,-115.362533 z"
             inkscape:transform-center-y="-0.10504549"
             transform="matrix(0.08822105,0.16775316,-0.56288541,0.2960203,154.1182,207.1015)"
             inkscape:transform-center-x="-7.88468" />
        <path
             sodipodi:type="star"
             style="fill:#e53331;fill-opacity:1;stroke-width:0.503"
             id="path2340-3"
             inkscape:flatsided="true"
             sodipodi:sides="3"
             sodipodi:cx="58.658985"
             sodipodi:cy="25.996595"
             sodipodi:r1="76.908356"
             sodipodi:r2="38.454178"
             sodipodi:arg1="0.52359878"
             sodipodi:arg2="1.5707963"
             inkscape:rounded="0"
             inkscape:randomized="0"
             inkscape:transform-center-y="2.307403"
             transform="matrix(-0.11394757,-0.15145966,0.50821356,-0.38234406,182.78076,276.35332)"
             d="m 125.26357,64.450774 -133.2091748,-10e-7 66.6045898,-115.362533 z"
             inkscape:transform-center-x="5.9767559" />
    </g>
</svg>
