<?xml version="1.0" encoding="UTF-8" standalone="no"?>
<!-- Created with Inkscape (http://www.inkscape.org/) -->

<svg
     width="600"
     height="400"
     viewBox="0 0 600 400"
     version="1.1"
     id="svg5"
     inkscape:version="1.1 (c68e22c387, 2021-05-23)"
     sodipodi:docname="ディレクトリ構造.svg"
     inkscape:export-filename="C:\Program Files\XAMPP\htdocs\koko-campus.org\subjects\Linux入門\pics\ディレクトリ構造.png"
     inkscape:export-xdpi="96"
     inkscape:export-ydpi="96"
     xmlns:inkscape="http://www.inkscape.org/namespaces/inkscape"
     xmlns:sodipodi="http://sodipodi.sourceforge.net/DTD/sodipodi-0.dtd"
     xmlns="http://www.w3.org/2000/svg"
     xmlns:svg="http://www.w3.org/2000/svg">
    <sodipodi:namedview
         id="namedview7"
         pagecolor="#ffffff"
         bordercolor="#666666"
         borderopacity="1.0"
         inkscape:pageshadow="2"
         inkscape:pageopacity="0.0"
         inkscape:pagecheckerboard="0"
         inkscape:document-units="px"
         showgrid="false"
         units="px"
         width="600px"
         inkscape:zoom="1.060799"
         inkscape:cx="119.72107"
         inkscape:cy="258.7672"
         inkscape:window-width="1920"
         inkscape:window-height="1027"
         inkscape:window-x="-8"
         inkscape:window-y="-8"
         inkscape:window-maximized="1"
         inkscape:current-layer="layer1" />
    <defs
         id="defs2">
        <rect
             x="319.33475"
             y="252.87542"
             width="40.771153"
             height="30.872954"
             id="rect44612" />
        <rect
             x="43.32766"
             y="44.660819"
             width="119.31771"
             height="65.32478"
             id="rect37157" />
        <rect
             x="37.995025"
             y="-23.996858"
             width="205.97303"
             height="121.98403"
             id="rect30603" />
        <rect
             x="304.62678"
             y="223.97067"
             width="82.655844"
             height="47.993716"
             id="rect26581" />
        <rect
             x="178.64328"
             y="270.63123"
             width="108.65244"
             height="63.325042"
             id="rect18671" />
        <rect
             x="101.32007"
             y="160.64563"
             width="76.656628"
             height="55.992669"
             id="rect12767" />
        <rect
             x="272.63097"
             y="83.989003"
             width="139.31509"
             height="54.65951"
             id="rect8369" />
        <rect
             x="334.62285"
             y="156.64616"
             width="111.31876"
             height="45.993978"
             id="rect4349" />
        <rect
             x="319.33475"
             y="252.87543"
             width="40.771152"
             height="30.872953"
             id="rect44612-0" />
        <rect
             x="319.33475"
             y="252.87543"
             width="40.771152"
             height="30.872953"
             id="rect44612-0-9" />
        <rect
             x="319.33475"
             y="252.87543"
             width="40.771152"
             height="30.872953"
             id="rect44612-0-9-2" />
        <rect
             x="319.33475"
             y="252.87543"
             width="40.771152"
             height="30.872953"
             id="rect44612-0-9-2-5" />
    </defs>
    <g
         inkscape:label="レイヤー 1"
         inkscape:groupmode="layer"
         id="layer1">
        <path
             style="color:#000000;font-size:56px;font-family:Wingdings;-inkscape-font-specification:'Wingdings, Normal';font-variant-ligatures:none;white-space:pre;fill:#000000;stroke-width:1.33408;-inkscape-stroke:none"
             d="m 112.1175,74.136765 v -42.278772 q 0,-4.523355 4.48688,-4.523355 h 2.07928 q 1.56858,0 2.2252,-0.474223 0.65661,-0.5107 1.0214,-1.933368 l 0.36479,-1.459147 q 0.58366,-2.298156 1.49562,-2.808857 0.87549,-0.510702 4.23153,-0.510702 h 13.93485 q 3.02773,0 3.86674,0.474223 0.83901,0.474223 1.45914,2.553507 l 0.40127,1.34971 q 0.62014,2.079284 1.13084,2.444071 0.54718,0.364786 2.95477,0.364786 h 25.20676 q 2.58998,0 3.50195,0.984924 0.94845,0.948446 0.94845,3.611389 v 3.501952 h 14.48203 q 3.93969,0 4.04912,1.386188 0.0364,0.29183 -1.27675,2.954772 l -17.2544,34.362902 z m 1.78745,-3.720823 15.68583,-30.569122 q 1.7145,-3.319558 2.66294,-3.866738 0.94845,-0.547179 4.92462,-0.547179 h 42.46117 v -3.501952 q 0,-2.808858 -2.7359,-2.808858 h -25.35267 q -3.429,0 -4.23153,-0.401265 -0.80253,-0.401266 -1.31323,-2.480549 l -0.43774,-1.678019 q -0.47423,-1.787455 -1.09436,-2.18872 -0.58366,-0.437744 -2.66295,-0.437744 h -13.4971 q -2.33464,0 -3.13717,0.437744 -0.80253,0.474223 -1.24027,2.042805 l -0.43775,1.678019 q -0.58365,2.079283 -1.31323,2.553506 -0.69309,0.474223 -3.13716,0.474223 h -2.26168 q -1.75098,0 -2.33464,0.54718 -0.54718,0.510702 -0.54718,2.225199 z m 1.09436,1.93337 h 65.26034 l 16.16005,-32.393055 q 0.80252,-1.750976 0.80252,-1.969848 -0.10939,-0.766053 -2.26167,-0.766053 h -58.87657 q -2.11576,0 -2.91829,0.474223 -0.80253,0.474223 -1.64154,2.152241 z"
             id="path40359-4" />
        <path
             style="fill:none;stroke:#000000;stroke-width:1.6;stroke-linecap:butt;stroke-linejoin:miter;stroke-miterlimit:4;stroke-dasharray:none;stroke-opacity:1"
             d="m 150.56964,73.990312 0.36066,40.790428 128.64982,-0.33329 -128.64982,0.33329 -0.12499,43.49431 h 129.98299 -129.98299 l -0.23567,48.00496 128.96882,0.40536 -128.96882,-0.40536"
             id="path40763"
             sodipodi:nodetypes="cccccccccc" />
        <path
             style="color:#000000;font-size:56px;font-family:Wingdings;-inkscape-font-specification:'Wingdings, Normal';font-variant-ligatures:none;white-space:pre;fill:#000000;stroke-width:0.933207;-inkscape-stroke:none"
             d="m 279.74381,130.48349 v -29.57458 q 0,-3.164162 3.13863,-3.164162 h 1.45449 q 1.09724,0 1.55655,-0.33172 0.45931,-0.35724 0.71449,-1.35242 l 0.25517,-1.02069 q 0.40828,-1.60759 1.04621,-1.96484 0.61242,-0.35724 2.96001,-0.35724 h 9.74762 q 2.11794,0 2.70484,0.33173 0.5869,0.33172 1.02069,1.78621 l 0.28069,0.94414 q 0.4338,1.45449 0.79104,1.70966 0.38276,0.25517 2.0669,0.25517 h 17.63248 q 1.81172,0 2.44966,0.68897 0.66345,0.66345 0.66345,2.526222 v 2.44966 h 10.13038 q 2.75587,0 2.83242,0.96966 0.0255,0.20414 -0.89311,2.0669 l -12.06969,24.03733 z m 1.25034,-2.60277 10.97246,-21.38352 q 1.19931,-2.32208 1.86276,-2.70484 0.66345,-0.38276 3.44484,-0.38276 h 29.70217 v -2.44966 q 0,-1.964842 -1.9138,-1.964842 h -17.73454 q -2.39863,0 -2.96001,-0.28069 -0.56138,-0.28069 -0.91863,-1.73517 l -0.3062,-1.1738 q -0.33173,-1.25035 -0.76552,-1.53104 -0.40828,-0.30621 -1.86277,-0.30621 h -9.44141 q -1.63311,0 -2.19449,0.30621 -0.56138,0.33173 -0.86759,1.42897 l -0.30621,1.1738 q -0.40827,1.45448 -0.91862,1.78621 -0.48483,0.33172 -2.19449,0.33172 h -1.58207 q -1.22484,0 -1.63312,0.38277 -0.38276,0.35724 -0.38276,1.556552 z m 0.76552,1.35241 h 45.65051 l 11.30417,-22.65938 q 0.56138,-1.22483 0.56138,-1.37794 -0.0765,-0.53586 -1.58207,-0.53586 h -41.18497 q -1.48,0 -2.04139,0.33173 -0.56138,0.33172 -1.14828,1.50552 z"
             id="path40359-4-5" />
        <path
             style="color:#000000;font-size:56px;font-family:Wingdings;-inkscape-font-specification:'Wingdings, Normal';font-variant-ligatures:none;white-space:pre;fill:#000000;stroke-width:0.933207;-inkscape-stroke:none"
             d="m 280.12738,176.78266 v -29.57458 q 0,-3.16416 3.13863,-3.16416 h 1.45449 q 1.09724,0 1.55655,-0.33172 0.45931,-0.35724 0.71449,-1.35242 l 0.25517,-1.02069 q 0.40828,-1.60759 1.04621,-1.96484 0.61242,-0.35724 2.96001,-0.35724 h 9.74762 q 2.11794,0 2.70484,0.33173 0.5869,0.33172 1.02069,1.78621 l 0.28069,0.94414 q 0.4338,1.45449 0.79104,1.70966 0.38276,0.25517 2.0669,0.25517 h 17.63248 q 1.81172,0 2.44966,0.68897 0.66345,0.66345 0.66345,2.52622 v 2.44966 h 10.13038 q 2.75587,0 2.83242,0.96966 0.0255,0.20414 -0.89311,2.0669 l -12.06969,24.03733 z m 1.25034,-2.60277 10.97246,-21.38352 q 1.19931,-2.32208 1.86276,-2.70484 0.66345,-0.38276 3.44484,-0.38276 h 29.70217 v -2.44966 q 0,-1.96484 -1.9138,-1.96484 h -17.73454 q -2.39863,0 -2.96001,-0.28069 -0.56138,-0.28069 -0.91863,-1.73517 l -0.3062,-1.1738 q -0.33173,-1.25035 -0.76552,-1.53104 -0.40828,-0.30621 -1.86277,-0.30621 h -9.44141 q -1.63311,0 -2.19449,0.30621 -0.56138,0.33173 -0.86759,1.42897 l -0.30621,1.1738 q -0.40827,1.45448 -0.91862,1.78621 -0.48483,0.33172 -2.19449,0.33172 h -1.58207 q -1.22484,0 -1.63312,0.38277 -0.38276,0.35724 -0.38276,1.55655 z m 0.76552,1.35241 h 45.65051 l 11.30417,-22.65938 q 0.56138,-1.22483 0.56138,-1.37794 -0.0765,-0.53586 -1.58207,-0.53586 h -41.18497 q -1.48,0 -2.04139,0.33173 -0.56138,0.33172 -1.14828,1.50552 z"
             id="path40359-4-5-8" />
        <path
             style="color:#000000;font-size:56px;font-family:Wingdings;-inkscape-font-specification:'Wingdings, Normal';font-variant-ligatures:none;white-space:pre;fill:#000000;stroke-width:0.933207;-inkscape-stroke:none"
             d="m 279.18469,224.62396 v -29.57458 q 0,-3.16416 3.13863,-3.16416 h 1.45449 q 1.09724,0 1.55655,-0.33172 0.45931,-0.35724 0.71449,-1.35242 l 0.25517,-1.02069 q 0.40828,-1.60759 1.04621,-1.96484 0.61242,-0.35724 2.96001,-0.35724 h 9.74762 q 2.11794,0 2.70484,0.33173 0.5869,0.33172 1.02069,1.78621 l 0.28069,0.94414 q 0.4338,1.45449 0.79104,1.70966 0.38276,0.25517 2.0669,0.25517 h 17.63248 q 1.81172,0 2.44966,0.68897 0.66345,0.66345 0.66345,2.52622 v 2.44966 h 10.13038 q 2.75587,0 2.83242,0.96966 0.0255,0.20414 -0.89311,2.0669 l -12.06969,24.03733 z m 1.25034,-2.60277 10.97246,-21.38352 q 1.19931,-2.32208 1.86276,-2.70484 0.66345,-0.38276 3.44484,-0.38276 h 29.70217 v -2.44966 q 0,-1.96484 -1.9138,-1.96484 h -17.73454 q -2.39863,0 -2.96001,-0.28069 -0.56138,-0.28069 -0.91863,-1.73517 l -0.3062,-1.1738 q -0.33173,-1.25035 -0.76552,-1.53104 -0.40828,-0.30621 -1.86277,-0.30621 h -9.44141 q -1.63311,0 -2.19449,0.30621 -0.56138,0.33173 -0.86759,1.42897 l -0.30621,1.1738 q -0.40827,1.45448 -0.91862,1.78621 -0.48483,0.33172 -2.19449,0.33172 h -1.58207 q -1.22484,0 -1.63312,0.38277 -0.38276,0.35724 -0.38276,1.55655 z m 0.76552,1.35241 h 45.65051 l 11.30417,-22.65938 q 0.56138,-1.22483 0.56138,-1.37794 -0.0765,-0.53586 -1.58207,-0.53586 h -41.18497 q -1.48,0 -2.04139,0.33173 -0.56138,0.33172 -1.14828,1.50552 z"
             id="path40359-4-5-6" />
        <path
             style="fill:none;stroke:#000000;stroke-width:1.06532;stroke-linecap:butt;stroke-linejoin:miter;stroke-miterlimit:4;stroke-dasharray:none;stroke-opacity:1"
             d="m 301.17857,224.30698 0.0832,34.06346 85.65794,-0.22192 -85.65794,0.22192 -0.0832,28.95948 h 86.5456 -86.5456 l -0.15691,31.96279 85.87034,0.26989 -85.87034,-0.26989"
             id="path40763-7"
             sodipodi:nodetypes="cccccccccc" />
        <path
             style="color:#000000;font-size:56px;font-family:Wingdings;-inkscape-font-specification:'Wingdings, Normal';font-variant-ligatures:none;white-space:pre;fill:#000000;stroke-width:0.475067;-inkscape-stroke:none"
             d="m 387.12219,330.12578 v -15.05551 q 0,-1.61078 1.59778,-1.61078 h 0.74044 q 0.55857,0 0.79239,-0.16886 0.23382,-0.18186 0.36372,-0.68848 l 0.1299,-0.5196 q 0.20784,-0.81838 0.53259,-1.00024 0.31177,-0.18186 1.50685,-0.18186 h 4.96222 q 1.07817,0 1.37695,0.16887 0.29877,0.16887 0.5196,0.90931 l 0.14289,0.48063 q 0.22083,0.74044 0.40269,0.87034 0.19485,0.12989 1.0522,0.12989 h 8.97615 q 0.92229,0 1.24705,0.35074 0.33774,0.33774 0.33774,1.28602 v 1.24704 h 5.15706 q 1.40293,0 1.4419,0.49363 0.013,0.10392 -0.45466,1.05219 l -6.1443,12.23667 z m 0.63651,-1.32499 5.58574,-10.88569 q 0.61053,-1.1821 0.94827,-1.37695 0.33775,-0.19486 1.75367,-0.19486 h 15.12045 v -1.24704 q 0,-1.00024 -0.97425,-1.00024 h -9.02811 q -1.22107,0 -1.50685,-0.14289 -0.28578,-0.14289 -0.46765,-0.88332 l -0.15587,-0.59755 q -0.16888,-0.63651 -0.38971,-0.7794 -0.20784,-0.15589 -0.94827,-0.15589 h -4.80633 q -0.83137,0 -1.11715,0.15589 -0.28578,0.16887 -0.44167,0.72744 l -0.15588,0.59755 q -0.20783,0.74043 -0.46764,0.9093 -0.24681,0.16887 -1.11715,0.16887 h -0.80538 q -0.62353,0 -0.83137,0.19486 -0.19485,0.18186 -0.19485,0.79239 z m 0.3897,0.68847 h 23.23927 l 5.7546,-11.53519 q 0.28578,-0.62353 0.28578,-0.70147 -0.0389,-0.27279 -0.80538,-0.27279 h -20.966 q -0.75342,0 -1.03921,0.16887 -0.28578,0.16887 -0.58455,0.76642 z"
             id="path40359-4-5-7-0" />
        <text
             xml:space="preserve"
             id="text44610"
             style="font-style:normal;font-variant:normal;font-weight:normal;font-stretch:normal;font-size:20px;line-height:1.25;font-family:Wingdings;-inkscape-font-specification:'Wingdings, Normal';font-variant-ligatures:none;font-variant-caps:normal;font-variant-numeric:normal;font-variant-east-asian:normal;white-space:pre;shape-inside:url(#rect44612)"
             transform="matrix(1.6196247,0,0,1.6196247,-132.21905,-169.43945)"><tspan
                 x="319.33398"
                 y="271.1729"
                 id="tspan47821">2</tspan></text>
        <text
             xml:space="preserve"
             id="text44610-9"
             style="font-style:normal;font-variant:normal;font-weight:normal;font-stretch:normal;font-size:20px;line-height:1.25;font-family:Wingdings;-inkscape-font-specification:'Wingdings, Normal';font-variant-ligatures:none;font-variant-caps:normal;font-variant-numeric:normal;font-variant-east-asian:normal;white-space:pre;shape-inside:url(#rect44612-0)"
             transform="matrix(1.6196247,0,0,1.6196247,-132.12663,-138.79654)"><tspan
                 x="319.33398"
                 y="271.1729"
                 id="tspan47823">2</tspan></text>
        <path
             style="fill:none;stroke:#000000;stroke-width:0.604849;stroke-linecap:butt;stroke-linejoin:miter;stroke-miterlimit:4;stroke-dasharray:none;stroke-opacity:1"
             d="m 398.28227,330.19627 0.0472,19.33996 48.63338,-0.126 -48.63338,0.126 -0.0472,16.44211 h 49.13737 -49.13737 l -0.0891,18.14728 48.75397,0.15323 -48.75397,-0.15323"
             id="path40763-7-5"
             sodipodi:nodetypes="cccccccccc" />
        <text
             xml:space="preserve"
             id="text44610-9-5"
             style="font-style:normal;font-variant:normal;font-weight:normal;font-stretch:normal;font-size:20px;line-height:1.25;font-family:Wingdings;-inkscape-font-specification:'Wingdings, Normal';font-variant-ligatures:none;font-variant-caps:normal;font-variant-numeric:normal;font-variant-east-asian:normal;white-space:pre;shape-inside:url(#rect44612-0-9)"
             transform="matrix(0.92597779,0,0,0.92597779,149.99013,104.08599)"><tspan
                 x="319.33398"
                 y="271.1729"
                 id="tspan47825">2</tspan></text>
        <text
             xml:space="preserve"
             id="text44610-9-5-2"
             style="font-style:normal;font-variant:normal;font-weight:normal;font-stretch:normal;font-size:20px;line-height:1.25;font-family:Wingdings;-inkscape-font-specification:'Wingdings, Normal';font-variant-ligatures:none;font-variant-caps:normal;font-variant-numeric:normal;font-variant-east-asian:normal;white-space:pre;shape-inside:url(#rect44612-0-9-2)"
             transform="matrix(0.90375611,0,0,0.90375611,157.33415,127.34824)"><tspan
                 x="319.33398"
                 y="271.1729"
                 id="tspan47827">2</tspan></text>
        <text
             xml:space="preserve"
             id="text44610-9-5-2-9"
             style="font-style:normal;font-variant:normal;font-weight:normal;font-stretch:normal;font-size:20px;line-height:1.25;font-family:Wingdings;-inkscape-font-specification:'Wingdings, Normal';font-variant-ligatures:none;font-variant-caps:normal;font-variant-numeric:normal;font-variant-east-asian:normal;white-space:pre;shape-inside:url(#rect44612-0-9-2-5)"
             transform="matrix(0.90375611,0,0,0.90375611,157.09848,146.30828)"><tspan
                 x="319.33398"
                 y="271.1729"
                 id="tspan47829">2</tspan></text>
    </g>
</svg>
