<?xml version="1.0" encoding="UTF-8" standalone="no"?>
<!-- Created with Inkscape (http://www.inkscape.org/) -->

<svg
     width="600"
     height="400"
     viewBox="0 0 600 400"
     version="1.1"
     id="svg5"
     sodipodi:docname="pki.svg"
     inkscape:version="1.1 (c68e22c387, 2021-05-23)"
     inkscape:export-filename="C:\Program Files\XAMPP\htdocs\koko-campus.org\subjects\itパスポート試験\pics\pki.png"
     inkscape:export-xdpi="96"
     inkscape:export-ydpi="96"
     xmlns:inkscape="http://www.inkscape.org/namespaces/inkscape"
     xmlns:sodipodi="http://sodipodi.sourceforge.net/DTD/sodipodi-0.dtd"
     xmlns:xlink="http://www.w3.org/1999/xlink"
     xmlns="http://www.w3.org/2000/svg"
     xmlns:svg="http://www.w3.org/2000/svg">
    <sodipodi:namedview
         id="namedview7"
         pagecolor="#ffffff"
         bordercolor="#666666"
         borderopacity="1.0"
         inkscape:pageshadow="2"
         inkscape:pageopacity="0.0"
         inkscape:pagecheckerboard="0"
         inkscape:document-units="px"
         showgrid="false"
         units="px"
         width="600px"
         inkscape:zoom="1.0608"
         inkscape:cx="179.11"
         inkscape:cy="324.75"
         inkscape:window-width="1920"
         inkscape:window-height="1009"
         inkscape:window-x="-8"
         inkscape:window-y="-8"
         inkscape:window-maximized="1"
         inkscape:current-layer="layer1" />
    <defs
         id="defs2" />
    <g
         inkscape:label="レイヤー 1"
         inkscape:groupmode="layer"
         id="layer1">
        <path
             id="path3293-5-4"
             style="fill:aqua;fill-opacity:1;stroke:none;stroke-width:1.00896;stroke-linejoin:round;stop-color:black"
             inkscape:transform-center-y="8.904"
             d="m 420.64,189.78 -9.92,5.71 40.68,59.15 z"
             inkscape:transform-center-x="-3.4672" />
        <image
             width="137.63"
             height="117.82"
             preserveAspectRatio="none"
             xlink:href="%E3%82%AA%E3%83%95%E3%82%A3%E3%82%B9%E3%83%93%E3%83%AB.png"
             id="image10472"
             x="429.08"
             y="276.1" />
        <ellipse
             style="fill:white;fill-opacity:1;stroke:black;stroke-width:1.6118;stroke-linejoin:round;stroke-miterlimit:4;stroke-dasharray:none;stroke-opacity:1;stop-color:black"
             id="path856"
             cx="84.251"
             cy="325.52"
             rx="48.617"
             ry="36.798" />
        <ellipse
             style="fill:black;fill-opacity:1;stroke-width:4.8354;stroke-linejoin:round;stroke-dasharray:4.8354, 19.3416;stop-color:black"
             id="path858"
             cx="322.55"
             cy="-69.748"
             rx="7.2522"
             ry="8.8637"
             transform="rotate(90)" />
        <ellipse
             style="fill:black;fill-opacity:1;stroke-width:4.8354;stroke-linejoin:round;stroke-dasharray:4.8354, 19.3416;stop-color:black"
             id="path858-8"
             cx="322.55"
             cy="-100.63"
             rx="7.2522"
             ry="8.8637"
             transform="rotate(90)" />
        <rect
             style="fill:white;fill-opacity:1;stroke:black;stroke-width:1;stroke-linejoin:round;stroke-miterlimit:4;stroke-dasharray:none;stroke-opacity:1;stop-color:black"
             id="rect1452"
             width="99.987"
             height="121.32"
             x="330.58"
             y="203.02"
             ry="18.854" />
        <text
             xml:space="preserve"
             style="font-size:10px;line-height:1.25;font-family:Consolas;-inkscape-font-specification:'Consolas, Normal';font-variant-ligatures:none"
             x="341.91"
             y="234.35"
             id="text2468"><tspan
                 sodipodi:role="line"
                 id="tspan2466"
                 x="341.91"
                 y="234.35">ディジタル証明書</tspan></text>
        <g
             id="g6528"
             style="fill:yellow;fill-opacity:1;stroke:black;stroke-width:0.3;stroke-miterlimit:4;stroke-dasharray:none;stroke-opacity:1"
             transform="translate(-4.7134,131.03)">
            <path
                 style="fill:yellow;fill-opacity:1;stroke:black;stroke-width:0.3;stroke-miterlimit:4;stroke-dasharray:none;stroke-opacity:1"
                 d="m 377.36,137.94 -6.75,8.68 0.6,0.94 c 0.87,1.36 1.25,3.99 0.85,5.92 -0.3,1.44 -0.4,1.65 -1.69,3.3 -1.26,1.62 -1.48,1.82 -2.65,2.39 -1.63,0.8 -3.91,1.08 -5.68,0.71 -1.28,-0.27 -1.54,-0.4 -3.24,-1.72 -1.7,-1.33 -1.89,-1.54 -2.47,-2.72 -0.79,-1.62 -1.08,-3.91 -0.71,-5.68 0.27,-1.27 0.41,-1.54 1.67,-3.15 1.28,-1.66 1.46,-1.81 2.78,-2.45 1.77,-0.86 4.41,-1.14 5.95,-0.64 l 1.06,0.36 1.99,-2.56 2,-2.56 -2.44,-1.9 -2.44,-1.9 1.39,-1.68 1.38,-1.68 2.43,1.81 2.42,1.82 0.85,-1.09 0.84,-1.09 -2.43,-1.89 -2.43,-1.89 1.37,-1.76 1.37,-1.76 2.43,1.89 2.43,1.89 1.18,-1.51 1.17,-1.51 1.76,1.37 1.76,1.37 z m -13.41,9.72 c -1.38,0 -2.35,0.5 -3.22,1.61 -0.92,1.18 -1.11,2.56 -0.56,3.89 1.19,2.82 4.89,3.36 6.74,0.97 1.59,-2.04 1.26,-4.28 -0.84,-5.73 -0.9,-0.63 -1.27,-0.76 -2.12,-0.74 z"
                 id="path6542" />
            <path
                 style="fill:yellow;fill-opacity:1;stroke:black;stroke-width:0.3;stroke-miterlimit:4;stroke-dasharray:none;stroke-opacity:1"
                 d="m 383.91,129.27 c 0,0.11 -2.97,4.06 -6.63,8.78 l -6.67,8.56 0.61,1.12 c 0.34,0.61 0.72,1.66 0.84,2.33 1.14,5.96 -4.15,11.05 -10.09,9.73 -1.36,-0.3 -1.64,-0.45 -3.17,-1.64 -1.53,-1.18 -1.74,-1.42 -2.36,-2.67 -2.75,-5.43 0.89,-11.81 6.94,-12.17 0.68,0 1.8,0.1 2.47,0.24 l 1.23,0.32 1.99,-2.56 1.98,-2.55 -2.35,-1.9 -2.35,-1.91 1.3,-1.68 1.3,-1.68 2.43,1.82 2.43,1.81 0.84,-1.08 0.84,-1.08 -2.36,-1.91 -2.35,-1.9 1.31,-1.68 1.3,-1.68 2.42,1.81 2.42,1.81 1.19,-1.43 1.18,-1.42 1.64,1.2 c 0.9,0.65 1.65,1.28 1.67,1.4 z m -19.37,18.35 c -0.86,-0.14 -2.43,0.27 -3.18,0.84 -2.01,1.52 -2.01,4.87 0,6.42 2,1.56 5.25,0.73 6.22,-1.58 0.37,-0.88 0.38,-2.5 0,-3.3 -0.47,-1.07 -1.9,-2.18 -3.06,-2.38 z"
                 id="path6540" />
            <path
                 style="fill:yellow;fill-opacity:1;stroke:black;stroke-width:0.3;stroke-miterlimit:4;stroke-dasharray:none;stroke-opacity:1"
                 d="m 377.23,137.76 -6.72,8.63 0.67,1.3 c 0.99,1.9 1.23,3.62 0.8,5.71 -0.34,1.67 -0.43,1.86 -1.55,3.29 -1.68,2.12 -2.92,2.83 -5.51,3.15 -2.61,0.33 -3.99,-0.1 -6.11,-1.7 -2.11,-1.64 -2.82,-2.89 -3.15,-5.5 -0.32,-2.59 0.1,-3.97 1.71,-6.11 1.09,-1.45 1.26,-1.58 2.8,-2.32 1.92,-0.93 3.65,-1.12 5.73,-0.63 l 1.42,0.33 1.95,-2.5 1.96,-2.51 -2.44,-1.97 -2.44,-1.98 1.22,-1.66 1.22,-1.67 2.52,1.88 2.51,1.88 0.92,-1.17 0.91,-1.17 -2.44,-1.98 -2.43,-1.97 1.23,-1.58 1.23,-1.59 2.51,1.88 2.51,1.88 1.26,-1.51 1.25,-1.52 1.59,1.24 1.58,1.23 z m -12.8,9.84 c -2.41,-0.46 -4.76,1.66 -4.66,4.22 0.16,4.02 5.62,5.37 7.63,1.89 1.47,-2.54 0,-5.53 -2.97,-6.11 z"
                 id="path6538" />
            <path
                 style="fill:yellow;fill-opacity:1;stroke:black;stroke-width:0.3;stroke-miterlimit:4;stroke-dasharray:none;stroke-opacity:1"
                 d="m 377.17,137.83 -6.77,8.71 0.41,0.49 c 0.66,0.8 1.4,3.23 1.38,4.58 0,4.23 -3.07,7.7 -7.24,8.27 -4.55,0.62 -8.81,-2.69 -9.33,-7.26 -0.48,-4.18 2.14,-7.98 6.23,-9.05 1.31,-0.35 3.84,-0.23 4.78,0.21 l 0.58,0.28 2.01,-2.58 2.01,-2.58 -2.44,-1.97 -2.44,-1.98 1.22,-1.66 1.22,-1.67 2.52,1.88 2.51,1.88 0.92,-1.17 0.91,-1.17 -2.44,-1.98 -2.43,-1.97 1.23,-1.58 1.23,-1.59 2.51,1.88 2.51,1.88 1.26,-1.51 1.25,-1.52 1.59,1.24 1.58,1.23 z m -12.63,9.77 c -2.5,-0.47 -4.87,1.62 -4.77,4.19 0.18,4.77 7.11,5.38 8.11,0.72 0.49,-2.31 -0.98,-4.47 -3.34,-4.91 z"
                 id="path6536" />
            <path
                 style="fill:yellow;fill-opacity:1;stroke:black;stroke-width:0.3;stroke-miterlimit:4;stroke-dasharray:none;stroke-opacity:1"
                 d="m 377.19,137.81 -6.76,8.69 0.46,0.71 c 2.16,3.34 1.51,8.07 -1.47,10.62 -4.21,3.6 -10.5,2.41 -12.98,-2.46 -1.14,-2.24 -1.11,-5.21 0.1,-7.59 1.74,-3.51 6.16,-5.3 9.94,-4.03 l 0.8,0.27 1.98,-2.64 1.99,-2.64 -2.44,-1.97 -2.44,-1.97 1.24,-1.59 1.23,-1.59 2.52,1.96 2.53,1.96 0.89,-1.25 0.9,-1.25 -2.44,-1.98 -2.43,-1.97 1.23,-1.58 1.23,-1.59 2.51,1.88 2.51,1.88 1.26,-1.51 1.25,-1.52 1.59,1.24 1.58,1.23 z m -12.97,9.73 c -3.2,-0.24 -5.4,2.99 -4.03,5.92 1.26,2.69 5.13,3.06 6.99,0.67 0.99,-1.26 1.03,-3.51 0.11,-4.87 -0.57,-0.82 -2.02,-1.64 -3.07,-1.72 z"
                 id="path6534" />
            <path
                 style="fill:yellow;fill-opacity:1;stroke:black;stroke-width:0.3;stroke-miterlimit:4;stroke-dasharray:none;stroke-opacity:1"
                 d="m 377.19,137.81 -6.76,8.68 0.74,1.35 c 2.67,4.9 -0.41,11.07 -5.98,12 -2.64,0.44 -5.72,-0.65 -7.44,-2.62 -2.4,-2.75 -2.82,-6.34 -1.14,-9.59 1.65,-3.17 5.61,-4.9 9.15,-4 l 1.49,0.38 2.06,-2.64 2.05,-2.65 -2.52,-1.96 -2.52,-1.97 1.26,-1.51 1.25,-1.51 2.51,1.88 2.51,1.87 0.97,-1.25 0.97,-1.24 -2.43,-1.97 -2.44,-1.98 1.17,-1.5 1.18,-1.51 2.51,1.87 2.51,1.88 1.23,-1.59 1.24,-1.59 1.59,1.24 1.59,1.24 z m -12.35,9.8 c -2.5,-0.6 -5.12,1.37 -5.07,3.82 0,1.82 0.27,2.31 1.64,3.37 1.37,1.07 1.9,1.18 3.67,0.76 3.11,-0.72 3.95,-5.19 1.35,-7.21 -0.37,-0.29 -1.08,-0.62 -1.59,-0.74 z"
                 id="path6532" />
            <path
                 style="fill:yellow;fill-opacity:1;stroke:black;stroke-width:0.3;stroke-miterlimit:4;stroke-dasharray:none;stroke-opacity:1"
                 d="m 377.15,137.77 -6.79,8.65 6.64,-8.63 6.64,-8.63 -1.41,-1.1 -1.42,-1.11 -1.2,1.43 -1.2,1.42 1.18,-1.58 1.17,-1.58 1.59,1.24 1.59,1.24 z m -0.27,-8.83 c -0.69,-0.49 -1.78,-1.34 -2.43,-1.89 -0.64,-0.55 -0.1,-0.15 1.26,0.89 1.34,1.04 1.87,1.49 1.17,1 z m -2.35,3.02 c -0.69,-0.49 -1.78,-1.34 -2.43,-1.89 -0.64,-0.55 -0.1,-0.15 1.26,0.89 1.34,1.04 1.87,1.49 1.17,1 z m 0.4,2.4 c -0.5,0.65 -0.72,0.87 -0.48,0.49 0.23,-0.38 0.64,-0.9 0.91,-1.17 0.27,-0.27 0.1,0 -0.43,0.68 z m -2.48,0.29 c -0.7,-0.49 -1.79,-1.34 -2.43,-1.9 -0.65,-0.55 -0.1,-0.15 1.26,0.89 1.33,1.04 1.86,1.49 1.17,1.01 z m -3.07,6.83 c -1.11,1.43 -1.6,1.99 -1.07,1.26 0.52,-0.74 1.43,-1.91 2.02,-2.6 0.59,-0.69 0.16,-0.1 -0.95,1.34 z m 2.44,7.97 0.13,0.8 -0.25,-0.8 c -0.14,-0.44 -0.23,-0.83 -0.21,-0.86 0.1,-0.13 0.2,0.13 0.33,0.86 z m -6.87,-5.95 c 0,0 -0.43,0.1 -0.9,0 -0.53,0 -0.67,-0.1 -0.39,-0.13 0.44,-0.1 1.39,0 1.29,0.1 z m 7.19,8.27 v 0.63 l -0.12,-0.62 c -0.13,-0.57 -0.12,-0.78 0,-0.68 0,0 0.1,0.33 0.1,0.67 z m -10.05,-8.05 c 0,0 -0.26,0.1 -0.52,0.1 -0.43,0 -0.43,0 0,-0.12 0.44,-0.11 0.65,-0.1 0.54,0.1 z m 10,9.31 c 0,0.28 -0.14,0.51 -0.21,0.51 -0.1,0 -0.1,-0.24 0,-0.55 0.16,-0.69 0.32,-0.65 0.2,0 z m -5.33,-4.51 c -0.24,-0.12 -0.54,-0.36 -0.66,-0.52 -0.13,-0.17 0.1,-0.1 0.43,0.22 0.37,0.29 0.47,0.42 0.23,0.3 z m -6.09,-4.39 c -0.64,0.32 -0.79,0.36 -0.63,0.15 0.1,-0.1 0.36,-0.22 0.64,-0.29 0.49,-0.12 0.49,-0.11 0,0.14 z m 7.18,5.85 c 0,0.14 -0.1,0.12 -0.21,-0.1 -0.2,-0.33 -0.16,-0.49 0.1,-0.31 0.1,0.1 0.15,0.24 0.13,0.37 z m -2.85,-2.38 c 0,0 -0.21,0 -0.39,0 -0.2,-0.1 -0.24,-0.14 -0.11,-0.19 0.22,-0.1 0.6,0.1 0.5,0.23 z m 3.13,3.61 0.1,0.78 -0.15,-0.77 c -0.13,-0.71 -0.14,-0.93 0,-0.83 0,0 0.1,0.39 0.1,0.82 z m -4.68,-3.7 c -0.39,0.1 -0.75,0.1 -0.8,0 0,0 0.24,-0.11 0.64,-0.18 0.39,-0.1 0.75,-0.1 0.8,0 0,0 -0.24,0.11 -0.64,0.18 z m 8.14,7.16 c -0.16,0.18 -0.23,0.19 -0.18,0 0,-0.16 0.16,-0.3 0.26,-0.31 0.1,0 0.1,0.11 -0.1,0.29 z m -12.41,-9.66 c -0.15,0.2 -0.23,0.2 -0.18,0 0.1,-0.15 0.16,-0.3 0.27,-0.3 0.1,0 0.1,0.11 -0.1,0.28 z m 8.92,7.61 c -0.1,0.28 -0.14,0.51 -0.21,0.51 -0.1,0 -0.1,-0.24 0,-0.55 0.16,-0.69 0.32,-0.65 0.2,0 z m -6.05,-4.73 c -0.64,0.33 -0.79,0.36 -0.63,0.15 0.1,-0.1 0.36,-0.22 0.64,-0.29 0.49,-0.11 0.49,-0.1 0,0.14 z m 9.12,7.64 c -0.18,0.23 -0.29,0.29 -0.25,0.14 0,-0.15 0.19,-0.34 0.33,-0.42 0.13,-0.1 0.1,0.1 -0.1,0.28 z m -12.75,-9.92 c -0.18,0.23 -0.29,0.3 -0.24,0.14 0,-0.15 0.19,-0.34 0.32,-0.41 0.14,-0.1 0.1,0 -0.1,0.27 z m 8.86,8.64 c -0.36,0.46 -0.52,0.6 -0.36,0.32 0.16,-0.29 0.45,-0.66 0.65,-0.84 0.2,-0.17 0.1,0.1 -0.29,0.52 z m -6.71,-5.22 c -0.36,0.46 -0.52,0.61 -0.36,0.32 0.16,-0.28 0.45,-0.66 0.65,-0.84 0.2,-0.17 0.1,0.1 -0.29,0.52 z m 9.91,7.71 c -0.22,0.28 -0.33,0.34 -0.24,0.14 0.1,-0.19 0.26,-0.42 0.4,-0.49 0.13,-0.1 0.1,0.1 -0.16,0.35 z m -13.08,-10.17 c -0.21,0.27 -0.33,0.33 -0.24,0.14 0.1,-0.2 0.26,-0.42 0.39,-0.51 0.13,-0.1 0.1,0.1 -0.15,0.36 z m 11.94,11.3 c -0.18,0.23 -0.29,0.3 -0.24,0.15 0,-0.15 0.19,-0.34 0.32,-0.42 0.14,-0.1 0.1,0 -0.1,0.27 z m -12.74,-9.91 c -0.18,0.23 -0.29,0.29 -0.25,0.14 0,-0.15 0.19,-0.34 0.33,-0.42 0.13,-0.1 0.1,0 -0.1,0.28 z m 8.81,7.76 c 0,0 -0.27,0.1 -0.53,0.1 -0.42,0 -0.42,0 0,-0.12 0.44,-0.1 0.64,-0.1 0.54,0.1 z m -5.69,-4.06 c 0,0.43 0,0.43 -0.12,0 -0.11,-0.44 -0.1,-0.65 0,-0.54 0,0 0.1,0.26 0.1,0.52 z m 8.46,7.06 c -0.1,0.1 -0.29,0.22 -0.49,0.29 -0.19,0.1 -0.3,0.1 -0.23,0 0.1,-0.1 0.3,-0.22 0.49,-0.29 0.2,-0.1 0.3,-0.1 0.23,0 z m -12.14,-9.17 c -0.17,0.55 -0.3,0.62 -0.23,0.13 0,-0.25 0.12,-0.45 0.2,-0.46 0.1,0 0.1,0.14 0,0.33 z m 8.17,6.32 c 0,0 -0.26,0.1 -0.52,0.1 -0.43,0 -0.43,0 0,-0.12 0.43,-0.11 0.64,-0.1 0.53,0.1 z m -4.35,-3.01 c 0,0.42 0,0.43 -0.11,0 -0.11,-0.44 -0.1,-0.64 0.1,-0.54 0,0 0.1,0.27 0.1,0.53 z m 6.99,6.56 c -0.24,0.1 -0.55,0.17 -0.7,0.16 -0.15,0 0,-0.13 0.35,-0.25 0.74,-0.25 0.97,-0.19 0.35,0.1 z m -11.08,-8.44 c 0,0.36 -0.1,0.55 -0.15,0.41 -0.1,-0.27 0,-1.22 0.13,-1.13 0,0 0.1,0.35 0,0.72 z m 5.86,4.32 c -0.29,-0.16 -0.66,-0.46 -0.84,-0.66 -0.17,-0.2 0.1,-0.1 0.52,0.29 0.46,0.36 0.6,0.53 0.32,0.37 z m 4.14,4.45 c 0,0 -0.46,0.1 -0.97,0.13 l -0.93,0.1 0.92,-0.16 c 0.85,-0.15 1.08,-0.16 0.98,0 z m -10.02,-7 0.1,0.93 -0.16,-0.91 c -0.15,-0.86 -0.16,-1.09 0,-0.99 0,0 0.1,0.46 0.12,0.97 z m 7.91,7.14 c -0.27,0.1 -1.22,0 -1.12,-0.14 0,0 0.35,0 0.72,0 0.36,0 0.55,0.1 0.4,0.15 z m -7.46,-5.49 c 0.13,0.58 0.12,0.61 -0.1,0.21 -0.13,-0.26 -0.22,-0.58 -0.21,-0.71 0,-0.37 0.11,-0.24 0.28,0.5 z m 4.18,4.76 c -0.15,0 -0.34,-0.19 -0.42,-0.33 -0.1,-0.14 0.1,-0.1 0.28,0.1 0.23,0.18 0.29,0.29 0.14,0.25 z m -2.52,-1.96 c -0.15,0 -0.34,-0.19 -0.42,-0.33 -0.1,-0.13 0.1,-0.1 0.28,0.1 0.23,0.18 0.3,0.29 0.14,0.25 z m 1.21,1.22 c -0.24,-0.12 -0.58,-0.39 -0.76,-0.59 -0.17,-0.2 0,-0.1 0.44,0.22 0.41,0.32 0.56,0.49 0.32,0.37 z"
                 id="path6530" />
        </g>
        <text
             xml:space="preserve"
             style="font-size:12px;line-height:1.25;font-family:Consolas;-inkscape-font-specification:'Consolas, Normal';font-variant-ligatures:none"
             x="376.41"
             y="279.34"
             id="text5248"><tspan
                 sodipodi:role="line"
                 id="tspan5246"
                 x="376.41"
                 y="279.34">公開鍵</tspan></text>
        <g
             id="g3549"
             transform="matrix(0.6026,0,0,0.6026,18.397,-4.497)">
            <ellipse
                 style="fill:white;fill-opacity:1;stroke:black;stroke-width:3.1844;stroke-linejoin:round;stroke-miterlimit:4;stroke-dasharray:none;stroke-opacity:1;stop-color:black"
                 id="path847"
                 cx="238.97"
                 cy="64.654"
                 rx="75"
                 ry="45.991" />
            <text
                 xml:space="preserve"
                 style="font-size:29.721px;line-height:1.25;font-family:Consolas;-inkscape-font-specification:'Consolas, Normal';font-variant-ligatures:none;stroke-width:1.06147"
                 x="194.86"
                 y="75.161"
                 id="text1533"><tspan
                     sodipodi:role="line"
                     id="tspan1531"
                     x="194.86"
                     y="75.161"
                     style="stroke-width:1.06147">認証局</tspan></text>
        </g>
        <g
             id="g3554"
             transform="matrix(0.6026,0,0,0.6026,192.31,-20.692)">
            <ellipse
                 style="fill:white;fill-opacity:1;stroke:black;stroke-width:2.75983;stroke-linejoin:round;stroke-miterlimit:4;stroke-dasharray:none;stroke-opacity:1;stop-color:black"
                 id="path847-6"
                 cx="149.66"
                 cy="203.17"
                 rx="65"
                 ry="39.859" />
            <text
                 xml:space="preserve"
                 style="font-size:25.7584px;line-height:1.25;font-family:Consolas;-inkscape-font-specification:'Consolas, Normal';font-variant-ligatures:none;stroke-width:0.919943"
                 x="111.42"
                 y="212.28"
                 id="text1533-6"><tspan
                     sodipodi:role="line"
                     id="tspan1531-8"
                     x="111.42"
                     y="212.28"
                     style="stroke-width:0.919943">認証局</tspan></text>
        </g>
        <g
             id="g3559"
             transform="matrix(0.6026,0,0,0.6026,342.68,-37.491)">
            <ellipse
                 style="fill:white;fill-opacity:1;stroke:black;stroke-width:2.33522;stroke-linejoin:round;stroke-miterlimit:4;stroke-dasharray:none;stroke-opacity:1;stop-color:black"
                 id="path847-0"
                 cx="78.997"
                 cy="330"
                 rx="55"
                 ry="33.727" />
            <text
                 xml:space="preserve"
                 style="font-size:21.7954px;line-height:1.25;font-family:Consolas;-inkscape-font-specification:'Consolas, Normal';font-variant-ligatures:none;stroke-width:0.778407"
                 x="46.646"
                 y="337.7"
                 id="text1533-1"><tspan
                     sodipodi:role="line"
                     id="tspan1531-7"
                     x="46.646"
                     y="337.7"
                     style="stroke-width:0.778407">認証局</tspan></text>
        </g>
        <path
             id="path3293-5"
             style="fill:aqua;fill-opacity:1;stroke:none;stroke-width:0.685813;stroke-linejoin:round;stop-color:black"
             inkscape:transform-center-y="1.1281"
             d="m 331.67,121.06 -7.02,9.02 29.63,15.78 z"
             inkscape:transform-center-x="-2.6022" />
        <path
             id="path3293-5-3"
             style="fill:aqua;fill-opacity:1;stroke:none;stroke-width:0.685813;stroke-linejoin:round;stop-color:black"
             inkscape:transform-center-y="1.1281"
             d="m 217.73,57.612 -7.02,9.02 29.63,15.78 z"
             inkscape:transform-center-x="-2.6022" />
        <text
             xml:space="preserve"
             style="font-size:9.64168px;line-height:1.25;font-family:Consolas;-inkscape-font-specification:'Consolas, Normal';font-variant-ligatures:none;stroke-width:0.602605"
             x="238.5"
             y="61.199"
             id="text8900"><tspan
                 sodipodi:role="line"
                 id="tspan8898"
                 x="238.5"
                 y="61.199"
                 style="stroke-width:0.602605">(ディジタル証明書)</tspan></text>
        <text
             xml:space="preserve"
             style="font-size:9.64168px;line-height:1.25;font-family:Consolas;-inkscape-font-specification:'Consolas, Normal';font-variant-ligatures:none;stroke-width:0.602605"
             x="350.64"
             y="124.54"
             id="text8900-8"><tspan
                 sodipodi:role="line"
                 id="tspan8898-7"
                 x="350.64"
                 y="124.54"
                 style="stroke-width:0.602605">(ディジタル証明書)</tspan></text>
        <path
             id="path7605"
             style="fill:yellow;stroke:none;stroke-width:0.0675741;stroke-linejoin:round;stop-color:black"
             inkscape:transform-center-y="-9.4717"
             d="m 151.23,334.71 -2.44,-16.97 179.82,-17.26 z"
             inkscape:transform-center-x="-88.75" />
        <path
             id="path7605-0"
             style="fill:yellow;stroke:none;stroke-width:0.0675741;stroke-linejoin:round;stop-color:black"
             inkscape:transform-center-y="-41.037"
             d="m 145.44,303.4 -8.35,-14.97 161.74,-80.45 z"
             inkscape:transform-center-x="-76.45" />
        <path
             id="path7605-8"
             style="fill:yellow;stroke:none;stroke-width:0.0705109;stroke-linejoin:round;stop-color:black"
             inkscape:transform-center-y="-66.227"
             d="m 118.74,275.83 -11.96,-12.27 146.69,-130.99 z"
             inkscape:transform-center-x="-66.931" />
        <path
             id="path7605-2"
             style="fill:yellow;stroke:none;stroke-width:0.0675741;stroke-linejoin:round;stop-color:black"
             inkscape:transform-center-y="-85.639"
             d="m 81.09,263.05 -16.424,-4.9 59.824,-170.466 z"
             inkscape:transform-center-x="-20.958" />
        <g
             id="g7929"
             transform="matrix(1.2112,0,0,1.2112,-20.177,-403)">
            <path
                 style="fill:#f2a0a2;stroke-width:0.274284"
                 d="m 127.07,483.12 c 5.46,13.3 7.44,18.13 10.75,26.34 0.89,2.19 1.7,4 1.8,4.01 0.1,0 2.08,-2.44 4.4,-5.44 2.32,-3.01 4.26,-5.51 4.31,-5.57 0.26,-0.29 9.78,5.49 12.99,7.89 5.59,4.19 8.38,6.82 14.62,13.8 7.7,8.6 11.52,13.87 17.59,24.21 6.81,11.62 12.54,24.5 14.41,32.34 0.44,1.85 0.53,2.01 0.59,1.14 0.16,-2.2 -1.45,-12.67 -3.03,-19.62 -3.87,-17.07 -9.31,-30.99 -17.26,-44.17 -6.3,-10.45 -15.87,-20.81 -26.25,-28.43 -1.27,-0.93 -2.31,-1.72 -2.31,-1.75 0,0 2.12,-2.78 4.71,-6.11 3.84,-4.94 4.63,-6.09 4.27,-6.26 -0.39,-0.18 -45.44,-6.37 -46.73,-6.42 -0.27,0 -0.48,0.1 -0.47,0.19 0,0.12 2.53,6.35 5.61,13.85 z"
                 id="path7943" />
            <path
                 style="fill:#ee7985;stroke-width:0.274284"
                 d="m 123.86,474.97 c 10.85,26.68 15.54,38.12 15.69,38.3 0.1,0.12 2.1,-2.27 4.45,-5.31 3.67,-4.77 4.34,-5.5 4.82,-5.33 2.79,1.03 10.48,5.92 15,9.54 8.18,6.55 17.17,16.69 24.44,27.55 8.71,13.01 17.3,30.78 19.71,40.77 0.66,2.76 0.7,1.85 0.13,-3.03 -1.17,-9.86 -4.05,-22.28 -7.66,-33.01 -3.67,-10.91 -9.93,-23.48 -15.89,-31.88 -5.9,-8.34 -13.86,-16.45 -21.87,-22.3 -1.64,-1.2 -2.99,-2.26 -2.99,-2.37 0,-0.11 2.08,-2.88 4.62,-6.15 2.54,-3.27 4.55,-6.02 4.48,-6.1 -0.16,-0.18 -46.47,-6.58 -46.97,-6.5 -0.17,0 0.73,2.6 2.04,5.82 z"
                 id="path7941" />
            <path
                 style="fill:#eb5b63;stroke-width:0.274284"
                 d="m 130.49,491.21 c 4.95,12.1 9.05,22.05 9.11,22.11 0.1,0.1 2.03,-2.36 4.38,-5.39 2.34,-3.02 4.38,-5.5 4.52,-5.49 0.56,0 7.38,3.96 10.04,5.77 14.79,10.12 28.62,27.03 39.81,48.66 4.28,8.28 7.44,15.82 9.19,21.94 1.12,3.92 1.17,3.47 0.33,-2.86 -1.15,-8.7 -3.67,-19.68 -6.68,-29.15 -4.11,-12.94 -10.86,-26.42 -18.13,-36.22 -5.58,-7.51 -14.21,-16 -21.5,-21.14 -1.04,-0.73 -1.89,-1.44 -1.88,-1.57 0,-0.13 2.09,-2.9 4.62,-6.16 2.53,-3.26 4.55,-5.99 4.49,-6.06 -0.1,-0.1 -9.97,-1.47 -22.02,-3.11 -12.05,-1.65 -22.68,-3.12 -23.62,-3.27 -0.93,-0.15 -1.69,-0.22 -1.68,-0.17 0,0.1 4.07,10.01 9.02,22.11 z"
                 id="path7939" />
            <path
                 style="fill:#e93848;stroke-width:0.274284"
                 d="m 122.4,471.32 c 0.51,1.16 4.6,11.12 9.09,22.13 l 8.16,20.03 4.27,-5.53 c 2.35,-3.04 4.45,-5.52 4.67,-5.5 0.84,0 9.72,5.45 12.99,7.92 12.6,9.47 25.18,24.9 34.9,42.84 4.86,8.95 8.72,17.8 10.95,25.05 0.87,2.85 0.9,2.89 0.82,1.42 -0.18,-3.78 -1.89,-13.36 -3.75,-21 -3.08,-12.7 -6.96,-23.09 -12.61,-33.79 -4.86,-9.21 -7.81,-13.46 -14.54,-20.99 -5.17,-5.78 -8.93,-9.26 -14.58,-13.49 l -3.35,-2.52 1.88,-2.41 c 5.23,-6.68 7.57,-9.74 7.5,-9.82 0,-0.1 -10.13,-1.46 -22.42,-3.13 -12.29,-1.67 -22.93,-3.15 -23.64,-3.28 -0.71,-0.13 -1.29,-0.19 -1.28,-0.14 0,0.1 0.42,1.04 0.94,2.21 z"
                 id="path7937" />
            <path
                 style="fill:#e60011;stroke-width:0.274284"
                 d="m 124.16,475.4 c 1.33,3.24 5.31,12.99 8.83,21.64 3.53,8.66 6.49,15.85 6.59,15.97 0.1,0.12 2.1,-2.26 4.45,-5.28 3.04,-3.93 4.38,-5.46 4.67,-5.35 0.23,0.1 1.97,1.03 3.87,2.09 9.09,5.04 15.83,10.7 24.41,20.48 5.27,6 7.38,8.73 11.31,14.63 8.52,12.76 15.69,27.23 19.25,38.82 0.92,2.99 0.92,2.33 0,-3.98 -2,-13.81 -6.15,-28.66 -11.32,-40.47 -1.96,-4.5 -6.05,-12.42 -8.24,-15.98 -5.14,-8.33 -12.25,-16.65 -19.9,-23.27 -2.13,-1.84 -7.97,-6.33 -8.53,-6.55 -0.14,-0.1 1.88,-2.89 4.51,-6.28 2.62,-3.4 4.62,-6.21 4.45,-6.25 -0.18,-0.1 -2.77,-0.41 -5.77,-0.82 -3,-0.4 -12.27,-1.66 -20.59,-2.79 -8.32,-1.14 -16.11,-2.2 -17.31,-2.35 -1.2,-0.16 -2.4,-0.37 -2.65,-0.45 -0.26,-0.1 -0.47,-0.1 -0.47,0.1 0,0.12 1.09,2.88 2.43,6.13 z"
                 id="path7935" />
            <path
                 style="fill:#e5000a;stroke-width:0.274284"
                 d="m 123.22,469.85 c 0.66,0 1.21,0 1.21,-0.14 0,-0.11 -0.47,-0.23 -1.06,-0.26 -0.6,0 -1.15,0 -1.22,0.13 -0.1,0.11 0.4,0.23 1.07,0.27 z m 0.1,3.23 c 0.61,1.36 1.19,1.83 0.98,0.81 -0.1,-0.3 -0.23,-0.56 -0.37,-0.57 -0.14,0 -0.16,-0.15 0,-0.33 0.13,-0.18 0.28,-0.63 0.34,-1.01 0.1,-0.46 0,-0.57 -0.14,-0.33 -0.2,0.29 -0.3,0.26 -0.52,-0.17 -0.15,-0.29 -0.28,-0.4 -0.29,-0.25 0,0.16 0.15,0.56 0.35,0.9 0.25,0.39 0.28,0.67 0.1,0.77 -0.16,0.1 -0.28,0.1 -0.27,-0.1 0,-0.14 -0.16,-0.49 -0.36,-0.8 -0.54,-0.79 -0.47,-0.47 0.22,1.06 z m -0.14,-2.29 c 0.32,0 0.39,-0.1 0.18,-0.16 -0.2,-0.1 -0.44,-0.1 -0.53,0 -0.1,0.1 0.1,0.16 0.35,0.16 z m 0.93,0.21 c 0.15,-0.1 0.28,-0.21 0.29,-0.28 0,-0.1 -0.12,-0.12 -0.27,-0.13 -0.15,0 -0.28,0.11 -0.29,0.27 0,0.16 0.11,0.22 0.27,0.14 z m 0.1,4.13 c 0.15,0.11 0.34,0.15 0.42,0.1 0.1,-0.1 0,-0.21 -0.28,-0.31 -0.47,-0.21 -0.56,-0.1 -0.14,0.23 z m 0.47,1.12 c 0.14,0.1 0.27,0.1 0.28,-0.1 0,-0.15 -0.11,-0.36 -0.25,-0.46 -0.15,-0.1 -0.27,-0.1 -0.28,0.1 0,0.15 0.1,0.36 0.25,0.46 z m 1.85,-6.17 c 1.06,0.1 1.46,0 0.89,-0.1 -0.56,-0.1 -1.43,-0.14 -1.91,-0.11 -0.49,0 0,0.11 1.02,0.17 z m -1.1,7.04 c 0.32,-0.1 0.58,0.1 0.58,0.25 0,0.45 0.53,-0.64 0.55,-1.16 0,-0.26 -0.1,-0.21 -0.24,0.13 -0.14,0.29 -0.27,0.41 -0.27,0.26 0,-0.15 -0.15,-0.1 -0.33,0.12 -0.25,0.32 -0.28,0.27 -0.14,-0.22 0.1,-0.33 0.1,-0.67 0,-0.74 -0.11,-0.1 -0.21,0 -0.23,0.19 0,0.18 -0.13,0.54 -0.25,0.79 -0.17,0.36 -0.1,0.44 0.36,0.38 z m -0.1,0.87 c 0.11,0.19 0.34,0.25 0.56,0.14 0.27,-0.15 0.22,-0.25 -0.2,-0.39 -0.3,-0.1 -0.55,-0.16 -0.55,-0.14 0,0 0.1,0.2 0.19,0.39 z m 0.8,1.98 c 0.29,0.51 0.56,0.92 0.6,0.93 0.22,0 -0.16,-1.04 -0.6,-1.69 -0.65,-0.95 -0.65,-0.4 0,0.76 z m 0.89,2.24 c 0.13,0.24 0.3,0.18 0.57,-0.21 0.22,-0.3 0.25,-0.47 0.1,-0.38 -0.16,0.1 -0.29,0 -0.28,-0.12 0,-0.16 -0.11,-0.3 -0.26,-0.31 -0.32,0 -0.39,0.53 -0.11,1.02 z m 0.16,-2.26 c 0.13,0.1 0.33,0.1 0.43,-0.1 0.11,-0.15 0,-0.28 -0.24,-0.29 -0.48,0 -0.56,0.13 -0.19,0.39 z m 0.54,3.11 c 0.22,0 0.41,-0.21 0.43,-0.48 0,-0.28 0,-0.51 -0.1,-0.51 -0.1,0 -0.26,0.21 -0.42,0.48 -0.23,0.37 -0.2,0.49 0.1,0.51 z m 3.77,-12.17 3.48,0.23 -2.68,-0.39 c -1.47,-0.22 -3.04,-0.32 -3.48,-0.23 -0.5,0.1 0.53,0.25 2.68,0.39 z m -3.6,9.85 c 0.1,-0.2 0.1,-0.43 0,-0.53 -0.1,-0.1 -0.16,0.1 -0.16,0.35 0,0.32 0,0.39 0.15,0.18 z m 0.21,3.33 c 0.2,-0.18 0.29,-0.4 0.22,-0.48 -0.1,-0.1 -0.25,0.1 -0.37,0.32 -0.16,0.38 -0.13,0.41 0.15,0.16 z m 0.1,1.23 c 0.1,0.2 0.25,0.36 0.4,0.37 0.17,0 0.16,-0.15 0,-0.41 -0.24,-0.33 -0.23,-0.43 0,-0.42 0.17,0 0.25,-0.11 0.16,-0.27 -0.1,-0.16 -0.27,-0.22 -0.42,-0.14 -0.28,0.15 -0.31,0.33 -0.12,0.87 z m 0.92,2.01 c 0.26,0.57 0.34,0.6 0.51,0.22 0.12,-0.25 0.1,-0.51 -0.15,-0.6 -0.22,-0.1 -0.29,-0.46 -0.17,-1.03 0.19,-0.99 0,-0.95 -0.31,0.1 -0.11,0.37 -0.1,0.97 0.12,1.34 z m 0.62,1.43 c 0.12,0.23 0.21,0.1 0.23,-0.35 0.1,-0.8 0,-0.9 -0.26,-0.37 -0.1,0.2 -0.1,0.52 0,0.72 z m 0.16,-2.45 c 0.16,0 0.2,0.15 0.1,0.32 -0.13,0.2 -0.1,0.24 0.13,0.12 0.26,-0.14 0.27,-0.28 0.1,-0.58 -0.17,-0.22 -0.21,-0.59 -0.11,-0.82 0.11,-0.24 0.1,-0.36 -0.1,-0.27 -0.38,0.21 -0.42,1.21 0,1.23 z m 0.77,4.79 c 0.36,0.74 0.71,1.22 0.77,1.06 0.1,-0.15 0,-0.47 -0.2,-0.7 -0.17,-0.23 -0.19,-0.41 0,-0.41 0.15,0 0.45,0.49 0.66,1.07 0.34,0.92 0.37,0.95 0.26,0.22 -0.1,-0.46 -0.12,-0.98 -0.11,-1.16 0,-0.18 -0.1,-0.27 -0.23,-0.2 -0.13,0.1 -0.23,0 -0.22,-0.16 0,-0.15 -0.14,-0.23 -0.34,-0.16 -0.19,0.1 -0.54,-0.24 -0.78,-0.68 -0.67,-1.23 -0.49,-0.38 0.23,1.12 z m 1.13,2.73 c 0.21,0.41 0.37,0.54 0.38,0.3 0,-0.22 -0.14,-0.66 -0.35,-0.96 -0.47,-0.71 -0.49,-0.27 0,0.66 z m 1.77,4.44 c 0.91,2.06 1.22,2.54 1.5,2.29 0.28,-0.25 0.35,-0.24 0.34,0.1 0,0.21 0.1,0.31 0.13,0.24 0.22,-0.2 -0.1,-1.05 -0.41,-1.07 -0.14,0 -0.19,0.11 -0.1,0.27 0.1,0.15 0,0.27 -0.14,0.27 -0.16,0 -0.28,-0.27 -0.26,-0.57 0,-0.3 -0.1,-0.55 -0.24,-0.56 -0.15,0 -0.26,-0.26 -0.25,-0.56 0,-0.31 -0.1,-0.56 -0.21,-0.57 -0.48,0 -0.53,-0.94 -0.1,-1.54 0.25,-0.34 0.46,-0.77 0.47,-0.97 0,-0.19 -0.27,0.1 -0.6,0.58 l -0.6,0.93 0.2,-0.82 c 0.15,-0.6 0.13,-0.71 -0.1,-0.41 -0.28,0.35 -0.42,0.18 -0.31,-0.36 0,-0.11 -0.1,-0.21 -0.23,-0.22 -0.42,0 -0.35,0.2 0.89,3.01 z m 3.16,-26.69 c 0.61,0 1.12,0.21 1.18,0.41 0.1,0.2 0.21,0.26 0.35,0.15 0.39,-0.33 -0.43,-0.76 -1.56,-0.83 -0.56,0 -1.03,0 -1.03,0.1 0,0.1 0.47,0.16 1.06,0.19 z m -1.66,30.27 c 0.14,0.1 0.27,0 0.29,-0.25 0,-0.23 -0.1,-0.43 -0.25,-0.44 -0.15,0 -0.28,0.1 -0.29,0.24 0,0.15 0.1,0.34 0.25,0.45 z m 0.73,1.68 c 0.15,0.11 0.2,0 0.12,-0.25 -0.16,-0.48 -0.35,-0.58 -0.37,-0.19 0,0.14 0.1,0.34 0.25,0.44 z m 2.02,5.12 c 0.96,2.36 1.84,4.38 1.96,4.51 0.12,0.12 0.1,0 -0.1,-0.37 -0.26,-0.6 -0.13,-0.94 0.36,-0.91 0.14,0 0.17,0.19 0.1,0.41 -0.29,0.65 0,0.49 0.7,-0.42 0.37,-0.46 0.54,-0.76 0.37,-0.67 -0.36,0.19 -1.26,-0.84 -1.02,-1.17 0.1,-0.13 0,-0.25 -0.24,-0.26 -0.51,0 -0.52,0.27 0,0.72 0.22,0.2 0.31,0.48 0.21,0.63 -0.11,0.16 -0.27,0.11 -0.4,-0.12 -0.17,-0.31 -0.22,-0.32 -0.24,0 0,0.19 -0.14,0.27 -0.29,0.17 -0.15,-0.11 -0.19,-0.3 -0.1,-0.44 0.1,-0.13 0,-0.25 -0.12,-0.26 -0.16,0 -0.27,-0.26 -0.26,-0.56 0,-0.31 -0.1,-0.56 -0.2,-0.56 -0.25,0 -1.51,-3.3 -1.47,-3.86 0,-0.19 0.14,-0.34 0.29,-0.33 0.15,0 0.28,-0.13 0.29,-0.29 0,-0.21 -0.12,-0.21 -0.42,0 -0.24,0.18 -0.52,0.23 -0.62,0.12 -0.1,-0.11 0,-0.3 0.24,-0.42 0.31,-0.17 0.27,-0.22 -0.2,-0.21 -0.34,0 -0.61,0 -0.59,0 0,0 0.8,1.94 1.76,4.29 z m 2.49,2.69 c 0.15,0 0.26,0.15 0.26,0.31 0,0.16 -0.14,0.2 -0.28,0.1 -0.15,-0.1 -0.27,-0.24 -0.26,-0.3 0,-0.1 0.13,-0.12 0.28,-0.11 z m -0.17,-38.82 c 0.75,0 1.03,0 0.62,-0.1 -0.41,-0.1 -1.03,-0.11 -1.37,-0.1 -0.34,0 0,0.11 0.75,0.15 z m -2.22,32.99 c 0.2,-0.17 0.29,-0.39 0.22,-0.48 -0.1,-0.1 -0.25,0.1 -0.37,0.32 -0.17,0.38 -0.13,0.42 0.15,0.16 z m 2.94,-33.48 c 0.52,0 0.74,0 0.48,-0.1 -0.26,-0.1 -0.69,-0.11 -0.96,-0.1 -0.26,0.1 0,0.13 0.48,0.16 z m 1.84,1.49 c 0.37,0 0.53,0 0.35,-0.12 -0.19,-0.1 -0.5,-0.1 -0.69,0 -0.19,0.1 0,0.14 0.34,0.16 z m -0.35,-1.11 c 0.14,0 1.56,0.2 3.14,0.34 2.86,0.26 2.86,0.26 0.83,-0.11 -1.68,-0.3 -4.92,-0.49 -3.97,-0.22 z m -1.7,37.15 c 0.13,0.1 0.31,0 0.4,-0.19 0.1,-0.2 0,-0.37 -0.23,-0.38 -0.43,0 -0.53,0.32 -0.17,0.57 z m 0.5,1.28 c 0.16,0 0.29,-0.17 0.31,-0.39 0,-0.22 0.17,-0.33 0.36,-0.25 0.37,0.17 1.57,-1.59 1.48,-2.17 0,-0.24 0.1,-0.29 0.42,-0.16 0.29,0.12 0.2,-0.1 -0.22,-0.43 -0.76,-0.7 -1.01,-0.78 -1.03,-0.37 0,0.15 0.1,0.26 0.19,0.25 0.55,-0.1 0.71,0.11 0.33,0.33 -0.38,0.22 -0.38,0.28 0,0.54 0.35,0.26 0.18,0.4 -0.35,0.29 -0.11,0 -0.14,0.15 -0.1,0.38 0.1,0.32 0,0.37 -0.37,0.2 -0.42,-0.18 -0.45,-0.15 -0.18,0.22 0.41,0.57 0.1,0.88 -0.48,0.42 -0.22,-0.2 -0.33,-0.25 -0.23,-0.11 0.1,0.13 0.1,0.46 -0.12,0.74 -0.21,0.33 -0.21,0.5 0,0.51 z m 3.39,-37.18 c 0.11,0 0.4,-0.1 0.63,-0.23 0.35,-0.2 0.31,-0.25 -0.19,-0.28 -0.34,0 -0.62,0.1 -0.63,0.23 0,0.15 0.1,0.28 0.19,0.28 z m 1.84,0.33 c 0.45,0 0.6,0 0.34,-0.11 -0.26,-0.1 -0.63,-0.11 -0.82,-0.1 -0.19,0.1 0,0.14 0.48,0.15 z m -2,33.32 c 0.15,-0.1 0.29,-0.21 0.29,-0.27 0,-0.1 -0.12,-0.13 -0.27,-0.14 -0.15,0 -0.28,0.12 -0.29,0.28 0,0.15 0.11,0.22 0.27,0.13 z m 0.77,-0.94 c 0.18,-0.14 0.51,-0.61 0.72,-1.04 0.21,-0.44 0.52,-0.79 0.69,-0.79 0.17,0 0.13,-0.11 -0.1,-0.27 -0.63,-0.46 -0.85,-0.37 -0.69,0.27 0.1,0.38 0.1,0.52 -0.12,0.4 -0.15,-0.1 -0.37,-0.1 -0.49,0.12 -0.14,0.2 -0.1,0.24 0.15,0.11 0.24,-0.13 0.31,-0.1 0.2,0.17 -0.1,0.21 -0.27,0.35 -0.41,0.31 -0.13,0 -0.25,0.17 -0.27,0.46 0,0.36 0.1,0.43 0.31,0.26 z m -0.1,-1.77 c 0.16,-0.1 0.29,-0.27 0.3,-0.43 0,-0.15 -0.11,-0.2 -0.27,-0.11 -0.16,0.1 -0.29,0.27 -0.3,0.42 0,0.15 0.11,0.21 0.27,0.12 z m 0.1,-1.24 c 0.13,0.23 0.31,0.35 0.4,0.27 0.1,-0.1 0,-0.31 -0.23,-0.52 -0.45,-0.42 -0.51,-0.35 -0.17,0.25 z m 1.44,-0.33 c 0.78,-0.1 0.82,0 0.36,0.27 -0.31,0.2 -0.41,0.41 -0.24,0.52 0.15,0.11 0.59,-0.22 0.97,-0.72 0.71,-0.92 1.23,-1.13 1.51,-0.6 0.1,0.15 0.27,0.29 0.41,0.3 0.15,0 0.27,-0.11 0.28,-0.26 0,-0.15 -0.17,-0.29 -0.4,-0.3 -0.22,0 -0.4,-0.15 -0.39,-0.3 0,-0.46 -0.74,-0.34 -0.96,0.15 -0.16,0.36 -0.25,0.38 -0.41,0.1 -0.14,-0.26 -0.27,-0.29 -0.41,-0.1 -0.11,0.16 -0.1,0.3 0.1,0.31 0.15,0 0.28,0.12 0.27,0.25 0,0.13 -0.37,0.18 -0.82,0.1 -0.44,-0.1 -0.87,0 -0.97,0.1 -0.1,0.13 0.23,0.21 0.71,0.18 z m 1.17,-1.64 c 0.68,-0.13 0.74,-0.74 0.1,-0.77 -0.27,0 -0.52,0.17 -0.55,0.43 0,0.32 0.1,0.42 0.47,0.34 z m 1.19,-28.21 c 0.1,0.11 0.72,0.22 1.38,0.26 0.66,0 1.42,0.2 1.68,0.36 0.3,0.18 0.95,0.23 1.7,0.12 l 1.21,-0.17 -1.1,-0.1 c -0.6,0 -1.98,-0.23 -3.06,-0.42 -1.09,-0.19 -1.98,-0.33 -1.98,-0.32 0,0 0.1,0.13 0.17,0.24 z m 1.85,30.19 c 0.98,0.51 1.2,0.44 0.32,-0.11 -0.42,-0.25 -0.81,-0.42 -0.88,-0.36 -0.1,0.1 0.19,0.27 0.56,0.47 z m 1.12,-0.1 c 0.25,0.11 0.52,0.14 0.6,0.1 0.1,-0.1 -0.1,-0.22 -0.31,-0.33 -0.25,-0.11 -0.52,-0.14 -0.6,-0.1 -0.1,0.1 0.1,0.22 0.31,0.33 z m 1.94,1.77 c 1.06,0.61 1.99,1.05 2.06,0.99 0.1,-0.1 -0.13,-0.21 -0.44,-0.33 -0.31,-0.12 -0.48,-0.32 -0.39,-0.46 0.1,-0.13 0,-0.18 -0.22,-0.11 -0.21,0.1 -0.54,-0.1 -0.72,-0.32 -0.18,-0.24 -0.56,-0.46 -0.84,-0.47 -0.64,0 -0.64,-0.47 0,-0.81 0.75,-0.38 0.26,-0.33 -0.62,0.1 l -0.76,0.35 z m 4.67,-30.46 3.47,0.23 -3.22,-0.46 c -1.85,-0.26 -3.33,-0.35 -3.47,-0.22 -0.14,0.13 1.23,0.32 3.22,0.45 z m -1.62,31.35 c 0.78,0.41 0.87,0.41 0.9,0.1 0,-0.29 -0.27,-0.44 -0.88,-0.49 -0.49,0 -0.9,-0.1 -0.9,0 0,0 0.39,0.23 0.88,0.48 z m 0.1,0.91 c 0.48,0.28 0.87,0.38 0.88,0.23 0,-0.16 -0.16,-0.29 -0.37,-0.3 -0.21,0 -0.43,-0.17 -0.48,-0.35 0,-0.17 -0.26,-0.27 -0.49,-0.2 -0.27,0.1 -0.12,0.27 0.46,0.62 z m 2.28,-17.1 c 0.23,0.1 0.69,0.1 1.03,0 0.63,-0.23 1.3,0 2.18,0.84 0.23,0.22 0.49,0.34 0.57,0.27 0.18,-0.16 -3.13,-2.59 -3.56,-2.61 -0.18,0 -0.24,-0.13 -0.15,-0.27 0.1,-0.13 0.1,-0.31 0,-0.39 -0.12,-0.1 -0.23,0.14 -0.25,0.5 0,0.35 0.1,0.63 0.25,0.61 0.16,0 0.24,0.14 0.18,0.35 -0.1,0.32 0,0.33 0.36,0.1 0.33,-0.25 0.53,-0.26 0.74,0 0.21,0.23 0.1,0.35 -0.43,0.45 -0.4,0.1 -0.85,0.1 -1,-0.1 -0.15,-0.11 -0.29,-0.12 -0.29,0 0,0.1 0.18,0.24 0.41,0.35 z m 0.1,-2.67 c 0.3,0.27 0.49,0.19 0.98,-0.41 0.46,-0.59 0.51,-0.77 0.2,-0.78 -0.22,0 -0.34,0 -0.27,0.11 0.1,0.1 0,0.37 -0.21,0.67 -0.25,0.42 -0.37,0.45 -0.53,0.14 -0.11,-0.21 -0.28,-0.31 -0.38,-0.23 -0.1,0.1 0,0.31 0.21,0.5 z m 0.1,-0.89 c 0.22,0 0.41,-0.1 0.41,-0.2 0,-0.13 -0.1,-0.24 -0.24,-0.25 -0.14,0 -0.33,0.1 -0.41,0.21 -0.1,0.12 0,0.23 0.24,0.24 z m 0.57,22.79 c 0.91,0.63 2.22,1.6 2.9,2.15 l 1.25,1.01 v -0.7 c 0,-0.5 -0.1,-0.72 -0.44,-0.74 -0.4,0 -0.41,0 -0.1,0.26 0.22,0.15 0.32,0.34 0.24,0.41 -0.27,0.24 -1.33,-0.76 -1.12,-1.06 0.12,-0.16 0.1,-0.22 -0.1,-0.12 -0.38,0.2 -2.5,-1.34 -2.27,-1.66 0.1,-0.13 0.39,0 0.66,0.26 0.39,0.39 0.5,0.42 0.54,0.11 0,-0.22 0.12,-0.14 0.24,0.18 0.18,0.49 0.21,0.46 0.21,-0.19 0,-0.79 -0.28,-1.03 -0.52,-0.44 -0.1,0.24 -0.31,0.17 -0.72,-0.24 -0.36,-0.36 -0.55,-0.43 -0.51,-0.2 0,0.2 -0.1,0.42 -0.28,0.48 -0.22,0.1 -0.28,-0.1 -0.16,-0.32 0.11,-0.24 0,-0.43 -0.13,-0.44 -0.17,0 -0.25,0.11 -0.16,0.26 0.19,0.37 -0.1,0.35 -0.71,0 -1.15,-0.7 -0.41,0 1.13,1.05 z m 1.96,-26.03 c 0.43,0.5 0.43,0.59 0,1.17 -0.67,0.92 -0.34,0.79 0.46,-0.18 0.37,-0.45 0.54,-0.75 0.38,-0.66 -0.46,0.25 -0.94,-0.93 -0.56,-1.34 0.23,-0.25 0.2,-0.34 -0.1,-0.36 -0.23,0 -0.35,0 -0.28,0.12 0.1,0.1 0,0.27 -0.13,0.43 -0.15,0.17 -0.1,0.5 0.22,0.82 z m 1.35,-7.55 c 0.51,0.19 0.88,0.25 0.81,0.13 -0.1,-0.12 0.23,-0.25 0.65,-0.29 0.42,0 0.1,-0.13 -0.81,-0.2 -0.86,-0.1 -1.58,-0.1 -1.58,-0.1 0,0 0.42,0.23 0.93,0.42 z m -0.35,6.81 c 0.45,-0.5 0.46,-0.49 0.3,0.1 -0.1,0.33 -0.1,0.54 0.1,0.47 0.14,-0.1 0.26,-0.31 0.27,-0.52 0,-0.21 0.22,-0.48 0.47,-0.6 0.38,-0.19 0.39,-0.26 0.1,-0.57 -0.31,-0.29 -0.38,-0.26 -0.37,0.14 0,0.29 -0.14,0.45 -0.37,0.39 -0.38,-0.11 -0.86,0.34 -0.89,0.84 0,0.14 0.19,0 0.44,-0.25 z m 0,9.66 c 0.26,0.25 0.43,0.2 0.73,-0.23 0.28,-0.42 0.29,-0.49 0,-0.27 -0.2,0.17 -0.53,0.23 -0.73,0.14 -0.46,-0.2 -0.46,-0.1 0,0.36 z m 1.02,-11.86 c 0.31,-0.65 0.89,-0.32 0.77,0.44 -0.12,0.69 -0.1,0.71 0.28,0.24 0.36,-0.43 0.36,-0.56 0.1,-0.92 -0.42,-0.46 -1.26,-0.31 -1.26,0.22 0,0.28 0,0.28 0.16,0 z m -0.16,12.55 c 0.17,0 0.46,-0.14 0.65,-0.34 0.27,-0.29 0.26,-0.42 0,-0.59 -0.19,-0.13 -0.26,-0.13 -0.16,0 0.11,0.13 0,0.39 -0.3,0.57 -0.28,0.18 -0.36,0.35 -0.19,0.36 z m 3.24,-16.89 c 0.98,0.1 1.37,0.22 1.12,0.36 -0.22,0.12 -0.34,0.39 -0.29,0.59 0.1,0.27 0.22,0.19 0.48,-0.23 0.21,-0.34 0.33,-0.68 0.26,-0.76 -0.1,-0.1 -0.78,-0.13 -1.6,-0.12 h -1.47 z m -0.87,18.8 c 0.74,0 0.96,0.18 1.33,0.96 0.24,0.52 0.55,0.95 0.68,0.96 0.14,0 0.1,-0.19 -0.1,-0.43 -0.27,-0.36 -0.26,-0.5 0,-0.76 0.24,-0.2 0.31,-0.2 0.18,0 -0.27,0.43 0.47,1.08 0.77,0.66 0.14,-0.2 0.1,-0.25 -0.11,-0.14 -0.19,0.1 -0.32,0 -0.3,-0.24 0,-0.23 -0.21,-0.56 -0.49,-0.73 -0.28,-0.17 -0.67,-0.48 -0.85,-0.69 -0.61,-0.68 -1.8,-1.46 -1.85,-1.22 -0.3,1.44 -0.22,1.62 0.67,1.64 z m 0.36,-0.82 c 0.59,0.66 0.17,0.86 -0.48,0.23 -0.32,-0.3 -0.43,-0.56 -0.24,-0.61 0.17,0 0.49,0.12 0.72,0.38 z m 0.13,-15.1 c 0.35,-0.42 0.75,-0.89 0.87,-1.04 0.15,-0.17 0.1,-0.3 -0.15,-0.31 -0.22,0 -0.35,0.1 -0.29,0.18 0.1,0.11 -0.15,0.47 -0.47,0.79 -0.31,0.33 -0.58,0.72 -0.59,0.87 0,0.15 0.28,-0.1 0.63,-0.49 z m -0.32,-0.83 c 0.13,0.1 0.19,-0.15 0.14,-0.53 0,-0.38 -0.14,-0.69 -0.2,-0.69 -0.21,0 -0.16,1.06 0.1,1.22 z m 0.35,-1.24 c 0.17,0.31 0.24,0.31 0.38,0 0.1,-0.22 0,-0.39 -0.21,-0.4 -0.21,0 -0.38,0 -0.38,0 0,0 0.1,0.2 0.21,0.4 z m -1.24,36.7 c 0.79,0.66 1.5,0.5 1.25,-0.29 -0.13,-0.4 -0.63,-0.57 -0.59,-0.21 0.1,0.59 -0.11,0.67 -0.41,0.2 -0.19,-0.28 -0.49,-0.48 -0.68,-0.43 -0.2,0.1 0,0.36 0.43,0.73 z m 1.26,0.91 c 0.14,-0.1 0.4,0 0.59,0.27 0.18,0.22 0.24,0.4 0.14,0.39 -0.1,0 0.27,0.39 0.83,0.89 0.55,0.49 1.64,1.51 2.41,2.26 0.77,0.75 1.45,1.34 1.51,1.3 0.26,-0.13 0.12,-0.47 -0.2,-0.5 -0.19,0 -0.31,-0.17 -0.26,-0.34 0,-0.17 -0.16,-0.4 -0.45,-0.51 -0.3,-0.11 -0.53,-0.32 -0.52,-0.46 0,-0.14 -0.14,-0.27 -0.34,-0.28 -0.19,0 -0.54,-0.27 -0.78,-0.58 -0.41,-0.53 -0.39,-0.59 0.29,-1.06 0.64,-0.45 0.66,-0.51 0.17,-0.5 -0.3,0 -0.5,0.1 -0.44,0.2 0.16,0.3 -0.73,0.87 -0.95,0.61 -0.1,-0.12 0,-0.27 0.18,-0.33 0.27,-0.1 0.21,-0.24 -0.19,-0.55 -0.35,-0.28 -0.49,-0.6 -0.37,-0.88 0.11,-0.23 0.1,-0.35 0,-0.25 -0.11,0.1 -0.39,0 -0.62,-0.16 -0.35,-0.3 -0.37,-0.29 -0.1,0 0.51,0.64 0.34,0.98 -0.2,0.43 -0.37,-0.38 -0.55,-0.43 -0.72,-0.18 -0.13,0.17 -0.11,0.26 0,0.18 z m 1.29,0.42 c 0.1,0 0.25,0.2 0.43,0.44 0.27,0.36 0.25,0.4 -0.12,0.24 -0.38,-0.17 -0.62,-0.7 -0.31,-0.68 z m 0.1,-17.38 c 0.63,0.1 0.69,-0.1 0.14,-0.29 -0.21,-0.1 -0.45,-0.1 -0.53,0 -0.1,0.11 0.1,0.23 0.39,0.27 z m 1.25,-0.58 c 0.23,-0.1 0.43,-0.26 0.44,-0.41 0,-0.16 -0.17,-0.15 -0.42,0 -0.23,0.17 -0.43,0.36 -0.43,0.41 0,0 0.18,0 0.41,0 z m 0,0.72 c 0.17,0 0.4,-0.1 0.5,-0.25 0.11,-0.16 0.7,0.19 1.41,0.86 1.71,1.58 2.25,1.84 0.85,0.4 -1.63,-1.66 -1.87,-1.8 -2.52,-1.38 -0.3,0.2 -0.41,0.36 -0.24,0.37 z m 0.48,0.91 c 0.1,-0.2 0.1,-0.43 0,-0.53 -0.1,-0.1 -0.16,0.1 -0.16,0.35 0,0.32 0,0.39 0.15,0.18 z m 1.57,0.68 c 0.23,0.11 0.34,0.32 0.24,0.46 -0.1,0.15 -0.1,0.28 0.1,0.29 0.16,0 0.3,-0.1 0.31,-0.23 0,-0.32 -0.74,-1.01 -0.94,-0.85 -0.1,0.1 0.1,0.23 0.29,0.33 z m 0.1,18.71 c 0.38,0.17 0.42,0.14 0.16,-0.15 -0.17,-0.19 -0.39,-0.29 -0.48,-0.21 -0.1,0.1 0.1,0.24 0.32,0.36 z m 2.22,3.54 c 0.64,0.68 1.17,1.09 1.18,0.93 0,-0.16 -0.15,-0.37 -0.36,-0.47 -0.21,-0.1 -0.45,-0.36 -0.52,-0.6 -0.1,-0.28 0,-0.37 0.21,-0.27 0.21,0.1 0.36,-0.1 0.37,-0.35 0,-0.35 -0.1,-0.42 -0.3,-0.25 -0.23,0.17 -0.39,0.1 -0.49,-0.21 -0.11,-0.36 -0.23,-0.39 -0.54,-0.16 -0.31,0.22 -0.43,0.21 -0.52,-0.1 -0.1,-0.2 -0.14,-0.23 -0.16,-0.1 0,0.17 0.49,0.85 1.13,1.52 z m -0.1,-1.04 c 0.24,0.46 0.1,0.65 -0.3,0.37 -0.16,-0.11 -0.2,-0.32 -0.1,-0.47 0.13,-0.18 0.27,-0.14 0.4,0.1 z m 0,-18.71 c 0.1,0 0.28,-0.2 0.51,-0.45 0.36,-0.42 0.35,-0.42 -0.1,-0.11 -0.48,0.33 -0.64,0.55 -0.41,0.56 z m 2.94,1.92 c 0.93,1.05 1.56,1.91 1.41,1.9 -0.15,0 -0.28,0.2 -0.29,0.46 0,0.45 0,0.45 0.39,0 0.39,-0.47 0.42,-0.46 0.67,0.1 0.2,0.42 0.17,0.6 -0.1,0.7 -0.2,0.1 -0.1,0.1 0.23,0 0.72,-0.13 1.25,0.51 0.98,1.2 -0.16,0.41 -0.14,0.43 0.13,0.11 0.27,-0.34 0.31,-0.32 0.29,0.13 0,0.29 0.1,0.45 0.17,0.35 0.1,-0.1 0.43,0.1 0.73,0.34 0.29,0.28 -0.1,-0.26 -0.79,-1.21 -1.47,-1.93 -5.49,-6.43 -5.5,-6.17 0,0.1 0.74,1.02 1.66,2.08 z m -0.66,0.63 c 0.39,0.43 0.82,0.47 0.71,0.1 0,-0.16 -0.19,-0.29 -0.34,-0.27 -0.14,0 -0.33,-0.2 -0.42,-0.49 -0.13,-0.39 -0.18,-0.41 -0.22,-0.1 0,0.23 0.1,0.58 0.27,0.77 z m -0.56,18.98 c 0.18,0 0.27,-0.17 0.2,-0.39 -0.1,-0.28 0,-0.35 0.26,-0.23 0.31,0.14 0.32,0.26 0.1,0.55 -0.19,0.2 -0.25,0.46 -0.14,0.57 0.11,0.12 0.26,0.1 0.34,-0.12 0.1,-0.19 0.26,-0.25 0.41,-0.15 0.17,0.11 0.17,0 0,-0.39 -0.2,-0.43 -0.18,-0.6 0.1,-0.69 0.19,-0.1 0,-0.1 -0.48,-0.1 -0.79,0 -1.47,0.9 -0.73,0.94 z m 2.13,2.53 c 0.47,0.51 0.97,0.93 1.12,0.94 0.14,0 0,-0.14 -0.21,-0.31 -0.26,-0.17 -0.38,-0.43 -0.28,-0.58 0.13,-0.19 0.25,-0.17 0.37,0 0.1,0.18 0.2,0 0.23,-0.5 0,-0.78 0,-0.8 -0.37,-0.3 -0.23,0.28 -0.54,0.51 -0.7,0.5 -0.19,0 -0.18,-0.14 0,-0.38 0.26,-0.28 0.27,-0.42 0,-0.59 -0.21,-0.15 -0.25,-0.1 -0.11,0.15 0.15,0.27 0,0.32 -0.38,0.18 -0.32,-0.1 -0.59,-0.16 -0.59,-0.13 0,0 0.38,0.48 0.85,0.98 z m 2.25,2.51 c 1,1.1 1.94,1.58 2.25,1.14 0.1,-0.12 -0.12,-0.21 -0.46,-0.21 -0.33,0 -0.76,-0.17 -0.96,-0.4 -0.32,-0.35 -0.32,-0.44 0,-0.63 0.33,-0.18 0.33,-0.23 0,-0.25 -0.3,0 -0.3,-0.1 0,-0.42 0.2,-0.21 0.32,-0.4 0.26,-0.42 -0.83,-0.22 -1.07,-0.22 -1.21,0 -0.1,0.13 -0.29,0.24 -0.44,0.23 -0.15,0 -0.18,-0.16 -0.1,-0.32 0.13,-0.19 0.1,-0.24 -0.12,-0.13 -0.43,0.23 -0.47,0.16 0.7,1.43 z m 0.35,-1.02 c 0.44,-0.1 0.5,0 0.27,0.22 -0.17,0.18 -0.23,0.42 -0.13,0.53 0.1,0.12 0,0.11 -0.27,0 -0.63,-0.28 -0.57,-0.61 0.13,-0.74 z m 1.97,-13.82 c 0.19,-0.16 0.18,-0.37 0,-0.59 -0.23,-0.24 -0.3,-0.18 -0.29,0.26 0,0.39 0.11,0.5 0.3,0.33 z m -0.1,-1.37 c 0.15,0 0.29,-0.1 0.3,-0.24 0,-0.15 0.42,0.2 0.91,0.77 0.5,0.57 0.81,1.17 0.7,1.33 -0.14,0.21 -0.1,0.21 0.21,0 0.31,-0.22 0.48,-0.21 0.67,0 0.48,0.61 0.1,1.83 -0.58,1.79 -0.23,0 -0.22,-0.1 0,-0.32 0.19,-0.18 0.36,-0.51 0.37,-0.74 0,-0.26 -0.14,-0.16 -0.38,0.24 -0.46,0.76 -0.2,1.34 0.4,0.9 0.29,-0.22 0.47,-0.21 0.71,0.1 0.18,0.2 0.31,0.23 0.29,0.1 -0.1,-0.65 0.1,-0.75 0.41,-0.24 0.24,0.38 0.26,0.73 0.1,1.17 -0.17,0.37 -0.18,0.57 0,0.49 0.14,-0.1 0.3,0 0.35,0.19 0.11,0.4 0.76,0.1 0.76,-0.37 0,-0.23 -0.1,-0.23 -0.16,0 -0.21,0.43 -0.65,0.13 -0.62,-0.41 0,-0.26 0.14,-0.33 0.35,-0.19 0.17,0.13 0.1,-0.15 -0.27,-0.61 -0.32,-0.47 -0.72,-0.85 -0.88,-0.86 -0.17,0 -0.35,-0.2 -0.41,-0.41 -0.1,-0.26 0,-0.31 0.25,-0.14 0.19,0.13 0,-0.29 -0.49,-0.93 -0.51,-0.7 -1,-1.13 -1.23,-1.05 -0.4,0.13 -0.53,-0.36 -0.15,-0.54 0.12,-0.1 0.1,-0.1 -0.11,0 -0.17,0 -0.52,-0.19 -0.77,-0.5 -0.49,-0.61 -0.14,-0.74 0.45,-0.16 0.21,0.2 0,-0.1 -0.39,-0.64 -0.42,-0.55 -0.79,-1.06 -0.83,-1.12 0,-0.1 -0.1,0.15 -0.1,0.49 0,0.34 0.1,0.54 0.25,0.45 0.31,-0.17 0.2,0.65 -0.16,1.16 -0.13,0.19 -0.11,0.34 0.1,0.35 z m 2.17,0.81 c 0.14,0.1 0.25,0.33 0.24,0.51 0,0.19 -0.12,0.15 -0.27,-0.1 -0.31,-0.55 -0.3,-0.64 0,-0.41 z m -3,17.27 c 0.14,0 0.71,0.66 1.26,1.45 0.98,1.38 1.63,1.89 1.36,1.04 -0.16,-0.48 0.3,-0.81 0.53,-0.39 0.18,0.34 0.68,0.15 0.7,-0.28 0,-0.15 -0.17,-0.22 -0.4,-0.15 -0.23,0.1 -0.42,0 -0.41,-0.13 0,-0.15 -0.11,-0.27 -0.26,-0.28 -0.15,0 -0.25,0.12 -0.22,0.3 0.1,0.53 -0.64,0.55 -0.81,0 -0.1,-0.29 -0.34,-0.69 -0.56,-0.9 -0.37,-0.35 -0.37,-0.38 0,-0.22 0.32,0.12 0.41,0 0.32,-0.24 -0.1,-0.29 -0.24,-0.34 -0.48,-0.16 -0.23,0.17 -0.44,0.15 -0.64,-0.1 -0.17,-0.18 -0.39,-0.25 -0.5,-0.16 -0.11,0.1 -0.1,0.19 0.1,0.19 z m 1.49,-17.1 c 0.23,0.25 0.55,0.46 0.71,0.47 0.17,0 0.25,0 0.19,-0.1 -0.1,0 -0.37,-0.33 -0.7,-0.63 -0.67,-0.63 -0.81,-0.47 -0.2,0.22 z m 1.73,21.13 0.54,0.72 -0.17,-0.67 c -0.12,-0.51 -0.1,-0.6 0.2,-0.41 0.29,0.2 0.3,0.16 0,-0.2 -0.17,-0.24 -0.22,-0.53 -0.1,-0.64 0.12,-0.11 -0.1,-0.1 -0.42,0.1 -0.76,0.34 -0.75,0.24 -0.1,1.12 z m 1,1.02 c 0.24,-0.13 0.39,0.27 0.18,0.5 0,0 0.39,0.72 0.96,1.5 0.56,0.78 1.7,2.42 2.53,3.66 1.47,2.19 1.51,2.22 1.75,1.49 0.13,-0.41 0.14,-0.95 0,-1.19 -0.19,-0.39 -0.23,-0.39 -0.27,-0.1 0,0.32 -0.13,0.28 -0.44,-0.16 -0.34,-0.46 -0.39,-0.48 -0.27,-0.1 0.2,0.72 -0.18,0.54 -0.84,-0.4 -0.49,-0.69 -0.53,-0.93 -0.25,-1.4 0.37,-0.6 0.26,-0.95 -0.21,-0.7 -0.16,0.1 -0.22,0.37 -0.14,0.62 0.1,0.3 0,0.38 -0.17,0.24 -0.17,-0.12 -0.3,-0.34 -0.29,-0.49 0,-0.14 -0.28,-0.62 -0.64,-1.05 -0.48,-0.57 -0.6,-0.95 -0.45,-1.45 0.2,-0.66 0.19,-0.66 -0.26,-0.15 -0.25,0.28 -0.43,0.4 -0.4,0.25 0,-0.15 0,-0.48 -0.11,-0.74 -0.1,-0.26 0,-0.71 0.15,-1.01 0.22,-0.36 0.24,-0.59 0,-0.72 -0.15,-0.11 -0.26,-0.1 -0.24,0 0.1,0.63 -0.12,0.95 -0.48,0.78 -0.25,-0.11 -0.42,0 -0.43,0.24 0,0.23 0.1,0.35 0.26,0.26 z m 5.01,6.27 c 0.47,0 0.46,0 0.2,0.61 -0.16,0.36 -0.24,0.37 -0.41,0.1 -0.31,-0.55 -0.26,-0.7 0.21,-0.68 z m -3.67,-6.5 c 0.12,0.1 0.23,0 0.24,-0.23 0,-0.22 -0.1,-0.33 -0.21,-0.26 -0.13,0.1 -0.24,0.17 -0.24,0.23 0,0.1 0.1,0.17 0.21,0.26 z m 1.5,-15.75 c 1.04,1.65 1.23,1.55 0.23,-0.13 -1,-1.66 -0.98,-1.64 -0.98,-1.34 0,0.14 0.34,0.8 0.75,1.47 z m -0.14,2.12 c 0.15,0.11 0.28,-0.14 0.3,-0.59 0,-0.59 0,-0.68 -0.25,-0.37 -0.37,0.51 -0.38,0.73 -0.1,0.96 z m 0,1.24 c 0,0 0.26,-0.18 0.46,-0.39 0.21,-0.22 0.25,-0.4 0.1,-0.41 -0.16,0 -0.36,0.17 -0.46,0.39 -0.1,0.22 -0.14,0.4 -0.1,0.41 z m 0.97,0.28 c 0.38,0 0.54,0 0.35,-0.12 -0.18,-0.1 -0.49,-0.1 -0.68,0 -0.2,0.1 -0.1,0.13 0.33,0.15 z m -0.32,-1.68 c 0.13,-0.11 0.52,0.16 0.87,0.59 l 0.63,0.79 -0.45,-0.92 c -0.49,-0.99 -0.73,-1.13 -1.07,-0.61 -0.12,0.19 -0.11,0.25 0,0.15 z m 1.46,1.79 c 0.18,0 0.24,0.1 0.14,0.17 -0.1,0.1 -0.1,0.31 0.1,0.49 0.13,0.18 0.47,0.65 0.76,1.04 0.47,0.65 0.47,0.6 0,-0.61 -0.3,-0.73 -0.7,-1.34 -0.89,-1.36 -0.19,0 -0.35,0 -0.35,0.11 0,0.1 0.13,0.15 0.31,0.16 z m 0.14,1.52 c 0.15,0.1 0.28,0.1 0.28,-0.1 0,-0.15 -0.1,-0.36 -0.25,-0.46 -0.14,-0.1 -0.27,-0.1 -0.28,0.1 0,0.15 0.11,0.36 0.25,0.46 z m 0.7,19.5 c 0.25,0.38 0.37,0.41 0.49,0.15 0.11,-0.23 0.17,-0.19 0.19,0.14 0,0.75 0.1,0.85 0.41,1.54 0.17,0.35 0.45,0.57 0.61,0.48 0.2,-0.11 0.2,-0.24 0,-0.39 -0.23,-0.16 -0.24,-0.27 0,-0.39 0.17,-0.1 0.25,-0.3 0.17,-0.45 -0.1,-0.15 -0.29,-0.19 -0.46,-0.1 -0.2,0.11 -0.24,0 -0.1,-0.29 0.11,-0.25 0.1,-0.4 0,-0.32 -0.14,0.1 -0.31,-0.1 -0.39,-0.3 -0.1,-0.24 -0.26,-0.37 -0.4,-0.29 -0.15,0.1 -0.29,-0.14 -0.32,-0.48 -0.1,-0.47 -0.11,-0.53 -0.26,-0.22 -0.1,0.23 -0.1,0.64 0.13,0.92 z m 1.3,1.17 c 0.22,0 0.32,0.12 0.24,0.24 -0.1,0.13 -0.27,0.15 -0.4,0.1 -0.35,-0.24 -0.31,-0.33 0.16,-0.3 z m -0.22,-16.24 c 0.15,-0.1 0.19,0 0.1,0.25 -0.25,0.55 0.61,0.58 1.11,0 0.35,-0.38 0.37,-0.38 0.22,0 -0.1,0.25 0,0.52 0.25,0.63 0.22,0.1 0.34,0.34 0.25,0.54 -0.1,0.2 0,0.37 0.22,0.38 0.28,0 0.21,-0.33 -0.26,-1.28 -0.36,-0.71 -0.81,-1.64 -1,-2.06 -0.36,-0.8 -1.04,-1.48 -0.76,-0.77 0.1,0.21 0.21,0.61 0.29,0.87 0.1,0.27 0.25,0.5 0.38,0.51 0.36,0 0.24,1.04 -0.15,1.25 -0.23,0.13 -0.26,0 -0.1,-0.32 0.12,-0.28 0.13,-0.42 0,-0.33 -0.11,0.11 -0.35,0 -0.53,-0.31 -0.3,-0.45 -0.32,-0.44 -0.32,0.11 0,0.33 0.13,0.53 0.28,0.45 z m 0.89,15.14 c 0.1,-0.2 0.1,-0.44 0,-0.53 -0.1,-0.1 -0.16,0.1 -0.17,0.35 0,0.32 0.1,0.39 0.16,0.18 z m 0.93,-9.89 c 0.16,0 0.22,-0.11 0.14,-0.27 -0.1,-0.16 -0.21,-0.29 -0.28,-0.29 -0.1,0 -0.13,0.12 -0.13,0.27 0,0.15 0.11,0.28 0.27,0.29 z m 0.31,-1.8 c 0.14,0.1 0.4,0 0.59,-0.19 0.27,-0.29 0.26,-0.36 -0.1,-0.34 -0.57,0.1 -0.82,0.31 -0.51,0.53 z m 0,16.99 c 0.44,0.74 0.97,1.36 1.18,1.37 0.23,0 0.32,0.18 0.22,0.4 -0.1,0.2 0,0.61 0.19,0.9 0.34,0.51 0.36,0.51 0.39,0 0,-0.27 0.16,-0.41 0.3,-0.31 0.18,0.13 0.17,0.36 0,0.67 -0.2,0.33 -0.19,0.63 0,0.99 0.3,0.46 0.33,0.41 0.33,-0.46 0,-1.18 -0.22,-1.62 -0.72,-1.46 -0.26,0.1 -0.33,-0.1 -0.25,-0.61 0.1,-0.62 0,-0.7 -0.48,-0.6 -0.6,0.11 -0.6,0.11 0,-0.27 0.55,-0.38 0.55,-0.39 0,-0.33 -0.71,0.1 -1.89,-1.77 -1.35,-2.12 0.28,-0.17 0.27,-0.2 0,-0.14 -0.67,0.14 -0.62,0.53 0.2,1.94 z m 0.18,-15.47 c 0.1,0.29 0.26,0.24 0.67,-0.24 l 0.54,-0.63 v 0.62 c 0,0.34 0.1,0.62 0.21,0.63 0.13,0 0.37,0.4 0.54,0.87 0.22,0.64 0.22,0.93 0,1.15 -0.43,0.38 -0.47,1.01 -0.1,1.03 0.17,0 0.24,-0.18 0.16,-0.42 -0.1,-0.24 0,-0.48 0.27,-0.56 0.33,-0.1 0.28,-0.43 -0.3,-1.74 -0.65,-1.5 -1.53,-2.21 -1.59,-1.28 0,0.2 -0.14,0.29 -0.28,0.19 -0.29,-0.2 -0.29,-0.19 -0.1,0.38 z m 0.23,14.75 c 0.38,0.54 0.39,0.53 0.13,-0.1 -0.14,-0.35 -0.32,-0.64 -0.39,-0.64 -0.21,0 -0.16,0.13 0.26,0.71 z m 2.3,-10.43 c 0.54,-0.6 0.63,-1.8 0.12,-1.52 -0.13,0.1 -0.18,0.3 -0.11,0.52 0.1,0.21 0,0.66 -0.23,1 l -0.35,0.63 z m -0.31,12.11 c 0.19,-0.17 0.29,-0.39 0.21,-0.48 -0.1,-0.1 -0.24,0.1 -0.36,0.32 -0.17,0.38 -0.14,0.42 0.15,0.16 z m 0.72,-11.57 c 0.1,0 0.19,-0.18 0.29,-0.41 0.11,-0.24 0.1,-0.35 -0.1,-0.26 -0.27,0.14 -0.42,0.66 -0.2,0.67 z m -0.1,16.09 c 0.37,0.53 0.38,0.53 0.23,0 -0.11,-0.38 -0.1,-0.47 0.17,-0.31 0.17,0.12 0.28,0.43 0.23,0.68 -0.15,0.72 1.2,3.45 1.8,3.64 0.33,0.11 0.42,0.24 0.23,0.35 -0.21,0.11 -0.1,0.65 0.39,1.62 0.53,1.12 0.77,1.39 1.03,1.16 0.19,-0.17 0.43,-0.2 0.54,-0.1 0.1,0.12 0,0.36 -0.27,0.52 -0.41,0.27 -0.38,0.45 0.27,1.78 0.41,0.81 0.86,1.48 1,1.49 0.15,0 0.1,-0.19 -0.14,-0.44 -0.44,-0.49 -0.52,-1.38 -0.1,-1.08 0.14,0.1 0.27,0 0.29,-0.28 0,-0.35 -0.1,-0.39 -0.36,-0.17 -0.49,0.35 -0.74,0.1 -0.69,-0.74 0,-0.76 0.27,-0.8 0.7,-0.12 0.28,0.43 0.31,0.38 0.24,-0.34 -0.1,-0.51 0,-0.69 0.13,-0.47 0.15,0.23 0.24,0 0.28,-0.65 l 0.1,-1.01 -0.41,0.87 c -0.39,0.81 -1.17,0.91 -0.8,0.1 0.23,-0.52 -0.1,-0.48 -0.59,0.1 -0.4,0.43 -0.41,0.43 -0.24,0 0.1,-0.28 0,-0.44 -0.16,-0.42 -0.21,0 -0.3,-0.26 -0.25,-0.77 0.1,-0.6 0.1,-0.65 -0.1,-0.19 -0.16,0.6 -0.19,0.61 -0.51,0.11 -0.19,-0.3 -0.23,-0.63 -0.1,-0.79 0.3,-0.31 -0.37,-2.07 -0.79,-2.09 -0.15,0 -0.1,0.22 0.15,0.51 0.46,0.56 0.53,0.9 0.19,0.88 -0.41,0 -1.07,-1.66 -0.88,-2.16 0.13,-0.32 0.1,-0.38 -0.1,-0.17 -0.37,0.46 -0.91,-0.58 -0.55,-1.08 0.15,-0.2 0.26,-0.25 0.26,-0.1 0,0.31 0.56,-0.39 0.59,-0.72 0,-0.11 -0.12,-0.21 -0.28,-0.22 -0.16,0 -0.21,0.13 -0.11,0.32 0.13,0.23 0,0.26 -0.33,0.1 -0.59,-0.27 -1.46,-0.52 -1.46,-0.41 0,0 0.16,0.31 0.37,0.62 z m 0.49,-12.71 c 0.1,-0.2 0.1,-0.44 0,-0.53 -0.1,-0.1 -0.16,0.1 -0.17,0.35 0,0.32 0.1,0.39 0.16,0.18 z m 0.26,-3.06 c 0.14,0.25 0.25,0.29 0.26,0.1 0,-0.18 -0.1,-0.41 -0.24,-0.51 -0.33,-0.23 -0.34,-0.14 0,0.41 z m 0.35,2.01 c 0.1,0.26 0.2,0.49 0.32,0.5 0.13,0 0.34,0.41 0.48,0.89 0.14,0.49 0.32,0.82 0.41,0.75 0.1,-0.1 -0.17,-0.94 -0.56,-1.93 -0.62,-1.57 -0.95,-1.68 -0.65,-0.21 z m 1.55,4.06 c 0.16,-0.22 0.24,-0.15 0.23,0.23 0,0.3 0.1,0.41 0.14,0.24 0.1,-0.17 0,-0.72 -0.17,-1.23 l -0.32,-0.93 v 1.01 c 0,0.59 0,0.87 0.17,0.68 z m -0.12,4.55 c 0.19,0.21 0.64,0 0.66,-0.29 0,-0.12 -0.17,-0.23 -0.4,-0.24 -0.43,0 -0.55,0.21 -0.26,0.53 z m 0.34,-1.89 c 0.22,0.1 0.39,0.38 0.38,0.62 0,0.23 0.1,0.36 0.25,0.28 0.16,-0.1 0.28,0 0.27,0.24 0,0.21 0.15,0.55 0.36,0.75 0.21,0.19 0.44,0.78 0.51,1.3 0.1,0.52 0.22,1.02 0.35,1.11 0.34,0.23 0.31,0.1 -0.24,-1.74 -0.27,-0.89 -0.66,-1.78 -0.88,-1.97 -0.21,-0.19 -0.3,-0.46 -0.2,-0.6 0.1,-0.14 0.1,-0.55 -0.1,-0.92 -0.24,-0.63 -0.24,-0.63 -0.18,0.11 0.1,0.85 -0.26,0.98 -0.64,0.24 -0.22,-0.44 -0.25,-0.45 -0.28,0 0,0.25 0.15,0.53 0.37,0.63 z m -0.1,-1.34 c 0.15,0.1 0.28,0 0.29,-0.1 0,-0.16 -0.11,-0.3 -0.26,-0.31 -0.15,0 -0.28,0 -0.28,0.11 0,0.1 0.11,0.2 0.25,0.3 z m 0.65,10.98 c 0.49,-0.16 0.49,-0.2 0.1,-0.59 -0.26,-0.24 -0.36,-0.19 -0.41,0.2 0,0.35 0.1,0.48 0.34,0.39 z m 0.94,-4.98 c 0.15,0.25 0.25,0.29 0.27,0.1 0,-0.18 -0.1,-0.41 -0.24,-0.51 -0.33,-0.23 -0.34,-0.14 0,0.41 z m 0.8,0.99 c 0.14,-0.1 0.25,0 0.24,0.19 0,0.19 0,0.28 0.13,0.2 0.1,-0.1 0.1,-0.42 0,-0.78 l -0.2,-0.65 -0.19,0.59 c -0.1,0.32 -0.1,0.52 0.1,0.45 z m 0.42,1.39 c 0.48,0.49 0.5,0.49 0.4,0 -0.1,-0.3 -0.29,-0.55 -0.5,-0.56 -0.5,0 -0.5,0 0.1,0.58 z m 0.13,11.8 c 0.31,0.22 0.76,-0.11 1.02,-0.73 0.18,-0.44 0.12,-0.43 -0.34,0.1 -0.41,0.48 -0.58,0.53 -0.68,0.24 -0.1,-0.24 -0.14,-0.26 -0.17,-0.1 0,0.18 0.1,0.39 0.17,0.47 z m 0.62,-9.41 c 0.12,0.38 0.15,0.94 0,1.25 -0.1,0.31 -0.1,0.93 0,1.38 0.19,0.79 0.2,0.8 0.27,0.14 l 0.1,-0.68 0.23,0.69 c 0.18,0.54 0.14,0.76 -0.21,0.98 -0.24,0.16 -0.44,0.38 -0.45,0.5 0,0.11 0.16,0.1 0.37,-0.1 0.44,-0.32 0.73,-0.1 0.72,0.53 0,0.24 0.14,0.82 0.34,1.28 0.35,0.84 0.35,0.84 0.25,0.1 -0.1,-0.41 -0.22,-1.1 -0.37,-1.53 -0.15,-0.44 -0.25,-0.91 -0.22,-1.06 0,-0.15 -0.25,-1.34 -0.61,-2.64 -0.36,-1.31 -0.67,-2.19 -0.69,-1.96 0,0.22 0.1,0.72 0.21,1.1 z m 0.32,1.47 c 0.1,0.1 0.1,0.33 0,0.53 -0.1,0.21 -0.17,0.14 -0.16,-0.18 0,-0.29 0.1,-0.44 0.16,-0.35 z m 0,9.95 c 0.33,0.8 0.35,0.81 0.33,0.16 0,-0.38 0.1,-0.83 0.21,-1 0.12,-0.17 0.1,-0.41 -0.1,-0.53 -0.19,-0.13 -0.24,-0.1 -0.14,0.1 0.1,0.17 0,0.38 -0.1,0.45 -0.15,0.1 -0.31,-0.13 -0.36,-0.48 -0.1,-0.53 -0.1,-0.54 -0.14,-0.1 0,0.3 0.1,0.93 0.29,1.39 z m 0.16,-5.35 c 0.15,0 0.28,-0.11 0.29,-0.27 0,-0.16 -0.11,-0.22 -0.27,-0.14 -0.15,0.1 -0.28,0.21 -0.29,0.28 0,0.1 0.12,0.13 0.27,0.13 z m 0.45,6.76 c 0.14,0.1 0.38,0.12 0.52,0 0.41,-0.22 0.65,0.44 0.29,0.77 -0.24,0.21 -0.32,0.19 -0.31,-0.1 0,-0.2 0,-0.31 -0.12,-0.24 -0.1,0.1 0.1,0.81 0.41,1.63 0.36,0.94 0.65,1.37 0.79,1.17 0.12,-0.18 0.1,-0.53 -0.12,-0.79 -0.3,-0.41 -0.28,-0.44 0.19,-0.24 0.29,0.13 0.44,0.14 0.34,0 -0.1,-0.11 0,-0.35 0.12,-0.53 0.35,-0.38 0.18,-2.58 -0.2,-2.61 -0.14,0 -0.21,0.21 -0.15,0.48 0.1,0.26 0.17,0.75 0.24,1.08 0.1,0.38 0,0.76 -0.35,1.04 -0.46,0.41 -0.5,0.4 -0.73,-0.1 -0.14,-0.3 -0.13,-0.54 0,-0.64 0.44,-0.26 0.72,-1.1 0.35,-1.04 -0.18,0 -0.39,-0.39 -0.45,-0.92 l -0.13,-0.97 -0.1,0.92 c -0.1,0.69 -0.18,0.87 -0.49,0.73 -0.45,-0.2 -0.55,0 -0.15,0.23 z m 0.19,-3.42 c 0.16,-0.22 0.29,-0.58 0.29,-0.81 0,-0.27 -0.1,-0.23 -0.25,0.12 -0.37,0.74 -0.39,1.17 0,0.69 z m 0.49,0.99 c 0.36,-0.73 0.38,-0.94 0.1,-0.96 -0.15,0 -0.28,0.32 -0.29,0.74 0,0.66 0,0.69 0.24,0.22 z m 0.55,-1.25 c 0.28,0.4 0.31,0.35 0.19,-0.36 -0.1,-0.46 -0.22,-1.08 -0.33,-1.39 -0.14,-0.43 -0.19,-0.35 -0.19,0.36 0,0.51 0.15,1.13 0.33,1.39 z m 0.39,2.44 c 0.24,0 0.31,-0.21 0.22,-0.69 -0.17,-0.99 -0.22,-1.01 -0.41,-0.11 -0.1,0.52 0,0.79 0.19,0.8 z m 0.12,5.87 c 0.16,0.39 0.51,0.75 0.79,0.82 0.44,0.1 0.48,0 0.37,-1.22 -0.1,-0.73 -0.21,-1.58 -0.32,-1.89 -0.2,-0.56 -0.13,1.1 0.1,2.14 0.14,0.65 -0.1,0.6 -0.71,-0.16 -0.6,-0.72 -0.63,-0.68 -0.22,0.31 z m 0.64,1.82 c 0.17,0.46 0.22,0.48 0.25,0.1 0,-0.25 -0.1,-0.54 -0.22,-0.65 -0.3,-0.21 -0.3,-0.2 0,0.55 z m 0.47,0.99 c 0.25,-0.31 0.31,-0.2 0.28,0.56 0,0.53 0.1,1.22 0.19,1.53 0.16,0.39 0.2,0.18 0.14,-0.69 -0.12,-1.76 -0.41,-3.32 -0.49,-2.58 0,0.32 -0.15,0.81 -0.25,1.08 -0.16,0.41 -0.14,0.43 0.13,0.1 z"
                 id="path7933" />
            <path
                 style="fill:#dc020d;stroke-width:0.274284"
                 d="m 123.79,473.87 c 0.24,0.48 0.36,0.56 0.39,0.26 0,-0.25 -0.15,-0.61 -0.36,-0.81 -0.48,-0.45 -0.48,-0.36 0,0.55 z m 1.54,3.2 c 0.11,0.1 0.21,-0.15 0.23,-0.5 0,-0.34 -0.1,-0.58 -0.18,-0.51 -0.11,0.1 -0.22,0.28 -0.23,0.49 0,0.21 0.1,0.44 0.18,0.52 z m 0.51,2.13 c 0.16,0 0.22,-0.11 0.14,-0.27 -0.1,-0.15 -0.21,-0.28 -0.28,-0.29 -0.1,0 -0.12,0.12 -0.13,0.27 0,0.15 0.11,0.28 0.27,0.29 z m 2.18,3.47 c 0.1,-0.19 0.1,-0.43 0,-0.53 -0.1,-0.1 -0.16,0.1 -0.16,0.35 0,0.33 0,0.39 0.15,0.18 z m 0.27,2.23 c 0.2,-0.17 0.29,-0.39 0.21,-0.48 -0.1,-0.1 -0.24,0.1 -0.36,0.32 -0.17,0.38 -0.14,0.42 0.15,0.16 z m 0.74,1.42 c 0.2,-0.18 0.3,-0.39 0.22,-0.48 -0.1,-0.1 -0.24,0.1 -0.36,0.32 -0.17,0.38 -0.14,0.41 0.14,0.16 z m 0.63,0 c 0.1,0 0.18,-0.29 0.27,-0.66 0.1,-0.37 0.1,-0.61 -0.1,-0.54 -0.23,0.13 -0.41,1.19 -0.19,1.2 z m 1.2,-15.61 c 0.32,0 0.39,-0.1 0.17,-0.16 -0.19,-0.1 -0.43,-0.1 -0.52,0 -0.1,0.1 0.1,0.16 0.35,0.16 z m -0.56,19.61 c 0.2,0.31 0.38,0.43 0.39,0.26 0,-0.15 -0.16,-0.45 -0.38,-0.65 -0.49,-0.46 -0.49,-0.32 0,0.39 z m 1.65,2.17 c 0.3,0.52 0.32,0.1 0,-0.68 -0.13,-0.37 -0.22,-0.42 -0.24,-0.15 0,0.22 0.1,0.6 0.2,0.83 z m 2.02,3.76 c 0.2,-0.17 0.3,-0.39 0.22,-0.48 -0.1,-0.1 -0.24,0 -0.36,0.32 -0.17,0.38 -0.14,0.41 0.14,0.16 z m 1.04,5.48 c 0.15,0 0.28,-0.12 0.29,-0.28 0,-0.16 -0.11,-0.22 -0.27,-0.13 -0.15,0.1 -0.28,0.21 -0.29,0.27 0,0.1 0.12,0.13 0.27,0.14 z m 1.86,4.29 c 0.1,-0.18 0.11,-0.49 0,-0.68 -0.1,-0.2 -0.13,0 -0.15,0.33 0,0.38 0,0.54 0.11,0.35 z m 2.67,-33.45 c 0.33,0 0.4,-0.1 0.18,-0.16 -0.19,-0.1 -0.43,-0.1 -0.53,0 -0.1,0.1 0.1,0.16 0.35,0.16 z m 1.68,-0.46 c 0.32,0 0.39,-0.1 0.17,-0.15 -0.19,-0.1 -0.43,-0.1 -0.52,0 -0.1,0.1 0.1,0.16 0.35,0.17 z m -2.1,39.45 c 0.12,0.23 0.15,0.52 0,0.66 -0.1,0.14 0,0.18 0.15,0.1 0.23,-0.13 0.26,-0.34 0.1,-0.73 -0.14,-0.3 -0.32,-0.55 -0.39,-0.55 -0.17,0 -0.16,0.1 0.11,0.54 z m 0.76,-1.04 c 0.32,0.3 0.32,0.44 0,0.79 -0.33,0.38 -0.31,0.39 0.13,0.1 0.4,-0.28 0.5,-0.28 0.48,0 0,0.2 0.1,0.29 0.16,0.2 0.1,-0.1 -0.12,-0.57 -0.49,-1.06 -0.37,-0.49 -0.67,-0.77 -0.68,-0.63 0,0.14 0.16,0.42 0.38,0.63 z m 0.71,-0.94 c 0.13,0.1 0.3,0 0.39,-0.19 0.1,-0.2 0,-0.37 -0.22,-0.38 -0.43,0 -0.54,0.31 -0.17,0.57 z m 2.2,-2.29 c 0.22,0 0.34,-0.1 0.27,-0.22 -0.1,-0.13 -0.25,-0.17 -0.4,-0.1 -0.37,0.21 -0.33,0.3 0.13,0.32 z m 2.25,-34.69 c 0.32,0 0.39,-0.1 0.17,-0.16 -0.19,-0.1 -0.43,-0.1 -0.52,0 -0.1,0.1 0.1,0.16 0.35,0.16 z m -0.1,33.4 c 0.16,0.11 0.35,0.15 0.42,0.1 0.1,-0.1 -0.1,-0.21 -0.27,-0.31 -0.48,-0.21 -0.57,-0.1 -0.15,0.23 z m 1.7,-2.59 c 0.1,0.19 0.23,0.36 0.39,0.36 0.18,0 0.17,-0.13 0,-0.38 -0.23,-0.31 -0.22,-0.43 0.1,-0.52 0.25,-0.1 0.26,-0.14 0,-0.17 -0.41,-0.1 -0.62,0.25 -0.48,0.71 z m 0.74,-1.95 c 0.15,-0.1 0.28,-0.21 0.29,-0.28 0,-0.1 -0.12,-0.12 -0.27,-0.13 -0.15,0 -0.28,0.11 -0.29,0.27 0,0.16 0.11,0.22 0.27,0.14 z m 4.96,2.59 c 0.32,0 0.39,-0.1 0.17,-0.16 -0.19,-0.1 -0.43,-0.1 -0.53,0 -0.1,0.1 0.1,0.16 0.36,0.16 z m 1.48,0.94 c 0.59,0.35 0.6,0.34 0.17,-0.16 -0.24,-0.29 -0.52,-0.45 -0.62,-0.36 -0.1,0.1 0.11,0.32 0.45,0.52 z m 2.94,1.72 c 0.75,0.65 1.09,0.73 0.53,0.12 -0.33,-0.36 -0.66,-0.59 -0.73,-0.53 -0.1,0.1 0,0.25 0.2,0.41 z m 2.41,-19.7 c 0.15,0.1 0.27,0 0.28,-0.11 0,-0.16 -0.1,-0.29 -0.26,-0.3 -0.15,0 -0.27,0 -0.28,0.1 0,0.1 0.12,0.21 0.26,0.31 z m 1.32,21.47 c 0.14,-0.1 0.18,-0.25 0.1,-0.4 -0.2,-0.37 -0.29,-0.33 -0.31,0.13 0,0.22 0.1,0.34 0.21,0.27 z m 1.63,-25.16 c 0.15,0.11 0.2,0 0.12,-0.25 -0.15,-0.48 -0.34,-0.58 -0.37,-0.18 0,0.14 0.11,0.34 0.25,0.43 z m 0.29,7.31 c 0.22,0.2 0.47,0.3 0.56,0.22 0.1,-0.1 -0.1,-0.29 -0.39,-0.48 -0.65,-0.39 -0.73,-0.27 -0.17,0.26 z m -0.62,18.36 c 0.13,0.24 0.25,0.31 0.26,0.16 0,-0.15 -0.1,-0.47 -0.23,-0.7 -0.13,-0.24 -0.25,-0.31 -0.26,-0.16 0,0.16 0.1,0.47 0.23,0.7 z m 2.99,-28.95 c 0.15,0.26 0.25,0.3 0.26,0.1 0,-0.18 -0.1,-0.41 -0.24,-0.51 -0.32,-0.23 -0.33,-0.13 0,0.41 z m 0.85,14.33 c 0.31,-0.14 0.57,-0.32 0.57,-0.39 0,-0.1 -0.25,0 -0.56,0.12 -0.31,0.15 -0.56,0.33 -0.57,0.4 0,0.1 0.25,0 0.56,-0.13 z m 1.08,-17.52 c 0.1,0 0.2,-0.18 0.3,-0.41 0.11,-0.23 0.1,-0.35 -0.1,-0.26 -0.27,0.15 -0.43,0.66 -0.21,0.67 z m -1.65,35.99 c 0.1,0.11 0.29,0.2 0.45,0.21 0.17,0 0.16,-0.12 0,-0.33 -0.17,-0.19 -0.38,-0.28 -0.46,-0.21 -0.1,0.1 -0.1,0.22 0,0.33 z m 2.04,-35.29 c 0.13,0.1 0.32,0.1 0.4,-0.1 0.1,-0.13 0,-0.24 -0.24,-0.25 -0.46,0 -0.51,0.1 -0.16,0.3 z m 0.16,17.19 c 0.3,0.18 0.47,0.44 0.38,0.56 -0.22,0.31 0.1,1.11 0.41,1.13 0.16,0 0.14,-0.17 0,-0.41 -0.26,-0.35 -0.24,-0.52 0.1,-0.87 0.22,-0.25 0.28,-0.38 0.12,-0.3 -0.34,0.18 -1.06,-0.36 -1.25,-0.95 -0.11,-0.34 -0.15,-0.33 -0.19,0.1 0,0.26 0.2,0.61 0.49,0.79 z m -1.01,18.21 c 0.14,0.11 0.17,0.32 0.1,0.48 -0.11,0.17 -0.1,0.21 0.12,0.11 0.35,-0.18 0.19,-0.98 -0.2,-1 -0.32,0 -0.32,0.18 0,0.41 z m 1.41,1.8 c 0.54,-0.44 0.54,-0.46 0.1,-0.96 -0.47,-0.49 -0.48,-0.49 -0.16,0 0.28,0.41 0.27,0.58 -0.1,0.96 -0.37,0.44 -0.37,0.44 0.16,0 z m 1.24,-18 c 0.1,0 0.28,-0.2 0.5,-0.45 0.37,-0.41 0.36,-0.42 -0.1,-0.11 -0.48,0.34 -0.64,0.55 -0.41,0.56 z m -0.18,19.5 c 0.16,0 0.47,-0.19 0.69,-0.44 0.38,-0.43 0.36,-0.43 -0.16,-0.1 -0.32,0.2 -0.63,0.4 -0.69,0.44 -0.1,0 0,0.1 0.16,0.1 z m 1.01,-18.02 c 0.1,-0.2 0.1,-0.43 0,-0.53 -0.1,-0.1 -0.15,0.1 -0.16,0.35 0,0.32 0.1,0.39 0.16,0.18 z m 1.07,-0.67 c 0.19,0.31 0.43,0.49 0.52,0.4 0.1,-0.1 -0.1,-0.39 -0.35,-0.67 -0.61,-0.62 -0.68,-0.51 -0.17,0.27 z m -0.17,20.58 c 0.15,0.1 0.27,0.1 0.28,-0.1 0,-0.16 -0.11,-0.3 -0.26,-0.31 -0.15,0 -0.27,0 -0.28,0.11 0,0.1 0.11,0.2 0.26,0.3 z m 0.77,-0.52 c 0.38,0.17 0.42,0.14 0.17,-0.15 -0.18,-0.2 -0.4,-0.29 -0.49,-0.21 -0.1,0.1 0.1,0.24 0.32,0.36 z m 0,0.84 c 0.15,-0.1 0.28,-0.21 0.29,-0.27 0,-0.1 -0.12,-0.13 -0.27,-0.14 -0.15,0 -0.28,0.12 -0.29,0.28 0,0.15 0.11,0.22 0.27,0.13 z m 4.62,-14.31 c 0.14,0.1 0.33,0.1 0.42,-0.1 0.1,-0.14 0.1,-0.33 -0.1,-0.43 -0.14,-0.1 -0.33,-0.1 -0.43,0.1 -0.1,0.14 -0.1,0.33 0.1,0.43 z m -0.58,18.91 c 0.57,0.26 0.67,0.14 0.24,-0.3 -0.2,-0.2 -0.43,-0.26 -0.52,-0.13 -0.1,0.13 0,0.32 0.28,0.43 z m 3.54,-16.57 c 0.14,-0.1 0.18,-0.25 0.1,-0.39 -0.2,-0.37 -0.29,-0.34 -0.32,0.13 0,0.21 0.1,0.34 0.22,0.26 z m 0.59,20.63 c 0.23,-0.1 0.42,-0.26 0.43,-0.41 0,-0.16 -0.17,-0.15 -0.41,0 -0.24,0.17 -0.44,0.36 -0.44,0.41 0,0 0.19,0 0.42,0 z m 0.5,0.66 c 0.22,0 0.34,-0.1 0.26,-0.22 -0.1,-0.13 -0.25,-0.17 -0.39,-0.1 -0.37,0.2 -0.34,0.29 0.13,0.31 z m 2.13,-16.71 c 0.11,0.1 0.23,-0.1 0.27,-0.39 0.1,-0.63 0,-0.69 -0.29,-0.14 -0.1,0.22 -0.1,0.45 0,0.53 z m 0.67,1.02 c 0.25,0.23 0.41,0.26 0.42,0.1 0,-0.33 -0.48,-0.75 -0.68,-0.57 -0.1,0.1 0,0.29 0.26,0.49 z m 1.24,3.05 c 0.26,-0.23 0.43,-0.55 0.39,-0.72 -0.1,-0.16 -0.26,0 -0.47,0.42 -0.36,0.67 -0.36,0.69 0.1,0.3 z m -0.73,17.22 c 0.22,0 0.35,-0.1 0.28,-0.19 -0.1,-0.12 0,-0.28 0.15,-0.36 0.15,-0.1 0.34,0 0.43,0.14 0.17,0.32 0.68,0.15 0.7,-0.23 0,-0.4 -1.08,-0.25 -1.53,0.2 -0.38,0.37 -0.38,0.42 0,0.44 z m 1.4,-18.51 c 0.18,0 0.27,0.17 0.21,0.36 0,0.18 0,0.24 0,0.13 0.1,-0.11 0.26,-0.11 0.43,0 0.17,0.11 0.11,0 -0.13,-0.33 -0.25,-0.3 -0.54,-0.45 -0.65,-0.35 -0.11,0.1 -0.1,0.18 0.11,0.19 z m 0.33,1.63 c 0.27,0.24 0.36,0.23 0.37,0 0,-0.19 -0.14,-0.37 -0.34,-0.38 -0.2,0 -0.37,0 -0.37,0 0,0 0.15,0.2 0.34,0.38 z m 0.49,20.42 c 0.47,0.17 1.03,0.23 0.9,0.1 -0.18,-0.21 -0.95,-0.4 -0.96,-0.23 0,0.1 0,0.12 0.1,0.14 z m 0.39,-1.38 c 0.1,0 0.19,-0.18 0.3,-0.41 0.1,-0.23 0.1,-0.35 -0.1,-0.26 -0.27,0.14 -0.42,0.66 -0.2,0.67 z m 0.95,3.07 c 0.25,0.23 0.4,0.26 0.42,0.1 0,-0.33 -0.48,-0.75 -0.69,-0.56 -0.1,0.1 0.1,0.28 0.27,0.48 z m 1.1,-15.31 c 0.1,0 0.29,-0.21 0.51,-0.46 0.37,-0.41 0.36,-0.42 -0.1,-0.11 -0.47,0.34 -0.63,0.55 -0.41,0.57 z m 0.15,-1.3 c 0.1,-0.19 0.11,-0.49 0,-0.69 -0.1,-0.19 -0.13,0 -0.15,0.34 0,0.38 0,0.53 0.11,0.35 z m 2.67,3.1 c 0.15,0.26 0.25,0.3 0.27,0.1 0,-0.18 -0.1,-0.41 -0.25,-0.51 -0.32,-0.23 -0.33,-0.13 0,0.41 z m 1.16,4.54 c 0.19,-0.18 0.29,-0.4 0.21,-0.49 -0.1,-0.1 -0.24,0.1 -0.36,0.32 -0.17,0.38 -0.14,0.42 0.15,0.17 z m 0.46,0.62 c 0.13,0.1 0.31,0.1 0.4,-0.1 0.1,-0.12 0,-0.24 -0.24,-0.25 -0.46,0 -0.51,0.1 -0.16,0.3 z m -0.58,15.23 c 0.15,0 0.33,-0.1 0.42,-0.21 0.1,-0.12 0,-0.23 -0.25,-0.24 -0.22,0 -0.4,0.1 -0.41,0.21 0,0.12 0.1,0.23 0.24,0.24 z m 0.67,0.49 c 0.22,0 0.34,-0.1 0.27,-0.21 -0.1,-0.14 -0.25,-0.18 -0.4,-0.1 -0.37,0.2 -0.33,0.29 0.13,0.31 z m 1.25,3.24 c 0.1,-0.19 0.1,-0.43 0,-0.53 -0.1,-0.1 -0.16,0.1 -0.16,0.35 0,0.32 0.1,0.39 0.15,0.18 z m 0.95,-14.5 c 0.16,-0.15 0.26,-0.44 0.2,-0.64 -0.1,-0.21 -0.19,-0.1 -0.3,0.28 -0.15,0.45 -0.12,0.55 0.1,0.36 z m 0.1,15.98 c 0.12,0.1 0.39,0.1 0.62,-0.1 0.31,-0.17 0.26,-0.22 -0.21,-0.21 -0.67,0 -0.73,0.1 -0.41,0.28 z m 0.87,-16.21 c 0.1,-0.19 0.1,-0.43 0,-0.53 -0.1,-0.1 -0.16,0.1 -0.16,0.36 0,0.32 0.1,0.39 0.15,0.17 z m -0.32,16.96 c 0.14,0 0.34,-0.1 0.44,-0.24 0.1,-0.15 0,-0.2 -0.25,-0.13 -0.49,0.16 -0.59,0.35 -0.19,0.37 z m 0.62,-13.97 c 0.1,0 0.29,-0.2 0.51,-0.45 0.36,-0.42 0.35,-0.43 -0.1,-0.11 -0.48,0.33 -0.63,0.55 -0.41,0.56 z m -0.14,15.37 c 0.15,0 0.29,-0.12 0.3,-0.29 0,-0.2 0.17,-0.17 0.47,0.1 0.42,0.36 0.43,0.35 0.11,-0.1 -0.27,-0.39 -0.45,-0.44 -0.75,-0.22 -0.46,0.35 -0.5,0.49 -0.13,0.51 z m 0.8,-13.61 c 0.2,-0.18 0.29,-0.4 0.21,-0.49 -0.1,-0.1 -0.24,0.1 -0.36,0.33 -0.17,0.38 -0.14,0.41 0.15,0.16 z m 1.83,3.05 c 0,0 0.19,-0.18 0.29,-0.41 0.11,-0.24 0.1,-0.35 -0.1,-0.27 -0.27,0.15 -0.43,0.66 -0.2,0.68 z m -0.4,13.49 c 0.1,-0.2 0.1,-0.43 0,-0.53 -0.1,-0.1 -0.16,0.1 -0.16,0.35 0,0.32 0.1,0.39 0.16,0.18 z m 0.99,3.43 c 0.15,0.11 0.27,0.1 0.28,-0.1 0,-0.16 -0.11,-0.3 -0.26,-0.31 -0.15,0 -0.27,0 -0.28,0.11 0,0.1 0.11,0.2 0.26,0.3 z m 0.45,-0.65 c 0.23,0.21 0.34,0.55 0.25,0.75 -0.1,0.21 0,0.31 0.11,0.22 0.15,-0.1 0.28,-0.23 0.28,-0.34 0,-0.34 -0.73,-1.29 -0.89,-1.15 -0.1,0.1 0,0.31 0.25,0.52 z m 0.5,-11.38 c 0.14,0.1 0.27,0 0.28,-0.1 0,-0.16 -0.11,-0.3 -0.26,-0.31 -0.15,0 -0.28,0 -0.28,0.1 0,0.1 0.11,0.21 0.26,0.31 z m 0.7,2.23 c 0.16,-0.1 0.27,0 0.26,0.26 0,0.23 0.11,0.51 0.27,0.62 0.37,0.26 0.1,-1.04 -0.31,-1.31 -0.14,-0.1 -0.18,-0.3 -0.1,-0.43 0.1,-0.13 0.1,-0.4 0,-0.59 -0.11,-0.21 -0.22,0 -0.28,0.62 0,0.57 0,0.92 0.18,0.83 z m -0.1,8.76 c 0.23,-0.1 0.35,-0.25 0.28,-0.4 -0.17,-0.29 -0.67,-0.1 -0.69,0.28 0,0.14 0.18,0.19 0.41,0.12 z m 0.18,3.88 c 0.13,0.1 0.31,0.1 0.4,-0.1 0.1,-0.12 0,-0.23 -0.24,-0.24 -0.47,0 -0.51,0.1 -0.16,0.3 z m 0.52,0.67 c 0.31,-0.17 0.64,-0.49 0.74,-0.71 0.1,-0.23 -0.15,-0.13 -0.55,0.21 -0.89,0.74 -0.95,0.91 -0.19,0.5 z m 1.52,-7.13 c 0.43,0.44 0.5,0.46 0.38,0.1 -0.1,-0.25 -0.32,-0.53 -0.52,-0.63 -0.53,-0.23 -0.49,-0.1 0.14,0.54 z m -0.15,7.26 c 0.16,-0.22 0.3,-0.52 0.31,-0.67 0,-0.15 -0.12,-0.1 -0.28,0.12 -0.16,0.22 -0.29,0.52 -0.3,0.67 0,0.15 0.11,0.1 0.27,-0.12 z m 1.15,-3.32 c 0.2,0 0.3,-0.15 0.24,-0.35 -0.1,-0.21 -0.16,-0.38 -0.2,-0.38 0,0 -0.15,0.15 -0.24,0.35 -0.1,0.2 0,0.37 0.2,0.38 z m -0.25,7.57 c 0.2,-0.18 0.29,-0.4 0.21,-0.48 -0.1,-0.1 -0.24,0.1 -0.36,0.31 -0.17,0.39 -0.14,0.42 0.15,0.17 z m 0.39,2.14 c 0.15,0.26 0.26,0.3 0.27,0.1 0,-0.18 -0.1,-0.41 -0.24,-0.51 -0.33,-0.23 -0.34,-0.13 0,0.41 z m 1.14,1.62 c 0.22,0 0.34,-0.1 0.27,-0.22 -0.1,-0.13 -0.25,-0.17 -0.4,-0.1 -0.37,0.2 -0.33,0.29 0.13,0.31 z m 0.37,-4.01 c 0.21,0.37 0.25,0.36 0.27,0 0,-0.26 -0.1,-0.48 -0.24,-0.49 -0.33,0 -0.33,0 0,0.54 z m 1.29,9.25 c 0.26,0.12 0.39,0.1 0.34,-0.14 -0.12,-0.42 -0.73,-0.68 -0.75,-0.32 0,0.15 0.18,0.36 0.41,0.46 z m 0.23,1.33 c 0.1,-0.19 0.1,-0.43 0,-0.53 -0.1,-0.1 -0.16,0.1 -0.17,0.36 0,0.31 0.1,0.38 0.16,0.17 z"
                 id="path7931" />
        </g>
        <text
             xml:space="preserve"
             style="font-size:12px;line-height:1.25;font-family:Consolas;-inkscape-font-specification:'Consolas, Normal';font-variant-ligatures:none"
             x="209.28"
             y="340.31"
             id="text8977"><tspan
                 sodipodi:role="line"
                 id="tspan8975"
                 x="209.28"
                 y="340.31">チェック</tspan></text>
    </g>
</svg>
