<?xml version="1.0" encoding="UTF-8" standalone="no"?>
<!-- Created with Inkscape (http://www.inkscape.org/) -->

<svg
     width="600"
     height="400"
     viewBox="0 0 600 400"
     version="1.1"
     id="svg5"
     sodipodi:docname="暗号.svg"
     inkscape:version="1.1 (c68e22c387, 2021-05-23)"
     inkscape:export-filename="C:\Program Files\XAMPP\htdocs\koko-campus.org\subjects\itパスポート試験\pics\暗号.png"
     inkscape:export-xdpi="96"
     inkscape:export-ydpi="96"
     xmlns:inkscape="http://www.inkscape.org/namespaces/inkscape"
     xmlns:sodipodi="http://sodipodi.sourceforge.net/DTD/sodipodi-0.dtd"
     xmlns="http://www.w3.org/2000/svg"
     xmlns:svg="http://www.w3.org/2000/svg">
    <sodipodi:namedview
         id="namedview7"
         pagecolor="#ffffff"
         bordercolor="#666666"
         borderopacity="1.0"
         inkscape:pageshadow="2"
         inkscape:pageopacity="0.0"
         inkscape:pagecheckerboard="0"
         inkscape:document-units="px"
         showgrid="false"
         units="px"
         width="600px"
         inkscape:zoom="0.7501"
         inkscape:cx="371.95"
         inkscape:cy="447.27"
         inkscape:window-width="1920"
         inkscape:window-height="1009"
         inkscape:window-x="-8"
         inkscape:window-y="-8"
         inkscape:window-maximized="1"
         inkscape:current-layer="layer1" />
    <defs
         id="defs2">
        <filter
             inkscape:collect="always"
             style="color-interpolation-filters:sRGB"
             id="filter11945"
             x="-0.021958"
             y="-0.039511"
             width="1.0439"
             height="1.079">
            <feGaussianBlur
                 inkscape:collect="always"
                 stdDeviation="1.1412"
                 id="feGaussianBlur11947" />
        </filter>
        <filter
             inkscape:collect="always"
             style="color-interpolation-filters:sRGB"
             id="filter11945-4"
             x="-0.021958"
             y="-0.039511"
             width="1.0439"
             height="1.079">
            <feGaussianBlur
                 inkscape:collect="always"
                 stdDeviation="1.1412"
                 id="feGaussianBlur11947-1" />
        </filter>
        <filter
             inkscape:collect="always"
             style="color-interpolation-filters:sRGB"
             id="filter15855"
             x="-0.0214"
             y="-0.036571"
             width="1.0428"
             height="1.0731">
            <feGaussianBlur
                 inkscape:collect="always"
                 stdDeviation="1.5298"
                 id="feGaussianBlur15857" />
        </filter>
    </defs>
    <g
         inkscape:label="レイヤー 1"
         inkscape:groupmode="layer"
         id="layer1">
        <path
             id="path847-06"
             style="fill:#b900ff;fill-opacity:1;stroke:none;stroke-width:3.24955;stroke-linejoin:round;stroke-opacity:1;stop-color:black"
             d="m 267.74,71.65 a 44.328,33.662 0 0 1 -44.33,33.66 44.328,33.662 0 0 1 -44.33,-33.66 44.328,33.662 0 0 1 44.33,-33.66 44.328,33.662 0 0 1 44.33,33.66 z" />
        <path
             id="path3926"
             style="fill:aqua;stroke-width:0.431039;stroke-linejoin:round;stop-color:black"
             inkscape:transform-center-y="16.259"
             d="m 106.5,200.38 -20.285,6.42 44.065,103.95 z"
             inkscape:transform-center-x="-0.58407" />
        <path
             id="path3926-8"
             style="fill:aqua;stroke-width:0.431039;stroke-linejoin:round;stop-color:black"
             inkscape:transform-center-y="-16.259"
             d="m 476.19,311.81 -20.28,-6.42 44.06,-103.95 z"
             inkscape:transform-center-x="-0.58407" />
        <g
             id="g1368">
            <path
                 id="path847"
                 style="fill:white;stroke:black;stroke-width:3.24955;stroke-linejoin:round;stroke-opacity:1;stop-color:black"
                 d="m 119.32,239.97 a 44.328,33.662 0 0 1 -44.329,33.66 44.328,33.662 0 0 1 -44.328,-33.66 44.328,33.662 0 0 1 44.328,-33.66 44.328,33.662 0 0 1 44.329,33.66 z" />
            <ellipse
                 style="fill:black;fill-opacity:1;stroke:none;stroke-width:3;stroke-linejoin:round;stroke-opacity:1;stop-color:black"
                 id="path988"
                 cx="60.992"
                 cy="229.97"
                 rx="6.9991"
                 ry="6.3325" />
            <ellipse
                 style="fill:black;fill-opacity:1;stroke:none;stroke-width:3;stroke-linejoin:round;stroke-opacity:1;stop-color:black"
                 id="path988-9"
                 cx="89.321"
                 cy="228.97"
                 rx="6.9991"
                 ry="6.3325" />
        </g>
        <g
             id="g1360">
            <path
                 id="path847-0"
                 style="fill:white;stroke:black;stroke-width:3.24955;stroke-linejoin:round;stroke-opacity:1;stop-color:black"
                 d="m 579.6,239.97 a 44.328,33.662 0 0 1 -44.33,33.66 44.328,33.662 0 0 1 -44.33,-33.66 44.328,33.662 0 0 1 44.33,-33.66 44.328,33.662 0 0 1 44.33,33.66 z" />
            <ellipse
                 style="fill:black;fill-opacity:1;stroke:none;stroke-width:3;stroke-linejoin:round;stroke-opacity:1;stop-color:black"
                 id="path988-0"
                 cx="521.27"
                 cy="229.97"
                 rx="6.9991"
                 ry="6.3325" />
            <ellipse
                 style="fill:black;fill-opacity:1;stroke:none;stroke-width:3;stroke-linejoin:round;stroke-opacity:1;stop-color:black"
                 id="path988-9-4"
                 cx="549.6"
                 cy="228.97"
                 rx="6.9991"
                 ry="6.3325" />
        </g>
        <path
             id="rect1392"
             style="fill:white;stroke:black;stroke-width:1.04274;stroke-linejoin:round;stop-color:black"
             d="m 28.663,85.433 h 91.327 v 105.097 h -91.327 z" />
        <text
             xml:space="preserve"
             style="font-size:16px;line-height:1.25;font-family:Consolas;-inkscape-font-specification:'Consolas, Normal';font-variant-ligatures:none"
             x="42.661"
             y="119.87"
             id="text2696"><tspan
                 sodipodi:role="line"
                 id="tspan2694"
                 x="42.661"
                 y="119.87">好きだよ</tspan></text>
        <path
             id="rect1392-4"
             style="fill:white;stroke:black;stroke-width:1.04274;stroke-linejoin:round;stop-color:black"
             d="m 488.27,85.434 h 91.33 v 105.096 h -91.33 z" />
        <text
             xml:space="preserve"
             style="font-size:16px;line-height:1.25;font-family:Consolas;-inkscape-font-specification:'Consolas, Normal';font-variant-ligatures:none"
             x="502.27"
             y="119.87"
             id="text2696-4"><tspan
                 sodipodi:role="line"
                 id="tspan2694-9"
                 x="502.27"
                 y="119.87">好きだよ</tspan></text>
        <text
             xml:space="preserve"
             style="font-size:18px;line-height:1.25;font-family:Consolas;-inkscape-font-specification:'Consolas, Normal';font-variant-ligatures:none"
             x="107.32"
             y="348.36"
             id="text5085"><tspan
                 sodipodi:role="line"
                 id="tspan5083"
                 x="107.32"
                 y="348.36">j4H!ZUQb</tspan></text>
        <text
             xml:space="preserve"
             style="font-size:18px;line-height:1.25;font-family:Consolas;-inkscape-font-specification:'Consolas, Normal';font-variant-ligatures:none"
             x="403.81"
             y="348.36"
             id="text5085-9"><tspan
                 sodipodi:role="line"
                 id="tspan5083-6"
                 x="403.81"
                 y="348.36">j4H!ZUQb</tspan></text>
        <path
             id="path8364"
             style="fill:aqua;stroke-width:0.377247;stroke-linejoin:round;stop-color:black"
             inkscape:transform-center-y="-0.00076278"
             d="m 210.51,352.72 v -17.53 l 174.4,8.76 z"
             inkscape:transform-center-x="-29.065" />
        <path
             id="path11387"
             style="fill:lime;fill-opacity:1;stroke-linejoin:round;filter:url(#filter11945);stop-color:black"
             d="m 255.3,257.68 c 0,19.14 -26.12,34.66 -58.33,34.66 -21.05,0 -49.75,-16.56 -49.75,-16.56 -17.99,4.2 -23.62,4.63 -5.72,-7.35 0,0 -2.86,-7 -2.86,-10.75 0,-19.14 26.12,-34.66 58.33,-34.66 32.21,0 58.33,15.52 58.33,34.66 z"
             sodipodi:nodetypes="sssssss" />
        <text
             xml:space="preserve"
             style="font-size:28px;line-height:1.25;font-family:Consolas;-inkscape-font-specification:'Consolas, Normal';font-variant-ligatures:none"
             x="168.66"
             y="267.47"
             id="text10953"><tspan
                 sodipodi:role="line"
                 id="tspan10951"
                 x="168.66"
                 y="267.47">暗号</tspan></text>
        <path
             id="path11387-7"
             style="fill:lime;fill-opacity:1;stroke-linejoin:round;filter:url(#filter11945-4);stop-color:black"
             d="m 446.04,263.95 c 0,19.14 -26.12,34.66 -58.33,34.66 -21.05,0 -49.75,-16.56 -49.75,-16.56 -17.99,4.2 -23.62,4.63 -5.72,-7.35 0,0 -2.86,-7 -2.86,-10.75 0,-19.14 26.12,-34.66 58.33,-34.66 32.21,0 58.33,15.52 58.33,34.66 z"
             sodipodi:nodetypes="sssssss"
             transform="matrix(-1,0,0,1,776.96,-6.2717)" />
        <text
             xml:space="preserve"
             style="font-size:28px;line-height:1.25;font-family:Consolas;-inkscape-font-specification:'Consolas, Normal';font-variant-ligatures:none"
             x="361.4"
             y="267.74"
             id="text10953-9"><tspan
                 sodipodi:role="line"
                 id="tspan10951-5"
                 x="361.4"
                 y="267.74">復号</tspan></text>
        <path
             style="fill:white;fill-opacity:1;stroke:none;stroke-width:1px;stroke-linecap:butt;stroke-linejoin:miter;stroke-opacity:1"
             d="m 204.56,57.139 c -6.37,13.58 -0.1,18.462 15.56,16.968 z"
             id="path14195"
             sodipodi:nodetypes="ccc" />
        <path
             style="fill:white;fill-opacity:1;stroke:none;stroke-width:1px;stroke-linecap:butt;stroke-linejoin:miter;stroke-opacity:1"
             d="m 244.09,57.139 c 6.37,13.58 0.1,18.46 -15.56,16.97 z"
             id="path14195-3"
             sodipodi:nodetypes="ccc" />
        <path
             style="fill:none;stroke:#b400ff;stroke-width:3;stroke-linecap:butt;stroke-linejoin:miter;stroke-miterlimit:4;stroke-dasharray:3, 12;stroke-dashoffset:0;stroke-opacity:1"
             d="m 229.07,121.61 62.01,212.46"
             id="path14425"
             sodipodi:nodetypes="cc" />
        <path
             id="rect14661"
             style="fill:#f0d2ff;stroke-width:3;stroke-linejoin:round;stroke-dasharray:3, 12;stop-color:black;filter:url(#filter15855)"
             d="m 278.09,107.47 8.96,0 c -2.76,-9.82 -24.83,-44.516 14.61,0 l 110.3,0 c 10.44,0 18.85,8.41 18.85,18.85 v 40.54 c 0,10.44 -8.41,18.85 -18.85,18.85 h -133.87 c -10.44,0 -18.85,-8.41 -18.85,-18.85 v -40.54 c 0,-10.44 8.41,-18.85 18.85,-18.85 z"
             sodipodi:nodetypes="sccssssssss" />
        <text
             xml:space="preserve"
             style="font-size:20px;line-height:1.25;font-family:Consolas;-inkscape-font-specification:'Consolas, Normal';font-variant-ligatures:none"
             x="288.62"
             y="138.65"
             id="text19515"><tspan
                 sodipodi:role="line"
                 id="tspan19513"
                 x="288.62"
                 y="138.65">j4H!ZUQb</tspan><tspan
                 sodipodi:role="line"
                 x="288.62"
                 y="165.98"
                 id="tspan19671">って何や???</tspan></text>
    </g>
</svg>
