<?xml version="1.0" encoding="UTF-8" standalone="no"?>
<!-- Created with Inkscape (http://www.inkscape.org/) -->

<svg
     width="500"
     height="500"
     viewBox="0 0 500 500"
     version="1.1"
     id="svg5"
     sodipodi:docname="bg-logo.svg"
     inkscape:version="1.1 (c68e22c387, 2021-05-23)"
     inkscape:export-filename="C:\Program Files\XAMPP\htdocs\koko-campus.org\subjects\ruby入門\pics\bg-logo.png"
     inkscape:export-xdpi="96"
     inkscape:export-ydpi="96"
     xmlns:inkscape="http://www.inkscape.org/namespaces/inkscape"
     xmlns:sodipodi="http://sodipodi.sourceforge.net/DTD/sodipodi-0.dtd"
     xmlns="http://www.w3.org/2000/svg"
     xmlns:svg="http://www.w3.org/2000/svg">
    <sodipodi:namedview
         id="namedview7"
         pagecolor="#ffffff"
         bordercolor="#666666"
         borderopacity="1.0"
         inkscape:pageshadow="2"
         inkscape:pageopacity="0.0"
         inkscape:pagecheckerboard="0"
         inkscape:document-units="px"
         showgrid="false"
         units="px"
         width="600px"
         inkscape:zoom="0.7500982043"
         inkscape:cx="301.293882193607"
         inkscape:cy="28.6629135715157"
         inkscape:window-width="1920"
         inkscape:window-height="1009"
         inkscape:window-x="-8"
         inkscape:window-y="-8"
         inkscape:window-maximized="1"
         inkscape:current-layer="layer1" />
    <defs
         id="defs2" />
    <g
         inkscape:label="レイヤー 1"
         inkscape:groupmode="layer"
         id="layer1">
        <g
             id="g867"
             transform="translate(119.647277034065,289.746628803047)"
             style="opacity:0.2898272553">
            <path
                 style="fill:#e1a49c;stroke-width:7.40776"
                 d="m -65.0859965018536,162.750563914031 c -28.6978564555534,-20.100761097358 -39.3537911417224,-56.39487539205 -33.625466639637,-114.5283417526312 2.7736329594884,-28.1480035372141 7.7638449670882,-51.1781882494798 11.0893600168885,-51.1781882494798 3.3255150498002,0 10.4400707427195,9.16710681300009 15.810123762043,20.3713484733335 5.3700530193233,11.2042416603335 11.3855617717187,19.7977901405524 13.3677972275452,19.0967744004859 1.9822354558265,-0.7010157400635 24.3471441716851,-3.6213864927363 49.69979714635223,-6.4897127837123 32.52101288591997,-3.6793339286054 47.36262725783178,-8.7577602997639 50.39773188412287,-17.2448336301828 5.8332549015471,-16.31155040771903 97.2858823375278,-92.9523416918111 114.2935981185888,-95.7823962427608 9.00016208777,-1.4976114372838 14.758626274511,-10.2992583568522 16.962812276943,-25.9271707842425 1.83536393148,-13.012924844774 5.935361834257,-30.326850127225 9.111106450616,-38.475389516559 3.175744616359,-8.148539389333 -4.083302793474,0.185194077031 -16.131216466296,18.519407703031 -28.81523136765,43.8502982278918 -108.7347307297884,117.1464415234044 -146.3753559053276,134.24444781308503 -84.4621751319392,38.36638724546168 -128.4548206902664,-12.94068774372295 -84.6758801698386,-98.75450040596084 23.0100453059764,-45.1034148785592 99.4516510766173,-118.2095663856272 148.625760333469,-142.1406215012412 35.8463766155682,-17.444985327573 54.3059009166072,-21.028257105067 125.9319723806072,-24.445293126549 79.054132705227,-3.771403534766 85.143876032257,-3.035866012471 104.853162735384,12.664480484901 35.121309260869,27.977507920137 36.26636401279,39.765892898158 22.081584612213,227.3308065809544 -12.285883736671,162.4558731235336 -14.021898707542,173.3553335287536 -28.051263342237,176.1180861024606 -21.612994801496,4.256169724585 -266.8279015562728,18.864415068042 -315.17295279664369,18.77587248266 -25.76001118294719,-0.0471787273 -47.34274437298549,-4.555191181382 -58.1926716247929,-12.154776047592 z m 295.4447574586486,-361.372438616906 c 0,-0.735304156826 -14.082684464438,-14.514041882381 -31.294854365418,-30.6194171679 -17.212169900979,-16.105375285519 -25.545903367342,-22.353032238057 -18.51940770303,-13.883682116751 7.026495664313,8.469350121306 12.775446662387,23.841181940911 12.775446662387,34.159626265788 0,16.017075426269 2.708428123215,18.243059021952 18.51940770303,15.220598765526 10.185674236667,-1.947115003839 18.519407703031,-4.141821589837 18.519407703031,-4.877125746663 z"
                 id="path881" />
            <path
                 style="fill:#e48c77;stroke-width:7.40776"
                 d="m -57.7286169722226,164.492764606832 c -28.2371817919533,-15.650669837016 -37.3072221921421,-40.413197849587 -37.5917004799116,-102.6308037343053 -0.2816206938858,-61.592627959611725 6.9652019646486,-71.34766541923806 25.8596005258008,-34.8099275650234 7.8666548515113,15.2124330300232 15.7988047951529,21.4698034431758 24.2654624531142,19.1420974003756 6.9181343258396,-1.9019764026968 28.0634543880824,-5.557003210347 46.98960013831666,-8.1222817947769 23.88308556175565,-3.2371497467164 35.44123593673595,-8.6031054286134 37.77794265405365,-17.5386856424448 1.8517227094947,-7.0809985189139 25.5179556794804,-32.3222052706043 52.591628822191,-56.0915705593114 39.7799063723129,-34.9248186875095 52.9293618635379,-42.5088674454315 68.5318442818019,-39.5262639468473 17.788945081627,3.400572320112 18.979108578334,2.0513866308403 15.136942142138,-17.1594455501399 -6.691598847646,-33.4579942382296 15.930378438159,-89.1974504049056 39.868034817639,-98.2329064826576 l 20.279322500306,-7.654589272789 -25.033939206853,-25.77662500439 c -13.768666563769,-14.177143752414 -25.033939206852,-28.951724653221 -25.033939206852,-32.832402001792 0,-4.09789541186 24.52704176045,-5.941944917256 58.507189034753,-4.398824532342 103.337793240688,4.692818250446 107.965655771645,17.3064352413 89.315181732493,243.4358164932856 -7.459982535024,90.4492417326318 -15.266072797826,166.1556349752944 -17.346867250673,168.2364294281394 -4.34921825677,4.34921825677 -263.8203150280564,23.610179584922 -319.37346208748442,23.707611287154 -20.37134847333357,0.03572822181 -45.00562686520847,-4.350704613184 -54.74284087083317,-9.747628522135 z m -6.9318683078745,-162.37034776218877 c -21.2409847942437,-22.60999220728273 -20.3270483127939,-49.09699493058334 3.3031351629979,-95.72891752714832 36.5184131752504,-72.0656197308929 151.7186514931189,-161.1877000455679 208.3787764102572,-161.2075662193139 21.692781017853,-0.0076059232 46.298519257576,24.950442236903 46.298519257576,46.961430789548 0,57.791713541478 -95.7415028176766,173.247177738721 -173.812517245708,209.60194138700501 -46.929483801764,21.85331270828889 -63.9175649524921,21.92861990503259 -84.1679135851231,0.37311156990922 z"
                 id="path879" />
            <path
                 style="fill:#da6956;stroke-width:7.40776"
                 d="m -55.0196745939196,164.489536326453 c -12.3215653922247,-5.368497758277 -26.488912285043,-18.728843272309 -31.4829930951518,-29.689656697849 -10.4863070471507,-23.0149369698 -12.3300119866003,-120.0574246646771 -2.3975909034451,-126.19599848464315 3.675405813214,-2.27152571501489 13.2717448452867,7.03779657375415 21.3251978490506,20.68738286393185 l 14.6426418250252,24.8174296185052 42.1376457248635,-7.6377258186882 c 34.0589782798418,-6.1734141357741 44.0782383602458,-11.3904181716081 52.2596126856965,-27.2114515547562 5.5670818284583,-10.76554915483767 28.3762430024184,-35.1688412116398 50.6870248310222,-54.229537904006 30.0515059429875,-25.673804007788 46.7385940504345,-34.6558121679372 64.3847768528295,-34.6558121679372 22.288070652932,0 23.54569600347,-1.370114895858 19.558198741963,-21.3076012033914 -2.52094890205,-12.6047445102529 1.314390310425,-36.0532981133909 9.390236022566,-57.4101638793949 10.965741585351,-28.999299814626 17.451996952738,-36.5637465207 32.966602180375,-38.446544446529 22.690215854499,-2.753604795008 24.680644497578,-11.527415105546 5.674926903315,-25.015080218503 -12.547503345995,-8.904505830685 -30.806659473456,-36.306032001862 -30.806659473456,-46.231571706584 0,-9.264549095757 90.868557531538,-3.549824206855 111.264716747059,6.99743963505 29.925944044876,15.475307101899 36.890544877185,32.081144166827 36.890544877185,87.958864006268 0,46.324661900348 -20.999691379135,309.525443664142 -25.01620345018,313.541955735185 -2.212577058693,2.212577058692 -311.52349841271853,24.47718263299 -334.2603059886118,24.060494984794 -8.1485393893334,-0.149334760523 -24.896806937881,-4.663925003175 -37.2183723301058,-10.032422761452 z m -6.7586423349299,-166.95538339423694 c -17.6327862329341,-18.40466301768735 -20.076327967217,-25.70633685212515 -15.9548726134104,-47.67558264246626 15.3035755339717,-81.5750708220948 144.1725554477799,-197.9795269991208 221.4215046241499,-200.0050737494138 31.471341625164,-0.825210885532 49.631630468844,15.168238426456 49.631630468844,43.709710402049 0,56.448541839203 -96.7075193459967,172.2811726018209 -173.812517245708,208.18609833234896 -48.0895111724254,22.39349424934974 -56.195772590973,21.97313608311644 -81.2857452338755,-4.21515234251791 z"
                 id="path877" />
            <path
                 style="fill:#cc2110;stroke-width:7.40776"
                 d="m -40.9559436108393,170.001887002562 c -30.7805668334673,-6.584362561852 -49.7531594989771,-36.51509321201 -53.1803984066169,-83.8961869175704 -1.7534599129791,-24.2413355720855 -0.8987796579979,-53.1965699496646 1.8992894555136,-64.3449652835094 5.0505944791284,-20.12317124418352 5.2441577837526,-20.00454634291098 26.7562242359988,16.3975008826335 11.9178542162878,20.1670208192924 24.628524500936,35.9648001856213 28.2459339658848,35.1061763696189 3.6174094649488,-0.8586238160023 18.6210081439993,-2.372247913176 33.34133039788906,-3.3636091048298 24.06421868602104,-1.6206392836607 27.97260038563674,-4.9665677999526 38.74246567812215,-33.1670575360204 7.4545773136984,-19.5195320751469 24.9528888951169,-42.09827469050245 46.3338874401868,-59.7863921906463 32.025281711533,-26.4939424926628 36.769747617902,-28.1319579640467 69.945853366347,-24.1486380625952 l 35.590209324481,4.2731714859464 -5.310329982677,-30.0163271650166 c -6.969569892018,-39.3950829347187 -6.130474699509,-48.6975567263087 7.289774065617,-80.8167330684417 10.124107729522,-24.230400431644 14.10336863222,-26.981106449304 39.031747237232,-26.981106449304 h 27.758321148999 l -25.129603359343,-25.927170784242 c -14.663186234761,-15.128568816366 -20.821989251441,-25.927170784243 -14.787130604034,-25.927170784243 8.044145476351,0 8.367069266985,-1.975403488323 1.453157057853,-8.889315697454 -15.684074093226,-15.684074093222 -9.665241393618,-20.741736627395 24.683545376173,-20.741736627395 40.804933482973,0 80.947220303889,15.715502016787 91.762850095469,35.924691141166 4.402213360997,8.225610906867 8.004024292722,30.970336541865 8.004024292722,50.54383474444 0,30.224366369438 -22.47260423294,322.532203576885 -25.045406630043,325.773042061494 -0.797904490198,1.005082855096 -172.531969293801,12.935870752686 -293.4884058620817,20.389361451072 -26.48275301533346,1.631901194079 -55.2365552474952,1.451285384783 -63.8973382936926,-0.401368465103 z m -16.0676736545099,-182.5008616387018 c -21.1617464345102,-21.8333813731445 -22.8940477179172,-26.8521996559517 -16.7103994505677,-48.4133211000009 10.8653143657315,-37.8851371292052 34.4410012906653,-71.0357431132943 81.50842612460955,-114.6118765253243 50.53083479999114,-46.782640147281 97.71963528471734,-71.887975506617 135.12296429735434,-71.887975506617 47.025427252953,0 57.307569152185,35.925994666136 28.755575066721,100.472513080751 -28.15362134137,63.6459307503856 -142.2062352310955,158.7991947616752 -190.3399051450688,158.7991947616752 -8.1000917133603,0 -25.351589115232,-10.961340619717567 -38.3366608930484,-24.358534710484 z"
                 id="path875" />
            <path
                 style="fill:#ad1104;stroke-width:7.40776"
                 d="m -37.260976264999,168.985115550896 c -46.2882462948575,-5.639048381834 -77.204934625858,-86.3881176337511 -45.2937007665201,-118.2993514930886 14.741163913962,-14.7411639139623 14.7849738779595,-14.7069893863567 34.7823970135224,27.132457515779 17.0970787136372,35.7712247308866 22.853318091649,41.7682974689826 39.39586704209447,41.0441374509726 17.35562092792262,-0.759752732266 21.34528099386783,-6.749056710013 38.30910147382433,-57.5098755404203 15.3713056366471,-45.9955386541972 24.5137543414072,-61.185614277412852 48.5669292940227,-80.6934063933533 16.2970787786668,-13.2173829665995 25.3064961426662,-18.5731812546621 20.0209274755543,-11.9017739734722 -8.7469927145195,11.0403921620115 -5.5204445555293,11.7589922181201 35.9244307921009,8.000902732833 34.411047052854,-3.1202843058968 47.136291411642,-1.5992279468885 52.091329160525,6.2265089168288 10.069476477917,15.9032236009331 8.442799302093,-12.3736475156702 -3.239587498158,-56.3144301265708 -8.827937214274,-33.2043850856512 -8.437106064364,-40.1063596623882 3.775247326676,-66.6698677309102 7.4924473369,-16.297078778666 11.827913826732,-22.41178421627 9.634369977405,-13.588234305785 -3.967707254298,15.960138202501 -3.773541724437,15.986746885556 37.675002082096,5.163028629209 32.041488873021,-8.367194989871 44.513994505334,-8.893611425898 54.007218373246,-2.279436726982 6.789175110807,4.73019396458 -7.579096777298,-10.007240324084 -31.929493084676,-32.749853974809 -42.655430806431,-39.839022358824 -43.738326977463,-41.754710054471 -29.631052324849,-52.418545624446 11.35736850914,-8.585152927936 12.149493812235,-11.312315032222 3.53075088493,-12.15581673181 -6.111404542,-0.598112759776 2.222328924363,-3.6883529147 18.51940770303,-6.867200344277 37.093320634376,-7.235284835673 70.226915963625,5.396322843784 84.57763417165,32.243753890776 8.945449060133,16.735213063551 9.121440144227,38.565414597112 1.188705325349,147.4488150916199 -5.121213918798,70.29293161441196 -12.408585544469,128.9372446948614 -16.194159168157,130.3206957343319 -3.993432160214,1.459413664163 -4.771035032547,23.1279976412223 -1.852314985503,51.6163767437422 l 5.030546148474,49.101011217432 -39.750670777726,-34.772920455594 c -21.862868927749,-19.125106250577 -41.565204899953,-31.989449445879 -43.782968827119,-28.5874293228957 -2.217763927166,3.4020201229841 -19.856828439855,14.5554414606367 -39.197921139309,24.7853807503397 l -35.165623089916,18.599889617642 27.757860008704,4.588154868505 c 15.266823004787,2.523485177679 45.81428251916,4.624842176268 67.883243365271,4.669682219088 72.645198033262,0.147601593626 35.367625238627,6.66702711537 -84.844794112498,14.838394097479 -153.3043986477482,10.420774393231 -188.164705450875,11.90693540187 -211.788681844044,9.028953267836 z m -8.3194375533605,-188.3189190751296 c -15.2785113550002,-16.2678707748156 -27.7791115545457,-34.780150477095 -27.7791115545457,-41.1383993383998 0,-19.0312171061041 42.5602607804003,-79.4394480371226 81.88301190108325,-116.2212778199386 38.14507980875895,-35.680256151756 103.40606719236794,-71.016911084347 129.23823591346396,-69.978207956411 9.028120480194,0.36301779705 5.158608804872,3.376587897094 -9.905794514728,7.714618450992 l -24.721320677152,7.118890948083 25.341519800076,30.69319136315 c 31.946983591631,38.693609877749 39.303568119129,40.992192442319 48.702692629201,15.217273682737 4.160043793503,-11.407955145067 7.79432190281,-15.741496547576 8.076173576239,-9.630092005576 1.930511967012,41.859391714955 -72.327949896031,138.7136956536896 -138.2661372479288,180.3386462022929 -47.99566578542887,30.2983338653795 -60.7829997738607,29.729945229267 -92.5692698257087,-4.1146435269295 z"
                 id="path873" />
            <path
                 style="fill:#910c03;stroke-width:7.40776"
                 d="m -38.6462507805373,166.884702909649 c -29.8445996267004,-8.36410332348 -40.9189553762452,-19.658204976876 -50.4418334586753,-51.442739203079 -7.071479052313,-23.6024934922583 -6.4023726496269,-30.7355786059646 4.2605198764038,-45.4197580310524 12.5230566130781,-17.2458654917552 12.6245231412895,-17.0683148727197 10.1534328975926,17.7669259812518 -2.4654131619723,34.7552103857506 2.4774222447068,41.2727062608086 21.936853022049,28.9253712332326 5.7218935975821,-3.630637404037 7.4649667630641,-11.700719275294 4.3755476965734,-20.2579150675954 -8.0968658275612,-22.4270209703657 0.3167332210392,-10.1473569426414 21.7276397062719,31.7115320289534 10.8386645322181,21.189876083358 17.2600411337485,39.884121471826 14.2697257811796,41.542767529931 -2.9903153525697,1.658646058104 -14.8171638371974,0.386863045865 -26.281885521395,-2.826184471642 z m 58.3217309243491,-4.071521215854 c 12.0046686581336,-2.721649175554 17.238916244669,-13.249009045656 24.5752147079516,-49.426803917555 5.1269468491797,-25.2827270260421 11.1248525755657,-53.4689547125316 13.3286793919695,-62.6360615255316 2.2038268164031,-9.1671068130001 0.5769506139614,-16.6674669327274 -3.6152804498762,-16.6674669327274 -4.1922310638347,0 -9.8710659142051,10.2388450708115 -12.6196330008221,22.752989046247 -2.748567086617,12.5141439754362 -6.5779692293219,21.1724145198656 -8.5097825393437,19.2406012098431 -2.9048457844298,-2.904845784429 11.2027026602034,-62.4638601707862 16.6484073171041,-70.28597029462083 0.9056542244605,-1.30086508985921 7.8048688842256,1.15254798882006 15.3315881328119,5.45202906373044 7.5267192485855,4.2994810749111 42.0196378739741,15.7542487572769 76.6509302786411,25.4550392941464 75.756914091944,21.2207487591922 74.922184212126,22.38505805292 52.285130740514,-72.9290577908154 -16.723009487751,-70.4128240705147 -18.002919008179,-80.4189347408397 -9.624238199556,-75.2406252202247 3.092142424193,1.911049116207 37.154147482485,-0.405895554767 75.693344573981,-5.148765935506 l 70.071267439085,-8.623400692247 -40.506469938223,-34.637651213266 c -22.278558466023,-19.050708167297 -48.439699564363,-40.91939825148 -58.135869107421,-48.597089075962 l -17.629399169196,-13.959437862696 25.832873033082,3.015842346156 c 19.25256625676,2.247628613161 27.051519531768,-0.159899523446 30.617017806695,-9.451439087966 2.631279625486,-6.857004788767 2.909850359476,-15.499953501116 0.619046075533,-19.206552694108 -10.419699403847,-16.859427787982 36.08737920464,-4.982706131403 53.380731222822,13.632077213347 18.807403245789,20.244527280172 18.89276067699,20.924750043494 13.711004702195,109.26450544788 -4.635239566034,79.0226192618854 -15.40149617038,163.6212258048597 -17.676239329372,138.8955577727282 -0.468537245572,-5.09283711833335 -4.185379287592,-9.2597038515152 -8.259648982259,-9.2597038515152 -8.798708389511,0 -8.971662719036,48.2671900842993 -0.358344112826,100.00480159636501 3.391438253734,20.371348473333 5.471438833271,37.815804387983 4.622223510082,38.765457588111 -0.84921532319,0.949653200128 -22.976222710561,-16.413806573194 -49.171127527491,-38.585466162939 -39.989495020823,-33.8475545898693 -49.551003333538,-38.8761554271572 -59.624310299603,-31.3576945068982 -6.598465847853,4.9249276109488 -29.210083960108,20.9886948202226 -50.248040249455,35.6972604650522 l -38.250829616995,26.742846626962 34.583138825517,4.74014646819 c 19.020726354036,2.607080557504 54.952212600973,5.123495123659 79.847747215418,5.592032369235 42.888638204004,0.807169828718 43.709254231214,1.152248363746 15.633556065051,6.574091225771 -31.591376252716,6.10077358802 -254.97021231601985,16.029816200725 -229.2026885160142,10.187909030814 z m 216.9679761595252,-262.913936473404 c -11.712671545946,-7.414455809161 -22.843565204905,-5.037744898231 -26.401962803805,5.6374478984668 -1.388106576661,4.1643197299836 5.070536859771,11.0051131445213 14.352540969849,15.2017631434178 13.262300887492,5.9962519241327 17.429051674474,5.2589468761824 19.457184915168,-3.4429418485214 1.419447593265,-6.0902680155833 -1.91404579328,-13.9185891525966 -7.407763081212,-17.3962691933632 z m -275.7871591360707,69.7210135625227 -36.1579267313443,-34.4881170269697 13.9346374877078,-26.0257140993336 c 7.6640506182392,-14.3141427546334 30.095517023017,-42.8860076979944 49.8477031217282,-63.4930332074684 34.1705999084424,-35.649442571484 34.6198714007369,-35.875101439549 9.2597038515152,-4.650938965832 -14.6593489803776,18.049009078265 -26.6533617825053,34.820825992093 -26.6533617825053,37.27070425295 0,2.449878260857 19.72178117418303,23.9703184166085 43.826180387073,47.8232003461135 l 43.8261803870731,43.3688762354641 43.21503581717,-39.8223935630112 c 23.768269699444,-21.9023164596561 34.881302350807,-30.0231634579024 24.69562811414,-18.0463266627702 -35.0782272515425,41.246773958458 -102.0244733194288,93.03679285319942 -119.85890499182245,92.72357030945109 -5.37732191116528,-0.0944408253902 -26.04801595849555,-15.69136325376119 -45.93487566073525,-34.65982761859359 z"
                 id="path871" />
            <path
                 style="fill:#770702;stroke-width:7.40776"
                 d="m -62.6839784667345,155.761599202479 c -7.9086856457272,-6.413542067526 -9.6701705963169,-9.215086547955 -3.9144110013103,-6.225654400953 5.7557595950067,2.989432147002 20.7564798344613,7.895654338149 33.3349338654549,10.902715980325 21.0266532636181,5.026726045711 21.3421458716843,5.528499605825 3.9144110013103,6.225654400954 -10.4255279802729,0.417048278347 -25.4262482197276,-4.489173912799 -33.3349338654549,-10.902715980326 z m 113.4044847041335,6.754967045466 c 5.0928371183334,-2.055004451257 13.4265705846971,-2.055004451257 18.5194077030305,0 5.0928371183334,2.055004451258 0.9259703851515,3.736371729559 -9.2597038515152,3.736371729559 -10.1856742366668,0 -14.3525409698487,-1.681367278301 -9.2597038515153,-3.736371729559 z m 101.856742366668,-10.334486479922 c 16.297078778667,-3.37093357066 41.298279177758,-5.926676736986 55.558223109091,-5.679429258503 l 25.927170784243,0.449540869969 -22.223289243637,5.654867237885 c -12.222809084,3.110176980837 -37.224009483091,5.665920147163 -55.558223109091,5.679429258502 l -33.334933865455,0.02456202065 z m 125.931972380607,-41.717463520468 c -22.55551479352,-20.7480636656554 -27.71226732371,-27.725038149514 -13.18760206462,-17.842539964729 13.118167337793,8.925525138853 26.19380367767,20.018618310921 29.05696964417,24.651318160152 3.393835264932,5.491340810877 6.952830254803,3.442565303095 10.22520309297,-5.886253203108 4.044156856012,-11.5290057661948 5.705599656496,-9.634285538656 8.550814931421,9.751405229111 1.94225247765,13.23341198695 3.275332014893,23.911368912477 2.96239897165,23.728793167837 -0.312933043245,-0.182575744641 -17.236436102258,-15.663801269809 -37.607784575591,-34.402723389263 z m -98.136698568971,-29.3411491357272 c 7.138861207066,-8.199392626927 10.750145709157,-17.1375885344675 8.025076671313,-19.862657572312 -2.725069037845,-2.7250690378438 0.601151333008,-4.9546709778982 7.391600824122,-4.9546709778982 17.774688927755,0 14.850115909472,9.0021092889549 -8.257864689941,25.4184798832212 -20.11267214856,14.288443692052 -20.121874868782,14.2876709064403 -7.158812805494,-0.601151333011 z m 118.100240194571,-6.2979208471798 c 0.150967916152,-12.2228090840001 1.811187635334,-16.3262331398329 3.689377153744,-9.1187201240722 1.87818951841,7.2075130157606 1.754670314287,17.2079931753971 -0.274487120271,22.2232892436365 -2.029157434559,5.0152960682395 -3.565857949622,-0.8817600355642 -3.414890033473,-13.1045691195643 z m -82.51966198821,-26.5444843743434 c 0.225426205233,-5.7718820674448 11.059279711503,-18.6147356268899 24.075230013939,-28.5396745765447 l 23.665364186247,-18.0453435448271 -22.223289243637,25.4160986137174 c -12.222809084,13.9788542375445 -23.056662590273,26.8217077969897 -24.07523001394,28.5396745765447 -1.018567423666,1.7179667795549 -1.667501147841,-1.5988730014463 -1.442074942609,-7.3707550688903 z m -246.7179882779991,-82.8598635582894 c -19.3527810496669,-20.316607152458 -35.1868746357579,-39.2098926880266 -35.1868746357579,-41.9850789679299 0,-2.7751862799033 5.1841363126292,-11.5165360372378 11.5203029169538,-19.4252216829652 10.9275042802593,-13.6395081824281 11.0749197997381,-13.4661597643211 2.8648369512563,3.3688105254424 -7.9426600608706,16.286613498812 -5.6886137994197,20.3879687832688 27.3704532594102,49.8019739138833 39.4750701892336,35.12258573453405 41.5714333557397,35.95475724114128 62.4400871258583,24.7861926818641 7.8806909752542,-4.2176178156188 14.3285290459165,-5.96996910652 14.3285290459165,-3.8941139797807 0,3.9485076624804 -42.06937726849,27.15125860011302 -45.93065028458777,25.33237970591524 -1.22089535881027,-0.57511105557819 -18.05390332938263,-17.66833504397124 -37.40668437904943,-37.98494219642924 z m 344.9853033361081,-58.6436640614959 c 2.309565132189,-6.8667430087703 0.219608505052,-14.1039325979813 -4.644348060305,-16.0826435315793 -4.863956565356,-1.978710933598 -3.009943965103,-3.860826773423 4.120028000564,-4.182479644054 18.000890053157,-0.812070227963 16.246351023202,-20.529963901737 -2.730510246728,-30.686071840484 l -15.69409563885,-8.399225090069 17.546036409153,-8.714304611601 c 20.765090700075,-10.313059965703 27.576274013873,-39.715710501091 10.700377259475,-46.191599706305 -6.373760017147,-2.445841207277 -9.461629867421,-7.888582287643 -6.861933000609,-12.094980178592 2.599696866811,-4.206397890948 -3.253062704406,-14.08130601108 -13.006132380483,-21.94424026696 -16.902643413396,-13.626927554523 -16.952522167342,-13.913951315333 -1.065383554322,-6.130674290691 30.595931035292,14.989269803396 41.304061362301,40.761499871082 36.938681523424,88.903680618955 -2.189846002073,24.150008918547 -9.686044671505,51.419983213884 -16.734351214091,60.8768987564617 -7.497890786673,10.0601356494104 -11.034397650135,11.9775760395372 -8.568369097228,4.6456397849186 z"
                 id="path869" />
        </g>
    </g>
</svg>
