<?xml version="1.0" encoding="UTF-8" standalone="no"?>
<!-- Created with Inkscape (http://www.inkscape.org/) -->

<svg
     width="600"
     height="400"
     viewBox="0 0 600 400"
     version="1.1"
     id="svg5"
     sodipodi:docname="2進数.svg"
     inkscape:version="1.1 (c68e22c387, 2021-05-23)"
     inkscape:export-filename="C:\Program Files\XAMPP\htdocs\koko-campus.org\it-dictionary\manage\pics-for-words\2進数.png"
     inkscape:export-xdpi="96"
     inkscape:export-ydpi="96"
     xmlns:inkscape="http://www.inkscape.org/namespaces/inkscape"
     xmlns:sodipodi="http://sodipodi.sourceforge.net/DTD/sodipodi-0.dtd"
     xmlns="http://www.w3.org/2000/svg"
     xmlns:svg="http://www.w3.org/2000/svg">
    <sodipodi:namedview
         id="namedview7"
         pagecolor="#ffffff"
         bordercolor="#666666"
         borderopacity="1.0"
         inkscape:pageshadow="2"
         inkscape:pageopacity="0.0"
         inkscape:pagecheckerboard="0"
         inkscape:document-units="px"
         showgrid="false"
         units="px"
         width="600px"
         inkscape:zoom="1.5002"
         inkscape:cx="307.96"
         inkscape:cy="219.64"
         inkscape:window-width="1920"
         inkscape:window-height="1009"
         inkscape:window-x="-8"
         inkscape:window-y="-8"
         inkscape:window-maximized="1"
         inkscape:current-layer="layer1" />
    <defs
         id="defs2" />
    <g
         inkscape:label="レイヤー 1"
         inkscape:groupmode="layer"
         id="layer1">
        <rect
             style="fill:#ffff7d;stroke:#ffc800;stroke-width:0.5;stroke-linejoin:round;stop-color:black"
             id="rect5476"
             width="527.93"
             height="98.654"
             x="33.329"
             y="210.65"
             ry="16.664" />
        <path
             d="m 96.481,281.39 h -25.656 v -5.06 h 10.5 v -29.82 l -9.781,5.32 -2,-4.63 13,-6.84 h 4.812 v 35.97 h 9.125 z"
             id="path5417"
             style="font-size:64px;line-height:1.25;font-family:Consolas;-inkscape-font-specification:'Consolas, Normal';font-variant-ligatures:none" />
        <path
             d="m 184.23,260.89 q 0,4.69 -0.94,8.57 -0.93,3.84 -2.84,6.62 -1.91,2.75 -4.75,4.28 -2.81,1.5 -6.63,1.5 -3.28,0 -5.96,-1.22 -2.69,-1.25 -4.6,-3.81 -1.91,-2.56 -2.94,-6.53 -1.03,-3.97 -1.03,-9.41 0,-4.68 0.94,-8.56 0.97,-3.87 2.84,-6.62 1.91,-2.79 4.75,-4.29 2.85,-1.53 6.63,-1.53 3.28,0 5.97,1.25 2.69,1.22 4.59,3.82 1.91,2.56 2.94,6.53 1.03,3.97 1.03,9.4 z m -5.5,0.19 q 0,-1.06 -0.1,-2.09 -0.1,-1.07 -0.16,-2.07 l -17.28,12.85 q 0.47,1.62 1.19,3 0.72,1.37 1.72,2.37 1.03,0.97 2.31,1.53 1.31,0.54 2.97,0.54 2.12,0 3.84,-1.04 1.75,-1.03 2.97,-3.06 1.22,-2.03 1.87,-5.03 0.66,-3.03 0.66,-7 z m -18.69,-0.37 q 0,0.96 0,1.93 0,0.97 0.13,1.88 l 17.28,-12.78 q -0.47,-1.6 -1.19,-2.91 -0.72,-1.31 -1.72,-2.25 -1,-0.97 -2.28,-1.5 -1.28,-0.53 -2.87,-0.53 -2.13,0 -3.88,1.03 -1.72,1.03 -2.94,3.09 -1.21,2.04 -1.87,5.07 -0.66,3 -0.66,6.97 z"
             id="path5419"
             style="font-size:64px;line-height:1.25;font-family:Consolas;-inkscape-font-specification:'Consolas, Normal';font-variant-ligatures:none" />
        <path
             d="m 269.24,281.39 h -25.66 v -5.06 h 10.5 v -29.82 l -9.78,5.32 -2,-4.63 13,-6.84 h 4.81 v 35.97 h 9.13 z"
             id="path5421"
             style="font-size:64px;line-height:1.25;font-family:Consolas;-inkscape-font-specification:'Consolas, Normal';font-variant-ligatures:none" />
        <path
             d="m 354.24,281.39 h -25.65 v -5.06 h 10.5 v -29.82 l -9.78,5.32 -2,-4.63 13,-6.84 h 4.81 v 35.97 h 9.12 z"
             id="path5423"
             style="font-size:64px;line-height:1.25;font-family:Consolas;-inkscape-font-specification:'Consolas, Normal';font-variant-ligatures:none" />
        <path
             d="m 439.24,281.39 h -25.65 v -5.06 h 10.5 v -29.82 l -9.79,5.32 -2,-4.63 13,-6.84 h 4.82 v 35.97 h 9.12 z"
             id="path5425"
             style="font-size:64px;line-height:1.25;font-family:Consolas;-inkscape-font-specification:'Consolas, Normal';font-variant-ligatures:none" />
        <path
             d="m 527,260.89 q 0,4.69 -0.94,8.57 -0.93,3.84 -2.84,6.62 -1.91,2.75 -4.75,4.28 -2.81,1.5 -6.63,1.5 -3.28,0 -5.96,-1.22 -2.69,-1.25 -4.6,-3.81 -1.9,-2.56 -2.94,-6.53 -1.03,-3.97 -1.03,-9.41 0,-4.68 0.94,-8.56 0.97,-3.87 2.84,-6.62 1.91,-2.79 4.75,-4.29 2.85,-1.53 6.63,-1.53 3.28,0 5.97,1.25 2.69,1.22 4.59,3.82 1.91,2.56 2.94,6.53 1.03,3.97 1.03,9.4 z m -5.5,0.19 q 0,-1.06 -0.1,-2.09 -0.1,-1.07 -0.16,-2.07 l -17.28,12.85 q 0.47,1.62 1.19,3 0.72,1.37 1.72,2.37 1.03,0.97 2.31,1.53 1.31,0.54 2.97,0.54 2.12,0 3.84,-1.04 1.75,-1.03 2.97,-3.06 1.22,-2.03 1.87,-5.03 0.66,-3.03 0.66,-7 z m -18.69,-0.37 q 0,0.96 0,1.93 0,0.97 0.13,1.88 l 17.28,-12.78 q -0.47,-1.6 -1.19,-2.91 -0.72,-1.31 -1.72,-2.25 -1,-0.97 -2.28,-1.5 -1.28,-0.53 -2.87,-0.53 -2.13,0 -3.88,1.03 -1.72,1.03 -2.94,3.09 -1.21,2.04 -1.87,5.07 -0.66,3 -0.66,6.97 z"
             id="path5427"
             style="font-size:64px;line-height:1.25;font-family:Consolas;-inkscape-font-specification:'Consolas, Normal';font-variant-ligatures:none" />
        <text
             xml:space="preserve"
             style="font-size:40px;line-height:1.25;font-family:Consolas;-inkscape-font-specification:'Consolas, Normal';font-variant-ligatures:none"
             x="500.6"
             y="67.595"
             id="text6638"><tspan
                 sodipodi:role="line"
                 id="tspan6636"
                 x="500.6"
                 y="67.595">2</tspan></text>
        <text
             xml:space="preserve"
             style="font-size:20px;line-height:1.25;font-family:Consolas;-inkscape-font-specification:'Consolas, Normal';font-variant-ligatures:none"
             x="521.98"
             y="35.462"
             id="text6638-9"><tspan
                 sodipodi:role="line"
                 id="tspan6636-7"
                 x="521.98"
                 y="35.462">0</tspan></text>
        <text
             xml:space="preserve"
             style="font-size:20px;line-height:1.25;font-family:Consolas;-inkscape-font-specification:'Consolas, Normal';font-variant-ligatures:none"
             x="436.52"
             y="35.462"
             id="text6638-9-4"><tspan
                 sodipodi:role="line"
                 id="tspan6636-7-9"
                 x="436.52"
                 y="35.462">1</tspan></text>
        <text
             xml:space="preserve"
             style="font-size:20px;line-height:1.25;font-family:Consolas;-inkscape-font-specification:'Consolas, Normal';font-variant-ligatures:none"
             x="351.06"
             y="35.462"
             id="text6638-9-8"><tspan
                 sodipodi:role="line"
                 id="tspan6636-7-6"
                 x="351.06"
                 y="35.462">2</tspan></text>
        <text
             xml:space="preserve"
             style="font-size:20px;line-height:1.25;font-family:Consolas;-inkscape-font-specification:'Consolas, Normal';font-variant-ligatures:none"
             x="265.6"
             y="35.462"
             id="text6638-9-3"><tspan
                 sodipodi:role="line"
                 id="tspan6636-7-98"
                 x="265.6"
                 y="35.462">3</tspan></text>
        <text
             xml:space="preserve"
             style="font-size:20px;line-height:1.25;font-family:Consolas;-inkscape-font-specification:'Consolas, Normal';font-variant-ligatures:none"
             x="180.14"
             y="35.462"
             id="text6638-9-9"><tspan
                 sodipodi:role="line"
                 id="tspan6636-7-8"
                 x="180.14"
                 y="35.462">4</tspan></text>
        <text
             xml:space="preserve"
             style="font-size:20px;line-height:1.25;font-family:Consolas;-inkscape-font-specification:'Consolas, Normal';font-variant-ligatures:none"
             x="94.679"
             y="35.462"
             id="text6638-9-5"><tspan
                 sodipodi:role="line"
                 id="tspan6636-7-65"
                 x="94.679"
                 y="35.462">5</tspan></text>
        <text
             xml:space="preserve"
             style="font-size:40px;line-height:1.25;font-family:Consolas;-inkscape-font-specification:'Consolas, Normal';font-variant-ligatures:none"
             x="329.71"
             y="70.26"
             id="text6638-282"><tspan
                 sodipodi:role="line"
                 id="tspan6636-5"
                 x="329.71"
                 y="70.26">2</tspan></text>
        <text
             xml:space="preserve"
             style="font-size:40px;line-height:1.25;font-family:Consolas;-inkscape-font-specification:'Consolas, Normal';font-variant-ligatures:none"
             x="73.38"
             y="67.595"
             id="text6638-2"><tspan
                 sodipodi:role="line"
                 id="tspan6636-6"
                 x="73.38"
                 y="67.595">2</tspan></text>
        <text
             xml:space="preserve"
             style="font-size:40px;line-height:1.25;font-family:Consolas;-inkscape-font-specification:'Consolas, Normal';font-variant-ligatures:none"
             x="158.82"
             y="67.595"
             id="text6638-28"><tspan
                 sodipodi:role="line"
                 id="tspan6636-3"
                 x="158.82"
                 y="67.595">2</tspan></text>
        <text
             xml:space="preserve"
             style="font-size:40px;line-height:1.25;font-family:Consolas;-inkscape-font-specification:'Consolas, Normal';font-variant-ligatures:none"
             x="244.27"
             y="67.595"
             id="text6638-5"><tspan
                 sodipodi:role="line"
                 id="tspan6636-9"
                 x="244.27"
                 y="67.595">2</tspan></text>
        <text
             xml:space="preserve"
             style="font-size:40px;line-height:1.25;font-family:Consolas;-inkscape-font-specification:'Consolas, Normal';font-variant-ligatures:none"
             x="415.16"
             y="67.595"
             id="text6638-0"><tspan
                 sodipodi:role="line"
                 id="tspan6636-0"
                 x="415.16"
                 y="67.595">2</tspan></text>
        <text
             xml:space="preserve"
             style="font-size:28px;line-height:1.25;font-family:Consolas;-inkscape-font-specification:'Consolas, Normal';font-variant-ligatures:none"
             x="507.94"
             y="152.02"
             id="text22650"><tspan
                 sodipodi:role="line"
                 id="tspan22648"
                 x="507.94"
                 y="152.02">1</tspan></text>
        <text
             xml:space="preserve"
             style="font-size:28px;line-height:1.25;font-family:Consolas;-inkscape-font-specification:'Consolas, Normal';font-variant-ligatures:none"
             x="421.12"
             y="152.1"
             id="text23710"><tspan
                 sodipodi:role="line"
                 id="tspan23708"
                 x="421.12"
                 y="152.1">2</tspan></text>
        <text
             xml:space="preserve"
             style="font-size:28px;line-height:1.25;font-family:Consolas;-inkscape-font-specification:'Consolas, Normal';font-variant-ligatures:none"
             x="334.72"
             y="151.98"
             id="text24176"><tspan
                 sodipodi:role="line"
                 id="tspan24174"
                 x="334.72"
                 y="151.98">4</tspan></text>
        <text
             xml:space="preserve"
             style="font-size:28px;line-height:1.25;font-family:Consolas;-inkscape-font-specification:'Consolas, Normal';font-variant-ligatures:none"
             x="247.99"
             y="151.98"
             id="text24774"><tspan
                 sodipodi:role="line"
                 id="tspan24772"
                 x="247.99"
                 y="151.98">8</tspan></text>
        <text
             xml:space="preserve"
             style="font-size:28px;line-height:1.25;font-family:Consolas;-inkscape-font-specification:'Consolas, Normal';font-variant-ligatures:none"
             x="153.41"
             y="151.9"
             id="text26032"><tspan
                 sodipodi:role="line"
                 id="tspan26030"
                 x="153.41"
                 y="151.9">16</tspan></text>
        <text
             xml:space="preserve"
             style="font-size:28px;line-height:1.25;font-family:Consolas;-inkscape-font-specification:'Consolas, Normal';font-variant-ligatures:none"
             x="66.658"
             y="151.98"
             id="text27290"><tspan
                 sodipodi:role="line"
                 id="tspan27288"
                 x="66.658"
                 y="151.98">32</tspan></text>
    </g>
</svg>
