<?xml version="1.0" encoding="UTF-8"?>
<svg width="600" height="400" version="1.1" viewBox="0 0 600 400" xmlns="http://www.w3.org/2000/svg">
	<g stroke-width="2.5575">
		<ellipse cx="335.9" cy="363.31" rx="34.054" ry="29.77" fill="#d200ff"/>
		<path class="eye0" d="m353.73 350.26-16.92 14.89s6.84 0.68 10.15 0c2.18-0.48 4.63-1.04 6.09-2.71 1.55-1.77 1.98-4.42 2.04-6.77 0.16-1.85-1.36-5.41-1.36-5.41z"/>
		<path d="m313.13 350.26 16.91 14.89s-6.83 0.68-10.14 0c-2.18-0.48-4.63-1.04-6.09-2.71-1.57-1.77-1.98-4.42-2.04-6.77-0.16-1.85 1.36-5.41 1.36-5.41z"/>
	</g>
	<g stroke-width="2.5571">
		<rect x="245.27" y="148.28" width="54.125" height="87.957" fill="#000050"/>
		<rect class="window" x="253.34" y="158.64" width="22.549" height="9.9214" fill="#fff"/>
		<rect class="window" x="253.8" y="178.48" width="22.549" height="9.9214" fill="#fff"/>
		<rect x="517.32" y="14.899" width="54.125" height="87.957" fill="#000050"/>
		<rect class="window" x="525.39" y="25.261" width="22.549" height="9.9214" fill="#fff"/>
		<rect class="window" x="525.85" y="45.101" width="22.549" height="9.9214" fill="#fff"/>
		<rect x="517.32" y="148.28" width="54.125" height="87.957" fill="#000050"/>
		<rect class="window" x="525.39" y="158.64" width="22.549" height="9.9214" fill="#fff"/>
		<rect class="window" x="525.85" y="178.48" width="22.549" height="9.9214" fill="#fff"/>
		<rect x="517.32" y="281.67" width="54.125" height="87.957" fill="#000050"/>
		<rect class="window" x="525.39" y="292.03" width="22.549" height="9.9214" fill="#fff"/>
		<rect class="window" x="525.85" y="311.87" width="22.549" height="9.9214" fill="#fff"/>
	</g>
	<g fill="#fff" stroke="#000">
		<ellipse cx="57.093" cy="193.74" rx="43.26" ry="37.816" stroke-width="3.2488"/>
		<g stroke-dashoffset=".5" stroke-linecap="round" stroke-linejoin="round">
			<ellipse cx="42.266" cy="187.31" rx="8.5377" ry="5.834" stop-color="#000000" stroke-width="2.8909" style="paint-order:markers stroke fill"/>
			<ellipse cx="74.878" cy="187.31" rx="8.5377" ry="5.834" stop-color="#000000" stroke-width="2.8909" style="paint-order:markers stroke fill"/>
			<ellipse cx="57.834" cy="210.94" rx="16.489" ry="1.7227" stop-color="#000000" stroke-width="2.5" style="paint-order:markers stroke fill"/>
		</g>
	</g>
	<g id="dns-arrows" fill="#fff" stroke="#000" stroke-dashoffset=".5" stroke-linecap="round" stroke-linejoin="round" stroke-width="2">
		<path d="m126.88 190.43v-17.1l93.77 8.55z" stop-color="#000000" style="paint-order:markers stroke fill"/>
		<path d="m366.06 135.51-7.15-15.53 88.78-31.39z" stop-color="#000000" style="paint-order:markers stroke fill"/>
		<path d="m451.69 96.59 7.15 15.53-88.78 31.39z" stop-color="#000000" style="paint-order:markers stroke fill"/>
		<path d="m363.81 197.37v-17.09l93.77 8.55z" stop-color="#000000" style="paint-order:markers stroke fill"/>
		<path d="m457.58 213.92v-17.09l-93.77 8.55z" stop-color="#000000" style="paint-order:markers stroke fill"/>
		<path d="m369.27 255.5-7.15 15.53 88.78 31.39z" stop-color="#000000" style="paint-order:markers stroke fill"/>
		<path d="m435.75 323.95 7.15-15.53-88.78-31.39z" stop-color="#000000" style="paint-order:markers stroke fill"/>
		<path d="m322.08 317.18-9.75 3.79-15.5-54.38z" stop-color="#000000" style="paint-order:markers stroke fill"/>
		<path d="m220.65 211.53v-17.1l-93.77 8.55z" stop-color="#000000" style="paint-order:markers stroke fill"/>
	</g>
</svg>
