<?xml version="1.0" encoding="UTF-8" standalone="no"?>
<svg
     width="600"
     height="400"
     viewBox="0 0 600 400"
     version="1.1"
     class="fw_svg"
     id="svg23"
     sodipodi:docname="firewall1.svg"
     inkscape:version="1.1 (c68e22c387, 2021-05-23)"
     inkscape:export-filename="C:\Program Files\XAMPP\htdocs\koko-campus.org\subjects\情報処理安全確保支援士試験\pics\firewall1.png"
     inkscape:export-xdpi="96"
     inkscape:export-ydpi="96"
     xmlns:inkscape="http://www.inkscape.org/namespaces/inkscape"
     xmlns:sodipodi="http://sodipodi.sourceforge.net/DTD/sodipodi-0.dtd"
     xmlns="http://www.w3.org/2000/svg"
     xmlns:svg="http://www.w3.org/2000/svg">
    <defs
         id="defs27">
        <filter
             inkscape:collect="always"
             style="color-interpolation-filters:sRGB"
             id="filter1798"
             x="-0.24231"
             y="-0.39375"
             width="1.4846"
             height="1.7875">
            <feGaussianBlur
                 inkscape:collect="always"
                 stdDeviation="3.9375"
                 id="feGaussianBlur1800" />
        </filter>
    </defs>
    <sodipodi:namedview
         id="namedview25"
         pagecolor="#ffffff"
         bordercolor="#666666"
         borderopacity="1.0"
         inkscape:pageshadow="2"
         inkscape:pageopacity="0.0"
         inkscape:pagecheckerboard="0"
         showgrid="false"
         inkscape:zoom="1.0158"
         inkscape:cx="253"
         inkscape:cy="187.54"
         inkscape:window-width="1920"
         inkscape:window-height="1009"
         inkscape:window-x="-8"
         inkscape:window-y="-8"
         inkscape:window-maximized="1"
         inkscape:current-layer="svg23" />
    <filter
         id="internet"
         x="-0.0874"
         y="-0.142"
         width="1.17"
         height="1.28">
        <feGaussianBlur
             stdDeviation="1.42"
             id="feGaussianBlur2" />
    </filter>
    <path
         id="polyline5-0-7"
         style="fill:none;stroke:#0000ff;stroke-width:5;stroke-miterlimit:4;stroke-dasharray:none"
         d="m 145.31,82.902 172.09,27.458 v 192.23" />
    <ellipse
         cx="30.7"
         cy="20.5"
         rx="19.5"
         ry="12"
         class="i"
         id="ellipse7"
         style="mix-blend-mode:normal;fill:#00ffff;fill-opacity:1;filter:url(#filter1798)"
         transform="matrix(5.4568,0,0,3.2358,20.463,18.4)" />
    <ellipse
         cx="330.22"
         cy="334.45"
         rx="225.19"
         ry="45.77"
         class="m"
         id="ellipse9"
         style="fill:#ffff00;fill-opacity:1;stroke-width:3.66157" />
    <rect
         width="62.979"
         height="78.357"
         x="286.64"
         y="169.68"
         rx="6.4443"
         class="w"
         id="rect11"
         style="stroke-width:3.66157" />
    <path
         d="m 313.01,235.96 -10.62,-6.6 -3.66,-11.71 0.73,-12.08 4.02,-5.86 0.74,12.44 1.83,3.3 2.93,-15.74 -1.1,-5.86 4.03,4.76 2.2,10.61 -0.73,5.86 2.56,4.4 0.37,-14.64 -4.03,-14.66 -4.77,-6.22 6.6,2.94 2.2,-0.37 0.36,-4.76 -2.93,-3.67 5.86,2.57 4.76,10.61 -0.37,7.33 1.1,3.3 1.83,-6.23 v 9.16 l -1.47,5.48 8.43,-11.71 -1.46,-12.81 -2.94,-5.13 11.72,15.37 -1.09,9.16 -4.76,25.99 -15.01,5.86 z"
         class="f"
         id="path13"
         style="fill:#ff0000;fill-opacity:1;stroke-width:3.66157" />
    <path
         d="m 184.85,273.3 -19.04,4.03 -15.74,-121.56 z"
         class="ok"
         id="path15"
         style="stroke-width:3.66157;fill:#ff00ff;fill-opacity:1" />
    <path
         d="m 190.34,156.86 19.04,-4.39 18.68,120.83 z"
         class="ok"
         id="path17"
         style="stroke-width:3.66157;fill:#ff00ff;fill-opacity:1" />
    <text
         x="78.289"
         y="96.276"
         id="text19"
         style="font-size:32px;stroke-width:3.66157">インターネット</text>
    <text
         x="196.07"
         y="345.96"
         id="text21"
         style="font-size:36px;stroke-width:3.66157">内部セグメント</text>
</svg>
