<?xml version="1.0" encoding="UTF-8" standalone="no"?>
<!-- Created with Inkscape (http://www.inkscape.org/) -->

<svg
     width="600"
     height="400"
     viewBox="0 0 600 400"
     version="1.1"
     id="svg5"
     sodipodi:docname="タイムスタンプ.svg"
     inkscape:version="1.1 (c68e22c387, 2021-05-23)"
     xmlns:inkscape="http://www.inkscape.org/namespaces/inkscape"
     xmlns:sodipodi="http://sodipodi.sourceforge.net/DTD/sodipodi-0.dtd"
     xmlns="http://www.w3.org/2000/svg"
     xmlns:svg="http://www.w3.org/2000/svg">
    <sodipodi:namedview
         id="namedview7"
         pagecolor="#ffffff"
         bordercolor="#666666"
         borderopacity="1.0"
         inkscape:pageshadow="2"
         inkscape:pageopacity="0.0"
         inkscape:pagecheckerboard="0"
         inkscape:document-units="px"
         showgrid="false"
         units="px"
         width="600px"
         inkscape:zoom="1.5002"
         inkscape:cx="174.64"
         inkscape:cy="241.64"
         inkscape:window-width="1920"
         inkscape:window-height="1009"
         inkscape:window-x="-8"
         inkscape:window-y="-8"
         inkscape:window-maximized="1"
         inkscape:current-layer="layer1" />
    <defs
         id="defs2" />
    <g
         inkscape:label="レイヤー 1"
         inkscape:groupmode="layer"
         id="layer1">
        <text
             xml:space="preserve"
             style="font-size:36px;line-height:1.25;font-family:Consolas;-inkscape-font-specification:'Consolas, Normal';font-variant-ligatures:none"
             x="275.58"
             y="136.89"
             id="text29483"><tspan
                 sodipodi:role="line"
                 id="tspan12465"></tspan></text>
        <g
             id="g29489">
            <ellipse
                 style="opacity:0.8;fill:#ffffff;fill-opacity:1;stroke:#000000;stroke-width:2.1903;stroke-linecap:round;stroke-linejoin:round;stroke-miterlimit:4;stroke-dasharray:none;paint-order:markers stroke fill;stop-color:#000000"
                 id="path843"
                 cx="75.663"
                 cy="95.357"
                 rx="28.657"
                 ry="24.277" />
            <circle
                 style="opacity:0.8;fill:#ffffff;fill-opacity:1;stroke:#000000;stroke-width:2.1903;stroke-linecap:round;stroke-linejoin:round;stroke-miterlimit:4;stroke-dasharray:none;paint-order:markers stroke fill;stop-color:#000000"
                 id="path1001"
                 cx="67.147"
                 cy="90.736"
                 r="4.6234" />
            <circle
                 style="opacity:0.8;fill:#ffffff;fill-opacity:1;stroke:#000000;stroke-width:2.1903;stroke-linecap:round;stroke-linejoin:round;stroke-miterlimit:4;stroke-dasharray:none;paint-order:markers stroke fill;stop-color:#000000"
                 id="path1001-8"
                 cx="85.884"
                 cy="90.495"
                 r="4.6234" />
            <ellipse
                 style="opacity:0.8;fill:#ffffff;fill-opacity:1;stroke:#000000;stroke-width:2.1903;stroke-linecap:round;stroke-linejoin:round;stroke-miterlimit:4;stroke-dasharray:none;paint-order:markers stroke fill;stop-color:#000000"
                 id="path1209"
                 cx="77.299"
                 cy="106.11"
                 rx="10.84"
                 ry="2.581" />
        </g>
        <g
             id="g29498">
            <path
                 style="fill:#d1d1d1;stroke-width:0.157562"
                 d="m 298.15,135.27 c 0.14,-0.15 3.15,-2.79 6.69,-5.87 l 6.43,-5.59 h -23.67 -23.68 v -19.38 -19.378 h 11.18 11.19 v -8.981 -8.981 h -1.58 -1.57 v -2.679 -2.678 h 31.35 31.36 v 2.678 2.679 h -1.58 -1.57 v 8.981 8.981 h 1.89 1.89 v 19.378 19.38 h -7.6 -7.59 l 6.56,5.71 c 3.61,3.14 6.61,5.79 6.66,5.87 0.1,0.11 -7.72,0.16 -23.26,0.16 -22.23,0 -23.34,0 -23.1,-0.28 z m 32.73,-15.4 v -3.7 h 1.97 1.97 v -1.26 -1.26 h -13.87 -13.86 v 1.26 1.26 h 2.28 2.29 v 3.7 3.7 h 9.61 9.61 z m -48.06,-15.68 v -1.89 h -6.46 -6.46 v 1.89 1.9 h 6.46 6.46 z m 19.07,0 v -1.89 h -6.38 -6.38 v 1.89 1.9 h 6.38 6.38 z m 19.06,0 v -1.89 h -6.38 -6.38 v 1.89 1.9 h 6.38 6.38 z m 19.23,0 v -1.89 h -6.46 -6.46 v 1.89 1.9 h 6.46 6.46 z m -57.36,-10.71 v -1.891 h -6.46 -6.46 v 1.891 1.891 h 6.46 6.46 z m 19.07,0 v -1.891 h -6.38 -6.38 v 1.891 1.891 h 6.38 6.38 z m 19.06,0 v -1.891 h -6.38 -6.38 v 1.891 1.891 h 6.38 6.38 z m 19.23,0 v -1.891 h -6.46 -6.46 v 1.891 1.891 h 6.46 6.46 z m -3.47,-14.496 v -1.89 h -22.37 -22.38 v 1.89 1.891 h 22.38 22.37 z m 0,-9.138 v -1.891 h -22.37 -22.38 v 1.891 1.891 h 22.38 22.37 z"
                 id="path28396" />
            <path
                 style="fill:#bdbdbd;stroke-width:0.157562"
                 d="m 297.95,135.49 c 0,0 3.01,-2.67 6.68,-5.86 l 6.69,-5.82 h -23.7 -23.7 v -19.38 -19.378 h 11.18 11.19 v -8.981 -8.981 h -1.58 -1.57 v -2.679 -2.678 h 31.35 31.36 v 2.678 2.679 h -1.58 -1.57 v 8.981 8.981 h 1.89 1.89 v 19.378 19.38 h -7.62 -7.61 l 6.52,5.67 c 3.59,3.12 6.6,5.76 6.69,5.87 0.13,0.16 -4.52,0.2 -23.17,0.2 -12.84,0 -23.34,0 -23.34,-0.1 z m 32.93,-15.62 v -3.7 h 1.97 1.97 v -1.26 -1.26 h -13.87 -13.86 v 1.26 1.26 h 2.28 2.29 v 3.7 3.7 h 9.61 9.61 z m -48.06,-15.68 v -1.89 h -6.46 -6.46 v 1.89 1.9 h 6.46 6.46 z m 19.07,0 v -1.89 h -6.38 -6.38 v 1.89 1.9 h 6.38 6.38 z m 19.06,0 v -1.89 h -6.38 -6.38 v 1.89 1.9 h 6.38 6.38 z m 19.23,0 v -1.89 h -6.46 -6.46 v 1.89 1.9 h 6.46 6.46 z m -57.36,-10.71 v -1.891 h -6.46 -6.46 v 1.891 1.891 h 6.46 6.46 z m 19.07,0 v -1.891 h -6.38 -6.38 v 1.891 1.891 h 6.38 6.38 z m 19.06,0 v -1.891 h -6.38 -6.38 v 1.891 1.891 h 6.38 6.38 z m 19.23,0 v -1.891 h -6.46 -6.46 v 1.891 1.891 h 6.46 6.46 z m -3.47,-14.496 v -1.89 h -22.37 -22.38 v 1.89 1.891 h 22.38 22.37 z m 0,-9.138 v -1.891 h -22.37 -22.38 v 1.891 1.891 h 22.38 22.37 z"
                 id="path28394" />
            <path
                 style="fill:#9b9b9b;stroke-width:0.157562"
                 d="m 297.95,135.5 c 0,0 3.01,-2.67 6.69,-5.87 l 6.69,-5.82 h -23.71 -23.7 v -19.38 -19.378 h 11.18 11.19 v -8.981 -8.981 h -1.58 -1.57 v -2.679 -2.678 h 31.35 31.36 v 2.678 2.679 h -1.58 -1.57 v 8.981 8.981 h 1.89 1.89 v 19.378 19.38 h -7.63 -7.62 l 6.61,5.75 c 3.64,3.16 6.65,5.8 6.69,5.87 0,0.1 -10.42,0.12 -23.25,0.12 -12.83,0 -23.33,0 -23.33,-0.1 z m 33.09,-15.63 v -3.7 h 1.89 1.89 v -1.26 -1.26 h -13.87 -13.86 v 1.26 1.26 h 2.28 2.29 v 3.7 3.7 h 9.69 9.69 z m -48.22,-15.68 v -1.89 h -6.46 -6.46 v 1.89 1.9 h 6.46 6.46 z m 19.07,0 v -1.89 h -6.46 -6.46 v 1.89 1.9 h 6.46 6.46 z m 19.22,0 v -1.89 h -6.46 -6.46 v 1.89 1.9 h 6.46 6.46 z m 19.07,0 v -1.89 h -6.46 -6.46 v 1.89 1.9 h 6.46 6.46 z m -57.36,-10.71 v -1.891 h -6.46 -6.46 v 1.891 1.891 h 6.46 6.46 z m 19.07,0 v -1.891 h -6.46 -6.46 v 1.891 1.891 h 6.46 6.46 z m 19.22,0 v -1.891 h -6.46 -6.46 v 1.891 1.891 h 6.46 6.46 z m 19.07,0 v -1.891 h -6.46 -6.46 v 1.891 1.891 h 6.46 6.46 z m -3.47,-14.496 v -1.89 h -22.37 -22.38 v 1.89 1.891 h 22.38 22.37 z m 0,-9.138 v -1.891 h -22.37 -22.38 v 1.891 1.891 h 22.38 22.37 z"
                 id="path28392" />
            <path
                 style="fill:#7b7b7b;stroke-width:0.157562"
                 d="m 298.29,135.19 c 0.22,-0.19 3.26,-2.83 6.74,-5.86 l 6.34,-5.52 h -23.73 -23.72 v -19.38 -19.378 h 11.18 11.19 v -8.981 -8.981 h -1.58 -1.57 v -2.679 -2.678 h 31.35 31.36 v 2.678 2.679 h -1.58 -1.57 v 8.981 8.981 h 1.89 1.89 v 19.378 19.38 h -7.64 -7.64 l 6.24,5.44 c 3.43,2.99 6.47,5.63 6.74,5.86 l 0.49,0.43 h -23.4 -23.4 z m 32.75,-15.32 v -3.7 h 1.89 1.89 v -1.26 -1.26 h -13.87 -13.86 v 1.26 1.26 h 2.28 2.29 v 3.7 3.7 h 9.69 9.69 z m -48.22,-15.68 v -1.89 h -6.46 -6.46 v 1.89 1.9 h 6.46 6.46 z m 19.07,0 v -1.89 h -6.46 -6.46 v 1.89 1.9 h 6.46 6.46 z m 19.22,0 v -1.89 h -6.46 -6.46 v 1.89 1.9 h 6.46 6.46 z m 19.07,0 v -1.89 h -6.46 -6.46 v 1.89 1.9 h 6.46 6.46 z m -57.36,-10.71 v -1.891 h -6.46 -6.46 v 1.891 1.891 h 6.46 6.46 z m 19.07,0 v -1.891 h -6.46 -6.46 v 1.891 1.891 h 6.46 6.46 z m 19.22,0 v -1.891 h -6.46 -6.46 v 1.891 1.891 h 6.46 6.46 z m 19.07,0 v -1.891 h -6.46 -6.46 v 1.891 1.891 h 6.46 6.46 z m -3.47,-14.496 v -1.89 h -22.37 -22.38 v 1.89 1.891 h 22.38 22.37 z m 0,-9.138 v -1.891 h -22.37 -22.38 v 1.891 1.891 h 22.38 22.37 z"
                 id="path28390" />
            <path
                 style="fill:#404040;stroke-width:0.157562"
                 d="m 298.12,135.43 c 0,-0.1 2.99,-2.7 6.64,-5.87 l 6.64,-5.75 -23.7,-0.1 -23.71,-0.1 v -19.34 -19.338 h 11.19 11.19 v -8.981 -8.981 h -1.58 -1.57 v -2.679 -2.678 h 31.35 31.36 v 2.678 2.679 h -1.58 -1.57 v 8.981 8.981 h 1.89 1.89 v 19.338 19.34 l -7.62,0.1 -7.62,0.1 6.41,5.58 c 3.52,3.06 6.56,5.7 6.75,5.86 0.34,0.28 -0.34,0.29 -22.93,0.29 -12.81,0 -23.28,0 -23.27,-0.11 z m 32.92,-15.48 v -3.78 h 1.89 1.89 v -1.26 -1.26 h -13.87 -13.86 v 1.26 1.26 h 2.2 2.21 v 3.68 c 0,2.02 0.1,3.72 0.11,3.78 0.1,0.1 4.45,0.1 9.76,0.1 h 9.67 z m -48.22,-15.76 v -1.89 h -6.46 -6.46 v 1.89 1.9 h 6.46 6.46 z m 19.23,0 v -1.89 h -6.54 -6.54 v 1.89 1.9 h 6.54 6.54 z m 19.06,0 v -1.89 h -6.54 -6.54 v 1.89 1.9 h 6.54 6.54 z m 19.07,0 v -1.89 h -6.46 -6.46 v 1.89 1.9 h 6.46 6.46 z m -57.36,-10.71 v -1.891 h -6.46 -6.46 v 1.891 1.891 h 6.46 6.46 z m 19.23,0 v -1.891 h -6.54 -6.54 v 1.891 1.891 h 6.54 6.54 z m 19.06,0 v -1.891 h -6.54 -6.54 v 1.891 1.891 h 6.54 6.54 z m 19.07,0 v -1.891 h -6.46 -6.46 v 1.891 1.891 h 6.46 6.46 z m -3.47,-14.496 v -1.89 h -22.37 -22.38 v 1.89 1.891 h 22.38 22.37 z m 0,-9.138 v -1.891 h -22.37 -22.38 v 1.891 1.891 h 22.38 22.37 z"
                 id="path28388" />
            <path
                 style="fill:#2d2d2d;stroke-width:0.157562"
                 d="m 298.26,135.32 c 0,0 2.95,-2.63 6.54,-5.76 3.6,-3.13 6.54,-5.76 6.54,-5.84 0,-0.1 -9.12,-0.15 -23.63,-0.15 h -23.64 v -19.3 -19.298 h 11.11 11.11 v -8.981 -8.981 h -1.58 -1.57 v -2.679 -2.678 h 31.35 31.36 v 2.678 2.679 h -1.58 -1.57 v 8.981 8.981 h 1.81 1.81 v 19.298 19.3 h -7.56 c -4.22,0 -7.56,0.1 -7.56,0.14 0,0.1 1.82,1.73 4.05,3.67 2.23,1.93 5.21,4.53 6.63,5.77 l 2.57,2.24 h -23.09 c -12.7,0 -23.1,0 -23.1,-0.1 z m 32.78,-15.37 v -3.78 h 1.89 1.89 v -1.26 -1.26 h -13.87 -13.86 v 1.26 1.26 h 2.2 2.21 v 3.78 3.78 h 9.77 9.77 z m -48.22,-15.76 v -1.89 h -6.46 -6.46 v 1.89 1.9 h 6.46 6.46 z m 19.23,0 v -1.89 h -6.54 -6.54 v 1.89 1.9 h 6.54 6.54 z m 19.06,0 v -1.89 h -6.54 -6.54 v 1.89 1.9 h 6.54 6.54 z m 19.07,0 v -1.89 h -6.46 -6.46 v 1.89 1.9 h 6.46 6.46 z m -57.36,-10.71 v -1.891 h -6.46 -6.46 v 1.891 1.891 h 6.46 6.46 z m 19.23,0 v -1.891 h -6.54 -6.54 v 1.891 1.891 h 6.54 6.54 z m 19.06,0 v -1.891 h -6.54 -6.54 v 1.891 1.891 h 6.54 6.54 z m 19.07,0 v -1.891 h -6.46 -6.46 v 1.891 1.891 h 6.46 6.46 z m -3.47,-14.496 v -1.89 h -22.37 -22.38 v 1.89 1.891 h 22.38 22.37 z m 0,-9.138 v -1.891 h -22.37 -22.38 v 1.891 1.891 h 22.38 22.37 z"
                 id="path28386" />
            <path
                 style="fill:#000000;stroke-width:0.157562"
                 d="m 298.51,135.09 c 0.17,-0.16 3.17,-2.79 6.67,-5.83 l 6.36,-5.53 h 9.74 9.74 l 6.2,5.38 c 3.4,2.96 6.4,5.58 6.66,5.83 l 0.47,0.45 h -23.08 c -22.72,0 -23.07,0 -22.76,-0.3 z m -34.44,-30.82 v -19.298 h 11.11 11.11 v -8.981 -8.981 h -1.58 -1.57 v -2.679 -2.678 h 31.35 31.36 v 2.678 2.679 h -1.58 -1.57 v 8.981 8.981 h 1.81 1.81 v 19.298 19.3 h -7.64 -7.64 v -3.7 -3.7 h 1.89 1.89 v -1.26 -1.26 h -13.87 -13.86 v 1.26 1.26 h 2.2 2.21 v 3.7 3.7 h -23.71 -23.72 z m 18.75,-0.1 v -1.89 h -6.46 -6.46 v 1.89 1.9 h 6.46 6.46 z m 19.23,0 v -1.89 h -6.54 -6.54 v 1.89 1.9 h 6.54 6.54 z m 19.06,0 v -1.89 h -6.54 -6.54 v 1.89 1.9 h 6.54 6.54 z m 19.07,0 v -1.89 h -6.46 -6.46 v 1.89 1.9 h 6.46 6.46 z m -57.36,-10.71 v -1.891 h -6.46 -6.46 v 1.891 1.891 h 6.46 6.46 z m 19.23,0 v -1.891 h -6.54 -6.54 v 1.891 1.891 h 6.54 6.54 z m 19.06,0 v -1.891 h -6.54 -6.54 v 1.891 1.891 h 6.54 6.54 z m 19.07,0 v -1.891 h -6.46 -6.46 v 1.891 1.891 h 6.46 6.46 z m -3.47,-14.496 v -1.89 h -22.37 -22.38 v 1.89 1.891 h 22.38 22.37 z m 0,-9.138 v -1.891 h -22.37 -22.38 v 1.891 1.891 h 22.38 22.37 z"
                 id="path28384" />
        </g>
        <g
             id="g29507">
            <path
                 style="fill:#9f9d9b;stroke-width:0.30965"
                 d="m 526.71,146.79 c -0.12,-0.11 -0.21,-9.99 -0.21,-21.94 0,-11.96 -0.1,-22.18 -0.19,-22.71 -0.11,-0.53 -0.39,-0.97 -0.62,-0.97 -0.36,0 -0.43,-1.66 -0.43,-9.6 0,-7.77 0.1,-9.6 0.41,-9.6 0.61,0 1.14,-2.74 1.14,-5.89 v -2.74 l 1.82,-2.11 c 2.94,-3.41 5.28,-6.85 6.89,-10.13 1.66,-3.38 1.72,-3.65 1.04,-4.22 -0.27,-0.22 -0.4,-0.63 -0.29,-0.96 0.1,-0.32 0,-0.58 -0.15,-0.58 -0.18,0 -0.33,-0.21 -0.33,-0.46 0,-0.26 0.27,-0.47 0.62,-0.47 0.53,0 0.62,-0.2 0.62,-1.39 0,-1.03 0.12,-1.39 0.46,-1.39 0.35,0 0.47,0.36 0.47,1.39 0,1.19 0.1,1.39 0.62,1.39 0.34,0 0.62,0.21 0.62,0.47 0,0.25 -0.15,0.46 -0.33,0.46 -0.19,0 -0.25,0.26 -0.15,0.59 0.11,0.33 0,0.79 -0.28,1.06 -0.42,0.41 -0.42,0.62 -0.1,1.68 1.14,3.22 4.25,8.12 7.78,12.26 l 2.01,2.35 v 2.59 c 0,2.77 0.53,6.1 0.97,6.1 0.14,0 0.26,4.27 0.26,9.49 0,8.68 0,9.52 -0.54,9.88 -0.5,0.37 -0.55,1.9 -0.64,23.03 l -0.1,22.63 h -10.61 c -5.84,0 -10.71,-0.1 -10.82,-0.21 z m 12.64,-46.89 c 1.71,-0.43 3.78,-2.18 4.52,-3.82 0.75,-1.63 0.75,-4.29 0,-5.92 -1.19,-2.64 -4.5,-4.45 -7.28,-3.99 -5.4,0.9 -7.85,6.85 -4.61,11.21 0.88,1.19 1.82,1.85 3.42,2.42 1.44,0.51 2.22,0.53 3.95,0.1 z m -3.17,-1.2 c -2.3,-0.55 -4.39,-3.16 -4.41,-5.51 0,-3.62 3.5,-6.42 7.07,-5.62 4.19,0.93 5.83,6.26 2.89,9.37 -1.48,1.57 -3.57,2.23 -5.55,1.76 z m 3.43,-0.74 c 2.22,-0.93 3.68,-3.9 3.01,-6.13 -0.4,-1.33 -1.79,-3.13 -2.22,-2.87 -0.23,0.14 -0.88,1.25 -2.05,3.54 -0.1,0.1 0.71,0.16 1.7,0.16 1.25,0 1.78,0.11 1.78,0.4 0,0.29 -0.68,0.42 -2.43,0.47 -1.33,0 -2.48,0 -2.55,-0.13 -0.1,-0.12 0.52,-1.29 1.31,-2.6 1.66,-2.76 1.56,-3.04 -1.03,-2.86 -2.92,0.21 -4.75,2.24 -4.75,5.27 0,3.71 3.78,6.19 7.23,4.75 z"
                 id="path1335" />
            <path
                 style="fill:#c38230;stroke-width:0.30965"
                 d="m 526.81,126.48 c 0,-11.11 -0.1,-21.35 -0.2,-22.76 -0.17,-2.2 -0.28,-2.55 -0.78,-2.55 -0.54,0 -0.57,-0.46 -0.57,-9.44 0,-7.87 0.1,-9.45 0.43,-9.45 0.61,0 1.43,-3.86 1.43,-6.72 v -2.3 l 2.19,-2.66 c 3.43,-4.16 6.18,-8.46 7.26,-11.32 0.47,-1.25 0.49,-1.6 0.15,-2.23 -0.21,-0.4 -0.31,-0.96 -0.21,-1.22 0.12,-0.31 0,-0.49 -0.26,-0.49 -0.73,0 -0.53,-0.56 0.24,-0.67 0.59,-0.1 0.69,-0.29 0.69,-1.42 0,-0.85 0.14,-1.31 0.39,-1.31 0.25,0 0.39,0.48 0.39,1.39 0,1.19 0.1,1.39 0.62,1.39 0.34,0 0.62,0.14 0.62,0.31 0,0.17 -0.19,0.31 -0.43,0.31 -0.27,0 -0.37,0.25 -0.28,0.74 0.1,0.41 0,0.83 -0.2,0.95 -0.57,0.36 -0.38,1.2 0.93,3.89 1.41,2.93 3.77,6.43 6.68,9.95 l 1.97,2.37 v 2.27 c 0,2.49 0.65,6.01 1.19,6.55 0.23,0.24 0.34,3.3 0.34,9.73 0,7.69 -0.1,9.38 -0.42,9.38 -0.72,0 -0.82,2.96 -0.82,24.66 v 20.86 h -10.68 -10.68 v -20.21 z m 13.98,-27.1 c 5.2,-2.7 5.19,-9.89 0,-12.53 -4.84,-2.45 -10.31,0.89 -10.28,6.29 0,5.42 5.49,8.73 10.3,6.24 z m -3.65,-6.01 c -0.18,-0.3 2.66,-5.51 3.01,-5.51 0.48,0 0.32,0.53 -0.8,2.57 -0.6,1.08 -1.08,2.06 -1.08,2.17 0,0.12 0.83,0.21 1.85,0.21 1.03,0 1.86,0.13 1.86,0.28 0,0.34 -4.64,0.6 -4.84,0.28 z"
                 id="path1333" />
            <path
                 style="fill:#be8130;stroke-width:0.30965"
                 d="m 526.88,126.02 c 0,-11.37 0.11,-18.68 0.16,-16.23 0.1,3.7 0.17,4.41 0.55,4.33 0.37,-0.1 0.48,-0.91 0.56,-4.28 0.1,-2.3 0,-3.94 0,-3.64 -0.17,0.75 -0.67,0.69 -0.62,-0.1 0,-0.36 0.27,-0.63 0.57,-0.63 0.28,0 0.67,-0.38 0.87,-0.86 0.46,-1.11 1.34,-1.11 2.08,0 0.32,0.47 0.79,0.86 1.05,0.87 0.33,0 0.36,0.1 0.1,0.25 -0.6,0.38 -0.15,8.41 0.47,8.41 0.32,0 0.36,-0.11 0.14,-0.38 -0.17,-0.21 -0.37,-1.7 -0.45,-3.3 -0.1,-1.6 0,-2.64 0.1,-2.32 0.12,0.32 0.24,1.69 0.25,3.04 0,3.74 0.26,2.68 0.38,-1.76 0.1,-2.17 0.22,-3.95 0.36,-3.95 0.14,0 0.18,-0.11 0.1,-0.25 -0.1,-0.14 0.11,-0.44 0.43,-0.67 0.32,-0.24 0.53,-0.52 0.45,-0.64 -0.1,-0.13 0.11,-0.2 0.41,-0.18 0.3,0 0.85,0.45 1.23,0.95 0.65,0.85 0.7,1.23 0.7,5.19 0,4 0,4.27 0.59,4.27 0.54,0 0.6,-0.34 0.77,-4.25 0.23,-5.28 0.28,-5.85 0.59,-6.16 0.14,-0.14 0.16,0 0,0.29 -0.15,0.4 -0.1,0.49 0.3,0.34 0.27,-0.1 0.42,-0.31 0.32,-0.46 -0.23,-0.39 0.84,0 1.46,0.56 0.41,0.35 0.54,0.36 0.66,0 0.1,-0.23 0.14,0 0.14,0.52 0,0.51 0,2.79 0,5.05 0,3.75 0.1,4.12 0.58,4.03 0.48,-0.1 0.58,-0.66 0.77,-4.44 0.24,-4.79 0.3,-5.38 0.54,-5.35 0.56,0 0.96,-0.1 0.83,-0.3 -0.19,-0.31 1.54,-0.29 1.86,0 0.13,0.13 0,0.14 -0.34,0 -0.58,-0.22 -0.58,-0.21 0,0.58 0.33,0.45 0.8,0.87 1.06,0.95 0.41,0.12 0.41,0.14 0,0.17 -0.4,0 -0.45,0.68 -0.37,4.22 l 0.1,4.18 h 0.76 c 0.73,0 0.76,0.1 0.76,2.02 v 2.03 l -10.52,-0.1 -10.52,-0.1 v 5.96 c 0,5.45 0,5.96 0.53,5.96 0.49,0 0.54,-0.42 0.54,-4.1 0,-3.94 0.4,-6.12 1.11,-6.12 0.15,0 0.19,-0.24 0.1,-0.54 -0.14,-0.47 -0.1,-0.46 0.32,0.1 0.27,0.33 0.58,0.51 0.69,0.4 0.11,-0.11 0.49,0.18 0.85,0.63 0.59,0.76 0.66,1.28 0.72,5.18 0,2.54 0.18,4.37 0.37,4.44 0.39,0.13 0.58,-1.15 0.77,-5.28 0.14,-2.96 -0.1,-4.1 -0.53,-2.94 -0.1,0.24 -0.17,0.2 -0.18,-0.12 0,-0.28 0.18,-0.68 0.44,-0.89 0.37,-0.31 0.46,-0.3 0.48,0 0,0.23 0.14,0.13 0.28,-0.23 0.38,-0.93 1.41,-1.1 2.32,-0.38 0.43,0.33 0.76,0.7 0.74,0.82 0,0.12 0,2.2 0,4.63 0,4.09 0.1,4.41 0.62,4.41 0.54,0 0.59,-0.35 0.72,-4.41 0.1,-2.48 0.29,-4.7 0.49,-5.07 0.39,-0.72 1.82,-1.16 2.13,-0.66 0.11,0.17 0.31,0.13 0.48,-0.12 0.24,-0.33 0.27,-0.31 0.14,0.1 -0.1,0.28 -0.1,0.6 0,0.72 0.29,0.29 0.28,0.22 0.32,5.11 0,4.12 0.1,4.34 0.66,4.34 0.59,0 0.62,-0.21 0.63,-3.64 0,-5.07 0.42,-6.62 1.73,-6.6 1.35,0 1.61,0.13 1.43,0.59 -0.1,0.26 0,0.38 0.13,0.27 0.17,-0.1 0.31,0 0.31,0.34 0,0.28 0,2.43 0,4.76 0.1,4.14 0.1,4.24 0.75,4.34 0.55,0.1 0.72,0.33 0.8,1.17 0.12,1.25 -0.3,4.13 -0.48,3.34 -0.12,-0.51 -0.85,-0.55 -9.88,-0.55 h -9.75 l 0.1,1.01 c 0.1,0.95 0.16,1.01 1.33,1 1.01,0 1.35,0.16 1.82,0.87 0.49,0.72 0.58,1.52 0.62,5.18 0,3.78 0.11,4.33 0.55,4.33 0.44,0 0.52,-0.58 0.65,-4.26 0.17,-4.97 0.51,-6.22 1.66,-6.09 0.42,0 0.95,0.23 1.17,0.41 0.22,0.19 0.47,0.27 0.55,0.19 0.1,-0.1 0.15,0.1 0.15,0.38 0,0.3 0,2.53 0.1,4.96 0.1,4.24 0.1,4.41 0.69,4.41 0.63,0 0.65,-0.12 0.55,-3.87 -0.1,-2.13 0,-3.87 0.13,-3.87 0.12,0 0.23,-0.34 0.23,-0.76 0,-0.41 0.15,-0.85 0.33,-0.96 0.18,-0.11 0.26,-0.37 0.18,-0.59 -0.15,-0.38 0.9,-0.35 1.97,0.1 0.25,0.1 0.55,0.17 0.65,0.14 0.1,0 0.22,2.16 0.25,4.82 0,2.68 0.12,4.92 0.2,5 0.1,0.1 0.13,-1.37 0.13,-3.22 0,-1.85 0.1,-3.26 0.22,-3.14 0.12,0.12 0.18,1.47 0.13,2.99 0,1.75 0,2.78 0.23,2.78 0.19,0 0.35,-1.49 0.41,-3.87 0,-2.13 0,-3.87 -0.15,-3.87 -0.13,0 0,-0.3 0.39,-0.68 0.35,-0.37 0.63,-0.82 0.63,-0.99 0,-0.17 -0.28,0 -0.63,0.37 -0.35,0.38 -0.78,0.68 -0.97,0.68 -0.19,0 0,-0.29 0.48,-0.65 0.56,-0.44 1.35,-0.67 2.45,-0.72 0.89,0 1.37,0 1.07,0 -0.3,0.1 -0.47,0.26 -0.37,0.42 0.1,0.16 0.28,0.23 0.4,0.15 0.13,-0.1 0.23,0.17 0.23,0.54 0.1,9.01 0.12,9.19 0.67,9.17 0.3,0 0.4,-0.1 0.23,-0.16 -0.33,-0.14 0,-9.93 0.29,-10.27 0.1,-0.1 0.15,2.28 0.1,5.29 l -0.1,5.47 h -10.45 -10.45 l 0.1,-20.67 z m 1.14,18.02 c 0.1,-2.81 0.49,-6.57 0.82,-7.39 0.16,-0.39 0.13,-0.52 -0.1,-0.39 -0.44,0.28 -1,-0.46 -1.08,-1.45 0,-0.45 -0.17,-0.82 -0.29,-0.82 -0.12,0 -0.23,2.79 -0.25,6.2 0,5.06 0,6.19 0.4,6.19 0.32,0 0.44,-0.59 0.49,-2.34 z m -0.44,-3.85 c -0.1,-0.17 0,-0.31 0.14,-0.31 0.18,0 0.33,0.14 0.33,0.31 0,0.17 -0.1,0.31 -0.14,0.31 -0.1,0 -0.22,-0.14 -0.33,-0.31 z m -0.15,-2.77 c 0,-0.5 0.14,-1 0.32,-1.11 0.21,-0.13 0.26,0.1 0.13,0.68 -0.15,0.67 -0.11,0.77 0.14,0.41 0.37,-0.52 0.44,-0.31 0.15,0.44 -0.31,0.8 -0.74,0.56 -0.74,-0.42 z m 9.89,5.71 c -0.1,-1.7 -0.12,-3.16 -0.1,-3.23 0.32,-0.43 0.42,0.58 0.34,3.26 l -0.1,3.06 z m -4.82,-0.31 c 0,-1.71 0,-2.36 0.11,-1.46 0.1,0.9 0.1,2.29 0,3.09 -0.1,0.81 -0.11,0.1 -0.11,-1.63 z m 4.55,-4.05 c 0,-0.36 0.1,-0.44 0.19,-0.19 0.1,0.22 0.1,0.49 0,0.59 -0.11,0.1 -0.17,-0.1 -0.16,-0.4 z m -4.98,-0.1 c 0,-0.15 0.23,-0.36 0.51,-0.47 0.43,-0.16 0.45,-0.12 0.12,0.28 -0.45,0.53 -0.63,0.59 -0.63,0.19 z m 5.49,-1.55 c -0.13,-0.52 -0.1,-0.64 0.14,-0.41 0.18,0.18 0.27,0.51 0.19,0.73 -0.1,0.23 -0.22,0.1 -0.33,-0.32 z m 4.65,-7.84 c -0.1,-0.22 -0.15,-1.86 -0.15,-3.65 v -3.25 l 0.22,3.56 c 0.22,3.59 0.21,4.07 -0.1,3.34 z m 5.23,-0.59 c -0.26,-1.3 -0.2,-6.86 0.1,-8.79 0.16,-1 0.23,0.44 0.21,4.11 0,3.1 -0.1,5.65 -0.1,5.65 0,0 -0.12,-0.44 -0.23,-0.97 z m -10.17,-1.91 c 0.15,-3.35 0.29,-3.77 0.33,-0.99 0,1.36 -0.1,2.64 -0.2,2.85 -0.13,0.2 -0.19,-0.64 -0.13,-1.86 z m -4.78,-0.84 c 0,-1.45 0,-2.04 0.12,-1.31 0.1,0.72 0.1,1.9 0,2.63 -0.1,0.72 -0.12,0.13 -0.12,-1.32 z m -4.83,-3.09 c -0.34,-1.18 -0.3,-1.74 0.1,-1.34 0.19,0.18 0.29,0.73 0.23,1.22 l -0.1,0.89 z m 9.6,0.13 c -0.13,-0.13 -0.23,-0.73 -0.23,-1.33 0,-0.78 0.1,-1 0.33,-0.76 0.18,0.18 0.29,0.78 0.23,1.33 -0.1,0.55 -0.2,0.89 -0.33,0.76 z m 4.64,-1.36 c -0.1,-0.33 0,-0.77 0.27,-0.97 0.36,-0.29 0.43,-0.18 0.43,0.61 0,1.07 -0.46,1.31 -0.7,0.36 z m -4.34,-1.3 c -0.3,-0.16 -0.46,-0.43 -0.36,-0.59 0.1,-0.17 0.39,-0.1 0.66,0.19 0.6,0.59 0.43,0.82 -0.3,0.4 z m -9.82,-0.66 c 0,-0.22 0.27,-0.4 0.6,-0.4 0.46,0 0.52,0.1 0.27,0.4 -0.18,0.22 -0.45,0.4 -0.6,0.4 -0.15,0 -0.27,-0.18 -0.27,-0.4 z m 15.64,-0.22 c 0.1,-0.17 0.25,-0.31 0.33,-0.31 0.1,0 0.13,0.14 0.13,0.31 0,0.17 -0.15,0.31 -0.33,0.31 -0.18,0 -0.24,-0.14 -0.13,-0.31 z m -4.08,-0.5 c 0,-0.48 0.39,-0.58 0.65,-0.15 0.1,0.15 0,0.35 -0.24,0.43 -0.23,0.1 -0.41,0 -0.41,-0.28 z m -3.04,-0.12 c -0.11,-0.17 0,-0.22 0.29,-0.12 0.53,0.21 0.63,0.43 0.19,0.43 -0.16,0 -0.38,-0.14 -0.48,-0.31 z m -3.01,-0.21 c 0.23,-0.1 0.5,-0.1 0.6,0 0.1,0.1 -0.1,0.17 -0.41,0.16 -0.36,0 -0.43,-0.1 -0.19,-0.19 z m 3.88,-8.62 c 0,-2.76 0,-3.86 0.31,-3.87 0.21,0 0.16,-0.13 -0.1,-0.31 -0.4,-0.25 -0.39,-0.3 0.1,-0.3 0.33,0 0.54,0.23 0.54,0.62 0,0.33 -0.11,0.61 -0.24,0.61 -0.12,0 -0.18,1.61 -0.12,3.57 0,1.95 0,3.56 -0.16,3.55 -0.14,0 -0.28,-1.74 -0.31,-3.87 z m 4.94,2.48 c 0,-0.85 0.1,-1.16 0.13,-0.69 0.1,0.47 0.1,1.17 0,1.55 -0.1,0.38 -0.13,0 -0.12,-0.86 z m 5.18,-2.62 c 0.1,-2.19 0.26,-4.1 0.4,-4.24 0.29,-0.28 -0.1,7.68 -0.36,8.01 -0.11,0.12 -0.13,-1.58 0,-3.77 z m -19.77,-1.87 c 0,-0.42 0.1,-0.6 0.15,-0.38 0.1,0.21 0.1,0.55 0,0.77 -0.1,0.21 -0.15,0 -0.15,-0.39 z m 14.59,0 c 0,-0.33 0.1,-0.6 0.24,-0.6 0.35,0 0.39,0.84 0.1,1.05 -0.14,0.1 -0.27,-0.12 -0.29,-0.45 z m -9.95,-1.22 c 0,-0.42 0.1,-0.6 0.16,-0.38 0.1,0.21 0.1,0.56 0,0.77 -0.1,0.22 -0.16,0 -0.16,-0.39 z m 9.86,-0.27 c 0,-0.15 0.23,-0.37 0.51,-0.47 0.43,-0.17 0.45,-0.12 0.12,0.27 -0.45,0.54 -0.63,0.59 -0.63,0.2 z m -15.11,-2.05 c 0,-0.51 0.1,-0.68 0.15,-0.38 0.1,0.3 0.1,0.72 0,0.93 -0.1,0.21 -0.15,0 -0.14,-0.55 z m 19.91,0.47 c 0.11,-0.17 0.26,-0.31 0.33,-0.31 0.1,0 0.14,0.14 0.14,0.31 0,0.17 -0.15,0.31 -0.33,0.31 -0.18,0 -0.24,-0.14 -0.14,-0.31 z m 1.04,-1.24 c 0.1,-0.85 0.2,-1.55 0.31,-1.55 0.11,0 0.15,0.7 0.1,1.55 -0.1,0.85 -0.2,1.55 -0.31,1.55 -0.11,0 -0.15,-0.7 -0.1,-1.55 z m -11.39,0.8 c -0.28,-0.34 -0.27,-0.49 0,-0.67 0.22,-0.13 0.3,-0.12 0.18,0 -0.13,0.14 -0.1,0.44 0.11,0.67 0.19,0.23 0.28,0.41 0.19,0.41 -0.1,0 -0.32,-0.19 -0.52,-0.43 z m -8.49,-0.32 c -0.11,-0.3 0,-0.39 0.28,-0.28 0.24,0.1 0.37,0.3 0.27,0.45 -0.23,0.38 -0.35,0.35 -0.55,-0.17 z m 3.26,0 c -0.25,-0.31 -0.15,-0.41 0.42,-0.46 0.55,-0.1 0.76,0.1 0.74,0.47 0,0.33 -0.1,0.39 -0.18,0.15 -0.1,-0.21 -0.3,-0.38 -0.46,-0.38 -0.17,0 -0.22,0.14 -0.11,0.31 0.27,0.44 0,0.38 -0.41,-0.1 z m 15.76,-0.4 c 0,-0.36 0.1,-0.44 0.19,-0.19 0.1,0.22 0.1,0.49 0,0.59 -0.11,0.11 -0.18,-0.1 -0.16,-0.4 z m 0.34,-1.37 c 0,-0.43 0.1,-0.6 0.15,-0.39 0.1,0.22 0.1,0.56 0,0.78 -0.1,0.21 -0.15,0 -0.15,-0.39 z m -20.75,-0.39 c 0,-0.53 -0.23,-0.85 -0.51,-0.85 -0.69,0 -0.71,-18.73 0,-18.99 0.25,-0.1 0.51,-0.49 0.58,-0.89 l 0.14,-0.71 v 0.7 c 0,0.62 0.21,0.69 1.59,0.69 h 1.55 v -1.52 c 0,-1.44 0.53,-2.5 1.24,-2.5 0.64,0 1.24,1.07 1.27,2.26 0,1.23 0.1,1.25 0.28,0.37 l 0.23,-0.93 v 0.98 c 0,0.54 -0.14,1.05 -0.35,1.14 -0.23,0.1 -0.17,0.16 0.15,0.18 0.46,0 0.55,-0.25 0.55,-1.64 0,-1.88 0.59,-2.73 1.49,-2.16 0.36,0.23 0.55,0.85 0.61,2.07 0.1,1.23 0.22,1.75 0.52,1.75 0.28,0 0.47,-0.57 0.58,-1.78 0.26,-2.62 0.21,-2.53 1.05,-2.21 1.07,0.4 1.25,0.33 0.55,-0.23 -0.61,-0.48 -0.61,-0.48 0.1,-0.28 0.42,0.13 0.7,0.1 0.7,-0.12 0,-0.18 0.15,-0.33 0.33,-0.33 0.18,0 0.24,0.14 0.13,0.31 -0.1,0.17 0,0.31 0.31,0.31 0.28,0 0.42,-0.14 0.32,-0.31 -0.12,-0.18 0,-0.22 0.32,-0.11 0.46,0.18 0.47,0.23 0,0.47 -0.27,0.15 -0.64,0.52 -0.83,0.81 -0.32,0.5 -0.33,0.5 -0.18,0 0.1,-0.29 0.1,-0.61 -0.1,-0.7 -0.39,-0.23 -0.54,0.71 -0.4,2.56 0.17,2.19 0.81,1.96 0.93,-0.32 0.1,-1.63 0.15,-1.75 1.06,-2.07 0.53,-0.18 1.03,-0.26 1.12,-0.18 0.1,0.1 0,0.16 -0.22,0.16 -0.27,0 -0.28,0.16 -0.1,0.59 0.18,0.34 0.32,1.24 0.32,2.02 0,0.78 0.13,1.41 0.28,1.41 0.16,0 0.26,-0.63 0.23,-1.39 0,-0.77 0.1,-1.39 0.19,-1.39 0.13,0 0.23,-0.2 0.23,-0.45 0,-0.61 1.17,-0.93 1.72,-0.47 0.29,0.24 0.45,0.96 0.45,2.04 v 1.67 l 1.56,-0.1 c 1.08,0 1.46,-0.16 1.24,-0.38 -0.18,-0.17 -0.32,-0.47 -0.32,-0.65 0,-0.18 0.14,-0.11 0.31,0.14 0.26,0.42 0.29,0.42 0.27,0 0,-0.25 -0.13,-0.81 -0.26,-1.23 l -0.24,-0.78 -0.33,0.78 c -0.32,0.73 -0.33,0.73 -0.35,0.1 0,-0.37 0.1,-0.75 0.24,-0.84 0.15,-0.1 0.28,-1.4 0.29,-2.91 v -2.75 h -9.56 c -7,0 -9.61,0 -9.78,0.31 -0.12,0.19 -0.1,0.28 0.1,0.18 0.16,-0.1 0.22,0.45 0.13,1.27 l -0.15,1.44 -0.1,-1.31 c 0,-0.73 -0.23,-1.32 -0.39,-1.32 -0.39,0 -0.37,3.29 0,4.02 0.22,0.42 0.19,0.61 -0.16,0.74 -0.38,0.15 -0.45,-0.28 -0.45,-2.62 v -2.8 l 2.19,-2.66 c 3.43,-4.16 6.18,-8.46 7.25,-11.32 0.47,-1.25 0.5,-1.6 0.16,-2.22 -0.22,-0.41 -0.31,-0.97 -0.21,-1.23 0.12,-0.31 0,-0.49 -0.27,-0.49 -0.73,0 -0.52,-0.56 0.24,-0.67 0.6,-0.1 0.7,-0.29 0.7,-1.42 0,-0.84 0.14,-1.31 0.39,-1.31 0.25,0 0.38,0.48 0.38,1.39 0,1.19 0.1,1.39 0.62,1.39 0.34,0 0.62,0.14 0.62,0.31 0,0.17 -0.19,0.31 -0.42,0.31 -0.28,0 -0.37,0.26 -0.28,0.74 0.1,0.41 0,0.83 -0.2,0.95 -0.58,0.36 -0.38,1.2 0.92,3.89 1.41,2.9 3.76,6.41 6.65,9.91 l 1.92,2.32 0.21,3.56 c 0.29,4.8 0.33,4.99 0.83,5.38 0.36,0.29 0.42,1.91 0.35,9.63 0,5.1 -0.21,9.35 -0.36,9.44 -0.15,0.1 -4.57,0.17 -9.82,0.17 -5.25,0 -9.63,0.1 -9.72,0.21 -0.1,0.12 -0.67,0.1 -1.29,0 -1.07,-0.24 -1.14,-0.21 -1.27,0.56 l -0.12,0.81 -0.1,-0.85 z m 14.24,-2.64 c 5.2,-2.7 5.19,-9.89 0,-12.53 -4.84,-2.45 -10.31,0.89 -10.28,6.29 0,5.42 5.49,8.73 10.3,6.24 z m -3.65,-6.01 c -0.18,-0.3 2.66,-5.51 3.01,-5.51 0.48,0 0.32,0.53 -0.8,2.57 -0.6,1.08 -1.08,2.06 -1.08,2.17 0,0.12 0.83,0.21 1.85,0.21 1.03,0 1.86,0.13 1.86,0.28 0,0.34 -4.64,0.6 -4.84,0.28 z m -10.33,-13.56 c 0,-0.35 0.13,-0.62 0.28,-0.62 0.15,0 0.21,0.27 0.12,0.62 -0.1,0.34 -0.22,0.61 -0.28,0.61 -0.1,0 -0.12,-0.27 -0.12,-0.61 z m 2.36,-0.88 c -0.17,-0.26 0.87,-1.3 1.28,-1.28 0.13,0 -0.1,0.27 -0.45,0.58 -0.38,0.31 -0.6,0.66 -0.49,0.76 0.1,0.11 0.11,0.2 0,0.2 -0.11,0 -0.26,-0.12 -0.35,-0.26 z m 6.62,-0.21 c 0,-0.27 -0.45,-0.69 -1.01,-0.93 -0.55,-0.24 -0.84,-0.44 -0.63,-0.45 1.13,0 2.63,1.27 1.94,1.7 -0.17,0.1 -0.3,0 -0.3,-0.32 z m 10.89,-0.46 c 0,-0.43 0.1,-0.6 0.15,-0.39 0.1,0.21 0.1,0.56 0,0.77 -0.1,0.22 -0.15,0 -0.15,-0.38 z m -18.29,0.15 c 0,-0.58 0.54,-1.57 0.56,-1.08 0,0.25 -0.12,0.67 -0.28,0.93 -0.17,0.25 -0.29,0.32 -0.28,0.15 z m 4.37,-0.28 c 0.22,-0.24 0.45,-0.38 0.51,-0.33 0.18,0.18 -0.29,0.77 -0.61,0.77 -0.17,0 -0.12,-0.2 0.1,-0.44 z m -1.55,-0.45 c -0.32,-0.2 -0.31,-0.33 0.1,-0.64 0.38,-0.31 0.45,-0.27 0.41,0.26 0,0.36 0,0.64 -0.1,0.64 0,0 -0.19,-0.12 -0.41,-0.26 z m 0.86,0.15 c 0,-0.1 0.25,-0.31 0.55,-0.54 0.49,-0.39 0.5,-0.38 0.11,0.12 -0.4,0.51 -0.66,0.68 -0.66,0.42 z m 4.2,-0.98 c -0.33,-0.25 -0.44,-0.45 -0.25,-0.45 0.19,0 0.44,0.14 0.55,0.31 0.11,0.18 0.34,0.22 0.53,0.11 0.2,-0.12 0.24,-0.1 0.11,0.15 -0.27,0.43 -0.2,0.44 -0.94,-0.12 z m 4.53,0.1 c -0.25,-0.3 -0.19,-0.4 0.23,-0.4 0.34,0 0.51,0.16 0.42,0.4 -0.1,0.22 -0.19,0.4 -0.23,0.4 -0.1,0 -0.24,-0.18 -0.42,-0.4 z"
                 id="path1331" />
            <path
                 style="fill:#c17e2b;stroke-width:0.30965"
                 d="m 526.88,126.02 c 0,-11.37 0.11,-18.6 0.16,-16.07 0.1,4.01 0.16,4.57 0.58,4.41 0.26,-0.1 0.54,-0.19 0.61,-0.19 0.1,0 0.13,-1.65 0.13,-3.67 0,-4.73 0.16,-5.47 1.35,-6.3 0.54,-0.36 0.87,-0.55 0.75,-0.41 -0.12,0.13 0.1,0.47 0.39,0.75 0.75,0.62 1.35,4.62 1.17,7.8 -0.12,2.06 -0.1,2.15 0.59,2.15 0.7,0 0.7,0 0.7,-4.14 0,-4.58 0.26,-5.76 1.4,-6.29 0.42,-0.19 0.69,-0.23 0.6,-0.1 -0.1,0.16 0,0.29 0.17,0.29 0.81,0 1.24,2.14 1.24,6.13 0,3.58 0,3.98 0.54,3.99 0.3,0 0.64,-0.15 0.77,-0.34 0.12,-0.19 0.23,-2.17 0.23,-4.4 0,-3.57 0.1,-4.16 0.62,-4.83 0.33,-0.43 0.51,-0.88 0.38,-1.02 -0.12,-0.13 0.21,0 0.73,0.25 1.32,0.67 1.68,2.13 1.68,6.68 0,3.55 0,3.76 0.62,3.76 0.34,0 0.62,-0.14 0.62,-0.3 0,-6.51 0.45,-9.92 1.31,-9.92 0.15,0 0.19,-0.14 0.1,-0.32 -0.11,-0.18 0.13,-0.16 0.59,0.1 1.3,0.59 1.74,2.27 1.74,6.6 0,3.68 0,3.84 0.62,3.73 0.56,-0.11 0.62,0 0.62,1.8 v 1.92 l -10.38,-0.1 -10.37,-0.1 v 6.23 c 0,5.56 0,6.21 0.49,6.05 0.27,-0.11 0.55,-0.19 0.62,-0.19 0.1,0 0.13,-1.82 0.13,-4.04 0,-4.67 0.4,-6.18 1.65,-6.18 0.41,0 0.9,0.17 1.08,0.39 0.59,0.71 1.07,4.61 0.91,7.4 -0.16,2.73 -0.1,2.91 0.82,2.55 0.42,-0.16 0.49,-0.85 0.49,-4.42 0,-4.68 0.29,-5.71 1.59,-5.86 1.39,-0.16 1.82,1.31 1.82,6.28 0,4.21 0,4.23 0.7,4.13 0.67,-0.1 0.7,-0.22 0.75,-3.76 0,-2 0.1,-4.03 0.14,-4.48 0.1,-0.46 0,-1.02 -0.16,-1.25 -0.14,-0.22 -0.17,-0.48 -0.1,-0.59 0.1,-0.1 0.19,0 0.19,0.23 0,0.29 0.16,0.25 0.6,-0.13 0.84,-0.77 1.63,-0.51 2.26,0.75 0.43,0.86 0.54,1.89 0.54,5.01 0,3.77 0.24,4.78 0.95,4.08 0.15,-0.16 0.32,-2.26 0.38,-4.68 0.1,-3.73 0.2,-4.49 0.68,-5.02 0.78,-0.86 1.59,-0.79 2.24,0.2 0.44,0.68 0.57,1.69 0.66,5.29 0.11,4.19 0.15,4.45 0.7,4.31 0.54,-0.14 0.58,0 0.54,2.37 0,1.39 -0.1,2.21 -0.17,1.83 l -0.14,-0.7 h -10.18 -10.17 v 6.35 c 0,6.17 0,6.35 0.6,6.35 0.59,0 0.62,-0.2 0.62,-4.03 0,-4.75 0.4,-6.19 1.7,-6.19 1.33,0 1.8,1.6 1.83,6.27 0,3.87 0,3.95 0.73,3.95 0.69,0 0.7,0 0.7,-4.26 0,-4.78 0.27,-5.75 1.64,-5.9 1.35,-0.16 1.76,1.26 1.76,6.13 v 4.03 h 0.78 0.78 v -4.14 c 0,-4.48 0.29,-5.85 1.44,-6.01 0.35,-0.1 0.91,0.2 1.24,0.57 0.52,0.58 0.61,1.23 0.71,5.12 0.1,4.33 0.13,4.46 0.77,4.46 0.66,0 0.67,-0.11 0.67,-4.28 0,-3.56 0.1,-4.41 0.55,-5.11 0.66,-1 1.47,-1.06 2.26,-0.18 0.51,0.56 0.61,1.26 0.71,5.09 0.1,4.25 0.14,4.45 0.77,4.57 0.37,0.1 -4.11,0.15 -9.94,0.18 h -10.61 l 0.1,-20.67 z m 20.78,12.31 c 0,-1.45 0.1,-2.04 0.12,-1.32 0.1,0.73 0.1,1.91 0,2.63 -0.1,0.73 -0.12,0.14 -0.12,-1.31 z m -9.99,-1.11 c 0,-0.36 0.1,-0.44 0.19,-0.19 0.1,0.22 0.1,0.49 0,0.6 -0.11,0.1 -0.18,-0.1 -0.16,-0.41 z m 4.34,0.1 c 0.1,0 0.54,-0.43 1.05,-0.85 0.68,-0.58 0.8,-0.62 0.46,-0.15 -0.53,0.73 -0.96,1.07 -1.36,1.07 -0.15,0 -0.22,0 -0.15,-0.1 z m -13.78,-1.11 c -0.1,-0.14 0,-0.26 0.28,-0.26 0.24,0 0.37,0.12 0.28,0.26 -0.1,0.14 -0.21,0.26 -0.28,0.26 -0.1,0 -0.19,-0.12 -0.28,-0.26 z m 19.38,-7.17 c 0,-0.43 0.1,-0.6 0.15,-0.39 0.1,0.22 0.1,0.56 0,0.78 -0.1,0.21 -0.15,0 -0.15,-0.39 z m -19.8,-6.5 c 0,-0.6 0.1,-0.84 0.14,-0.55 0.1,0.3 0.1,0.79 0,1.09 -0.1,0.3 -0.14,0 -0.14,-0.54 z m 19.85,-1.55 c 0,-1.45 0.1,-2.04 0.12,-1.32 0.1,0.73 0.1,1.91 0,2.63 -0.1,0.73 -0.12,0.14 -0.12,-1.31 z m -14.77,-0.16 c 0.1,-0.25 0.23,-0.46 0.3,-0.46 0.1,0 0.12,0.21 0.12,0.46 0,0.26 -0.13,0.47 -0.3,0.47 -0.16,0 -0.22,-0.21 -0.12,-0.47 z m 10.49,-1.39 c 0.1,-0.17 0.25,-0.31 0.33,-0.31 0.1,0 0.13,0.14 0.13,0.31 0,0.17 -0.15,0.31 -0.33,0.31 -0.18,0 -0.24,-0.14 -0.13,-0.31 z m -14.09,-0.33 c 0,-0.18 0.14,-0.24 0.31,-0.14 0.17,0.11 0.31,0.26 0.31,0.33 0,0.1 -0.14,0.14 -0.31,0.14 -0.17,0 -0.31,-0.15 -0.31,-0.33 z m 10.13,0 c 0.21,-0.21 0.46,-0.31 0.56,-0.21 0.1,0.1 -0.1,0.27 -0.39,0.38 -0.43,0.17 -0.47,0.13 -0.17,-0.17 z m 8.22,-11.73 c 0,-0.77 0.1,-1.08 0.14,-0.7 0.1,0.39 0.1,1.01 0,1.4 -0.1,0.38 -0.14,0.1 -0.14,-0.7 z m -19.9,-1.06 c 0,-0.25 0.13,-0.53 0.28,-0.62 0.16,-0.1 0.21,0.1 0.12,0.44 -0.19,0.72 -0.4,0.82 -0.4,0.18 z m 9.93,0 c 0,-0.36 0.1,-0.44 0.19,-0.19 0.1,0.23 0.1,0.5 0,0.6 -0.11,0.1 -0.18,-0.1 -0.16,-0.41 z m -10.8,-1.83 c 0,-0.51 0.1,-0.68 0.15,-0.38 0.1,0.3 0.1,0.72 0,0.93 -0.1,0.21 -0.15,0 -0.14,-0.55 z m 9.5,-0.1 c -0.38,-0.49 -0.38,-0.5 0.12,-0.12 0.29,0.24 0.54,0.48 0.54,0.54 0,0.26 -0.25,0.1 -0.66,-0.42 z m 11.59,-0.85 c 0,-0.85 0.1,-1.16 0.13,-0.69 0.1,0.47 0.1,1.16 0,1.54 -0.1,0.39 -0.13,0 -0.13,-0.85 z m -19.91,0.77 c 0,-0.17 0.15,-0.31 0.33,-0.31 0.18,0 0.24,0.14 0.13,0.31 -0.1,0.18 -0.25,0.31 -0.33,0.31 -0.1,0 -0.13,-0.13 -0.13,-0.31 z m 3.05,-0.23 c -0.38,-0.49 -0.37,-0.5 0.12,-0.12 0.3,0.24 0.54,0.48 0.54,0.55 0,0.25 -0.25,0.1 -0.66,-0.43 z m 7.17,0.25 c 0,-0.16 0.13,-0.37 0.3,-0.48 0.18,-0.11 0.23,0 0.12,0.29 -0.2,0.54 -0.42,0.64 -0.42,0.19 z m 7.43,-0.33 c -0.28,-0.17 -0.32,-0.3 -0.1,-0.3 0.21,0 0.46,0.13 0.56,0.3 0.24,0.39 0.13,0.39 -0.46,0 z m -19.15,-1.93 c 0,-0.53 -0.23,-0.85 -0.51,-0.85 -0.69,0 -0.71,-18.73 0,-18.99 0.25,-0.1 0.51,-0.5 0.58,-0.89 l 0.14,-0.71 v 0.69 c 0,0.62 0.21,0.7 1.44,0.7 0.76,0 1.49,0 1.61,0.1 0.12,0 0.23,-0.62 0.24,-1.47 0,-1.8 0.28,-2.33 1.09,-2.33 0.8,0 0.95,0.34 0.97,2.25 0,1.4 0.11,1.65 0.61,1.65 0.49,0 0.59,-0.24 0.59,-1.46 0,-1.92 0.23,-2.44 1.08,-2.44 0.86,0 1.08,0.52 1.08,2.51 0,2.13 0.73,1.89 0.93,-0.31 0.16,-1.75 0.73,-2.46 1.66,-2.1 0.4,0.15 0.51,0.62 0.51,2.06 0,1.66 0.1,1.87 0.62,1.87 0.55,0 0.62,-0.21 0.62,-1.87 0,-2.02 0.47,-2.59 1.57,-1.91 0.41,0.26 0.58,0.26 0.67,0 0.1,-0.19 0.1,0.56 0,1.67 -0.11,1.69 0,2.01 0.37,2.01 0.37,0 0.5,-0.3 0.5,-1.17 0,-0.64 -0.13,-1.25 -0.3,-1.35 -0.4,-0.25 0.61,-1.4 1.23,-1.4 0.86,0 1.23,0.7 1.23,2.31 v 1.56 h 1.37 c 0.75,0 1.47,-0.1 1.6,-0.23 0.13,-0.13 0.42,-0.1 0.65,0.12 0.33,0.27 0.41,2.26 0.41,9.75 0,5.17 -0.11,9.41 -0.23,9.42 -0.13,0 -5.14,0 -11.14,0.1 l -10.9,0.1 -0.12,0.77 c -0.12,0.76 -0.12,0.75 -0.17,-0.1 z m 13.27,-2.09 c 1.47,-0.41 3.28,-1.96 4.09,-3.51 0.94,-1.78 0.94,-4.82 0,-6.59 -1.86,-3.55 -5.98,-4.84 -9.64,-3.02 -2.01,1 -3.29,2.67 -3.75,4.9 -1.11,5.34 3.86,9.74 9.29,8.22 z m -2.68,-6.57 c -0.18,-0.3 2.66,-5.51 3.01,-5.51 0.48,0 0.32,0.54 -0.8,2.57 -0.6,1.09 -1.08,2.07 -1.08,2.18 0,0.11 0.83,0.21 1.85,0.21 1.03,0 1.86,0.12 1.86,0.28 0,0.34 -4.64,0.6 -4.84,0.27 z m -4.51,-12.63 c 0.1,-0.51 0.19,-0.93 0.25,-0.93 0.1,0 0.12,0.42 0.12,0.93 0,0.51 -0.11,0.93 -0.25,0.93 -0.14,0 -0.2,-0.42 -0.12,-0.93 z m 15.57,0.13 c 0,-0.36 0.1,-0.44 0.19,-0.19 0.1,0.22 0.1,0.49 0,0.6 -0.1,0.1 -0.17,-0.1 -0.16,-0.41 z m -21.39,-1.06 c 0,-0.34 0.13,-0.62 0.28,-0.62 0.15,0 0.21,0.28 0.12,0.62 -0.1,0.34 -0.22,0.62 -0.28,0.62 -0.1,0 -0.12,-0.28 -0.12,-0.62 z m 21.05,-0.33 c 0,-0.62 -0.1,-0.67 -0.34,-0.29 -0.28,0.39 -0.3,0.37 -0.15,-0.1 0.1,-0.31 0.21,-1.71 0.24,-3.1 v -2.53 l 0.22,3.26 c 0.12,1.79 0.17,3.31 0.1,3.38 -0.1,0.1 -0.11,-0.21 -0.11,-0.62 z m -12.07,-0.75 c 0,-0.27 -0.45,-0.69 -1.01,-0.93 -0.55,-0.24 -0.84,-0.45 -0.63,-0.45 1.13,0 2.63,1.27 1.94,1.7 -0.17,0.1 -0.3,-0.1 -0.3,-0.32 z m -8.67,-2.6 v -2.87 l 2.19,-2.65 c 3.43,-4.16 6.18,-8.46 7.26,-11.32 0.47,-1.25 0.49,-1.6 0.15,-2.23 -0.21,-0.41 -0.31,-0.96 -0.21,-1.23 0.12,-0.3 0,-0.48 -0.26,-0.48 -0.73,0 -0.53,-0.57 0.24,-0.68 0.59,-0.1 0.69,-0.28 0.69,-1.41 0,-0.85 0.14,-1.32 0.39,-1.32 0.25,0 0.39,0.49 0.39,1.4 0,1.18 0.1,1.39 0.62,1.39 0.34,0 0.62,0.14 0.62,0.31 0,0.17 -0.19,0.31 -0.43,0.31 -0.27,0 -0.37,0.25 -0.28,0.74 0.1,0.4 0,0.83 -0.2,0.94 -0.57,0.36 -0.38,1.21 0.93,3.9 1.41,2.93 3.77,6.43 6.71,9.98 l 1.99,2.4 h -10.2 -10.21 l -0.1,2.7 c -0.1,3.63 -0.33,3.71 -0.33,0.12 z m 12.08,2.54 c 0,-0.2 0.2,-0.56 0.45,-0.81 0.24,-0.25 0.35,-0.55 0.24,-0.66 -0.12,-0.11 0,-0.11 0.35,0 0.51,0.19 0.52,0.25 0.1,0.49 -0.27,0.15 -0.63,0.51 -0.8,0.81 -0.17,0.29 -0.31,0.36 -0.32,0.16 z m -6.44,-0.53 c 0.22,-0.24 0.45,-0.39 0.51,-0.33 0.18,0.18 -0.29,0.76 -0.61,0.76 -0.17,0 -0.12,-0.19 0.1,-0.43 z m 5.37,-0.37 c -0.33,-0.24 -0.47,-0.43 -0.31,-0.43 0.43,0 1.23,0.56 1.06,0.73 -0.1,0.1 -0.42,-0.1 -0.75,-0.3 z m -6.98,-0.13 c -0.28,-0.18 -0.32,-0.3 -0.1,-0.3 0.2,0 0.45,0.13 0.56,0.3 0.24,0.39 0.13,0.39 -0.46,0 z m 4.95,-0.92 c -0.28,-0.18 -0.32,-0.31 -0.1,-0.31 0.21,0 0.46,0.14 0.56,0.31 0.24,0.38 0.13,0.38 -0.46,0 z"
                 id="path1329" />
            <path
                 style="fill:#b07529;stroke-width:0.30965"
                 d="m 528.36,142.5 c 0,-4.91 0.38,-6.34 1.7,-6.34 1.32,0 1.7,1.43 1.7,6.34 v 4.19 h -1.7 -1.7 z m 4.95,-0.56 c 0.17,-5.1 0.37,-5.78 1.76,-5.78 1.26,0 1.65,1.51 1.65,6.34 v 4.19 h -1.78 -1.78 z m 4.86,0.42 c 0.1,-4.64 0.39,-5.98 1.51,-6.13 0.35,-0.1 0.91,0.2 1.24,0.57 0.52,0.58 0.61,1.23 0.7,5.28 l 0.11,4.61 h -1.81 -1.81 z m 4.82,-0.1 c 0.1,-3.62 0.18,-4.59 0.63,-5.27 0.65,-1 1.46,-1.06 2.26,-0.18 0.51,0.57 0.61,1.26 0.7,5.27 l 0.12,4.61 h -1.9 -1.89 z m -16.18,-10.39 c 0,-1.77 0,-1.81 0.77,-1.67 l 0.78,0.15 v -4.23 c 0,-4.87 0.39,-6.37 1.65,-6.37 1.4,0 1.59,0.66 1.7,5.79 0.11,4.68 0.12,4.77 0.78,4.68 0.64,-0.1 0.67,-0.27 0.82,-4.77 0.17,-4.98 0.38,-5.7 1.71,-5.7 1.28,0 1.7,1.56 1.7,6.34 0,4.21 0,4.23 0.7,4.13 0.68,-0.1 0.7,-0.2 0.76,-4.37 0.1,-4.79 0.39,-5.95 1.64,-5.95 1.4,0 1.85,1.55 1.85,6.27 0,3.9 0,4.11 0.62,4.11 0.4,0 0.62,-0.21 0.62,-0.58 0,-5.54 0.22,-8.38 0.72,-9.13 0.68,-1.05 1.6,-1.05 2.29,0 0.44,0.68 0.57,1.69 0.66,5.27 0.11,4.09 0.16,4.43 0.7,4.43 0.5,0 0.59,0.24 0.59,1.7 v 1.7 h -10.53 -10.53 v -1.81 z m 0,-15.72 c 0,-1.85 0,-1.88 0.77,-1.74 l 0.78,0.15 v -4.14 c 0,-4.67 0.17,-5.44 1.09,-6.05 0.57,-0.38 0.74,-0.36 1.39,0.17 0.71,0.58 0.74,0.78 0.84,5.27 0.11,4.66 0.11,4.68 0.83,4.68 0.73,0 0.73,0 0.83,-4.68 0.1,-4.47 0.13,-4.7 0.82,-5.26 0.92,-0.74 1.71,-0.38 2.19,0.99 0.18,0.54 0.34,2.78 0.34,4.97 0,3.69 0,3.98 0.58,3.98 0.86,0 0.97,-0.56 0.97,-4.97 0,-3.72 0,-4.04 0.71,-4.81 0.6,-0.7 0.83,-0.78 1.34,-0.5 0.96,0.51 1.35,2.41 1.35,6.52 0,3.55 0,3.76 0.62,3.76 0.34,0 0.62,-0.14 0.62,-0.3 0,-8.19 0.57,-10.71 2.28,-10.05 0.91,0.35 1.25,1.85 1.37,6.09 0.12,3.93 0.17,4.26 0.72,4.26 0.51,0 0.59,0.23 0.59,1.69 v 1.7 l -10.53,0.1 -10.53,0.1 z m -1.24,-24.42 c 0,-7.34 0.1,-9.45 0.39,-9.47 0.21,0 1.21,0 2.23,-0.1 l 1.85,-0.1 v -1.63 c 0,-1.75 0.38,-2.36 1.28,-2.19 0.48,0.1 0.59,0.44 0.67,2.04 0.1,1.68 0.17,1.93 0.7,1.93 0.51,0 0.6,-0.22 0.6,-1.52 0,-1.99 0.22,-2.5 1.08,-2.5 0.86,0 1.09,0.51 1.09,2.5 0,1.12 0.11,1.52 0.44,1.52 0.33,0 0.48,-0.47 0.55,-1.75 0.1,-1.84 0.62,-2.55 1.6,-2.18 0.39,0.15 0.5,0.62 0.5,2.06 0,1.66 0.1,1.87 0.62,1.87 0.55,0 0.62,-0.21 0.62,-1.87 0,-1.44 0.12,-1.91 0.51,-2.06 0.97,-0.37 1.5,0.34 1.6,2.18 0.1,1.28 0.21,1.75 0.54,1.75 0.34,0 0.45,-0.44 0.45,-1.87 0,-1.44 0.11,-1.91 0.51,-2.06 0.97,-0.38 1.49,0.34 1.59,2.2 l 0.1,1.77 1.92,-0.1 1.92,-0.1 0.1,9.5 0.1,9.5 h -11.77 -11.77 v -9.44 z m 14.25,8.2 c 1.47,-0.41 3.28,-1.95 4.09,-3.51 0.94,-1.78 0.94,-4.82 0,-6.59 -1.86,-3.55 -5.98,-4.84 -9.64,-3.02 -2.01,1 -3.29,2.67 -3.75,4.9 -1.11,5.34 3.86,9.74 9.29,8.22 z m -2.68,-6.56 c -0.18,-0.3 2.66,-5.51 3.01,-5.51 0.48,0 0.32,0.53 -0.8,2.57 -0.6,1.08 -1.08,2.06 -1.08,2.17 0,0.12 0.83,0.21 1.85,0.21 1.03,0 1.86,0.13 1.86,0.28 0,0.34 -4.64,0.6 -4.84,0.28 z m -7.85,-22.75 c 3.45,-4.18 6.2,-8.47 7.28,-11.34 0.47,-1.25 0.49,-1.6 0.15,-2.23 -0.21,-0.4 -0.31,-0.96 -0.21,-1.22 0.12,-0.31 0,-0.49 -0.26,-0.49 -0.73,0 -0.53,-0.56 0.24,-0.67 0.59,-0.1 0.69,-0.29 0.69,-1.42 0,-0.85 0.14,-1.31 0.39,-1.31 0.25,0 0.39,0.48 0.39,1.39 0,1.19 0.1,1.39 0.62,1.39 0.34,0 0.62,0.14 0.62,0.31 0,0.17 -0.19,0.31 -0.43,0.31 -0.27,0 -0.37,0.25 -0.28,0.74 0.1,0.41 0,0.83 -0.2,0.95 -0.57,0.36 -0.38,1.2 0.93,3.89 1.41,2.94 3.77,6.43 6.71,9.98 l 1.99,2.4 h -10.42 -10.42 z"
                 id="path1327" />
            <path
                 style="fill:#63544d;stroke-width:0.30965"
                 d="m 528.41,142.24 c 0.11,-3.53 0.25,-4.63 0.67,-5.27 0.6,-0.92 0.8,-0.97 1.57,-0.4 0.76,0.55 1.08,2.51 1.1,6.63 v 3.49 h -1.74 -1.74 l 0.13,-4.45 z m 4.9,0.66 c 0,-5.1 0.61,-7.08 1.98,-6.55 0.97,0.37 1.22,1.49 1.33,5.92 l 0.11,4.42 h -1.71 -1.71 z m 5.01,-0.85 c 0.1,-4.19 0.16,-4.69 0.74,-5.27 0.7,-0.7 1.48,-0.59 1.88,0.26 0.14,0.28 0.32,2.57 0.41,5.08 l 0.17,4.57 h -1.66 -1.65 z m 4.95,0 c 0.1,-4.19 0.17,-4.69 0.75,-5.27 0.36,-0.37 0.84,-0.56 1.12,-0.46 0.92,0.35 1.18,1.68 1.18,6.05 v 4.32 h -1.58 -1.57 z m -14.85,-16.18 c 0.1,-2.48 0.29,-4.71 0.49,-5.08 0.81,-1.49 2.1,-1 2.55,0.98 0.16,0.68 0.29,2.87 0.3,4.87 v 3.64 h -1.75 -1.73 l 0.13,-4.41 z m 4.91,0.47 c 0,-4.71 0.37,-6.08 1.61,-6.22 1.27,-0.15 1.56,0.93 1.6,5.82 v 4.18 l -1.63,0.1 -1.63,0.1 v -3.97 z m 4.94,-0.1 c 0,-4.92 0.59,-6.86 1.94,-6.34 0.86,0.33 1.12,1.67 1.17,5.93 v 4.27 l -1.58,0.1 -1.58,0.1 z m 5.01,-0.62 c 0.1,-4.2 0.16,-4.7 0.74,-5.27 0.8,-0.81 1.53,-0.56 1.97,0.69 0.18,0.52 0.33,2.81 0.33,5.08 v 4.14 h -1.57 -1.57 z m -14.82,-11.64 c -0.1,-0.27 -0.12,-2.21 0,-4.31 0.12,-2.88 0.28,-4.03 0.67,-4.63 0.67,-1.02 1.28,-1.01 1.97,0 0.43,0.66 0.56,1.69 0.66,5.11 l 0.12,4.28 h -1.6 c -1.16,0 -1.64,-0.14 -1.78,-0.49 z m 4.9,-3.77 c 0.1,-3.46 0.21,-4.45 0.66,-5.13 0.69,-1.05 1.3,-1.06 1.98,0 0.44,0.67 0.54,1.58 0.55,5.03 v 4.22 l -1.66,0.1 -1.65,0.1 0.11,-4.29 z m 4.91,0.26 c 0,-4.55 0.49,-6.33 1.68,-6.16 1.11,0.16 1.43,1.47 1.45,5.88 v 4.12 l -1.58,0.1 -1.58,0.1 v -4.03 z m 4.95,0 c 0,-4.67 0.43,-6.3 1.61,-6.13 1.19,0.17 1.48,1.31 1.49,5.91 v 4.26 h -1.55 -1.55 z m -14.55,-17.33 v -8.05 h 8.67 8.67 v 8.05 8.05 h -8.67 -8.67 z m 12.74,6.05 c 3.81,-2.53 4.46,-7.41 1.44,-10.84 -1.56,-1.78 -3.3,-2.45 -5.96,-2.28 -2.47,0.16 -4.18,1.23 -5.58,3.49 -0.8,1.29 -0.94,1.83 -0.94,3.58 0,1.75 0.14,2.29 0.94,3.58 2.23,3.6 6.72,4.7 10.1,2.47 z m -4.27,-5.8 c -0.18,-0.3 2.66,-5.51 3.01,-5.51 0.48,0 0.32,0.53 -0.8,2.57 -0.6,1.08 -1.08,2.06 -1.08,2.17 0,0.12 0.83,0.21 1.85,0.21 1.03,0 1.86,0.13 1.86,0.28 0,0.34 -4.64,0.6 -4.84,0.28 z m -6.92,-12.83 c 0,-1.81 0.58,-2.64 1.39,-1.97 0.3,0.25 0.46,0.94 0.46,1.98 0,1.58 0,1.6 -0.92,1.59 -0.91,0 -0.93,0 -0.93,-1.6 z m 3.34,1.17 c 0,-0.25 0,-1.05 0,-1.78 0.11,-1.36 0.77,-2 1.4,-1.37 0.35,0.35 0.58,3.4 0.25,3.44 -1.35,0.16 -1.59,0.12 -1.67,-0.29 z m 3.16,-1.35 c 0,-1.93 0.48,-2.55 1.4,-1.79 0.47,0.4 0.67,3.38 0.23,3.43 -1.74,0.19 -1.63,0.3 -1.63,-1.64 z m 3.26,1.67 c -0.38,-0.37 -0.14,-3.1 0.3,-3.46 0.88,-0.74 1.39,-0.14 1.39,1.65 0,1.54 -0.1,1.69 -0.77,1.83 -0.42,0.1 -0.83,0.1 -0.92,0 z m 3.11,0 c -0.1,-0.1 -0.18,-0.83 -0.18,-1.63 0,-1.69 0.61,-2.49 1.39,-1.85 0.49,0.4 0.69,3.39 0.24,3.43 -0.13,0 -0.47,0.1 -0.76,0.13 -0.28,0 -0.6,0 -0.69,-0.1 z m -13.8,-11.42 c 3.45,-4.18 6.2,-8.47 7.28,-11.34 0.47,-1.25 0.49,-1.6 0.15,-2.23 -0.21,-0.41 -0.31,-0.96 -0.21,-1.23 0.12,-0.3 0,-0.48 -0.26,-0.48 -0.73,0 -0.53,-0.57 0.24,-0.68 0.59,-0.1 0.69,-0.28 0.69,-1.41 0,-0.85 0.14,-1.32 0.39,-1.32 0.25,0 0.39,0.49 0.39,1.4 0,1.18 0.1,1.39 0.62,1.39 0.34,0 0.62,0.14 0.62,0.31 0,0.17 -0.19,0.31 -0.43,0.31 -0.27,0 -0.37,0.25 -0.28,0.74 0.1,0.4 0,0.83 -0.2,0.94 -0.57,0.36 -0.38,1.21 0.93,3.9 1.41,2.93 3.77,6.43 6.71,9.98 l 1.99,2.4 h -10.42 -10.42 z"
                 id="path1325" />
            <path
                 style="fill:#8a5a19;stroke-width:0.30965"
                 d="m 528.41,142.24 c 0.11,-3.53 0.25,-4.63 0.67,-5.27 0.6,-0.92 0.8,-0.97 1.57,-0.4 0.76,0.55 1.08,2.51 1.1,6.63 v 3.49 h -1.74 -1.74 l 0.13,-4.45 z m 4.9,0.66 c 0,-5.1 0.61,-7.08 1.98,-6.55 0.97,0.37 1.22,1.49 1.33,5.92 l 0.11,4.42 h -1.71 -1.71 z m 5.01,-0.85 c 0.1,-4.19 0.16,-4.69 0.74,-5.27 0.7,-0.7 1.48,-0.59 1.88,0.26 0.14,0.28 0.32,2.57 0.41,5.08 l 0.17,4.57 h -1.66 -1.65 z m 4.95,0 c 0.1,-4.19 0.17,-4.69 0.75,-5.27 0.36,-0.37 0.84,-0.56 1.12,-0.46 0.92,0.35 1.18,1.68 1.18,6.05 v 4.32 h -1.58 -1.57 z m -14.85,-16.18 c 0.1,-2.48 0.29,-4.71 0.49,-5.08 0.81,-1.49 2.1,-1 2.55,0.98 0.16,0.68 0.29,2.87 0.3,4.87 v 3.64 h -1.75 -1.73 l 0.13,-4.41 z m 4.91,0.47 c 0,-4.71 0.37,-6.08 1.61,-6.22 1.27,-0.15 1.56,0.93 1.6,5.82 v 4.18 l -1.63,0.1 -1.63,0.1 v -3.97 z m 4.94,-0.1 c 0,-4.92 0.59,-6.86 1.94,-6.34 0.86,0.33 1.12,1.67 1.17,5.93 v 4.27 l -1.58,0.1 -1.58,0.1 z m 5.01,-0.62 c 0.1,-4.2 0.16,-4.7 0.74,-5.27 0.8,-0.81 1.53,-0.56 1.97,0.69 0.18,0.52 0.33,2.81 0.33,5.08 v 4.14 h -1.57 -1.57 z m -14.82,-11.64 c -0.1,-0.27 -0.12,-2.21 0,-4.31 0.12,-2.88 0.28,-4.03 0.67,-4.63 0.67,-1.02 1.28,-1.01 1.97,0 0.43,0.66 0.56,1.69 0.66,5.11 l 0.12,4.28 h -1.6 c -1.16,0 -1.64,-0.14 -1.78,-0.49 z m 4.9,-3.77 c 0.1,-3.46 0.21,-4.45 0.66,-5.13 0.69,-1.05 1.3,-1.06 1.98,0 0.44,0.67 0.54,1.58 0.55,5.03 v 4.22 l -1.66,0.1 -1.65,0.1 0.11,-4.29 z m 4.91,0.26 c 0,-4.55 0.49,-6.33 1.68,-6.16 1.11,0.16 1.43,1.47 1.45,5.88 v 4.12 l -1.58,0.1 -1.58,0.1 v -4.03 z m 4.95,0 c 0,-4.67 0.43,-6.3 1.61,-6.13 1.19,0.17 1.48,1.31 1.49,5.91 v 4.26 h -1.55 -1.55 z m -14.55,-17.33 v -8.05 h 8.67 8.67 v 8.05 8.05 h -8.67 -8.67 z m 12.74,6.05 c 3.81,-2.53 4.46,-7.41 1.44,-10.84 -1.56,-1.78 -3.3,-2.45 -5.96,-2.28 -2.47,0.16 -4.18,1.23 -5.58,3.49 -0.8,1.29 -0.94,1.83 -0.94,3.58 0,1.75 0.14,2.29 0.94,3.58 2.23,3.6 6.72,4.7 10.1,2.47 z m -11.19,-18.63 c 0,-1.81 0.58,-2.64 1.39,-1.97 0.3,0.25 0.46,0.94 0.46,1.98 0,1.58 0,1.6 -0.92,1.59 -0.91,0 -0.93,0 -0.93,-1.6 z m 3.34,1.17 c 0,-0.25 0,-1.05 0,-1.78 0.11,-1.36 0.77,-2 1.4,-1.37 0.35,0.35 0.58,3.4 0.25,3.44 -1.35,0.16 -1.59,0.12 -1.67,-0.29 z m 3.16,-1.35 c 0,-1.93 0.48,-2.55 1.4,-1.79 0.47,0.4 0.67,3.38 0.23,3.43 -1.74,0.19 -1.63,0.3 -1.63,-1.64 z m 3.26,1.67 c -0.38,-0.37 -0.14,-3.1 0.3,-3.46 0.88,-0.74 1.39,-0.14 1.39,1.65 0,1.54 -0.1,1.69 -0.77,1.83 -0.42,0.1 -0.83,0.1 -0.92,0 z m 3.11,0 c -0.1,-0.1 -0.18,-0.83 -0.18,-1.63 0,-1.69 0.61,-2.49 1.39,-1.85 0.49,0.4 0.69,3.39 0.24,3.43 -0.13,0 -0.47,0.1 -0.76,0.13 -0.28,0 -0.6,0 -0.69,-0.1 z"
                 id="path1323" />
        </g>
        <g
             id="g29513">
            <text
                 xml:space="preserve"
                 style="font-size:16px;line-height:1.25;font-family:Consolas;-inkscape-font-specification:'Consolas, Normal';font-variant-ligatures:none"
                 x="295.55"
                 y="33.87"
                 id="text5223"><tspan
                     sodipodi:role="line"
                     x="295.55"
                     y="33.87"
                     id="tspan5225">TSA</tspan></text>
            <text
                 xml:space="preserve"
                 style="font-size:16px;line-height:1.25;font-family:Consolas;-inkscape-font-specification:'Consolas, Normal';font-variant-ligatures:none"
                 x="260.25"
                 y="49.63"
                 id="text15135"><tspan
                     sodipodi:role="line"
                     id="tspan15133"
                     x="260.25"
                     y="49.63">(時刻認証局)</tspan></text>
        </g>
        <g
             id="g29519">
            <text
                 xml:space="preserve"
                 style="font-size:16px;line-height:1.25;font-family:Consolas;-inkscape-font-specification:'Consolas, Normal';font-variant-ligatures:none"
                 x="530.3"
                 y="33.35"
                 id="text18241"><tspan
                     sodipodi:role="line"
                     id="tspan18239"
                     x="530.3"
                     y="33.35">TA</tspan></text>
            <text
                 xml:space="preserve"
                 style="font-size:16px;line-height:1.25;font-family:Consolas;-inkscape-font-specification:'Consolas, Normal';font-variant-ligatures:none"
                 x="490.6"
                 y="50.02"
                 id="text19499"><tspan
                     sodipodi:role="line"
                     id="tspan19497"
                     x="490.6"
                     y="50.02">(時刻配信局)</tspan></text>
        </g>
        <g
             id="g29525">
            <text
                 xml:space="preserve"
                 style="font-size:16px;line-height:1.25;font-family:Consolas;-inkscape-font-specification:'Consolas, Normal';font-variant-ligatures:none"
                 x="21.911"
                 y="36.65"
                 id="text2665"><tspan
                     sodipodi:role="line"
                     x="21.911"
                     y="36.65"
                     id="tspan2667">タイムスタンプ</tspan></text>
            <text
                 xml:space="preserve"
                 style="font-size:16px;line-height:1.25;font-family:Consolas;-inkscape-font-specification:'Consolas, Normal';font-variant-ligatures:none"
                 x="38.661"
                 y="51.98"
                 id="text24389"><tspan
                     sodipodi:role="line"
                     id="tspan24387"
                     x="38.661"
                     y="51.98">取得要求者</tspan></text>
        </g>
        <g
             id="g29472">
            <path
                 id="rect25766"
                 style="opacity:0.8;fill:#ffffff;stroke:#000000;stroke-width:3;stroke-linecap:round;stroke-linejoin:round;paint-order:markers stroke fill;stop-color:#000000"
                 d="m 75.996,129.32 h 26.134 v 50.33 h -39.326 v -37.98 z"
                 sodipodi:nodetypes="cccccc" />
            <path
                 style="fill:none;stroke:#71716e;stroke-width:0.5;stroke-linecap:butt;stroke-linejoin:miter;stroke-miterlimit:4;stroke-dasharray:none;stroke-opacity:1"
                 d="m 69.728,143.17 h 26.16"
                 id="path26835" />
            <path
                 style="fill:none;stroke:#71716e;stroke-width:0.5;stroke-linecap:butt;stroke-linejoin:miter;stroke-miterlimit:4;stroke-dasharray:none;stroke-opacity:1"
                 d="m 69.726,149.95 h 26.164"
                 id="path26835-9" />
            <path
                 style="fill:none;stroke:#71716e;stroke-width:0.5;stroke-linecap:butt;stroke-linejoin:miter;stroke-miterlimit:4;stroke-dasharray:none;stroke-opacity:1"
                 d="m 69.726,156.73 h 26.164"
                 id="path26835-8" />
            <path
                 style="fill:none;stroke:#71716e;stroke-width:0.5;stroke-linecap:butt;stroke-linejoin:miter;stroke-miterlimit:4;stroke-dasharray:none;stroke-opacity:1"
                 d="m 69.726,163.5 h 26.163"
                 id="path26835-5" />
            <path
                 style="fill:none;stroke:#71716e;stroke-width:0.5;stroke-linecap:butt;stroke-linejoin:miter;stroke-miterlimit:4;stroke-dasharray:none;stroke-opacity:1"
                 d="m 69.728,170.28 h 26.16"
                 id="path26835-6" />
        </g>
        <g
             id="arrows">
            <path
                 id="arrow0"
                 style="opacity:0.8;fill:#02ffff;stroke-width:0.104355;stroke-linecap:round;stroke-linejoin:round;paint-order:markers stroke fill;stop-color:#000000"
                 inkscape:transform-center-x="-0.0057572"
                 inkscape:transform-center-y="5.3887"
                 d="m 76.804,185.65 h 14.184 l -7.092,32.33 z" />
            <path
                 id="arrow1"
                 style="opacity:0.8;fill:#02ffff;stroke-width:0.223471;stroke-linecap:round;stroke-linejoin:round;paint-order:markers stroke fill;stop-color:#000000"
                 inkscape:transform-center-x="-67.492"
                 inkscape:transform-center-y="-19.717"
                 d="m 112.22,235.16 4.52,13.44 138.29,-53.99 z" />
            <path
                 id="arrow2"
                 style="opacity:0.8;fill:#02ffff;stroke-width:0.179332;stroke-linecap:round;stroke-linejoin:round;paint-order:markers stroke fill;stop-color:#000000"
                 inkscape:transform-center-x="15.916"
                 inkscape:transform-center-y="0.0032675"
                 d="m 494.69,178.58 v 14.19 l -95.49,-7.09 z" />
            <path
                 id="arrow3"
                 style="opacity:0.8;fill:#02ffff;stroke-width:0.104355;stroke-linecap:round;stroke-linejoin:round;paint-order:markers stroke fill;stop-color:#000000"
                 inkscape:transform-center-x="-0.0057572"
                 inkscape:transform-center-y="5.3887"
                 d="m 303.99,244.02 h 14.19 l -7.09,32.33 z" />
            <path
                 id="arrow4"
                 style="opacity:0.8;fill:#02ffff;stroke-width:0.171181;stroke-linecap:round;stroke-linejoin:round;paint-order:markers stroke fill;stop-color:#000000"
                 inkscape:transform-center-x="14.501"
                 inkscape:transform-center-y="0.0032675"
                 d="m 260.79,322.85 v 14.19 l -87,-7.09 z" />
        </g>
        <g
             id="g29478">
            <circle
                 style="opacity:0.8;fill:#ffffff;fill-opacity:1;stroke:#000000;stroke-width:3;stroke-linecap:round;stroke-linejoin:round;stroke-miterlimit:4;stroke-dasharray:none;stroke-opacity:1;paint-order:markers stroke fill;stop-color:#000000"
                 id="path28642"
                 cx="537.01"
                 cy="186.36"
                 r="16.664" />
            <path
                 style="fill:none;stroke:#000000;stroke-width:1px;stroke-linecap:butt;stroke-linejoin:miter;stroke-opacity:1"
                 d="m 537.3,172.35 v 15.33 h 9.83"
                 id="path28963" />
        </g>
    </g>
</svg>
