<?xml version="1.0" encoding="UTF-8" standalone="no"?>
<!-- Created with Inkscape (http://www.inkscape.org/) -->

<svg
     width="600"
     height="400"
     viewBox="0 0 600 400"
     version="1.1"
     id="svg5"
     sodipodi:docname="php-bg.svg"
     inkscape:version="1.1 (c68e22c387, 2021-05-23)"
     inkscape:export-filename="C:\Program Files\XAMPP\htdocs\koko-campus.org\subjects\php入門\pics\php-bg.png"
     inkscape:export-xdpi="96"
     inkscape:export-ydpi="96"
     xmlns:inkscape="http://www.inkscape.org/namespaces/inkscape"
     xmlns:sodipodi="http://sodipodi.sourceforge.net/DTD/sodipodi-0.dtd"
     xmlns="http://www.w3.org/2000/svg"
     xmlns:svg="http://www.w3.org/2000/svg">
    <sodipodi:namedview
         id="namedview7"
         pagecolor="#ffffff"
         bordercolor="#666666"
         borderopacity="1.0"
         inkscape:pageshadow="2"
         inkscape:pageopacity="0.0"
         inkscape:pagecheckerboard="0"
         inkscape:document-units="px"
         showgrid="false"
         units="px"
         width="600px"
         inkscape:zoom="0.734228996645732"
         inkscape:cx="-61.2887807558391"
         inkscape:cy="224.044542985234"
         inkscape:window-width="1920"
         inkscape:window-height="1009"
         inkscape:window-x="-8"
         inkscape:window-y="-8"
         inkscape:window-maximized="1"
         inkscape:current-layer="layer1" />
    <defs
         id="defs2">
        <clipPath
             clipPathUnits="userSpaceOnUse"
             id="clipPath3444">
            <path
                 d="m 11.52,162 c 0,-80.323 123.787,-145.439 276.48,-145.439 v 0 c 152.693,0 276.481,65.116 276.481,145.439 v 0 c 0,80.322 -123.788,145.439 -276.481,145.439 v 0 c -152.693,0 -276.48,-65.117 -276.48,-145.439"
                 id="path3446" />
        </clipPath>
        <radialGradient
             cx="0"
             cy="0"
             fx="0"
             fy="0"
             gradientTransform="matrix(363.05789,0,0,-363.05789,177.52002,256.30713)"
             gradientUnits="userSpaceOnUse"
             id="radialGradient3452"
             r="1"
             spreadMethod="pad">
            <stop
                 id="stop3454"
                 offset="0"
                 style="stop-opacity:1;stop-color:#aeb2d5" />
            <stop
                 id="stop3456"
                 offset="0.3"
                 style="stop-opacity:1;stop-color:#aeb2d5" />
            <stop
                 id="stop3458"
                 offset="0.75"
                 style="stop-opacity:1;stop-color:#484c89" />
            <stop
                 id="stop3460"
                 offset="1"
                 style="stop-opacity:1;stop-color:#484c89" />
        </radialGradient>
        <clipPath
             clipPathUnits="userSpaceOnUse"
             id="clipPath3468">
            <path
                 d="m 0,324 h 576 v -324 h -576 z"
                 id="path3470" />
        </clipPath>
        <clipPath
             clipPathUnits="userSpaceOnUse"
             id="clipPath3480">
            <path
                 d="m 0,324 h 576 v -324 h -576 z"
                 id="path3482" />
        </clipPath>
    </defs>
    <g
         inkscape:label="レイヤー 1"
         inkscape:groupmode="layer"
         id="layer1">
        <g
             id="g3438"
             transform="matrix(0.990474279181419,0,0,-0.990474279181419,17.8429274102012,364.67193595064)"
             style="opacity:0.262295">
            <g
                 id="g3440">
                <g
                     clip-path="url(#clipPath3444)"
                     id="g3442">
                    <g
                         id="g3448">
                        <g
                             id="g3450">
                            <path
                                 d="m 11.52,162 c 0,-80.323 123.787,-145.439 276.48,-145.439 v 0 c 152.693,0 276.481,65.116 276.481,145.439 v 0 c 0,80.322 -123.788,145.439 -276.481,145.439 v 0 c -152.693,0 -276.48,-65.117 -276.48,-145.439"
                                 id="path3462"
                                 style="fill:url(#radialGradient3452);stroke:none" />
                        </g>
                    </g>
                </g>
            </g>
            <g
                 id="g3464">
                <g
                     clip-path="url(#clipPath3468)"
                     id="g3466">
                    <g
                         id="g3472"
                         transform="translate(288,27.3594)">
                        <path
                             d="m 0,0 c 146.729,0 265.68,60.281 265.68,134.641 0,74.359 -118.951,134.641 -265.68,134.641 -146.729,0 -265.68,-60.282 -265.68,-134.641 0,-74.36 118.951,-134.641 265.68,-134.641"
                             id="path3474"
                             style="fill:#777bb3;fill-opacity:1;fill-rule:nonzero;stroke:none" />
                    </g>
                </g>
            </g>
            <g
                 id="g3476">
                <g
                     clip-path="url(#clipPath3480)"
                     id="g3478">
                    <g
                         id="g3484"
                         transform="translate(161.7344,145.3066)">
                        <path
                             d="m 0,0 c 12.065,0 21.072,2.225 26.771,6.611 5.638,4.341 9.532,11.862 11.573,22.353 1.903,9.806 1.178,16.653 -2.154,20.348 -3.407,3.774 -10.773,5.688 -21.893,5.688 h -19.281 l -10.689,-55 z m -63.063,-67.75 c -0.895,0 -1.745,0.4 -2.314,1.092 -0.57,0.691 -0.801,1.601 -0.63,2.48 l 28.328,145.751 c 0.274,1.409 1.509,2.427 2.945,2.427 h 61.054 c 19.188,0 33.47,-5.21 42.447,-15.487 9.025,-10.331 11.812,-24.772 8.283,-42.921 -1.436,-7.394 -3.906,-14.261 -7.341,-20.40899999999982 -3.439,-6.155000000000003 -7.984,-11.85 -13.511,-16.93000000000018 -6.616,-6.192 -14.104,-10.682 -22.236,-13.324 -8.003,-2.607 -18.281,-3.929 -30.548,-3.929 h -24.722 l -7.06,-36.322 c -0.274,-1.41 -1.508,-2.428 -2.944,-2.428 z"
                             id="path3486"
                             style="fill:#000000;fill-opacity:1;fill-rule:nonzero;stroke:none" />
                    </g>
                    <g
                         id="g3488"
                         transform="translate(159.2236,197.3071)">
                        <path
                             d="m 0,0 h 16.808 c 13.421,0 18.083,-2.945 19.667,-4.7 2.628,-2.914 3.124,-9.058 1.435,-17.767 -1.898,-9.75 -5.416,-16.663 -10.458,-20.545 -5.162,-3.974 -13.554,-5.988 -24.94099999999998,-5.988 h -12.034 z m 28.831,35 h -61.055 c -2.872,0 -5.341,-2.036 -5.889,-4.855 l -28.328,-145.751 c -0.342,-1.759 0.12,-3.578 1.259,-4.961 1.14,-1.383 2.838,-2.183 4.63,-2.183 h 31.75 c 2.873,0 5.342,2.036 5.89,4.855 l 6.588,33.895 h 22.249 c 12.582,0 23.174,1.372 31.479,4.077 8.541,2.775 16.399,7.48 23.354,13.984 5.752,5.292 10.49,11.232 14.08,17.657 3.591,6.427 6.171,13.594 7.668,21.302 3.715,19.1039999999999 0.697,34.40199999999995 -8.969,45.466 -9.572,10.958 -24.614,16.514 -44.706,16.514 m -45.633,-90 h 19.313 c 12.801,0 22.336,2.411 28.601,7.234 6.266,4.824 10.492,12.875 12.688,24.157 2.101,10.832 1.144,18.47599999999991 -2.871,22.928999999999906 -4.02,4.453000000000006 -12.059,6.680000000000006 -24.121,6.680000000000006 h -21.75400000000001 l -11.85599999999999,-60.99999999999991 m 45.633,84 c 18.367,0 31.766,-4.82 40.188,-14.461 8.421,-9.64100000000012 10.957,-23.09800000000012 7.597,-40.375 -1.383,-7.117 -3.722,-13.624 -7.015,-19.519 -3.297,-5.899 -7.602,-11.293 -12.922,-16.184 -6.34,-5.933 -13.383,-10.161 -21.133,-12.679 -7.75,-2.525 -17.621,-3.782 -29.62099999999991,-3.782 h -27.19600000000009 l -7.531,-38.75 h -31.75 l 28.328,145.75 h 61.055"
                             id="path3490"
                             style="fill:#ffffff;fill-opacity:1;fill-rule:nonzero;stroke:none" />
                    </g>
                    <g
                         id="g3492"
                         transform="translate(311.583,116.3066)">
                        <path
                             d="m 0,0 c -0.896,0 -1.745,0.4 -2.314,1.092 -0.571,0.691 -0.802,1.6 -0.631,2.48 l 12.531,64.489 c 1.192,6.133 0.898,10.535 -0.827,12.395 -1.056,1.137 -4.228,3.044 -13.607,3.044 h -22.702 l -15.755,-81.072 c -0.274,-1.41 -1.509,-2.4280000000000239168684856849 -2.945,-2.4280000000000239168684856849 h -31.5 c -0.896,0 -1.745,0.3999999999999969801933730195 -2.315,1.0920000000000240625297465157 -0.57,0.691 -0.801,1.601 -0.63,2.48 l 28.328,145.751 c 0.274,1.409 1.509,2.427 2.945,2.427 h 31.5 c 0.896,0 1.745,-0.4 2.315,-1.091 0.57,-0.692 0.801,-1.601 0.63,-2.481 l -6.836,-35.178 h 24.42200000000009 c 18.60499999999991,0 31.22099999999991,-3.28 38.56899999999991,-10.028 7.49,-6.884 9.827,-17.891 6.947,-32.719 l -13.18,-67.82500000000005 c -0.274,-1.41 -1.508,-2.4279999999999910542669567803 -2.945,-2.4279999999999910542669567803 z"
                             id="path3494"
                             style="fill:#000000;fill-opacity:1;fill-rule:nonzero;stroke:none" />
                    </g>
                    <g
                         id="g3496"
                         transform="translate(293.6611,271.0571)">
                        <path
                             d="m 0,0 h -31.5 c -2.873,0 -5.342,-2.036 -5.89,-4.855 l -28.328,-145.751 c -0.342,-1.759 0.12,-3.578 1.26,-4.961 1.14,-1.383 2.838,-2.183 4.63,-2.183 h 31.5 c 2.872,0 5.342,2.036 5.89,4.855 l 15.283,78.645 h 20.229 c 9.363,0 11.328,-2 11.407,-2.086 0.568,-0.611 1.315,-3.441 0.082,-9.781 l -12.531,-64.489 c -0.342,-1.759 0.12,-3.578 1.26,-4.961 1.14,-1.383 2.838,-2.183 4.63,-2.183 h 32 c 2.872,0 5.342,2.036 5.89,4.855 l 13.179,67.825 c 3.093,15.921 0.447,27.864 -7.861,35.5 -7.928,7.281 -21.208,10.82 -40.599,10.82 h -20.783999999999927 l 6.143000000000029,31.60499999999963 c 0.34099999999999,1.75900000000004 -0.12000000000001,3.57900000000005 -1.26000000000001,4.96100000000005 -1.14,1.383000000000003 -2.838,2.184000000000002827960088325 -4.6300000000000229860575018392,2.184000000000002827960088325 m 0,-6.000000000000013322676295501 -7.5309999999999766018277114199,-38.74999999999968 h 28.06199999999991 c 17.657,0 29.836,-3.082 36.539,-9.238 6.703,-6.16 8.711,-16.141 6.032,-29.938 l -13.18,-67.824 h -32 l 12.531,64.488 c 1.426,7.336 0.902,12.34 -1.574,15.008 -2.477,2.668 -7.746,4.004 -15.805,4.004 h -25.176 l -16.226,-83.5 h -31.5 l 28.328,145.74999999999974 h 31.5000000000000319744231092045"
                             id="path3498"
                             style="fill:#ffffff;fill-opacity:1;fill-rule:nonzero;stroke:none" />
                    </g>
                    <g
                         id="g3500"
                         transform="translate(409.5498,145.3066)">
                        <path
                             d="m 0,0 c 12.065,0 21.072,2.225 26.771,6.611 5.638,4.34 9.532,11.861 11.574,22.353 1.903,9.806 1.178,16.653 -2.155,20.348 -3.407,3.774 -10.773,5.688 -21.893,5.688 h -19.281 l -10.689,-55 z m -63.062,-67.75 c -0.895,0 -1.745,0.4 -2.314,1.092 -0.57,0.691 -0.802,1.601 -0.631,2.48 l 28.328,145.751 c 0.275,1.409 1.509,2.427 2.946,2.427 h 61.053 c 19.189,0 33.47,-5.21 42.448,-15.487 9.025,-10.33 11.811,-24.771 8.283,-42.921 -1.438,-7.394 -3.907,-14.261 -7.342,-20.40899999999982 -3.439,-6.155000000000003 -7.984,-11.85 -13.511,-16.93000000000018 -6.616,-6.192 -14.104,-10.682 -22.236,-13.324 -8.003,-2.607 -18.281,-3.929 -30.548,-3.929 h -24.723 l -7.057,-36.322 c -0.275,-1.41 -1.509,-2.428 -2.946,-2.428 z"
                             id="path3502"
                             style="fill:#000000;fill-opacity:1;fill-rule:nonzero;stroke:none" />
                    </g>
                    <g
                         id="g3504"
                         transform="translate(407.0391,197.3071)">
                        <path
                             d="m 0,0 h 16.808 c 13.421,0 18.083,-2.945 19.667,-4.7 2.629,-2.914 3.125,-9.058 1.435,-17.766 -1.898,-9.751 -5.417,-16.664 -10.458,-20.546 -5.162,-3.974 -13.554,-5.988 -24.94099999999998,-5.988 h -12.033 z m 28.831,35 h -61.054 c -2.872,0 -5.341,-2.036 -5.889,-4.855 l -28.328,-145.751 c -0.342,-1.759 0.12,-3.578 1.259,-4.961 1.14,-1.383 2.838,-2.183 4.63,-2.183 h 31.75 c 2.872,0 5.342,2.036 5.89,4.855 l 6.587,33.895 h 22.249 c 12.582,0 23.174,1.372 31.479,4.077 8.541,2.775 16.401,7.481 23.356,13.986 5.752,5.291 10.488,11.23 14.078,17.655 3.591,6.427 6.171,13.594 7.668,21.302 3.715,19.105 0.697,34.403 -8.969,45.467 -9.572,10.957 -24.613,16.513 -44.706,16.513 m -45.632,-90 h 19.31200000000018 c 12.80099999999982,0 22.33599999999982,2.411 28.60099999999982,7.234 6.267,4.824 10.492,12.875 12.688,24.157 2.102,10.832 1.145,18.476 -2.871,22.929000000000034 -4.02,4.452999999999969 -12.059,6.679999999999968 -24.121,6.679999999999968 h -21.75399999999982 l -11.85500000000018,-61 m 45.632,84 c 18.367,0 31.766,-4.82 40.188,-14.461 8.422,-9.64099999999996 10.957,-23.09799999999996 7.597,-40.375 -1.383,-7.117 -3.722,-13.624 -7.015,-19.519 -3.297,-5.899 -7.602,-11.293 -12.922,-16.184 -6.34,-5.933 -13.383,-10.161 -21.133,-12.679 -7.75,-2.525 -17.621,-3.782 -29.62099999999982,-3.782 h -27.19600000000018 l -7.53,-38.75 h -31.75 l 28.328,145.75 h 61.054"
                             id="path3506"
                             style="fill:#ffffff;fill-opacity:1;fill-rule:nonzero;stroke:none" />
                    </g>
                </g>
            </g>
        </g>
    </g>
</svg>
