<?xml version="1.0" encoding="UTF-8" standalone="no"?>
<svg
     width="2500"
     height="2500"
     viewBox="0 0 257.960499798468 258"
     version="1.1"
     id="svg8"
     sodipodi:docname="xampp.svg"
     inkscape:version="1.1 (c68e22c387, 2021-05-23)"
     inkscape:export-filename="C:\Program Files\XAMPP\htdocs\koko-campus.org\subjects\php入門\pics\to-xampp.png"
     inkscape:export-xdpi="19.2000007629395"
     inkscape:export-ydpi="19.2000007629395"
     xmlns:inkscape="http://www.inkscape.org/namespaces/inkscape"
     xmlns:sodipodi="http://sodipodi.sourceforge.net/DTD/sodipodi-0.dtd"
     xmlns="http://www.w3.org/2000/svg"
     xmlns:svg="http://www.w3.org/2000/svg">
    <defs
         id="defs12" />
    <sodipodi:namedview
         id="namedview10"
         pagecolor="#ffffff"
         bordercolor="#666666"
         borderopacity="1.0"
         inkscape:pageshadow="2"
         inkscape:pageopacity="0.0"
         inkscape:pagecheckerboard="0"
         showgrid="false"
         inkscape:zoom="0.233062395140572"
         inkscape:cx="707.96492029733"
         inkscape:cy="1383.74961694478"
         inkscape:window-width="1920"
         inkscape:window-height="1009"
         inkscape:window-x="-8"
         inkscape:window-y="-8"
         inkscape:window-maximized="1"
         inkscape:current-layer="svg8" />
    <g
         fill="none"
         fill-rule="evenodd"
         id="g6"
         transform="matrix(0.956757793653683,0,0,0.956757793653683,7.88039816133496,6.72848458388445)">
        <path
             d="m 127.929,0.002 c 33.227,0 66.455,0 99.682,-0.002 4.17,0 8.3,0.362 12.301,1.582 8.675,2.644 13.268,8.865 15.068,17.438 0.715,3.4 0.918,6.865 0.925,10.33 0.053,23.27 0.092,46.542 0.094,69.814 0.002,42.384 0.007,84.768 -0.08,127.151 -0.012,5.933 -0.328,11.931 -3.257,17.336 -3.249,5.994 -7.697,10.738 -14.45,12.824 -1.22,0.377 -2.494,0.806 -3.745,0.806 -2.882,0.002 -5.687,0.716 -8.56,0.716 -65.067,-0.005 -130.133,0.033 -195.2,-0.07 -5.292,-0.01 -10.67,-0.395 -15.697,-2.548 -1,-0.43 -2.01,-0.79 -2.89,-1.46 -6.40000000000013,-4.877 -10.74600000000013,-10.96 -11.67800000000007,-19.191 -0.335,-2.968 -0.4419999999999988382626270322,-5.92 -0.4419999999999988382626270322,-8.889 0.00999999999999983302245709,-65.952 0.015999999999999834798813935,-131.904 0.049999999999999831246100256,-197.856 0.003,-3.826 0.042,-7.718 1.2189999999999798,-11.38 3.13400000000006,-9.757 9.99200000000009,-15.084 20.15800000000009,-16.166 2.363,-0.252 4.746,-0.415 7.12,-0.4169999999999999 33.125,-0.027 66.254,-0.018 99.381,-0.018 z"
             fill="#fb7a24"
             id="path2" />
        <path
             d="m 128.775,164.113 c -0.727,4.454 -1.238,8.48 -2.838,12.19 -7.49,17.384 -20.256,27.977 -39.394,30.086 -22.621,2.492 -43.515,-11.47 -49.797,-33.154 -2.277,-7.858 -2.049,-15.869 -1.223,-23.867 0.881,-8.546 3.399,-16.65 7.33,-24.296 0.563,-1.093 0.552,-1.918 -0.152,-2.977 -6.036,-9.078 -8.378,-19.107 -7.528,-29.932 0.455,-5.786 1.86,-11.32 4.483,-16.504 7.689,-15.185 24.57,-28.072 47.179,-25.932 19.88,1.88 38.293,19.029 41.167,38.315 0.145,0.968 0.417,1.918 0.735,3.346 0.476,-2.586 0.82,-4.72 1.265,-6.834 3.703,-17.521 20.854,-35.855 45.164,-36.082 24.64,-0.228 42.887,19.097 46.33,37.045 1.455,7.585 1.202,15.163 0.002,22.738 a 81.02,81.02 0 0 1 -6.672,21.775 c -0.716,1.529 -0.642,2.63 0.275,4.05 5.307,8.224 7.649,17.252 7.349,27.056 -0.628,20.457 -15.097,38.802 -35.002,43.6 -27.79,6.697 -49.093,-9.923 -56.262,-30.031 -1.17,-3.273 -1.723,-6.69 -2.41,-10.592 z m 50.489,-35.94 c 0.297,-1.157 1.193,-1.85 1.837,-2.706 6.968,-9.26 10.633,-19.603 9.815,-31.25 -0.596,-8.5 -7.587,-14.488 -16.05,-14.171 -8.469,0.317 -14.85,6.848 -14.97,15.322 -0.009,0.694 0.033,1.389 -0.01,2.078 -0.583,9.031 -5.566,13.978 -13.117,14.53 -1.379,0.101 -2.762,0.224 -4.143,0.228 -9.8,0.022 -19.599,0.018 -29.4,0.009 -4.28,-0.004 -8.524,0.462 -12.6,1.72 -19.027,5.87 -30.122,18.882 -33.796,38.275 -0.728,3.837 -1.383,7.819 -0.125,11.76 1.805,5.653 5.17,9.857 11.126,11.263 6.173,1.457 11.55,-0.155 15.822,-5.004 2.761,-3.135 3.632,-6.86 3.838,-10.948 0.534,-10.515 6.26,-15.771 15.81,-15.692 14.649,0.122 29.3,0.026 43.951,0.037 2.6,0.001 2.624,0.036 2.637,2.608 0.025,4.75 -0.121,9.507 0.062,14.252 0.298,7.747 7.114,14.186 15.016,14.413 8.148,0.233 15.411,-5.794 15.942,-13.661 0.458,-6.81 0.429,-13.661 -0.018,-20.476 -0.346,-5.275 -3.2,-9.035 -8.036,-11.217 -1.16,-0.522 -2.38,-0.913 -3.591,-1.37 z m -91.832,-15.984 c 3.151,0 5.723,-0.029 8.293,0.013 1.274,0.02 1.746,-0.528 1.736,-1.777 -0.042,-4.943 0.213,-9.902 -0.102,-14.827 -0.416,-6.497 -3.871,-11.194 -9.92,-13.563 -6.202,-2.429 -11.878,-1.043 -16.678,3.538 -4.821,4.603 -5.464,10.232 -3.777,16.392 1.55,5.662 5.21,8.878 10.968,9.85 3.344,0.563 6.707,0.293 9.48,0.374 z"
             fill="#ffffff"
             id="path4" />
    </g>
</svg>
