<?xml version="1.0" encoding="UTF-8" standalone="no"?>
<!-- Created with Inkscape (http://www.inkscape.org/) -->

<svg
     width="600"
     height="400"
     viewBox="0 0 600 400"
     version="1.1"
     id="svg5"
     sodipodi:docname="20220403.svg"
     inkscape:version="1.1 (c68e22c387, 2021-05-23)"
     inkscape:export-filename="C:\Program Files\XAMPP\htdocs\koko-campus.org\blog2\data\20220403.png"
     inkscape:export-xdpi="96"
     inkscape:export-ydpi="96"
     xmlns:inkscape="http://www.inkscape.org/namespaces/inkscape"
     xmlns:sodipodi="http://sodipodi.sourceforge.net/DTD/sodipodi-0.dtd"
     xmlns="http://www.w3.org/2000/svg"
     xmlns:svg="http://www.w3.org/2000/svg">
    <sodipodi:namedview
         id="namedview7"
         pagecolor="#ffffff"
         bordercolor="#666666"
         borderopacity="1.0"
         inkscape:pageshadow="2"
         inkscape:pageopacity="0.0"
         inkscape:pagecheckerboard="0"
         inkscape:document-units="px"
         showgrid="false"
         units="px"
         width="600px"
         inkscape:zoom="0.7501"
         inkscape:cx="429.28"
         inkscape:cy="267.3"
         inkscape:window-width="1920"
         inkscape:window-height="1009"
         inkscape:window-x="-8"
         inkscape:window-y="-8"
         inkscape:window-maximized="1"
         inkscape:current-layer="layer1" />
    <defs
         id="defs2" />
    <g
         inkscape:label="レイヤー 1"
         inkscape:groupmode="layer"
         id="layer1">
        <path
             style="fill:none;stroke:black;stroke-width:1px;stroke-linecap:butt;stroke-linejoin:miter;stroke-opacity:1"
             d="m 24.663,327.29 c 0,-4.81 -0.241,-3.3 1.334,-9.33 2.262,-8.67 4.494,-17.31 6.665,-26 0.467,-1.86 -0.191,-4.94 0,-6.66 0.332,-2.99 2.028,-6.46 2.667,-9.34 0.173,-0.78 0.766,-2.56 1.333,-2 2.952,2.96 4.385,15.97 5.333,20 0.58,2.47 1.198,4.93 1.999,7.33 1.482,4.45 1.667,1.11 3.333,6.67 0.256,0.85 -0.234,1.81 0,2.67 0.962,3.52 2.825,7.14 4,10.66"
             id="path858" />
        <path
             style="fill:none;stroke:black;stroke-width:1px;stroke-linecap:butt;stroke-linejoin:miter;stroke-opacity:1"
             d="m 29.996,300.63 c 4.444,0 8.888,0 13.332,0"
             id="path860" />
        <path
             style="fill:none;stroke:black;stroke-width:1px;stroke-linecap:butt;stroke-linejoin:miter;stroke-opacity:1"
             d="m 57.326,271.3 c 3.444,-8.78 6.656,-17.65 10.332,-26.33 5.87,-13.87 9.583,-23.7 21.664,-32.33"
             id="path862" />
        <path
             style="fill:none;stroke:black;stroke-width:1px;stroke-linecap:butt;stroke-linejoin:miter;stroke-opacity:1"
             d="m 77.323,214.31 c 0.55,0.72 10.95,-4.39 12.332,-3 0.176,0.17 0.158,0.49 0.333,0.66 0.176,0.18 0.569,0.11 0.667,0.34 0.266,0.62 0.155,1.34 0.333,2 0.158,0.57 0.502,1.09 0.667,1.66 0.661,2.32 -0.618,1.97 1,4.67"
             id="path864" />
        <path
             style="fill:none;stroke:black;stroke-width:1px;stroke-linecap:butt;stroke-linejoin:miter;stroke-opacity:1"
             d="m 71.324,303.29 c 5.969,2.39 -3.934,-1.71 10.999,7 4.764,2.78 9.697,5.27 14.664,7.67 4.113,1.99 8.813,3.11 13.003,5 1.88,0.85 3.7,1.94 5.66,2.66 5.08,1.88 10.53,2.62 15.67,4.34 1.13,0.38 2.17,1.03 3.33,1.33 1.41,0.37 2.9,0.38 4.33,0.67 2.49,0.49 4.85,1.46 7.33,2 7.76,1.66 -0.65,-0.22 4,1.33 0.64,0.21 1.35,-0.11 2,0 0.25,0 0.42,0.33 0.67,0.33 0.68,0 -0.4,-0.28 -1.67,-1 -0.79,-0.45 -3.54,-2.14 -4,-2.66 -1.42,-1.63 -1.58,-5.92 -3.33,-7.67"
             id="path866" />
        <path
             style="fill:none;stroke:black;stroke-width:1px;stroke-linecap:butt;stroke-linejoin:miter;stroke-opacity:1"
             d="m 152.31,335.29 c -4.69,4.69 1.47,-1.14 -7.66,5.33 -0.9,0.64 -1.56,1.56 -2.34,2.34"
             id="path868" />
        <path
             style="fill:none;stroke:black;stroke-width:1px;stroke-linecap:butt;stroke-linejoin:miter;stroke-opacity:1"
             d="m 107.65,172.64 c -0.59,8.36 2.67,23.1 2.67,31"
             id="path870" />
        <path
             style="fill:none;stroke:black;stroke-width:1px;stroke-linecap:butt;stroke-linejoin:miter;stroke-opacity:1"
             d="m 107.65,172.64 c 2.65,1.01 5.62,0.33 8.33,1 0.11,0 -0.1,0.28 0,0.34 1.35,0.89 3.47,1.46 4.67,2.66 0.16,0.16 -0.1,0.46 0,0.67 0.84,2.53 -0.12,-0.12 0.67,0.67 0.54,0.54 -0.28,3.27 -0.67,3.66 -0.32,0.33 -0.92,0.13 -1.33,0.34 -0.28,0.14 -0.39,0.52 -0.67,0.66 -0.25,0.13 -0.77,-0.15 -1,0 -1.5,1 -2.93,2.14 -4.66,3 -0.45,0.22 -1.2,-0.16 -1.67,0 -2.42,0.81 0.52,-0.1 -1,0.67 -0.1,0.1 -0.33,-0.11 -0.33,0 0,0.11 1.54,0.28 1.66,0.33 0.37,0.15 0.63,0.52 1,0.67 0.63,0.25 1.37,0.1 2,0.33 0.47,0.18 0.86,0.53 1.33,0.67 0.92,0.26 2.07,0.1 3,0.33 0.59,0.15 1.48,0.98 2,1.34 2.4,1.59 2.67,1.88 2.67,4.99 0,0.56 0.39,1.28 0,1.67 -0.1,0.1 -0.24,-0.1 -0.33,0 -1.12,0.84 -2.05,2.03 -3.34,2.67 -0.19,0.1 -0.45,-0.1 -0.66,0 -0.88,0.29 -1.11,0.55 -2,1 -0.4,0.2 -0.92,-0.17 -1.34,0 -0.52,0.21 -1.11,1.06 -1.66,1.33 -0.53,0.27 -1.47,-0.27 -2,0 -0.1,0.1 0.1,0.25 0,0.33 -0.1,0.1 -0.22,0 -0.33,0 -0.56,0.56 -1.11,1.11 -1.67,1.67"
             id="path872" />
        <path
             style="fill:none;stroke:black;stroke-width:1px;stroke-linecap:butt;stroke-linejoin:miter;stroke-opacity:1"
             d="m 196.64,327.96 c -2.71,-1.65 -6.11,-3 -9.33,-3 -2.3,0 -4.47,-0.1 -6.67,0.66 -0.1,0 0.1,0.27 0,0.34 -0.39,0.3 -0.98,0.31 -1.33,0.66 -0.68,0.68 -1.08,1.58 -1.67,2.34 -0.19,0.24 -0.52,0.38 -0.66,0.66 -0.15,0.3 -0.48,10.17 -0.34,10.67 0.1,0.19 1.47,2.26 1.67,2.67 0.35,0.69 0.64,0.1 1.33,0.33 0.59,0.23 0.8,1.01 1.34,1.33 0.6,0.36 1.37,0.35 2,0.67 3.41,1.71 4.36,2 8.33,2 0.66,0 1.35,0.16 2,0 1.55,-0.39 6.66,-2.34 6.66,-4.33"
             id="path874" />
        <path
             style="fill:none;stroke:black;stroke-width:1px;stroke-linecap:butt;stroke-linejoin:miter;stroke-opacity:1"
             d="m 153.98,165.98 c 2.89,-4.67 6.41,-9 8.67,-14 3.77,-8.4 5.8,-17.49 9.33,-26 1.37,-3.31 3.73,-6.12 5.33,-9.33 0.94,-1.88 0.83,-4.24 2,-6 1.23,-1.84 3.55,-3.38 4.67,-5.33 0.59,-1.04 0.79,-2.26 1.33,-3.33 0.68,-1.36 2.99,-3.307 3.33,-4.669 0.16,-0.647 -0.16,-1.353 0,-2 0.37,-1.464 8.39,-8.94 7.33,-9.999 -0.62,-0.628 -1.77,0 -2.66,0 -5.11,0 -10.22,0 -15.33,0 -0.45,0 -0.94,-0.199 -1.34,0 -3.92,1.962 2.07,1.333 -4,1.333"
             id="path876" />
        <path
             style="fill:none;stroke:black;stroke-width:1px;stroke-linecap:butt;stroke-linejoin:miter;stroke-opacity:1"
             d="m 195.97,84.656 c 0.65,7.283 5.16,13.18 8.67,19.334"
             id="path878" />
        <path
             style="fill:none;stroke:black;stroke-width:1px;stroke-linecap:butt;stroke-linejoin:miter;stroke-opacity:1"
             d="m 213.97,36.662 c 5.63,11.664 9.33,24.961 9.33,37.995"
             id="path880" />
        <path
             style="fill:none;stroke:black;stroke-width:1px;stroke-linecap:butt;stroke-linejoin:miter;stroke-opacity:1"
             d="m 213.97,36.662 c 13.95,1.31 20.67,0.68 26.67,12.665 2.59,5.199 2.66,3.236 2.66,9.332 0,0.136 0.33,4.337 0,4.666 -1.05,1.054 -2.72,1.233 -4,2 -2.13,1.28 -3.93,3.299 -6.66,4.666 -3.93,1.961 -5.4,0.73 -9.34,4.666"
             id="path882" />
        <path
             style="fill:none;stroke:black;stroke-width:1px;stroke-linecap:butt;stroke-linejoin:miter;stroke-opacity:1"
             d="m 175.98,184.64 c 10.11,1.05 19.9,4.23 29.99,5.34 9.3,1.01 44.65,2.44 54.66,-2 1.18,-0.53 9.33,-2.03 9.33,-2.67 0,-1.07 -1.73,-0.54 -2,-0.67 -3.89,-1.95 -8.73,-6.66 -12.66,-6.66"
             id="path884" />
        <path
             style="fill:none;stroke:black;stroke-width:1px;stroke-linecap:butt;stroke-linejoin:miter;stroke-opacity:1"
             d="m 267.96,186.64 c -3.42,18.49 -0.6,12.54 -3.99,19.33"
             id="path886" />
        <path
             style="fill:none;stroke:black;stroke-width:1px;stroke-linecap:butt;stroke-linejoin:miter;stroke-opacity:1"
             d="m 303.96,198.64 c -1.08,-14.34 -5.85,-27.94 -8.67,-41.99 -0.73,-3.67 -2.73,-10.63 -2.66,-10.67 1.25,-0.63 13.58,0 14,0 0.49,0 0.86,-0.51 1.33,-0.67 1.01,-0.33 2.97,0 4,0"
             id="path888" />
        <path
             style="fill:none;stroke:black;stroke-width:1px;stroke-linecap:butt;stroke-linejoin:miter;stroke-opacity:1"
             d="m 301.96,171.31 c 5.18,0.99 10.21,-0.67 15.33,-0.67"
             id="path890" />
        <path
             style="fill:none;stroke:black;stroke-width:1px;stroke-linecap:butt;stroke-linejoin:miter;stroke-opacity:1"
             d="m 303.96,198.64 c 18.64,-4.83 11.8,-4.67 20,-4.67"
             id="path892" />
        <path
             style="fill:none;stroke:black;stroke-width:1px;stroke-linecap:butt;stroke-linejoin:miter;stroke-opacity:1"
             d="m 235.3,335.96 c 67.92,-1.34 12.2,3.13 46,-4.67 4.59,-1.06 9.36,-1.14 13.99,-2 2.14,-0.16 3.94,-1.59 6,-2 1.03,-0.2 15.39,-1.28 13.34,-3.33 -0.5,-0.5 -1.38,-0.35 -2,-0.67 -4.55,-2.27 -10.46,-4.46 -14,-8"
             id="path894" />
        <path
             style="fill:none;stroke:black;stroke-width:1px;stroke-linecap:butt;stroke-linejoin:miter;stroke-opacity:1"
             d="m 315.29,323.96 c -1.75,4.01 -3.37,8.08 -5.33,12"
             id="path896" />
        <path
             style="fill:none;stroke:black;stroke-width:1px;stroke-linecap:butt;stroke-linejoin:miter;stroke-opacity:1"
             d="m 329.96,286.63 c 6.3,21.49 8,28.43 8,53.99"
             id="path898" />
        <path
             style="fill:none;stroke:black;stroke-width:1px;stroke-linecap:butt;stroke-linejoin:miter;stroke-opacity:1"
             d="m 329.96,286.63 c 9.11,-1.56 18.22,-3.11 27.33,-4.67"
             id="path900" />
        <path
             style="fill:none;stroke:black;stroke-width:1px;stroke-linecap:butt;stroke-linejoin:miter;stroke-opacity:1"
             d="m 337.29,305.29 c 7.33,0 14.66,0 22,0"
             id="path902" />
        <path
             style="fill:none;stroke:black;stroke-width:1px;stroke-linecap:butt;stroke-linejoin:miter;stroke-opacity:1"
             d="m 231.3,360.62 c 2.17,5.51 5.92,10.14 8.67,15.33 0.79,1.5 1.06,3.26 2,4.67 1.19,1.79 5.88,7.22 8,9.33 1.38,1.38 -0.1,-2.11 1.33,0.67 0.1,0.19 0,0.44 0,0.66 0.22,0.45 0.39,0.92 0.67,1.34 1.02,1.53 0.38,-0.29 2,1.33 3.41,3.41 4.1,8.15 6.66,12 2.17,3.24 2.12,3.28 4,6.66 0.54,0.97 1.13,1.97 2,2.67 0.35,0.28 0.91,-0.14 1.33,0 1.09,0.36 4,2.2 4,3.33"
             id="path904" />
        <path
             style="fill:none;stroke:black;stroke-width:1px;stroke-linecap:butt;stroke-linejoin:miter;stroke-opacity:1"
             d="m 271.96,57.326 c 3.41,1.495 19.87,7.201 23.33,10.665 4.22,4.213 7.23,9.186 10.67,13.998 4.06,5.684 7.69,11.407 11.33,17.331 1,1.63 2.44,2.98 3.33,4.67 2.15,4.04 3.42,8.5 5.34,12.66 3.64,7.9 7.91,15.35 11.33,23.33 1.83,4.27 2.22,9.07 4,13.33 0.5,1.2 1.47,2.15 2,3.34 1.53,3.44 1.18,7.77 2,11.33 0.27,1.16 1.11,2.15 1.33,3.33 0.45,2.41 0.29,4.91 0.67,7.33 1.55,9.83 0.7,1.46 2.66,8.67 2.22,8.11 -0.1,17.03 1.34,25.33 1.61,9.7 -0.25,-2.87 0.66,10 0.51,7.11 0.67,14.14 0.67,21.33 0,2.02 0.5,4.67 0,6.66 -0.34,1.37 -0.99,2.64 -1.33,4 -0.31,1.24 -0.28,7.34 -2.67,7.34"
             id="path906" />
        <path
             style="fill:none;stroke:black;stroke-width:1px;stroke-linecap:butt;stroke-linejoin:miter;stroke-opacity:1"
             d="m 333.29,249.97 c 5.56,-3.2 11.45,15.05 13.33,16 3.34,1.67 10.47,-11.24 12,-12 0.48,-0.24 10.07,-1.75 11.33,-2"
             id="path908" />
        <path
             style="fill:none;stroke:black;stroke-width:1px;stroke-linecap:butt;stroke-linejoin:miter;stroke-opacity:1"
             d="m 269.3,140.65 c -14.24,-0.13 -16.81,-16.06 -20.67,-26.66 -1.82,-5.01 -4.94,-10.07 -6,-15.336 -0.36,-1.818 0.68,-4.301 0,-5.999 -0.29,-0.744 -1.07,-1.24 -1.33,-2 0,-4.728 0.47,-0.391 -0.66,-2.667 -0.53,-1.059 0.29,-2.825 0,-3.999 -0.42,-1.65 -2.08,-2.911 -3.34,-1.333 -3.44,4.304 -5.72,16.385 -6.66,17.331"
             id="path910" />
        <path
             style="fill:none;stroke:black;stroke-width:1px;stroke-linecap:butt;stroke-linejoin:miter;stroke-opacity:1"
             d="m 241.3,90.655 c 16.9,-3.52 10.71,-4.654 18.67,-2.667"
             id="path912" />
        <path
             style="fill:none;stroke:black;stroke-width:1px;stroke-linecap:butt;stroke-linejoin:miter;stroke-opacity:1"
             d="m 188.64,297.96 c -2.22,-8.22 -3.69,-16.68 -6.66,-24.66 -3.06,-8.19 -9.09,-15.69 -13.34,-23.33 -1.88,-3.4 -3.06,-7.14 -4.66,-10.67 -1.12,-2.46 -2.2,-2.34 -4,-4.66 -1.59,-2.05 -2.29,-4.72 -4,-6.67 -0.73,-0.84 -1.88,-1.21 -2.67,-2 -0.8,-0.8 -0.16,-2.32 -0.66,-3.33 -0.71,-1.41 -2.5,-2 -3.34,-3.34 -0.63,-1.01 -0.63,-2.35 -1.33,-3.33 -0.47,-0.65 -1.43,-0.76 -2,-1.33 -0.78,-0.79 -1.01,-2.17 -2,-2.67 -0.4,-0.2 -0.93,0.2 -1.33,0 -2.23,-1.11 -2.32,-1.88 -4.67,-2.66"
             id="path914" />
        <path
             style="fill:none;stroke:black;stroke-width:1px;stroke-linecap:butt;stroke-linejoin:miter;stroke-opacity:1"
             d="m 137.32,230.64 c -0.7,-21.56 -0.67,-13.78 -0.67,-23.33 0,-0.23 -0.19,-0.55 0,-0.67 6.01,-4.01 14.27,-4 21.33,-4"
             id="path916" />
        <path
             style="fill:none;stroke:black;stroke-width:1px;stroke-linecap:butt;stroke-linejoin:miter;stroke-opacity:1"
             d="m 99.987,156.65 c -2.666,-2.45 -6.226,-4.18 -7.999,-7.34 -12.778,-22.71 -15.998,-49.1 -15.998,-74.653 0,-6.178 -1.076,-16.923 0,-22.664 1.061,-5.659 2.022,-4.48 2.666,-8.665 1.105,-7.182 1.716,-15.655 3.333,-22.664 0.224,-0.968 1.041,-1.717 1.333,-2.666 2.308,-7.5 0.579,-4.419 2,-11.9988 0.878,-4.6816 3.622,-7.8233 4.666,-11.9984 0.216,-0.8623 -0.174,-1.7948 0,-2.6663 0.06,-0.3082 0.556,-0.3724 0.667,-0.6666 0.568,-1.5149 0.664,-3.1939 1.333,-4.6659 1.007,-2.216 3.653,-5.653 5.333,-7.333"
             id="path918" />
        <path
             style="fill:none;stroke:black;stroke-width:1px;stroke-linecap:butt;stroke-linejoin:miter;stroke-opacity:1"
             d="m 85.322,177.31 c -7.332,0 -14.665,0 -21.997,0 -18.683,0 -38.146,-1.76 -56.6592,0 -6.99681,0.67 -13.8393,2.42 -20.6638,4 -3.525,0.81 -7.156,1.12 -10.665,2 -2.202,0.55 -9.901,4 -11.999,4"
             id="path920" />
        <path
             style="fill:none;stroke:black;stroke-width:1px;stroke-linecap:butt;stroke-linejoin:miter;stroke-opacity:1"
             d="m 39.995,251.3 c 2.444,-12 4.222,-24.15 7.332,-35.99 7.616,-29 21.352,-55.37 34.662,-81.99 2.624,-5.25 4.632,-10.79 7.333,-16 1.877,-3.62 4.33,-6.95 5.999,-10.67 1.236,-2.76 1.526,-5.86 2.666,-8.663 2.323,-5.706 5.033,-11.265 8.003,-16.664 4.78,-8.7 10.99,-16.746 15.99,-25.33 3.01,-5.15 5.54,-10.571 8,-15.998 0.79,-1.728 1.12,-3.65 2,-5.333 5.65,-10.832 15.32,-24.126 23.33,-33.3288 10.87,-12.4742 6.68,-5.9732 17.33,-15.9982 1.27,-1.189 2.07,-2.81 3.34,-3.999 0.23,-0.216 13.45,-11.279 14.66,-11.999 3.59,-2.128 7.6,-3.465 11.33,-5.332 4.54,-2.268 8.8,-5.065 13.34,-7.333 3.06,-1.532 1.16,0.173 2.66,-1.333"
             id="path922" />
        <path
             style="fill:none;stroke:black;stroke-width:1px;stroke-linecap:butt;stroke-linejoin:miter;stroke-opacity:1"
             d="m 163.31,305.29 c -18.34,-6.43 -30.46,-20.77 -41.33,-35.99 -3.04,-4.27 -6.7,-8.13 -9.33,-12.67 -1.49,-2.58 -2.23,-5.59 -4,-8 -0.76,-1.04 -2.57,-0.95 -3.33,-2 -4.02,-5.56 -6.25,-12.24 -9.999,-17.99 -1.651,-2.53 -3.731,-4.77 -5.333,-7.34 -4.83,-7.72 -8.558,-16.24 -13.331,-23.99 -0.964,-1.57 -8.952,-12 -9.999,-14 -2.546,-4.86 -3.741,-10.33 -5.999,-15.33 -3.028,-6.71 -6.75,-13.11 -9.332,-20 -1.062,-2.83 -1.439,-5.9 -2.667,-8.66 -3.509,-7.9 -9.106,-14.76 -12.665,-22.67 -2.977,-6.62 -4.976,-13.22 -7.332,-19.996 -3.018,-8.677 -6.583,-17.457 -9.999,-25.997 -1.738,-4.345 -4.058,-8.872 -5.332,-13.331 -0.623,-2.179 -0.727,-4.483 -1.334,-6.666 -2.1611,-7.781 -5.06,-15.774 -7.9985,-23.33 -0.7932,-2.04 -2.1356,-3.876 -2.6663,-5.999 -0.81554,-3.262 -0.78043,-6.683 -1.3332,-9.999 -1.6358,-9.815 -4.0455,-19.5611 -5.9992,-29.33"
             id="path924" />
        <path
             style="fill:none;stroke:black;stroke-width:1px;stroke-linecap:butt;stroke-linejoin:miter;stroke-opacity:1"
             d="m 286.63,219.3 c -8.65,4.31 -13.94,12.84 -20,20 -2.42,2.87 -5.59,5.12 -8,8 -2.35,2.83 -1.85,3.36 -3.33,5.33 -0.3,0.4 -1.04,0.27 -1.33,0.67 -0.42,0.56 -0.28,1.42 -0.67,2 -4.11,6.17 0.1,-1.59 -4,3.33 -1.35,1.63 -1.31,3.05 -2.67,4.67 -5.57,6.69 -9.94,14.4 -15.33,21.33 -0.5,0.64 -12,18.64 -12.66,16.66 -1.15,-3.44 -0.44,-6.39 -0.67,-9.99 -0.24,-3.87 -1.65,-7.52 -2,-11.34 -0.32,-3.5 0,-7.14 0,-10.66"
             id="path926" />
        <path
             style="fill:none;stroke:black;stroke-width:1px;stroke-linecap:butt;stroke-linejoin:miter;stroke-opacity:1"
             d="m 220.64,300.63 c 10.19,2.38 17.62,-5.53 26.66,-7.34 2.55,-0.5 3.79,0.89 5.33,-0.66"
             id="path928" />
        <path
             style="fill:none;stroke:black;stroke-width:1px;stroke-linecap:butt;stroke-linejoin:miter;stroke-opacity:1"
             d="m 331.96,162.65 c 13.84,-10.53 16.71,-25.43 23.99,-40 3.42,-6.84 8.58,-13.16 12,-20 0.73,-1.44 0.78,-3.145 1.33,-4.663 1,-2.71 2.42,-5.259 3.34,-7.999 0.43,-1.282 0.13,-2.757 0.66,-3.999 0.83,-1.927 2.4,-3.458 3.34,-5.333 0.85,-1.698 1.15,-3.635 2,-5.333 0.93,-1.874 2.39,-3.457 3.33,-5.332 3.93,-9.835 1.1,-3.575 6,-12.665 0.47,-0.875 0.89,-1.778 1.33,-2.666 0.22,-0.445 0.89,-0.889 0.67,-1.334 -0.26,-0.527 -13.97,0.641 -15.33,2"
             id="path934" />
        <path
             style="fill:none;stroke:black;stroke-width:1px;stroke-linecap:butt;stroke-linejoin:miter;stroke-opacity:1"
             d="m 391.28,57.326 c 6.15,19.805 2.98,13.296 6.67,20.664"
             id="path936" />
        <path
             style="fill:none;stroke:black;stroke-width:1px;stroke-linecap:butt;stroke-linejoin:miter;stroke-opacity:1"
             d="m 379.95,298.63 c 34.64,-29.31 -0.77,1.62 38.66,-36.66 8.01,-7.78 16.52,-15.03 24.67,-22.67 6.3,-5.91 12.55,-11.88 18.66,-18 0.79,-0.78 1.31,-1.79 2,-2.66 0.2,-0.25 0.67,-0.35 0.67,-0.67 0,-0.22 -0.45,0 -0.67,0 -1.11,0 -2.22,0 -3.33,0 -2.63,0 -11.69,0.98 -13.34,-0.67"
             id="path938" />
        <path
             style="fill:none;stroke:black;stroke-width:1px;stroke-linecap:butt;stroke-linejoin:miter;stroke-opacity:1"
             d="m 464.61,221.3 c 0.88,7.11 1.77,14.22 2.66,21.33"
             id="path940" />
        <path
             style="fill:none;stroke:black;stroke-width:1px;stroke-linecap:butt;stroke-linejoin:miter;stroke-opacity:1"
             d="m 369.95,329.29 c 33.86,15.99 46.41,21.11 75.99,37.33 4.55,2.49 8.87,5.36 13.33,8 1.05,0.62 6.46,4.66 8,4.66 0.48,0 6,3.66 6,2.67 0,-0.22 -0.48,0.12 -0.67,0 -0.52,-0.35 -1.21,-0.72 -1.33,-1.33 -0.82,-4.09 -1.33,-19.08 -1.33,-23.33"
             id="path942" />
        <path
             style="fill:none;stroke:black;stroke-width:1px;stroke-linecap:butt;stroke-linejoin:miter;stroke-opacity:1"
             d="m 469.94,379.95 c -15.07,3.77 -9.36,1.06 -18,6"
             id="path944" />
        <path
             style="fill:none;stroke:black;stroke-width:1px;stroke-linecap:butt;stroke-linejoin:miter;stroke-opacity:1"
             d="m 415.95,10.665 c 6.17,2.234 8.56,2 14.66,2"
             id="path948" />
        <path
             style="fill:none;stroke:black;stroke-width:1px;stroke-linecap:butt;stroke-linejoin:miter;stroke-opacity:1"
             d="m 423.28,13.665 c -0.34,4.229 0.22,9.394 -0.17,13.831 -0.1,0.619 -0.26,1.217 -0.33,1.833 -0.26,2.21 -0.23,4.458 -0.5,6.666 -0.36,2.871 -0.82,5.819 -1.34,8.666 -0.14,0.782 -0.4,1.543 -0.5,2.333 -0.27,5.287 0.1,1.085 -0.66,5.832 -1.43,9.02 0,-0.456 -0.5,6 -0.11,1.382 -0.51,2.143 -0.67,3.499 -0.1,0.856 0.32,2.344 -0.33,3"
             id="path952" />
        <path
             style="fill:none;stroke:black;stroke-width:1px;stroke-linecap:butt;stroke-linejoin:miter;stroke-opacity:1"
             d="m 410.61,65.491 c 5.68,-0.129 11.34,0.157 17,0.5"
             id="path954" />
        <path
             style="fill:none;stroke:black;stroke-width:1px;stroke-linecap:butt;stroke-linejoin:miter;stroke-opacity:1"
             d="m 504.1,165.81 c 5.17,0 10.33,0 15.5,0"
             id="path956" />
        <path
             style="fill:none;stroke:black;stroke-width:1px;stroke-linecap:butt;stroke-linejoin:miter;stroke-opacity:1"
             d="m 512.1,166.31 c 0.1,5.67 0.13,11.33 0.17,17 0.14,22.7 -0.26,-1.31 0.33,16.66 0.15,4.61 -0.17,9.23 0,13.84 0.12,3.34 0.43,6.64 0.33,9.99 0,1.01 0,2.02 -0.16,3 -0.15,0.71 -0.62,1.32 -0.84,2 -0.17,0.54 -0.14,1.14 -0.33,1.67 -0.62,1.7 -3.45,6.22 -4.83,7.5 -0.45,0.41 -2.84,1.53 -3.5,1.83 -1.58,0.72 -5.8,0.5 -7.5,0.5 -2.88,0 -3.72,0.1 -6.67,-0.66 -0.72,-0.19 -1.9,-0.46 -2.66,-0.84 -1.72,-0.86 -3.97,-3.45 -5.17,-5 -1.03,-1.32 -0.37,-1.14 -1.33,-2.66 -0.38,-0.61 -0.94,-1.08 -1.34,-1.67 -0.76,-1.15 -1.55,-2.68 -2,-4"
             id="path958" />
        <path
             style="fill:none;stroke:black;stroke-width:1px;stroke-linecap:butt;stroke-linejoin:miter;stroke-opacity:1"
             d="m 501.93,336.62 c -4.99,59.98 -4.66,37.27 -4.66,67.99"
             id="path960" />
        <path
             style="fill:none;stroke:black;stroke-width:1px;stroke-linecap:butt;stroke-linejoin:miter;stroke-opacity:1"
             d="m 528.6,354.62 c -9.55,2.39 -5.56,1.16 -22.67,11.33 -1.76,1.05 -3.02,2.77 -4.66,4 -0.4,0.3 -1.34,-0.58 -1.34,0.67 0,0.99 1.74,0.98 2.67,1.33 5.85,2.2 12.8,6.53 18.67,8 0.64,0.16 1.38,-0.25 1.99,0 1.57,0.63 9.68,5.52 11.34,6.67 3.08,2.13 6.99,6.66 11.33,6.66"
             id="path962" />
        <path
             style="fill:none;stroke:black;stroke-width:1px;stroke-linecap:butt;stroke-linejoin:miter;stroke-opacity:1"
             d="m 501.27,322.62 c -12.62,-2.1 -2.75,0.2 -24.67,-16.66 -14.03,-10.8 -16.26,-11.96 -26.66,-25.33 -1.26,-1.62 -3.05,-2.85 -4,-4.67 -1.98,-3.8 -2.9,-8.08 -4.66,-11.99 -1.35,-2.99 -3.51,-5.6 -4.67,-8.67 -1.3,-3.43 -1.37,-7.24 -2.67,-10.67 -1.16,-3.06 -3.63,-5.55 -4.66,-8.66 -1.44,-4.3 -1.54,-8.94 -2.67,-13.33 -0.87,-3.4 -2.5,-6.59 -3.33,-10 -1.98,-8.13 -3.52,-16.38 -4.67,-24.66 -1.53,-11.06 -0.83,-21.63 -1.33,-32.67 -0.69,-15.1 -0.59,0.16 -1.33,-14 -0.23,-4.21 0,-8.44 0,-12.66 0,-11.33 0,-22.66 0,-33.996 0,-0.602 0.74,-5.959 -0.67,-6.666 -2.69,-1.342 -6.31,3.215 -8.67,4"
             id="path964" />
        <path
             style="fill:none;stroke:black;stroke-width:1px;stroke-linecap:butt;stroke-linejoin:miter;stroke-opacity:1"
             d="m 418.61,84.989 c 3.94,2.932 5.96,7.487 9.67,10.665 0.76,0.656 1.11,0.442 1.66,1"
             id="path968" />
        <path
             style="fill:none;stroke:black;stroke-width:1px;stroke-linecap:butt;stroke-linejoin:miter;stroke-opacity:1"
             d="m 512.6,147.31 c 25.65,-108.447 10.65,-67.327 34.66,-126.646"
             id="path970" />
        <path
             style="fill:none;stroke:black;stroke-width:1px;stroke-linecap:butt;stroke-linejoin:miter;stroke-opacity:1"
             d="m 523.26,31.329 c 7.54,-3.951 22.01,-15.84 28,-2.666 0.45,0.986 1.06,6.596 1.33,7.332 0.22,0.589 1.1,0.75 1.34,1.333 0,0.02 0.66,2.963 0.66,3.333"
             id="path972" />
        <path
             style="fill:none;stroke:black;stroke-width:1px;stroke-linecap:butt;stroke-linejoin:miter;stroke-opacity:1"
             d="m 541.93,199.97 c 26.39,2.66 52.23,8.47 78.66,10.67"
             id="path974" />
        <path
             style="fill:none;stroke:black;stroke-width:1px;stroke-linecap:butt;stroke-linejoin:miter;stroke-opacity:1"
             d="m 540.6,332.62 c 15.95,-27.85 29.81,-57.43 49.99,-82.65 4.72,-5.9 13.93,-9.93 19.33,-15.33"
             id="path976" />
        <path
             style="fill:none;stroke:black;stroke-width:1px;stroke-linecap:butt;stroke-linejoin:miter;stroke-opacity:1"
             d="m 521.93,313.29 c 6.88,-8.73 9.11,-19.58 12,-29.99 0.25,-3.41 2.43,-6.16 3.33,-9.34 1.31,-4.56 1.3,-9.44 2.67,-13.99 0.57,-1.91 1.91,-3.5 2.67,-5.34 0.8,-1.95 1.1,-4.09 2,-6 0.89,-1.89 2.47,-3.42 3.33,-5.33 3.19,-7.09 2.02,-6.99 4,-13.33 0.21,-0.67 3.09,-7.96 3.33,-9.33 0.43,-2.42 0.26,-4.91 0.67,-7.33 0.26,-1.6 1.08,-3.07 1.33,-4.67 0.42,-2.64 0.17,-5.37 0.67,-8 1.19,-6.28 4.67,-12.02 6.66,-18 0.87,-2.6 1.09,-5.4 2,-8 0.43,-1.22 1.54,-2.12 2,-3.33 2.31,-5.99 2.62,-12.84 5.33,-18.66 1.39,-2.98 3.81,-5.5 4.67,-8.67 0.41,-1.51 0.29,-3.14 0.67,-4.66 2.33,-9.32 0.96,5.47 2.66,-10.67 0.19,-1.77 -0.2,-3.57 0,-5.33 0.59,-4.95 1.76,-9.79 2.67,-14.67 1.63,-8.698 0,-1.95 0.67,-9.996 0.23,-2.832 1.09,-5.834 1.33,-8.666 0.86,-10.301 0,-20.977 0,-31.329 0,-6.763 0.84,-14.154 -1.33,-20.664 -0.1,-0.242 -2.23,-2.076 -2.67,-2.666 -0.78,-1.04 -2.21,-3.437 -3.33,-4 -3.66,-1.828 -5.34,13.574 -5.34,14.665"
             id="path980" />
        <path
             style="fill:none;stroke:black;stroke-width:1px;stroke-linecap:butt;stroke-linejoin:miter;stroke-opacity:1"
             d="m 581.09,29.829 c 1.31,2.525 6.12,-0.666 8.67,-0.666"
             id="path984" />
        <path
             style="fill:none;stroke:black;stroke-width:1px;stroke-linecap:butt;stroke-linejoin:miter;stroke-opacity:1"
             d="m 483.6,180.05 c -13.87,2.31 -16.7,4.51 -24.51,-24.51 -4.17,-15.47 -1.16,-32.05 -0.94,-48.07 0.27,-20.379 3.83,-23.022 6.59,-39.597 1.58,-9.445 3.27,-17.059 6.6,-26.395 1.61,-4.507 3.95,-8.727 5.66,-13.197 2.38,-6.22 3.93,-12.754 6.6,-18.8541 1.09,-2.5001 10.52,-17.6234 12.25,-20.7389 2.35,-4.221 4.22,-12.7 7.54,-16.026"
             id="path986" />
        <path
             style="fill:none;stroke:black;stroke-width:1px;stroke-linecap:butt;stroke-linejoin:miter;stroke-opacity:1"
             d="m 464.61,192.64 c -2.89,0 -5.84,0.57 -8.67,0 -1.76,-0.35 -3.12,-1.76 -4.67,-2.66 -5.71,-3.37 -12.09,-7.08 -16.66,-12 -3.12,-3.36 -5.56,-7.3 -8.67,-10.67 -5.28,-5.72 -4.26,-3.14 -9.33,-11.33 -1.31,-2.11 -1.98,-4.58 -3.33,-6.67 -1.55,-2.38 -3.89,-4.21 -5.33,-6.66 -0.82,-1.4 -0.61,-3.22 -1.34,-4.67 -2.23,-4.47 -5.86,-8.03 -8,-12.66 -3.24,-7.04 -4.56,-15.13 -7.99,-22 -0.43,-0.84 -1.53,-1.19 -2,-2 -2.47,-4.223 -4.6,-9.506 -6.67,-13.998 -1.4,-3.034 -2.37,-6.403 -4,-9.332 -3.83,-6.891 -8.82,-12.892 -13.33,-19.331 -1.62,-2.318 -3.29,-5.293 -5.33,-7.332 -0.79,-0.786 -1.88,-1.215 -2.67,-2 -0.79,-0.786 -1.15,-1.955 -2,-2.666 -1.26,-1.051 -5.35,-2.568 -6.67,-3.333 -3.66,-2.619 -4.41,-3.344 -7.99,-5.333 -5.89,-3.268 -12.25,-5.852 -18.67,-7.332 -3.49,-0.805 -8.28,-1.662 -12,-2 -1.57,-0.143 -5.4,0.482 -7.33,0 -3.59,-0.897 -7.03,-0.263 -10.66,-0.667 -5.7,-0.632 -12.82,-1.642 -18.67,-0.666 -0.31,0.05 -0.37,0.55 -0.67,0.666 -1.05,0.421 -2.32,0.16 -3.33,0.667 -1.87,0.937 -3.55,2.222 -5.33,3.333 -1.92,1.199 -4.52,2.516 -6,3.999"
             id="path992" />
        <path
             style="fill:none;stroke:black;stroke-width:1px;stroke-linecap:butt;stroke-linejoin:miter;stroke-opacity:1"
             d="m 257.3,15.998 c -2.4,2.749 -5.5,15.665 -4,18.664 0.93,1.85 3.41,1.305 4.67,2 1.43,0.795 5.05,4.097 7.33,4.666 0.86,0.215 1.79,-0.174 2.66,0 1.29,0.257 2.92,1.333 4.67,1.333"
             id="path994" />
        <path
             style="fill:none;stroke:black;stroke-width:1px;stroke-linecap:butt;stroke-linejoin:miter;stroke-opacity:1"
             d="m 657.25,112.65 c -17.31,-2.16 -15.87,-1.79 -45.33,-10 -8.83,-2.45 -16.6,-7.893 -25.33,-10.662 -4.78,-1.515 -9.83,-1.991 -14.66,-3.333 -7.66,-2.125 -15.11,-4.895 -22.67,-7.332 -2.47,-0.799 -4.79,-2.111 -7.33,-2.667 -4.61,-1.007 -9.35,-1.199 -14,-1.999 -7.5,-1.293 -19,-4.234 -26,-6.666 -4.99,0.307 -7.36,-4.412 -11.33,-5.999 -1.9,-0.761 -4.09,-0.573 -6,-1.334 -1.48,-0.595 -2.66,-1.777 -4,-2.666 -2.44,-0.666 -4.95,-1.124 -7.33,-2 -5.36,-1.974 -6.61,-4.092 -10.66,-7.332 -1.17,-0.931 -2.74,-1.21 -4,-2 -2.22,-1.384 -4.58,-3.097 -6.67,-4.666"
             id="path998" />
        <path
             style="fill:none;stroke:black;stroke-width:1px;stroke-linecap:butt;stroke-linejoin:miter;stroke-opacity:1"
             d="m 455.94,58.992 c 0.7,-5.231 -6.37,-8.371 -7.67,-13.331 -0.18,-0.707 -0.18,-1.452 -0.33,-2.167 0,-0.05 -0.3,-0.195 -0.17,-0.333 0.16,-0.157 0.47,0.1 0.67,0 3.29,-2.191 -0.25,-0.02 3,-1.5 0.75,-0.339 1.43,-0.808 2.17,-1.166 1.09,-0.532 2.25,-0.938 3.33,-1.5 0.32,-0.164 0.51,-0.522 0.83,-0.667 0.21,-0.09 0.45,0.03 0.67,0 0.82,-0.109 2.02,-0.261 2.83,-0.666"
             id="path1000" />
    </g>
</svg>
