<?xml version="1.0" encoding="UTF-8" standalone="no"?>
<!-- Created with Inkscape (http://www.inkscape.org/) -->

<svg
     width="600"
     height="400"
     viewBox="0 0 600 400"
     version="1.1"
     id="svg5"
     sodipodi:docname="20220414.svg"
     inkscape:version="1.1 (c68e22c387, 2021-05-23)"
     inkscape:export-filename="C:\Program Files\XAMPP\htdocs\koko-campus.org\blog2\data\20220414.png"
     inkscape:export-xdpi="96"
     inkscape:export-ydpi="96"
     xmlns:inkscape="http://www.inkscape.org/namespaces/inkscape"
     xmlns:sodipodi="http://sodipodi.sourceforge.net/DTD/sodipodi-0.dtd"
     xmlns="http://www.w3.org/2000/svg"
     xmlns:svg="http://www.w3.org/2000/svg">
    <sodipodi:namedview
         id="namedview7"
         pagecolor="#ffffff"
         bordercolor="#666666"
         borderopacity="1.0"
         inkscape:pageshadow="2"
         inkscape:pageopacity="0.0"
         inkscape:pagecheckerboard="0"
         inkscape:document-units="px"
         showgrid="false"
         units="px"
         width="600px"
         inkscape:zoom="0.7501"
         inkscape:cx="14.665"
         inkscape:cy="43.328"
         inkscape:window-width="1920"
         inkscape:window-height="1009"
         inkscape:window-x="-8"
         inkscape:window-y="-8"
         inkscape:window-maximized="1"
         inkscape:current-layer="layer1" />
    <defs
         id="defs2" />
    <g
         inkscape:label="レイヤー 1"
         inkscape:groupmode="layer"
         id="layer1">
        <path
             style="fill:none;stroke:black;stroke-width:1px;stroke-linecap:butt;stroke-linejoin:miter;stroke-opacity:1"
             d="m 17.664,31.662 c 0.13,10.117 0.334,20.204 0.334,30.33"
             id="path854" />
        <path
             style="fill:none;stroke:black;stroke-width:1px;stroke-linecap:butt;stroke-linejoin:miter;stroke-opacity:1"
             d="m 17.664,31.662 c 1.111,0.111 2.218,0.272 3.333,0.334 1.197,0.07 9.225,-0.107 9.332,0 0.613,0.613 -0.276,0.658 -0.333,1 -0.09,0.548 0,1.111 0,1.666 0,4.241 0.333,8.423 0.333,12.665 0,1.886 -0.73,6.268 0.667,7.666"
             id="path858" />
        <path
             style="fill:none;stroke:black;stroke-width:1px;stroke-linecap:butt;stroke-linejoin:miter;stroke-opacity:1"
             d="m 19.664,44.661 c 2.889,0.111 5.777,0.222 8.666,0.333"
             id="path860" />
        <path
             style="fill:none;stroke:black;stroke-width:1px;stroke-linecap:butt;stroke-linejoin:miter;stroke-opacity:1"
             d="m 17.998,61.992 c 13.73,-4.929 12.998,-0.06 12.998,-6.999"
             id="path862" />
        <path
             style="fill:none;stroke:black;stroke-width:1px;stroke-linecap:butt;stroke-linejoin:miter;stroke-opacity:1"
             d="m 38.995,20.664 c 6.888,0 13.776,0 20.664,0"
             id="path864" />
        <path
             style="fill:none;stroke:black;stroke-width:1px;stroke-linecap:butt;stroke-linejoin:miter;stroke-opacity:1"
             d="m 48.66,11.998 c 1.111,6.111 2.222,12.221 3.333,18.331"
             id="path866" />
        <path
             style="fill:none;stroke:black;stroke-width:1px;stroke-linecap:butt;stroke-linejoin:miter;stroke-opacity:1"
             d="m 41.328,32.662 c 8.649,-0.911 17.29,-1.999 25.996,-1.999"
             id="path868" />
        <path
             style="fill:none;stroke:black;stroke-width:1px;stroke-linecap:butt;stroke-linejoin:miter;stroke-opacity:1"
             d="m 41.328,40.661 c 15.587,0 7.359,0.444 24.663,-1.666"
             id="path870" />
        <path
             style="fill:none;stroke:black;stroke-width:1px;stroke-linecap:butt;stroke-linejoin:miter;stroke-opacity:1"
             d="m 51.993,30.329 c 3.444,9.221 7.57,18.215 10.332,27.663 1.481,5.067 1.678,10.426 2.333,15.665 0.138,1.102 0.786,2.547 0,3.333 -0.656,0.656 -3.699,-0.637 -4.666,-1"
             id="path872" />
        <path
             style="fill:none;stroke:black;stroke-width:1px;stroke-linecap:butt;stroke-linejoin:miter;stroke-opacity:1"
             d="m 45.994,51.993 c 1.777,1.333 3.555,2.666 5.332,4"
             id="path874" />
        <path
             style="fill:none;stroke:black;stroke-width:1px;stroke-linecap:butt;stroke-linejoin:miter;stroke-opacity:1"
             d="m 89.321,24.997 c 0,0.444 -0.02,0.889 0,1.333 0.318,9.11 0.02,18.266 1,27.33 3.815,35.425 3.666,8.239 3.666,17.997"
             id="path876" />
        <path
             style="fill:none;stroke:black;stroke-width:1px;stroke-linecap:butt;stroke-linejoin:miter;stroke-opacity:1"
             d="m 89.321,24.997 c 4.111,-1 8.13,-2.511 12.329,-3 4.18,-0.486 3.67,12.139 3.67,16.665"
             id="path878" />
        <path
             style="fill:none;stroke:black;stroke-width:1px;stroke-linecap:butt;stroke-linejoin:miter;stroke-opacity:1"
             d="m 94.654,32.329 c 12.776,0 10.666,-3.555 10.666,6.333"
             id="path880" />
        <path
             style="fill:none;stroke:black;stroke-width:1px;stroke-linecap:butt;stroke-linejoin:miter;stroke-opacity:1"
             d="m 93.654,40.328 c 6.081,0.435 7.296,-0.938 11.666,-1.666"
             id="path882" />
        <path
             style="fill:none;stroke:black;stroke-width:1px;stroke-linecap:butt;stroke-linejoin:miter;stroke-opacity:1"
             d="m 115.65,19.997 c 0,6.005 0,1.112 -0.67,14.665"
             id="path884" />
        <path
             style="fill:none;stroke:black;stroke-width:1px;stroke-linecap:butt;stroke-linejoin:miter;stroke-opacity:1"
             d="m 115.65,19.997 c 0.63,-0.202 11.4,-5.135 14.33,-2.333 2.08,1.987 2.49,7.823 3,10.666 0.71,3.918 2.19,7.703 2.67,11.665 0.1,0.833 0.28,6.055 0.67,7.665 0.35,1.47 0.99,2.86 1.33,4.333 0.62,2.736 0.4,5.579 0.66,8.332 2.25,14.606 0.1,-0.825 0.67,5.999 0.24,2.918 0.92,6.417 0.33,9.333 0,0.07 -1.76,0 -2.66,0 -3.94,0 -7.24,-1.576 -10,-4.333"
             id="path886" />
        <path
             style="fill:none;stroke:black;stroke-width:1px;stroke-linecap:butt;stroke-linejoin:miter;stroke-opacity:1"
             d="m 117.32,27.663 c 3.77,-0.667 7.55,-1.333 11.33,-2"
             id="path888" />
        <path
             style="fill:none;stroke:black;stroke-width:1px;stroke-linecap:butt;stroke-linejoin:miter;stroke-opacity:1"
             d="m 114.98,34.662 c 13.11,-0.69 8.44,-0.667 14,-0.667"
             id="path890" />
        <path
             style="fill:none;stroke:black;stroke-width:1px;stroke-linecap:butt;stroke-linejoin:miter;stroke-opacity:1"
             d="m 103.65,49.993 c 1.07,8.895 0.45,5.59 1.34,9.999"
             id="path892" />
        <path
             style="fill:none;stroke:black;stroke-width:1px;stroke-linecap:butt;stroke-linejoin:miter;stroke-opacity:1"
             d="m 103.65,49.993 c 4.11,-2.333 8.17,-4.758 12.33,-6.999 0.96,-0.514 2.22,2.316 2.34,2.667 0.99,2.969 0.33,6.872 0.33,9.998"
             id="path894" />
        <path
             style="fill:none;stroke:black;stroke-width:1px;stroke-linecap:butt;stroke-linejoin:miter;stroke-opacity:1"
             d="m 104.99,59.992 c 0.67,0.778 1.37,1.525 2,2.333 0.49,0.641 0.5,2.254 1.33,2.666 0.98,0.49 4.11,-0.22 5,-0.666 0,-0.02 4.24,-2.785 4.33,-3 1.1,-0.394 0.16,-1.129 0.33,-1.666 0.59,-1.769 1.25,-2.259 0.67,-4"
             id="path896" />
        <path
             style="fill:none;stroke:black;stroke-width:1px;stroke-linecap:butt;stroke-linejoin:miter;stroke-opacity:1"
             d="m 104.99,59.992 c 1.54,-1.048 5.85,-4.769 8.99,-5.666 0.88,-0.25 1.4,0.134 2.34,-0.333 0.36,-0.179 0.67,-0.9 1,-0.667 0.73,0.521 0.89,1.555 1.33,2.333"
             id="path898" />
        <path
             style="fill:none;stroke:black;stroke-width:1px;stroke-linecap:butt;stroke-linejoin:miter;stroke-opacity:1"
             d="m 162.31,26.996 c 4.67,0 9.33,0 14,0"
             id="path900" />
        <path
             style="fill:none;stroke:black;stroke-width:1px;stroke-linecap:butt;stroke-linejoin:miter;stroke-opacity:1"
             d="m 165.64,35.995 c -2.22,0 -4.52,-0.61 -6.66,0 -0.65,0.186 -0.27,1.328 -0.33,2 -0.29,2.817 0,5.876 0.33,8.665 0,0.02 0,3.728 0.67,4 3.49,1.497 8.24,1.87 11.99,1.333 1.1,-0.157 1.98,-0.743 3,-1 0.55,-0.136 0.71,0.254 1,-0.333 0.33,-0.657 0.66,-11.065 0.34,-12.665 -0.13,-0.639 -2.02,-0.333 -2.34,-0.333 -2.75,0 -3.64,-0.218 -6.33,-0.667 -0.44,-0.07 -1.02,0.314 -1.33,0 -0.25,-0.248 -0.22,-0.667 -0.34,-1 z"
             id="path902" />
        <path
             style="fill:none;stroke:black;stroke-width:1px;stroke-linecap:butt;stroke-linejoin:miter;stroke-opacity:1"
             d="m 160.23,43.244 c 4.14,-0.38 8.25,0.5 12.33,0.5"
             id="path904" />
        <path
             style="fill:none;stroke:black;stroke-width:1px;stroke-linecap:butt;stroke-linejoin:miter;stroke-opacity:1"
             d="m 157.73,60.492 c 0.55,-0.278 1.05,-0.742 1.67,-0.833 2.35,-0.349 10.27,-0.964 14.08,-1.167 1.75,-0.09 3.51,-0.09 5.25,-0.25 0.28,-0.03 1.03,0.137 1.25,-0.08"
             id="path906" />
        <path
             style="fill:none;stroke:black;stroke-width:1px;stroke-linecap:butt;stroke-linejoin:miter;stroke-opacity:1"
             d="m 169.23,19.747 c 0.1,4.944 0.2,9.887 0.25,14.832 0,3.749 0,7.499 0,11.248 0,2.736 -0.18,5.662 0.1,8.416 0.14,1.517 0.45,3.108 0.83,4.582 0.29,1.083 0.66,2.048 0.75,3.167 0.13,1.529 0.28,3.077 0.59,4.582 0.1,0.284 0.2,0.548 0.25,0.834 0.11,0.643 0.17,1.774 0.25,2.499 0.11,0.986 0.33,2.012 0.41,3 0,0.443 -0.11,0.904 0,1.333 0,0.06 0.66,1.167 0.17,1.167"
             id="path908" />
        <path
             style="fill:none;stroke:black;stroke-width:1px;stroke-linecap:butt;stroke-linejoin:miter;stroke-opacity:1"
             d="m 182.31,35.829 c 0.55,4.832 0.91,9.692 1.67,14.498 1.65,10.542 1.51,5.991 3.66,13.998 0.1,0.298 -0.1,2.43 0.33,2.833 0.56,0.551 1.56,0.166 2.34,0.166 3.51,0 6.99,-0.06 10.5,-0.166 2.29,-0.07 4.57,-0.124 6.83,-0.5 0.19,-0.03 0.6,-0.08 0.67,-0.334 0.29,-1.194 -0.3,-3.125 -0.34,-4.332 -0.1,-2.772 0.1,-5.561 0,-8.332 0,-0.835 0,-1.684 -0.16,-2.5 -0.19,-0.874 -1.07,-2.506 -1.34,-3.5 -0.62,-2.293 -0.5,-4.306 -0.5,-6.665 0,-0.576 -0.26,-6.383 -0.5,-6.5 -0.26,-0.129 -3.71,-0.166 -4.16,-0.166 -2.56,0 -5.11,0 -7.67,0 -1.91,0 -3.93,-0.363 -5.83,0 -3.61,0.686 -0.57,0.209 -3.33,1 -1.26,0.359 -0.72,-0.114 -1.17,0.333"
             id="path910" />
        <path
             style="fill:none;stroke:black;stroke-width:1px;stroke-linecap:butt;stroke-linejoin:miter;stroke-opacity:1"
             d="m 185.81,50.993 c 5.88,-0.595 11.77,-0.5 17.66,-0.5 0.74,0 2.12,0.215 2.67,-0.333"
             id="path912" />
        <path
             style="fill:none;stroke:black;stroke-width:1px;stroke-linecap:butt;stroke-linejoin:miter;stroke-opacity:1"
             d="m 197.14,65.825 c -0.5,-3.278 -0.97,-6.56 -1.5,-9.832 -0.3,-1.839 -0.81,-3.646 -1,-5.5 -0.2,-2.046 -0.1,-4.112 -0.17,-6.166 -0.1,-1.883 -0.26,-3.774 -0.33,-5.665 0,-1.444 0.1,-2.89 0,-4.333 0,-1.337 -0.26,-2.664 -0.33,-4 -0.1,-1.826 0.21,-0.275 -0.17,-2.833 -0.1,-0.506 -0.28,-0.99 -0.33,-1.499 -0.1,-0.608 0,-1.223 0,-1.834 -0.1,-0.722 -0.1,-1.446 -0.17,-2.166 -0.12,-1.135 -0.67,-2.022 -0.67,-3.166 0,-0.295 0.26,-1.333 -0.33,-1.333"
             id="path914" />
        <path
             style="fill:none;stroke:black;stroke-width:1px;stroke-linecap:butt;stroke-linejoin:miter;stroke-opacity:1"
             d="m 23.567,220.59 c 43.712,-4.86 38.246,-4.96 91.443,-6.6 26.11,-0.81 52.15,0.1 78.24,-0.94 3.01,-0.12 19.05,0.13 21.68,0 15.92,-0.8 32.28,-2.35 48.08,-4.72 3.78,-0.56 7.5,-1.55 11.31,-1.88 8.46,-0.74 16.97,-0.65 25.45,-0.95 49.28,-1.69 98.84,1.95 148,-0.94 13.16,-0.77 26.43,0.6 39.6,0 25,-1.13 -4.99,-0.45 12.25,-1.88 4.07,-0.34 8.22,0.62 12.26,0 2.26,-0.35 4.32,-1.65 6.6,-1.89 3.75,-0.39 7.54,0.2 11.31,0 5.97,-0.31 12.08,-1.24 17.91,-1.88 11.95,-1.33 24.71,0 36.76,0 2.33,0 -1.89,0.46 -3.77,-0.95 -0.56,-0.42 -0.38,-1.46 -0.94,-1.88 -0.79,-0.6 -1.96,-0.47 -2.83,-0.94 -2.6,-1.42 -5.05,-3.11 -7.54,-4.72 -12.14,-7.8 -19.58,-19.72 -29.22,-30.16 -3.09,-3.35 -2.83,-0.4 -2.83,-2.83"
             id="path916" />
        <path
             style="fill:none;stroke:black;stroke-width:1px;stroke-linecap:butt;stroke-linejoin:miter;stroke-opacity:1"
             d="m 582.58,197.02 c -18.16,19.98 -4.74,4.23 -29.22,39.59 -7.8,11.27 -3.67,3.57 -7.55,11.32"
             id="path918" />
        <path
             style="fill:none;stroke:black;stroke-width:1px;stroke-linecap:butt;stroke-linejoin:miter;stroke-opacity:1"
             d="m 278.56,185.24 c 0,12.1 -0.94,24.19 -0.94,36.29"
             id="path938" />
        <path
             style="fill:none;stroke:black;stroke-width:1px;stroke-linecap:butt;stroke-linejoin:miter;stroke-opacity:1"
             d="m 250.28,130.09 c 9.29,-5.31 18.38,-10.87 26.87,-17.44 1.41,0.16 2.95,-0.12 4.24,0.47 2.26,1.03 4.06,2.87 6.13,4.24 5.74,3.83 7.46,4.91 13.67,8.02 6.05,3.02 3.98,2.82 7.54,2.82"
             id="path946" />
        <path
             style="fill:none;stroke:black;stroke-width:1px;stroke-linecap:butt;stroke-linejoin:miter;stroke-opacity:1"
             d="m 266.78,131.5 c 6.58,0.71 12.78,-2.35 19.32,-2.35"
             id="path948" />
        <path
             style="fill:none;stroke:black;stroke-width:1px;stroke-linecap:butt;stroke-linejoin:miter;stroke-opacity:1"
             d="m 265.37,141.4 c 32.45,0 33.94,-8.73 21.68,18.38 -0.31,0.68 -3.2,5.66 -4.24,5.66"
             id="path950" />
        <path
             style="fill:none;stroke:black;stroke-width:1px;stroke-linecap:butt;stroke-linejoin:miter;stroke-opacity:1"
             d="m 278.56,185.24 c -12.81,-12.83 5.46,4.14 -21.21,-11.79 -5.66,-3.38 -10.56,-7.93 -15.55,-12.25 -0.97,-0.84 -6.21,-11 -6.6,-12.26 -0.33,-1.05 0.27,-2.23 0,-3.3 -0.22,-0.88 -1.11,-1.49 -1.41,-2.35 -2.18,-6.16 -2.85,-14.3 -1.42,-20.74 1.21,-5.45 4.94,-12.2 8.96,-16.03 1.64,-1.56 3.76,-2.53 5.65,-3.77 1.72,-1.12 3.29,-2.51 5.19,-3.297 2.71,-1.122 5.65,-1.584 8.48,-2.357 3.1,-0.846 6.58,-1.988 9.9,-2.356 4.47,-0.497 10.44,0.07 14.61,0.942 1.32,0.274 2.46,1.133 3.77,1.414 0.92,0.198 1.93,-0.27 2.83,0 2.35,0.706 3.71,3.214 5.66,4.714 4.04,3.11 8.61,6.22 11.78,10.37 1.72,2.25 4.09,8.28 5.18,10.37 0.53,1 1.46,1.78 1.89,2.83 2.55,6.19 0.65,3.37 1.89,8.01 0.38,1.44 1.15,2.77 1.41,4.24 0.55,3.1 0,6.29 0,9.43 0,3.14 0.76,6.38 0,9.43 -0.89,3.54 -5.52,7.3 -8.48,8.95 -0.93,0.51 -2,0.77 -2.83,1.41 -1.24,0.95 -2.06,2.37 -3.3,3.3 -0.68,0.51 -1.6,0.57 -2.36,0.95 -0.4,0.2 -0.57,0.69 -0.94,0.94 -3.03,2.02 -6.42,5.73 -9.9,6.6 -3.31,0.83 -6.65,3.63 -9.9,4.71 -1.2,0.4 -2.51,0.29 -3.77,0.47 -0.15,0 -0.52,-0.15 -0.47,0 0.18,0.54 0.63,0.95 0.94,1.42"
             id="path952" />
        <path
             style="fill:none;stroke:black;stroke-width:1px;stroke-linecap:butt;stroke-linejoin:miter;stroke-opacity:1"
             d="m 466.16,112.18 c 19.48,0.56 10.99,0.47 25.45,0.47"
             id="path954" />
        <path
             style="fill:none;stroke:black;stroke-width:1px;stroke-linecap:butt;stroke-linejoin:miter;stroke-opacity:1"
             d="m 455.79,127.26 c 13.52,1.02 28.87,3.86 42.42,0.47"
             id="path956" />
        <path
             style="fill:none;stroke:black;stroke-width:1px;stroke-linecap:butt;stroke-linejoin:miter;stroke-opacity:1"
             d="m 475.11,104.17 c 0.79,0.47 2.25,0.5 2.36,1.41 1.51,12.82 1.96,25.75 2.36,38.65 0.67,22.39 3.8,17.16 -1.42,24.98"
             id="path958" />
        <path
             style="fill:none;stroke:black;stroke-width:1px;stroke-linecap:butt;stroke-linejoin:miter;stroke-opacity:1"
             d="m 478.41,132.92 c -8.48,6.44 -16.97,12.88 -25.45,19.32"
             id="path960" />
        <path
             style="fill:none;stroke:black;stroke-width:1px;stroke-linecap:butt;stroke-linejoin:miter;stroke-opacity:1"
             d="m 478.41,132.92 c 10.68,3.93 21.37,7.85 32.05,11.78"
             id="path962" />
        <path
             style="fill:none;stroke:black;stroke-width:1px;stroke-linecap:butt;stroke-linejoin:miter;stroke-opacity:1"
             d="m 519.89,111.71 c 7.86,0 15.71,0 23.57,0"
             id="path964" />
        <path
             style="fill:none;stroke:black;stroke-width:1px;stroke-linecap:butt;stroke-linejoin:miter;stroke-opacity:1"
             d="m 507.63,121.61 c 7.55,3.35 2.97,1.01 13.2,8.01"
             id="path966" />
        <path
             style="fill:none;stroke:black;stroke-width:1px;stroke-linecap:butt;stroke-linejoin:miter;stroke-opacity:1"
             d="m 551.35,121.37 c -1.65,1.18 -3.3,2.36 -4.95,3.54"
             id="path970" />
        <path
             style="fill:none;stroke:black;stroke-width:1px;stroke-linecap:butt;stroke-linejoin:miter;stroke-opacity:1"
             d="m 514.94,134.92 c 38.15,-0.83 16.09,1.72 33.94,-2.36 2.3,-0.52 0.84,0.17 1.65,-0.23"
             id="path972" />
        <path
             style="fill:none;stroke:black;stroke-width:1px;stroke-linecap:butt;stroke-linejoin:miter;stroke-opacity:1"
             d="m 529.55,102.4 c 0.28,0.23 0.8,0.34 0.83,0.71 0.53,6.85 0.45,13.75 0.82,20.62 0.4,7.33 1.12,14.79 2.36,22.03 0.2,1.19 0.53,2.35 0.71,3.54 0.11,0.77 0,1.57 0,2.35 0,1.1 0,2.2 0,3.3 0,0.5 0.1,0.77 -0.12,1.18 -0.1,0.16 -0.54,0.28 -0.47,0.47 0.17,0.5 0.51,0.93 0.7,1.42 0.17,0.41 0.25,0.86 0.36,1.29 0,0 0,0.14 0,0.12 -0.73,-0.39 -1.41,-0.87 -2.12,-1.29"
             id="path974" />
        <path
             style="fill:none;stroke:black;stroke-width:1px;stroke-linecap:butt;stroke-linejoin:miter;stroke-opacity:1"
             d="m 532.26,136.1 c 0,7.06 0.21,0.47 -10.6,15.55 -0.8,1.11 -1.5,2.28 -2.24,3.42"
             id="path976" />
        <path
             style="fill:none;stroke:black;stroke-width:1px;stroke-linecap:butt;stroke-linejoin:miter;stroke-opacity:1"
             d="m 533.44,138.81 c 17.01,7.84 10.54,7.11 17.91,7.78"
             id="path978" />
        <path
             style="fill:none;stroke:black;stroke-width:1px;stroke-linecap:butt;stroke-linejoin:miter;stroke-opacity:1"
             d="m 521.07,172.75 c -9.88,2.96 -6.13,2.18 -23.33,3.06 -7.4,0.38 -15.25,0.72 -22.39,-1.88 -6.51,-2.38 -12.93,-5.07 -19.09,-8.25 -1.39,-0.72 -4.53,-7.69 -5.19,-8.72 -1.19,-1.89 -4.35,-5.15 -5.18,-7.07 -0.41,-0.94 -0.14,-2.05 -0.24,-3.07 -0.13,-1.41 -0.27,-2.83 -0.47,-4.24 -0.52,-3.68 -1.19,-7.57 -0.7,-11.31 0.25,-1.99 0.77,-3.93 1.17,-5.89 0.11,-0.53 0.77,-3.91 1.18,-4.95 0.26,-0.65 0.68,-1.24 0.94,-1.89 0.53,-1.31 0.73,-2.76 1.42,-4 1.28,-2.33 5.26,-6.06 7.3,-8.02 2.49,-2.38 5.3,-4.87 8.49,-6.36 2.58,-1.205 4.36,-1.249 7.07,-1.65 2.21,-0.327 4.37,-0.961 6.6,-1.178 3.16,-0.308 8.56,-0.236 11.78,-0.236 5.19,0 10.37,0 15.56,0 1.64,0 3.3,-0.137 4.94,0 2.48,0.206 4.86,1.028 7.31,1.414 0.15,0.02 7.96,0.87 8.25,0.943 2.29,0.587 4.32,1.957 6.6,2.597 0.84,0.23 1.74,0.26 2.59,0.47 2.66,0.64 5.81,1.52 8.25,2.82 4.35,2.34 10.27,6.71 13.2,10.61 0.72,0.96 1.24,2.05 1.88,3.06 0.85,1.35 1.82,2.62 2.59,4.01 2.94,5.29 4.05,10.99 4.25,16.97 0.1,3.07 0.27,6.23 -0.71,9.19 -2.6,7.79 -11.27,16.68 -19.09,19.09 -1.21,0.37 -2.3,1.12 -3.54,1.41 -1.08,0.26 -2.2,0.28 -3.3,0.47 -5.82,1.06 -11.73,1.42 -17.67,1.42"
             id="path980" />
        <path
             style="fill:none;stroke:black;stroke-width:1px;stroke-linecap:butt;stroke-linejoin:miter;stroke-opacity:1"
             d="m 42.873,137.4 c 1.21,14.52 -0.109,-3.21 0.471,11.31 0.158,3.94 0.472,7.18 0.472,11.07"
             id="path1229" />
        <path
             style="fill:none;stroke:black;stroke-width:1px;stroke-linecap:butt;stroke-linejoin:miter;stroke-opacity:1"
             d="m 42.873,137.4 c 0.615,4.05 10.663,-5.46 13.433,-1.89 4.108,5.3 4.714,32.44 4.714,21.92"
             id="path1231" />
        <path
             style="fill:none;stroke:black;stroke-width:1px;stroke-linecap:butt;stroke-linejoin:miter;stroke-opacity:1"
             d="m 49,146.35 c 0.707,2.91 1.414,5.81 2.121,8.72"
             id="path1233" />
        <path
             style="fill:none;stroke:black;stroke-width:1px;stroke-linecap:butt;stroke-linejoin:miter;stroke-opacity:1"
             d="m 49,146.35 c 7.468,0 4.574,0.28 8.72,-0.23"
             id="path1235" />
        <path
             style="fill:none;stroke:black;stroke-width:1px;stroke-linecap:butt;stroke-linejoin:miter;stroke-opacity:1"
             d="m 36.038,157.66 c 1.807,8.1 3.614,16.19 5.421,24.28"
             id="path1237" />
        <path
             style="fill:none;stroke:black;stroke-width:1px;stroke-linecap:butt;stroke-linejoin:miter;stroke-opacity:1"
             d="m 43.816,159.78 c 8.846,-5.67 3.17,-2.76 23.802,-3.77 1.266,-0.1 2.524,0.26 3.771,0.48 0.109,0 0.226,0.12 0.236,0.23 0.07,0.78 -0.08,1.58 0,2.36 0.08,0.79 0.314,1.57 0.471,2.35 0.157,1.26 0.374,2.51 0.471,3.78 0.228,2.95 0.236,5.98 0.236,8.95"
             id="path1239" />
        <path
             style="fill:none;stroke:black;stroke-width:1px;stroke-linecap:butt;stroke-linejoin:miter;stroke-opacity:1"
             d="m 52.771,164.97 c 0,1.41 0,2.83 0,4.24"
             id="path1241" />
        <path
             style="fill:none;stroke:black;stroke-width:1px;stroke-linecap:butt;stroke-linejoin:miter;stroke-opacity:1"
             d="m 52.771,164.97 c 1.571,-1.1 2.941,-2.57 4.713,-3.3 0.67,-0.28 1.805,-0.18 2.122,0.47 1.165,2.4 1.274,5.18 1.885,7.78 0.02,0.1 0.07,0.2 0,0.23 -0.476,0.24 -4.035,0 -4.478,0 -1.335,0 -2.671,0 -4.006,0 -0.157,0 -0.472,0.16 -0.472,0 0,-0.32 0.157,-0.63 0.236,-0.94"
             id="path1243" />
        <path
             style="fill:none;stroke:black;stroke-width:1px;stroke-linecap:butt;stroke-linejoin:miter;stroke-opacity:1"
             d="m 18.363,149.65 c 4.007,1.18 8.013,2.36 12.019,3.54"
             id="path1245" />
        <path
             style="fill:none;stroke:black;stroke-width:1px;stroke-linecap:butt;stroke-linejoin:miter;stroke-opacity:1"
             d="m 18.127,167.33 c 3.221,0 6.943,-1.73 9.663,0 1.725,1.09 0.09,4.08 0,6.12 -0.07,1.5 -0.329,2.99 -0.471,4.48 -0.02,0.16 -0.1,0.35 0,0.47 1.449,1.94 2.849,-1 0.942,4.72 -0.56,1.68 -1.649,3.91 -2.592,5.42 -0.416,0.66 -1.414,1.1 -1.414,1.88 0,0.51 8.215,-0.47 8.248,-0.47 2.434,-0.1 4.872,0.1 7.306,0 2.275,-0.28 1.252,-0.23 3.064,-0.23 2.161,0 4.445,0.17 6.599,0 4.565,-0.39 9.122,-1.87 13.433,-3.3 0.872,-0.3 1.7,-0.72 2.592,-0.95 0.69,-0.17 1.42,-0.12 2.121,-0.23 1.497,-0.25 2.809,-1.16 4.242,-1.65 2.212,-0.77 4.456,-1.39 6.599,-2.36 1.538,-0.69 2.942,-1.66 4.478,-2.36 1.089,-0.49 2.229,-0.87 3.299,-1.41 1.006,-0.5 0.943,-0.36 0.943,-0.94"
             id="path1247" />
        <path
             style="fill:none;stroke:black;stroke-width:1px;stroke-linecap:butt;stroke-linejoin:miter;stroke-opacity:1"
             d="m 98.727,147.53 c 8.643,-0.16 17.283,-0.31 25.923,-0.47"
             id="path1249" />
        <path
             style="fill:none;stroke:black;stroke-width:1px;stroke-linecap:butt;stroke-linejoin:miter;stroke-opacity:1"
             d="m 107.45,138.57 c 2.79,10.78 1.65,4.18 1.65,20.04"
             id="path1251" />
        <path
             style="fill:none;stroke:black;stroke-width:1px;stroke-linecap:butt;stroke-linejoin:miter;stroke-opacity:1"
             d="m 92.599,162.61 c 26.191,-2.91 12.691,-2.12 40.531,-2.12"
             id="path1253" />
        <path
             style="fill:none;stroke:black;stroke-width:1px;stroke-linecap:butt;stroke-linejoin:miter;stroke-opacity:1"
             d="m 109.1,158.61 c -1.97,6.99 -3.93,13.98 -5.9,20.97 -0.31,0.94 -0.62,1.89 -0.94,2.83 0,0.1 -0.1,0.23 0,0.23 3.41,0.29 3.49,-0.22 7.31,-1.17 12.19,-3.05 -3.42,0.72 7.54,-1.18 1.53,-0.27 2.78,-1.4 4.24,-1.89"
             id="path1255" />
        <path
             style="fill:none;stroke:black;stroke-width:1px;stroke-linecap:butt;stroke-linejoin:miter;stroke-opacity:1"
             d="m 119.23,171.57 c 4.48,6.86 2.45,3.55 6.13,9.9"
             id="path1257" />
        <path
             style="fill:none;stroke:black;stroke-width:1px;stroke-linecap:butt;stroke-linejoin:miter;stroke-opacity:1"
             d="m 69.975,201.73 c -1.257,0.16 -2.514,0.32 -3.771,0.48 -5.813,1.1 -11.58,2.47 -17.439,3.29 -2.023,0.29 -4.086,0.1 -6.128,0 -2.988,-0.1 -6.047,0.23 -8.955,-0.47 -6.962,-1.65 -13.224,-5.02 -18.383,-9.89 -1.536,-1.46 -3.634,-2.69 -4.242,-4.72 -2.6492,-8.83 -4.2916,-17.59 -4.7131,-26.86 -0.1177,-2.59 -0.535,-18.46 0,-19.8 0.3736,-0.93 1.3453,-1.51 1.8854,-2.36 0.5658,-0.89 0.7628,-2 1.414,-2.83 5.1187,-6.51 10.5177,-8.9 17.9107,-11.78 5.134,-2 2.975,-1.88 10.37,-3.3 4.038,-0.78 8.18,-0.86 12.255,-1.41 4.404,-0.6 8.757,-1.56 13.197,-1.89 8.177,-0.6 16.32,-0.47 24.51,-0.47 4.556,0 9.15,-0.58 13.664,0 1.54,0.2 15.47,4.68 15.56,4.71 7.23,2.51 8.11,2.9 13.2,8.49 2.17,2.38 4.74,4.43 6.6,7.07 1.17,1.67 1.48,3.81 2.35,5.65 1.85,3.92 4.26,7.45 5.19,11.79 0.46,2.15 0,4.4 0,6.6 0,9.21 -2.88,13.38 -9.9,19.32 -2.07,1.75 -7.51,5.31 -9.9,6.6 -0.87,0.47 -1.92,0.53 -2.83,0.94 -2.18,1 -3.98,2.7 -6.12,3.77 -4.57,2.29 -10.27,4.25 -15.09,5.66 -7.981,2.33 -16.277,2.36 -24.508,2.36"
             id="path1259" />
        <path
             style="fill:none;stroke:black;stroke-width:1px;stroke-linecap:butt;stroke-linejoin:miter;stroke-opacity:1"
             d="m 12.165,273.13 c 3.944,-0.39 7.88,-0.87 11.832,-1.17 1.163,-0.1 2.339,0.12 3.499,0 0.472,0 0.889,-0.33 1.333,-0.5 0.5,0 0.999,-0.12 1.5,-0.16 0.886,-0.1 1.778,0 2.667,0 0.333,0 0.666,0 0.999,0 0.06,0 0.163,-0.1 0.167,0 0.153,1.99 0,4 0,6 0,2.38 0.234,4.78 0,7.16 -0.103,1.05 -0.621,2.02 -1,3 -0.532,1.38 -0.187,1.33 -0.833,1.33"
             id="path5224" />
        <path
             style="fill:none;stroke:black;stroke-width:1px;stroke-linecap:butt;stroke-linejoin:miter;stroke-opacity:1"
             d="m 25.497,265.46 c 1.14,12.55 0.976,3.73 -5,26"
             id="path5226" />
        <path
             style="fill:none;stroke:black;stroke-width:1px;stroke-linecap:butt;stroke-linejoin:miter;stroke-opacity:1"
             d="m 39.995,262.96 c 2.522,3.09 1.445,1.05 1.833,6.67"
             id="path5228" />
        <path
             style="fill:none;stroke:black;stroke-width:1px;stroke-linecap:butt;stroke-linejoin:miter;stroke-opacity:1"
             d="m 46.327,262.3 c 0.06,2.28 0.111,4.55 0.167,6.83"
             id="path5230" />
        <path
             style="fill:none;stroke:black;stroke-width:1px;stroke-linecap:butt;stroke-linejoin:miter;stroke-opacity:1"
             d="m 56.159,262.63 c -0.835,5.01 -0.306,2.01 -1.666,9"
             id="path5232" />
        <path
             style="fill:none;stroke:black;stroke-width:1px;stroke-linecap:butt;stroke-linejoin:miter;stroke-opacity:1"
             d="m 56.826,268.3 c 3.61,0 7.446,-1.26 10.832,0 1.208,0.45 -0.287,2.56 -0.5,3.83 -0.787,4.67 -1.532,9.36 -2.5,14 -0.366,1.75 -0.948,3.46 -1.5,5.16 -0.09,0.28 -0.353,0.67 -0.666,0.67"
             id="path5234" />
        <path
             style="fill:none;stroke:black;stroke-width:1px;stroke-linecap:butt;stroke-linejoin:miter;stroke-opacity:1"
             d="m 95.321,265.63 c -3.504,0.5 -0.841,0 -7.333,3.67 -3.025,1.72 -1.665,0.87 -4.499,2.83"
             id="path5238" />
        <path
             style="fill:none;stroke:black;stroke-width:1px;stroke-linecap:butt;stroke-linejoin:miter;stroke-opacity:1"
             d="m 77.99,280.63 c 10.113,-0.49 15.805,-0.5 24.83,-0.5"
             id="path5240" />
        <path
             style="fill:none;stroke:black;stroke-width:1px;stroke-linecap:butt;stroke-linejoin:miter;stroke-opacity:1"
             d="m 89.655,270.96 c 0.389,0.11 1.056,0 1.166,0.34 1.779,6.27 1.833,10.87 1.833,17.16 0,4.26 0.297,3.97 -1.166,7.17 -0.354,0.77 -1.547,3.33 -2.5,3.33"
             id="path5242" />
        <path
             style="fill:none;stroke:black;stroke-width:1px;stroke-linecap:butt;stroke-linejoin:miter;stroke-opacity:1"
             d="m 115.15,275.96 c 2.37,4.14 11.94,-2.2 16.5,0.84 0,0 0,0.11 0,0.16 0,1.28 0,2.56 0,3.84 0,1.38 0,2.77 0,4.16 0,0.6 0.58,6.88 -0.5,8.5"
             id="path5244" />
        <path
             style="fill:none;stroke:black;stroke-width:1px;stroke-linecap:butt;stroke-linejoin:miter;stroke-opacity:1"
             d="m 125.65,268.63 c -0.18,4.47 0.1,4.55 -1.33,9.17 -0.34,1.09 -0.92,2.1 -1.34,3.16 -0.32,0.83 -1.66,5 -2.16,5.5"
             id="path5248" />
        <path
             style="fill:none;stroke:black;stroke-width:1px;stroke-linecap:butt;stroke-linejoin:miter;stroke-opacity:1"
             d="m 443.04,269.39 c 17.9,-1.67 13.61,2.56 17.99,-1.83"
             id="path5250" />
        <path
             style="fill:none;stroke:black;stroke-width:1px;stroke-linecap:butt;stroke-linejoin:miter;stroke-opacity:1"
             d="m 451.03,262.23 c 0.68,13.83 0.67,9.1 0.67,14.16"
             id="path5252" />
        <path
             style="fill:none;stroke:black;stroke-width:1px;stroke-linecap:butt;stroke-linejoin:miter;stroke-opacity:1"
             d="m 443.2,278.39 c 11.01,-1.12 6.57,-0.53 13.33,-1.5"
             id="path5254" />
        <path
             style="fill:none;stroke:black;stroke-width:1px;stroke-linecap:butt;stroke-linejoin:miter;stroke-opacity:1"
             d="m 436.04,285.89 c -0.65,5.14 -0.15,0.89 -0.67,12.83"
             id="path5256" />
        <path
             style="fill:none;stroke:black;stroke-width:1px;stroke-linecap:butt;stroke-linejoin:miter;stroke-opacity:1"
             d="m 443.7,284.56 c 0.72,2.33 0.82,4.96 2.17,7 2.02,3.04 4.44,6.11 7.66,7.83 3.25,1.72 7.2,1.47 10.84,2 0.38,0.1 4.15,0.3 5,-0.33 0.1,-0.1 -0.1,-0.25 0,-0.34 0.43,-0.65 1.05,-1.17 1.66,-1.66 0.31,-0.26 0.64,-0.49 1,-0.67 0.1,0 0.26,0.1 0.33,0 0.26,-0.26 -0.9,-1.59 -1.33,-2.83 -0.45,-1.3 -0.1,-2.95 -0.66,-4.17"
             id="path5258" />
        <path
             style="fill:none;stroke:black;stroke-width:1px;stroke-linecap:butt;stroke-linejoin:miter;stroke-opacity:1"
             d="m 460.7,284.39 c 1.06,1.72 2.11,3.45 3.17,5.17"
             id="path5260" />
        <path
             style="fill:none;stroke:black;stroke-width:1px;stroke-linecap:butt;stroke-linejoin:miter;stroke-opacity:1"
             d="m 467.37,281.72 c 2.37,0 0.87,-0.31 2.5,3.84"
             id="path5262" />
        <path
             style="fill:none;stroke:black;stroke-width:1px;stroke-linecap:butt;stroke-linejoin:miter;stroke-opacity:1"
             d="m 486.36,257.39 c 2.55,1.16 1.79,0.17 2,3.17"
             id="path5264" />
        <path
             style="fill:none;stroke:black;stroke-width:1px;stroke-linecap:butt;stroke-linejoin:miter;stroke-opacity:1"
             d="m 480.53,265.23 c 12.71,-1.87 7.51,-1.67 15.5,-1.67"
             id="path5266" />
        <path
             style="fill:none;stroke:black;stroke-width:1px;stroke-linecap:butt;stroke-linejoin:miter;stroke-opacity:1"
             d="m 486.36,266.39 c -0.1,5.74 0.39,8.13 6.84,8.67"
             id="path5268" />
        <path
             style="fill:none;stroke:black;stroke-width:1px;stroke-linecap:butt;stroke-linejoin:miter;stroke-opacity:1"
             d="m 502.86,257.23 c -1.8,5.98 -2.17,12.18 -2.17,18.5"
             id="path5270" />
        <path
             style="fill:none;stroke:black;stroke-width:1px;stroke-linecap:butt;stroke-linejoin:miter;stroke-opacity:1"
             d="m 502.86,257.23 c 0.61,0.22 1.23,0.43 1.83,0.66 1.23,0.49 2.58,0.75 3.67,1.5 1.22,0.85 0.7,4.38 0.83,5.67 0.1,0.62 0.27,1.22 0.34,1.83 0.13,1.24 0,2.6 0,3.84 0,0.1 0.1,2.41 0,2.5 -0.1,0.1 -0.23,0 -0.34,0"
             id="path5272" />
        <path
             style="fill:none;stroke:black;stroke-width:1px;stroke-linecap:butt;stroke-linejoin:miter;stroke-opacity:1"
             d="m 503.19,264.06 c 1.64,-0.41 0.44,-0.18 3.67,0"
             id="path5274" />
        <path
             style="fill:none;stroke:black;stroke-width:1px;stroke-linecap:butt;stroke-linejoin:miter;stroke-opacity:1"
             d="m 502.19,267.73 c 4.18,0.2 2.35,0 5.5,0.5"
             id="path5276" />
        <path
             style="fill:none;stroke:black;stroke-width:1px;stroke-linecap:butt;stroke-linejoin:miter;stroke-opacity:1"
             d="m 491.53,283.06 c 5.63,-1.41 0.44,-0.16 16,-0.84"
             id="path5278" />
        <path
             style="fill:none;stroke:black;stroke-width:1px;stroke-linecap:butt;stroke-linejoin:miter;stroke-opacity:1"
             d="m 498.36,284.22 c 0.55,2.87 3.83,12.17 0.17,12.17"
             id="path5280" />
        <path
             style="fill:none;stroke:black;stroke-width:1px;stroke-linecap:butt;stroke-linejoin:miter;stroke-opacity:1"
             d="m 495.86,290.22 c 7.89,-1.84 5.15,-1.83 8,-1.83"
             id="path5282" />
        <path
             style="fill:none;stroke:black;stroke-width:1px;stroke-linecap:butt;stroke-linejoin:miter;stroke-opacity:1"
             d="m 485.86,298.72 c 0.28,0.11 0.54,0.37 0.84,0.34 3.79,-0.47 7.54,-1.32 11.33,-1.84 4.38,-0.6 8.75,-0.83 13.16,-0.83"
             id="path5284" />
        <path
             style="fill:none;stroke:black;stroke-width:1px;stroke-linecap:butt;stroke-linejoin:miter;stroke-opacity:1"
             d="m 534.36,259.56 c -2.84,0.72 -5.67,1.45 -8.5,2.17"
             id="path5286" />
        <path
             style="fill:none;stroke:black;stroke-width:1px;stroke-linecap:butt;stroke-linejoin:miter;stroke-opacity:1"
             d="m 521.53,265.56 c 6.16,-0.16 12.33,0.17 18.49,0.17"
             id="path5288" />
        <path
             style="fill:none;stroke:black;stroke-width:1px;stroke-linecap:butt;stroke-linejoin:miter;stroke-opacity:1"
             d="m 524.36,270.73 c 0.1,2.61 0.11,5.22 0.16,7.83"
             id="path5290" />
        <path
             style="fill:none;stroke:black;stroke-width:1px;stroke-linecap:butt;stroke-linejoin:miter;stroke-opacity:1"
             d="m 524.36,270.73 c 2.61,-0.1 5.22,-0.17 7.83,-0.17 1.67,0 3.34,0.1 5,0.17 0.1,0 0.16,0.1 0.17,0.16 0.1,1.5 0,3 0,4.5 0,0 0.1,2.34 -0.67,2.34"
             id="path5292" />
        <path
             style="fill:none;stroke:black;stroke-width:1px;stroke-linecap:butt;stroke-linejoin:miter;stroke-opacity:1"
             d="m 525.86,275.23 c 8.39,-1.01 5.53,-1 8.5,-1"
             id="path5294" />
        <path
             style="fill:none;stroke:black;stroke-width:1px;stroke-linecap:butt;stroke-linejoin:miter;stroke-opacity:1"
             d="m 524.52,278.56 c 5.17,0.71 7.15,1.37 11.5,1.17 0.31,0 1.79,-0.33 1.84,-0.34 0.11,0 0.39,0.1 0.33,0 -0.43,-0.61 -1,-1.11 -1.5,-1.66"
             id="path5300" />
        <path
             style="fill:none;stroke:black;stroke-width:1px;stroke-linecap:butt;stroke-linejoin:miter;stroke-opacity:1"
             d="m 526.19,285.39 c 3.57,0 0.45,0 9.33,-0.83"
             id="path5302" />
        <path
             style="fill:none;stroke:black;stroke-width:1px;stroke-linecap:butt;stroke-linejoin:miter;stroke-opacity:1"
             d="m 524.02,293.56 c 4.72,-1.4 9.55,-2.39 14.34,-3.5 1.11,-0.26 2.39,-0.47 3.5,-0.84"
             id="path5304" />
        <path
             style="fill:none;stroke:black;stroke-width:1px;stroke-linecap:butt;stroke-linejoin:miter;stroke-opacity:1"
             d="m 530.36,261.73 c 0.67,6.14 -0.66,12.68 0.16,18.83 0.31,2.24 1.3,4.39 1.5,6.66 0,0.3 0.27,4.11 0.5,4.34"
             id="path5306" />
        <path
             style="fill:none;stroke:black;stroke-width:1px;stroke-linecap:butt;stroke-linejoin:miter;stroke-opacity:1"
             d="m 541.19,275.06 c 3.61,0 7.22,0 10.83,0 0.17,0 0.48,-0.17 0.5,0 0.17,1.66 -0.1,3.33 0,5 0,0.67 0.15,1.33 0.17,2 0.1,2.25 -0.14,4.57 0,6.83 0.17,2.99 0.16,0.34 0.16,1.17"
             id="path5308" />
        <path
             style="fill:none;stroke:black;stroke-width:1px;stroke-linecap:butt;stroke-linejoin:miter;stroke-opacity:1"
             d="m 547.19,269.56 c 0,5.06 0.33,10.11 0.33,15.16"
             id="path5310" />
        <path
             style="fill:none;stroke:black;stroke-width:1px;stroke-linecap:butt;stroke-linejoin:miter;stroke-opacity:1"
             d="m 561.69,271.73 c 2.83,-0.28 5.66,-0.56 8.5,-0.84"
             id="path5312" />
        <path
             style="fill:none;stroke:black;stroke-width:1px;stroke-linecap:butt;stroke-linejoin:miter;stroke-opacity:1"
             d="m 564.02,263.89 c 0.11,0.34 0.31,0.65 0.33,1 0.37,6.44 0.54,12.89 0.84,19.33 0.2,4.46 0.5,8.15 0.5,12.34"
             id="path5314" />
        <path
             style="fill:none;stroke:black;stroke-width:1px;stroke-linecap:butt;stroke-linejoin:miter;stroke-opacity:1"
             d="m 564.2,272.67 c -1.15,2.48 -0.1,0.27 -3.42,5.36 -1.9,2.9 0.52,-0.76 -0.82,1.59 0,0.1 -0.12,0.1 -0.18,0.12"
             id="path5320" />
        <path
             style="fill:none;stroke:black;stroke-width:1px;stroke-linecap:butt;stroke-linejoin:miter;stroke-opacity:1"
             d="m 564.2,272.67 c 3.36,3.42 2.6,1.96 3.42,3.6"
             id="path5322" />
        <path
             style="fill:none;stroke:black;stroke-width:1px;stroke-linecap:butt;stroke-linejoin:miter;stroke-opacity:1"
             d="m 576.69,263.54 c -0.95,0.71 -2.31,1.71 -2.65,2.53 -0.12,0.27 1.78,1.61 2.06,1.89 0.1,0.1 0.15,0.2 0.23,0.29"
             id="path5324" />
        <path
             style="fill:none;stroke:black;stroke-width:1px;stroke-linecap:butt;stroke-linejoin:miter;stroke-opacity:1"
             d="m 577.81,266.96 c -0.28,1.6 -3.26,2.62 -4.01,4.12 0,0 0,0.1 0.1,0.1 0.23,0.1 0.47,0.14 0.71,0.18 0.81,0.1 1.16,0 1.94,0.1 0.74,0 1.44,0.1 2.18,0.1"
             id="path5326" />
        <path
             style="fill:none;stroke:black;stroke-width:1px;stroke-linecap:butt;stroke-linejoin:miter;stroke-opacity:1"
             d="m 578.46,270.26 c 1.48,2.72 1.47,1.68 1.47,2.76"
             id="path5328" />
        <path
             style="fill:none;stroke:black;stroke-width:1px;stroke-linecap:butt;stroke-linejoin:miter;stroke-opacity:1"
             d="m 585.88,263.6 c -1.05,0.52 -2.71,1.24 -3.12,2.35 -0.18,0.48 0.65,0.77 0.94,1.18 0.1,0.12 0.12,0.36 0.24,0.47 0.19,0.2 0.17,0 0.17,0.18"
             id="path5330" />
        <path
             style="fill:none;stroke:black;stroke-width:1px;stroke-linecap:butt;stroke-linejoin:miter;stroke-opacity:1"
             d="m 586.29,267.25 c -0.71,1.08 -1.48,2.12 -2.12,3.24 -0.21,0.36 -0.28,0.78 -0.41,1.18 0,0 0,0.11 0,0.12 0.1,0 0.16,0 0.23,0 0.92,0.1 1.91,0.13 2.83,0 0.42,-0.1 0.87,0 1.3,0"
             id="path5332" />
        <path
             style="fill:none;stroke:black;stroke-width:1px;stroke-linecap:butt;stroke-linejoin:miter;stroke-opacity:1"
             d="m 587.82,270.26 c 0.49,1.29 0.99,2.59 1.48,3.88"
             id="path5334" />
        <path
             style="fill:none;stroke:black;stroke-width:1px;stroke-linecap:butt;stroke-linejoin:miter;stroke-opacity:1"
             d="m 571.39,278.68 c 3.08,0.12 6.26,0 9.3,-0.71 0.56,-0.12 1.09,-0.36 1.65,-0.47 0.27,-0.1 0.56,0 0.83,0 0.97,-0.1 2.13,-0.1 3.06,-0.23 0.25,0 0.47,-0.16 0.71,-0.24 0.39,-0.1 0.78,-0.19 1.18,-0.23 0.99,-0.11 2.19,0 3.18,0 0.43,0 0.87,0.1 1.3,0 0.2,-0.1 0.38,-0.19 0.59,-0.24 1.78,-0.4 -0.62,0.36 0.82,-0.12"
             id="path5338" />
        <path
             style="fill:none;stroke:black;stroke-width:1px;stroke-linecap:butt;stroke-linejoin:miter;stroke-opacity:1"
             d="m 580.22,261.83 c -0.62,4.08 0.61,7.14 1.54,10.84 0.17,0.69 0.16,1.43 0.35,2.12 0.27,1 0.65,2.05 0.82,3.07 0.46,2.72 -0.22,0.41 0.36,2.71 0.18,0.74 0.54,1.42 0.82,2.12 0.46,1.15 0.92,2.27 1.42,3.41 0.51,1.2 0.93,2.36 1.88,3.3 2.01,2.01 -0.69,-0.94 1.06,0.95 1.18,1.26 2.28,2.59 3.42,3.89 0.19,0.21 0.49,0.52 0.82,0.35 0.57,-0.29 0.12,-2.36 0.12,-3.18"
             id="path5340" />
        <path
             style="fill:none;stroke:black;stroke-width:1px;stroke-linecap:butt;stroke-linejoin:miter;stroke-opacity:1"
             d="m 589.89,285.99 c -3.53,5.54 -2.17,3.48 -4.01,6.24"
             id="path5342" />
        <path
             style="fill:none;stroke:black;stroke-width:1px;stroke-linecap:butt;stroke-linejoin:miter;stroke-opacity:1"
             d="m 574.92,281.63 c -0.59,2.31 -1.18,4.63 -1.77,6.95"
             id="path5344" />
        <path
             style="fill:none;stroke:black;stroke-width:1px;stroke-linecap:butt;stroke-linejoin:miter;stroke-opacity:1"
             d="m 574.33,285.4 c 1.17,-0.54 2.11,0.94 3.3,0.94"
             id="path5346" />
        <path
             style="fill:none;stroke:black;stroke-width:1px;stroke-linecap:butt;stroke-linejoin:miter;stroke-opacity:1"
             d="m 248.16,263.01 c -4.66,0 -1.46,-0.18 -10.6,3.77 -0.47,0.2 -1.89,1.03 -1.89,1.41 0,0.71 0.71,1.23 0.94,1.89 0.38,1.08 0.78,2.17 0.95,3.3 0.57,4 -0.56,8.48 0,12.49 1.02,7.39 0.94,2.55 0.94,5.89"
             id="path5586" />
        <path
             style="fill:none;stroke:black;stroke-width:1px;stroke-linecap:butt;stroke-linejoin:miter;stroke-opacity:1"
             d="m 238.97,270.08 c 9.06,-0.31 4.04,0.13 9.9,-0.71 0.1,0 0.19,-0.1 0.23,0 1.39,2.22 0.76,1.77 1.42,4.48 0.42,1.74 1.05,3.43 1.41,5.18 0.61,2.97 0.47,5.96 0.47,8.96"
             id="path5588" />
        <path
             style="fill:none;stroke:black;stroke-width:1px;stroke-linecap:butt;stroke-linejoin:miter;stroke-opacity:1"
             d="m 240.38,275.97 c 1.89,0 3.77,0 5.66,0"
             id="path5590" />
        <path
             style="fill:none;stroke:black;stroke-width:1px;stroke-linecap:butt;stroke-linejoin:miter;stroke-opacity:1"
             d="m 240.38,281.16 c 2.36,0.1 4.72,0.15 7.07,0.23"
             id="path5592" />
        <path
             style="fill:none;stroke:black;stroke-width:1px;stroke-linecap:butt;stroke-linejoin:miter;stroke-opacity:1"
             d="m 238.5,291.76 c 3.85,-3.29 9.46,-2.29 13.9,-3.77"
             id="path5594" />
        <path
             style="fill:none;stroke:black;stroke-width:1px;stroke-linecap:butt;stroke-linejoin:miter;stroke-opacity:1"
             d="m 263.72,266.07 c 2.59,0.16 5.18,0.32 7.77,0.47 1.12,0.1 1.56,8.11 1.18,8.49 -0.12,0.12 -1.65,0 -1.88,0 -0.77,0 -8.17,1.01 -8.49,1.65 -0.19,0.38 0.34,0.77 0.47,1.18 0.8,2.38 0.85,3.07 0.95,5.65 0.1,1.78 -0.76,4.69 1.17,5.89 0.95,0.6 4.61,2.1 5.66,2.36 1.23,0.31 5.57,0.11 6.83,-0.24 2.19,-0.59 0.34,-0.19 1.18,-0.7 0.49,-0.29 3.07,-0.81 3.07,-1.42 0,0 -2.55,-3.34 -3.07,-4.24"
             id="path5596" />
        <path
             style="fill:none;stroke:black;stroke-width:1px;stroke-linecap:butt;stroke-linejoin:miter;stroke-opacity:1"
             d="m 297.18,291.05 c -0.1,-4.08 0,-8.17 -0.23,-12.25 -0.41,-8.71 -0.9,-12.27 -1.65,-20.03 -0.13,-1.3 2.89,0.31 3.53,0.47 1.63,0.41 3.01,0.73 4.48,1.65 0.6,0.37 1.09,0.99 1.65,1.41 1.24,0.93 2.1,1.43 2.59,3.07 0.27,0.9 0.13,2.43 -0.71,3.06 -0.12,0.1 -0.32,-0.1 -0.47,0 -0.49,0.18 -0.96,0.43 -1.41,0.71 -0.58,0.35 -1.07,0.83 -1.65,1.17 -0.47,0.29 -1.79,0.4 -2.12,0.48 -1.52,0.35 -3.09,0.95 -4.48,1.65"
             id="path5598" />
        <path
             style="fill:none;stroke:black;stroke-width:1px;stroke-linecap:butt;stroke-linejoin:miter;stroke-opacity:1"
             d="m 324.05,289.64 c 2.35,-7.06 0.8,-15 -0.24,-22.15 -0.33,-2.29 -0.87,-4.55 -1.18,-6.84 -0.1,-0.62 0,-1.25 0,-1.88 0,-0.1 -0.1,-0.65 0,-0.71 0.34,-0.33 0.95,0 1.42,0 0.86,-0.1 1.73,-0.15 2.59,-0.24 1.83,-0.19 4.84,-1.17 6.6,0 0.37,0.25 0.6,0.66 0.94,0.95 0.9,0.77 1.44,0.77 1.89,2.12 0.22,0.67 0,1.41 0,2.12 0,3.78 -1.53,3.83 -4.48,5.42 -3.7,1.99 2.03,-0.55 -2.12,1.18 -0.23,0.1 -3.85,1.44 -3.54,1.65 0.44,0.29 0.95,0.47 1.42,0.7 0.94,0.55 1.93,1.02 2.82,1.65 1.67,1.18 4.06,3.28 5.43,4.95 1.1,1.35 -0.26,0.6 1.17,1.89 0.51,0.45 1.16,0.72 1.65,1.18 0.17,0.15 1.89,1.95 1.89,2.59 0,0.16 -0.32,0 -0.47,0"
             id="path5600" />
    </g>
</svg>
