<?xml version="1.0" encoding="UTF-8" standalone="no"?>
<!-- Created with Inkscape (http://www.inkscape.org/) -->

<svg
     width="600"
     height="500"
     viewBox="0 0 600 500"
     version="1.1"
     id="svg5"
     sodipodi:docname="20220415(2).svg"
     inkscape:version="1.1 (c68e22c387, 2021-05-23)"
     inkscape:export-filename="C:\Program Files\XAMPP\htdocs\koko-campus.org\blog2\data\20220415(2).png"
     inkscape:export-xdpi="96"
     inkscape:export-ydpi="96"
     xmlns:inkscape="http://www.inkscape.org/namespaces/inkscape"
     xmlns:sodipodi="http://sodipodi.sourceforge.net/DTD/sodipodi-0.dtd"
     xmlns="http://www.w3.org/2000/svg"
     xmlns:svg="http://www.w3.org/2000/svg">
    <sodipodi:namedview
         id="namedview7"
         pagecolor="#ffffff"
         bordercolor="#666666"
         borderopacity="1.0"
         inkscape:pageshadow="2"
         inkscape:pageopacity="0.0"
         inkscape:pagecheckerboard="0"
         inkscape:document-units="px"
         showgrid="false"
         units="px"
         width="600px"
         inkscape:zoom="0.7501"
         inkscape:cx="79.989"
         inkscape:cy="297.96"
         inkscape:window-width="1920"
         inkscape:window-height="1009"
         inkscape:window-x="-8"
         inkscape:window-y="-8"
         inkscape:window-maximized="1"
         inkscape:current-layer="layer1" />
    <defs
         id="defs2">
        <filter
             inkscape:collect="always"
             style="color-interpolation-filters:sRGB"
             id="filter1190"
             x="-0.10924"
             y="-0.21721"
             width="1.2279"
             height="1.4415">
            <feGaussianBlur
                 inkscape:collect="always"
                 stdDeviation="4.939"
                 id="feGaussianBlur1192" />
        </filter>
        <filter
             inkscape:collect="always"
             style="color-interpolation-filters:sRGB"
             id="filter1194"
             x="-0.035461"
             y="-0.026982"
             width="1.0709"
             height="1.0533">
            <feGaussianBlur
                 inkscape:collect="always"
                 stdDeviation="4.939"
                 id="feGaussianBlur1196" />
        </filter>
    </defs>
    <g
         inkscape:label="レイヤー 1"
         inkscape:groupmode="layer"
         id="layer1">
        <path
             style="fill:none;stroke:black;stroke-width:1;stroke-linecap:butt;stroke-linejoin:miter;stroke-miterlimit:4;stroke-dasharray:none;stroke-opacity:1"
             d="m 106.75,206.06 c 3.11,0.87 6.17,0.94 9.36,0.94"
             id="path887" />
        <path
             style="fill:none;stroke:black;stroke-width:1;stroke-linecap:butt;stroke-linejoin:miter;stroke-miterlimit:4;stroke-dasharray:none;stroke-opacity:1"
             d="m 111.66,202.79 c 0.85,3.76 0.7,7.64 0.7,11.47"
             id="path889" />
        <path
             style="fill:none;stroke:black;stroke-width:1;stroke-linecap:butt;stroke-linejoin:miter;stroke-miterlimit:4;stroke-dasharray:none;stroke-opacity:1"
             d="m 127.6,203.48 c 0.9,0.57 9.68,4.86 9.37,5.16 -0.18,0.17 -0.47,0.15 -0.7,0.23 -0.8,0.32 -1.51,0.47 -2.35,0.47"
             id="path891" />
        <path
             style="fill:none;stroke:black;stroke-width:1;stroke-linecap:butt;stroke-linejoin:miter;stroke-miterlimit:4;stroke-dasharray:none;stroke-opacity:1"
             d="m 126.18,213.1 c -0.45,4.98 -0.19,0.96 0,8.89 0.25,9.61 -0.28,-2.42 0.25,5.39 0.12,1.54 -0.62,1.97 -1.41,3.28 -1.31,2.18 -3.17,3.74 -4.69,0.7 0,-0.12 -0.16,-4.81 0,-5.15 0.14,-0.28 0.63,0.13 0.94,0 2.15,-0.3 5.84,-0.7 7.73,0.23 0.28,0.14 0.45,0.54 0.7,0.71 0.47,0.31 0.81,0.12 1.17,0.46"
             id="path893" />
        <path
             style="fill:none;stroke:black;stroke-width:1;stroke-linecap:butt;stroke-linejoin:miter;stroke-miterlimit:4;stroke-dasharray:none;stroke-opacity:1"
             d="m 143.06,216.84 c 1.1,-0.23 2.18,-0.46 3.28,-0.7 2.49,-0.86 4.93,-1.94 7.5,-2.58 1.8,-0.45 6.63,-0.46 8.67,-0.46"
             id="path895" />
        <path
             style="fill:none;stroke:black;stroke-width:1;stroke-linecap:butt;stroke-linejoin:miter;stroke-miterlimit:4;stroke-dasharray:none;stroke-opacity:1"
             d="m 155.48,207 c 0.6,3.26 0.46,6.55 0.46,9.84"
             id="path897" />
        <path
             style="fill:none;stroke:black;stroke-width:1;stroke-linecap:butt;stroke-linejoin:miter;stroke-miterlimit:4;stroke-dasharray:none;stroke-opacity:1"
             d="m 145.4,208.4 c 0.55,0.4 1.33,0.58 1.64,1.18 0.74,1.36 0.92,2.97 1.4,4.45 0.29,0.86 0.72,1.69 0.94,2.58 0.17,0.68 0.12,1.41 0.24,2.1 0.15,0.95 0.41,0.71 0.93,1.65 0.33,0.56 0.42,1.54 0.7,2.1 0.27,0.53 0.74,1.11 0.94,1.65 0.34,0.85 0,0.78 0.48,1.4 0.3,0.47 0.16,0.12 0.69,0.23 0.48,0.16 0.12,0.23 0.24,0.47 0.32,0.64 0.13,0 0.47,0.23 0.18,0.13 0.29,0.36 0.47,0.48 0.38,0.26 5.62,0.32 6.09,0 0.6,-0.4 1.57,-1.41 2.34,-1.41"
             id="path899" />
        <path
             style="fill:none;stroke:black;stroke-width:1;stroke-linecap:butt;stroke-linejoin:miter;stroke-miterlimit:4;stroke-dasharray:none;stroke-opacity:1"
             d="m 167.19,202.56 c 0.15,0.85 0.31,1.7 0.47,2.56"
             id="path901" />
        <path
             style="fill:none;stroke:black;stroke-width:1;stroke-linecap:butt;stroke-linejoin:miter;stroke-miterlimit:4;stroke-dasharray:none;stroke-opacity:1"
             d="m 170.01,202.56 c 0.28,0.54 0.23,1.05 0.34,1.63 0.12,0.28 0.18,0.47 0.18,0.76"
             id="path905" />
        <path
             style="fill:none;stroke:black;stroke-width:1;stroke-linecap:butt;stroke-linejoin:miter;stroke-miterlimit:4;stroke-dasharray:none;stroke-opacity:1"
             d="m 189.91,203.02 c -4.34,3.82 -8.56,7.86 -12.65,11.94"
             id="path907" />
        <path
             style="fill:none;stroke:black;stroke-width:1;stroke-linecap:butt;stroke-linejoin:miter;stroke-miterlimit:4;stroke-dasharray:none;stroke-opacity:1"
             d="m 183.83,208.87 c 0.12,1.02 0.15,2.04 0.23,3.05 0.16,2.11 0.17,4.24 0.46,6.33 0.47,3.26 1.89,6.72 1.89,10.07"
             id="path909" />
        <path
             style="fill:none;stroke:black;stroke-width:1;stroke-linecap:butt;stroke-linejoin:miter;stroke-miterlimit:4;stroke-dasharray:none;stroke-opacity:1"
             d="m 198.46,202.66 c -1.35,0.54 -2.76,1.02 -3.98,1.82"
             id="path911" />
        <path
             style="fill:none;stroke:black;stroke-width:1;stroke-linecap:butt;stroke-linejoin:miter;stroke-miterlimit:4;stroke-dasharray:none;stroke-opacity:1"
             d="m 191.68,208.06 c 0.43,-0.12 0.84,-0.27 1.28,-0.31 2.43,-0.14 3.5,0.31 5.45,-0.34 0.12,0 0.12,-0.14 0.17,-0.18 0.23,-0.12 0.7,0 0.94,0 0.21,0 1.04,-0.22 1.17,-0.34"
             id="path913" />
        <path
             style="fill:none;stroke:black;stroke-width:1;stroke-linecap:butt;stroke-linejoin:miter;stroke-miterlimit:4;stroke-dasharray:none;stroke-opacity:1"
             d="m 192.91,210.81 c 0,0.31 -0.15,3.54 0.23,3.92"
             id="path915" />
        <path
             style="fill:none;stroke:black;stroke-width:1;stroke-linecap:butt;stroke-linejoin:miter;stroke-miterlimit:4;stroke-dasharray:none;stroke-opacity:1"
             d="m 192.91,210.81 c 1.72,0.43 0.43,0.21 3.8,-0.35 0.49,-0.12 0.97,-0.16 1.47,-0.25 0.12,0 0.23,0 0.34,0 0.42,0.13 1.03,1.48 1.06,1.71 0,0.21 -0.12,0.44 0,0.64 0.46,2.56 0.12,-0.65 0.29,1.06 0.13,0.64 0.26,1.23 0.36,1.87 0,0.12 0.12,0.22 0,0.24 -0.12,0 -0.17,0 -0.23,0 -0.13,0 -0.2,0.12 -0.31,0.12 -0.12,0 -0.23,0 -0.35,0 -0.2,0.12 -0.37,0.23 -0.59,0.31 -0.24,0.12 -0.51,0.12 -0.75,0.12 -0.17,0.12 -0.31,0.17 -0.48,0.23 -0.45,0.19 -0.8,0.3 -1.27,0.41 -0.5,0.12 -1.01,0.21 -1.54,0.25 -0.17,0 -0.34,0 -0.52,0 -0.57,0.12 -1.11,0.17 -1.71,0.17 0,0 0.13,0 0.13,0 0,0 0,-0.12 0,-0.12 0.29,-0.5 0.24,-0.16 0.24,-0.64 0,-0.38 0.12,-0.94 0,-1.3 0,0 -0.12,0 -0.12,-0.12 0,0 0,-0.54 0,-0.54 0.12,0 0.26,0 0.4,0"
             id="path917" />
        <path
             style="fill:none;stroke:black;stroke-width:1;stroke-linecap:butt;stroke-linejoin:miter;stroke-miterlimit:4;stroke-dasharray:none;stroke-opacity:1"
             d="m 193.13,214.71 c 1.34,-1.01 2.93,-1.73 4.58,-2.09 0.2,-0.12 0.44,0.13 0.64,0 0.66,-0.13 -0.95,-0.12 1.23,-0.12"
             id="path919" />
        <path
             style="fill:none;stroke:black;stroke-width:1;stroke-linecap:butt;stroke-linejoin:miter;stroke-miterlimit:4;stroke-dasharray:none;stroke-opacity:1"
             d="m 194.02,221.76 c 1.86,-1.09 3.83,-2.57 6.09,-2.57"
             id="path921" />
        <path
             style="fill:none;stroke:black;stroke-width:1;stroke-linecap:butt;stroke-linejoin:miter;stroke-miterlimit:4;stroke-dasharray:none;stroke-opacity:1"
             d="m 192.96,227.15 c 0.7,-0.27 1.45,-0.46 2.1,-0.81 1.33,-0.71 2.6,-2.11 4,-2.7 0.14,-0.12 0.31,-0.12 0.46,-0.12 0.12,0 0,-0.12 0,-0.12 0.37,-0.24 1.3,-0.19 1.75,-0.35 0.17,-0.12 0.31,-0.17 0.48,-0.23 0.41,-0.15 0.99,-0.13 1.4,-0.24 0.22,-0.12 0.39,-0.25 0.58,-0.35"
             id="path923" />
        <path
             style="fill:none;stroke:black;stroke-width:1;stroke-linecap:butt;stroke-linejoin:miter;stroke-miterlimit:4;stroke-dasharray:none;stroke-opacity:1"
             d="m 196.45,203.29 c 0,1.08 0,1.06 0.12,2.22 0.28,3.07 0,-0.64 0.25,1.95 0.12,0.43 0,0.87 0,1.29 0,0.79 0,1.61 -0.12,2.4 0,0.38 -0.13,0.74 -0.16,1.12 0,0.26 0,0.53 -0.12,0.79 -0.13,0.66 -0.14,1.32 -0.17,1.98 0,0.53 0,1.06 0,1.58 0,0.44 -0.13,0.89 0,1.33 0.12,0.43 0.18,0.85 0.25,1.27 0,0.16 0,0.31 0.12,0.47 0.12,0.4 0.26,0.79 0.33,1.19 0.12,0.28 0.12,0.6 0.12,0.88 0,0.16 0,0.39 0,0.53 0,0 0.13,0 0.13,0.12 0,0.13 0,0.13 0,0.16 0,0.17 0.13,0.34 0.17,0.5 0,0.12 0,0.22 0.12,0.34 0.12,0.2 0.24,0.31 0.24,0.53"
             id="path925" />
        <path
             style="fill:none;stroke:black;stroke-width:1;stroke-linecap:butt;stroke-linejoin:miter;stroke-miterlimit:4;stroke-dasharray:none;stroke-opacity:1"
             d="m 203.62,212.98 c 1.75,-1.38 3.21,-3.23 5.15,-4.34 0.63,-0.35 2.51,-0.73 3.05,0 0.35,0.48 0.56,3.47 0.58,4.11 0.16,2.99 0.13,6 0.13,9.01"
             id="path927" />
        <path
             style="fill:none;stroke:black;stroke-width:1;stroke-linecap:butt;stroke-linejoin:miter;stroke-miterlimit:4;stroke-dasharray:none;stroke-opacity:1"
             d="m 206.55,203.37 c 0.15,0.27 0.4,0.51 0.47,0.82 0.14,0.61 0.12,1.25 0.12,1.87 0.15,1.99 -0.12,4.01 0.13,5.98 0.12,0.35 0.19,0.69 0.23,1.06 0.12,0.84 -0.13,1.73 0,2.57 0.12,0.8 0.25,1.64 0.35,2.46 0.16,1.25 0,2.6 0,3.86"
             id="path929" />
        <path
             style="fill:none;stroke:black;stroke-width:1;stroke-linecap:butt;stroke-linejoin:miter;stroke-miterlimit:4;stroke-dasharray:none;stroke-opacity:1"
             d="m 221.78,205.12 c 3.63,0.42 4.49,-0.84 7.5,-2.1 0.77,-0.33 1.75,-0.23 2.58,-0.23"
             id="path931" />
        <path
             style="fill:none;stroke:black;stroke-width:1;stroke-linecap:butt;stroke-linejoin:miter;stroke-miterlimit:4;stroke-dasharray:none;stroke-opacity:1"
             d="m 223.42,212.39 c 2.04,-1.01 4.08,-2.04 6.09,-3.05 0.28,-0.14 0.63,0.12 0.94,0 0.46,-0.12 0.91,-0.45 1.41,-0.7"
             id="path933" />
        <path
             style="fill:none;stroke:black;stroke-width:1;stroke-linecap:butt;stroke-linejoin:miter;stroke-miterlimit:4;stroke-dasharray:none;stroke-opacity:1"
             d="m 224.82,199.04 c 1.49,2.97 0.12,-0.31 0.94,3.28 0.12,0.33 0.34,0.61 0.48,0.93 0.53,1.3 1.05,2.85 1.4,4.22 0.45,1.79 0.7,3.56 0.93,5.39 0.13,0.58 0.59,1.15 0.71,1.64 0.15,0.61 0.12,1.25 0.23,1.88 0.2,0.96 0.28,0 0.69,0.93 0.18,0.37 0.13,0.79 0.25,1.17 0.23,0.7 0.47,0.94 -0.48,0.94"
             id="path935" />
        <path
             style="fill:none;stroke:black;stroke-width:1;stroke-linecap:butt;stroke-linejoin:miter;stroke-miterlimit:4;stroke-dasharray:none;stroke-opacity:1"
             d="m 221.07,221.53 c 0.55,0.39 1.11,0.76 1.65,1.16 1.52,1.19 2.98,2.14 4.92,2.59 0.52,0.12 4.25,0 4.68,0.46"
             id="path937" />
        <path
             style="fill:none;stroke:black;stroke-width:1;stroke-linecap:butt;stroke-linejoin:miter;stroke-miterlimit:4;stroke-dasharray:none;stroke-opacity:1"
             d="m 132.35,250.83 c 5.61,-0.19 10.64,-1.1 15.9,-2.98"
             id="path939" />
        <path
             style="fill:none;stroke:black;stroke-width:1;stroke-linecap:butt;stroke-linejoin:miter;stroke-miterlimit:4;stroke-dasharray:none;stroke-opacity:1"
             d="m 140.3,244.53 c -0.69,10.82 -1,21.63 -1,32.47"
             id="path941" />
        <path
             style="fill:none;stroke:black;stroke-width:1;stroke-linecap:butt;stroke-linejoin:miter;stroke-miterlimit:4;stroke-dasharray:none;stroke-opacity:1"
             d="m 147.92,260.77 c 4.67,-0.94 2.24,-0.31 7.28,-1.99"
             id="path943" />
        <path
             style="fill:none;stroke:black;stroke-width:1;stroke-linecap:butt;stroke-linejoin:miter;stroke-miterlimit:4;stroke-dasharray:none;stroke-opacity:1"
             d="m 148.58,269.05 c 3.62,1.46 7.65,0.88 11.26,-0.33"
             id="path945" />
        <path
             style="fill:none;stroke:black;stroke-width:1;stroke-linecap:butt;stroke-linejoin:miter;stroke-miterlimit:4;stroke-dasharray:none;stroke-opacity:1"
             d="m 172.1,254.15 c 1.43,0.47 3.19,8.82 4.64,10.26"
             id="path947" />
        <path
             style="fill:none;stroke:black;stroke-width:1;stroke-linecap:butt;stroke-linejoin:miter;stroke-miterlimit:4;stroke-dasharray:none;stroke-opacity:1"
             d="m 184.36,251.49 c 3.73,6.2 2.24,3.18 4.64,8.95"
             id="path949" />
        <path
             style="fill:none;stroke:black;stroke-width:1;stroke-linecap:butt;stroke-linejoin:miter;stroke-miterlimit:4;stroke-dasharray:none;stroke-opacity:1"
             d="m 201.92,252.49 c 4.09,-1.02 1.61,-0.13 5.97,-2.65 5.23,-3.04 6.07,-2.28 10.93,-0.67 0.61,0.2 1.55,0.54 1.98,0.99 0.42,0.42 0,3.45 0,3.99 0,1.87 0.13,8.18 -0.98,9.6 -0.99,1.31 -2.18,2.18 -3.31,3.31 -0.7,0.69 1.04,0 -0.33,0.67 -0.9,0.44 -2.73,-1.93 -3.33,-2.32"
             id="path951" />
        <path
             style="fill:none;stroke:black;stroke-width:1;stroke-linecap:butt;stroke-linejoin:miter;stroke-miterlimit:4;stroke-dasharray:none;stroke-opacity:1"
             d="m 209.54,241.21 c 0.15,6.8 -1.8,13.35 -3.31,19.89 -0.21,0.86 -1,2.1 -1,2.98"
             id="path953" />
        <path
             style="fill:none;stroke:black;stroke-width:1;stroke-linecap:butt;stroke-linejoin:miter;stroke-miterlimit:4;stroke-dasharray:none;stroke-opacity:1"
             d="m 223.46,242.21 c 8.27,2.89 4.59,6.91 9.28,11.59"
             id="path955" />
        <path
             style="fill:none;stroke:black;stroke-width:1;stroke-linecap:butt;stroke-linejoin:miter;stroke-miterlimit:4;stroke-dasharray:none;stroke-opacity:1"
             d="m 354.05,207.42 c -3.62,-0.51 -4.45,0.46 -6.2,3.1 -0.16,0.22 -1.55,0.88 -1.55,1.24 0,0.42 0.28,0.81 0.32,1.23 0.11,0.93 -0.12,1.86 0,2.78 0.11,1.98 0.67,3.92 0.92,5.89 0.44,3.5 0.35,7.03 0.61,10.52 0.12,1.44 0.12,2.98 0.63,4.34 0.36,0.92 0.83,1.35 1.24,2.17"
             id="path995" />
        <path
             style="fill:none;stroke:black;stroke-width:1;stroke-linecap:butt;stroke-linejoin:miter;stroke-miterlimit:4;stroke-dasharray:none;stroke-opacity:1"
             d="m 348.78,212.06 c 3.61,0 7.23,0 10.83,0 0.7,0 1.85,-0.11 1.87,0 0.49,1.47 0,8.15 0,9.92 0,4.56 0.61,9.08 0.61,13.62"
             id="path997" />
        <path
             style="fill:none;stroke:black;stroke-width:1;stroke-linecap:butt;stroke-linejoin:miter;stroke-miterlimit:4;stroke-dasharray:none;stroke-opacity:1"
             d="m 347.54,221.98 c 3.25,-0.97 6.13,-3.41 9.59,-3.41"
             id="path999" />
        <path
             style="fill:none;stroke:black;stroke-width:1;stroke-linecap:butt;stroke-linejoin:miter;stroke-miterlimit:4;stroke-dasharray:none;stroke-opacity:1"
             d="m 348.78,229.09 c 1.74,-0.9 7.25,-1.06 8.35,-2.16"
             id="path1001" />
        <path
             style="fill:none;stroke:black;stroke-width:1;stroke-linecap:butt;stroke-linejoin:miter;stroke-miterlimit:4;stroke-dasharray:none;stroke-opacity:1"
             d="m 350.02,238.69 c 2.58,0.31 5.14,1.09 7.74,0.94 0.89,-0.12 1.41,-1.09 2.16,-1.55 0.59,-0.37 1.21,-0.69 1.87,-0.94 0.39,-0.14 1.25,0.12 1.24,0 -0.23,-0.55 -0.63,-1.02 -0.94,-1.54"
             id="path1003" />
        <path
             style="fill:none;stroke:black;stroke-width:1;stroke-linecap:butt;stroke-linejoin:miter;stroke-miterlimit:4;stroke-dasharray:none;stroke-opacity:1"
             d="m 381.92,210.21 c -0.42,0 -0.99,-0.33 -1.26,0 -2.25,2.91 -5.56,8.58 -5.56,12.69"
             id="path1005" />
        <path
             style="fill:none;stroke:black;stroke-width:1;stroke-linecap:butt;stroke-linejoin:miter;stroke-miterlimit:4;stroke-dasharray:none;stroke-opacity:1"
             d="m 393.06,202.46 c -0.12,0.41 -0.56,0.9 -0.31,1.24 0.69,0.96 1.96,1.33 2.79,2.17 1.44,1.45 2.75,3.03 4.03,4.65 2.07,2.64 4.38,5.97 5.88,8.98 0.34,0.69 1.57,0.95 2.16,1.54"
             id="path1007" />
        <path
             style="fill:none;stroke:black;stroke-width:1;stroke-linecap:butt;stroke-linejoin:miter;stroke-miterlimit:4;stroke-dasharray:none;stroke-opacity:1"
             d="m 384.08,222.59 c 2.26,-0.51 4.52,-1.18 6.81,-1.55 3,-0.49 2.79,-0.29 4.34,1.24 0.26,0.27 0.76,0.29 0.92,0.62 0.54,1.07 0.51,5.06 0.62,5.88 0.11,0.47 1.54,3.72 0.93,4.34 -0.15,0.16 -0.74,-0.13 -0.93,0 -0.81,0.54 -1.46,1.24 -2.47,1.24"
             id="path1009" />
        <path
             style="fill:none;stroke:black;stroke-width:1;stroke-linecap:butt;stroke-linejoin:miter;stroke-miterlimit:4;stroke-dasharray:none;stroke-opacity:1"
             d="m 388.86,222.15 c -0.4,2.8 0.84,6.65 -0.43,9.19 -0.76,1.5 -3.38,4.04 -4.6,5.26"
             id="path1013" />
        <path
             style="fill:none;stroke:black;stroke-width:1;stroke-linecap:butt;stroke-linejoin:miter;stroke-miterlimit:4;stroke-dasharray:none;stroke-opacity:1"
             d="m 428.28,218.86 c -2.42,5.41 0.93,-2.73 -1.1,5.7 -0.22,0.96 -0.79,1.8 -1.32,2.63 -1.54,2.46 -0.68,1.03 -1.75,1.75 -1.71,1.14 -0.58,-3.83 -0.43,-4.38 0.11,-0.29 -0.12,-0.6 0,-0.88 0.72,-2.15 2.41,-4.16 3.94,-5.69 0.5,-0.5 0.31,0.72 0.66,0.87 0.52,0.24 1.16,-0.12 1.75,0 0.45,0.11 3.06,2.55 3.29,2.84 0.12,0.2 0.11,0.46 0.21,0.66 0.12,0.24 0.36,0.41 0.44,0.66 0.43,1.31 0.21,4.6 0.21,6.14"
             id="path1015" />
        <path
             style="fill:none;stroke:black;stroke-width:1;stroke-linecap:butt;stroke-linejoin:miter;stroke-miterlimit:4;stroke-dasharray:none;stroke-opacity:1"
             d="m 449.51,205.73 c -0.29,0.8 -0.67,1.58 -0.88,2.41 -0.24,1 -0.55,3.31 0.45,3.06 0.11,0 0.94,-0.28 1.09,-0.43 0.42,-0.43 0.74,-1.06 1.09,-1.54 0.27,-0.36 0.67,-0.44 0.88,-0.66 0.45,-0.44 0.66,-1.35 0.66,-1.97"
             id="path1017" />
        <path
             style="fill:none;stroke:black;stroke-width:1;stroke-linecap:butt;stroke-linejoin:miter;stroke-miterlimit:4;stroke-dasharray:none;stroke-opacity:1"
             d="m 452.31,205.51 c 0.99,0.93 1.13,2.45 2.08,3.39"
             id="path1019" />
        <path
             style="fill:none;stroke:black;stroke-width:1;stroke-linecap:butt;stroke-linejoin:miter;stroke-miterlimit:4;stroke-dasharray:none;stroke-opacity:1"
             d="m 448.2,215.58 c 0.19,4.68 -0.44,9.34 -0.44,14.01 0,1.03 0.44,2.04 0.44,3.07"
             id="path1021" />
        <path
             style="fill:none;stroke:black;stroke-width:1;stroke-linecap:butt;stroke-linejoin:miter;stroke-miterlimit:4;stroke-dasharray:none;stroke-opacity:1"
             d="m 448.2,215.58 c 1.82,0.31 1,0.58 1.97,-0.88 0.67,-1 2.41,-3.39 3.5,-2.84 0.13,0.11 0.33,-0.11 0.44,0 0.11,0.11 0.37,0.59 0.44,0.66 0.19,0.19 0.63,0.53 0.66,0.88 0.21,2.31 0.22,4.67 0.22,6.99 0,1.23 0.49,6.31 -0.45,7.23"
             id="path1027" />
        <path
             style="fill:none;stroke:black;stroke-width:1;stroke-linecap:butt;stroke-linejoin:miter;stroke-miterlimit:4;stroke-dasharray:none;stroke-opacity:1"
             d="m 448.79,219.8 c 2.16,-0.11 2.76,-2.53 4.5,-3.4"
             id="path1031" />
        <path
             style="fill:none;stroke:black;stroke-width:1;stroke-linecap:butt;stroke-linejoin:miter;stroke-miterlimit:4;stroke-dasharray:none;stroke-opacity:1"
             d="m 448.63,223.83 c 3.28,-1.76 1.53,-0.51 4.81,-4.33"
             id="path1033" />
        <path
             style="fill:none;stroke:black;stroke-width:1;stroke-linecap:butt;stroke-linejoin:miter;stroke-miterlimit:4;stroke-dasharray:none;stroke-opacity:1"
             d="m 465.67,204.47 c -2.44,-0.71 -4.88,2.72 -6.97,3.41"
             id="path1035" />
        <path
             style="fill:none;stroke:black;stroke-width:1;stroke-linecap:butt;stroke-linejoin:miter;stroke-miterlimit:4;stroke-dasharray:none;stroke-opacity:1"
             d="m 458.56,204.47 c 0.63,2.63 -0.8,6.86 0.92,9.14 0.53,0.71 4.25,1.06 5.11,0.78 1.02,-0.35 1.74,-0.81 2.48,-1.55"
             id="path1037" />
        <path
             style="fill:none;stroke:black;stroke-width:1;stroke-linecap:butt;stroke-linejoin:miter;stroke-miterlimit:4;stroke-dasharray:none;stroke-opacity:1"
             d="m 466.13,219.65 c -2.89,0.86 -4.74,3.04 -6.81,5.1"
             id="path1039" />
        <path
             style="fill:none;stroke:black;stroke-width:1;stroke-linecap:butt;stroke-linejoin:miter;stroke-miterlimit:4;stroke-dasharray:none;stroke-opacity:1"
             d="m 459.94,219.5 c 0,1.68 -0.97,8.64 0.93,9.59 1.43,0.71 3.71,0.82 5.26,0.46 0.63,-0.13 1.14,-0.79 1.71,-1.08"
             id="path1041" />
        <path
             style="fill:none;stroke:black;stroke-width:1;stroke-linecap:butt;stroke-linejoin:miter;stroke-miterlimit:4;stroke-dasharray:none;stroke-opacity:1"
             d="m 479.45,217.32 c 1.19,-0.11 2.39,-0.11 3.56,-0.31 2.75,-0.5 5.47,-1.24 8.2,-1.85 1.09,-0.24 2.21,-0.97 3.26,-0.61 0.49,0.15 0.27,1.45 0.31,1.69 0.11,0.38 0.25,0.72 0.3,1.08 0.24,1.4 1.14,7.21 -0.14,8.06 -0.12,0.11 -0.39,0 -0.47,0"
             id="path1043" />
        <path
             style="fill:none;stroke:black;stroke-width:1;stroke-linecap:butt;stroke-linejoin:miter;stroke-miterlimit:4;stroke-dasharray:none;stroke-opacity:1"
             d="m 488.43,209.12 c -1.1,4.77 -1.55,9.8 -1.55,14.71"
             id="path1045" />
        <path
             style="fill:none;stroke:black;stroke-width:1;stroke-linecap:butt;stroke-linejoin:miter;stroke-miterlimit:4;stroke-dasharray:none;stroke-opacity:1"
             d="m 506.54,213.61 c 6.77,0.17 4.17,0.53 7.9,-0.16"
             id="path1047" />
        <path
             style="fill:none;stroke:black;stroke-width:1;stroke-linecap:butt;stroke-linejoin:miter;stroke-miterlimit:4;stroke-dasharray:none;stroke-opacity:1"
             d="m 509.33,210.05 c 0,2.32 0.23,4.65 0,6.96 -0.11,0.94 -0.67,1.75 -0.93,2.64 0,0.12 0.11,0 0.16,0 0.31,0.19 0.62,0.4 0.93,0.62 1.32,0.92 4.3,2.97 2.63,4.64"
             id="path1049" />
        <path
             style="fill:none;stroke:black;stroke-width:1;stroke-linecap:butt;stroke-linejoin:miter;stroke-miterlimit:4;stroke-dasharray:none;stroke-opacity:1"
             d="m 517.07,220.11 c -0.66,0 -1.33,0 -2,0 -0.95,0 -2.05,-0.14 -2.95,0.31 -0.12,0.11 -1.12,0.9 -1.24,1.09 -0.16,0.25 -0.25,0.56 -0.46,0.77 -0.12,0.12 -0.33,0.12 -0.46,0.16 -0.22,0.12 -0.46,0.75 -0.47,0.78 -0.21,0.24 -0.71,0.38 -0.93,0.61 -0.98,0.98 -1.55,2.7 -1.55,4.03 0,0.23 -0.15,1.55 0.16,1.85 0.43,0.44 0.32,0.12 0.61,0.16 0.88,0.24 1.74,0.59 2.64,0.78 1.45,0.28 3.01,0.14 4.49,0.14"
             id="path1051" />
        <path
             style="fill:none;stroke:black;stroke-width:1;stroke-linecap:butt;stroke-linejoin:miter;stroke-miterlimit:4;stroke-dasharray:none;stroke-opacity:1"
             d="m 361.06,256.74 c 0.86,3 1.75,5.99 2.63,8.99"
             id="path1053" />
        <path
             style="fill:none;stroke:black;stroke-width:1;stroke-linecap:butt;stroke-linejoin:miter;stroke-miterlimit:4;stroke-dasharray:none;stroke-opacity:1"
             d="m 373.1,262.87 c -2.59,-0.11 -6.35,1.78 -8.1,3.72 -0.21,0.23 -0.12,0.63 -0.22,0.88 -0.11,0.14 -0.34,0.11 -0.44,0.23 -1.23,1.47 -1.97,3.57 -1.97,5.47 0,0.83 -0.19,2.5 0.44,3.28 0.16,0.2 0.46,0.26 0.65,0.43 1.24,1.07 1.39,1.13 2.84,1.76 0.93,0.39 0.45,0.61 1.54,0.87 1.17,0.3 6.16,0.47 7.23,0.23 0.47,-0.12 0.86,-0.48 1.3,-0.66 1.31,-0.51 2.97,-1.19 4.4,-1.54"
             id="path1055" />
        <path
             style="fill:none;stroke:black;stroke-width:1;stroke-linecap:butt;stroke-linejoin:miter;stroke-miterlimit:4;stroke-dasharray:none;stroke-opacity:1"
             d="m 378.57,256.09 c 0,2.2 -0.2,1.34 0.22,2.63"
             id="path1057" />
        <path
             style="fill:none;stroke:black;stroke-width:1;stroke-linecap:butt;stroke-linejoin:miter;stroke-miterlimit:4;stroke-dasharray:none;stroke-opacity:1"
             d="m 383.17,254.33 c 1.55,0.24 0.61,4.61 1.53,4.61"
             id="path1061" />
        <path
             style="fill:none;stroke:black;stroke-width:1;stroke-linecap:butt;stroke-linejoin:miter;stroke-miterlimit:4;stroke-dasharray:none;stroke-opacity:1"
             d="m 390.62,256.31 c 3.05,1.41 1.84,0.98 3.49,1.53"
             id="path1063" />
        <path
             style="fill:none;stroke:black;stroke-width:1;stroke-linecap:butt;stroke-linejoin:miter;stroke-miterlimit:4;stroke-dasharray:none;stroke-opacity:1"
             d="m 387.77,266.59 c 1.17,-0.72 2.23,-1.67 3.5,-2.18 1.24,-0.5 4.6,-0.72 6.13,-0.44 0.87,0.15 1.82,1.24 2.19,1.98 0.36,0.74 0.39,5.37 0.21,6.12 -0.42,1.99 -2.09,6.26 -3.5,7.67"
             id="path1065" />
        <path
             style="fill:none;stroke:black;stroke-width:1;stroke-linecap:butt;stroke-linejoin:miter;stroke-miterlimit:4;stroke-dasharray:none;stroke-opacity:1"
             d="m 408.35,255.87 c 2.37,1.27 3.07,1.31 5.91,1.31"
             id="path1067" />
        <path
             style="fill:none;stroke:black;stroke-width:1;stroke-linecap:butt;stroke-linejoin:miter;stroke-miterlimit:4;stroke-dasharray:none;stroke-opacity:1"
             d="m 407.92,265.29 c 5.03,0.75 2.9,0.81 6.34,0.44"
             id="path1069" />
        <path
             style="fill:none;stroke:black;stroke-width:1;stroke-linecap:butt;stroke-linejoin:miter;stroke-miterlimit:4;stroke-dasharray:none;stroke-opacity:1"
             d="m 410.1,278.86 c 4.57,0.48 6.92,-5.6 8.97,-9.2"
             id="path1071" />
        <path
             style="fill:none;stroke:black;stroke-width:1;stroke-linecap:butt;stroke-linejoin:miter;stroke-miterlimit:4;stroke-dasharray:none;stroke-opacity:1"
             d="m 430.24,248.87 c -4.81,4.46 -2,1.94 -8.54,7.44"
             id="path1073" />
        <path
             style="fill:none;stroke:black;stroke-width:1;stroke-linecap:butt;stroke-linejoin:miter;stroke-miterlimit:4;stroke-dasharray:none;stroke-opacity:1"
             d="m 421.05,264.63 c 0.81,0 1.63,0.11 2.41,-0.22 0.71,-0.24 3.77,-2.03 4.16,-2.2 1.45,-0.6 3,-0.84 4.38,-1.52 1.12,-0.57 2.6,-0.12 3.72,-0.66"
             id="path1077" />
        <path
             style="fill:none;stroke:black;stroke-width:1;stroke-linecap:butt;stroke-linejoin:miter;stroke-miterlimit:4;stroke-dasharray:none;stroke-opacity:1"
             d="m 426.74,252.59 c -0.33,3.54 0.3,7.01 0.66,10.51 0.15,1.43 -0.23,2.6 0.44,3.94"
             id="path1079" />
        <path
             style="fill:none;stroke:black;stroke-width:1;stroke-linecap:butt;stroke-linejoin:miter;stroke-miterlimit:4;stroke-dasharray:none;stroke-opacity:1"
             d="m 423.46,269.88 c 1.38,2.04 1.12,4.66 2.19,6.78"
             id="path1081" />
        <path
             style="fill:none;stroke:black;stroke-width:1;stroke-linecap:butt;stroke-linejoin:miter;stroke-miterlimit:4;stroke-dasharray:none;stroke-opacity:1"
             d="m 423.46,269.88 c 0.97,-0.5 7.96,-5.07 8.75,-3.07 0.12,0.21 0,0.44 0,0.66 0,0.81 0,1.62 0,2.41 0,0.32 0.12,3.21 0,3.29 -1.04,1.05 -3.21,1.72 -4.59,2.19 -0.44,0.14 -1.93,1.27 -1.97,1.3"
             id="path1083" />
        <path
             style="fill:none;stroke:black;stroke-width:1;stroke-linecap:butt;stroke-linejoin:miter;stroke-miterlimit:4;stroke-dasharray:none;stroke-opacity:1"
             d="m 443.39,261.78 c 1.97,-0.51 3.91,-1.1 5.9,-1.54 1.45,-0.3 2.92,-0.48 4.38,-0.66 0.52,-0.11 1.07,-0.21 1.54,0 0.5,0.27 0.88,0.8 1.09,1.32 0.17,0.41 -0.11,0.88 0,1.31 0.15,1.63 0.58,3.62 0.22,5.26 -0.11,0.39 -0.32,0.73 -0.43,1.1 -0.63,2.01 0,1.3 -0.66,1.97"
             id="path1085" />
        <path
             style="fill:none;stroke:black;stroke-width:1;stroke-linecap:butt;stroke-linejoin:miter;stroke-miterlimit:4;stroke-dasharray:none;stroke-opacity:1"
             d="m 451.48,254.99 c -2.41,9.97 -1.04,4.86 -4.16,15.33"
             id="path1087" />
        <path
             style="fill:none;stroke:black;stroke-width:1;stroke-linecap:butt;stroke-linejoin:miter;stroke-miterlimit:4;stroke-dasharray:none;stroke-opacity:1"
             d="m 460.68,253.46 c 3.17,3.69 0.29,-0.17 1.53,2.63 0.31,0.67 1.3,2.16 1.75,2.85"
             id="path1091" />
        <path
             style="fill:none;stroke:black;stroke-width:1;stroke-linecap:butt;stroke-linejoin:miter;stroke-miterlimit:4;stroke-dasharray:none;stroke-opacity:1"
             d="m 475.57,256.52 c 9.19,0 18.39,0 27.59,0"
             id="path1093" />
        <path
             style="fill:none;stroke:black;stroke-width:1;stroke-linecap:butt;stroke-linejoin:miter;stroke-miterlimit:4;stroke-dasharray:none;stroke-opacity:1"
             d="m 490.46,248.64 c 0.3,6.06 0.22,2.92 0.22,9.42 0,1.82 0,3.65 0,5.47 0,0.78 -0.11,1.84 -0.66,2.42 -0.36,0.36 -0.57,1.1 -1.09,1.3 -0.29,0.12 -3,0.73 -3.29,0.45 -0.53,-0.53 -0.81,-4.42 0,-4.83 0.18,-0.11 0.49,0.12 0.66,0 0.37,-0.18 1.48,-0.46 1.97,-0.21 0.25,0.12 0.43,0.49 0.66,0.66 0.29,0.21 0.71,0.33 0.87,0.65 0.13,0.26 -0.11,0.59 0,0.87 0.31,1.88 0.86,5.12 0.44,7.01 -0.61,2.73 -0.19,0.12 -0.88,2.19 -0.32,0.96 0.56,-0.12 -0.43,0.87"
             id="path1095" />
        <path
             style="fill:none;stroke:black;stroke-width:1;stroke-linecap:butt;stroke-linejoin:miter;stroke-miterlimit:4;stroke-dasharray:none;stroke-opacity:1"
             d="m 509.5,261.56 c 3.51,-0.66 7,-1.4 10.52,-1.98 0.94,-0.14 1.9,-0.14 2.84,-0.21 0.11,0 0.18,-0.12 0.23,0 0.56,0.77 1.23,1.5 1.52,2.41 0.36,1.07 0,4.91 -0.44,6.13 -0.12,0.22 -0.48,1.75 -0.87,1.75"
             id="path1097" />
        <path
             style="fill:none;stroke:black;stroke-width:1;stroke-linecap:butt;stroke-linejoin:miter;stroke-miterlimit:4;stroke-dasharray:none;stroke-opacity:1"
             d="m 517.6,253.89 c 1.1,4.56 -1.74,8.7 -1.74,13.15"
             id="path1099" />
        <path
             style="fill:none;stroke:black;stroke-width:1;stroke-linecap:butt;stroke-linejoin:miter;stroke-miterlimit:4;stroke-dasharray:none;stroke-opacity:1"
             d="m 528.56,250.83 c 2.86,8.61 1.83,5.23 3.28,10.07"
             id="path1101" />
        <path
             style="fill:none;stroke:black;stroke-width:1px;stroke-linecap:butt;stroke-linejoin:miter;stroke-opacity:1"
             d="m 113.49,346.29 c 1.41,-0.15 2.88,-0.1 4.24,-0.47 2.07,-0.63 14.34,-10.09 16.03,-11.78 0.87,-0.87 1.43,-2.02 2.36,-2.83 1.44,-1.25 3.16,-2.16 4.71,-3.3 2.92,-2.14 5.92,-4.97 8.48,-7.54 0.56,-0.55 0.86,-1.33 1.42,-1.88 2.52,-2.53 5.24,-4.74 7.54,-7.55 0.85,-1.04 1.36,-2.38 2.36,-3.3 1.24,-1.15 2.93,-1.74 4.24,-2.82 0.6,-0.51 0.81,-1.38 1.41,-1.89 0.53,-0.46 1.32,-0.52 1.89,-0.94 1.93,-1.45 3.5,-4.58 5.65,-5.66 0.95,-0.47 0,0.78 0.95,-0.47 0.42,-0.56 0.44,-1.39 0.94,-1.88 0.25,-0.25 0.75,-0.18 0.94,-0.48 0.31,-0.47 -0.16,-0.94 0,-1.41 0.24,-0.71 1.3,-2.49 2.36,-1.89 2.77,1.59 6.02,4.64 8.01,7.07 0.58,0.71 0.85,1.64 1.41,2.36 2.34,2.98 5.12,5.58 7.55,8.49 3.1,3.72 6,7.89 9.42,11.31 1.03,1.02 2.28,1.8 3.3,2.83 0.25,0.24 0.19,0.73 0.47,0.94 0.19,0.14 2.65,1.28 2.83,1.41 1.19,0.89 2.93,2.51 3.77,3.77 0.59,0.88 0.77,2 1.42,2.83 3.85,4.96 0.13,-1.33 3.3,2.36 0.59,0.69 0.82,1.65 1.41,2.35 0.22,0.27 0.63,0.32 0.94,0.48 0.32,0.31 0.68,0.58 0.95,0.94 0.21,0.28 0.17,0.75 0.47,0.94 1.26,0.84 0.68,-0.98 1.88,1.42"
             id="path1386" />
        <path
             style="fill:none;stroke:black;stroke-width:1;stroke-linecap:butt;stroke-linejoin:miter;stroke-miterlimit:4;stroke-dasharray:none;stroke-opacity:1"
             d="m 66.754,370.82 c -0.07,0.34 -0.17,0.66 -0.201,1 -0.05,0.54 0.105,1.09 0,1.61 -0.236,1.18 -0.602,2.41 -0.602,3.62"
             id="path1582" />
        <path
             style="fill:none;stroke:black;stroke-width:1;stroke-linecap:butt;stroke-linejoin:miter;stroke-miterlimit:4;stroke-dasharray:none;stroke-opacity:1"
             d="m 69.966,367.41 c 1.47,2.74 1.205,6.18 1.205,9.24"
             id="path1584" />
        <path
             style="fill:none;stroke:black;stroke-width:1;stroke-linecap:butt;stroke-linejoin:miter;stroke-miterlimit:4;stroke-dasharray:none;stroke-opacity:1"
             d="m 56.312,373.23 c 1.38,1.37 3.448,1.84 4.819,3.21"
             id="path1586" />
        <path
             style="fill:none;stroke:black;stroke-width:1;stroke-linecap:butt;stroke-linejoin:miter;stroke-miterlimit:4;stroke-dasharray:none;stroke-opacity:1"
             d="m 76.592,370.02 c -1.739,0.64 -1.615,4.21 -3.212,5.02 -0.06,0 -0.133,0 -0.201,0 -0.669,0.53 -1.338,1.07 -2.008,1.61"
             id="path1588" />
        <path
             style="fill:none;stroke:black;stroke-width:1;stroke-linecap:butt;stroke-linejoin:miter;stroke-miterlimit:4;stroke-dasharray:none;stroke-opacity:1"
             d="m 56.111,380.26 c 5.724,-0.7 11.325,-2.26 17.068,-2.81 2.023,-0.2 4.182,0 6.225,0"
             id="path1590" />
        <path
             style="fill:none;stroke:black;stroke-width:1;stroke-linecap:butt;stroke-linejoin:miter;stroke-miterlimit:4;stroke-dasharray:none;stroke-opacity:1"
             d="m 63.491,379.41 c 0.339,-0.15 0.815,2.23 1.054,2.55 0.139,0.2 0.497,0.55 0.703,0.76"
             id="path1594" />
        <path
             style="fill:none;stroke:black;stroke-width:1;stroke-linecap:butt;stroke-linejoin:miter;stroke-miterlimit:4;stroke-dasharray:none;stroke-opacity:1"
             d="m 70.167,379.01 c -0.972,3.17 -0.331,1.71 -1.857,4.41"
             id="path1596" />
        <path
             style="fill:none;stroke:black;stroke-width:1;stroke-linecap:butt;stroke-linejoin:miter;stroke-miterlimit:4;stroke-dasharray:none;stroke-opacity:1"
             d="m 62.085,384.67 c -0.167,0.1 -0.335,0.17 -0.502,0.26 -0.02,0 -0.08,0.1 -0.05,0.1 0.422,-0.13 0.819,-0.35 1.255,-0.4 5.681,-0.69 7.281,-0.55 12.901,-0.55"
             id="path1598" />
        <path
             style="fill:none;stroke:black;stroke-width:1;stroke-linecap:butt;stroke-linejoin:miter;stroke-miterlimit:4;stroke-dasharray:none;stroke-opacity:1"
             d="m 63.34,388.8 c 4.493,-1.09 2.904,-1.04 6.878,-0.96 2.747,0.1 1.884,-0.12 3.564,0.35"
             id="path1600" />
        <path
             style="fill:none;stroke:black;stroke-width:1;stroke-linecap:butt;stroke-linejoin:miter;stroke-miterlimit:4;stroke-dasharray:none;stroke-opacity:1"
             d="m 56.965,394.51 c 6.304,-0.82 12.681,-0.75 19.025,-0.75 1.226,0 2.491,0.1 3.715,0 0.403,0 0.812,-0.11 1.205,-0.2 0.453,-0.1 0.26,-0.1 0.452,-0.1"
             id="path1602" />
        <path
             style="fill:none;stroke:black;stroke-width:1;stroke-linecap:butt;stroke-linejoin:miter;stroke-miterlimit:4;stroke-dasharray:none;stroke-opacity:1"
             d="m 67.506,384.48 c 0,2.35 -0.02,-3.12 0.703,5.12 0.148,1.67 0.103,3.34 0.151,5.01 0.13,4.45 0.101,2.53 0.101,6.73 0,0.78 -0.07,1.62 0,2.41 0.08,0.92 0.214,1.86 0.351,2.76 0.09,0.63 0.299,1.23 0.352,1.86 0.03,0.37 0,0.78 0,1.16 0,0.26 0.03,0.53 0,0.8 -0.05,0.37 -0.176,0.72 -0.201,1.1 -0.04,0.62 -0.02,1.86 -0.252,2.42 -0.03,0.1 -0.141,0.1 -0.2,0.14"
             id="path1604" />
        <path
             style="fill:none;stroke:black;stroke-width:1;stroke-linecap:butt;stroke-linejoin:miter;stroke-miterlimit:4;stroke-dasharray:none;stroke-opacity:1"
             d="m 67.557,394.51 c -4.847,6.06 -2.361,3.53 -10.291,9.79 -0.791,0.62 -1.601,1.23 -2.46,1.76 -2.373,1.45 -1.238,0.34 -1.757,0.85"
             id="path1606" />
        <path
             style="fill:none;stroke:black;stroke-width:1;stroke-linecap:butt;stroke-linejoin:miter;stroke-miterlimit:4;stroke-dasharray:none;stroke-opacity:1"
             d="m 69.464,394.61 c 2.425,2.4 4.669,4.97 7.128,7.33 1.075,1.03 2.541,2.17 3.967,2.76 0.266,0.11 0.571,0.1 0.853,0.16 0.09,0 0.162,0.1 0.251,0.1 0.132,0 0.269,0 0.402,0 0.369,0.1 0.735,0.19 1.104,0.25 0.116,0 0.237,0 0.351,0 0.685,0.16 0.134,0.15 0.352,0.15"
             id="path1608" />
        <path
             style="fill:none;stroke:black;stroke-width:1;stroke-linecap:butt;stroke-linejoin:miter;stroke-miterlimit:4;stroke-dasharray:none;stroke-opacity:1"
             d="m 103.1,368.21 c -5.26,9.42 -6.19,12.81 -12.85,19.48"
             id="path1610" />
        <path
             style="fill:none;stroke:black;stroke-width:1;stroke-linecap:butt;stroke-linejoin:miter;stroke-miterlimit:4;stroke-dasharray:none;stroke-opacity:1"
             d="m 103.1,368.21 c 0.6,0.33 1.28,0.56 1.8,1.01 11.98,9.93 2.95,3.92 13.86,10.83 10.04,6.39 3.24,3.27 8.03,4.22 0.39,0.1 0.42,0.21 0.8,0.21"
             id="path1612" />
        <path
             style="fill:none;stroke:black;stroke-width:1;stroke-linecap:butt;stroke-linejoin:miter;stroke-miterlimit:4;stroke-dasharray:none;stroke-opacity:1"
             d="m 98.48,386.89 c 2.66,-3.4 7.58,0.62 10.84,-1.01"
             id="path1614" />
        <path
             style="fill:none;stroke:black;stroke-width:1;stroke-linecap:butt;stroke-linejoin:miter;stroke-miterlimit:4;stroke-dasharray:none;stroke-opacity:1"
             d="m 93.66,394.72 c 7.35,1.51 14.92,-1.61 22.29,-1.61"
             id="path1616" />
        <path
             style="fill:none;stroke:black;stroke-width:1;stroke-linecap:butt;stroke-linejoin:miter;stroke-miterlimit:4;stroke-dasharray:none;stroke-opacity:1"
             d="m 105.71,395.52 c -1.07,2.01 -2.13,4.02 -3.22,6.02 -0.79,1.48 -1.61,2.94 -2.4,4.42 -0.35,0.64 -0.54,1.16 -0.4,1.21 0.37,0.12 0.8,0 1.2,0 0.73,0 1.48,0.11 2.21,0 1.17,-0.18 2.26,-0.76 3.41,-1.01 0.74,-0.15 1.49,-0.21 2.21,-0.4 1.23,-0.32 2.53,-1.2 3.82,-1.2"
             id="path1618" />
        <path
             style="fill:none;stroke:black;stroke-width:1;stroke-linecap:butt;stroke-linejoin:miter;stroke-miterlimit:4;stroke-dasharray:none;stroke-opacity:1"
             d="m 110.73,399.94 c 5.86,4.98 2.66,2.29 9.64,8.03"
             id="path1620" />
        <path
             style="fill:none;stroke:black;stroke-width:1;stroke-linecap:butt;stroke-linejoin:miter;stroke-miterlimit:4;stroke-dasharray:none;stroke-opacity:1"
             d="m 213.49,364.86 c -12.89,24.64 -6.48,15.32 -17.07,29.32"
             id="path1622" />
        <path
             style="fill:none;stroke:black;stroke-width:1;stroke-linecap:butt;stroke-linejoin:miter;stroke-miterlimit:4;stroke-dasharray:none;stroke-opacity:1"
             d="m 213.49,364.86 c 14.2,12.71 6.46,7.6 18.67,13.85 0.22,0.11 0.4,0.28 0.6,0.4 0.47,0.34 0.89,0.75 1.4,1.01 0.31,0.15 0.69,0.1 1.01,0.2 0.23,0.1 0.39,0.29 0.6,0.4"
             id="path1624" />
        <path
             style="fill:none;stroke:black;stroke-width:1;stroke-linecap:butt;stroke-linejoin:miter;stroke-miterlimit:4;stroke-dasharray:none;stroke-opacity:1"
             d="m 210.07,385.34 c 11.94,-2.22 9.01,0.63 12.05,-2.41"
             id="path1626" />
        <path
             style="fill:none;stroke:black;stroke-width:1;stroke-linecap:butt;stroke-linejoin:miter;stroke-miterlimit:4;stroke-dasharray:none;stroke-opacity:1"
             d="m 208.66,394.37 c 5.82,-0.15 6.91,0.15 12.05,-0.99 0.83,-0.19 1.59,-0.61 2.41,-0.81 0.53,-0.13 1.09,-0.1 1.61,-0.2 2.69,-0.73 4.36,-1.61 7.23,-1.61"
             id="path1630" />
        <path
             style="fill:none;stroke:black;stroke-width:1;stroke-linecap:butt;stroke-linejoin:miter;stroke-miterlimit:4;stroke-dasharray:none;stroke-opacity:1"
             d="m 218.31,394.78 c -0.67,1.88 -1.13,3.84 -2.01,5.62 -1.21,2.45 -2.82,4.68 -4.22,7.03 -0.11,0.18 -0.41,0.58 -0.2,0.6 1.1,0.11 7.08,0.18 7.83,0 3.72,-0.88 3.84,-1.3 6.22,-2.61 0.41,-0.22 2.42,-0.64 2.42,-1"
             id="path1632" />
        <path
             style="fill:none;stroke:black;stroke-width:1;stroke-linecap:butt;stroke-linejoin:miter;stroke-miterlimit:4;stroke-dasharray:none;stroke-opacity:1"
             d="m 227.14,400.4 c -0.37,-0.75 11.77,7.43 8.03,7.43"
             id="path1634" />
        <path
             style="fill:none;stroke:black;stroke-width:1;stroke-linecap:butt;stroke-linejoin:miter;stroke-miterlimit:4;stroke-dasharray:none;stroke-opacity:1"
             d="m 245.81,367.27 c 5.1,3.87 3.54,2.33 5.22,4.01"
             id="path1636" />
        <path
             style="fill:none;stroke:black;stroke-width:1;stroke-linecap:butt;stroke-linejoin:miter;stroke-miterlimit:4;stroke-dasharray:none;stroke-opacity:1"
             d="m 242.2,380.32 c 3.75,-0.53 7.5,-1.08 11.25,-1.61 0.12,0 0.46,-0.12 0.4,0 -0.9,1.78 -2.15,3.41 -3.02,5.23 -0.24,0.52 -0.33,1.1 -0.6,1.61 -1.55,2.95 -4.04,6.74 -6.02,9.43 -0.69,0.93 -1.62,1.62 -2.41,2.41"
             id="path1638" />
        <path
             style="fill:none;stroke:black;stroke-width:1;stroke-linecap:butt;stroke-linejoin:miter;stroke-miterlimit:4;stroke-dasharray:none;stroke-opacity:1"
             d="m 249.63,388.95 c 1.4,8.17 0.67,3.89 2.21,12.85"
             id="path1640" />
        <path
             style="fill:none;stroke:black;stroke-width:1;stroke-linecap:butt;stroke-linejoin:miter;stroke-miterlimit:4;stroke-dasharray:none;stroke-opacity:1"
             d="m 249.63,388.95 c 5.32,1.6 2.7,0.73 7.83,2.62"
             id="path1642" />
        <path
             style="fill:none;stroke:black;stroke-width:1;stroke-linecap:butt;stroke-linejoin:miter;stroke-miterlimit:4;stroke-dasharray:none;stroke-opacity:1"
             d="m 258.67,381.73 c 14.87,-0.43 9.43,0.37 16.46,-0.81"
             id="path1644" />
        <path
             style="fill:none;stroke:black;stroke-width:1;stroke-linecap:butt;stroke-linejoin:miter;stroke-miterlimit:4;stroke-dasharray:none;stroke-opacity:1"
             d="m 264.69,374.1 c 6.33,32.32 -1.33,-7.96 3.01,18.07 0.1,0.24 0.27,0.4 0.4,0.6"
             id="path1646" />
        <path
             style="fill:none;stroke:black;stroke-width:1;stroke-linecap:butt;stroke-linejoin:miter;stroke-miterlimit:4;stroke-dasharray:none;stroke-opacity:1"
             d="m 259.07,397.59 c 5.91,-0.88 11.44,-3.9 17.47,-4.21 0.69,-0.1 3.23,0.18 3.81,-0.41"
             id="path1648" />
        <path
             style="fill:none;stroke:black;stroke-width:1px;stroke-linecap:butt;stroke-linejoin:miter;stroke-opacity:1"
             d="m 431.65,294.45 c 2.8,15.85 0.41,-0.4 1.41,21.21 0.22,4.73 0.62,7.84 2.36,11.31 1.1,2.2 -1.42,8.03 -1.42,10.84"
             id="path1650" />
        <path
             style="fill:none;stroke:black;stroke-width:1;stroke-linecap:butt;stroke-linejoin:miter;stroke-miterlimit:4;stroke-dasharray:none;stroke-opacity:1"
             d="m 406.79,365.08 c -0.46,0.83 -1.07,1.57 -1.54,2.4 -0.1,0.15 -0.1,0.34 -0.19,0.48 -0.13,0.51 -0.68,0.66 -0.96,1.06 -0.1,0.1 -0.59,1.31 -0.48,1.34 1.14,0.34 2.48,0.4 3.65,0.29 0.23,0 1.6,-0.44 1.73,-0.48 0.1,-0.1 0.36,-0.26 0.48,-0.29 0.46,-0.11 0.97,-0.13 1.44,-0.29"
             id="path1656" />
        <path
             style="fill:none;stroke:black;stroke-width:1;stroke-linecap:butt;stroke-linejoin:miter;stroke-miterlimit:4;stroke-dasharray:none;stroke-opacity:1"
             d="m 411.11,365.36 c 0,3.05 -0.15,0.8 3.56,6.44 0.58,0.89 0.31,0.87 0.76,0.87"
             id="path1658" />
        <path
             style="fill:none;stroke:black;stroke-width:1;stroke-linecap:butt;stroke-linejoin:miter;stroke-miterlimit:4;stroke-dasharray:none;stroke-opacity:1"
             d="m 404.87,375.64 c 0.1,0.19 0.19,0.38 0.19,0.57 0.1,5.93 0.1,11.85 0.1,17.77 0,7.9 -0.66,10.45 0.96,16.9"
             id="path1660" />
        <path
             style="fill:none;stroke:black;stroke-width:1;stroke-linecap:butt;stroke-linejoin:miter;stroke-miterlimit:4;stroke-dasharray:none;stroke-opacity:1"
             d="m 406.88,378.23 c 3.39,-0.93 1.98,-0.61 7.59,-1.44 1.21,-0.17 1.13,0.35 1.54,1.92 0.98,3.7 0.59,3.37 0.96,6.25 0.13,1 0.39,1.96 0.48,2.97 0.13,1.41 0.1,0.9 0.1,2.31 0,0.32 -0.1,0.64 0,0.96 0.1,0.51 0.32,1.01 0.39,1.53 0.1,0.4 0,0.93 0,1.35 0,1.11 0,2.17 0.1,3.27 0.1,0.53 -0.1,1.1 0,1.63 0.1,0.53 0.46,1.85 0.58,2.4 0,0.1 0.52,1.65 0,1.83 -0.1,0 -0.13,0 -0.19,0 -0.14,0.1 -0.11,0.18 -0.29,0.18"
             id="path1662" />
        <path
             style="fill:none;stroke:black;stroke-width:1;stroke-linecap:butt;stroke-linejoin:miter;stroke-miterlimit:4;stroke-dasharray:none;stroke-opacity:1"
             d="m 407.27,384 c 4.78,-0.59 3.29,0.13 4.89,-0.68"
             id="path1664" />
        <path
             style="fill:none;stroke:black;stroke-width:1;stroke-linecap:butt;stroke-linejoin:miter;stroke-miterlimit:4;stroke-dasharray:none;stroke-opacity:1"
             d="m 407.66,389.66 c 7.88,-0.2 5.06,0.42 8.64,-0.48"
             id="path1666" />
        <path
             style="fill:none;stroke:black;stroke-width:1;stroke-linecap:butt;stroke-linejoin:miter;stroke-miterlimit:4;stroke-dasharray:none;stroke-opacity:1"
             d="m 431.95,368.63 c -4.82,2.33 -1.9,1.17 -8.93,2.98"
             id="path1668" />
        <path
             style="fill:none;stroke:black;stroke-width:1;stroke-linecap:butt;stroke-linejoin:miter;stroke-miterlimit:4;stroke-dasharray:none;stroke-opacity:1"
             d="m 422.06,366.81 c 0.23,0.28 0.61,0.5 0.68,0.86 0.52,3.08 0.24,6.29 1.05,9.32 0.22,0.84 1.11,1.46 1.92,1.82 0.8,0.36 4.58,1.26 5.95,0.57 0.78,-0.38 -0.38,0 0.87,-0.48 0.2,-0.1 0.93,-0.16 1.15,-0.38 0.25,-0.24 -0.4,-0.85 -0.58,-1.25 -0.23,-0.52 -0.19,-0.91 -0.19,-1.44"
             id="path1670" />
        <path
             style="fill:none;stroke:black;stroke-width:1;stroke-linecap:butt;stroke-linejoin:miter;stroke-miterlimit:4;stroke-dasharray:none;stroke-opacity:1"
             d="m 434.64,385.34 c -1.96,1.41 -4.3,2.01 -6.44,3.07"
             id="path1672" />
        <path
             style="fill:none;stroke:black;stroke-width:1;stroke-linecap:butt;stroke-linejoin:miter;stroke-miterlimit:4;stroke-dasharray:none;stroke-opacity:1"
             d="m 424.17,384 c 0.45,0.51 1.21,0.87 1.34,1.54 1.32,6.66 -1.17,6.83 2.51,11.42 2.07,2.59 5.76,2.59 8.73,2.59 0.67,0 1.51,0.22 2.02,-0.28 0.11,-0.12 0,-1.36 0,-1.54 0,-0.16 -0.22,-0.24 -0.29,-0.38 -0.11,-0.26 -0.19,-0.52 -0.28,-0.77"
             id="path1674" />
        <path
             style="fill:none;stroke:black;stroke-width:1;stroke-linecap:butt;stroke-linejoin:miter;stroke-miterlimit:4;stroke-dasharray:none;stroke-opacity:1"
             d="m 451.45,381.11 c 6.11,0 12.22,0 18.34,0 2.15,0 4.29,0 6.43,0 0.26,0 0.41,0 0.68,0.29 0.13,0.15 0.15,0.38 0.19,0.58 0.11,0.51 0.24,1.01 0.28,1.53 0.31,3.31 0.1,6.68 0.1,10 0,1.09 0.15,2.68 0,3.74 -0.1,0.46 -0.28,0.89 -0.38,1.34 -0.1,0.23 0.1,0.3 -0.1,0.48 -0.49,0.49 -1.98,-1.22 -2.21,-1.44"
             id="path1676" />
        <path
             style="fill:none;stroke:black;stroke-width:1;stroke-linecap:butt;stroke-linejoin:miter;stroke-miterlimit:4;stroke-dasharray:none;stroke-opacity:1"
             d="m 463.55,371.03 c 1.52,3.15 0.24,19.44 -0.86,24.97 -0.4,1.96 -0.53,1.98 -1.45,2.59"
             id="path1678" />
        <path
             style="fill:none;stroke:black;stroke-width:1px;stroke-linecap:butt;stroke-linejoin:miter;stroke-opacity:1"
             d="m 158.27,65.847 c 1.65,0 3.3,0 4.95,0 1.96,0 3.93,0 5.89,0 1.34,0 2.7,0.256 4.01,0 1.95,-0.38 3.74,-1.353 5.65,-1.885 0.93,-0.256 1.92,-0.18 2.83,-0.471 1.07,-0.343 2,-1.047 3.07,-1.414 2.34,-0.81 4.85,-0.943 7.3,-0.943"
             id="path1793" />
        <path
             style="fill:none;stroke:black;stroke-width:1px;stroke-linecap:butt;stroke-linejoin:miter;stroke-opacity:1"
             d="m 171.23,54.771 c 5.6,1.864 1.98,0.203 4.01,13.669 0.61,4.085 1.3,4.006 -0.24,4.006"
             id="path1795" />
        <path
             style="fill:none;stroke:black;stroke-width:1px;stroke-linecap:butt;stroke-linejoin:miter;stroke-opacity:1"
             d="m 165.34,77.867 c 5.61,0.233 10.26,-3.771 15.79,-3.771"
             id="path1797" />
        <path
             style="fill:none;stroke:black;stroke-width:1px;stroke-linecap:butt;stroke-linejoin:miter;stroke-opacity:1"
             d="m 149.55,91.771 c 2.79,5.569 1.3,2.079 0.71,15.789 -0.1,1.96 -0.11,1.89 -0.94,1.89"
             id="path1799" />
        <path
             style="fill:none;stroke:black;stroke-width:1px;stroke-linecap:butt;stroke-linejoin:miter;stroke-opacity:1"
             d="m 162.98,85.879 c 0.24,2.593 0.13,5.239 0.71,7.778 0.71,3.135 2.26,8.743 5.66,10.843 2.57,1.59 5.4,2.76 8.25,3.77 2.13,0.75 3.62,0.37 5.65,0.47 3.62,0.18 7.21,0.24 10.84,0.24 2.86,0 3.93,-0.13 6.13,-1.89 0.5,-0.4 0.78,-0.15 1.41,-0.47 2.73,-1.36 -1.41,0.23 0.95,-0.71 0.14,0 1.65,-0.74 1.65,-0.94 0,-1.24 -0.83,-2.34 -1.18,-3.54 -0.6,-2.04 -1.23,-4.262 -1.65,-6.359"
             id="path1801" />
        <path
             style="fill:none;stroke:black;stroke-width:1px;stroke-linecap:butt;stroke-linejoin:miter;stroke-opacity:1"
             d="m 184.43,83.523 c 1.46,-0.712 3.62,6.127 5.19,6.127"
             id="path1803" />
        <path
             style="fill:none;stroke:black;stroke-width:1px;stroke-linecap:butt;stroke-linejoin:miter;stroke-opacity:1"
             d="m 199.04,80.459 c -0.99,2.065 1.65,3.364 1.65,5.185"
             id="path1805" />
        <path
             style="fill:none;stroke:black;stroke-width:1px;stroke-linecap:butt;stroke-linejoin:miter;stroke-opacity:1"
             d="m 236.51,49.586 c 1.82,0.906 0.86,0.13 1.65,3.299"
             id="path1807" />
        <path
             style="fill:none;stroke:black;stroke-width:1px;stroke-linecap:butt;stroke-linejoin:miter;stroke-opacity:1"
             d="m 228.74,59.484 c 9.31,-3.442 15.37,-5.892 26.63,-5.892"
             id="path1809" />
        <path
             style="fill:none;stroke:black;stroke-width:1px;stroke-linecap:butt;stroke-linejoin:miter;stroke-opacity:1"
             d="m 238.63,61.841 c 3.31,-0.869 0.1,3.617 1.42,4.006 1.93,0.553 7.09,0.472 9.66,0.472"
             id="path1811" />
        <path
             style="fill:none;stroke:black;stroke-width:1px;stroke-linecap:butt;stroke-linejoin:miter;stroke-opacity:1"
             d="m 261.97,46.287 c -0.1,7.165 -1.18,14.497 -1.18,21.681"
             id="path1813" />
        <path
             style="fill:none;stroke:black;stroke-width:1px;stroke-linecap:butt;stroke-linejoin:miter;stroke-opacity:1"
             d="m 261.97,46.287 c 2.83,-0.08 5.65,-0.347 8.48,-0.236 1.2,0.05 2.5,0.105 3.54,0.707 0.6,0.352 0.85,1.188 0.94,1.885 0.39,3.201 0.39,6.439 0.47,9.663 0.1,3.063 0.12,6.13 0,9.191 0,1.047 0,2.323 -0.71,3.064 -0.33,0.333 -0.94,0 -1.41,0"
             id="path1815" />
        <path
             style="fill:none;stroke:black;stroke-width:1px;stroke-linecap:butt;stroke-linejoin:miter;stroke-opacity:1"
             d="m 263.85,52.885 c 4.83,0.724 3.59,-0.416 4.95,0.943"
             id="path1817" />
        <path
             style="fill:none;stroke:black;stroke-width:1px;stroke-linecap:butt;stroke-linejoin:miter;stroke-opacity:1"
             d="m 263.14,60.427 c 4.96,0.521 3,0.224 5.9,0.707"
             id="path1819" />
        <path
             style="fill:none;stroke:black;stroke-width:1px;stroke-linecap:butt;stroke-linejoin:miter;stroke-opacity:1"
             d="m 242.64,81.166 c 15.62,-1.202 8.16,-0.943 22.39,-0.943"
             id="path1821" />
        <path
             style="fill:none;stroke:black;stroke-width:1px;stroke-linecap:butt;stroke-linejoin:miter;stroke-opacity:1"
             d="m 255.37,83.523 c 2.08,6.438 2.12,9.441 2.12,16.261"
             id="path1823" />
        <path
             style="fill:none;stroke:black;stroke-width:1px;stroke-linecap:butt;stroke-linejoin:miter;stroke-opacity:1"
             d="m 250.18,91.535 c 5.35,0.04 10.68,-0.471 16.03,-0.471"
             id="path1825" />
        <path
             style="fill:none;stroke:black;stroke-width:1px;stroke-linecap:butt;stroke-linejoin:miter;stroke-opacity:1"
             d="m 242.17,101.43 c 11.33,0.11 22.62,-0.88 33.94,-1.18 1.45,-0 2.44,0.24 3.77,0.24"
             id="path1827" />
        <path
             style="fill:none;stroke:black;stroke-width:1px;stroke-linecap:butt;stroke-linejoin:miter;stroke-opacity:1"
             d="m 315.11,48.408 c -0.39,0.04 -0.8,0 -1.18,0.117 -1.3,0.38 -2.5,1.159 -3.77,1.65 -3.13,1.219 0.52,-0.181 -2.59,0.707 -0.41,0.116 -0.78,0.327 -1.18,0.472 -0.7,0.254 -1.43,0.43 -2.12,0.707 -0.51,0.203 -1.03,0.373 -1.53,0.589 -1.43,0.611 0.12,0.174 -1.06,0.471"
             id="path2193" />
        <path
             style="fill:none;stroke:black;stroke-width:1px;stroke-linecap:butt;stroke-linejoin:miter;stroke-opacity:1"
             d="m 294.72,62.194 c 3.41,-1.826 4.88,-2.832 9.08,-3.77 3.94,-0.881 7.16,-0.707 11.07,-0.707 2.52,0 5.03,0 7.55,0"
             id="path2195" />
        <path
             style="fill:none;stroke:black;stroke-width:1px;stroke-linecap:butt;stroke-linejoin:miter;stroke-opacity:1"
             d="m 297.79,66.908 c 0.28,2.86 0.25,5.738 0.47,8.602 0.1,1.108 0.1,2.268 0.47,3.299 0.27,0.679 1.18,1.089 1.18,2.121"
             id="path2197" />
        <path
             style="fill:none;stroke:black;stroke-width:1px;stroke-linecap:butt;stroke-linejoin:miter;stroke-opacity:1"
             d="m 297.79,66.908 c 3.46,-0.864 6.88,-1.846 10.37,-2.593 2.19,-0.468 4.39,-0.277 6.36,0.707 0.1,0.04 0.17,-0.04 0.24,0 0.1,0.05 0.13,0.186 0.23,0.236 0.29,0.145 -0.1,-0.342 0.36,0.118 0.18,0.186 0.24,0.466 0.35,0.707 0.81,1.829 0.97,3.3 1.06,5.303 0.11,2.463 0.35,4.825 0.35,7.305"
             id="path2199" />
        <path
             style="fill:none;stroke:black;stroke-width:1px;stroke-linecap:butt;stroke-linejoin:miter;stroke-opacity:1"
             d="m 301.09,73.507 c 3.96,-1.049 6.33,-1.532 10.96,-1.532"
             id="path2201" />
        <path
             style="fill:none;stroke:black;stroke-width:1px;stroke-linecap:butt;stroke-linejoin:miter;stroke-opacity:1"
             d="m 299.91,80.93 c 11.49,-1.387 2.37,0.05 12.02,-2.239 0.58,-0.137 1.18,-0.141 1.77,-0.235 0.33,-0.05 2.76,-0.479 3.06,-0.236 0.15,0.123 0.23,0.314 0.35,0.471"
             id="path2203" />
        <path
             style="fill:none;stroke:black;stroke-width:1px;stroke-linecap:butt;stroke-linejoin:miter;stroke-opacity:1"
             d="m 307.69,52.061 c 0,1.689 -0.1,3.378 -0.12,5.066 -0.14,4.212 -0.39,8.404 -0.59,12.609 -0.18,3.601 0,7.235 -0.12,10.841 0,0.392 0,0.787 0,1.178 0,0.399 -0.19,0.781 -0.23,1.178 -0.27,2.207 -0.12,4.497 -0.12,6.717 0,2.003 0,4.007 0,6.01 0,0.225 0.18,1.817 -0.12,2.121"
             id="path2205" />
        <path
             style="fill:none;stroke:black;stroke-width:1px;stroke-linecap:butt;stroke-linejoin:miter;stroke-opacity:1"
             d="m 300.73,88.825 c 10.33,-0.871 6.73,0.35 11.32,-1.414"
             id="path2207" />
        <path
             style="fill:none;stroke:black;stroke-width:1px;stroke-linecap:butt;stroke-linejoin:miter;stroke-opacity:1"
             d="m 298.38,100.14 c 4.44,-3.118 9.76,-4.285 14.84,-5.894 1.15,-0.364 2.27,-0.814 3.42,-1.179 0.81,-0.256 1.7,-0.26 2.48,-0.589 0.42,-0.178 0.76,-0.512 1.18,-0.707 0.11,-0.05 1.07,-0.209 1.29,-0.353 0.18,-0.117 0.42,-0.355 0.59,-0.472"
             id="path2209" />
        <path
             style="fill:none;stroke:black;stroke-width:1px;stroke-linecap:butt;stroke-linejoin:miter;stroke-opacity:1"
             d="m 331.02,70.914 c 2.18,0 0.85,0.133 3.42,-0.589 0.58,-0.165 1.19,-0.274 1.76,-0.471 1.04,-0.354 2.01,-0.894 3.07,-1.179 0.99,-0.268 2.03,-0.401 3.06,-0.471 3.29,-0.223 3.08,0.09 5.54,0 1.98,-0.08 0.97,-0.17 3.18,-0.353 1.05,-0.09 2.13,0 3.18,0 0.54,0 2.04,-0.236 2.36,0.235 0.64,0.964 0.62,2.437 0.71,3.535 0.16,2.004 0.11,4.001 0.11,6.01 0,1.492 0,2.985 0,4.478 0,1.296 0.17,2.603 0,3.888 -0.1,0.407 -0.26,0.778 -0.35,1.179 -0.25,1.165 -0.2,1.547 -0.71,2.474 -0.39,0.721 -0.43,0.833 -0.94,1.414 -0.11,0.126 -0.27,0.212 -0.35,0.354 -0.12,0.179 -0.12,0.413 -0.24,0.589 -0.12,0.185 -0.35,0.284 -0.47,0.471 -0.42,0.278 -0.25,0.816 -0.47,1.179 -0.1,0.105 -0.58,0.749 -0.71,0.589 -0.28,-0.358 -0.47,-0.786 -0.71,-1.179"
             id="path2213" />
        <path
             style="fill:none;stroke:black;stroke-width:1px;stroke-linecap:butt;stroke-linejoin:miter;stroke-opacity:1"
             d="m 344.57,53.592 c 0.48,8.295 0.13,17.649 -0.35,25.924 -0.18,2.924 -0.54,6.382 -1.89,9.074"
             id="path2215" />
        <path
             style="fill:none;stroke:black;stroke-width:1px;stroke-linecap:butt;stroke-linejoin:miter;stroke-opacity:1"
             d="m 382.16,66.672 c 11.45,-4.292 2.97,-1.474 19.56,-5.302 0.73,-0.168 0.75,-0.283 1.18,-0.707"
             id="path2217" />
        <path
             style="fill:none;stroke:black;stroke-width:1px;stroke-linecap:butt;stroke-linejoin:miter;stroke-opacity:1"
             d="m 392.06,45.815 c -0.9,13.602 -0.71,27.262 -0.71,40.889 0,2.386 0.1,4.801 0,7.188 0,1.34 -0.19,2.67 -0.24,4.007 0,0.588 0.1,1.181 0,1.767 0,0.247 -0.2,0.464 -0.23,0.704 -0.1,0.75 0,1.6 0,2.36"
             id="path2219" />
        <path
             style="fill:none;stroke:black;stroke-width:1px;stroke-linecap:butt;stroke-linejoin:miter;stroke-opacity:1"
             d="m 389.7,67.615 c -6.01,10.195 -3.5,6.195 -7.31,12.137"
             id="path2221" />
        <path
             style="fill:none;stroke:black;stroke-width:1px;stroke-linecap:butt;stroke-linejoin:miter;stroke-opacity:1"
             d="m 393.59,66.672 c 3.69,-0.292 4.97,4.982 7.07,7.777"
             id="path2223" />
        <path
             style="fill:none;stroke:black;stroke-width:1px;stroke-linecap:butt;stroke-linejoin:miter;stroke-opacity:1"
             d="m 408.21,52.169 c 8.79,-1.72 -5.43,3.453 -3.89,4.831 2.21,1.984 3.47,2.753 6.01,3.535 0.3,0.09 2,0.589 2,0.589 0,0.352 -0.66,0.256 -0.94,0.472 -0.48,0.375 -0.88,0.854 -1.3,1.296 -1.38,1.451 -3.15,3.085 -4.12,4.831 -0.24,0.43 -0.46,0.869 -0.71,1.296 -0.1,0.153 -0.39,0.393 -0.23,0.472 0.77,0.389 1.86,0.235 2.71,0.235 1.54,0 3.43,0.126 4.94,-0.118 0.46,-0.07 0.86,-0.352 1.3,-0.471 0.15,-0.04 0.32,0.04 0.47,0 0,0 0,-0.328 0,-0.353"
             id="path2225" />
        <path
             style="fill:none;stroke:black;stroke-width:1px;stroke-linecap:butt;stroke-linejoin:miter;stroke-opacity:1"
             d="m 414.33,65.366 c 2.06,3.201 3.05,7.17 5.78,9.899"
             id="path2227" />
        <path
             style="fill:none;stroke:black;stroke-width:1px;stroke-linecap:butt;stroke-linejoin:miter;stroke-opacity:1"
             d="m 436.84,52.287 c -3.01,3.733 -1.62,2.173 -4.48,5.184 -0.13,0.145 -0.38,0.319 -0.23,0.59 0.22,0.416 0.63,0.705 0.94,1.06 1.01,1.144 2.94,3.32 4.36,3.889 0.1,0.03 0.17,-0.04 0.24,0 0.1,0.03 -0.46,0.466 -0.83,1.06 -0.9,1.472 -1.54,3.129 -2.24,4.714 -0.23,0.539 -0.56,1.368 -0.47,1.414 1.18,0.59 3.21,-0.153 4.24,-0.472 0.17,-0.05 2.9,-0.797 3.54,-1.296 0.15,-0.12 0.23,-0.314 0.35,-0.471"
             id="path2229" />
        <path
             style="fill:none;stroke:black;stroke-width:1px;stroke-linecap:butt;stroke-linejoin:miter;stroke-opacity:1"
             d="m 441.44,65.013 c 2.77,1.574 3,4.226 3.77,7.306"
             id="path2231" />
        <path
             style="fill:none;stroke:black;stroke-width:1px;stroke-linecap:butt;stroke-linejoin:miter;stroke-opacity:1"
             d="m 406.56,82.217 c 11.18,-1.243 -1.24,0 12.72,-0.825 1.54,-0.09 3.07,-0.328 4.6,-0.471 1.41,-0.132 2.83,-0.194 4.24,-0.354 0.91,-0.103 1.8,-0.423 2.71,-0.471 2.73,-0.144 5.53,0.104 8.25,-0.236 0.79,-0.1 1.58,-0.171 2.36,-0.353 0.53,-0.126 0.99,-0.492 1.53,-0.59 0.23,-0.04 0.48,0.05 0.71,0 0.13,-0.03 0.21,-0.204 0.35,-0.235 0.23,-0.05 0.47,0.04 0.71,0 0.71,-0.119 1.43,-0.36 2.12,-0.589"
             id="path2233" />
        <path
             style="fill:none;stroke:black;stroke-width:1px;stroke-linecap:butt;stroke-linejoin:miter;stroke-opacity:1"
             d="m 421.64,50.048 c -0.2,4.313 -0.12,8.642 -0.12,12.962 0,1.201 -0.11,2.457 0,3.653 0.1,0.831 0.52,2.089 0.71,2.828 0.1,0.35 0.11,0.721 0.24,1.06 0.11,0.297 0.35,0.531 0.47,0.825 0.79,1.98 0.13,1.149 1.06,3.182 0.45,0.992 1.16,1.851 1.65,2.828 0.23,0.456 0.33,0.972 0.59,1.414 0.45,0.782 1.06,1.463 1.53,2.238 1.89,3.161 0.14,0.643 1.53,3.3 0.6,1.148 1.51,2.129 2.24,3.181 1.29,1.867 2.39,3.807 3.89,5.539 1.47,1.711 3.44,2.945 5.18,4.36 0.85,0.686 1.3,1.149 2.36,1.767 0.36,0.213 0.81,0.256 1.18,0.472 2.57,1.933 0.21,0.343 2.82,1.653 0.26,0.12 0.46,0.33 0.71,0.47 0.59,0.32 1.47,0.73 2.12,1.06 0.29,0.14 0.64,0.13 0.95,0.23 0.1,0 0.14,0.12 0.23,0.12 0.19,0 0.1,-2.81 0.12,-3.06 0,-0.142 0.16,-0.238 0.23,-0.356"
             id="path2237" />
        <path
             style="fill:none;stroke:black;stroke-width:1px;stroke-linecap:butt;stroke-linejoin:miter;stroke-opacity:1"
             d="m 444.74,90.23 c -3.7,3.497 -4.35,9.173 -7.9,12.73"
             id="path2239" />
        <path
             style="fill:none;stroke:black;stroke-width:1px;stroke-linecap:butt;stroke-linejoin:miter;stroke-opacity:1"
             d="m 414.45,89.758 c -6.47,0.329 -1.17,8.126 -3.89,10.842"
             id="path2241" />
        <path
             style="fill:none;stroke:black;stroke-width:1px;stroke-linecap:butt;stroke-linejoin:miter;stroke-opacity:1"
             d="m 413.27,94.236 c 5.83,3.327 4.21,1.732 5.9,3.417"
             id="path2243" />
        <path
             style="fill:none;stroke:black;stroke-width:1px;stroke-linecap:butt;stroke-linejoin:miter;stroke-opacity:1"
             d="m 179.48,171.43 c 6.36,0.3 14.41,2.63 20.74,0.94 5.09,-1.36 20.6,-10.06 24.51,-12.25 1.37,-0.77 2.39,-2.08 3.77,-2.83 5.76,-3.15 12.24,-5.08 17.91,-8.49 4.97,-2.98 8.62,-7.09 13.2,-10.37 1.38,-0.98 3.43,-0.78 4.71,-1.88 2.03,-1.74 3.58,-3.99 5.66,-5.66 2.74,-2.19 6.39,-2.94 9.42,-4.71 1.96,-1.14 3.92,-2.32 5.66,-3.77 0.7,-0.58 1.41,-5.9 3.77,-4.71 7.1,3.55 3.57,1.92 8.49,7.54 1.03,1.18 2.57,1.8 3.77,2.82 5.12,4.4 9.77,9.07 15.08,13.2 6.72,5.23 15.03,8.81 22.62,12.26 4.06,1.84 7.89,5.35 12.26,6.6 0.91,0.26 1.92,-0.27 2.83,0 5.36,1.61 8.32,5.91 13.19,7.54 0.9,0.3 1.9,-0.12 2.83,0 6.29,0.78 11.85,2.98 17.91,4.71 1.54,0.44 3.24,0.31 4.72,0.94 0.81,0.35 1.09,1.49 1.88,1.89 1.36,0.68 4.14,0.34 5.66,0.94 1.3,0.52 2.44,1.44 3.77,1.89 0.89,0.3 2.04,-0.53 2.83,0 1.56,1.04 1.86,2.83 3.77,2.83"
             id="path2358" />
        <path
             style="fill:none;stroke:black;stroke-width:1px;stroke-linecap:butt;stroke-linejoin:miter;stroke-opacity:1"
             d="m 508.6,387.28 c 0,2.06 0.16,4.08 -0.67,6 -0.52,1.21 -0.92,2.64 -2,3.5 -0.52,0.42 -0.13,0 -0.66,0.17 -0.42,0.14 -0.51,0.33 -1,0.33 -0.17,0 -0.39,0.12 -0.5,0 -0.1,-0.1 0,-0.22 0,-0.33 0,-2.53 0.39,-2.27 1.16,-4.33 0.28,-0.75 0.31,-1.62 0.67,-2.34 0.46,-0.92 1.33,-1.6 1.83,-2.5 0.15,-0.26 0.16,-0.58 0.34,-0.83 0.23,-0.32 0.62,-0.52 1,-0.66 0.3,-0.13 0.66,0 1,0 1.62,0 2.81,0.98 3.99,1.99 0.65,0.56 1.47,1.38 1.84,2.17 0.19,0.42 0.18,0.9 0.33,1.33 0.13,0.36 0.37,0.65 0.5,1 0.3,0.83 0.1,1.67 0.17,2.5 0.1,0.47 0.16,0.61 0.16,1"
             id="path2682" />
        <path
             style="fill:none;stroke:black;stroke-width:1px;stroke-linecap:butt;stroke-linejoin:miter;stroke-opacity:1"
             d="m 378.28,416.95 c 10.08,-1.37 8.73,-1.44 18.33,-1.84 2.55,-0.1 5.11,-0.13 7.67,-0.16 1.61,0 3.22,0 4.83,0 0.61,0 1.25,-0.2 1.83,0 0.1,0 -0.11,0.11 -0.16,0.16 -0.66,0.65 -0.1,0 -0.5,0.84 -0.64,1.27 -1.55,2.48 -2.34,3.66 -1.15,1.74 -2.55,3.5 -4.16,4.83 -0.47,0.39 -1.03,0.64 -1.5,1 -0.76,0.59 -0.44,0.64 -1.17,1 -0.64,0.33 -1.37,0.36 -2,0.67 -0.67,0.34 -1.13,0.6 -1.83,0.83"
             id="path2684" />
        <path
             style="fill:none;stroke:black;stroke-width:1px;stroke-linecap:butt;stroke-linejoin:miter;stroke-opacity:1"
             d="m 397.28,427.94 c 0.5,4.86 1.28,9.42 0.33,14.34 -0.35,1.83 -1.3,3.5 -2.17,5.16 -2.19,4.23 -2.16,1.85 -2.16,3.33"
             id="path2686" />
        <path
             style="fill:none;stroke:black;stroke-width:1px;stroke-linecap:butt;stroke-linejoin:miter;stroke-opacity:1"
             d="m 431.11,425.11 c 12.39,-1.32 3.95,0 18.16,-3.83 1.82,-0.5 -0.73,0.83 1.5,-0.5"
             id="path2688" />
        <path
             style="fill:none;stroke:black;stroke-width:1px;stroke-linecap:butt;stroke-linejoin:miter;stroke-opacity:1"
             d="m 431.27,414.45 c -1.65,6.49 -2.06,13.15 -1.83,19.83 0.1,1.39 0.1,2.79 0.33,4.16 0.14,0.71 0.6,1.32 0.84,2 0.37,1.08 0.62,2.73 1.83,3.34 1.5,0.75 3.4,0.5 5,0.5 4.01,0 7.92,0.1 11.83,-1 1.14,-0.32 0.7,-0.89 1.83,-1.17"
             id="path2690" />
        <path
             style="fill:none;stroke:black;stroke-width:1px;stroke-linecap:butt;stroke-linejoin:miter;stroke-opacity:1"
             d="m 457.1,411.11 c -1.82,2.74 -0.92,5.45 2.17,6.34 1.6,0.45 2.55,0.65 3.83,-0.17 1.22,-0.77 1.78,-2.83 1,-4 -0.28,-0.42 -0.63,-0.49 -0.83,-1 0,-0.1 0.1,-0.24 0,-0.33 -0.23,-0.35 -0.71,-0.1 -1,-0.17 -0.66,-0.22 -1.23,-0.5 -2,-0.5"
             id="path2692" />
        <path
             style="fill:none;stroke:black;stroke-width:1px;stroke-linecap:butt;stroke-linejoin:miter;stroke-opacity:1"
             d="m 468.93,431.78 c 15.5,-0.23 7.45,-0.12 24.17,-0.34"
             id="path2694" />
        <path
             style="fill:none;stroke:black;stroke-width:1px;stroke-linecap:butt;stroke-linejoin:miter;stroke-opacity:1"
             d="m 509.76,420.94 c -0.35,16.34 -0.33,10.45 -0.33,17.67"
             id="path2696" />
        <path
             style="fill:none;stroke:black;stroke-width:1px;stroke-linecap:butt;stroke-linejoin:miter;stroke-opacity:1"
             d="m 524.59,408.61 c 0.74,4.26 -1.04,9.15 0,13.33 1.63,6.52 1.2,-1.09 2,5.34 0.2,1.54 -0.22,3.12 0,4.66 0.33,2.26 0.96,4.42 1.34,6.67 0.1,0.56 1.36,7.36 2,8 0.62,0.63 1.78,0.1 2.66,0 6.99,-0.7 10.34,-4.68 13.33,-10.67"
             id="path2700" />
        <path
             style="fill:none;stroke:blue;stroke-width:5;stroke-linecap:butt;stroke-linejoin:miter;stroke-opacity:0.5;stroke-miterlimit:4;stroke-dasharray:none;filter:url(#filter1194)"
             d="m 291.29,23.997 c -1.44,11.727 0,23.519 0,35.328 0,1.946 0.52,5.925 0,7.999 -0.43,1.742 -2.06,3.536 -2.66,5.333 -0.35,1.051 0.18,3.146 -0.67,3.999 -0.16,0.158 -0.54,-0.184 -0.66,0 -0.67,0.996 -0.96,2.198 -1.34,3.333 -0.43,1.283 -0.16,2.745 -0.66,4 -3.05,4.574 -0.22,-0.482 -1.34,3.999 -0.27,1.078 -1.65,1.613 -2,2.667 -0.21,0.632 0.16,1.353 0,1.999 -0.15,0.61 -1.01,0.795 -1.33,1.333 -1.37,2.28 -2.41,5.212 -4,7.333 -2.33,3.1 -5.57,5.63 -8,8.67 -1.97,2.46 -3.73,5.05 -6,7.33 -0.91,0.91 -2.42,1.08 -3.33,2 -6.13,6.13 2.6,-0.9 -4.67,5.33 -3.15,2.7 -0.88,0 -4.66,2.67 -1.03,0.73 -1.55,2.1 -2.67,2.66 -3.51,1.76 -3.33,2 -6,4.67 -1.6,1.6 -6.14,3.42 -8,4.66 -3.44,2.3 -6.54,5.59 -10,8 -6.16,4.32 -0.46,-0.1 -6.66,3.34 -3,1.63 -5.55,4.61 -8.67,6 -5.25,2.33 -10.97,4.45 -16,7.33 -4.47,2.56 -8.28,6.03 -12.66,8.66 -1.03,0.62 -2.31,0.72 -3.33,1.34 -2.18,1.3 -4.12,2.97 -6,4.66 -1.4,1.26 -2.55,2.8 -4,4 -2.46,2.05 -5.52,3.31 -8,5.33 -0.61,0.5 -5.11,5.2 -6,6 -4.27,3.85 -8.25,7.63 -12,12 -2.79,3.26 -3.33,6.62 -3.33,10.67 0,1.11 -0.41,2.3 0,3.33 0.18,0.46 0.98,0.32 1.33,0.67 0.99,0.99 1.44,2.51 2.67,3.33 1.52,1.02 3.64,0.77 5.33,1.33 2.51,0.84 4.84,1.84 7.33,2.67 0.76,0.25 1.23,1.14 2,1.33 1.51,0.38 3.14,-0.28 4.67,0 11.57,2.11 1.24,0.42 6,2 4.52,1.51 19.51,-3.5 23.99,-6 7.07,-3.92 12.28,-9.92 17.34,-15.99 1.89,-2.28 0.93,-2.27 3.33,-4.67 3.86,-3.86 14.97,-10.38 20,-13.33 3.14,-1.85 8.71,-5.35 12.66,-6.67 13.47,-4.49 26.75,-5.67 40.66,-6.66 5.13,-0.37 10.22,-1.49 15.33,-2 2.66,-0.27 5.35,0.24 8,0 3.03,-0.28 6.23,-1.05 9.33,-1.34 5.03,-0.45 10.29,0 15.34,0 1.11,0 8.7,-0.65 9.99,0 0.57,0.28 0.78,1.06 1.34,1.34 2.22,1.11 5.27,0.97 7.33,2 2.74,1.36 1.27,1.01 3.33,2.66 5.77,4.61 12.58,8.97 16.67,15.33 2.2,3.43 3.79,7.24 6,10.67 2.67,4.16 3.47,3.82 4.66,8 0.95,3.31 0,16.8 -1.33,20 -2.63,6.13 -4.38,4.9 -8,9.33 -1.13,1.38 -1.48,3.32 -2.67,4.66 -5.27,5.94 -12.93,11.57 -19.99,15.33 -1.93,1.03 -4.1,1.59 -6,2.67 -1.24,0.71 -2.14,1.9 -3.34,2.67 -5.04,3.21 -10.91,4.73 -15.99,8 -1.2,0.77 -2.02,2.13 -3.34,2.66 -1.03,0.42 -2.24,-0.22 -3.33,0 -2.41,0.49 -5.13,2.55 -7.33,3.34 -7.35,2.62 -15.17,4.36 -22.66,6.66 -7.7,2.37 -15.56,4.62 -23.34,6.67 -1.3,0.34 -2.72,0.21 -3.99,0.66 -1.88,0.67 -3.44,2.08 -5.34,2.67 -1.71,0.53 -3.59,0.26 -5.33,0.67 -2.05,0.48 -3.97,1.42 -6,2 -4.78,1.36 -11.38,2.26 -16,4 -4.43,1.66 -2.68,1.83 -6,2.66 -5.95,1.49 -11.89,2.6 -17.99,3.33 -5.56,0.67 -11.24,0.65 -16.67,2 -0.96,0.25 -1.7,1.1 -2.66,1.34 -0.87,0.21 -1.8,-0.16 -2.67,0 -6.34,1.15 -12.46,4.22 -18.67,6 -10.28,2.94 -20.62,5.98 -29.99,11.33 -2.52,1.44 -4.81,3.24 -7.33,4.66 -2.17,1.22 -4.66,1.88 -6.67,3.34 -2.04,1.47 -3.55,3.55 -5.33,5.33 -1.78,1.78 -3.76,3.37 -5.33,5.33 -6.06,7.57 0,1.65 -4,8.67 -1.11,1.93 -3.06,3.32 -4.003,5.33 -1.28,2.74 -2.581,16.79 -2.667,18.67 -0.05,1.01 -0.351,8.31 0,8.66 1.526,1.53 3.88,2.97 5.33,4.67 0.65,0.75 0.69,1.91 1.34,2.66 0.37,0.44 4.43,3.66 5.33,4 1.26,0.48 2.79,0.1 4,0.67 4.92,2.46 12.36,3.8 18,3.33 4.78,-0.4 10.1,-1.14 14.66,-2.66 3.72,-1.24 6.96,-3.43 10.67,-4.67 4.13,-1.38 7.93,-2.97 11.99,-4.67 5.12,-2.13 -6.93,1.34 8,-4 1.9,-0.67 4.09,0 6,-0.66 14.63,-4.88 27.5,-5.98 42.66,-8 11.3,-1.51 22.66,-1.72 34,-2.67 6.96,-0.58 13.54,-0.66 20.66,-0.66 3.78,0 7.58,-0.45 11.33,0 1.61,0.18 3.12,0.88 4.67,1.33 4.44,0.67 8.86,1.52 13.33,2 1.77,0.19 3.57,-0.22 5.33,0 7.52,0.94 23.39,3.51 30.67,5.33 2.72,0.68 5.26,2.01 8,2.67 2.84,0.68 5.86,0.51 8.66,1.33 2.58,0.75 4.76,2.58 7.33,3.33 1.28,0.38 2.69,-0.19 4,0 3.15,0.48 6.2,1.46 9.34,2 1.98,0.35 4.03,0.25 5.99,0.67 1.17,0.25 2.16,1.1 3.34,1.33 3.27,0.66 6.76,-0.14 10,0.67 2.71,0.68 9.34,5.47 11.99,6.67 2.83,1.27 5.82,2.13 8.67,3.33 7.32,3.08 0.72,0.84 8.67,5.33 3.65,4.16 9.4,4.37 13.99,6.67 4.49,2.24 8.47,5.27 12.67,8 10.86,7.05 20.47,15.93 29.99,24.66 1.87,1.71 4.45,2.67 6,4.67 1.1,1.41 1.68,3.17 2.67,4.66 2.09,3.14 5.33,5.44 5.33,9.33"
             id="path1034" />
        <path
             style="fill:none;stroke:blue;stroke-width:5;stroke-linecap:butt;stroke-linejoin:miter;stroke-opacity:0.5;stroke-miterlimit:4;stroke-dasharray:none;filter:url(#filter1190)"
             d="m 412.61,453.94 c 12.7,-1.95 8.02,-1.56 24.67,-2 8.32,-0.22 21.19,-1.38 29.32,1.33 2.46,0.82 5.03,2.41 7.34,3.34 1.25,0.5 6.27,1.86 7.33,2.66 0.4,0.3 0.24,1.08 0.67,1.34 0.78,0.47 1.82,0.3 2.66,0.66 3.4,1.46 6.62,3.64 10,5.33 1.35,0.68 2.17,0.46 3.33,1.34 0.99,0.74 7.61,4.66 8.67,4.66 0.22,0 0,-0.44 0,-0.66 0,-2.89 0,-5.78 0,-8.67 0,-3.87 -0.27,-10.67 0.67,-14.66 2.32,-9.95 5.75,-19.79 9.33,-29.33 0.49,-1.32 0.99,-2.64 1.33,-4 0.1,-0.3 -0.22,-1.83 0,-2 2.12,-1.7 4.44,-3.11 6.66,-4.67"
             id="path1036" />
    </g>
</svg>
