<?xml version="1.0" encoding="UTF-8" standalone="no"?>
<!-- Created with Inkscape (http://www.inkscape.org/) -->

<svg
     width="1500"
     height="300"
     viewBox="0 0 396.87498 79.375002"
     version="1.1"
     id="svg5"
     inkscape:version="1.1 (c68e22c387, 2021-05-23)"
     sodipodi:docname="questionaire-option1.svg"
     inkscape:export-filename="C:\Program Files\XAMPP\htdocs\koko-campus.org\pics\footer2020.png"
     inkscape:export-xdpi="96"
     inkscape:export-ydpi="96"
     xmlns:inkscape="http://www.inkscape.org/namespaces/inkscape"
     xmlns:sodipodi="http://sodipodi.sourceforge.net/DTD/sodipodi-0.dtd"
     xmlns="http://www.w3.org/2000/svg"
     xmlns:svg="http://www.w3.org/2000/svg">
    <sodipodi:namedview
         id="namedview7"
         pagecolor="#ffffff"
         bordercolor="#666666"
         borderopacity="1.0"
         inkscape:pageshadow="2"
         inkscape:pageopacity="0.0"
         inkscape:pagecheckerboard="0"
         inkscape:document-units="px"
         showgrid="false"
         units="px"
         width="30px"
         inkscape:zoom="1.4142136"
         inkscape:cx="809.99082"
         inkscape:cy="358.14958"
         inkscape:window-width="1920"
         inkscape:window-height="1027"
         inkscape:window-x="-8"
         inkscape:window-y="-8"
         inkscape:window-maximized="1"
         inkscape:current-layer="layer1" />
    <defs
         id="defs2">
        <rect
             x="1145.513"
             y="219.2031"
             width="199.40411"
             height="26.870058"
             id="rect15856" />
        <rect
             x="472.34733"
             y="93.338095"
             width="533.35174"
             height="71.815203"
             id="rect4392" />
    </defs>
    <g
         inkscape:label="レイヤー 1"
         inkscape:groupmode="layer"
         id="layer1">
        <g
             id="g18133"
             transform="translate(-2.80633,0.561266)"
             inkscape:export-filename="C:\Program Files\XAMPP\htdocs\koko-campus.org\pics\footer2020.png"
             inkscape:export-xdpi="96"
             inkscape:export-ydpi="96">
            <g
                 id="g18119">
                <path
                     id="path3143"
                     style="fill:#93ff5c;fill-opacity:1;stroke:none;stroke-width:0.0706536"
                     d="m 156.33042,59.04029 c -0.66856,9.27e-4 -1.02884,0.136497 -1.47307,0.554493 -0.49494,0.465742 -0.78571,1.45212 -0.59199,2.007825 0.0695,0.199377 0.0501,0.234439 -0.39663,0.695586 -0.96372,0.994781 -1.27296,2.044031 -0.92942,3.156279 0.27394,0.886905 0.91591,1.637967 1.95258,2.284087 0.39479,0.24609 0.51662,0.356664 0.48345,0.442018 -0.0244,0.06266 -0.0629,0.325789 -0.0848,0.584094 l -0.0395,0.469641 -0.51404,0.02549 c -0.58582,0.02949 -0.77995,0.148185 -0.8495,0.518976 -0.046,0.250677 -0.0433,0.33176 -0.0286,0.520949 0.0662,0.391773 0.40152,0.826713 0.77945,1.010324 0.17393,0.08451 0.31597,0.171014 0.31475,0.192387 -0.001,0.02148 -0.14484,0.125356 -0.31869,0.23087 -0.17385,0.105514 -0.35474,0.27609 -0.40157,0.37887 -0.19438,0.426638 0.2956,0.47038 1.90324,0.169703 0.41884,-0.07835 0.83026,-0.157252 0.91364,-0.175602 0.27878,-0.06142 0.26425,0.174072 -0.0266,0.431164 l -0.2664,0.234803 0.18943,0.0031 c 0.10435,0.0017 0.27701,-0.02986 0.38282,-0.07005 0.16519,-0.06281 0.21835,-0.04824 0.37888,0.10555 0.24681,0.236477 0.35618,0.226683 0.35618,-0.0324 0,-0.20411 0.0117,-0.21212 0.31771,-0.21212 0.17487,0 0.31771,-0.02986 0.31771,-0.0671 0,-0.03725 -0.15893,-0.124374 -0.35321,-0.193369 -0.24314,-0.08636 -0.3532,-0.164751 -0.3532,-0.250604 0,-0.113815 0.0957,-0.124301 1.09517,-0.124301 0.99949,0 1.09518,0.01056 1.09518,0.124301 0,0.08582 -0.1101,0.164241 -0.3532,0.250604 -0.19432,0.06903 -0.35321,0.156122 -0.35321,0.193369 0,0.03725 0.14284,0.0671 0.31771,0.0671 0.30616,0 0.31771,0.008 0.31771,0.21212 0,0.259232 0.10933,0.269063 0.35618,0.0324 0.16053,-0.153792 0.21467,-0.168356 0.37987,-0.10555 0.10584,0.04024 0.27751,0.07169 0.38183,0.07005 l 0.18943,-0.0031 -0.26641,-0.234803 c -0.2909,-0.257084 -0.30543,-0.49259 -0.0266,-0.431164 0.0834,0.0182 0.49481,0.09728 0.91364,0.175602 1.60764,0.300666 2.09763,0.256939 1.90324,-0.169703 -0.0468,-0.102783 -0.2277,-0.27336 -0.40157,-0.37887 -0.17385,-0.105514 -0.31647,-0.209462 -0.3177,-0.23087 -0.001,-0.02148 0.13985,-0.107918 0.31374,-0.192387 0.37703,-0.183174 0.71367,-0.61803 0.77944,-1.007364 0.051,-0.257922 0.0364,-0.346469 0.0365,-0.523913 -0.0696,-0.370794 -0.26269,-0.4894 -0.84851,-0.518976 l -0.51405,-0.02549 -0.0405,-0.469645 c -0.0219,-0.258322 -0.0595,-0.521433 -0.0839,-0.584097 -0.0332,-0.08534 0.0877,-0.195954 0.48247,-0.442014 1.03667,-0.646124 1.67864,-1.397186 1.95258,-2.284088 0.34352,-1.112251 0.0353,-2.161497 -0.92843,-3.156278 -0.44675,-0.461137 -0.46615,-0.496199 -0.39664,-0.695586 0.19374,-0.555709 -0.098,-1.542087 -0.59297,-2.007825 -0.44423,-0.41801 -0.80353,-0.553554 -1.47208,-0.554493 -0.53591,-7.54e-4 -0.64181,0.02184 -0.98368,0.211136 -0.37125,0.205384 -0.86819,0.735814 -0.96001,1.025125 -0.0412,0.129689 -0.10762,0.140102 -0.84753,0.140102 -0.73992,0 -0.80636,-0.0102 -0.84753,-0.140102 -0.0918,-0.289307 -0.58777,-0.81973 -0.95902,-1.025125 -0.34188,-0.189145 -0.44778,-0.211901 -0.98369,-0.211136 z m -0.0255,1.021178 c 0.61322,-5e-4 1.09109,0.519266 1.02907,1.119843 -0.0787,0.762062 -0.89481,1.211998 -1.552,0.855422 -0.963,-0.522504 -0.5785,-1.97437 0.52293,-1.975265 z m 5.57257,0.0031 c 0.53118,0.0054 1.06064,0.37911 1.06064,1.055711 0,0.409305 -0.1954,0.730408 -0.55844,0.915606 -0.32437,0.165516 -0.58573,0.17917 -0.89291,0.0454 -0.45089,-0.196391 -0.74881,-0.768634 -0.6354,-1.220482 0.1322,-0.526739 0.54868,-0.780459 0.9748,-0.795237 0.0171,-5.8e-4 0.0342,-0.0012 0.0513,-10e-4 z m 0.3769,0.354224 c -0.15379,0.0062 -0.31166,0.104676 -0.34731,0.246672 -0.0589,0.23473 0.11083,0.421742 0.30391,0.440044 -0.0451,-0.01711 -0.0926,-0.05807 -0.15787,-0.123354 -0.17403,-0.174036 -0.17538,-0.22428 -0.0117,-0.426231 0.11505,-0.142068 0.28902,-0.159981 0.4134,-0.07893 -0.005,-0.0043 -0.0109,-0.0091 -0.0168,-0.01274 -0.0455,-0.0284 -0.0986,-0.04318 -0.15292,-0.0454 -0.0102,-4.13e-4 -0.0204,-4.13e-4 -0.0306,0 z m 0.20028,0.05822 c 0.1286,0.09965 0.15347,0.3488 0.0543,0.492335 0.0978,-0.08771 0.11709,-0.15969 0.0839,-0.292038 -0.023,-0.09139 -0.074,-0.158524 -0.13813,-0.200286 z m 0.0543,0.492335 c -0.009,0.0084 -0.0182,0.01602 -0.0288,0.02476 -0.0544,0.04398 -0.0983,0.07577 -0.13616,0.09572 0.047,-0.01602 0.093,-0.04271 0.1342,-0.08389 0.0113,-0.01092 0.0215,-0.0233 0.0306,-0.03652 z m -0.16475,0.120369 c -0.0441,0.01493 -0.0891,0.02003 -0.13318,0.01602 0.0427,0.01638 0.0832,0.01056 0.13318,-0.01602 z m -5.72847,-0.665985 c -0.17239,0.001 -0.28308,0.110065 -0.30686,0.311771 -0.0288,0.245799 0.15438,0.399201 0.34928,0.37591 -0.0505,-0.01129 -0.10733,-0.05094 -0.18944,-0.117383 -0.21532,-0.174363 -0.14738,-0.484077 0.12136,-0.551533 0.0342,-0.0087 0.0643,-0.01274 0.0918,-0.01383 -0.023,-0.0031 -0.0451,-0.0051 -0.0661,-0.0051 z m 0.0661,0.0051 c 0.0204,0.0028 0.0414,0.0062 0.0631,0.01201 0.0262,0.0066 0.0497,0.01529 0.072,0.02658 -0.0412,-0.02876 -0.0835,-0.0407 -0.13518,-0.03848 z m 0.13519,0.03848 c 0.0295,0.02075 0.0589,0.04952 0.0908,0.0888 0.0247,0.03058 0.0441,0.05643 0.0612,0.0809 -0.0262,-0.07093 -0.0784,-0.132384 -0.15193,-0.169703 z m 0.15193,0.169703 c 0.0406,0.109081 0.0215,0.240992 -0.073,0.34534 0.14783,-0.147785 0.16953,-0.207204 0.073,-0.34534 z m -0.31078,0.474574 c 0.0613,0.01383 0.11458,-0.0142 0.18943,-0.08287 -0.0596,0.04915 -0.12517,0.07519 -0.18943,0.08287 z m 5.97808,2.559363 c 0.053,0.0013 0.0908,0.07016 0.0908,0.21212 0,0.544239 -0.65548,1.177725 -1.54213,1.491809 -0.91997,0.325898 -2.27775,0.42298 -3.29737,0.234839 -1.09299,-0.201706 -1.94388,-0.65634 -2.26928,-1.211601 -0.18682,-0.318799 -0.20797,-0.698543 -0.0385,-0.698543 0.0522,0 0.13784,0.127724 0.19042,0.283155 0.14079,0.416192 0.63309,0.830569 1.25008,1.052752 0.71247,0.256575 1.14822,0.324624 2.06801,0.324624 0.91979,0 1.35653,-0.06801 2.069,-0.324624 0.61725,-0.222279 1.10867,-0.636629 1.24909,-1.052752 0.0688,-0.203892 0.16173,-0.313411 0.22989,-0.311772 z m -3.51542,5.013149 c 0.4256,0 0.96335,0.04886 1.2708,0.116436 l 0.53378,0.117419 -0.0474,0.253554 c -0.0262,0.139592 -0.16293,0.762509 -0.30391,1.384264 l -0.25654,1.130697 -0.31573,0.04733 c -0.38019,0.05753 -1.40869,0.05567 -1.79767,-0.004 l -0.28021,-0.0434 -0.25654,-1.130697 c -0.14082,-0.621751 -0.27685,-1.244657 -0.30288,-1.384264 l -0.0474,-0.253553 0.53279,-0.11742 c 0.30744,-0.06754 0.8452,-0.116437 1.2708,-0.116437 z m -2.95105,0.964936 0.14407,0.382821 c 0.0789,0.210517 0.2269,0.570753 0.32855,0.80017 0.10166,0.229415 0.17382,0.427855 0.16083,0.441031 -0.0409,0.04089 -0.46444,-0.297753 -0.62061,-0.496285 -0.19756,-0.25115 -0.25097,-0.673562 -0.11742,-0.928433 z m 5.92776,0.101618 c 0.0244,-0.0025 0.0452,0.02767 0.072,0.07599 0.1917,0.345486 0.0969,0.752639 -0.25752,1.10702 -0.27223,0.272195 -0.53749,0.431168 -0.47458,0.284137 0.0226,-0.05308 0.17553,-0.424695 0.34039,-0.825821 0.1945,-0.473195 0.26626,-0.636039 0.31967,-0.641322 z"
                     sodipodi:nodetypes="ccscssscccccccscsccccccssssssscssssccccccsscccccccsssscssscscccccsccsscssccsscsccscccscccccccccccccccccccccccccccccsssssscssscsssccccccccccccsccscscccccsscccccccc" />
                <path
                     style="fill:#302f32;stroke:none;stroke-width:0.0706536"
                     d="m 158.38165,65.643633 c -1.00692,-0.110975 -1.86,-0.417253 -2.39369,-0.85934 -0.4008,-0.332014 -0.71417,-1.095499 -0.42566,-1.037063 0.062,0.01274 0.15489,0.145673 0.20637,0.295752 0.12769,0.37232 0.39215,0.629295 0.90705,0.881348 0.76486,0.374417 1.23624,0.465342 2.41246,0.465342 1.17621,0 1.64759,-0.09095 2.41245,-0.465342 0.5149,-0.25206 0.77937,-0.509028 0.90705,-0.881348 0.0991,-0.28887 0.31916,-0.417897 0.31916,-0.187107 0,0.271066 -0.32313,0.76481 -0.67121,1.025613 -0.77822,0.583099 -2.34658,0.908433 -3.67398,0.762116 z m -2.62801,-3.67212 c -0.47846,-0.291747 -0.62471,-0.79389 -0.37903,-1.301397 0.26965,-0.557017 0.96124,-0.76121 1.4635,-0.432112 0.595,0.389855 0.59692,1.371369 0.003,1.733265 -0.29611,0.180553 -0.79197,0.180662 -1.08786,2.41e-4 z m 1.13923,-0.961973 c 0.27249,-0.272486 -0.0451,-0.776669 -0.37719,-0.598916 -0.24358,0.130345 -0.31617,0.339952 -0.18638,0.538044 0.13002,0.198466 0.39715,0.227302 0.56358,0.06088 z m 4.44199,0.961729 c -0.78154,-0.476537 -0.49685,-1.737138 0.42613,-1.886918 0.6069,-0.09849 1.25271,0.547324 1.15422,1.15422 -0.11763,0.724899 -0.9558,1.113501 -1.58035,0.732698 z m 1.21874,-1.022601 c 0.1298,-0.198103 0.0572,-0.407688 -0.18637,-0.538044 -0.19738,-0.105623 -0.48822,0.08378 -0.48822,0.317925 0,0.379904 0.46952,0.533102 0.67459,0.220129 z"
                     id="path3131" />
            </g>
            <g
                 id="g18123"
                 transform="translate(0,-6.2200761e-5)">
                <path
                     id="path3143-4"
                     style="fill:#93ff5c;fill-opacity:1;stroke:none;stroke-width:0.0706536"
                     d="m 241.47677,59.040446 c -0.66855,9.27e-4 -1.02883,0.136497 -1.47306,0.554492 -0.49495,0.465743 -0.78571,1.452121 -0.59199,2.007826 0.0695,0.199377 0.0501,0.234439 -0.39663,0.695586 -0.96372,0.994781 -1.27296,2.044031 -0.92942,3.156279 0.27394,0.886905 0.91591,1.637967 1.95257,2.28409 0.3948,0.246087 0.51663,0.356663 0.48346,0.442014 -0.0244,0.06266 -0.0629,0.325791 -0.0848,0.584093 l -0.0395,0.469644 -0.51404,0.02551 c -0.58582,0.02951 -0.77996,0.148185 -0.8495,0.518976 -0.046,0.250678 -0.0433,0.331757 -0.0286,0.520947 0.0662,0.391772 0.40152,0.826713 0.77945,1.010325 0.17392,0.08451 0.31597,0.171015 0.31474,0.192385 -10e-4,0.02145 -0.14484,0.125359 -0.31869,0.230874 -0.17385,0.105509 -0.35474,0.276089 -0.40156,0.378867 -0.19439,0.426639 0.29559,0.470381 1.90324,0.169705 0.41883,-0.07835 0.83025,-0.157252 0.91363,-0.175601 0.27879,-0.06142 0.26426,0.17407 -0.0266,0.431161 l -0.26641,0.234805 0.18944,0.0029 c 0.10435,0.0017 0.277,-0.02986 0.38282,-0.07005 0.16519,-0.0628 0.21834,-0.04824 0.37887,0.105549 0.24682,0.236481 0.35619,0.226683 0.35619,-0.03241 0,-0.204107 0.0116,-0.212119 0.31771,-0.212119 0.17487,0 0.3177,-0.02986 0.3177,-0.0671 0,-0.03722 -0.15892,-0.124374 -0.3532,-0.19337 -0.24314,-0.08637 -0.35321,-0.164754 -0.35321,-0.250603 0,-0.113817 0.0957,-0.124305 1.09518,-0.124305 0.99949,0 1.09518,0.01055 1.09518,0.124305 0,0.08581 -0.1101,0.164237 -0.35321,0.250603 -0.19432,0.06903 -0.3532,0.156121 -0.3532,0.19337 0,0.03728 0.14283,0.0671 0.3177,0.0671 0.30617,0 0.31771,0.008 0.31771,0.212119 0,0.259236 0.10934,0.269063 0.35619,0.03241 0.16053,-0.15379 0.21467,-0.168353 0.37986,-0.105549 0.10584,0.04023 0.27751,0.07169 0.38183,0.07005 l 0.18944,-0.0029 -0.26641,-0.234805 c -0.29091,-0.257085 -0.30544,-0.492591 -0.0266,-0.431161 0.0834,0.0182 0.4948,0.09728 0.91364,0.175601 1.60763,0.300664 2.09762,0.25694 1.90324,-0.169705 -0.0469,-0.102784 -0.22771,-0.273358 -0.40157,-0.378867 -0.17386,-0.105515 -0.31647,-0.209464 -0.31771,-0.230874 -0.001,-0.02151 0.13985,-0.107915 0.31374,-0.192385 0.37704,-0.183172 0.71367,-0.618031 0.77945,-1.007363 0.051,-0.257925 0.0364,-0.346471 0.0365,-0.523915 -0.0696,-0.370791 -0.26269,-0.489402 -0.84851,-0.518975 l -0.51404,-0.02551 -0.0405,-0.469645 c -0.0219,-0.258325 -0.0595,-0.521433 -0.0838,-0.584099 -0.0332,-0.08534 0.0877,-0.19595 0.48247,-0.442013 1.03666,-0.646123 1.67863,-1.397185 1.95257,-2.284087 0.34352,-1.112251 0.0353,-2.161497 -0.92843,-3.156278 -0.44674,-0.461137 -0.46614,-0.496199 -0.39663,-0.695586 0.19373,-0.555709 -0.098,-1.542087 -0.59298,-2.007825 -0.44422,-0.41801 -0.80352,-0.553554 -1.47207,-0.554493 -0.53591,-7.54e-4 -0.64182,0.02184 -0.98369,0.211136 -0.37125,0.205384 -0.86818,0.735814 -0.96,1.025125 -0.0412,0.129689 -0.10763,0.140102 -0.84753,0.140102 -0.73992,0 -0.80637,-0.0102 -0.84754,-0.140102 -0.0918,-0.289307 -0.58777,-0.81973 -0.95901,-1.025125 -0.34189,-0.189145 -0.44778,-0.211901 -0.98369,-0.211136 z m -0.0255,1.021178 c 0.61323,-5e-4 1.0911,0.519266 1.02907,1.119843 -0.0787,0.762061 -0.89481,1.211998 -1.55199,0.855422 -0.96301,-0.522504 -0.5785,-1.97437 0.52292,-1.975265 z m 5.57258,0.0031 c 0.53118,0.0054 1.06064,0.37911 1.06064,1.055711 0,0.409305 -0.1954,0.730408 -0.55844,0.915606 -0.32437,0.165516 -0.58574,0.17917 -0.89291,0.0454 -0.45089,-0.196391 -0.74881,-0.768634 -0.6354,-1.220482 0.1322,-0.526739 0.54868,-0.780459 0.9748,-0.795237 0.0171,-5.8e-4 0.0342,-0.0012 0.0513,-10e-4 z m 0.3769,0.354224 c -0.15379,0.0062 -0.31167,0.104676 -0.34731,0.246672 -0.0589,0.23473 0.11083,0.421742 0.30391,0.440044 -0.0451,-0.01711 -0.0926,-0.05807 -0.15787,-0.123354 -0.17404,-0.174036 -0.17539,-0.22428 -0.0117,-0.426231 0.11505,-0.142068 0.28901,-0.159981 0.4134,-0.07894 -0.005,-0.0043 -0.0109,-0.0091 -0.0168,-0.01274 -0.0455,-0.0284 -0.0986,-0.04318 -0.15292,-0.0454 -0.0102,-4.13e-4 -0.0204,-4.13e-4 -0.0306,0 z m 0.20028,0.05822 c 0.1286,0.09965 0.15347,0.3488 0.0543,0.492335 0.0978,-0.08771 0.11709,-0.15969 0.0838,-0.292038 -0.023,-0.09139 -0.074,-0.158524 -0.13813,-0.200286 z m 0.0543,0.492335 c -0.009,0.0084 -0.0182,0.01602 -0.0288,0.02476 -0.0544,0.04398 -0.0983,0.07577 -0.13616,0.09572 0.047,-0.01602 0.093,-0.04271 0.1342,-0.08389 0.0113,-0.01092 0.0215,-0.0233 0.0306,-0.03652 z m -0.16475,0.120369 c -0.0441,0.01493 -0.0891,0.02002 -0.13319,0.01602 0.0427,0.01638 0.0832,0.01056 0.13319,-0.01602 z m -5.72847,-0.665985 c -0.1724,10e-4 -0.28308,0.110065 -0.30686,0.311771 -0.0288,0.245798 0.15438,0.399201 0.34928,0.37591 -0.0506,-0.01129 -0.10734,-0.05094 -0.18944,-0.117383 -0.21533,-0.174363 -0.14738,-0.484077 0.12135,-0.551533 0.0342,-0.0087 0.0643,-0.01274 0.0917,-0.01383 -0.0229,-0.0031 -0.0451,-0.0051 -0.0661,-0.0051 z m 0.0661,0.0051 c 0.0204,0.0028 0.0414,0.0062 0.0631,0.01201 0.0262,0.0066 0.0497,0.01529 0.072,0.02658 -0.0412,-0.02876 -0.0835,-0.0407 -0.13519,-0.03848 z m 0.13519,0.03848 c 0.0295,0.02076 0.0589,0.04952 0.0908,0.0888 0.0248,0.03058 0.0441,0.05643 0.0612,0.0809 -0.0262,-0.07092 -0.0784,-0.132384 -0.15193,-0.169703 z m 0.15193,0.169703 c 0.0406,0.109081 0.0215,0.240991 -0.073,0.34534 0.14782,-0.147785 0.16952,-0.207204 0.073,-0.34534 z m -0.31079,0.474574 c 0.0613,0.01383 0.11459,-0.0142 0.18944,-0.08287 -0.0596,0.04915 -0.12518,0.07518 -0.18944,0.08287 z m 5.97809,2.559363 c 0.053,0.0013 0.0908,0.07016 0.0908,0.212119 0,0.54424 -0.65549,1.177726 -1.54213,1.49181 -0.91998,0.325898 -2.27775,0.42298 -3.29737,0.234839 -1.09299,-0.201706 -1.94388,-0.65634 -2.26928,-1.211601 -0.18682,-0.318799 -0.20797,-0.698543 -0.0385,-0.698543 0.0522,0 0.13784,0.127724 0.19042,0.283155 0.14079,0.416192 0.63309,0.830569 1.25008,1.052752 0.71247,0.256575 1.14821,0.324624 2.06801,0.324624 0.91979,0 1.35653,-0.06801 2.069,-0.324624 0.61724,-0.222279 1.10866,-0.636629 1.24909,-1.052752 0.0688,-0.203892 0.16173,-0.313411 0.22989,-0.311772 z m -3.51542,5.013151 c 0.4256,0 0.96335,0.04887 1.2708,0.116431 l 0.53378,0.117423 -0.0474,0.253554 c -0.0262,0.139592 -0.16293,0.762505 -0.30391,1.384265 l -0.25654,1.130694 -0.31574,0.04731 c -0.38018,0.05751 -1.40869,0.05566 -1.79767,-0.0041 l -0.2802,-0.04342 -0.25654,-1.130694 c -0.14083,-0.621754 -0.27685,-1.244661 -0.30288,-1.384265 l -0.0474,-0.253554 0.53279,-0.117423 c 0.30744,-0.06754 0.8452,-0.116431 1.2708,-0.116431 z m -2.95105,0.964937 0.14406,0.382815 c 0.0789,0.210519 0.22691,0.570753 0.32856,0.800172 0.10165,0.229413 0.17382,0.427856 0.16082,0.441034 -0.0409,0.04087 -0.46444,-0.297754 -0.6206,-0.496284 -0.19756,-0.251154 -0.25097,-0.673566 -0.11742,-0.928436 z m 5.92776,0.101613 c 0.0244,-0.0023 0.0452,0.02765 0.072,0.07599 0.19169,0.345485 0.0968,0.752638 -0.25752,1.107022 -0.27223,0.272193 -0.53749,0.431167 -0.47458,0.284136 0.0225,-0.0531 0.17553,-0.424696 0.34039,-0.82582 0.19449,-0.473198 0.26626,-0.636039 0.31967,-0.641326 z"
                     sodipodi:nodetypes="ccscssscccccccscsccccccssssssscssssccccccsscccccccsssscssscscccccsccsscssccsscsccscccscccccccccccccccccccccccccccccsssssscssscsssccccccccccccsccscscccccsscccccccc" />
                <path
                     style="fill:#302f32;stroke:none;stroke-width:0.0706536"
                     d="m 243.52801,65.643789 c -1.00692,-0.110975 -1.86001,-0.417253 -2.39369,-0.85934 -0.4008,-0.332014 -0.71417,-1.095499 -0.42566,-1.037063 0.062,0.01274 0.15489,0.145673 0.20637,0.295752 0.12769,0.37232 0.39215,0.629295 0.90705,0.881348 0.76486,0.374417 1.23624,0.465342 2.41246,0.465342 1.17621,0 1.64759,-0.09095 2.41244,-0.465342 0.51491,-0.25206 0.77938,-0.509028 0.90705,-0.881348 0.0991,-0.288871 0.31917,-0.417897 0.31917,-0.187107 0,0.271066 -0.32313,0.76481 -0.67121,1.025613 -0.77822,0.583099 -2.34658,0.908433 -3.67398,0.762116 z m -2.62801,-3.67212 c -0.47846,-0.291747 -0.62471,-0.79389 -0.37903,-1.301397 0.26964,-0.557017 0.96124,-0.76121 1.4635,-0.432112 0.59499,0.389855 0.59691,1.371369 0.003,1.733265 -0.29611,0.180553 -0.79197,0.180662 -1.08786,2.41e-4 z m 1.13923,-0.961973 c 0.27249,-0.272486 -0.0451,-0.776669 -0.37719,-0.598916 -0.24358,0.130345 -0.31617,0.339952 -0.18638,0.538043 0.13002,0.198467 0.39715,0.227303 0.56358,0.06088 z m 4.44199,0.961729 c -0.78154,-0.476537 -0.49686,-1.737139 0.42613,-1.886918 0.6069,-0.09849 1.2527,0.547324 1.15422,1.15422 -0.11764,0.724899 -0.95581,1.113501 -1.58035,0.732698 z m 1.21874,-1.022602 c 0.1298,-0.198102 0.0572,-0.407687 -0.18638,-0.538043 -0.19737,-0.105623 -0.48822,0.08378 -0.48822,0.317925 0,0.379904 0.46953,0.533102 0.6746,0.220129 z"
                     id="path3131-5" />
            </g>
            <text
                 xml:space="preserve"
                 transform="matrix(0.15339238,0,0,0.15339238,108.15355,49.018354)"
                 id="text4390"
                 style="font-style:normal;font-variant:normal;font-weight:normal;font-stretch:normal;font-size:28px;line-height:1.25;font-family:Consolas;-inkscape-font-specification:'Consolas, Normal';font-variant-ligatures:none;font-variant-caps:normal;font-variant-numeric:normal;font-variant-east-asian:normal;white-space:pre;shape-inside:url(#rect4392)"><tspan
                     x="472.34766"
                     y="117.63281"
                     id="tspan18150">© 2020 koko-campus</tspan></text>
        </g>
    </g>
</svg>
