<?xml version="1.0" encoding="UTF-8" standalone="no"?>
<!-- Created with Inkscape (http://www.inkscape.org/) -->

<svg
     width="50"
     height="50"
     viewBox="0 0 50 50"
     version="1.1"
     id="svg5"
     inkscape:version="1.1 (c68e22c387, 2021-05-23)"
     sodipodi:docname="かえる.svg"
     xmlns:inkscape="http://www.inkscape.org/namespaces/inkscape"
     xmlns:sodipodi="http://sodipodi.sourceforge.net/DTD/sodipodi-0.dtd"
     xmlns="http://www.w3.org/2000/svg"
     xmlns:svg="http://www.w3.org/2000/svg">
    <sodipodi:namedview
         id="namedview7"
         pagecolor="#ffffff"
         bordercolor="#666666"
         borderopacity="1.0"
         inkscape:pageshadow="2"
         inkscape:pageopacity="0.0"
         inkscape:pagecheckerboard="0"
         inkscape:document-units="px"
         showgrid="false"
         units="px"
         width="30px"
         inkscape:zoom="8"
         inkscape:cx="4.5"
         inkscape:cy="28.8125"
         inkscape:window-width="1920"
         inkscape:window-height="1027"
         inkscape:window-x="-8"
         inkscape:window-y="-8"
         inkscape:window-maximized="1"
         inkscape:current-layer="g8584" />
    <defs
         id="defs2" />
    <g
         inkscape:label="レイヤー 1"
         inkscape:groupmode="layer"
         id="layer1">
        <g
             id="g8586"
             transform="translate(-21.75,-20.5)">
            <g
                 id="g8584">
                <path
                     id="path3143"
                     style="fill:#93ff5c;fill-opacity:1;stroke:none;stroke-width:0.146894"
                     d="m 38.946397,31.73336 c -1.389985,0.002 -2.139045,0.283792 -3.062623,1.152837 -1.029036,0.968319 -1.633553,3.019082 -1.230797,4.17444 0.144527,0.414522 0.104181,0.487418 -0.82463,1.446177 -2.003656,2.068236 -2.646585,4.249714 -1.932344,6.562174 0.569541,1.84395 1.904257,3.405469 4.059562,4.748809 0.820828,0.51164 1.074103,0.741533 1.005153,0.918993 -0.05073,0.130284 -0.130797,0.677343 -0.176454,1.214379 l -0.08205,0.976424 -1.06874,0.05299 c -1.217969,0.06132 -1.621592,0.308088 -1.766186,1.078993 -0.09552,0.521179 -0.0901,0.689758 -0.05951,1.083099 0.137622,0.814529 0.834793,1.718807 1.620542,2.10055 0.361609,0.175686 0.656928,0.355551 0.654369,0.399986 -0.0026,0.04465 -0.301119,0.260624 -0.662576,0.48 -0.361447,0.219367 -0.737536,0.574014 -0.834885,0.787702 -0.404144,0.887017 0.614573,0.977961 3.956999,0.352826 0.870786,-0.162901 1.726162,-0.326938 1.899518,-0.365091 0.579619,-0.127708 0.549415,0.361912 -0.05526,0.896428 l -0.553883,0.488175 0.393854,0.0065 c 0.216954,0.0033 0.575911,-0.06206 0.795918,-0.145649 0.34344,-0.130579 0.453959,-0.100305 0.787703,0.21946 0.513152,0.491656 0.74055,0.471294 0.74055,-0.06735 0,-0.424363 0.02414,-0.441015 0.660536,-0.441015 0.363577,0 0.660537,-0.06206 0.660537,-0.139511 0,-0.07745 -0.330417,-0.258579 -0.734341,-0.402029 -0.50551,-0.179543 -0.734344,-0.342534 -0.734344,-0.521026 0,-0.236635 0.198923,-0.258425 2.27697,-0.258425 2.078024,0 2.276967,0.02201 2.276967,0.258425 0,0.178422 -0.228904,0.341473 -0.734344,0.521026 -0.403924,0.143523 -0.734345,0.324594 -0.734345,0.402029 0,0.07745 0.296964,0.139511 0.660539,0.139511 0.636541,0 0.660538,0.01652 0.660538,0.441015 0,0.538966 0.227315,0.559404 0.74055,0.06735 0.333752,-0.319745 0.446313,-0.350026 0.789763,-0.21946 0.22004,0.08364 0.576967,0.149052 0.793857,0.145649 l 0.393855,-0.0065 -0.553883,-0.488175 c -0.604824,-0.5345 -0.635027,-1.024138 -0.05526,-0.896428 0.173346,0.03787 1.02874,0.202253 1.899528,0.365091 3.342414,0.625111 4.361141,0.534201 3.956991,-0.352826 -0.09734,-0.213684 -0.473414,-0.568337 -0.834887,-0.787702 -0.361455,-0.21937 -0.657963,-0.43549 -0.660536,-0.48 -0.0026,-0.04466 0.290667,-0.224382 0.652286,-0.399986 0.783888,-0.380836 1.483789,-1.284939 1.620543,-2.094395 0.10605,-0.536243 0.0757,-0.720339 0.07591,-1.08926 -0.144586,-0.770915 -0.546157,-1.017506 -1.764134,-1.078995 l -1.068737,-0.053 -0.0841,-0.976434 c -0.04542,-0.537077 -0.123773,-1.084104 -0.17431,-1.214389 -0.06889,-0.177437 0.182277,-0.407402 1.003091,-0.918985 2.155309,-1.343344 3.490027,-2.904867 4.059568,-4.748809 0.714283,-2.312467 0.07343,-4.493936 -1.930296,-6.562171 -0.928803,-0.95874 -0.969145,-1.031637 -0.82463,-1.446177 0.402787,-1.155367 -0.203782,-3.206132 -1.232841,-4.174443 -0.923588,-0.869074 -1.670598,-1.150881 -3.060573,-1.152835 -1.1142,-0.0016 -1.334374,0.04542 -2.045171,0.43897 -0.771855,0.427012 -1.805016,1.529818 -1.995926,2.131322 -0.08559,0.26964 -0.223768,0.291278 -1.762091,0.291278 -1.53835,0 -1.676491,-0.02109 -1.762082,-0.291278 -0.190913,-0.601494 -1.222026,-1.704288 -1.993885,-2.131322 -0.710803,-0.393251 -0.930961,-0.440559 -2.045162,-0.43897 z m -0.05299,2.123113 c 1.274946,-10e-4 2.268488,1.079603 2.139529,2.32825 -0.163648,1.58439 -1.860392,2.519844 -3.226728,1.778493 -2.002174,-1.086327 -1.202745,-4.104878 1.087199,-4.106743 z m 11.585855,0.0065 c 1.104378,0.01121 2.205173,0.788204 2.205173,2.194916 0,0.850976 -0.406271,1.518576 -1.161053,1.903624 -0.674463,0.344118 -1.217808,0.372506 -1.856439,0.0944 -0.937441,-0.408312 -1.556836,-1.598041 -1.321054,-2.537474 0.274866,-1.095132 1.140758,-1.622641 2.026708,-1.653366 0.03557,-0.0013 0.07115,-0.0024 0.106659,-0.0022 z m 0.783607,0.736464 c -0.319745,0.01279 -0.647971,0.217625 -0.722078,0.512854 -0.122495,0.488022 0.230431,0.876832 0.631847,0.914887 -0.0937,-0.03557 -0.192506,-0.120744 -0.328224,-0.256468 -0.361837,-0.361835 -0.364636,-0.466301 -0.02414,-0.886171 0.239204,-0.295374 0.60089,-0.332617 0.8595,-0.16412 -0.01121,-0.0092 -0.02262,-0.01888 -0.0348,-0.0266 -0.09446,-0.05903 -0.205064,-0.08978 -0.31793,-0.0944 -0.02109,-8.65e-4 -0.04239,-8.71e-4 -0.0636,0 z m 0.416414,0.121059 c 0.26735,0.207173 0.319065,0.725182 0.112797,1.023606 0.203262,-0.182355 0.243449,-0.332011 0.17431,-0.607171 -0.04767,-0.190008 -0.153911,-0.329587 -0.287184,-0.416412 z m 0.112797,1.023606 c -0.01888,0.01751 -0.03783,0.0333 -0.0598,0.05146 -0.113013,0.09143 -0.204454,0.15751 -0.283119,0.199015 0.09773,-0.0333 0.193332,-0.08878 0.278933,-0.174408 0.02353,-0.02262 0.04465,-0.04843 0.0636,-0.07591 z m -0.34261,0.250266 c -0.09165,0.03102 -0.185228,0.04162 -0.276915,0.0333 0.08888,0.03407 0.173031,0.02201 0.276915,-0.0333 z m -11.909968,-1.384639 c -0.358505,0.0022 -0.588552,0.228841 -0.637981,0.6482 -0.06055,0.511036 0.320958,0.829971 0.726168,0.781547 -0.105124,-0.02353 -0.223158,-0.105892 -0.393854,-0.244061 -0.447676,-0.362517 -0.306426,-1.006439 0.252312,-1.146683 0.07115,-0.0181 0.133766,-0.0266 0.190755,-0.02872 -0.0477,-0.0065 -0.09379,-0.01062 -0.137465,-0.01062 z m 0.137465,0.01062 c 0.04239,0.0059 0.08606,0.01279 0.131268,0.02506 0.05449,0.01377 0.103473,0.03179 0.14972,0.05526 -0.08555,-0.0598 -0.17364,-0.08463 -0.281071,-0.08 z m 0.281071,0.08 c 0.06132,0.04316 0.122554,0.102961 0.188709,0.184618 0.05146,0.0636 0.09159,0.117321 0.127157,0.168211 -0.05526,-0.147458 -0.162978,-0.275234 -0.315888,-0.352825 z m 0.315888,0.352825 c 0.08441,0.226796 0.04465,0.501043 -0.151766,0.717993 0.307333,-0.307256 0.352448,-0.430796 0.151766,-0.717993 z m -0.646156,0.986681 c 0.127413,0.02872 0.238225,-0.02964 0.393854,-0.172284 -0.12393,0.102194 -0.260258,0.156311 -0.393854,0.172284 z m 12.428953,5.321128 c 0.110201,0.0026 0.18871,0.145864 0.18871,0.441015 0,1.13152 -1.362825,2.448593 -3.206222,3.1016 -1.912708,0.677568 -4.735639,0.87941 -6.855508,0.488248 -2.272428,-0.419364 -4.0415,-1.364585 -4.718039,-2.519021 -0.388405,-0.662809 -0.432387,-1.452326 -0.08,-1.452326 0.108469,0 0.286603,0.265547 0.3959,0.588699 0.292715,0.865301 1.316231,1.726824 2.599017,2.188759 1.481283,0.533444 2.38725,0.674924 4.29957,0.674924 1.912326,0 2.820342,-0.141399 4.301619,-0.674924 1.283316,-0.462134 2.305016,-1.323601 2.596974,-2.188759 0.143051,-0.423908 0.33625,-0.651607 0.477956,-0.648199 z m -7.308863,10.422762 c 0.884855,0 2.002887,0.101584 2.642103,0.242074 l 1.109763,0.244123 -0.09849,0.527158 c -0.05449,0.290211 -0.338747,1.58532 -0.631851,2.878004 l -0.533363,2.350813 -0.65645,0.09842 c -0.790435,0.119583 -2.92878,0.115728 -3.737506,-0.0083 l -0.582569,-0.09021 -0.533367,-2.350817 c -0.292806,-1.292674 -0.575604,-2.587748 -0.629729,-2.878002 l -0.09848,-0.527158 1.107714,-0.244125 c 0.639195,-0.140435 1.757248,-0.242074 2.642102,-0.242074 z m -6.135501,2.006185 0.299531,0.795914 c 0.16412,0.437686 0.471748,1.186646 0.683097,1.663624 0.211362,0.476971 0.361381,0.889547 0.334354,0.916943 -0.08502,0.08502 -0.965589,-0.619058 -1.290272,-1.031823 -0.410736,-0.522162 -0.521786,-1.400391 -0.244122,-1.93029 z m 12.324342,0.211271 c 0.05073,-0.0051 0.09395,0.05752 0.14972,0.157963 0.39855,0.718293 0.201368,1.5648 -0.535409,2.301587 -0.56599,0.565917 -1.117486,0.896433 -0.986686,0.590745 0.04694,-0.110358 0.36486,-0.882978 0.707696,-1.716952 0.404377,-0.983815 0.553576,-1.322378 0.664626,-1.333361 z" />
                <path
                     style="fill:#302f32;stroke:none;stroke-width:0.146894"
                     d="m 43.211083,45.462268 c -2.093456,-0.230738 -3.8671,-0.867505 -4.976677,-1.786641 -0.833287,-0.690287 -1.484818,-2.277637 -0.884974,-2.156142 0.129006,0.0266 0.322019,0.302862 0.429054,0.614892 0.265486,0.774084 0.815312,1.308358 1.885833,1.832397 1.590206,0.778445 2.570248,0.967485 5.015691,0.967485 2.445451,0 3.425493,-0.189083 5.015699,-0.967485 1.070523,-0.524054 1.620377,-1.058313 1.885835,-1.832397 0.205981,-0.600586 0.663565,-0.868844 0.663565,-0.389011 0,0.563569 -0.671817,1.590104 -1.395503,2.132337 -1.617992,1.212314 -4.878738,1.888709 -7.638523,1.584504 z m -5.463853,-7.634648 c -0.99475,-0.606563 -1.298829,-1.650565 -0.788035,-2.705714 0.560618,-1.158085 1.998494,-1.582621 3.042753,-0.898395 1.237043,0.810542 1.241032,2.851191 0.0071,3.603601 -0.61565,0.375387 -1.646585,0.375613 -2.261759,5.08e-4 z m 2.368567,-2.000022 c 0.566522,-0.566522 -0.0937,-1.614763 -0.784213,-1.245199 -0.506417,0.270988 -0.657359,0.70679 -0.387498,1.118638 0.270315,0.412629 0.825696,0.47258 1.171727,0.126547 z m 9.235274,1.999514 c -1.624895,-0.99076 -1.033007,-3.611656 0.88596,-3.923061 1.26178,-0.20476 2.604477,1.137931 2.399713,2.399723 -0.24458,1.507125 -1.987198,2.31506 -3.285673,1.523338 z m 2.53386,-2.126075 c 0.269854,-0.41187 0.118914,-0.847617 -0.387495,-1.118638 -0.410357,-0.219582 -1.015053,0.174172 -1.015053,0.660995 0,0.78985 0.976182,1.108365 1.402555,0.457668 z"
                     id="path3131" />
            </g>
        </g>
    </g>
</svg>
