<?xml version="1.0" encoding="UTF-8" standalone="no"?>
<svg
     id="svg40"
     version="1.1"
     style="overflow:visible"
     viewBox="-240 -126 600 200"
     height="200"
     width="600"
     sodipodi:docname="へび.svg"
     inkscape:version="1.1 (c68e22c387, 2021-05-23)"
     inkscape:export-filename="C:\Program Files\XAMPP\htdocs\koko-campus.org\pics\へび.png"
     inkscape:export-xdpi="96"
     inkscape:export-ydpi="96"
     xmlns:inkscape="http://www.inkscape.org/namespaces/inkscape"
     xmlns:sodipodi="http://sodipodi.sourceforge.net/DTD/sodipodi-0.dtd"
     xmlns="http://www.w3.org/2000/svg"
     xmlns:svg="http://www.w3.org/2000/svg"
     xmlns:rdf="http://www.w3.org/1999/02/22-rdf-syntax-ns#"
     xmlns:cc="http://creativecommons.org/ns#"
     xmlns:dc="http://purl.org/dc/elements/1.1/">
    <sodipodi:namedview
         id="namedview24"
         pagecolor="#ffffff"
         bordercolor="#666666"
         borderopacity="1.0"
         inkscape:pageshadow="2"
         inkscape:pageopacity="0.0"
         inkscape:pagecheckerboard="0"
         showgrid="false"
         inkscape:zoom="0.6364583333"
         inkscape:cx="58.13420622"
         inkscape:cy="184.6153846"
         inkscape:window-width="1920"
         inkscape:window-height="1027"
         inkscape:window-x="-8"
         inkscape:window-y="-8"
         inkscape:window-maximized="1"
         inkscape:current-layer="g36" />
    <metadata
         id="metadata46">
        <rdf:RDF>
            <cc:Work
                 rdf:about="">
                <dc:format>image/svg+xml</dc:format>
                <dc:type
                     rdf:resource="http://purl.org/dc/dcmitype/StillImage" />
            </cc:Work>
        </rdf:RDF>
    </metadata>
    <defs
         id="defs44">
        <rect
             x="21.996727"
             y="42.422259"
             width="417.93781"
             height="102.12766"
             id="rect12399" />
    </defs>
    <rect
         id="rect2"
         fill-opacity="0"
         fill="#000000"
         height="252"
         width="480"
         y="-126"
         x="-240" />
    <svg
         id="svg38"
         version="1.1"
         y="-241"
         x="-250"
         viewBox="-250 -250 500 500"
         height="500"
         width="500"
         style="overflow:visible">
        <g
             style="fill:#ffffff;stroke-linejoin:round"
             id="g36">
            <path
                 style="fill:#f9ffd5;fill-opacity:1;stroke:none;stroke-width:0.504509;stroke-linecap:butt;stroke-linejoin:round"
                 id="path4"
                 d="m 346.96335,20.047603 -22.99908,15.150342 -40.08526,3.924557 -0.77285,3.122188 c 0,-4e-6 31.44446,7.890272 51.74324,-4.703154 8.08072,-5.013204 15.34117,-14.997015 12.6008,-17.253301 -0.14814,-0.121991 -0.3108,-0.200587 -0.48729,-0.240599 z" />
            <path
                 style="fill:#36da5a;fill-opacity:1;stroke:none;stroke-width:0.509752;stroke-linecap:butt;stroke-linejoin:round"
                 id="path6"
                 d="m 288.92202,19.181499 -5.04272,20.805938 c 8.99405,1.719243 33.33462,4.989531 50.26082,-5.767617 5.5911,-3.553252 10.79974,-9.448433 12.82313,-13.705425 -2.59611,-0.601079 -8.28892,7.402933 -17.96174,10.944403 -20.16468,7.382743 -40.07958,-12.277331 -40.07958,-12.277331 z m 58.04228,1.332924 c 0.088,0.02038 0.17256,0.05081 0.25359,0.09147 -0.081,-0.04083 -0.16546,-0.07102 -0.25359,-0.09147 z m 0.25359,0.09147 c 0.0813,0.04074 0.15891,0.09192 0.23299,0.154179 -0.0739,-0.06217 -0.15199,-0.113352 -0.23299,-0.154179 z" />
            <path
                 style="fill:none;stroke:#000007;stroke-width:1.00044;stroke-linecap:butt;stroke-linejoin:round;stroke-miterlimit:4;stroke-dasharray:none;stroke-opacity:1"
                 id="path8"
                 d="m 288.92137,19.140347 c 0,0 19.91497,18.931819 40.07957,11.82247 10.33042,-3.642175 16.12183,-12.18649 18.44904,-10.302801 2.74037,2.218097 -4.52018,12.033297 -12.60089,16.961624 -20.29912,12.380204 -51.74293,4.62305 -51.74293,4.62305 z" />
            <path
                 style="fill:#f9ffd5;fill-opacity:1;stroke:none;stroke-width:0.500222;stroke-linecap:butt;stroke-linejoin:round"
                 id="path10"
                 d="m 328.75673,20.746804 -95.50952,12.595059 c 4.29179,9.450089 22.77221,17.546808 45.4611,17.037638 33.77267,-0.757951 49.93624,-15.80121 50.04842,-29.632697 z"
                 sodipodi:nodetypes="cccc" />
            <path
                 style="fill:#36da5a;fill-opacity:1;stroke:none;stroke-width:0.500222;stroke-linecap:butt;stroke-linejoin:round"
                 id="path12"
                 d="m 318.11349,3.4519016 -77.44328,13.2589594 c -5.77593,6.200264 -9.87871,11.223694 -7.423,16.631002 8.35264,5.06409 24.79165,9.427846 42.07556,9.077883 30.26982,-0.612996 47.77754,-10.56985 53.43336,-21.672787 0.0537,-6.603204 -3.54583,-12.9306974 -10.64308,-17.2950174 z"
                 sodipodi:nodetypes="ccccccc" />
            <path
                 style="fill:none;stroke:#000000;stroke-width:1.00044;stroke-linecap:butt;stroke-linejoin:round;stroke-miterlimit:4;stroke-dasharray:none;stroke-opacity:1"
                 id="path14"
                 d="m 318.11318,3.4519016 c 21.96359,13.5060904 10.49095,45.8019374 -39.40487,46.9275664 -35.81249,0.807925 -60.12926,-16.305254 -38.03749,-33.668986"
                 sodipodi:nodetypes="csc" />
            <path
                 style="fill:#f9ffd7;fill-opacity:1;stroke:none;stroke-width:0.500222;stroke-linecap:butt;stroke-linejoin:round"
                 id="path16"
                 d="m 318.0533,-0.25320441 -79.19107,12.52587641 c 1.98885,9.180707 14.01363,17.225142 34.77418,16.986079 25.12801,-0.289371 42.00573,-9.742732 44.26719,-24.0459734 0.31675,-2.003391 0.33717,-3.817113 0.14986,-5.46598201 z" />
            <path
                 style="fill:#38d45a;fill-opacity:1;stroke:none;stroke-width:0.500222;stroke-linecap:butt;stroke-linejoin:round"
                 id="path18"
                 d="m 307.34891,-14.176461 -63.22919,12.1750526 c -4.60471,4.391699 -6.29493,9.487349 -5.25794,14.2739864 5.85966,5.569258 17.19382,10.579964 32.81997,10.411267 25.42765,-0.27454 42.58183,-9.850852 46.37139,-22.93717141 -1.16847,-10.28749959 -10.70416,-13.92313459 -10.70416,-13.92313459 z" />
            <path
                 style="fill:none;stroke:#000000;stroke-width:1.00044;stroke-linecap:butt;stroke-linejoin:round;stroke-miterlimit:4;stroke-dasharray:none;stroke-opacity:1"
                 id="path20"
                 d="m 307.34923,-14.176461 c 0,0 12.84749,4.8856916 10.55434,19.3887906 -2.26155,14.3032824 -19.13931,23.7546054 -44.2672,24.0459164 -31.59485,0.366297 -44.07635,-18.663066 -27.62319,-32.2322784"
                 sodipodi:nodetypes="cssc" />
            <path
                 style="fill:#ff3842;fill-opacity:1;stroke:none;stroke-width:0.500222;stroke-linecap:butt;stroke-linejoin:round"
                 id="path22"
                 d="m 272.10848,-36.638321 c 4.09971,-3.888335 5.39826,-6.092113 5.99754,-12.276185 l 2.3912,-2.369683 7.92661,4.543675 2.79999,12.890129 -11.0374,5.332501 -6.37167,0.388299 -3.70339,-1.716708 0.0493,-3.292318 z"
                 sodipodi:nodetypes="cccccccccc" />
            <path
                 style="fill:#ff99bc;fill-opacity:1;stroke:none;stroke-width:0.500222;stroke-linecap:butt;stroke-linejoin:round"
                 id="path24"
                 d="m 285.24369,-45.592805 c 3.26049,3.765323 3.39964,7.806087 1.75093,12.004573 l 3.32797,0.365483 11.64317,-8.112819 -14.43009,-5.759506 z" />
            <path
                 style="fill:#35da5a;fill-opacity:1;stroke:none;stroke-width:0.490615;stroke-linecap:butt;stroke-linejoin:round"
                 id="path26"
                 d="m 269.50287,-60.549281 c -4.70303,-0.0245 -3.7458,3.778495 -1.6443,8.459884 2.05526,4.578276 29.74145,11.487445 29.74145,11.487445 0,0 -14.25228,12.196361 -21.57656,11.136503 -5.36518,-0.776356 -5.23561,-5.551913 -5.23561,-5.551913 -5.41779,8.417711 7.49362,17.376843 26.79374,1.068332 4.6735,-1.3313 1.67312,7.624327 -2.69642,14.802535 l -0.0367,-0.426885 0.008,-0.0028 c 0,0 -0.008,-0.0028 -0.008,-0.0028 h -6.6e-4 c -0.0534,-0.0163 -12.53743,-3.897423 -29.91848,-1.412874 -29.11583,4.16206 -23.85977,33.566269 10.23955,30.6847256 13.4542,-1.136989 23.43008,-6.69994 31.05918,-21.2196226 5.21042,-9.91672 6.48802,-20.790133 2.65359,-34.220622 -3.62907,-12.711048 -30.89236,-15.467938 -35.34962,-15.489318 z"
                 sodipodi:nodetypes="cscscccccscsccccc" />
            <path
                 style="fill:#000000;fill-opacity:1;stroke:none;stroke-width:0.500222;stroke-linecap:butt;stroke-linejoin:round"
                 id="path28"
                 d="m 282.56222,-52.855808 c -0.0929,1.219661 -1.15268,2.133492 -2.36741,2.041125 -1.21473,-0.09249 -2.12428,-1.155978 -2.03155,-2.375638 0.0929,-1.2197 1.15272,-2.133531 2.36745,-2.041164 1.21473,0.09249 2.12428,1.156017 2.03151,2.375677 z" />
            <path
                 style="fill:none;stroke:#000001;stroke-width:1.00044;stroke-linecap:butt;stroke-linejoin:round;stroke-miterlimit:4;stroke-dasharray:none;stroke-opacity:1"
                 id="path30"
                 d="m 270.78785,-35.017362 c 4.09976,-3.888334 6.22771,-5.55171 6.82694,-11.735782"
                 sodipodi:nodetypes="cc" />
            <path
                 style="fill:#f9ffd5;fill-opacity:1;stroke:none;stroke-width:0.500222;stroke-linecap:butt;stroke-linejoin:round"
                 id="path32"
                 d="m 258.7123,-8.5776504 c 0,0 19.37623,4.123108 29.34038,-3.1936736 -9.31642,-1.967087 -18.84105,-2.573128 -29.34038,3.1936736 z" />
            <path
                 style="fill:none;stroke:#000000;stroke-width:0.98615;stroke-linecap:round;stroke-linejoin:round;stroke-miterlimit:4;stroke-dasharray:none;stroke-opacity:1"
                 id="path34"
                 d="m 260.18657,-8.5776504 c 0,0 18.82643,4.123108 28.50789,-3.1936736 6.33405,-4.787048 15.53337,-24.089215 8.75528,-22.177542 -19.49407,16.30847 -32.13403,7.349215 -26.66189,-1.068496 0,0 -0.53173,4.775924 4.88736,5.552279 7.39791,1.059859 21.79336,-11.137112 21.79336,-11.137112 0,0 -27.95058,-7.006795 -30.02645,-11.585071 -2.12265,-4.681396 -1.20431,-8.875395 3.54599,-8.852865 4.50208,0.0204 34.69355,2.82726 38.35905,15.538184 3.87298,13.430651 2.09788,24.05935 -3.16495,33.976315 -7.70561,14.5196826 -17.80389,19.8228466 -31.37038,21.2190106 -33.92841,3.4915904 -39.15314,-24.9986386 -10.34251,-30.6850106 17.44114,-3.442381 30.22867,1.416052 30.22867,1.416052"
                 sodipodi:nodetypes="ccccscssccssc" />
            <path
                 id="path16553"
                 style="fill:#00ff4c;fill-opacity:1;stroke-width:8"
                 d="m 185.0081898,-31.30114598 c 0,37.313119 -87.57926092,67.5613785 -195.61375421,67.5613785 -108.03449329,0 -195.61375419,-30.2482595 -195.61375419,-67.5613785 0,-37.31311893 87.579261,-67.5613784 195.61375419,-67.5613784 81.04613635,0 150.58044811,17.02315828 180.26373101,41.28163788 1.0435058,0.85279869 21.8267569,-6.5284783 33.0298446,-6.26421685 14.7570254,0.34809269 42.0238132,9.14387337 43.0704049,10.29363579 0.9780133,1.07442367 -27.1526259,-3.09325713 -40.4950607,-1.01950012 -8.6689137,1.34737181 -25.3789725,7.81948377 -24.868408,8.61693523 3.0206266,4.71792117 4.6132424,9.62116707 4.6132424,14.65288647 z"
                 sodipodi:nodetypes="sssssasass" />
            <text
                 xml:space="preserve"
                 transform="translate(-159.0834689,-114.5744652)"
                 id="text12397"
                 style="font-size:64px;line-height:1.25;font-family:Consolas;-inkscape-font-specification:'Consolas, Normal';font-variant-ligatures:none;white-space:pre;shape-inside:url(#rect12399);fill:#000000;fill-opacity:1"><tspan
                     x="21.99609375"
                     y="105.421875"
                     id="tspan19951">会員登録</tspan></text>
        </g>
    </svg>
</svg>
