<?xml version="1.0" encoding="UTF-8" standalone="no"?>
<!-- Created with Inkscape (http://www.inkscape.org/) -->

<svg
     width="100"
     height="100"
     viewBox="0 0 100 100"
     version="1.1"
     id="svg5"
     sodipodi:docname="made.svg"
     inkscape:version="1.1 (c68e22c387, 2021-05-23)"
     inkscape:export-filename="C:\Program Files\XAMPP\htdocs\koko-campus.org\program\pics\framework\made.png"
     inkscape:export-xdpi="96"
     inkscape:export-ydpi="96"
     xmlns:inkscape="http://www.inkscape.org/namespaces/inkscape"
     xmlns:sodipodi="http://sodipodi.sourceforge.net/DTD/sodipodi-0.dtd"
     xmlns="http://www.w3.org/2000/svg"
     xmlns:svg="http://www.w3.org/2000/svg">
    <sodipodi:namedview
         id="namedview7"
         pagecolor="#ffffff"
         bordercolor="#666666"
         borderopacity="1.0"
         inkscape:pageshadow="2"
         inkscape:pageopacity="0.0"
         inkscape:pagecheckerboard="0"
         inkscape:document-units="px"
         showgrid="false"
         units="px"
         width="600px"
         inkscape:zoom="2.12159810558638"
         inkscape:cx="-73.0581346164806"
         inkscape:cy="6.36312785369347"
         inkscape:window-width="1920"
         inkscape:window-height="1009"
         inkscape:window-x="-8"
         inkscape:window-y="-8"
         inkscape:window-maximized="1"
         inkscape:current-layer="layer1" />
    <defs
         id="defs2" />
    <g
         inkscape:label="レイヤー 1"
         inkscape:groupmode="layer"
         id="layer1">
        <g
             id="g865"
             transform="matrix(0.375918166233578,0,0,0.375918166233579,117.287040238471,39.0048810217105)">
            <path
                 style="fill:#d4d4d4;stroke-width:0.96"
                 d="m -299.854325924052,153.739963684082 c 0.270491286821,-0.924 2.019708560972,-6.864 3.887149498113,-13.2 7.230668858362,-24.532780113903 8.24393941645,-28.166902715049 10.706735490517,-38.4 4.152373550785,-17.253414911641 8.869008347984,-36.9503004305136 10.67733844821,-44.5890602311545 l 1.692403104917,-7.1490602311546 70.616638196069,-70.3709397688456 c 38.839151007838,-38.7040168728648 70.981457413432,-70.3709397688453 71.427347567987,-70.3709397688453 0.792714423634,-10e-14 77.444517573317,76.1247044735645 77.444517573317,76.9119677700739 0,0.9327437782868 -141.276686493967,141.5472737096851 -142.801093194601,142.1317918162401 -0.923398742969,0.354067772472 -7.510906805399,2.007923184191 -14.638906805399,3.675234248263 -27.305871671176,6.387118680066 -48.913010469439,11.802826571313 -60,15.038662754412 -6.336,1.849217770036 -13.68,3.942192085498 -16.32,4.651054034362 -2.64,0.708861948863 -6.016123053627,1.75289103769 -7.502495674728,2.320064641837 -4.019702879225,1.533847796471 -5.764713002759,1.315697660823 -5.189634204402,-0.648775265188 z m 49.17212987913,-20.314180041889 c 4.022088334707,-0.828049526699 22.448231622175,-4.918028498072 33.12,-7.351516886553 8.348018639449,-1.90360263704 14.805594560676,-3.541690702032 15.211697668836,-3.858739053715 0.18243371786,-0.142427645533 -14.227630233117,-14.787631453563 -32.022364335503,-32.5448973511764 -17.794734102386,-17.7572658976138 -32.450678778455,-32.1520019466375 -32.56876594682,-31.9883023311639 -0.118087168364,0.1636996154736 -0.751205754294,2.8896356644973 -1.406930190954,6.0576356644973 -0.655724436661,3.168 -1.784868031586,8.352 -2.509207988724,11.52 -6.077008348007,26.578628248775 -8.144429206835,35.928746925087 -8.144429206835,36.83399986488 0,0.579510832474 2.174840760418,2.155731275713 4.832979467596,3.502712096087 5.906181498745,2.992888662646 11.634781804791,8.739235975818 14.393597163986,14.43818803397 2.184572405955,4.51272440818 2.703875371821,4.706371478436 9.093423368418,3.390919963174 z m 182.0337657256589,-150.9014684008257 -3.9157729180119,-4.2243515572853 -65.28230845536,65.2606663103261 -65.28230845536,65.2606663103249 4.042628391086,4.119138229246 4.042628391087,4.119138229245 65.155452982285,-65.1554529822861 65.1554529822857,-65.1554529822854 z m -74.5844975032709,55.2565693792593 64.8200022221304,-64.8390790634544 -8.2464493292477,-8.2464493292478 -8.2464493292477,-8.2464493292476 -64.889527530747,64.6855283927021 c -35.68924014191,35.5770406159873 -65.100189450873,64.8067940498093 -65.357665131026,64.9550076307181 -0.595314560995,0.3426875221728 15.468874607824,16.530520761985 16.404259214045,16.530520761985 0.382705214079,0 29.864828661922,-29.1775855785543 65.515829884093,-64.8390790634554 z m -22.73191539015,-21.7982542333017 c 35.50945594227,-35.5065333132171 64.562647167762,-64.9149061236486 64.562647167762,-65.3519395787371 0,-0.8847745014193 -14.83638590861,-16.0107271245059 -15.704222551515,-16.0107271245058 -0.302121018727,0 -29.832265906842,29.1370195166782 -65.622544195812,64.748932259284785 l -65.073233252673,64.748932259284813 8.138805338166,8.2110677407152 c 4.476342935992,4.5160872573936 8.363151710499,8.2110677407152 8.637352832238,8.2110677407152 0.27420112174,0 29.551738719565,-29.0507999835408 65.061194661834,-64.5573332967571 z m -22.414305472885,-22.72440597660676 64.797356483055,-64.72173927336474 -1.936963078152,-2.7202138053839 c -2.991937508054,-4.2017887723571 -5.406129958621,-5.1445060958411 -7.766718430164,-3.0328236711276 -5.280592102214,4.7237939474643 -127.476722334092,127.1723736042414 -127.476722334092,127.7400811260635 0,0.7479176297625 6.940689130381,8.0184294426086 7.330467656773,7.6788126785529 0.140372770739,-0.1223077797571 29.414033636901,-29.3471604543897 65.05257970258,-64.94411705474016 z"
                 id="path879" />
            <path
                 style="fill:#b1b1b1;stroke-width:0.96"
                 d="m -299.410346957474,154.85181277153 c -0.324097768333,-0.324097768333 -0.203907769327,-1.602844648707 0.26708888668,-2.841659734166 1.830420945008,-4.814371929173 12.527451544112,-42.966683645969 15.347821791376,-54.7399463555306 1.635129915692,-6.8256336487632 4.420826747852,-18.4582429977514 6.190437404801,-25.8502429977514 1.769610656949,-7.392 3.515609332016,-14.952 3.879997055703,-16.8 0.559711787427,-2.8385900949062 11.634061695786,-14.3468515716259 71.363845083396,-74.16 38.885727072181,-38.94 70.927527886893,-70.7999999999999 71.204001810472,-70.7999999999999 0.276473923581,0 17.887179445105,17.384899558876 39.1349011589458,38.6331101308354 l 38.6322212978908,38.6331101308352 -70.8060817883556,70.7414189126496 -70.806081788357,70.7414189126497 -29.28,6.911051680149 c -26.655518820692,6.291587026332 -54.776133152901,13.84855509256 -72.691775403013,19.534759052857 -1.015908761914,0.322436915442 -2.112277741206,0.321078035805 -2.436375509539,-0.0030197325 z m 49.208150912552,-21.372544961712 c 6.918034074418,-1.358228706287 33.405092028305,-7.30059379501 44.442410753005,-9.970644175624 l 4.602410753006,-1.11337444259 -32.437116349252,-32.447642753761 c -17.840413992089,-17.846203514569 -32.683181778657,-32.447642753761 -32.983928414596,-32.447642753761 -0.300746635939,0 -1.727251941277,5.292 -3.170011789639,11.76 -1.442759848362,6.468 -3.905064359499,17.376 -5.471787802526,24.24 -1.566723443027,6.864 -2.950600619379,14.129672268774 -3.075282614115,16.145938375053 -0.212113316593,3.430141552068 0.05117218502,3.821715794916 4.093305464117,6.087813335907 6.066021073517,3.400727905082 11.007397759746,8.43656908894 14.127911858662,14.397995720103 1.813325391758,3.464174792594 3.134879147467,4.958678547043 4.112088141338,4.650231698338 0.792,-0.249987367805 3.384,-0.836191119455 5.76,-1.302675003665 z m 120.450466446171,-81.304163527136 c 35.6562434546063,-35.6646726707712 64.829533553829,-65.1689992360809 64.829533553829,-65.5651701451344 0,-0.3961709090534 -1.7380841003203,-2.4175044737068 -3.8624091118233,-4.4918523658966 l -3.8624091118234,-3.7715416221637 -65.3926063706333,65.3926063706335 -65.392606370633,65.3926063706332 3.649223122037,3.944105396664 c 2.007072717121,2.169257968165 3.998539585003,3.944105396664 4.425481928627,3.944105396664 0.426942343625,0 29.949548905814,-29.1801867306297 65.60579236042,-64.8448594014 z m -12.939754168997,-14.345852111279 64.7853788706894,-64.7907115126789 -8.126850912098,-8.169288487321 c -4.4697680016537,-4.4931086680266 -8.56719728443,-8.1692884873211 -9.1053984061699,-8.1692884873211 -1.1848061049552,0 -130.1038418295955,128.7641936934576 -130.1038418295955,129.9475767519034 0,1.5182997000298 14.704539937167,15.9724232480966 16.249144042802,15.9724232480966 0.833904150026,0 30.669609855493,-29.1558201807052 66.301568234372,-64.790711512679 z m 33.852466728781,-95.7672118229381 -8.380494747517,-8.4195038217993 -65.051342129218,65.04606648411019 c -35.778238171071,35.77533656625981 -65.05134212922,65.4425982891984 -65.05134212922,65.92724827319611 0,0.4846499839969 3.564,4.4744593665946 7.92,8.8662430724391 l 7.92,7.9850612833526 65.511836876735,-65.4928057347494 65.511836876735,-65.49280573475 z m -79.205826173717,51.84059003886 c 35.50945594227,-35.5065333132171 64.562647167762,-65.01085987852719 64.562647167762,-65.5651701451341 0,-0.5543102666069 -1.73808410032,-2.7050305783498 -3.862409111823,-4.7793784705398 l -3.862409111824,-3.7715416221637 -65.402575874394,65.4025758743935 -65.402575874394,65.4025758743942 3.744984986218,3.9172999737945 c 2.059741742419,2.1545149855872 4.175793760724,3.9248761373943 4.702337818455,3.9341358929041 0.526544057731,0.00925975555 30.010544057731,-29.0339640644324 65.52,-64.5404973776487 z"
                 id="path877" />
            <path
                 style="fill:#8e8e8e;stroke-width:0.96"
                 d="m -299.162196044922,153.948454613286 c 0,-0.281329988938 2.98941819337,-10.973329988938 6.643151540823,-23.76 3.653733347452,-12.786670011062 8.603659906133,-31.456490929204 10.999836797068,-41.488490929204 2.396176890935,-10.032 5.437724638146,-22.758599838887 6.758994993803,-28.281332975304 l 2.402309737557,-10.041332975303 70.597524048717,-70.5975240487165 70.597524048716,-70.5975240487163 38.8840035294702,38.8840035294701 38.8840035294701,38.8840035294705 -70.8036741128123,70.6916004708307 -70.803674112812,70.6916004708315 -11.52,2.608995423226 c -25.688428944474,5.817794578644 -51.939589817347,12.445460203329 -70.617066425405,17.828785017557 -19.362463073288,5.580755372598 -22.022933574595,6.206186667928 -22.022933574595,5.177216535858 z m 54.72,-21.593852169972 c 18.760762854129,-4.087039629474 21.856604097701,-4.782104748135 32.488606145653,-7.294203775027 l 10.888606145655,-2.57272870898 -32.483311741901,-32.4938531376125 c -17.865821458045,-17.8716192256868 -32.766606215854,-32.4938531376125 -33.112855017353,-32.4938531376125 -0.346248801499,0 -1.122071180398,2.268 -1.724049730886,5.04 -0.601978550488,2.772 -1.702814765499,7.632 -2.446302700025,10.8 -1.318889354369,5.6197838332166 -6.881742748866,30.584641275101 -7.73451948108,34.710815211788 -0.235392080177,1.138948366484 -0.676128498399,2.717465238616 -0.979414262715,3.507815271406 -0.39207489373,1.021730795093 1.153662544578,2.34580420813 5.348878380272,4.581830961301 6.417522719754,3.420503986557 11.539653883758,8.661672099566 14.672071835601,15.013046834284 1.572448009077,3.188337798482 2.422081635794,3.961134451029 3.980714805071,3.6207171884 1.089866591939,-0.238035099708 6.085575621708,-1.326849118284 11.101575621708,-2.419586707947 z m 115.461568301791,-80.3961893448381 65.056274112594,-65.061550585607 -4.3587257467633,-4.277765753943 -4.3587257467641,-4.2777657539435 -65.4769072277256,65.4769072277258 -65.476907227727,65.4769072277268 3.771541622164,3.862409111824 c 2.07434789219,2.124325011503 4.225059380043,3.862409111823 4.779358861895,3.862409111823 0.554299481853,0 30.2831405904,-29.2776977635229 66.064091352327,-65.0615505856061 z m -14.19086585966,-13.6491511024349 65.2654082529346,-65.2707016880409 -8.1268606856995,-8.1692983119591 c -4.4697733771344,-4.4931140715774 -8.5672070580307,-8.169298311959 -9.1054081797706,-8.169298311959 -1.2560476669152,0 -130.1038418295955,128.8016830520582 -130.1038418295955,130.0572812137776 0,0.9560692321699 15.375007824809,16.8227187862224 16.301452432764,16.8227187862224 0.277112966039,0 29.873275470253,-29.3718157596182 65.769250009367,-65.270701688041 z m -22.688028636764,-22.2346581776265 65.622673805368,-65.3703539553884 -8.491331676148,-8.5308566681803 -8.491331676149,-8.5308566681803 -65.051342129218,65.04606648411026 c -35.778238171071,35.77533656625985 -65.05134212922,65.47023423933794 -65.05134212922,65.98866149572803 0,0.6512581396329 15.542773570434,17.1533849675395 15.818805338166,16.7951962224384 0.01165706401,-0.015126625325 29.551397874249,-29.4441622350644 65.643868467201,-65.3978569105277 z m -21.681105503576,-22.67619071993859 65.056274112594,-65.06155058560651 -4.358725746763,-4.2777657539435 -4.358725746764,-4.2777657539436 -65.476907227727,65.4769072277259 -65.476907227726,65.4769072277271 3.771541622164,3.8624091118233 c 2.07434789219,2.124325011503 4.225059380043,3.8624091118234 4.779358861896,3.8624091118234 0.554299481852,0 30.283140590399,-29.2776977635229 66.064091352326,-65.06155058560608 z"
                 id="path875" />
            <path
                 style="fill:#6d6d6d;stroke-width:0.96"
                 d="m -298.934073130035,152.886979200109 c 0.279414028236,-0.982858533815 2.985415388288,-10.211015516027 6.013336355672,-20.507015516027 3.027920967383,-10.296 8.927533069941,-32.976 13.110249116794,-50.4 l 7.604938267006,-31.68 70.589658481006,-70.4875339499463 70.589658481007,-70.4875339499465 38.3320181918139,38.3230337742202 c 21.0826100054976,21.077668575821 38.3320181918141,38.7501736791977 38.3320181918141,39.2722335630598 0,0.5220598838621 -31.3968877613146,32.3569250234323 -69.770861691811,70.7441447546016 l -69.770861691811,69.7949449657602 -5.829138308189,1.514893875459 c -3.206026069504,0.833191631502 -12.309138308189,3.041748283169 -20.229138308189,4.907903670371 -28.372556400904,6.68530290104 -41.519554994842,10.062943361091 -57.150658150096,14.682771425513 -21.654553385005,6.400080177126 -22.457138497845,6.559049260587 -21.821218935017,4.322157386935 z m 53.416288124677,-20.06301924523 c 24.989735492812,-5.456913935082 44.275588960436,-9.959737589262 44.275588960436,-10.337378618399 0,-0.120657749991 -14.796,-15.015632873969 -32.88,-33.0999447199513 -25.912690744111,-25.9131375904118 -33.009671237471,-32.520981994224 -33.49194216181,-31.1836199625706 -0.336568188995,0.9333208665677 -1.820450692982,7.3129470301239 -3.297516675527,14.1769470301239 -4.290119707331,19.9364023131772 -7.7909673083,35.557000323078 -8.637083801689,38.538214004711 -0.497756913461,1.753800726179 0.292285036613,2.525351310556 5.34167042184,5.216645692213 6.212516447383,3.311236781352 10.858732415274,8.196609479435 14.308626063015,15.045140303076 1.130397386664,2.244 2.3184730337,4.08 2.640168104525,4.08 0.321695070825,0 5.60491516097,-1.09620167814 11.74048908921,-2.436003729203 z m 116.496273168187,-80.8246625811231 65.0259398953219,-65.0206663103251 -4.0231917056716,-4.0993336896745 c -2.212755438119,-2.2546335293208 -4.2608325771773,-4.0993336896743 -4.551282531241,-4.0993336896743 -0.6379913811868,0 -130.5921498661603,129.873955759924 -130.5921498661603,130.511553397287 0,0.918136731885 7.148475271968,7.728446602713 8.112202011082,7.728446602713 0.551398265741,0 30.264215254243,-29.2592998396464 66.028482196669,-65.0206663103261 z m -14.149388140734,-13.6906290507475 65.2660018778201,-65.2712953610733 -8.6173163477799,-8.6574277664566 -8.6173163477798,-8.6574277664568 -65.5231695013734,65.5179328844395 -65.523169501374,65.517932884439 8.371821540384,8.4107902430909 c 4.60450184721,4.6259346336998 8.598019634311,8.4107902430909 8.874483971333,8.4107902430909 0.276464337023,0 29.872363275969,-29.3720829124829 65.76866430877,-65.2712953610736 z m -22.078639776629,-22.0962403802189 65.2726562903899,-65.2741787049567 -8.6395081922799,-8.6395081922805 -8.639508192281,-8.6395081922805 -65.529015724559,65.485432565563073 -65.529015724559,65.485432565562319 8.395852290099,8.4349328498419 c 4.617718759555,4.6392130674135 8.620859191457,8.4319275166675 8.895867626451,8.4282543316752 0.275008434993,-0.00367318502 29.872710667026,-29.3800589353987 65.772671626739,-65.2808572231248 z m -22.291087988597,-22.81401484431365 65.056274112594,-65.06155058560655 -4.358725746763,-4.2777657539434 -4.358725746764,-4.2777657539436 -65.476907227727,65.4769072277259 -65.476907227726,65.4769072277271 3.771541622164,3.8624091118233 c 2.07434789219,2.124325011503 4.225059380043,3.8624091118234 4.779358861896,3.8624091118234 0.554299481852,0 30.283140590399,-29.2776977635229 66.064091352326,-65.06155058560614 z"
                 id="path873" />
            <path
                 style="fill:#4e4e4e;stroke-width:0.96"
                 d="m -298.743923753444,152.734450471843 c 6.417669202183,-20.220285151337 13.300185354732,-46.047757215607 21.157077873526,-79.394486787761 1.368434996015,-5.808 3.155375365875,-13.3134961440077 3.97097859969,-16.6788803200176 l 1.482914970573,-6.1188803200176 70.575253273002,-70.2944638472759 70.575253273002,-70.2944638472759 38.3948353492311,38.3286336774212 c 21.117159442078,21.0807485225817 38.248715628792,38.4887669435373 38.0701248593644,38.6844853799018 -0.1785907694265,0.1957184363635 -31.846591851815,31.9224667427539 -70.3733357386415,70.5038851253117 -56.593759247214,56.6740732041233 -70.700036931398,70.3178182509703 -73.44,71.0319659568133 -1.865256113173,0.48616289369 -8.143374751225,2.012701321292 -13.951374751225,3.392307616894 -33.95725455472,8.06605409178 -45.301362160574,10.963001722621 -64.465969708792,16.462691002804 -11.696283339836,3.356495766492 -21.553394813517,6.102719575441 -21.904692163735,6.102719575441 -0.351297350219,0 -0.392276976416,-0.776480945508 -0.09106583599,-1.725513212239 z m 47.470348931508,-18.403245298769 c 1.909258327358,-0.510817181053 9.519378777014,-2.265737686309 16.911378777014,-3.899823345011 7.392,-1.634085658701 16.032,-3.568548037838 19.2,-4.29880528697 3.168,-0.730257249134 7.384771520192,-1.616309554942 9.370603378204,-1.969005124019 1.985831858012,-0.352695569077 3.833537447783,-1.001979572881 4.106012421714,-1.442853341785 0.654083716318,-1.05832968449 -64.878808801258,-66.2679903114912 -65.9383745437,-65.6131426693468 -0.45003269092,0.2781354990365 -0.818241256218,1.3506192747859 -0.818241256218,2.3832972794419 0,1.032678004656 -2.582213967686,13.3762691251997 -5.738253261524,27.4302024900979 -3.156039293839,14.053933364897 -5.484447864512,25.963271876891 -5.174241268164,26.465196693317 0.310206596349,0.501924816426 2.435731275622,1.714903137126 4.723388176162,2.695507379331 5.131910291637,2.199793597287 11.365207768563,8.489744001601 14.454193725534,14.585564382975 2.460193254846,4.854957709071 3.244818949145,5.177836237339 8.903533850978,3.663861541969 z m 182.8963643279679,-152.0340665119457 -4.5602553727306,-4.4958386447239 -65.5342301998133,65.5293318338386 -65.534230199815,65.529331833839 4.483251277853,4.577741105577 4.483251277852,4.577741105577 65.611234294692,-65.6112342946922 65.6112342946924,-65.6112342946916 z m -75.0276133947389,56.2454721175524 c 35.773445314082,-35.77054409797159 65.042627843785,-65.3764436921722 65.042627843785,-65.7908879871138 0,-0.8104978739079 -15.3943226189078,-16.0570752524506 -16.5119940063245,-16.3535220433959 -0.369596703479,-0.098030385249 -30.0690699599275,29.1897460176892 -65.9988294587765,65.0839475620848 l -65.326835452453,65.2621846261737 8.378814122425,8.4178153738262 c 4.608347767334,4.6297984556045 8.602638494081,8.4178153738263 8.876201614993,8.4178153738263 0.273563120911,0 29.766570022269,-29.2668088074307 65.540015336351,-65.0373529054013 z m -22.08,-22.08 c 35.773445314082,-35.7705440979712 65.042627843785,-65.3401312680576 65.042627843785,-65.7101937113036 0,-0.7117617308389 -16.311203529617,-17.0924533832951 -17.019945913799,-17.0924533832951 -0.227982119628,0 -29.863759701598,29.3588534227964 -65.857283515489,65.24189649510324 l -65.442770570712,65.24189649510245 8.619984663649,8.6781035048976 c 4.740991565006,4.7729569276935 8.843809035303,8.6781035048967 9.117372156215,8.6781035048967 0.273563120911,0 29.766570022269,-29.2668088074308 65.540015336351,-65.0373529054013 z m 42.807019086152,-87.7183459449285 c 0.224943297388,-0.8611241788789 -7.340254975163,-8.0443011496702 -8.472119426937,-8.0443011496702 -0.925444935265,0 -130.57227181543,129.1053153207379 -130.57227181543,130.0268948383747 0,0.2532366215174 1.825148972301,2.3201215352477 4.055886605114,4.5930775860681 l 4.055886605114,4.1326473651264 65.388504637253,-65.05630989478461 c 35.963677550488,-35.78097044213158 65.458528578187,-65.32437437743308 65.544113394886,-65.65200874511438 z"
                 id="path871" />
            <path
                 style="fill:#313131;stroke-width:0.96"
                 d="m -298.315880255448,153.739963684082 c -0.15572111712,-0.986233741756 1.619215629806,-7.424290072651 9.064835291804,-32.88 2.452791300848,-8.385808932116 4.662507041451,-17.324300939484 10.679622459284,-43.2 1.903101147697,-8.184 3.84526126749,-16.176 4.315911377317,-17.76 0.470650109826,-1.584 1.129617915987,-4.2298586126381 1.464372902579,-5.8796858058624 0.477664548787,-2.3541515239306 15.685746747311,-18.0551896519143 70.669319325241,-72.9600000000004 38.533370642292,-38.4781728067755 70.445608408394,-69.9603141941372 70.916083924671,-69.9603141941372 0.470475516277,0 17.987941412339,17.0277005433863 38.9277019912502,37.8393345408584 l 38.0722919616547,37.8393345408587 -70.3377794487199,70.342662377785 -70.337779448719,70.3426623777849 -5.820448062918,1.502490691174 c -3.201246434605,0.826369880147 -11.220448062918,2.772743044697 -17.820448062918,4.325273699004 -37.057909872068,8.717203191041 -55.772626665732,13.649293401558 -73.358549645999,19.332966058522 -6.511497631246,2.104479877692 -6.285138700124,2.065249521901 -6.435134564527,1.115275714013 z m 64.913684210526,-23.348133402754 c 9.504,-2.161029609162 20.304,-4.554293171396 24,-5.31836347163 3.696,-0.764070300234 7.3461554712,-1.612185441559 8.111456602667,-1.884700314055 1.54767152493,-0.551107911565 -63.853268885328,-66.648802811561 -65.946238937513,-66.648802811561 -0.662869715835,0 -1.205217665154,0.981568207704 -1.205217665154,2.1812626837862 0,1.1996944760813 -2.404035312557,12.7556944760823 -5.342300694572,25.68 -7.421983890681,32.6464682134958 -7.232552296621,28.9197500627898 -1.599418079927,31.4656085676218 5.885117013684,2.659740497009 11.794306933654,8.509563272101 15.23580412718,15.082736413467 2.594067622966,4.954603960812 2.636911998823,4.984263174979 6.039258441155,4.180704140116 1.88466091339,-0.445115255098 11.202656206164,-2.577415598582 20.706656206164,-4.738445207745 z m 165.3473684210525,-148.4792350182986 -4.5591272727274,-4.5591272727273 -65.8499278667211,65.8499278667213 -65.849927866722,65.8499278667226 4.655807292559,4.429823383173 4.655807292559,4.429823383173 65.75324784689,-65.7206239771671 65.7532478468899,-65.720623977168 z m -74.6719247244325,56.2209276615706 65.4377943469755,-65.4464407594819 -8.4566190217977,-8.4430947301013 c -4.6511404619885,-4.6437021015556 -8.6793442965226,-8.4568037597888 -8.9515640767431,-8.473559240518 -0.5974130425756,-0.036771548027 -131.5284930964497,130.8135192927383 -131.2325274725277,131.1515522554555 2.923398098838,3.3389179035648 16.571690369844,16.6579832341277 17.069743122529,16.6579832341277 0.382458315024,0 30.142386210727,-29.4508983417667 66.133173101564,-65.446440759482 z m -22.758071540405,-21.6709121459193 c 35.773445314082,-35.7705440979712 65.042627843785,-65.46152066063 65.042627843785,-65.9799479170201 0,-1.2585127268501 -15.52602539108,-16.8226991775786 -16.781452432764,-16.8226991775786 -0.541112966039,0 -30.34463735067,29.3631769394292 -66.230054188071,65.25150430984315 l -65.246212431638,65.25150430984224 8.128859526236,8.5425136972214 c 4.47087273943,4.6983825334714 8.559676996534,8.5992055940419 9.086231682452,8.6684956901568 0.526554685918,0.069290096112 30.226554685918,-29.1408268144944 66,-64.9113709124649 z m -22.314545824715,-22.55093678516545 c 35.902445517675,-36.02955932981145 65.2771736685,-65.74761348545075 65.2771736685,-66.04012034586504 0,-0.2925068604142 -1.914100252285,-2.410377961222 -4.253556116191,-4.7063802240175 l -4.253556116189,-4.174549568719 -65.800409867386,65.8982957947894 -65.800409867386,65.8982957947891 4.053965983576,4.2259396527543 c 2.229681290967,2.3242668090143 4.379237832751,4.2666351629222 4.776792315077,4.3163741197948 0.397554482325,0.049738956874 30.097554482326,-29.3882958937142 65.999999999999,-65.41785522352604 z"
                 id="path869" />
            <path
                 style="fill:#010101;stroke-width:0.96"
                 d="m -298.202196044922,153.599483906113 c 0,-0.535585823942 2.42163471105,-9.309081165513 5.381410469001,-19.4966563146 2.959775757951,-10.187575149087 6.223533427629,-21.978863907431 7.252794821507,-26.202863907431 1.029261393878,-4.224 2.276574166515,-9.192 2.771806161415,-11.04 0.886974011348,-3.3098184080458 3.402351592633,-14.191792305025 6.324287420231,-27.36 0.820117290747,-3.696 1.864754042459,-7.8 2.321415003805,-9.12 0.456660961346,-1.32 1.098335380392,-3.9475938524189 1.425943153436,-5.8390974498192 0.518402504775,-2.9930919940349 9.736275307708,-12.5790877525066 71.077970993812,-73.916525323569 l 70.482320497368,-70.4774278737494 38.4020596544239,38.3930588202209 38.4020596544247,38.3930588202207 -70.2476542511136,70.2525309235843 -70.247654251114,70.2525309235857 -12.553379663597,2.972871962778 c -28.010175878523,6.633326544184 -48.794307567982,11.73702573392 -56.713379663599,13.926395105701 -14.311690071809,3.956723151818 -32.380872818347,9.281980598914 -33.36,9.831689176379 -0.396,0.222325149128 -0.72,-0.03397903935 -0.72,-0.569564863301 z m 54.72,-20.684301660555 c 5.544,-1.285797856492 17.424,-3.928125932612 26.4,-5.871840169156 8.976,-1.943714236544 16.516845376635,-3.714975575492 16.757434170299,-3.936136308772 0.533197657405,-0.490140804562 -66.36993211962,-67.527242083548 -67.392291050873,-67.527242083548 -0.398828715684,0 -0.725143119426,1.1573288791296 -0.725143119426,2.5718419536221 0,1.4145130744915 -0.411369285168,3.8985130744915 -0.91415396704,5.52 -0.502784681872,1.6214869255075 -1.597832000694,6.1881580463779 -2.43343848627,10.1481580463779 -1.465811285916,6.9465864523824 -2.150416895774,10.0000971986506 -6.271221192857,27.97120127106 -2.631100209101,11.474404575862 -2.605738891638,11.623910568387 2.382952987572,14.047604272299 6.32470181709,3.072777462382 11.827388035738,8.502964565128 15.014583211565,14.816762735303 2.403757856799,4.761817560754 3.139420992699,5.517106182424 4.961737361336,5.094102979821 1.176747047132,-0.273151126862 6.675540085694,-1.548654840515 12.219540085694,-2.834452697007 z m 114.246160175843,-80.2213799001531 c 35.900611903286,-35.9073887362723 65.273839824157,-65.5910368746183 65.273839824157,-65.9636625296583 0,-1.1737093387008 -8.0317023505363,-8.9176533153052 -9.0798796541347,-8.7545673740309 -0.5500661902263,0.085584816699 -30.3652550450543,29.67025990728723 -66.2559752329513,65.7437224235314 l -65.255854887087,65.5881136658979 4.255734541221,4.336277576468 c 2.340653997672,2.384952667058 4.60056077599,4.336277576469 5.022015062929,4.336277576469 0.421454286939,0 30.139508442578,-29.3787726024048 66.040120345866,-65.2861613386771 z m -13.454873797182,-13.9051243435344 65.7460308342123,-65.7512856822114 -8.6086432700851,-8.6487143177885 c -4.7347537985472,-4.7567928747838 -9.0188524315354,-8.6487143177886 -9.5202191844192,-8.6487143177886 -1.2335553482371,0 -131.128454758369,129.7553372751274 -131.128454758369,130.9875672624854 0,0.9761862436148 16.316558348984,17.8124327375146 17.262612435873,17.8124327375146 0.276453709715,0 30.08835698397,-29.5880785569955 66.248673942788,-65.7512856822115 z m -22.734768612713,-22.263887704129 66.056517765949,-65.9132822028319 -8.436502429597,-8.4757722054138 c -4.640076336279,-4.6616747129776 -8.876326801252,-8.4757722054138 -9.413889922164,-8.4757722054138 -1.255960177692,0 -131.062643180136,129.762825710591 -131.062643180136,131.0183615417798 0,0.6413115255034 16.380637879174,17.9890797471389 16.779984663649,17.7706928664653 0.01100843499,-0.00602007542 29.745448331028,-29.6719225830288 66.076533102299,-65.9242277945856 z m -21.637024179235,-22.64430257607461 65.534238042266,-65.5394759624142 -4.834606920066,-4.7619102047356 -4.834606920067,-4.7619102047356 -65.961578400809,65.9615784008083 -65.961578400808,65.9615784008093 4.25919916052,4.3398077663414 c 2.342559538287,2.3868942714874 4.710435813661,4.3398077663415 5.261947278609,4.3398077663415 0.551511464949,0 30.493155237109,-29.4927641830868 66.536986160355,-65.53947596241511 z"
                 id="path867" />
        </g>
    </g>
</svg>
