<?xml version="1.0" encoding="UTF-8" standalone="no"?>
<!-- Created with Inkscape (http://www.inkscape.org/) -->

<svg
     width="300"
     height="100"
     viewBox="0 0 79.374999 26.458334"
     version="1.1"
     id="svg5"
     inkscape:version="1.1 (c68e22c387, 2021-05-23)"
     sodipodi:docname="new-bg-img.svg"
     inkscape:export-filename="C:\Program Files\XAMPP\htdocs\koko-campus.org\pics\new-bg-img1.png"
     inkscape:export-xdpi="96"
     inkscape:export-ydpi="96"
     xmlns:inkscape="http://www.inkscape.org/namespaces/inkscape"
     xmlns:sodipodi="http://sodipodi.sourceforge.net/DTD/sodipodi-0.dtd"
     xmlns="http://www.w3.org/2000/svg"
     xmlns:svg="http://www.w3.org/2000/svg">
    <sodipodi:namedview
         id="namedview7"
         pagecolor="#ffffff"
         bordercolor="#666666"
         borderopacity="1.0"
         inkscape:pageshadow="2"
         inkscape:pageopacity="0.0"
         inkscape:pagecheckerboard="0"
         inkscape:document-units="px"
         showgrid="false"
         units="px"
         inkscape:zoom="4.2431962"
         inkscape:cx="185.94474"
         inkscape:cy="42.303017"
         inkscape:window-width="1920"
         inkscape:window-height="1027"
         inkscape:window-x="-8"
         inkscape:window-y="-8"
         inkscape:window-maximized="1"
         inkscape:current-layer="svg5">
        <inkscape:grid
             type="xygrid"
             id="grid857" />
    </sodipodi:namedview>
    <defs
         id="defs2" />
    <path
         id="path851"
         style="opacity:1;fill:#93ffff;fill-opacity:1;stroke:#000000;stroke-width:0.124224;stroke-miterlimit:4;stroke-dasharray:none"
         d="m 52.277429,18.770179 a 6.9113538,6.2414261 18.309789 0 0 6.163322,5.831478 6.9113538,6.2414261 18.309789 0 0 7.153529,-3.951237 6.9113538,6.2414261 18.309789 0 0 -3.076857,-7.536281 6.9113538,6.2414261 18.309789 0 0 -8.481071,0.69963 l 5.035692,4.551058 z" />
    <path
         style="opacity:1;fill:#81ffff;fill-opacity:1;stroke:#000000;stroke-width:0.15875;stroke-miterlimit:4;stroke-dasharray:none"
         id="path1724"
         sodipodi:type="arc"
         sodipodi:cx="59.066742"
         sodipodi:cy="14.265545"
         sodipodi:rx="0.72004348"
         sodipodi:ry="0.72004348"
         sodipodi:start="0.41550879"
         sodipodi:end="5.8289285"
         sodipodi:arc-type="slice"
         d="m 59.725518,14.556194 a 0.72004348,0.72004348 0 0 1 -0.800463,0.415317 0.72004348,0.72004348 0 0 1 -0.578221,-0.692017 0.72004348,0.72004348 0 0 1 0.55098,-0.713896 0.72004348,0.72004348 0 0 1 0.81595,0.383996 l -0.647022,0.315951 z" />
    <path
         id="path1834"
         style="opacity:1;fill:#95ffff;fill-opacity:1;stroke:#000000;stroke-width:0.126024"
         d="m 66.749252,21.69479 c 1.003997,0.805553 2.564256,0.77034 3.518698,-0.07941 0.954432,-0.849759 0.95582,-2.204912 0.0031,-3.056144 -0.952681,-0.851239 -2.512864,-0.888887 -3.518527,-0.0849 l 1.379017,1.656567 z"
         sodipodi:nodetypes="cccccc" />
    <path
         style="opacity:1;fill:#81ffff;fill-opacity:1;stroke:#000000;stroke-width:0.132292;stroke-miterlimit:4;stroke-dasharray:none"
         id="path1724-5"
         sodipodi:type="arc"
         sodipodi:cx="68.761497"
         sodipodi:cy="18.810818"
         sodipodi:rx="0.37120473"
         sodipodi:ry="0.37120473"
         sodipodi:start="0.41550879"
         sodipodi:end="5.8289285"
         sodipodi:arc-type="slice"
         d="m 69.101117,18.960657 a 0.37120473,0.37120473 0 0 1 -0.412663,0.214108 0.37120473,0.37120473 0 0 1 -0.298092,-0.356756 0.37120473,0.37120473 0 0 1 0.284048,-0.368036 0.37120473,0.37120473 0 0 1 0.420647,0.197962 l -0.33356,0.162883 z" />
    <path
         id="path1834-2"
         style="fill:#92ffff;fill-opacity:1;stroke:#000000;stroke-width:0.0919976;stroke-miterlimit:4;stroke-dasharray:none"
         d="m 71.676366,19.777474 c 0.541355,0.186754 1.189547,-0.06208 1.461802,-0.561172 0.272249,-0.499094 0.06952,-1.066873 -0.457234,-1.280446 -0.526718,-0.213589 -1.185809,0.0047 -1.486383,0.492328 l 0.826101,0.486915 z"
         sodipodi:nodetypes="cccccc" />
    <path
         style="opacity:1;fill:#81ffff;fill-opacity:1;stroke:#000000;stroke-width:0.079375;stroke-miterlimit:4;stroke-dasharray:none"
         id="path1724-5-7"
         sodipodi:type="arc"
         sodipodi:cx="61.719227"
         sodipodi:cy="41.541512"
         sodipodi:rx="0.18905735"
         sodipodi:ry="0.18905735"
         sodipodi:start="0.41550879"
         sodipodi:end="5.8289285"
         sodipodi:arc-type="slice"
         d="m 61.892197,41.617826 a 0.18905735,0.18905735 0 0 1 -0.210172,0.109047 0.18905735,0.18905735 0 0 1 -0.15182,-0.181699 0.18905735,0.18905735 0 0 1 0.144667,-0.187443 0.18905735,0.18905735 0 0 1 0.214239,0.100823 l -0.169884,0.08296 z"
         transform="rotate(-19.708454)" />
</svg>
