<?xml version="1.0" encoding="UTF-8" standalone="no"?>
<!-- Created with Inkscape (http://www.inkscape.org/) -->

<svg
     width="50"
     height="50"
     viewBox="0 0 50 50"
     version="1.1"
     id="svg5"
     inkscape:version="1.1 (c68e22c387, 2021-05-23)"
     sodipodi:docname="questionaire-option.svg"
     xmlns:inkscape="http://www.inkscape.org/namespaces/inkscape"
     xmlns:sodipodi="http://sodipodi.sourceforge.net/DTD/sodipodi-0.dtd"
     xmlns="http://www.w3.org/2000/svg"
     xmlns:svg="http://www.w3.org/2000/svg">
    <sodipodi:namedview
         id="namedview7"
         pagecolor="#ffffff"
         bordercolor="#666666"
         borderopacity="1.0"
         inkscape:pageshadow="2"
         inkscape:pageopacity="0.0"
         inkscape:pagecheckerboard="0"
         inkscape:document-units="px"
         showgrid="false"
         units="px"
         width="30px"
         inkscape:zoom="8"
         inkscape:cx="10.8125"
         inkscape:cy="28.8125"
         inkscape:window-width="1920"
         inkscape:window-height="1027"
         inkscape:window-x="-8"
         inkscape:window-y="-8"
         inkscape:window-maximized="1" />
    <defs
         id="defs2" />
    <g
         inkscape:label="レイヤー 1"
         inkscape:groupmode="layer"
         id="layer1">
        <g
             id="g8586">
            <g
                 id="g8584">
                <path
                     id="path3143"
                     style="fill:#93ff5c;fill-opacity:1;stroke:none;stroke-width:0.0746735"
                     d="m 35.341484,31.733333 c -0.706596,0.001 -1.087379,0.144265 -1.556878,0.586042 -0.523108,0.492243 -0.830413,1.534744 -0.625673,2.122068 0.07347,0.210721 0.05296,0.247778 -0.419199,0.735161 -1.018554,1.051383 -1.345386,2.160333 -0.982303,3.335867 0.289525,0.937368 0.968025,1.731163 2.06367,2.414047 0.417266,0.260091 0.546018,0.376957 0.510967,0.467168 -0.02579,0.06623 -0.06649,0.344326 -0.0897,0.617327 l -0.04171,0.496363 -0.543292,0.02694 c -0.619152,0.03117 -0.824333,0.156616 -0.897837,0.548504 -0.04856,0.26494 -0.0458,0.350637 -0.03025,0.550591 0.06996,0.414064 0.424365,0.873752 0.823799,1.06781 0.183823,0.08931 0.333948,0.180744 0.332647,0.203332 -0.0013,0.0227 -0.153073,0.132488 -0.336819,0.244007 -0.183741,0.111515 -0.374925,0.291799 -0.424412,0.400427 -0.205446,0.450913 0.312417,0.497144 2.011532,0.179358 0.442662,-0.08281 0.877491,-0.166198 0.965616,-0.185593 0.294648,-0.06492 0.279294,0.183977 -0.02809,0.455697 l -0.281565,0.248163 0.200215,0.0033 c 0.110288,0.0017 0.292763,-0.03155 0.404603,-0.07404 0.174587,-0.06638 0.230769,-0.05099 0.400427,0.111562 0.26086,0.249932 0.376457,0.239581 0.376457,-0.03424 0,-0.215724 0.01227,-0.224189 0.335782,-0.224189 0.184824,0 0.335783,-0.03155 0.335783,-0.07092 0,-0.03937 -0.167967,-0.131448 -0.373301,-0.204371 -0.256975,-0.09127 -0.373302,-0.174126 -0.373302,-0.264862 0,-0.120293 0.101122,-0.13137 1.157493,-0.13137 1.056359,0 1.157491,0.01119 1.157491,0.13137 0,0.0907 -0.116363,0.173587 -0.373302,0.264862 -0.205334,0.07296 -0.373303,0.165007 -0.373303,0.204371 0,0.03937 0.150961,0.07092 0.335784,0.07092 0.323584,0 0.335783,0.0084 0.335783,0.224189 0,0.273982 0.115555,0.284372 0.376457,0.03424 0.169662,-0.162542 0.226882,-0.177935 0.401474,-0.111562 0.111857,0.04252 0.2933,0.07577 0.403556,0.07404 l 0.200215,-0.0033 -0.281565,-0.248163 c -0.307461,-0.271712 -0.322815,-0.520618 -0.02809,-0.455697 0.08812,0.01925 0.522958,0.102815 0.965621,0.185593 1.699109,0.317774 2.216977,0.27156 2.011528,-0.179358 -0.04948,-0.108626 -0.240659,-0.288913 -0.424413,-0.400427 -0.183745,-0.111516 -0.334474,-0.22138 -0.335782,-0.244007 -0.0013,-0.0227 0.14776,-0.114064 0.331588,-0.203332 0.398488,-0.193597 0.754281,-0.653196 0.8238,-1.064681 0.05391,-0.272598 0.03848,-0.366183 0.03859,-0.553723 -0.0735,-0.391893 -0.277638,-0.517247 -0.896794,-0.548505 l -0.54329,-0.02694 -0.04275,-0.496368 c -0.02309,-0.273022 -0.06292,-0.551102 -0.08861,-0.617332 -0.03502,-0.0902 0.09266,-0.207102 0.509919,-0.467164 1.095647,-0.682886 1.774148,-1.476683 2.063673,-2.414047 0.363104,-1.175538 0.03733,-2.284483 -0.981262,-3.335866 -0.472155,-0.487373 -0.492663,-0.52443 -0.419199,-0.735161 0.204756,-0.587328 -0.103592,-1.62983 -0.626712,-2.122069 -0.469504,-0.441792 -0.849245,-0.585048 -1.555836,-0.586041 -0.566401,-8.02e-4 -0.678326,0.02309 -1.039658,0.223149 -0.392371,0.217071 -0.917576,0.77768 -1.014625,1.083453 -0.04351,0.137071 -0.113752,0.148071 -0.895755,0.148071 -0.782017,0 -0.852241,-0.01072 -0.895751,-0.148071 -0.09705,-0.305768 -0.621214,-0.866371 -1.013587,-1.083453 -0.361335,-0.199908 -0.473252,-0.223957 -1.039654,-0.223149 z m -0.02694,1.07928 c 0.648116,-5.23e-4 1.153181,0.548814 1.087625,1.183561 -0.08319,0.805421 -0.945726,1.280957 -1.6403,0.904093 -1.017801,-0.552232 -0.611413,-2.086706 0.552675,-2.087654 z m 5.889645,0.0033 c 0.561408,0.0057 1.120995,0.400682 1.120995,1.115781 0,0.432592 -0.206527,0.771965 -0.590219,0.967703 -0.342862,0.174932 -0.61907,0.189363 -0.943717,0.04799 -0.476546,-0.207565 -0.791414,-0.812361 -0.671555,-1.28992 0.139728,-0.556708 0.579902,-0.824866 1.030273,-0.840485 0.01808,-6.39e-4 0.03617,-0.0012 0.05422,-0.0011 z m 0.398345,0.37438 c -0.162542,0.0065 -0.329395,0.110629 -0.367067,0.260708 -0.06227,0.248085 0.117139,0.445736 0.321198,0.465081 -0.04763,-0.01808 -0.09786,-0.06138 -0.166852,-0.130375 -0.183939,-0.183938 -0.185362,-0.237043 -0.01227,-0.450483 0.121599,-0.150153 0.305461,-0.169085 0.436925,-0.08343 -0.0057,-0.0047 -0.0115,-0.0096 -0.01769,-0.01352 -0.04802,-0.03001 -0.104244,-0.04564 -0.161619,-0.04799 -0.01072,-4.4e-4 -0.02155,-4.43e-4 -0.03233,0 z m 0.211683,0.06154 c 0.135907,0.105316 0.162196,0.368645 0.05734,0.520348 0.103328,-0.0927 0.123757,-0.168777 0.08861,-0.308654 -0.02423,-0.09659 -0.07824,-0.167545 -0.145989,-0.211682 z m 0.05734,0.520348 c -0.0096,0.0089 -0.01923,0.01693 -0.0304,0.02616 -0.05745,0.04648 -0.103934,0.08007 -0.143923,0.101169 0.04968,-0.01693 0.09828,-0.04513 0.141795,-0.08866 0.01196,-0.0115 0.0227,-0.02462 0.03233,-0.03859 z m -0.174165,0.127222 c -0.04659,0.01577 -0.09416,0.02116 -0.140769,0.01693 0.04518,0.01732 0.08796,0.01119 0.140769,-0.01693 z m -6.054407,-0.703878 c -0.182245,0.0011 -0.299189,0.116331 -0.324316,0.329511 -0.03078,0.259784 0.163158,0.421914 0.369146,0.397298 -0.05344,-0.01196 -0.113442,-0.05383 -0.200215,-0.124068 -0.227575,-0.184285 -0.155771,-0.511621 0.128262,-0.582914 0.03617,-0.0092 0.068,-0.01352 0.09697,-0.0146 -0.02425,-0.0033 -0.04768,-0.0054 -0.06988,-0.0054 z m 0.06988,0.0054 c 0.02155,0.003 0.04375,0.0065 0.06673,0.01274 0.0277,0.007 0.0526,0.01616 0.07611,0.02809 -0.04349,-0.0304 -0.08827,-0.04302 -0.142882,-0.04067 z m 0.142882,0.04067 c 0.03117,0.02194 0.0623,0.05234 0.09593,0.09385 0.02616,0.03233 0.04656,0.05964 0.06464,0.08551 -0.02809,-0.07496 -0.08285,-0.139915 -0.160581,-0.179358 z m 0.160581,0.179358 c 0.04291,0.115291 0.0227,0.254704 -0.07715,0.36499 0.156232,-0.156193 0.179166,-0.218994 0.07715,-0.36499 z m -0.328472,0.501577 c 0.06477,0.0146 0.121101,-0.01507 0.200215,-0.08758 -0.063,0.05195 -0.132302,0.07946 -0.200215,0.08758 z m 6.318232,2.704984 c 0.05602,0.0013 0.09593,0.07415 0.09593,0.224189 0,0.575206 -0.692789,1.244737 -1.629876,1.576692 -0.972321,0.34444 -2.407352,0.447046 -3.484983,0.2482 -1.155184,-0.213183 -2.054488,-0.693684 -2.398405,-1.280539 -0.197445,-0.336938 -0.219803,-0.738287 -0.04067,-0.738287 0.05514,0 0.145694,0.13499 0.201255,0.299264 0.148801,0.439874 0.669103,0.877827 1.321205,1.112651 0.753007,0.271175 1.213553,0.343096 2.185677,0.343096 0.972127,0 1.433715,-0.07188 2.186719,-0.343096 0.652371,-0.234925 1.17175,-0.67285 1.320166,-1.112651 0.07272,-0.215493 0.170932,-0.331243 0.242968,-0.329511 z m -3.715445,5.298389 c 0.449814,0 1.018163,0.05164 1.343107,0.123058 l 0.564146,0.124099 -0.05007,0.26798 c -0.0277,0.147528 -0.172201,0.805894 -0.3212,1.463027 l -0.271134,1.195031 -0.333705,0.05003 c -0.401816,0.06079 -1.488839,0.05883 -1.899953,-0.0042 l -0.296148,-0.04586 -0.271136,-1.195033 c -0.148847,-0.657128 -0.292607,-1.315476 -0.320121,-1.463026 l -0.05006,-0.26798 0.563104,-0.1241 c 0.324933,-0.07139 0.893293,-0.123058 1.343107,-0.123058 z m -3.118969,1.01984 0.152266,0.404601 c 0.08343,0.222497 0.239812,0.603229 0.347251,0.8457 0.107445,0.242467 0.183707,0.452199 0.169968,0.466126 -0.04322,0.04322 -0.490855,-0.314697 -0.655907,-0.524525 -0.208797,-0.26544 -0.265249,-0.711886 -0.124099,-0.981259 z m 6.265053,0.107399 c 0.02579,-0.0026 0.04776,0.02924 0.07611,0.0803 0.202602,0.365143 0.102365,0.795463 -0.272174,1.170007 -0.28772,0.287683 -0.568072,0.4557 -0.50158,0.300304 0.02386,-0.0561 0.185476,-0.44886 0.359756,-0.872809 0.205564,-0.50012 0.281409,-0.672228 0.337861,-0.677811 z" />
                <path
                     style="fill:#302f32;stroke:none;stroke-width:0.0746735"
                     d="m 37.509428,38.712394 c -1.064204,-0.117295 -1.965832,-0.440994 -2.529883,-0.908235 -0.4236,-0.350906 -0.754804,-1.157832 -0.449875,-1.09607 0.06558,0.01352 0.163698,0.153959 0.218109,0.312579 0.134959,0.393504 0.414462,0.665101 0.958659,0.931495 0.808378,0.395721 1.30658,0.491819 2.549716,0.491819 1.24314,0 1.741342,-0.09612 2.54972,-0.491819 0.544198,-0.266402 0.823715,-0.537991 0.95866,-0.931495 0.10471,-0.305307 0.337322,-0.441675 0.337322,-0.197753 0,0.286489 -0.341517,0.808326 -0.709401,1.083969 -0.822503,0.616277 -2.480096,0.960121 -3.883027,0.805479 z m -2.777538,-3.881057 c -0.505679,-0.308345 -0.660257,-0.839061 -0.400596,-1.375444 0.284989,-0.58871 1.01593,-0.804522 1.546777,-0.456697 0.628848,0.412037 0.630876,1.449397 0.0036,1.831883 -0.312964,0.190827 -0.837038,0.190942 -1.14976,2.58e-4 z m 1.204056,-1.016707 c 0.28799,-0.28799 -0.04763,-0.820861 -0.398653,-0.632994 -0.257436,0.137756 -0.334167,0.359295 -0.196984,0.568657 0.137414,0.209759 0.419741,0.240235 0.595645,0.06433 z m 4.694732,1.016449 c -0.826012,-0.503651 -0.525127,-1.835978 0.450376,-1.99428 0.641423,-0.104089 1.32398,0.578465 1.219889,1.219894 -0.124332,0.766144 -1.010188,1.176856 -1.670265,0.774386 z m 1.288082,-1.080786 c 0.13718,-0.209373 0.06045,-0.430884 -0.196982,-0.568657 -0.208604,-0.111624 -0.516,0.08854 -0.516,0.336015 0,0.401519 0.49624,0.563435 0.712986,0.232655 z"
                     id="path3131" />
            </g>
        </g>
    </g>
</svg>
