<?xml version="1.0" encoding="UTF-8" standalone="no"?>
<!-- Created with Inkscape (http://www.inkscape.org/) -->

<svg
     width="600"
     height="200"
     viewBox="0 0 600 200"
     version="1.1"
     id="svg5"
     inkscape:version="1.1 (c68e22c387, 2021-05-23)"
     sodipodi:docname="カメレオン.svg"
     inkscape:export-filename="C:\Program Files\XAMPP\htdocs\koko-campus.org\pics\カメレオン.png"
     inkscape:export-xdpi="96"
     inkscape:export-ydpi="96"
     xmlns:inkscape="http://www.inkscape.org/namespaces/inkscape"
     xmlns:sodipodi="http://sodipodi.sourceforge.net/DTD/sodipodi-0.dtd"
     xmlns:xlink="http://www.w3.org/1999/xlink"
     xmlns="http://www.w3.org/2000/svg"
     xmlns:svg="http://www.w3.org/2000/svg">
    <sodipodi:namedview
         id="namedview7"
         pagecolor="#ffffff"
         bordercolor="#666666"
         borderopacity="1.0"
         inkscape:pageshadow="2"
         inkscape:pageopacity="0.0"
         inkscape:pagecheckerboard="0"
         inkscape:document-units="px"
         showgrid="false"
         inkscape:zoom="0.7500981941"
         inkscape:cx="102.6532267"
         inkscape:cy="205.9730329"
         inkscape:window-width="1920"
         inkscape:window-height="1027"
         inkscape:window-x="-8"
         inkscape:window-y="-8"
         inkscape:window-maximized="1"
         inkscape:current-layer="layer1"
         units="px"
         width="600px" />
    <defs
         id="defs2">
        <rect
             x="78.65636859"
             y="44.66081945"
             width="333.2896974"
             height="115.3182353"
             id="rect6316" />
        <linearGradient
             inkscape:collect="always"
             id="linearGradient1181">
            <stop
                 style="stop-color:#83533a;stop-opacity:1;"
                 offset="0"
                 id="stop1177" />
            <stop
                 style="stop-color:#754d36;stop-opacity:1"
                 offset="0.144218713"
                 id="stop1667" />
            <stop
                 style="stop-color:#6b3910;stop-opacity:0.8834355828"
                 offset="0.3835749626"
                 id="stop1669" />
            <stop
                 style="stop-color:#5a331c;stop-opacity:0.8588235378"
                 offset="0.654767096"
                 id="stop1991" />
            <stop
                 style="stop-color:#4e2f1e;stop-opacity:0.9037559032"
                 offset="0.8393992782"
                 id="stop2249" />
            <stop
                 style="stop-color:#452d20;stop-opacity:0.836400818"
                 offset="1"
                 id="stop1179" />
        </linearGradient>
        <linearGradient
             inkscape:collect="always"
             xlink:href="#linearGradient1181"
             id="linearGradient1183"
             x1="-9.246278763"
             y1="40.69732666"
             x2="-7.465315819"
             y2="183.5583038"
             gradientUnits="userSpaceOnUse" />
    </defs>
    <g
         inkscape:label="レイヤー 1"
         inkscape:groupmode="layer"
         id="layer1">
        <path
             id="rect849"
             style="fill:url(#linearGradient1183);stroke-width:8;stroke-linecap:round;stroke-linejoin:bevel;paint-order:markers stroke fill"
             transform="rotate(5.6348514)"
             d="m -76.62367249,17.36532974 78.426236532,-9.035715936 37.853907558,3.532910116 6.18452509,-12.1263424941 7.24568303,8.5900952941 31.48957663,3.48640162 6.28959092,-16.458296224 3.02258527,9.034794609 14.99689926,-10.109655391 -17.36470709,22.882571626 24.19165569,4.22627771 10.3190844,-3.86932062 14.652337,0.0111143 6.0006962,5.39940573 68.8986266,-0.28235886 6.4065513,-5.13758214 v 0 l 9.1823774,3.80564664 60.9464218,-0.5945915 6.3564073,-2.98875922 c -8.5709191,-23.350277903 3.1389335,-0.43196745 4.9711566,-0.0484985 l 21.0714248,-0.0201525 3.5593861,-3.31455028 2.4287912,3.30882324 305.5411355,-0.29221717 v 181.93832396 h -712.67034909 z"
             sodipodi:nodetypes="cccccccccccccccccccccccccccc" />
        <path
             style="fill:#3c904e;fill-opacity:1;stroke:#000000;stroke-width:0.151441px;stroke-linecap:butt;stroke-linejoin:miter;stroke-opacity:1"
             d="m 518.9994838,32.5709788 5.9419621,6.5073767 4.9933524,-9.44132723 3.2342817,8.86015241 9.5953499,-6.60804701 0.5146572,10.21883674 11.2930669,-8.93246709 -0.8679132,8.47365665 9.795855,0.12303279 -2.2937525,7.36553326 11.046375,-1.70672905 -3.1248432,8.43491194 10.9049423,1.2708683 -5.2790909,7.6754979 8.7206582,4.8906693 -11.5917218,4.5419403 -64.299271,-12.97888592 11.4160919,-28.69501999"
             id="path13333" />
        <path
             style="fill:#ffe494;fill-opacity:1;stroke:#000000;stroke-width:0.151441px;stroke-linecap:butt;stroke-linejoin:miter;stroke-opacity:1"
             d="m 509.3995288,74.77888791 c 7.5641238,6.2801798 15.0447068,7.8404414 27.279451,10.3657915 l 5.6082346,-6.799998 -33.081511,-12.7322415 z"
             id="path12125"
             sodipodi:nodetypes="ccccc" />
        <path
             style="fill:#e37fae;fill-opacity:1;stroke:#000000;stroke-width:0.151441px;stroke-linecap:butt;stroke-linejoin:miter;stroke-opacity:1"
             d="m 490.1981033,66.51643491 c -14.6563718,4.9005115 -40.2992436,20.5523129 -46.656252,19.4396712 -22.151534,2.5409617 -24.6430096,-21.3578515 -13.8766094,-24.52759172 18.4136084,-4.26234562 12.4437257,14.63042932 1.858847,2.75521932 -11.1084897,7.5696042 -1.3471054,16.7295626 5.1508914,18.1451411 9.1073847,3.4786465 32.0060902,-10.5362275 52.0073995,-19.72995242 z"
             id="path863-7"
             sodipodi:nodetypes="ccccccc" />
        <path
             style="fill:#5eb13b;fill-opacity:1;stroke:#000000;stroke-width:0.151441px;stroke-linecap:butt;stroke-linejoin:miter;stroke-opacity:1"
             d="m 490.1981033,66.51643491 -29.7867666,-9.72053186 c -2.5545863,-0.83366069 -4.6149814,-0.89210683 -5.8253926,-2.77663223 -1.0174443,-1.58409402 -0.7944907,-3.81264067 0.194393,-5.26326618 0.8109686,-1.18964099 3.9595052,-1.72585013 3.9595052,-1.72585013 6.307121,-3.8590631 12.251039,-8.60746813 18.1298716,-13.51523875 0.5388402,0.9667976 25.714864,-1.32035287 34.3873677,-7.21967014 1.1826438,-0.80447224 2.732324,0.52807307 3.9090803,1.01222877 2.0072288,0.82584188 3.8333219,5.26350441 3.8333219,5.26350441 -0.9014265,5.20748496 -2.6387235,9.63777436 -4.7725461,13.69936347 1.9285428,4.41650782 3.3685647,9.16694376 7.0945575,12.35480232 0.4895161,-4.59548528 -0.56878,-8.96821015 -1.8165857,-13.31366687 2.4834322,-2.88098909 5.3488736,-2.29703168 8.0311026,-3.37485495 1.4387091,6.29887611 0.9919744,14.94140309 5.2720394,17.70840742 2.0799812,-6.41561006 2.5793285,-12.40849124 3.6253085,-18.54756159 l 6.8457267,1.01050168 c -0.7891782,6.87768372 -4.323017,15.52498661 -2.1188504,20.92283181 3.065888,-4.2284785 6.3484874,-9.91373037 10.0651449,-18.51679293 2.4420623,1.6654011 5.3162082,2.72465705 7.0122906,5.43654247 -3.8046124,4.88153121 -8.7522884,8.86875696 -10.5019145,15.35806798 3.5053146,3.1270227 10.692135,-5.91237482 16.2944237,-9.40345702 1.3638569,1.27377561 2.0358274,3.5110359 2.3161549,5.0450271 -4.009355,2.62061992 -8.1896908,5.09278062 -10.6371999,9.06950542 4.369579,0.1585158 8.8259477,-1.1999746 13.3475131,-3.6982159 3.2932051,4.9314883 3.1246968,10.7742829 3.4764554,16.4801214 9.8205668,8.3683684 17.5972124,22.66482679 10.8072401,43.88911689 -2.0675765,6.4629036 -2.7420682,10.7663635 -10.6890526,17.3245445 -6.8147866,5.6238488 -16.0283582,9.4371669 -23.5390756,8.1857674 -8.6520973,-1.4415731 -18.735642,-6.8557034 -20.1166991,-16.963222 -0.9046561,-6.6209495 2.6851143,-14.7766968 8.4181152,-19.72417 3.477757,-3.0012316 8.0667971,-4.6660906 12.1020558,-5.0525264 6.2214047,-0.5957894 14.186424,5.6188454 14.9660746,11.9562509 0.8537117,6.9394507 -1.1630062,14.8668084 -12.7259266,16.6737333 -4.7963627,-1.6371609 -7.2255936,-3.0111319 -8.6033694,-8.126797 -0.7919154,-2.2106356 0.3255789,-4.5551278 2.6339633,-6.9831115 2.6543858,-3.2415683 8.4495533,-2.5390439 9.0788563,0.885532 0.3334071,1.8143562 -0.7565598,5.77462 -5.2888334,1.3972847 l -1.6848969,2.272352 c -0.2681438,2.9942689 0.5200098,5.4174686 7.3974174,4.5486404 4.9118921,-2.2764404 5.3791198,-6.6227655 4.0770035,-11.793084 -4.0606018,-3.9083515 -7.9803239,-8.0901969 -16.7073464,-2.9397095 -8.1845898,8.2291183 -6.6482684,13.8371513 -4.3117992,19.229441 5.2113776,5.4096494 11.2634212,7.4256462 18.3824095,5.1345154 8.8498183,-4.0234556 15.3008951,-11.0051745 17.0640538,-23.7682928 -1.8294008,-13.4346502 -8.041522,-17.4824204 -14.2979856,-21.43522049 -7.6578091,0.049683 -14.1748908,-1.4486256 -22.2060634,-4.0369058 0,0 0.439885,5.5560117 1.252141,8.19852129 0.6795814,2.2108667 3.6021809,4.0340745 2.9860985,6.2634713 -0.2448771,0.8861447 -1.0367096,3.6861959 -2.2968549,1.526897 0.463819,-1.644072 -0.4591435,-3.1369366 -2.6188504,-4.4949625 -2.3286923,-0.701301 -4.5633851,-0.1450235 -6.6303892,2.6546121 0,0 -0.3335254,0.3483928 -0.5532462,0.3600604 -0.523599,0.027806 -1.1961307,-0.2312621 -1.4018567,-0.7135584 -0.2397166,-0.5619783 0.2052695,-1.2372287 0.5304287,-1.7544854 0.713711,-1.1353367 2.9655614,-2.7185911 2.9655614,-2.7185911 0,0 -1.4130703,-0.6104054 -2.1435743,-0.5241671 -0.985458,0.1163343 -2.6475684,1.3610293 -2.6475684,1.3610293 0,0 -0.7571355,-0.078122 -0.9133779,-0.3665908 -0.3204595,-0.5916738 0.3938145,-1.9798598 0.3938145,-1.9798598 0,0 2.1678035,-0.8638873 3.3124842,-1.0211846 1.4184044,-0.1949114 4.293761,0.1113031 4.293761,0.1113031 -2.3480262,-5.24603419 -5.5035731,-12.20909559 -3.5068336,-17.57390549 1.8689076,-0.9653333 4.1430346,-1.6733815 7.0824356,-1.9590171 l -25.4006699,-9.7358082 c 1.2607903,4.0263128 1.3210017,7.6871994 0.4866824,11.0758125 -0.4101371,0.167803 -0.6783065,1.4933691 -1.2807687,1.8499414 -0.5715403,0.3382688 -1.3664405,0.3909123 -1.6948435,0.5269959 -6.9380658,2.875018 -6.8840641,2.5966 -11.550064,3.6822187 1.4661852,1.7201076 2.3109803,4.6266864 2.2978851,5.3715023 -0.037783,2.1499932 -2.1747409,4.8898778 -1.8683754,0.2280931 0.064878,-0.9872255 -0.7596114,-1.9207467 -2.0209604,-3.4765119 -1.3392912,-0.7965574 -3.2546208,-0.1056312 -4.6476562,0.5030509 -1.3133116,0.5738506 -2.5882593,2.4050758 -3.3941342,2.6301614 -2.6784646,0.7480977 -2.4241182,-0.8127329 1.7620056,-5.1353619 -1.5921394,-1.0670031 -8.6427892,2.7293978 -4.1169606,-2.0989148 2.3453267,-1.7038058 5.8856974,0.024679 8.657495,-0.8242297 3.5184619,-1.0775886 9.6907004,-5.2874509 9.6907004,-5.2874509 0.8460833,-2.894035 0.8607499,-5.310517 -2.7157632,-5.6642564 -3.5153096,-0.028416 -9.0388944,3.2228948 -13.7819049,5.1994499 -2.739169,0.7929172 -5.2430745,2.3548836 -10.6655526,-0.9397431 14.6685456,-10.9674864 9.1799088,-7.9827574 13.0475908,-12.2338187 z"
             id="path1835-0"
             sodipodi:nodetypes="cssaccsscccccccccccccccccssssssacccsccccccccccaacccaaacacacacccccsscsscssccacccccc" />
        <circle
             style="fill:#fff73b;fill-opacity:1;stroke-width:0.183076"
             id="path11799"
             cx="469.3464355"
             cy="-113.7733765"
             r="6.864456654"
             transform="rotate(19.41854166)" />
        <circle
             style="fill:#090908;fill-opacity:1;stroke-width:0.242306"
             id="path11925"
             cx="467.5293579"
             cy="-112.3601227"
             r="2.220853567"
             transform="rotate(19.41854166)" />
        <text
             xml:space="preserve"
             id="text6314"
             style="font-size:64px;line-height:1.25;font-family:Consolas;-inkscape-font-specification:'Consolas, Normal';font-variant-ligatures:none;white-space:pre;shape-inside:url(#rect6316);fill:#fffaff;fill-opacity:1"
             transform="translate(71.99057463,25.9965964)"><tspan
                 x="78.65625"
                 y="107.6601562"
                 id="tspan15850">ログイン</tspan></text>
    </g>
</svg>
