<?xml version="1.0" encoding="UTF-8" standalone="no"?>
<!-- Created with Inkscape (http://www.inkscape.org/) -->

<svg
     width="300"
     height="150"
     viewBox="0 0 300 150"
     version="1.1"
     id="svg5"
     sodipodi:docname="linux入門.svg"
     inkscape:version="1.1 (c68e22c387, 2021-05-23)"
     inkscape:export-filename="C:\Program Files\XAMPP\htdocs\koko-campus.org\pics\subjects\linux入門.png"
     inkscape:export-xdpi="96"
     inkscape:export-ydpi="96"
     xmlns:inkscape="http://www.inkscape.org/namespaces/inkscape"
     xmlns:sodipodi="http://sodipodi.sourceforge.net/DTD/sodipodi-0.dtd"
     xmlns="http://www.w3.org/2000/svg"
     xmlns:svg="http://www.w3.org/2000/svg">
    <sodipodi:namedview
         id="namedview7"
         pagecolor="#ffffff"
         bordercolor="#666666"
         borderopacity="1.0"
         inkscape:pageshadow="2"
         inkscape:pageopacity="0.0"
         inkscape:pagecheckerboard="0"
         inkscape:document-units="px"
         showgrid="false"
         units="px"
         width="600px"
         inkscape:zoom="2.273574851"
         inkscape:cx="158.3409492"
         inkscape:cy="62.67662573"
         inkscape:window-width="1920"
         inkscape:window-height="1009"
         inkscape:window-x="-8"
         inkscape:window-y="-8"
         inkscape:window-maximized="1"
         inkscape:current-layer="layer1" />
    <defs
         id="defs2">
        <rect
             x="156.7495425"
             y="87.70510114"
             width="106.9877829"
             height="33.58918767"
             id="rect32153" />
        <rect
             x="119.4282228"
             y="24.88087976"
             width="184.1185102"
             height="77.13072724"
             id="rect23647" />
        <rect
             x="21.55196253"
             y="59.37785596"
             width="70.94548817"
             height="61.12583224"
             id="rect15119" />
        <clipPath
             clipPathUnits="userSpaceOnUse"
             id="clipPath3444">
            <path
                 d="m 11.52,162 c 0,-80.323 123.787,-145.439 276.48,-145.439 v 0 c 152.693,0 276.481,65.116 276.481,145.439 v 0 c 0,80.322 -123.788,145.439 -276.481,145.439 v 0 c -152.693,0 -276.48,-65.117 -276.48,-145.439"
                 id="path3446" />
        </clipPath>
        <radialGradient
             cx="0"
             cy="0"
             fx="0"
             fy="0"
             gradientTransform="matrix(363.05789,0,0,-363.05789,177.52002,256.30713)"
             gradientUnits="userSpaceOnUse"
             id="radialGradient3452"
             r="1"
             spreadMethod="pad">
            <stop
                 id="stop3454"
                 offset="0"
                 style="stop-opacity:1;stop-color:#aeb2d5" />
            <stop
                 id="stop3456"
                 offset="0.3"
                 style="stop-opacity:1;stop-color:#aeb2d5" />
            <stop
                 id="stop3458"
                 offset="0.75"
                 style="stop-opacity:1;stop-color:#484c89" />
            <stop
                 id="stop3460"
                 offset="1"
                 style="stop-opacity:1;stop-color:#484c89" />
        </radialGradient>
        <clipPath
             clipPathUnits="userSpaceOnUse"
             id="clipPath3468">
            <path
                 d="m 0,324 h 576 v -324 h -576 z"
                 id="path3470" />
        </clipPath>
        <clipPath
             clipPathUnits="userSpaceOnUse"
             id="clipPath3480">
            <path
                 d="m 0,324 h 576 v -324 h -576 z"
                 id="path3482" />
        </clipPath>
        <rect
             x="21.5519619"
             y="59.37785721"
             width="70.94548798"
             height="61.1258316"
             id="rect15119-5" />
        <rect
             x="21.5519619"
             y="59.37785721"
             width="70.94548798"
             height="61.1258316"
             id="rect15119-7" />
        <rect
             x="21.5519619"
             y="59.37785721"
             width="70.94548798"
             height="61.1258316"
             id="rect15119-8" />
        <filter
             inkscape:collect="always"
             style="color-interpolation-filters:sRGB"
             id="filter33243"
             x="-0.1341195789"
             y="-2.145118827"
             width="1.268239158"
             height="5.290237654">
            <feGaussianBlur
                 inkscape:collect="always"
                 stdDeviation="9.87528828"
                 id="feGaussianBlur33245" />
        </filter>
        <filter
             inkscape:collect="always"
             style="color-interpolation-filters:sRGB"
             id="filter34580"
             x="-0.05453450322"
             y="-0.3817415225"
             width="1.109069006"
             height="1.763483045">
            <feGaussianBlur
                 inkscape:collect="always"
                 stdDeviation="1.539116876"
                 id="feGaussianBlur34582" />
        </filter>
    </defs>
    <g
         inkscape:label="レイヤー 1"
         inkscape:groupmode="layer"
         id="layer1">
        <ellipse
             style="opacity:0.628849;fill:#ffff00;fill-opacity:1;stroke:none;stroke-width:5.7;stroke-linecap:round;stroke-linejoin:round;stroke-miterlimit:4;stroke-dasharray:none;stroke-opacity:1;paint-order:markers stroke fill;filter:url(#filter34580)"
             id="path34058"
             cx="242.7479858"
             cy="114.8386612"
             rx="33.86737061"
             ry="4.838195801" />
        <g
             id="g21377"
             transform="translate(-10.13393402,-0.133934018)">
            <g
                 id="g20366"
                 transform="translate(24.8808798,90.19318914)">
                <path
                     style="fill:#cfcfcf"
                     d="m 57.68867138,38.97728805 c -0.8202976,-0.5217744 -1.7029829,-3.3123419 -2.0526944,-6.4894955 -0.5827451,-5.2942813 -0.5007059,-5.574081 1.6343603,-5.574081 1.971585,0 2.285369,0.5827769 2.5526944,4.7410055 0.2296576,3.5723078 0.736181,4.8229249 2.0547912,5.0733242 1.46264,0.27775 1.75,-0.4283381 1.75,-4.3000225 0,-3.415591 -0.3283302,-4.4469734 -1.25,-3.9266198 -0.8544378,0.482396 -0.9335502,0.3692941 -0.25,-0.3574087 0.55,-0.5847215 1.9,-1.2132385 3,-1.3967044 1.7797353,-0.296837 2.0330291,0.2996867 2.2999039,5.4164257 0.1649471,3.1625 0.6490058,5.75 1.0756859,5.75 0.4266802,0 1.7759603,-1.0646409 2.9984003,-2.3658686 l 2.2226181,-2.3658685 -2.4696733,-2.93504 -2.4696733,-2.93504 3.3142769,-0.2232047 c 2.1929574,-0.1476878 3.265927,0.2078661 3.1713693,1.0509085 -0.078599,0.7007623 0.3070922,1.2741133 0.8570922,1.2741133 0.55,0 0.9375,-0.5625 0.8611111,-1.25 -0.076389,-0.6875 0.8986111,-1.25 2.1666667,-1.25 1.2680555,0 2.5118055,-0.5625 2.7638889,-1.25 0.3666666,-1 0.7233333,-1 1.7833333,0 1.0996906,1.0374439 1.0979341,1.25 -0.010329,1.25 -1.3667141,0 -6.0902003,4.5423523 -6.0328673,5.8015219 0.017492,0.384163 0.6924918,1.5719864 1.5,2.6396077 2.0732784,2.7411194 1.8361924,3.5588704 -1.0318034,3.5588704 -1.375,0 -2.4467105,-0.3375 -2.3815789,-0.75 0.3220501,-2.0396507 -0.2298686,-3.2991557 -1.1865948,-2.7078664 -0.5874955,0.3630922 -0.8175587,1.3132596 -0.5112516,2.1114832 0.4538383,1.1826838 -0.5978411,1.4212591 -5.6818264,1.2889321 -3.4313115,-0.089311 -6.9137483,0.1073523 -7.7387483,0.4370294 -0.825,0.329677 -2.1476182,0.1874762 -2.9391518,-0.3160018 z m -38.3108485,-0.7258572 c 1.5310978,-0.6178114 1.7703253,-14.3377193 0.25,-14.3377193 -0.55,0 -1,-0.45 -1,-1 0,-0.55 1.8,-1 4,-1 2.2,0 4,0.45 4,1 0,0.55 -0.45,1 -1,1 -0.5641026,0 -1,2.8333333 -1,6.5 0,5.8668082 0.1978856,6.5 2.0313848,6.5 1.1172616,0 2.2904066,-0.675 2.6069888,-1.5 0.8688452,-2.2641742 2.0705271,-1.8031197 2.6063774,1 0.4745976,2.4826969 0.4286861,2.4994536 -6.6334229,2.4210526 -3.9112304,-0.043421 -6.5488281,-0.305921 -5.8613281,-0.5833333 z m 14.25,-5.2307305 c 0,-4.1331332 0.4187607,-6.0537047 1.4022343,-6.431099 2.178751,-0.8360652 2.5977657,0.2108847 2.5977657,6.4907769 0,5.1666666 -0.2285714,5.8333333 -2,5.8333333 -1.7737433,0 -2,-0.6666667 -2,-5.8930112 z m 6.25,4.8441766 c 2.0756263,-1.2460229 2.4683742,-8.5148138 0.5,-9.2537613 -0.7304515,-0.2742188 -0.2109029,-0.8817635 1.25,-1.461713 1.375,-0.5458478 2.6234837,-0.6767285 2.7744083,-0.290846 0.1509245,0.3858824 1.6632788,0.4977615 3.3607872,0.2486202 3.8589705,-0.5663766 4.8294699,0.845805 4.8494917,7.0565347 0.013744,4.2633214 -0.2152192,4.7501659 -2.2346872,4.7516192 -2.0178786,0.00145 -2.25,-0.4885819 -2.25,-4.75 0,-3.5569948 -0.3771212,-4.7516192 -1.5,-4.7516192 -1.8050506,0 -2.6498641,6.0120354 -1.1061843,7.8720558 0.7895292,0.9513245 0.046037,1.286769 -3.1817695,1.4355314 -3.3350736,0.1537061 -3.847686,-0.024606 -2.4620462,-0.8564218 z m -6.0596291,-14.7011654 c 0.1853605,-0.9625 0.9996936,-1.75 1.8096291,-1.75 0.8099355,0 1.6242686,0.7875 1.8096291,1.75 0.2364621,1.227849 -0.3034805,1.75 -1.8096291,1.75 -1.5061486,0 -2.0460912,-0.522151 -1.8096291,-1.75 z m -5.3988801,-8.0535539 c -4.7896801,-1.3957991 -8.8901709,-3.0235081 -9.1122018,-3.6171313 -0.2220309,-0.5936231 -0.1870786,-3.64148662 0.077672,-6.77302995 0.4446521,-5.25947305 0.7114888,-5.77393697 3.4987208,-6.74557128 3.6765183,-1.28164117 5.6646622,-3.73187989 5.7291214,-7.06071357 0.026625,-1.375 2.7409368,-7.21791547 6.0318033,-12.98425661 5.9609777,-10.4449787 5.9833937,-10.51471792 5.9833937,-18.61514131 0,-6.63771486 0.3701551,-8.60146066 2.0156371,-10.69335201 4.8846927,-6.20988046 14.6048826,-5.2530591 17.5203522,1.72464196 0.8052059,1.92712889 1.4649595,6.10582409 1.4661191,9.28598934 0.00197,5.39844552 0.4001366,6.37931461 6.0005637,14.78211863 6.60675,9.91267699 8.4936671,14.38629094 7.5887365,17.99182167 -0.3293121,1.31208414 -0.1470977,2.6647436 0.404921,3.00590992 0.5520187,0.34116632 1.0036704,1.41530344 1.0036704,2.38697138 0,0.97166794 1.125,2.8235516 2.5,4.11529703 2.6864942,2.52383025 3.2765685,5.48437955 1.25,6.2715604 -0.6875,0.267046 -4.0117576,2.5651909 -7.3872391,5.1069888 -7.0268492,5.2913431 -10.206533,5.7811027 -13.6216015,2.0981047 -1.6643534,-1.7949304 -3.7688972,-2.69036 -7.290469,-3.1019082 -4.4710303,-0.5225067 -5.3273411,-0.2780259 -8.838195,2.5233461 -4.4987058,3.5895963 -3.5898965,3.5713015 -14.8210048,0.2983543 z m 27.8985103,-9.14899821 c 2.6732656,-1.63000093 3.2402166,-2.64180785 3.5,-6.24626194 0.2449722,-3.39895136 0.8012234,-4.51095009 2.6517934,-5.30118595 2.1003114,-0.89688119 2.2803529,-1.45568544 1.7459618,-5.41903311 -0.327708,-2.43046822 -1.6694,-6.25546822 -2.9815378,-8.5 -1.3121377,-2.24453179 -2.95655,-5.99346689 -3.6542494,-8.33096689 -0.6976994,-2.3375 -1.6108471,-4.25 -2.0292172,-4.25 -0.41837,0 -2.1471406,0.7875 -3.8417124,1.75 -2.9092027,1.65239842 -3.2483565,1.65499241 -6.0810395,0.0465103 -2.9178613,-1.65684889 -3,-1.64652976 -3,0.37689164 0,1.14420973 -1.8,5.34117885 -4,9.32659805 -5.4302446,9.83718223 -5.40911,13.44299307 0.1083535,18.48645132 3.1475149,2.87711187 3.9558242,4.23598223 3.4561686,5.8102574 -1.352725,4.26205938 8.3034597,5.80066588 14.125479,2.25073918 z m -0.840679,-49.62669721 c -1.8462537,-1.84625366 -4.4741265,-0.96350293 -5.1812315,1.74047082 -0.4899466,1.87355876 -0.3989646,1.90519799 1.2326098,0.42864341 2.0048528,-1.81436684 3.0686251,-1.20075349 3.1669799,1.82680176 0.064864,1.99663597 0.1136271,1.98793134 1.1717806,-0.20917173 0.8663686,-1.79888921 0.7823649,-2.61424052 -0.3901388,-3.78674426 z m -10.4195865,0.46555921 c -0.8135195,-1.31630227 -2.143727,-1.07401953 -2.7479289,0.50050517 -0.3725864,0.97094457 0.041769,1.23672631 1.3817639,0.88630988 1.0526641,-0.27527784 1.6674383,-0.89934462 1.366165,-1.38681505 z"
                     id="path20396" />
                <path
                     style="fill:#b0b0b2"
                     d="m 19.37782288,38.25143085 c 1.5310978,-0.6178114 1.7703253,-14.3377193 0.25,-14.3377193 -0.55,0 -1,-0.45 -1,-1 0,-0.55 1.5484424,-1 3.440983,-1 1.8925407,0 3.7190983,0.45 4.059017,1 0.3399187,0.55 0.1414763,1 -0.440983,1 -0.6444972,0 -1.059017,2.7399356 -1.059017,7 0,6.4376721 0.1681858,7 2.0936196,7 1.2526157,0 2.3037127,-0.8033971 2.6166314,-2 0.7389572,-2.8257767 2.289749,-2.4871388 2.289749,0.5 0,2.4275504 -0.195614,2.4977121 -6.75,2.4210526 -3.7125,-0.043421 -6.1875,-0.305921 -5.5,-0.5833333 z m 14.25,-5.3377193 c 0,-5.3333333 0.2222222,-6 2,-6 1.7777778,0 2,0.6666667 2,6 0,5.3333333 -0.2222222,6 -2,6 -1.7777778,0 -2,-0.6666667 -2,-6 z m 6.75,5.3377193 c 1.5308002,-0.6176913 1.7091496,-9.3377193 0.190983,-9.3377193 -0.5824593,0 -0.8075987,-0.4068033 -0.5003097,-0.9040074 0.840547,-1.3600336 10.8851454,-1.1812152 11.7693071,0.2095224 0.4176667,0.6569667 0.7662848,3.331985 0.7747068,5.944485 0.013745,4.263614 -0.2150805,4.7500637 -2.2346872,4.7506216 -2.0796319,5.746e-4 -2.2237623,-0.3780212 -1.9034866,-5 0.3132699,-4.520877 0.1453801,-5.0006216 -1.75,-5.0006216 -1.8491494,0 -2.0965134,0.5899414 -2.0965134,5 0,4.8070175 -0.1061404,4.9969529 -2.75,4.9210526 -1.5125,-0.043421 -2.1875,-0.305921 -1.5,-0.5833333 z m 16.2347681,-1.3661803 c -0.5416224,-1.0120308 -0.9847681,-3.6696397 -0.9847681,-5.9057975 0,-3.3990748 0.3279435,-4.0657415 2,-4.0657415 1.7333333,0 2,0.6666667 2,5 0,4.3333333 0.2666667,5 2,5 1.7333333,0 2,-0.6666667 2,-5 0,-3.7777778 0.3666667,-5 1.5,-5 1.1515152,0 1.5,1.2777778 1.5,5.5 0,4.7214752 0.2668203,5.5 1.8849901,5.5 1.0367445,0 2.6294374,-1.1361702 3.5393174,-2.5248227 1.4965054,-2.2839559 1.5074772,-2.7344807 0.11501,-4.7225063 -2.1080561,-3.0096716 -1.9398477,-3.752671 0.8495714,-3.752671 1.3185185,0 2.326658,0.5600775 2.25,1.25 -0.076389,0.6875 0.3111111,1.25 0.8611111,1.25 0.55,0 0.9375,-0.5625 0.8611111,-1.25 -0.076389,-0.6875 0.5986111,-1.2561446 1.5,-1.2636547 0.9013889,-0.00751 2.7638889,-0.2452037 4.1388889,-0.5282081 2.1356593,-0.4395643 2.2085274,-0.3819073 0.5,0.3956252 -1.1,0.5005982 -2.8737498,1.8815301 -3.9416662,3.0687375 -1.8480392,2.0544734 -1.8600942,2.2966494 -0.25,5.0223216 2.2190593,3.756568 2.1551904,4.0551785 -0.8673508,4.0551785 -1.4513673,0 -2.291506,-0.4328419 -1.940983,-1 1.0768593,-1.742395 -0.5192877,-3.2288821 -2.0780172,-1.9352515 -0.769979,0.6390258 -1.1555357,1.557355 -0.8567927,2.0407314 0.2987431,0.4833764 -3.0880659,0.8399972 -7.5262423,0.7924907 -6.7579324,-0.072337 -8.2294607,-0.3854302 -9.0541797,-1.9264316 z m -22.5386188,-13.0586713 c -0.3695366,-0.5979227 -0.2103038,-1.5487132 0.3538507,-2.1128677 1.26163,-1.26163 3.2,-0.1961219 3.2,1.759017 0,1.6836197 -2.5736356,1.9398721 -3.5538507,0.3538507 z m 25.3460533,-8.5752106 c -2.0484836,-2.0484835 -3.9122059,-2.7659912 -8.0830704,-3.1118717 -4.9063726,-0.4068746 -5.6607348,-0.1906918 -7.950137,2.2783256 -2.8166228,3.0376011 -5.0007169,3.0705545 -15.9942034,0.2413188 -7.9624506,-2.0491816 -8.5642846,-2.7266672 -7.9914616,-8.99600188 0.5355659,-5.86157007 1.5894488,-7.74942792 4.3260615,-7.74942792 2.2308556,0 4.4317447,-3.27727254 5.274612,-7.8542536 0.3397338,-1.84483949 2.9703505,-7.24483949 5.8458149,-12 5.042187,-8.33827345 5.2475631,-8.96581785 5.7749143,-17.6457464 0.7694657,-12.66500821 2.7703344,-15.5 10.9395256,-15.5 6.8487513,0 10.0657415,4.77374821 10.0657415,14.93673022 0,5.4781519 0.3801983,6.3890439 6.7228212,16.10676316 5.5861957,8.55877482 6.7274164,11.01791459 6.75,14.54512183 0.014948,2.33468925 0.3646788,4.58235098 0.7771788,4.99480384 0.4125,0.41245285 0.75,1.49647297 0.75,2.40893359 0,0.91246062 1.125,2.71590193 2.5,4.00764736 1.375,1.29174543 2.5,2.92747348 2.5,3.63495122 0,1.90250303 -14.6069425,12.36504878 -17.2630601,12.36504878 -1.255317,0 -3.4804487,-1.1980543 -4.9447373,-2.6623429 z m -1.8077,-9.82363215 c 1.1412811,-1.03284516 2.0154974,-3.08653141 2.0154974,-4.73475397 0,-3.66239924 1.6253539,-6.77927098 3.5351838,-6.77927098 2.5746388,0 1.6592174,-6.10622849 -2.0669046,-13.78708285 -1.9424464,-4.00406864 -3.7986964,-8.61500308 -4.125,-10.24652098 -0.3263035,-1.63151789 -0.7363071,-2.96639617 -0.911119,-2.96639617 -0.1748119,0 -1.9080095,0.93822306 -3.8515502,2.08494014 -3.2326596,1.90731587 -3.7837402,1.96020883 -6.4685415,0.62085354 -2.9156607,-1.45452307 -2.9388489,-1.44267073 -3.5498942,1.81448092 -0.3382846,1.80321215 -1.7925693,5.01132806 -3.2317436,7.12914647 -1.4391744,2.11781841 -3.2443187,5.68895445 -4.0114317,7.93585786 -1.7699459,5.18423917 -0.6947478,8.26360378 4.1848763,11.98547449 2.8474852,2.17188282 3.5050805,3.25742791 3.0563414,5.04534681 -0.3873503,1.54332662 -0.00548,2.62663062 1.1840132,3.35880835 2.6471951,1.62945492 11.871096,0.68319178 14.2402727,-1.46088363 z m -0.9845026,-46.37304194 c 0,-1.76453057 -1.7954435,-4.14098301 -3.1285714,-4.14098301 -1.1173778,0 -3.8714286,3.00658135 -3.8714286,4.22641613 0,0.59595745 0.8240182,0.33783278 1.8311515,-0.57361037 2.0376564,-1.84405366 3.1688485,-1.28257934 3.1688485,1.5728779 0,1.04079268 0.45,1.61423503 1,1.27431634 0.55,-0.33991869 1,-1.40147634 1,-2.35901699 z m -12.5,-1.14098301 c 0.7333333,0 1.560307,0.5625 1.8377193,1.25 0.2774123,0.6875 0.5330215,0.8 0.5680206,0.25 0.034999,-0.55 -0.3340586,-1.62807277 -0.8201279,-2.39571727 -1.1660157,-1.84147699 -4.1072989,-0.65639927 -4.0066646,1.61433247 0.046428,1.04762094 0.2867072,1.26650176 0.5833333,0.5313848 0.2774123,-0.6875 1.104386,-1.25 1.8377193,-1.25 z"
                     id="path20394" />
                <path
                     style="fill:#929293"
                     d="m 19.37782288,38.25143085 c 0.8288404,-0.3344444 1.25,-2.8067251 1.25,-7.3377193 0,-4.5309942 -0.4211596,-7.0032749 -1.25,-7.3377193 -0.6875,-0.2774123 0.325,-0.5409597 2.25,-0.5856609 l 3.5,-0.081275 -0.3290041,7.5023276 c -0.3129091,7.1353121 -0.2227188,7.5023276 1.8436196,7.5023276 1.3316198,0 2.3750771,-0.7741828 2.6956355,-2 0.7389572,-2.8257767 2.289749,-2.4871388 2.289749,0.5 0,2.4275504 -0.195614,2.4977121 -6.75,2.4210526 -3.7125,-0.043421 -6.1875,-0.305921 -5.5,-0.5833333 z m 14.25,-5.3377193 c 0,-5.3333333 0.2222222,-6 2,-6 1.7777778,0 2,0.6666667 2,6 0,5.3333333 -0.2222222,6 -2,6 -1.7777778,0 -2,-0.6666667 -2,-6 z m 6.75,5.3377193 c 1.6214637,-0.6542748 1.6989581,-9.3377193 0.083333,-9.3377193 -0.6416666,0 -0.8614159,-0.3052508 -0.4883316,-0.678335 0.3730843,-0.3730843 2.9398093,-0.8163039 5.7038334,-0.9849325 5.5679268,-0.33969 5.551391,-0.3579822 6.2494669,6.9132675 0.4373881,4.5558905 0.3507074,4.75 -2.1211392,4.75 -2.00446,0 -2.3104961,-0.2666667 -1.3771628,-1.2 2.4786933,-2.4786933 1.1088454,-8.8 -1.9069888,-8.8 -1.6049468,0 -1.8930112,0.760863 -1.8930112,5 0,4.8070175 -0.1061404,4.9969529 -2.75,4.9210526 -1.5125,-0.043421 -2.1875,-0.305921 -1.4999997,-0.5833333 z m 16.7700662,-0.6591479 c -0.1992896,-0.6482143 -0.5675553,-3.3160714 -0.8183682,-5.9285714 -0.3976217,-4.1416785 -0.2156197,-4.75 1.4211392,-4.75 1.5859287,0 1.8771628,0.7757295 1.8771628,5 0,4.3333333 0.2666667,5 2,5 1.7333333,0 2,-0.6666667 2,-5 0,-3.7777778 0.3666667,-5 1.5,-5 1.1487179,0 1.5,1.2685185 1.5,5.4166667 0,3.4177109 0.4612975,5.5889306 1.25,5.8834586 0.6875,0.2567356 -1.3639575,0.4870927 -4.5587945,0.5119048 -3.6230078,0.028137 -5.9451409,-0.398371 -6.1711393,-1.1334587 z m 14.5706029,-1.5873377 c 2.0162614,-2.7271394 2.0493513,-3.0532391 0.5299374,-5.2225063 -2.1917495,-3.1291608 -2.0448806,-3.8687274 0.7682824,-3.8687274 1.3185185,0 2.326658,0.5600775 2.25,1.25 -0.076389,0.6875 0.3111111,1.25 0.8611111,1.25 0.55,0 0.9375,-0.5625 0.8611111,-1.25 -0.079001,-0.7110097 0.9663443,-1.25 2.424314,-1.25 h 2.563203 l -2.3393358,2.4901088 c -2.1414105,2.2794271 -2.2223292,2.7236162 -0.9564014,5.25 0.7606139,1.5179402 1.5473736,3.0973912 1.748355,3.5098912 0.2009814,0.4125 -0.8236369,0.75 -2.2769296,0.75 -1.5069228,0 -2.3767789,-0.4297036 -2.0243163,-1 1.0768593,-1.742395 -0.5192877,-3.2288821 -2.0780172,-1.9352515 -0.769979,0.6390258 -1.1533589,1.5608771 -0.8519553,2.0485583 0.3014036,0.4876813 -0.392023,0.8866932 -1.5409479,0.8866932 h -2.0889544 z m -37.6445198,-12.178366 c -1.0305214,-1.6674186 1.2872092,-3.5795092 2.6667184,-2.2 1.1539247,1.1539247 0.4317213,3.2871323 -1.1128677,3.2871323 -0.4850813,0 -1.1843141,-0.4892095 -1.5538507,-1.0871323 z m 25.5040709,-8.6082083 c -2.4426618,-2.0553645 -4.5538964,-2.793039 -8.891731,-3.1068097 -5.2426336,-0.3792178 -5.8223781,-0.2071462 -7.3965479,2.1953407 -2.1233721,3.2406754 -4.5277294,3.2875525 -15.1619413,0.2956079 l -8,-2.2508069 -0.3024213,-5.80336868 c -0.320985,-6.15959733 0.7877837,-8.63462272 3.868162,-8.63462272 2.1740292,0 4.9342593,-3.62953403 4.9342593,-6.48824963 0,-1.12378044 2.6925271,-6.76115263 5.9833937,-12.52749376 5.754432,-10.08306413 5.9840291,-10.75597623 6,-17.58503334 0.020813,-8.89939447 1.4299505,-13.04449145 5.0753636,-14.92960787 9.0226141,-4.66577505 15.9412427,1.39609392 15.9412427,13.96717897 0,4.67335906 0.5910884,6.2120516 4.9533927,12.89443175 6.8741922,10.53020634 8.2466073,13.43088853 8.2466073,17.42970236 0,4.34781235 2.4251994,10.28824984 4.9110325,12.02939515 1.0389321,0.72769637 1.8889675,1.92229993 1.8889675,2.65467458 0,1.66801136 -14.88519,12.55500179 -17.1657712,12.55500179 -0.924428,0 -3.1222319,-1.2129033 -4.8840086,-2.6953406 z m -1.8771073,-9.87082567 c 1.0597879,-0.95909487 1.9330317,-2.68656445 1.9405418,-3.83882129 0.025663,-3.93745259 1.1703985,-6.4098807 3.2153784,-6.94465495 1.7809704,-0.46573422 1.9786252,-1.1156617 1.5353385,-5.04848999 -0.2798325,-2.48266663 -1.6431792,-6.68342456 -3.0296593,-9.33501763 -1.3864801,-2.65159307 -3.0902162,-6.72137691 -3.7860802,-9.04396409 -1.400179,-4.67338088 -1.6038511,-4.79823925 -4.3897617,-2.69108241 -2.2692717,1.71639081 -5.8871938,1.89803456 -8.6246119,0.43301287 -1.5597401,-0.83474757 -1.9342585,-0.70604787 -1.9342585,0.66468959 0,0.93493034 -1.7629776,4.9121095 -3.917728,8.83817591 -2.1547505,3.9260664 -4.234467,8.8266661 -4.6215923,10.89022155 -0.660866,3.52271865 -0.4219966,4.02199571 3.9101978,8.17296784 3.1823469,3.0492245 4.5388252,5.11785001 4.3715923,6.6666658 -0.4964516,4.59785197 10.6251369,5.49472137 15.3306431,1.2362968 z m -14.7833639,-45.43383373 c -0.3637336,-1.39091938 -0.030682,-2 1.0936196,-2 0.8891473,0 1.6166314,0.75 1.6166314,1.66666667 0,0.91666666 0.2660878,1.40057889 0.5913062,1.0753605 1.0391328,-1.03913281 -0.6710282,-4.74202717 -2.1900787,-4.74202717 -1.7498932,0 -2.8418861,2.40927892 -2.0396011,4.5 0.8448757,2.20171089 1.5371141,1.82878692 0.9281226,-0.5 z m 13.210251,-0.97434684 c 0,-1.26922409 -0.8138561,-2.80672409 -1.8085691,-3.41666666 -1.4480853,-0.88794346 -2.0958749,-0.72208081 -3.25,0.83214314 -0.792787,1.06762129 -1.427747,2.64262129 -1.4110222,3.5 0.025227,1.29322832 0.2041011,1.26065854 1.0496901,-0.19112964 1.4760397,-2.5342063 4.2956038,-2.29469083 3.615219,0.30710452 -0.3422342,1.30870576 -0.1118073,1.91505864 0.6333686,1.66666666 0.6442225,-0.21474081 1.1713136,-1.42889392 1.1713136,-2.69811802 z"
                     id="path20392" />
                <path
                     style="fill:#fbb001"
                     d="m 19.46525078,38.03534835 c 0.9684371,-0.6138503 1.2443329,-2.8174141 1,-7.98694 l -0.3374279,-7.1392024 3,0.017566 c 1.9669093,0.011517 2.5516927,0.301922 1.698157,0.8433105 -0.9040542,0.5734318 -1.2096124,2.7840496 -1,7.2346872 0.2750538,5.8401352 0.5080081,6.4381514 2.6247753,6.7380506 1.6664519,0.2360994 2.4757551,-0.2552869 2.8636901,-1.7387527 0.6472489,-2.4750835 2.3133776,-1.7774393 2.3133776,0.9686614 0,1.731121 -0.7298201,1.9393274 -6.75,1.9256702 -4.0824076,-0.00926 -6.22145,-0.3503377 -5.4125721,-0.8630508 z m 14.7987563,-4.8330235 c 0.1847655,-7.7506512 2.089879,-8.0071729 2.522331,-0.3396295 0.2745227,4.8673966 0.047348,6.0544356 -1.1585152,6.0535131 -1.1740595,-8.982e-4 -1.470408,-1.242489 -1.3638158,-5.7138836 z m 6.1138158,5.049106 c 0.735187,-0.2966544 1.25,-2.3233918 1.25,-4.9210526 0,-2.8504487 -0.4432692,-4.4274501 -1.25,-4.4470754 -0.8148345,-0.019822 -0.7278014,-0.3234347 0.25,-0.8721174 0.825,-0.4629398 3.525,-0.7867559 6,-0.7195913 l 4.5,0.1221174 0.5119166,5.75 c 0.4996977,5.6127536 0.4519598,5.7496345 -2,5.7346872 -1.735277,-0.010578 -2.1040432,-0.2739352 -1.1927153,-0.8517857 0.8266047,-0.5241296 1.2000098,-2.2920863 1,-4.7346872 -0.2589994,-3.1630047 -0.743555,-3.9584821 -2.5692013,-4.2177653 -2.0794714,-0.295332 -2.25,0.064673 -2.25,4.75 0,4.8828914 -0.1012543,5.0666442 -2.75,4.9906036 -1.5125,-0.043421 -2.1875,-0.305921 -1.5,-0.5833333 z m 16.8179961,-0.2276993 c -0.212963,-0.3445814 -0.5251425,-2.8695734 -0.6937321,-5.6110933 -0.2499366,-4.0643423 0.010301,-5.045597 1.4096047,-5.3150783 1.4394273,-0.2772084 1.7161313,0.4875112 1.7161313,4.7428274 0,4.4066575 0.2628126,5.0733242 2,5.0733242 1.7333333,0 2,-0.6666667 2,-5 0,-3.7777778 0.3666667,-5 1.5,-5 1.1487179,0 1.5,1.2685185 1.5,5.4166667 0,3.4200798 0.4607508,5.5870892 1.25,5.8790169 0.6875,0.2542926 -1.3475796,0.4575122 -4.5223992,0.4515992 -3.1748195,-0.00591 -5.9466416,-0.2926813 -6.1596047,-0.6372628 z m 14.4227116,-1.6001288 c 2.1414105,-2.2794271 2.2223292,-2.7236162 0.9564014,-5.25 -0.7606139,-1.5179402 -1.5473736,-3.0973912 -1.748355,-3.5098912 -0.2009814,-0.4125 0.5986369,-0.75 1.7769296,-0.75 1.1782926,0 1.8957474,0.3990119 1.5943438,0.8866932 -0.3014036,0.4876812 0.081976,1.4095325 0.8519553,2.0485583 1.5587295,1.2936306 3.1548765,-0.1928565 2.0780172,-1.9352515 -0.3514804,-0.5687073 0.5031053,-1 1.981452,-1 h 2.599486 l -2.4824093,2.6771669 -2.4824092,2.6771669 1.9419402,2.7272036 c 2.4450489,3.4337544 2.4305666,3.9184626 -0.1170767,3.9184626 -1.1324593,0 -1.8124141,-0.3990119 -1.5110105,-0.8866932 0.3014036,-0.4876812 -0.1563357,-1.4712453 -1.0171984,-2.1856979 -1.2894426,-1.0701423 -1.7163348,-1.0544713 -2.4230065,0.088948 -0.4717909,0.7633736 -0.6359363,1.7469377 -0.3647676,2.1856978 0.2711687,0.4387602 -0.511965,0.7977458 -1.740297,0.7977458 h -2.2333311 z m -37.4950728,-12.516954 c -0.3423194,-0.5538846 0.1005305,-1.2844769 0.9841111,-1.6235386 1.9146486,-0.7347196 2.9817174,0.074921 2.0613725,1.5640702 -0.8303785,1.3435808 -2.2349083,1.3710066 -3.0454836,0.0594684 z m 25.9167156,-8.6820134 c -2.0391881,-2.2003204 -3.5795139,-2.767729 -8.4746872,-3.1218138 -5.5007178,-0.397886 -6.1859706,-0.2132275 -8.5085071,2.2928309 -2.8486954,3.0737933 -3.9679064,3.0597283 -15.9291562,-0.2001793 l -7,-1.9077733 -0.1298877,-6.26315974 c -0.1216953,-5.86811928 0.035989,-6.3336254 2.5,-7.38035564 4.0646744,-1.72670397 6.1298877,-3.8305443 6.1298877,-6.24453915 0,-2.14942388 2.3127877,-7.00985634 8.930019,-18.76685635 2.8939214,-5.14170236 3.2762202,-6.73095463 3.457399,-14.3727374 0.1969219,-8.30579516 0.3109034,-8.68759826 3.4239191,-11.46907742 4.097832,-3.66141243 8.943953,-3.85198516 12.8353487,-0.50474749 2.4435592,2.10186115 2.838268,3.30406321 3.4599622,10.53833652 0.6645442,7.73289097 0.9917975,8.60118228 6.1725669,16.37748489 7.2300021,10.85218788 7.7207851,11.90254736 7.7207851,16.52379807 0,4.75089079 2.103326,10.05488251 4.92842,12.42807793 1.139369,0.95711689 2.07158,2.17299859 2.07158,2.70195933 0,0.52896073 -2.1375,2.41184145 -4.75,4.18417935 -2.6125,1.7723379 -6.0220264,4.2689562 -7.5767253,5.5480407 -3.6900696,3.0359001 -6.2018582,2.9373187 -9.2609242,-0.3634681 z m -6.7274502,-7.37753624 c 4.8738013,-1.8466334 7.3150997,-4.88618423 7.3150997,-9.10770159 0,-3.1590193 0.3485214,-3.82568597 2,-3.82568597 3.2166276,0 2.7135963,-7.44034027 -0.9774237,-14.45708181 -1.6375831,-3.1130953 -3.5088125,-7.43379088 -4.1582877,-9.60154573 -1.3149425,-4.38888705 -1.6457856,-4.57387544 -4.423159,-2.47317583 -2.230872,1.68734672 -7.0284013,2.00862876 -7.9411296,0.53180337 -0.9011195,-1.45804204 -2.5,-1.22274872 -2.5,0.36790324 0,0.75234678 -2.025,5.33645514 -4.5,10.18690748 -2.475,4.85045233 -4.5,9.87917432 -4.5,11.17493775 0,1.42257248 1.8339767,4.31660297 4.6292133,7.30493692 3.5980578,3.84661489 4.3804263,5.24877331 3.5123227,6.29477422 -0.8629697,1.03981476 -0.6081629,1.59341087 1.1207867,2.43503437 5.0062369,2.43695162 6.6031295,2.61604342 10.4225776,1.16889358 z m -10.1849003,-46.93338756 c -0.3399187,-0.55 -0.2977869,-1.51817072 0.093626,-2.15149049 0.4914815,-0.79523376 1.1528609,-0.56319315 2.1377058,0.75 1.3536186,1.80491632 1.4093519,1.77503766 1.0973567,-0.58829384 -0.3758355,-2.84691604 -3.5231011,-3.97013936 -4.4387018,-1.58412224 -0.6265724,1.63282151 0.1049492,4.57390657 1.1376452,4.57390657 0.324721,0 0.3122865,-0.45 -0.0276319,-1 z m 13.0351262,-0.0568355 c 0.3592382,-0.5812595 0.3772224,-2.1562595 0.039965,-3.5 -0.6608327,-2.63296705 -3.3608272,-3.25742854 -5.3750912,-1.24316454 -1.4531372,1.45313717 -1.5925898,4.8 -0.2,4.8 0.55,0 1,-0.675 1,-1.5 0,-0.825 0.7274841,-1.5 1.6166314,-1.5 1.1243019,0 1.4573532,0.60908062 1.0936196,2 -0.5496506,2.10186722 0.7072683,2.75149049 1.8248752,0.94316454 z"
                     id="path20390" />
                <path
                     style="fill:#717882"
                     d="m 19.46525078,38.03534835 c 0.9684371,-0.6138503 1.2443329,-2.8174141 1,-7.98694 l -0.3374279,-7.1392024 3,0.017566 c 1.9669093,0.011517 2.5516927,0.301922 1.698157,0.8433105 -0.9040542,0.5734318 -1.2096124,2.7840496 -1,7.2346872 0.2750538,5.8401352 0.5080081,6.4381514 2.6247753,6.7380506 1.6664519,0.2360994 2.4757551,-0.2552869 2.8636901,-1.7387527 0.6472489,-2.4750835 2.3133776,-1.7774393 2.3133776,0.9686614 0,1.731121 -0.7298201,1.9393274 -6.75,1.9256702 -4.0824076,-0.00926 -6.22145,-0.3503377 -5.4125721,-0.8630508 z m 14.7987563,-4.8330235 c 0.1847655,-7.7506512 2.089879,-8.0071729 2.522331,-0.3396295 0.2745227,4.8673966 0.047348,6.0544356 -1.1585152,6.0535131 -1.1740595,-8.982e-4 -1.470408,-1.242489 -1.3638158,-5.7138836 z m 6.1138158,5.049106 c 0.735187,-0.2966544 1.25,-2.3233918 1.25,-4.9210526 0,-2.8504487 -0.4432692,-4.4274501 -1.25,-4.4470754 -0.8148345,-0.019822 -0.7278014,-0.3234347 0.25,-0.8721174 0.825,-0.4629398 3.525,-0.7867559 6,-0.7195913 l 4.5,0.1221174 0.5119166,5.75 c 0.4996977,5.6127536 0.4519598,5.7496345 -2,5.7346872 -1.735277,-0.010578 -2.1040432,-0.2739352 -1.1927153,-0.8517857 0.8266047,-0.5241296 1.2000098,-2.2920863 1,-4.7346872 -0.2589994,-3.1630047 -0.743555,-3.9584821 -2.5692013,-4.2177653 -2.0794714,-0.295332 -2.25,0.064673 -2.25,4.75 0,4.8828914 -0.1012543,5.0666442 -2.75,4.9906036 -1.5125,-0.043421 -2.1875,-0.305921 -1.5,-0.5833333 z m 16.8179961,-0.2276993 c -0.212963,-0.3445814 -0.5251425,-2.8695734 -0.6937321,-5.6110933 -0.2499366,-4.0643423 0.010301,-5.045597 1.4096047,-5.3150783 1.4394273,-0.2772084 1.7161313,0.4875112 1.7161313,4.7428274 0,4.4066575 0.2628126,5.0733242 2,5.0733242 1.7333333,0 2,-0.6666667 2,-5 0,-3.7777778 0.3666667,-5 1.5,-5 1.1487179,0 1.5,1.2685185 1.5,5.4166667 0,3.4200798 0.4607508,5.5870892 1.25,5.8790169 0.6875,0.2542926 -1.3475796,0.4575122 -4.5223992,0.4515992 -3.1748195,-0.00591 -5.9466416,-0.2926813 -6.1596047,-0.6372628 z m 14.4227116,-1.6001288 c 2.1414105,-2.2794271 2.2223292,-2.7236162 0.9564014,-5.25 -0.7606139,-1.5179402 -1.5473736,-3.0973912 -1.748355,-3.5098912 -0.2009814,-0.4125 0.5986369,-0.75 1.7769296,-0.75 1.1782926,0 1.8957474,0.3990119 1.5943438,0.8866932 -0.3014036,0.4876812 0.081976,1.4095325 0.8519553,2.0485583 1.5587295,1.2936306 3.1548765,-0.1928565 2.0780172,-1.9352515 -0.3514804,-0.5687073 0.5031053,-1 1.981452,-1 h 2.599486 l -2.4824093,2.6771669 -2.4824092,2.6771669 1.9419402,2.7272036 c 2.4450489,3.4337544 2.4305666,3.9184626 -0.1170767,3.9184626 -1.1324593,0 -1.8124141,-0.3990119 -1.5110105,-0.8866932 0.3014036,-0.4876812 -0.1563357,-1.4712453 -1.0171984,-2.1856979 -1.2894426,-1.0701423 -1.7163348,-1.0544713 -2.4230065,0.088948 -0.4717909,0.7633736 -0.6359363,1.7469377 -0.3647676,2.1856978 0.2711687,0.4387602 -0.511965,0.7977458 -1.740297,0.7977458 h -2.2333311 z m -37.4950728,-12.516954 c -0.3423194,-0.5538846 0.1005305,-1.2844769 0.9841111,-1.6235386 1.9146486,-0.7347196 2.9817174,0.074921 2.0613725,1.5640702 -0.8303785,1.3435808 -2.2349083,1.3710066 -3.0454836,0.0594684 z m 30.8618148,-7.021143 c 1.5715973,-0.4709652 3.6186515,-1.4447865 4.5490093,-2.1640473 0.9303578,-0.7192608 0.6319118,-0.2952469 -0.6632134,0.9422531 -1.2951251,1.2375 -3.3421793,2.2113213 -4.5490093,2.1640473 -1.8202207,-0.071302 -1.7071736,-0.2319123 0.6632134,-0.9422531 z m -29.1074497,-0.6611197 c 0.9625,-0.2515276 2.5375,-0.2515276 3.5,0 0.9625,0.2515275 0.175,0.4573228 -1.75,0.4573228 -1.925,0 -2.7125,-0.2057953 -1.75,-0.4573228 z m 6.9031609,-2.5268236 c 1.0175245,-2.43069 0.7418928,-3.2898591 -2.6226419,-8.17501358 -2.0678152,-3.00237551 -5.017646,-6.95510844 -6.5551796,-8.78385094 l -2.7955154,-3.32498638 -3.0095664,2.86011521 c -1.6552615,1.57306336 -3.6082219,2.62108968 -4.339912,2.32894737 -0.9590455,-0.38291865 -0.8851769,-0.55320209 0.2646668,-0.61011521 2.1874771,-0.10827223 4.9049876,-3.30323427 4.9049876,-5.76676671 0,-1.98893412 2.4167191,-7.0207607 8.930019,-18.59310324 2.8939214,-5.14170236 3.2762202,-6.73095463 3.457399,-14.3727374 0.1969219,-8.30579516 0.3109034,-8.68759826 3.4239191,-11.46907742 4.097832,-3.66141243 8.943953,-3.85198516 12.8353487,-0.50474749 2.4435592,2.10186115 2.838268,3.30406321 3.4599622,10.53833652 0.6635909,7.7217985 0.9980791,8.61233701 6.1514182,16.37748489 2.997318,4.51641491 5.8426399,8.88666348 6.3229375,9.71166348 0.9854833,1.69275003 2.2675014,12.93444383 1.4488065,12.70421932 -0.2913956,-0.0819431 -1.7451842,0.66334232 -3.2306413,1.65618984 -4.9192105,3.28789432 -6.2325555,2.05467166 -6.8359728,-6.41893524 -0.4015274,-5.63852886 -1.1927536,-8.66000657 -3.1397432,-11.98982466 -1.4316167,-2.44840709 -3.1688391,-6.3476434 -3.8604943,-8.66496958 -1.1084053,-3.71360865 -1.5662426,-4.17236682 -3.8602567,-3.86802079 -1.4314861,0.18991474 -3.8402019,0.837271 -5.3527019,1.43856947 -1.5125,0.60129847 -2.75,0.88544684 -2.75,0.63144081 0,-0.51608078 6.8192067,-3.55374864 8.7210556,-3.88486103 2.6006636,-0.4527762 2.4574972,-1.62673514 -0.3461552,-2.83845816 -3.0991344,-1.33942868 -3.5915572,-4.76534998 -0.6849449,-4.76534998 1.0509778,0 1.3764616,0.63801869 1.0202955,2 -0.2876565,1.1 -0.1416982,2 0.3243516,2 1.4848757,0 2.1731737,-2.03601711 1.5404886,-4.55683546 -1.0579197,-4.21508776 -6.5726781,-2.53239345 -6.5770785,2.00683546 -0.00151,1.55869957 -0.7126845,2.09965459 -2.9674419,2.25718873 -3.1630466,0.22099399 -4.601071,-0.97508306 -3.4369445,-2.85867922 0.4914815,-0.79523376 1.1528609,-0.56319315 2.1377058,0.75 1.3536186,1.80491632 1.4093519,1.77503766 1.0973567,-0.58829384 -0.3758355,-2.84691604 -3.5231011,-3.97013936 -4.4387018,-1.58412224 -0.3321805,0.86564861 -0.259846,2.36140657 0.1607435,3.32390657 0.4205894,0.9625 0.6535368,2.40164394 0.5176609,3.19809765 -0.135876,0.7964537 0.5541587,2.0339537 1.5334103,2.75 1.623904,1.1874276 1.6317585,1.30190235 0.089328,1.30190235 -0.9301213,0 -1.6911296,0.61555646 -1.6911296,1.36790324 0,0.75234678 -2.025,5.33645514 -4.5,10.18690748 -2.475,4.85045233 -4.5,9.87917432 -4.5,11.17493775 0,1.42257248 1.8339767,4.31660297 4.6292133,7.30493692 3.5082557,3.75060917 4.3680868,5.26364146 3.5508407,6.24836279 -0.7993448,0.96315163 -0.630224,1.57923274 0.6536099,2.3810003 5.0104398,3.12907152 11.3120039,2.35182162 16.0582358,-1.98066092 l 2.3918997,-2.18338756 -0.630894,4 c -0.3469917,2.2 -0.6358466,4.7763621 -0.6418997,5.7252492 -0.00917,1.4379725 -0.4381285,1.5628573 -2.5761054,0.75 -1.4108048,-0.5363871 -4.7309173,-0.9752492 -7.3780279,-0.9752492 -3.8463248,0 -5.1370561,0.4518783 -6.4268309,2.25 -1.5959954,2.2250348 -1.6012867,2.2198625 -0.4768807,-0.4661491 z m -13.3406609,0.5330351 c 0.721875,-0.2888706 1.584375,-0.2533443 1.9166667,0.078947 0.3322916,0.3322917 -0.2583334,0.5686404 -1.3125,0.5252193 -1.164943,-0.047984 -1.4018994,-0.2849403 -0.6041667,-0.6041663 z m -4,-1 c 0.721875,-0.2888706 1.584375,-0.2533443 1.9166667,0.078947 0.3322916,0.3322917 -0.2583334,0.5686404 -1.3125,0.5252193 -1.164943,-0.047984 -1.4018994,-0.2849403 -0.6041667,-0.6041663 z m -5.2548629,-1.2236272 c -0.3082183,-0.4987077 0.340224,-0.6712236 1.440983,-0.3833687 2.3349873,0.6106129 2.6301467,1.2901099 0.5603969,1.2901099 -0.7925407,0 -1.6931616,-0.4080336 -2.0013799,-0.9067412 z m 52.8749328,0.015845 c 0.7134555,-1.1543951 4.5674301,-3.4826768 4.5674301,-2.7592978 0,0.2310956 -1.1804056,1.1936053 -2.6231236,2.1389104 -1.442718,0.9453051 -2.3176559,1.2244795 -1.9443065,0.6203874 z m 6.5189725,-4.38841911 c 1.1623182,-1.54107423 1.0210904,-2.12772628 -1.0547684,-4.38144482 -2.3115581,-2.50961262 -2.3174631,-2.55377822 -0.1660839,-1.24219744 3.0826761,1.87934267 3.66023,3.96984444 1.6108225,5.83049873 -1.5999458,1.45258864 -1.6296735,1.43681974 -0.3899702,-0.20685647 z m -59.9515424,-5.661668 c 0,-1.06754065 0.3849944,-2.17892263 0.8555431,-2.46973773 0.4705488,-0.29081511 0.643089,0.58262724 0.3834229,1.940983 -0.5640161,2.9504593 -1.238966,3.23850835 -1.238966,0.52875473 z"
                     id="path20388" />
                <path
                     style="fill:#b48325"
                     d="m 19.46525078,38.03534835 c 0.9684371,-0.6138503 1.2443329,-2.8174141 1,-7.98694 l -0.3374279,-7.1392024 3,0.0812 c 1.65,0.04466 2.4375,0.3081738 1.75,0.5855861 -0.8309026,0.3352765 -1.25,2.8233918 -1.25,7.4210526 v 6.9166667 h 3 c 2.361996,0 3,-0.437887 3,-2.059017 0,-1.1324593 0.45,-1.7809017 1,-1.440983 0.55,0.3399187 1,1.4914763 1,2.559017 0,1.731121 -0.7298201,1.9393274 -6.75,1.9256702 -4.0824076,-0.00926 -6.22145,-0.3503377 -5.4125721,-0.8630502 z m 14.7987563,-4.8330235 c 0.1847655,-7.7506512 2.089879,-8.0071729 2.522331,-0.3396295 0.2745227,4.8673966 0.047348,6.0544356 -1.1585152,6.0535131 -1.1740595,-8.982e-4 -1.470408,-1.242489 -1.3638158,-5.7138836 z m 7.2103292,0.7120083 c 0.2554291,-3.6861624 -0.00743,-5.0086148 -1,-5.0310303 -1.0144595,-0.02291 -0.9766092,-0.2379764 0.1534866,-0.8721174 0.825,-0.4629398 3.525,-0.7867559 6,-0.7195913 l 4.5,0.1221174 0.5119166,5.75 c 0.4996977,5.6127536 0.4519598,5.7496345 -2,5.7346872 -1.735277,-0.010578 -2.1040432,-0.2739352 -1.1927153,-0.8517857 0.8266047,-0.5241296 1.2000098,-2.2920863 1,-4.7346872 -0.2589994,-3.1630047 -0.743555,-3.9584821 -2.5692013,-4.2177653 -2.0794714,-0.295332 -2.25,0.064673 -2.25,4.75 0,4.1612403 -0.3135472,5.0696624 -1.75,5.0701726 -1.4796202,5.256e-4 -1.6964627,-0.771988 -1.4034866,-5 z m 15.7214827,4.1093984 c -0.212963,-0.3445814 -0.5251425,-2.8695734 -0.6937321,-5.6110933 -0.2409281,-3.9178508 0.033039,-5.0499761 1.2801851,-5.2901544 1.2052808,-0.2321159 1.4704526,0.3025978 1.1030861,2.2243514 -0.7623614,3.9880361 0.5178153,7.5668763 2.7067256,7.5668763 1.5831878,0 1.9804275,-0.8318601 2.230948,-4.6718308 0.4529413,-6.9426713 2.8047912,-6.9383412 2.8047912,0.00516 0,3.4867466 0.4575576,5.6692415 1.25,5.9623503 0.6875,0.2542926 -1.3475796,0.4575122 -4.5223992,0.4515992 -3.1748195,-0.00591 -5.9466416,-0.2926813 -6.1596047,-0.6372628 z m 14.4227116,-1.6001288 c 2.1414105,-2.2794271 2.2223292,-2.7236162 0.9564014,-5.25 -0.7606139,-1.5179402 -1.5473736,-3.0973912 -1.748355,-3.5098912 -0.2009814,-0.4125 0.6470792,-0.75 1.8845792,-0.75 1.2375,0 1.9539042,0.2960958 1.5920093,0.6579907 -0.3618949,0.3618949 -0.1521895,1.267444 0.466012,2.0123312 0.8442932,1.017311 1.4615225,1.0742239 2.4803136,0.2287025 0.745971,-0.619101 1.1097079,-1.52465 0.8083043,-2.0123312 -0.3014036,-0.4876813 0.3570642,-0.8866932 1.4632616,-0.8866932 1.9081465,0 1.8865768,0.1345441 -0.4206909,2.6241272 l -2.431959,2.6241271 1.9797079,2.7802434 c 2.4846476,3.4893657 2.4750195,3.9715023 -0.079309,3.9715023 -1.1324593,0 -1.8473633,-0.3424628 -1.5886755,-0.7610284 0.2586877,-0.4185657 -0.1290351,-1.5807246 -0.8616063,-2.5825755 -1.2815821,-1.7526679 -1.3714322,-1.7477693 -2.3761407,0.1295456 -0.5743061,1.0731009 -0.7600257,2.2352598 -0.4127101,2.5825754 0.3473156,0.3473156 -0.4219584,0.6314829 -1.7094978,0.6314829 h -2.3409807 z m -36.9907077,-12.9265579 c 0,-0.8708333 0.7125,-1.5833333 1.5833333,-1.5833333 1.7659268,0 1.4583898,2.152759 -0.3958333,2.7708333 -0.653125,0.2177084 -1.1875,-0.3166666 -1.1875,-1.1875 z m 2.2690319,-7.276324 c 0.9729675,-0.2535434 2.3229675,-0.2368691 3,0.037054 0.6770325,0.2739231 -0.1190319,0.4813677 -1.7690319,0.460988 -1.65,-0.02038 -2.2039356,-0.2444986 -1.2309681,-0.498042 z m 29.8143014,0.4323339 c 0.2291667,-0.1433612 1.5416667,-1.1558612 2.9166667,-2.25 l 2.5,-1.9893432 -1.9049876,2.25 c -1.0477431,1.2375 -2.3602431,2.25 -2.9166666,2.25 -0.5564235,0 -0.8241791,-0.1172955 -0.5950125,-0.2606568 z m -23.9301724,-2.9554923 c 1.0175245,-2.43069 0.7418928,-3.2898591 -2.6226419,-8.17501358 -2.0678152,-3.00237551 -5.017646,-6.95510844 -6.5551796,-8.78385094 l -2.7955154,-3.32498638 -3.0095664,2.86011521 c -1.6552615,1.57306336 -3.6082219,2.62108968 -4.339912,2.32894737 -0.9590455,-0.38291865 -0.8851769,-0.55320209 0.2646668,-0.61011521 2.1771194,-0.10775956 4.9049876,-3.29901758 4.9049876,-5.73821004 0,-2.06046693 1.7670954,-5.75481216 8.5088482,-17.78886586 3.6316963,-6.48259128 3.8977827,-7.51163143 3.9713312,-15.35839158 0.076646,-8.17718123 0.1685202,-8.49040102 3.3151019,-11.30187147 4.1142796,-3.6761083 8.953895,-3.87158981 12.8514045,-0.51909331 2.4425626,2.10100391 2.838345,3.30495919 3.4584194,10.52038414 0.6788749,7.89964884 0.9030736,8.45868807 7.3593614,18.35055658 5.7814939,8.85799688 6.6261869,10.73880005 6.4090125,14.27038021 -0.1375784,2.23723096 0.093055,4.62299817 0.5125189,5.3017049 0.4194639,0.67870673 0.3917131,1.12278994 -0.061668,0.98685158 -0.4533814,-0.13593836 -2.0397038,0.56516912 -3.5251609,1.55801664 -4.9014452,3.27602033 -6.2272182,2.04827446 -6.879232,-6.3705845 -0.4346733,-5.61253964 -1.3516521,-8.99369299 -3.6584802,-13.48982466 -3.2763433,-6.38576873 -5.4221237,-13.0059997 -4.5109119,-13.91721142 0.3036487,-0.30364874 -0.7653913,-1.12149611 -2.3756444,-1.8174386 -3.0991344,-1.33942868 -3.5915572,-4.76534998 -0.6849449,-4.76534998 1.0652584,0 1.3766755,0.63720072 1.0053623,2.05710452 -0.3422342,1.30870576 -0.1118073,1.91505864 0.6333686,1.66666666 1.9588819,-0.65296061 1.4326952,-6.1460436 -0.6267257,-6.54265181 -2.4117256,-0.46445593 -4.7015049,1.57578976 -4.703948,4.19132535 -0.00154,1.64467309 -0.675044,2.17458003 -2.9674419,2.33474401 -3.1630466,0.22099399 -4.601071,-0.97508306 -3.4369445,-2.85867922 0.4914815,-0.79523376 1.1528609,-0.56319315 2.1377058,0.75 1.3536186,1.80491632 1.4093519,1.77503766 1.0973567,-0.58829384 -0.3758355,-2.84691604 -3.5231011,-3.97013936 -4.4387018,-1.58412224 -0.3321805,0.86564861 -0.259846,2.36140657 0.1607435,3.32390657 0.4205894,0.9625 0.6535368,2.40164394 0.5176609,3.19809765 -0.135876,0.7964537 0.5541587,2.0339537 1.5334103,2.75 1.623904,1.1874276 1.6317585,1.30190235 0.089328,1.30190235 -0.9301213,0 -1.6911296,0.61555646 -1.6911296,1.36790324 0,0.75234678 -2.025,5.33645514 -4.5,10.18690748 -2.475,4.85045233 -4.5,9.87917432 -4.5,11.17493775 0,1.42257248 1.8339767,4.31660297 4.6292133,7.30493692 3.6687785,3.92222104 4.3907822,5.23629517 3.4799962,6.33372517 -0.9211246,1.1098873 -0.4312834,1.72540355 2.4680084,3.10120761 4.5673986,2.16737253 9.2412924,1.39541973 13.5615861,-2.23986772 l 3.1976774,-2.69066817 -0.657235,3.98045886 c -0.3614793,2.18925236 -0.6621876,4.75682096 -0.6682407,5.70570806 -0.00917,1.4379725 -0.4381285,1.5628573 -2.5761054,0.75 -1.4108048,-0.5363871 -4.7309173,-0.9752492 -7.3780279,-0.9752492 -3.8463248,0 -5.1370561,0.4518783 -6.4268309,2.25 -1.5959954,2.2250348 -1.6012867,2.2198625 -0.4768809,-0.4661491 z m -17.3406609,-0.4669649 c 0.721875,-0.2888706 1.584375,-0.2533443 1.9166667,0.078947 0.3322916,0.3322917 -0.2583334,0.5686404 -1.3125,0.5252193 -1.164943,-0.047984 -1.4018994,-0.2849403 -0.6041667,-0.6041663 z m 47.6200699,-1.2077819 c 0.7134555,-1.1543951 4.5674301,-3.4826768 4.5674301,-2.7592978 0,0.2310956 -1.1804056,1.1936053 -2.6231236,2.1389104 -1.442718,0.9453051 -2.3176559,1.2244795 -1.9443065,0.6203874 z m 6.5189725,-4.38841911 c 1.1607239,-1.53896035 1.0220528,-2.14683244 -1.0265647,-4.5 l -2.3685703,-2.72068499 2.9425755,2.74350649 c 2.8834969,2.6884246 2.9041074,2.77877195 1.0265647,4.5 -1.8299872,1.67763171 -1.8557585,1.67660711 -0.5740052,-0.0228215 z m -59.872595,-5.30401832 c 0.047984,-1.16494299 0.2849403,-1.40189937 0.6041666,-0.60416667 0.2888706,0.721875 0.2533443,1.584375 -0.078947,1.91666667 -0.3322917,0.33229166 -0.5686404,-0.25833334 -0.5252196,-1.3125 z m 25.9210526,-32.91134367 c 0,-0.55425104 6.9826287,-3.52831978 8.25,-3.51387254 0.4125,0.004702 0.6375,0.34604954 0.5,0.75854954 -0.1375,0.4125 -0.5569313,0.64768957 -0.9320695,0.52264349 -0.3751383,-0.12504608 -2.2876383,0.44349292 -4.25,1.26342002 -1.9623618,0.81992709 -3.5679305,1.25609386 -3.5679305,0.96925949 z"
                     id="path20386" />
                <path
                     style="fill:#727271"
                     d="m 19.46525078,38.03534835 c 0.9684371,-0.6138503 1.2443329,-2.8174141 1,-7.98694 l -0.3374279,-7.1392024 3,0.0812 c 1.65,0.04466 2.4375,0.3081738 1.75,0.5855861 -0.8309026,0.3352765 -1.25,2.8233918 -1.25,7.4210526 v 6.9166667 h 3 c 2.361996,0 3,-0.437887 3,-2.059017 0,-1.1324593 0.45,-1.7809017 1,-1.440983 0.55,0.3399187 1,1.4914763 1,2.559017 0,1.731121 -0.7298201,1.9393274 -6.75,1.9256702 -4.0824076,-0.00926 -6.22145,-0.3503377 -5.4125721,-0.8630502 z m 14.7987563,-4.8330235 c 0.1847655,-7.7506512 2.089879,-8.0071729 2.522331,-0.3396295 0.2745227,4.8673966 0.047348,6.0544356 -1.1585152,6.0535131 -1.1740595,-8.982e-4 -1.470408,-1.242489 -1.3638158,-5.7138836 z m 7.2103292,0.7120083 c 0.2554291,-3.6861624 -0.00743,-5.0086148 -1,-5.0310303 -1.0144595,-0.02291 -0.9766092,-0.2379764 0.1534866,-0.8721174 0.825,-0.4629398 3.525,-0.7867559 6,-0.7195913 l 4.5,0.1221174 0.5119166,5.75 c 0.4996977,5.6127536 0.4519598,5.7496345 -2,5.7346872 -1.735277,-0.010578 -2.1040432,-0.2739352 -1.1927153,-0.8517857 0.8266047,-0.5241296 1.2000098,-2.2920863 1,-4.7346872 -0.2589994,-3.1630047 -0.743555,-3.9584821 -2.5692013,-4.2177653 -2.0794714,-0.295332 -2.25,0.064673 -2.25,4.75 0,4.1612403 -0.3135472,5.0696624 -1.75,5.0701726 -1.4796202,5.256e-4 -1.6964627,-0.771988 -1.4034866,-5 z m 15.7214827,4.1093984 c -0.212963,-0.3445814 -0.5251425,-2.8695734 -0.6937321,-5.6110933 -0.2409281,-3.9178508 0.033039,-5.0499761 1.2801851,-5.2901544 1.2052808,-0.2321159 1.4704526,0.3025978 1.1030861,2.2243514 -0.7623614,3.9880361 0.5178153,7.5668763 2.7067256,7.5668763 1.5831878,0 1.9804275,-0.8318601 2.230948,-4.6718308 0.4529413,-6.9426713 2.8047912,-6.9383412 2.8047912,0.00516 0,3.4867466 0.4575576,5.6692415 1.25,5.9623503 0.6875,0.2542926 -1.3475796,0.4575122 -4.5223992,0.4515992 -3.1748195,-0.00591 -5.9466416,-0.2926813 -6.1596047,-0.6372628 z m 14.4227116,-1.6001288 c 2.1414105,-2.2794271 2.2223292,-2.7236162 0.9564014,-5.25 -0.7606139,-1.5179402 -1.5473736,-3.0973912 -1.748355,-3.5098912 -0.2009814,-0.4125 0.6470792,-0.75 1.8845792,-0.75 1.2375,0 1.9539042,0.2960958 1.5920093,0.6579907 -0.3618949,0.3618949 -0.1521895,1.267444 0.466012,2.0123312 0.8442932,1.017311 1.4615225,1.0742239 2.4803136,0.2287025 0.745971,-0.619101 1.1097079,-1.52465 0.8083043,-2.0123312 -0.3014036,-0.4876813 0.3570642,-0.8866932 1.4632616,-0.8866932 1.9081465,0 1.8865768,0.1345441 -0.4206909,2.6241272 l -2.431959,2.6241271 1.9797079,2.7802434 c 2.4846476,3.4893657 2.4750195,3.9715023 -0.079309,3.9715023 -1.1324593,0 -1.8473633,-0.3424628 -1.5886755,-0.7610284 0.2586877,-0.4185657 -0.1290351,-1.5807246 -0.8616063,-2.5825755 -1.2815821,-1.7526679 -1.3714322,-1.7477693 -2.3761407,0.1295456 -0.5743061,1.0731009 -0.7600257,2.2352598 -0.4127101,2.5825754 0.3473156,0.3473156 -0.4219584,0.6314829 -1.7094978,0.6314829 h -2.3409807 z m -36.9907077,-12.9265579 c 0,-0.8708333 0.7125,-1.5833333 1.5833333,-1.5833333 1.7659268,0 1.4583898,2.152759 -0.3958333,2.7708333 -0.653125,0.2177084 -1.1875,-0.3166666 -1.1875,-1.1875 z m 33,-6.9608886 c 0,-0.2076554 0.7875,-0.9951554 1.75,-1.75 1.5860556,-1.2438706 1.6214259,-1.2085003 0.3775553,0.3775553 -1.3063698,1.665748 -2.1275553,2.1954789 -2.1275553,1.3724447 z m -11,-3.8087157 c -1.375,-0.5242332 -4.8631135,-0.8092812 -7.7513634,-0.6334401 -4.3155071,0.2627347 -5.2511203,0.029661 -5.25,-1.3078442 7.499e-4,-0.8951554 -0.6845113,-2.1967807 -1.5228026,-2.89250068 -2.3648159,-1.96262291 -1.1383261,-2.15714915 2.417263,-0.38338767 4.1044962,2.04759235 9.0062311,1.20047785 13.1295105,-2.26903299 l 3.0814809,-2.59289525 -0.6875124,5.38268599 c -0.3781318,2.9604772 -0.7390517,5.4427339 -0.8020442,5.516126 -0.062993,0.073392 -1.2395318,-0.295478 -2.6145318,-0.8197111 z m 23.1003914,-5.51825061 c 0.7281443,-1.21248688 1.5391477,-1.98927259 1.8022299,-1.72619047 0.2630821,0.26308212 -0.3326723,1.25511684 -1.3238987,2.2045216 -1.7219394,1.64928768 -1.7432494,1.62797768 -0.4783312,-0.47833113 z m -43.6448316,-7.79547839 c -2.4143446,-3.50552085 -4.4983133,-5.5 -5.7467774,-5.5 -3.0163322,0 -1.6353364,-4.56172175 4.7809899,-15.79262276 3.0306253,-5.30469461 5.5102277,-10.22145684 5.5102277,-10.92613827 0,-0.70468143 0.7053245,-1.28123897 1.5673877,-1.28123897 2.0946162,0 1.3993891,2.27068003 -4.1333726,13.5 -2.4388984,4.95 -4.434283,10.03177844 -4.4341879,11.29284099 1.013e-4,1.34454976 1.8985329,4.32234143 4.5901528,7.19990084 4.049914,4.32968568 4.9947984,7.00725817 2.4727805,7.00725817 -0.4505631,0 -2.5238034,-2.475 -4.6072007,-5.5 z m -16.3766124,2.91666667 c 0.047984,-1.16494299 0.2849403,-1.40189937 0.6041666,-0.60416667 0.2888706,0.721875 0.2533443,1.584375 -0.078947,1.91666667 -0.3322917,0.33229166 -0.5686404,-0.25833334 -0.5252196,-1.3125 z m 3.9210526,-4.12610185 c 0.825,-0.30334724 2.4,-1.28032093 3.5,-2.17105263 1.9829659,-1.60571871 1.9837751,-1.6003488 0.095012,0.63048781 -1.0477431,1.2375 -2.6227431,2.21447368 -3.5,2.17105263 -1.3537871,-0.0670076 -1.3681565,-0.16236083 -0.095012,-0.63048781 z m 41,-5.54404384 c 0,-5.13473109 -0.6416649,-7.57617727 -3.5867224,-13.64698165 -1.9726973,-4.06642644 -3.8351399,-9.01486088 -4.1387614,-10.99652098 -0.3036214,-1.98166009 -0.9614476,-4.1254559 -1.4618359,-4.76399067 -0.559255,-0.71365335 -0.5057907,-1.4106619 0.1387614,-1.809017 1.6508937,-1.02030839 1.2255589,-5.52485876 -0.5873645,-6.22054274 -2.2106841,-0.8483191 -4.7929139,0.91646047 -5.1836282,3.54265961 -0.421794,2.83510305 -2.9531762,2.76587628 -3.360898,-0.0919119 -0.3879875,-2.71946708 -3.5704234,-3.57300666 -4.4803958,-1.20165661 -0.3601381,0.93850471 -0.1429926,2.52590046 0.4825455,3.52754611 0.6416869,1.02750412 0.7459273,2.06308143 0.2391925,2.37626076 -1.3574,0.83891935 -2.3172764,-4.98537251 -1.5601635,-9.46668521 1.3514507,-7.9991676 10.2856188,-11.66401557 16.1459561,-6.62316561 2.4425626,2.10100391 2.838345,3.30495919 3.4584194,10.52038414 0.6788749,7.89964884 0.9030736,8.45868807 7.3593614,18.35055658 5.9844874,9.16900922 6.6361862,10.6613302 6.4324452,14.72961586 -0.2840068,5.67102634 -2.206988,8.02692831 -6.5518994,8.02692831 h -3.3450124 z m -21.5,-31.74652098 c -0.8155052,-1.31951519 0.3802085,-3.1920692 1.5690983,-2.4572949 1.2146161,0.75067405 1.2067238,3.4572949 -0.010081,3.4572949 -0.5175407,0 -1.2190983,-0.45 -1.5590173,-1 z m 8.5,-0.91666667 c 0,-1.2283376 0.645689,-2.08333333 1.5733242,-2.08333333 0.9312389,0 1.4413731,0.68036957 1.25,1.6671337 -0.4865512,2.50876938 -2.8233242,2.8532442 -2.8233242,0.41619963 z"
                     id="path20384" />
                <path
                     style="fill:#857358"
                     d="m 20.42782288,37.71371155 c 1.6373382,-1.6373382 1.5954771,-13.4737549 -0.05,-14.1377193 -0.6875,-0.2774123 0.325,-0.504386 2.25,-0.504386 1.925,0 2.9375,0.2269737 2.25,0.504386 -0.8309026,0.3352765 -1.25,2.8233918 -1.25,7.4210526 v 6.9166667 h 2.9266758 c 1.9464255,0 3.07985,-0.5861388 3.3839987,-1.75 0.3441446,-1.3169103 0.4860308,-1.1931704 0.5733241,0.5 0.1074298,2.0837428 -0.3051834,2.25 -5.5839986,2.25 -4.4333333,0 -5.4333333,-0.2666667 -4.5,-1.2 z m 13.8361842,-4.5113867 c 0.1847655,-7.7506512 2.089879,-8.0071729 2.522331,-0.3396295 0.2745227,4.8673966 0.047348,6.0544356 -1.1585152,6.0535131 -1.1740595,-8.982e-4 -1.470408,-1.242489 -1.3638158,-5.7138836 z m 6.8638158,0.4631591 c 0,-2.8884748 0.3398345,-5.5047729 0.7551878,-5.8139957 0.4153534,-0.3092227 2.6653534,-0.5342227 5,-0.5 l 4.2448122,0.062223 0.5119166,5.75 c 0.4996977,5.6127536 0.4519598,5.7496345 -2,5.7346872 -1.735277,-0.010578 -2.1040432,-0.2739352 -1.1927153,-0.8517857 0.8266047,-0.5241296 1.2000098,-2.2920863 1,-4.7346872 -0.2589994,-3.1630047 -0.743555,-3.9584821 -2.5692013,-4.2177653 -2.0794714,-0.295332 -2.25,0.064673 -2.25,4.75 0,4.160802 -0.3136986,5.0698687 -1.75,5.0713234 -1.4447444,0.00146 -1.75,-0.9143036 -1.75,-5.2499997 z m 16.0679961,4.3582476 c -1.0247129,-1.6580202 -0.8924081,-10.5018827 0.1623687,-10.8534749 0.7409007,-0.2469669 1.2649927,1.3405752 1.4622222,4.4292592 0.2604626,4.0789364 0.6422944,4.8618526 2.5000881,5.1262346 1.957695,0.2785989 2.2256098,-0.1952707 2.5,-4.4218308 0.4539757,-6.9928005 2.8073249,-7.040478 2.8073249,-0.056875 0,3.4867466 0.4575576,5.6692415 1.25,5.9623503 0.6875,0.2542926 -1.3475796,0.4575122 -4.5223992,0.4515992 -3.1748195,-0.00591 -5.9466416,-0.2926813 -6.1596047,-0.6372626 z m 14.4227116,-1.6001288 c 2.1414105,-2.2794271 2.2223292,-2.7236162 0.9564014,-5.25 -0.7606139,-1.5179402 -1.5473736,-3.0973912 -1.748355,-3.5098912 -0.2009814,-0.4125 0.5986369,-0.75 1.7769296,-0.75 1.1782926,0 1.8982182,0.395014 1.5998346,0.8778088 -0.2983836,0.4827949 1.0250587,2.9307988 2.940983,5.4400088 4.0681348,5.3278746 4.1569572,5.6821824 1.4244817,5.6821824 -1.1324593,0 -1.8473633,-0.3424628 -1.5886755,-0.7610284 0.2586877,-0.4185657 -0.1055128,-1.5485561 -0.8093347,-2.5110898 -1.1145741,-1.5242709 -1.4367869,-1.5607543 -2.4974143,-0.2827764 -0.6697561,0.8070067 -0.9274402,1.936997 -0.5726314,2.5110897 0.3745649,0.6060587 -0.2914973,1.0438049 -1.5882241,1.0438049 h -2.2333311 z m 5.0092923,-5.2508742 c 0,-0.6275407 0.4573404,-1.4236349 1.0163119,-1.7690983 0.5589715,-0.3454634 0.7574139,-1.0470211 0.440983,-1.559017 -0.3164309,-0.5119959 0.4372371,-0.9309017 1.6748177,-0.9309017 1.9020531,0 2.0272066,0.1933727 0.809017,1.25 -0.7926213,0.6875 -2.0036296,1.9025 -2.6911296,2.7 -0.7557463,0.8766657 -1.25,0.9988519 -1.25,0.309017 z m -42,-7.759017 c 0,-0.9166667 0.48375,-1.5054167 1.075,-1.3083333 0.59125,0.1970833 1.075,0.7858333 1.075,1.3083333 0,0.5225 -0.48375,1.11125 -1.075,1.3083333 -0.59125,0.1970834 -1.075,-0.3916666 -1.075,-1.3083333 z m 22.6775252,-10.6605899 c -0.9931976,-0.5558214 -4.4777689,-0.8595701 -7.7434917,-0.6749972 -4.6230941,0.2612891 -5.9372745,0.020925 -5.9358557,-1.0856722 0.001,-0.7816927 -0.7519144,-2.2541289 -1.673148,-3.2720806 -1.624483,-1.79503346 -1.5580973,-1.80198864 2.2024159,-0.23074588 5.0379293,2.10498128 9.9681077,1.28120738 13.6956227,-2.28837497 l 2.9108713,-2.78753925 -0.7024381,5.5 c -0.3863409,3.025 -0.757726,5.5787487 -0.8253003,5.6749972 -0.067574,0.096248 -0.9354785,-0.2797658 -1.9286761,-0.8355871 z m 22.8867677,-6.13253817 c 0.3755314,-0.98622044 0.9346919,-1.54122044 1.242579,-1.23333333 0.3078871,0.3078871 6.342e-4,1.11479473 -0.6827842,1.79312807 -0.9876158,0.98026723 -1.1024794,0.86540373 -0.5597948,-0.55979474 z m -44.0993643,-7.19326891 c -2.0885501,-3.03248166 -4.5621425,-5.51360302 -5.4968721,-5.51360302 -2.7192542,0 -0.9731631,-6.33315009 4.1355987,-15 2.4315227,-4.125 4.9682667,-8.7375 5.6372088,-10.25 0.6689421,-1.5125 1.6318653,-2.75 2.1398293,-2.75 1.3273992,0 -1.5228197,8.84272688 -4.1856069,12.98573183 -6.2069712,9.6573671 -6.2309943,13.2840221 -0.1272933,19.21689836 3.8335975,3.72630636 4.3368763,4.63159773 3.1311462,5.63226488 -1.1803759,0.979625 -2.1140255,0.20878734 -5.2340107,-4.32129205 z m 28.5350714,-6.76708204 c 0,-5.05690288 -0.6465034,-7.59223303 -3.3787198,-13.25 -3.8837547,-8.0423276 -4.9326408,-11.99045226 -5.0427597,-18.98151131 -0.062463,-3.96552802 -0.446231,-5.05607374 -1.8765598,-5.33257567 -2.3226513,-0.44899998 -4.7019607,1.54474374 -4.7019607,3.94001072 0,1.0326554 -0.675,1.87755528 -1.5,1.87755528 -0.825,0 -1.5,-0.81 -1.5,-1.8 0,-2.35499273 -1.8828214,-4.18219604 -3.621855,-3.51486623 -2.7323839,1.04851408 -1.5146009,-4.70252406 1.6701265,-7.88725139 2.6809874,-2.68098744 3.542094,-2.98203596 7.1467488,-2.4985503 6.4173914,0.86075281 8.1750612,3.35904449 8.8528417,12.58312613 0.5567958,7.57757136 0.8049216,8.20688921 6.9932687,17.73693023 5.5168713,8.49596959 6.4419786,10.58129793 6.6014367,14.88061156 0.2258655,6.08979188 -1.5598307,8.5 -6.297555,8.5 h -3.3450124 z m -22.9210526,-30.32985431 c 0.047984,-1.16494299 0.2849403,-1.40189937 0.6041666,-0.60416667 0.2888706,0.721875 0.2533443,1.584375 -0.078947,1.91666667 -0.3322917,0.33229166 -0.5686404,-0.25833334 -0.5252196,-1.3125 z m 1.5969424,-1.81890101 c -0.6251219,-1.62904163 0.2147622,-2.78338043 1.4635904,-2.01156217 1.1359301,0.70204343 1.1101206,3.41379651 -0.032491,3.41379651 -0.4911562,0 -1.1351507,-0.63100545 -1.4310994,-1.40223434 z m 8.3241102,-0.51443233 c 0,-1.2283376 0.645689,-2.08333333 1.5733242,-2.08333333 0.9312389,0 1.4413731,0.68036957 1.25,1.6671337 -0.4865512,2.50876938 -2.8233242,2.8532442 -2.8233242,0.41619963 z"
                     id="path20382" />
                <path
                     style="fill:#986f1e"
                     d="m 20.42782288,37.71371155 c 1.6373382,-1.6373382 1.5954771,-13.4737549 -0.05,-14.1377193 -0.6875,-0.2774123 0.325,-0.504386 2.25,-0.504386 1.925,0 2.9375,0.2269737 2.25,0.504386 -0.8309026,0.3352765 -1.25,2.8233918 -1.25,7.4210526 v 6.9166667 h 2.9266758 c 1.9464255,0 3.07985,-0.5861388 3.3839987,-1.75 0.3441446,-1.3169103 0.4860308,-1.1931704 0.5733241,0.5 0.1074298,2.0837428 -0.3051834,2.25 -5.5839986,2.25 -4.4333333,0 -5.4333333,-0.2666667 -4.5,-1.2 z m 13.8361842,-4.5113867 c 0.1847655,-7.7506512 2.089879,-8.0071729 2.522331,-0.3396295 0.2745227,4.8673966 0.047348,6.0544356 -1.1585152,6.0535131 -1.1740595,-8.982e-4 -1.470408,-1.242489 -1.3638158,-5.7138836 z m 6.8638158,0.4631591 c 0,-2.8884748 0.3398345,-5.5047729 0.7551878,-5.8139957 0.4153534,-0.3092227 2.6653534,-0.5342227 5,-0.5 l 4.2448122,0.062223 0.5119166,5.75 c 0.4996977,5.6127536 0.4519598,5.7496345 -2,5.7346872 -1.735277,-0.010578 -2.1040432,-0.2739352 -1.1927153,-0.8517857 0.8266047,-0.5241296 1.2000098,-2.2920863 1,-4.7346872 -0.2589994,-3.1630047 -0.743555,-3.9584821 -2.5692013,-4.2177653 -2.0794714,-0.295332 -2.25,0.064673 -2.25,4.75 0,4.160802 -0.3136986,5.0698687 -1.75,5.0713234 -1.4447444,0.00146 -1.75,-0.9143036 -1.75,-5.2499997 z m 16.0679961,4.3582476 c -1.0247129,-1.6580202 -0.8924081,-10.5018827 0.1623687,-10.8534749 0.7409007,-0.2469669 1.2649927,1.3405752 1.4622222,4.4292592 0.2604626,4.0789364 0.6422944,4.8618526 2.5000881,5.1262346 1.957695,0.2785989 2.2256098,-0.1952707 2.5,-4.4218308 0.4539757,-6.9928005 2.8073249,-7.040478 2.8073249,-0.056875 0,3.4867466 0.4575576,5.6692415 1.25,5.9623503 0.6875,0.2542926 -1.3475796,0.4575122 -4.5223992,0.4515992 -3.1748195,-0.00591 -5.9466416,-0.2926813 -6.1596047,-0.6372626 z m 14.4227116,-1.6001288 c 2.1414105,-2.2794271 2.2223292,-2.7236162 0.9564014,-5.25 -0.7606139,-1.5179402 -1.5473736,-3.0973912 -1.748355,-3.5098912 -0.2009814,-0.4125 0.5986369,-0.75 1.7769296,-0.75 1.1782926,0 1.8982182,0.395014 1.5998346,0.8778088 -0.2983836,0.4827949 1.0250587,2.9307988 2.940983,5.4400088 4.0681348,5.3278746 4.1569572,5.6821824 1.4244817,5.6821824 -1.1324593,0 -1.8473633,-0.3424628 -1.5886755,-0.7610284 0.2586877,-0.4185657 -0.1055128,-1.5485561 -0.8093347,-2.5110898 -1.1145741,-1.5242709 -1.4367869,-1.5607543 -2.4974143,-0.2827764 -0.6697561,0.8070067 -0.9274402,1.936997 -0.5726314,2.5110897 0.3745649,0.6060587 -0.2914973,1.0438049 -1.5882241,1.0438049 h -2.2333311 z m 5.0092923,-5.2508742 c 0,-0.6275407 0.4573404,-1.4236349 1.0163119,-1.7690983 0.5589715,-0.3454634 0.7574139,-1.0470211 0.440983,-1.559017 -0.3164309,-0.5119959 0.4372371,-0.9309017 1.6748177,-0.9309017 1.9020531,0 2.0272066,0.1933727 0.809017,1.25 -0.7926213,0.6875 -2.0036296,1.9025 -2.6911296,2.7 -0.7557463,0.8766657 -1.25,0.9988519 -1.25,0.309017 z m -42,-7.759017 c 0,-0.9166667 0.48375,-1.5054167 1.075,-1.3083333 0.59125,0.1970833 1.075,0.7858333 1.075,1.3083333 0,0.5225 -0.48375,1.11125 -1.075,1.3083333 -0.59125,0.1970834 -1.075,-0.3916666 -1.075,-1.3083333 z m 22.6775252,-10.6605899 c -0.9931976,-0.5558214 -4.4777689,-0.8595701 -7.7434917,-0.6749972 -4.6230941,0.2612891 -5.9372745,0.020925 -5.9358557,-1.0856722 0.001,-0.7816927 -0.7519144,-2.2541289 -1.673148,-3.2720806 -1.624483,-1.79503346 -1.5580973,-1.80198864 2.2024159,-0.23074588 5.0379293,2.10498128 9.9681077,1.28120738 13.6956227,-2.28837497 l 2.9108713,-2.78753925 -0.7024381,5.5 c -0.3863409,3.025 -0.757726,5.5787487 -0.8253003,5.6749972 -0.067574,0.096248 -0.9354785,-0.2797658 -1.9286761,-0.8355871 z m -21.2125966,-13.32580708 c -2.0885501,-3.03248166 -4.5621425,-5.51360302 -5.4968721,-5.51360302 -2.7192542,0 -0.9731631,-6.33315009 4.1355987,-15 2.4315227,-4.125 4.9682667,-8.7375 5.6372088,-10.25 0.6689421,-1.5125 1.6318653,-2.75 2.1398293,-2.75 1.3273992,0 -1.5228197,8.84272688 -4.1856069,12.98573183 -6.2069712,9.6573671 -6.2309943,13.2840221 -0.1272933,19.21689836 3.8335975,3.72630636 4.3368763,4.63159773 3.1311462,5.63226488 -1.1803759,0.979625 -2.1140255,0.20878734 -5.2340107,-4.32129205 z m 28.5350714,-6.76708204 c 0,-5.05690288 -0.6465034,-7.59223303 -3.3787198,-13.25 -3.8837547,-8.0423276 -4.9326408,-11.99045226 -5.0427597,-18.98151131 -0.062463,-3.96552802 -0.446231,-5.05607374 -1.8765598,-5.33257567 -2.3226513,-0.44899998 -4.7019607,1.54474374 -4.7019607,3.94001072 0,1.0326554 -0.675,1.87755528 -1.5,1.87755528 -0.825,0 -1.5,-0.81 -1.5,-1.8 0,-2.35499273 -1.8828214,-4.18219604 -3.621855,-3.51486623 -2.7323839,1.04851408 -1.5146009,-4.70252406 1.6701265,-7.88725139 2.6809874,-2.68098744 3.542094,-2.98203596 7.1467488,-2.4985503 6.4173914,0.86075281 8.1750612,3.35904449 8.8528417,12.58312613 0.5567958,7.57757136 0.8049216,8.20688921 6.9932687,17.73693023 5.5168713,8.49596959 6.4419786,10.58129793 6.6014367,14.88061156 0.2258655,6.08979188 -1.5598307,8.5 -6.297555,8.5 h -3.3450124 z m -22.9210526,-30.32985431 c 0.047984,-1.16494299 0.2849403,-1.40189937 0.6041666,-0.60416667 0.2888706,0.721875 0.2533443,1.584375 -0.078947,1.91666667 -0.3322917,0.33229166 -0.5686404,-0.25833334 -0.5252196,-1.3125 z m 1.5969424,-1.81890101 c -0.6251219,-1.62904163 0.2147622,-2.78338043 1.4635904,-2.01156217 1.1359301,0.70204343 1.1101206,3.41379651 -0.032491,3.41379651 -0.4911562,0 -1.1351507,-0.63100545 -1.4310994,-1.40223434 z m 8.3241102,-0.51443233 c 0,-1.2283376 0.645689,-2.08333333 1.5733242,-2.08333333 0.9312389,0 1.4413731,0.68036957 1.25,1.6671337 -0.4865512,2.50876938 -2.8233242,2.8532442 -2.8233242,0.41619963 z"
                     id="path20380" />
                <path
                     style="fill:#6b5530"
                     d="m 20.42782288,37.71371155 c 1.6373382,-1.6373382 1.5954771,-13.4737549 -0.05,-14.1377193 -0.6875,-0.2774123 0.325,-0.504386 2.25,-0.504386 1.925,0 2.9375,0.2269737 2.25,0.504386 -0.8309026,0.3352765 -1.25,2.8233918 -1.25,7.4210526 v 6.9166667 h 2.9266758 c 1.9464255,0 3.07985,-0.5861388 3.3839987,-1.75 0.3441446,-1.3169103 0.4860308,-1.1931704 0.5733241,0.5 0.1074298,2.0837428 -0.3051834,2.25 -5.5839986,2.25 -4.4333333,0 -5.4333333,-0.2666667 -4.5,-1.2 z m 13.8361842,-4.5113867 c 0.1847655,-7.7506512 2.089879,-8.0071729 2.522331,-0.3396295 0.2745227,4.8673966 0.047348,6.0544356 -1.1585152,6.0535131 -1.1740595,-8.982e-4 -1.470408,-1.242489 -1.3638158,-5.7138836 z m 6.8638158,0.4631591 c 0,-2.8884748 0.3398345,-5.5047729 0.7551878,-5.8139957 0.4153534,-0.3092227 2.6653534,-0.5342227 5,-0.5 l 4.2448122,0.062223 0.5119166,5.75 c 0.4996977,5.6127536 0.4519598,5.7496345 -2,5.7346872 -1.735277,-0.010578 -2.1040432,-0.2739352 -1.1927153,-0.8517857 0.8266047,-0.5241296 1.2000098,-2.2920863 1,-4.7346872 -0.2589994,-3.1630047 -0.743555,-3.9584821 -2.5692013,-4.2177653 -2.0794714,-0.295332 -2.25,0.064673 -2.25,4.75 0,4.160802 -0.3136986,5.0698687 -1.75,5.0713234 -1.4447444,0.00146 -1.75,-0.9143036 -1.75,-5.2499997 z m 16.0679961,4.3582476 c -1.0247129,-1.6580202 -0.8924081,-10.5018827 0.1623687,-10.8534749 0.7409007,-0.2469669 1.2649927,1.3405752 1.4622222,4.4292592 0.2604626,4.0789364 0.6422944,4.8618526 2.5000881,5.1262346 1.957695,0.2785989 2.2256098,-0.1952707 2.5,-4.4218308 0.4539757,-6.9928005 2.8073249,-7.040478 2.8073249,-0.056875 0,3.4867466 0.4575576,5.6692415 1.25,5.9623503 0.6875,0.2542926 -1.3475796,0.4575122 -4.5223992,0.4515992 -3.1748195,-0.00591 -5.9466416,-0.2926813 -6.1596047,-0.6372626 z m 14.4227116,-1.6001288 c 2.1414105,-2.2794271 2.2223292,-2.7236162 0.9564014,-5.25 -0.7606139,-1.5179402 -1.5473736,-3.0973912 -1.748355,-3.5098912 -0.2009814,-0.4125 0.5986369,-0.75 1.7769296,-0.75 1.1782926,0 1.8982182,0.395014 1.5998346,0.8778088 -0.2983836,0.4827949 1.0250587,2.9307988 2.940983,5.4400088 4.0681348,5.3278746 4.1569572,5.6821824 1.4244817,5.6821824 -1.1324593,0 -1.8473633,-0.3424628 -1.5886755,-0.7610284 0.2586877,-0.4185657 -0.1055128,-1.5485561 -0.8093347,-2.5110898 -1.1145741,-1.5242709 -1.4367869,-1.5607543 -2.4974143,-0.2827764 -0.6697561,0.8070067 -0.9274402,1.936997 -0.5726314,2.5110897 0.3745649,0.6060587 -0.2914973,1.0438049 -1.5882241,1.0438049 h -2.2333311 z m 5.0092923,-5.2508742 c 0,-0.6275407 0.4573404,-1.4236349 1.0163119,-1.7690983 0.5589715,-0.3454634 0.7574139,-1.0470211 0.440983,-1.559017 -0.3164309,-0.5119959 0.4372371,-0.9309017 1.6748177,-0.9309017 1.9020531,0 2.0272066,0.1933727 0.809017,1.25 -0.7926213,0.6875 -2.0036296,1.9025 -2.6911296,2.7 -0.7557463,0.8766657 -1.25,0.9988519 -1.25,0.309017 z m -42,-7.759017 c 0,-0.9166667 0.48375,-1.5054167 1.075,-1.3083333 0.59125,0.1970833 1.075,0.7858333 1.075,1.3083333 0,0.5225 -0.48375,1.11125 -1.075,1.3083333 -0.59125,0.1970834 -1.075,-0.3916666 -1.075,-1.3083333 z m 22.6858557,-10.6159958 c -0.9977794,-0.5803481 -4.4860994,-0.9041642 -7.7518222,-0.7195913 -4.6230941,0.2612891 -5.9372745,0.020925 -5.9358557,-1.0856722 0.001,-0.7816927 -0.7519144,-2.2541289 -1.673148,-3.2720806 -1.624483,-1.79503346 -1.5580973,-1.80198864 2.2024159,-0.23074588 5.0361813,2.10425088 9.9625562,1.28209988 13.71207,-2.28837497 l 2.9273186,-2.78753925 -0.7701406,4 c -0.4235774,2.2 -0.7825436,4.7875 -0.7977029,5.75 -0.015159,0.9625 -0.043634,1.7363161 -0.063277,1.7195913 -0.019643,-0.016725 -0.8520792,-0.5052389 -1.8498581,-1.0855871 z m -21.1482098,-13.39386914 c -2.1414706,-3.10931988 -4.5374698,-5.49013506 -5.5251492,-5.49013506 -2.8127182,0 -1.0254751,-6.3303412 4.3288557,-15.33262813 2.5622562,-4.30794546 4.6586476,-8.15943713 4.6586476,-8.55887036 0,-0.39943323 0.7028986,-1.59975058 1.561997,-2.66737187 1.4626649,-1.81768742 1.5215209,-1.68675772 0.9255105,2.05887036 -0.3500675,2.2 -1.8384776,6.025 -3.3075779,8.5 -6.7302715,11.3385193 -6.8161336,14.17226489 -0.6121365,20.20263019 3.7870224,3.68103474 4.3270611,4.63974366 3.1594233,5.60879691 -1.1429642,0.94857609 -2.120932,0.1342343 -5.1895705,-4.32129204 z m 28.4623541,-6.74361408 c 0,-5.07678061 -0.6428523,-7.57862474 -3.416392,-13.29587052 -3.6379596,-7.49912054 -4.8501263,-12.21670575 -4.994133,-19.43647503 -0.06941,-3.47984173 -0.4927,-4.56358635 -1.8875143,-4.83257568 -2.2589001,-0.43562793 -4.7019607,1.52537236 -4.7019607,3.7741783 0,0.94098874 -0.675,1.71088862 -1.5,1.71088862 -0.825,0 -1.5,-0.735 -1.5,-1.63333334 0,-2.2095493 -1.9328287,-3.99633979 -3.621855,-3.34819956 -2.7323839,1.04851408 -1.5146009,-4.70252406 1.6701265,-7.88725139 2.6809874,-2.68098744 3.542094,-2.98203596 7.1467488,-2.4985503 6.4173914,0.86075281 8.1750612,3.35904449 8.8528417,12.58312613 0.5574112,7.58594546 0.7988206,8.1963574 7.014708,17.73693023 5.7819496,8.87453497 6.43743,10.39953424 6.43743,14.97691684 0,6.18959911 -1.6130617,8.40369472 -6.1224447,8.40369472 h -3.3775553 z m -22.9210526,-30.32985431 c 0.047984,-1.16494299 0.2849403,-1.40189937 0.6041666,-0.60416667 0.2888706,0.721875 0.2533443,1.584375 -0.078947,1.91666667 -0.3322917,0.33229166 -0.5686404,-0.25833334 -0.5252196,-1.3125 z m 1.5975091,-1.81742422 c -0.3240097,-0.84435583 -0.1898561,-1.78194404 0.2981191,-2.08352933 1.3075566,-0.80811442 2.4162591,1.49345218 1.2710747,2.63863661 -0.6401136,0.64011354 -1.184435,0.44755811 -1.5691938,-0.55510728 z m 8.3235435,-0.51590912 c 0,-1.2283376 0.645689,-2.08333333 1.5733242,-2.08333333 0.9312389,0 1.4413731,0.68036957 1.25,1.6671337 -0.4865512,2.50876938 -2.8233242,2.8532442 -2.8233242,0.41619963 z"
                     id="path20378" />
                <path
                     style="fill:#444343"
                     d="m 20.42782288,37.71371155 c 1.6373382,-1.6373382 1.5954771,-13.4737549 -0.05,-14.1377193 -0.6875,-0.2774123 0.325,-0.504386 2.25,-0.504386 1.925,0 2.9375,0.2269737 2.25,0.504386 -0.8309026,0.3352765 -1.25,2.8233918 -1.25,7.4210526 v 6.9166667 h 2.9266758 c 1.9464255,0 3.07985,-0.5861388 3.3839987,-1.75 0.3441446,-1.3169103 0.4860308,-1.1931704 0.5733241,0.5 0.1074298,2.0837428 -0.3051834,2.25 -5.5839986,2.25 -4.4333333,0 -5.4333333,-0.2666667 -4.5,-1.2 z m 13.8361842,-4.5113867 c 0.1847655,-7.7506512 2.089879,-8.0071729 2.522331,-0.3396295 0.2745227,4.8673966 0.047348,6.0544356 -1.1585152,6.0535131 -1.1740595,-8.982e-4 -1.470408,-1.242489 -1.3638158,-5.7138836 z m 6.8638158,0.4631591 c 0,-2.8884748 0.3398345,-5.5047729 0.7551878,-5.8139957 0.4153534,-0.3092227 2.6653534,-0.5342227 5,-0.5 l 4.2448122,0.062223 0.5119166,5.75 c 0.4996977,5.6127536 0.4519598,5.7496345 -2,5.7346872 -1.735277,-0.010578 -2.1040432,-0.2739352 -1.1927153,-0.8517857 0.8266047,-0.5241296 1.2000098,-2.2920863 1,-4.7346872 -0.2589994,-3.1630047 -0.743555,-3.9584821 -2.5692013,-4.2177653 -2.0794714,-0.295332 -2.25,0.064673 -2.25,4.75 0,4.160802 -0.3136986,5.0698687 -1.75,5.0713234 -1.4447444,0.00146 -1.75,-0.9143036 -1.75,-5.2499997 z m 16.0679961,4.3582476 c -1.0247129,-1.6580202 -0.8924081,-10.5018827 0.1623687,-10.8534749 0.7409007,-0.2469669 1.2649927,1.3405752 1.4622222,4.4292592 0.2604626,4.0789364 0.6422944,4.8618526 2.5000881,5.1262346 1.957695,0.2785989 2.2256098,-0.1952707 2.5,-4.4218308 0.4539757,-6.9928005 2.8073249,-7.040478 2.8073249,-0.056875 0,3.4867466 0.4575576,5.6692415 1.25,5.9623503 0.6875,0.2542926 -1.3475796,0.4575122 -4.5223992,0.4515992 -3.1748195,-0.00591 -5.9466416,-0.2926813 -6.1596047,-0.6372626 z m 14.4227116,-1.6001288 c 2.1414105,-2.2794271 2.2223292,-2.7236162 0.9564014,-5.25 -0.7606139,-1.5179402 -1.5473736,-3.0973912 -1.748355,-3.5098912 -0.2009814,-0.4125 0.5986369,-0.75 1.7769296,-0.75 1.1782926,0 1.8982182,0.395014 1.5998346,0.8778088 -0.2983836,0.4827949 1.0250587,2.9307988 2.940983,5.4400088 4.0681348,5.3278746 4.1569572,5.6821824 1.4244817,5.6821824 -1.1324593,0 -1.8473633,-0.3424628 -1.5886755,-0.7610284 0.2586877,-0.4185657 -0.1055128,-1.5485561 -0.8093347,-2.5110898 -1.1145741,-1.5242709 -1.4367869,-1.5607543 -2.4974143,-0.2827764 -0.6697561,0.8070067 -0.9274402,1.936997 -0.5726314,2.5110897 0.3745649,0.6060587 -0.2914973,1.0438049 -1.5882241,1.0438049 h -2.2333311 z m 5.0092923,-5.2508742 c 0,-0.6275407 0.4573404,-1.4236349 1.0163119,-1.7690983 0.5589715,-0.3454634 0.7574139,-1.0470211 0.440983,-1.559017 -0.3164309,-0.5119959 0.4372371,-0.9309017 1.6748177,-0.9309017 1.9020531,0 2.0272066,0.1933727 0.809017,1.25 -0.7926213,0.6875 -2.0036296,1.9025 -2.6911296,2.7 -0.7557463,0.8766657 -1.25,0.9988519 -1.25,0.309017 z m -42,-7.759017 c 0,-0.9166667 0.48375,-1.5054167 1.075,-1.3083333 0.59125,0.1970833 1.075,0.7858333 1.075,1.3083333 0,0.5225 -0.48375,1.11125 -1.075,1.3083333 -0.59125,0.1970834 -1.075,-0.3916666 -1.075,-1.3083333 z m 9.0023121,-12.55 c -0.00127,-0.8525 -0.5648121,-2.1405776 -1.2523121,-2.8623946 -1.0236022,-1.07469605 -0.7972044,-1.15619925 1.25,-0.45000002 4.8431297,1.67067562 10.7162735,0.97756982 13.4459077,-1.58678833 l 2.5540923,-2.3994451 -0.013655,2.42431402 c -0.034191,6.07034753 -0.5044188,6.42431403 -8.534406,6.42431403 -6.058946,0 -7.4477461,-0.2889594 -7.4496269,-1.55 z m -7.3286949,-11.52142252 c -2.2129364,-3.16669602 -4.5459604,-5.42857748 -5.5993216,-5.42857748 -2.8783909,0 -1.142506,-6.23747911 4.2670568,-15.33262813 2.5622562,-4.30794546 4.6586476,-8.15943713 4.6586476,-8.55887036 0,-0.39943323 0.7028986,-1.59975058 1.561997,-2.66737187 1.4626649,-1.81768742 1.5215209,-1.68675772 0.9255105,2.05887036 -0.3500675,2.2 -1.8384776,6.025 -3.3075779,8.5 -6.7302715,11.3385193 -6.8161336,14.17226489 -0.6121365,20.20263019 3.6554726,3.55316666 4.3013152,4.66111083 3.2335957,5.54723933 -1.044477,0.86683887 -2.1579704,-0.0715279 -5.1277716,-4.32129204 z m 28.3263828,-6.6820565 c 0,-5.07678061 -0.6428523,-7.57862474 -3.416392,-13.29587052 -3.6400535,-7.50343685 -4.8503039,-12.21699927 -4.994133,-19.45065046 -0.08171,-4.10947333 -0.3064343,-4.5 -2.589475,-4.5 -1.6334434,0 -2.8421611,0.77990093 -3.4871285,2.25 -1.2575799,2.86645037 -2.7656795,2.86645037 -4.0348083,0 -0.5878582,-1.32773493 -1.7097951,-2.12955761 -2.7371284,-1.95616324 -2.9746275,0.50206069 -2.1505712,-4.53804655 1.3073367,-7.99595438 2.6809874,-2.68098744 3.542094,-2.98203596 7.1467488,-2.4985503 6.4173914,0.86075281 8.1750612,3.35904449 8.8528417,12.58312613 0.5551204,7.55477033 0.8188613,8.22924468 6.8713095,17.57225868 7.0121111,10.82442169 8.2690443,15.34684694 5.6649885,20.38253571 -1.3598287,2.6296187 -2.2211692,3.1627474 -5.1098401,3.1627474 h -3.4743199 z m -22.9210526,-30.32985431 c 0.047984,-1.16494299 0.2849403,-1.40189937 0.6041666,-0.60416667 0.2888706,0.721875 0.2533443,1.584375 -0.078947,1.91666667 -0.3322917,0.33229166 -0.5686404,-0.25833334 -0.5252196,-1.3125 z m 1.5975091,-1.81742422 c -0.3240097,-0.84435583 -0.1898561,-1.78194404 0.2981191,-2.08352933 1.3075566,-0.80811442 2.4162591,1.49345218 1.2710747,2.63863661 -0.6401136,0.64011354 -1.184435,0.44755811 -1.5691938,-0.55510728 z m 8.9630237,0.70690439 c -1.195156,-1.19515595 -0.6457099,-3.30614684 0.8605198,-3.30614684 0.825,0 1.5,0.64844235 1.5,1.44098301 0,1.67064389 -1.4272772,2.79840644 -2.3605198,1.86516383 z"
                     id="path20376" />
                <path
                     style="fill:#323943"
                     d="m 20.62782288,38.27274045 c 1.2218656,-0.3331363 1.4072885,-1.7950274 1,-7.8840903 -0.4146749,-6.1994902 -0.2440246,-7.4755035 1,-7.4773578 1.2294254,-0.00183 1.4406532,1.3510568 1.1709959,7.5000916 l -0.3290041,7.5023276 h 3.00568 c 2.0216674,0 3.1554002,-0.5729226 3.4630027,-1.75 0.3441446,-1.3169103 0.4860308,-1.1931704 0.5733241,0.5 0.1081868,2.0984249 -0.2713572,2.2421854 -5.6339986,2.1339986 -3.1625,-0.063801 -5.075,-0.3000371 -4.25,-0.5249697 z m 13.5,-4.7635374 c 0,-2.9724797 0.2990654,-5.2196759 0.6645898,-4.9937694 0.3655244,0.2259065 0.8684578,-0.1545647 1.1176298,-0.8454915 0.2491721,-0.6909268 0.6251067,1.5570894 0.8354102,4.9955916 0.3095389,5.0610175 0.09666,6.2514751 -1.1176298,6.25 -1.1480779,-0.00139 -1.5,-1.2697997 -1.5,-5.4063307 z m 7,0.1562809 c 0,-4.8456746 1.6028691,-7.9822367 3.2416695,-6.3434362 0.3254151,0.3254151 0.066664,0.5916638 -0.5750028,0.5916638 -0.7606905,0 -1.1119978,1.8268931 -1.009563,5.25 l 0.1571037,5.25 0.6857926,-5 0.6857926,-5 0.1571037,5.25 c 0.131446,4.3925862 -0.1287009,5.2502895 -1.5928963,5.2517724 -1.4447444,0.00146 -1.75,-0.9143036 -1.75,-5.25 z m 8.3430996,0.7531088 c 0.314808,-3.9581944 0.078738,-4.5982437 -1.9763708,-5.358478 l -2.3338821,-0.8633592 2.3342398,-0.7408589 c 3.1606878,-1.0031633 3.8894673,0.051339 4.2907281,6.2084365 0.2713218,4.1632634 0.030056,5.2504929 -1.1650205,5.25 -1.1723663,-4.835e-4 -1.4277814,-0.9992532 -1.1496945,-4.4957404 z m 1.1569004,-5.5048812 c 0,-0.55 -0.4765576,-1 -1.059017,-1 -0.5824593,0 -0.7809017,0.45 -0.440983,1 0.3399187,0.55 0.8164763,1 1.059017,1 0.2425406,0 0.440983,-0.45 0.440983,-1 z m 6.532009,8.75 c -0.7646433,-2.3587205 -1.0688947,-9.5818136 -0.3858232,-9.1596522 0.3756466,0.2321624 0.9109021,-0.1431904 1.1894566,-0.8341172 0.2785546,-0.6909268 0.5419892,0.7333361 0.5854102,3.1650287 0.046679,2.6141674 0.755387,5.1687167 1.733935,6.25 1.5553782,1.7186736 1.5233955,1.8287407 -0.5313848,1.8287407 -1.2025048,0 -2.368722,-0.5625 -2.5915938,-1.25 z m 2.467991,-0.190983 c 0,-0.2425407 -0.45,-0.7190983 -1,-1.059017 -0.55,-0.3399187 -1,-0.1414763 -1,0.440983 0,0.5824594 0.45,1.059017 1,1.059017 0.55,0 1,-0.1984424 1,-0.440983 z m 5.849538,-4.1781885 c 0.2683562,-4.3161864 0.05828,-5.4418909 -0.9045085,-4.8468549 -0.8124934,0.5021486 -1.0028123,0.3685379 -0.540521,-0.3794651 1.5337074,-2.4815906 2.4321136,-0.9018383 2.7566705,4.8473137 0.2010078,3.5606196 -0.067923,6.0016356 -0.661179,6.0013634 -0.5894992,-2.705e-4 -0.8565143,-2.3082529 -0.650462,-5.6223571 z m 6.4070754,3.0390502 c 2.6573861,-3.0562625 2.8297173,-4.4554892 0.7690267,-6.2440362 -1.3186678,-1.1445188 -1.3221462,-1.2362053 -0.02564,-0.6758425 0.825,0.3565732 0.6264917,-0.060056 -0.4411296,-0.9258425 -1.8940414,-1.5359713 -1.8839339,-1.5741575 0.4166666,-1.5741575 1.296788,0 2.073629,0.2841673 1.7263134,0.6314829 -1.0780278,1.0780278 1.307468,4.4791558 2.5983229,3.7045669 0.9328692,-0.5597765 0.9330177,-0.3899679 6.675e-4,0.7631956 -0.9658704,1.1946223 -0.8124137,1.7246888 0.788803,2.7246652 1.0933793,0.6828267 1.7426972,1.6383504 1.4429287,2.123386 -0.2997685,0.4850357 0.02027,1.1097913 0.7111969,1.3883458 0.6909268,0.2785546 0.2695685,0.5419892 -0.9363518,0.5854102 -1.6427232,0.059149 -2.0998109,-0.4027765 -1.8226527,-1.8419432 0.2034614,-1.0564899 -0.2394756,-2.1547415 -0.9843044,-2.4405591 -1.6468209,-0.6319445 -3.9253588,1.8649329 -3.0275334,3.3176448 0.3680807,0.5955672 -0.2362501,1.0438049 -1.4072967,1.0438049 -2.0205241,0 -2.0175576,-0.040076 0.1909829,-2.5801213 z m 6.0767199,-7.753212 c 0,-0.7333334 0.5928557,-1.3333334 1.317457,-1.3333334 0.9844984,0 1.0377959,0.3369711 0.2108887,1.3333334 -0.6086127,0.7333333 -1.2014683,1.3333333 -1.317457,1.3333333 -0.1159888,0 -0.2108887,-0.6 -0.2108887,-1.3333333 z m -42.8643705,-4.716886 c -0.9502177,-1.5374845 0.3513502,-2.5294677 1.6348362,-1.2459817 0.7181801,0.7181801 0.7354351,1.2775258 0.052432,1.6996452 -0.5599187,0.3460488 -1.3191892,0.1419002 -1.6872682,-0.4536635 z m 22.4958534,-12.8840392 c 1.5558341,-2.9071026 1.2724156,-4.36233577 -0.7148162,-3.67027659 -1.4728961,0.51294029 -1.4448691,0.37317244 0.1769991,-0.88267872 1.0598496,-0.82066669 2.1263668,-1.29275357 2.3700385,-1.04908197 0.807351,0.807351 -0.8690462,7.53629578 -1.8775344,7.53629578 -0.6375432,0 -0.6214148,-0.6884661 0.045313,-1.9342585 z m -13.9648162,0.016046 c 0,-0.5050169 -0.2751033,-1.6351202 -0.6113406,-2.5113406 -0.4399971,-1.14661404 -0.1774192,-1.42661686 0.9368577,-0.99902868 0.851509,0.32675468 1.3162468,1.19855528 1.0327505,1.93733468 -0.338291,0.8815722 0.456724,1.4890216 2.3131423,1.7674091 2.7300061,0.4093902 2.7153189,0.4293959 -0.4214099,0.5740059 -1.7875,0.082408 -3.25,-0.2633635 -3.25,-0.7683804 z m 8.2690319,0.2252218 c 0.9729675,-0.2535434 2.3229675,-0.2368691 3,0.037054 0.6770325,0.2739231 -0.1190319,0.4813677 -1.7690319,0.460988 -1.65,-0.02038 -2.2039356,-0.2444986 -1.2309681,-0.498042 z m -4,-2 c 0.9729675,-0.2535434 2.3229675,-0.2368691 3,0.037054 0.6770325,0.2739231 -0.1190319,0.4813677 -1.7690319,0.460988 -1.65,-0.02038 -2.2039356,-0.2444986 -1.2309681,-0.498042 z m -9.1778469,-6.60785005 c -1.0851987,-1.7992395 -1.0867983,-1.97184525 -0.0088,-0.94915925 2.1513171,2.04092551 3.3813918,1.41995319 1.438952,-0.72641873 -0.9837489,-1.0870303 -2.1587239,-1.74769083 -2.6110556,-1.4681345 -0.4523316,0.27955632 -1.5980439,-0.67546575 -2.5460272,-2.12227125 -0.9479834,-1.44680551 -2.6552528,-3.00762115 -3.7939321,-3.4684792 -1.7050224,-0.69007432 -1.7615431,-0.84910806 -0.3203259,-0.90131002 1.2231218,-0.0443024 1.7546103,-0.89133781 1.7653128,-2.8133863 0.00842,-1.5125 0.4099854,-3.37318557 0.8923631,-4.13485682 0.5388537,-0.85084662 0.6760358,0.39853805 0.3557565,3.24004836 -0.5050802,4.48105798 -0.3748765,4.75933949 4.1862463,8.94717203 3.827592,3.51433517 4.4514905,4.53476932 3.337727,5.45911089 -1.0671128,0.88562498 -1.6629219,0.65087525 -2.6962207,-1.06231521 z m 25.9877624,-5.44915925 c 0.047163,-1.04543762 0.2820167,-1.24674115 0.5833333,-0.5 0.8232082,2.04012458 5.1005569,1.42668424 6.7810153,-0.97250624 0.8561872,-1.22237844 1.6179859,-3.80987844 1.6928861,-5.75 0.097364,-2.52199032 0.2635121,-2.85714382 0.5828797,-1.17578104 1.0532756,5.54514036 -2.0268131,10.14828728 -6.7904904,10.14828728 -2.1525241,0 -2.907651,-0.46373556 -2.849624,-1.75 z m 0,-3.83333333 c 0.047984,-1.16494299 0.2849403,-1.40189937 0.6041666,-0.60416667 0.2888706,0.721875 0.2533443,1.584375 -0.078947,1.91666667 -0.3322917,0.33229166 -0.5686404,-0.25833334 -0.5252196,-1.3125 z m -35,-4 c 0.047984,-1.16494299 0.2849403,-1.40189937 0.6041666,-0.60416667 0.2888706,0.721875 0.2533443,1.584375 -0.078947,1.91666667 -0.3322917,0.33229166 -0.5686404,-0.25833334 -0.5252196,-1.3125 z m 35.0789473,-1.41666667 c 0,-1.375 0.2269737,-1.9375 0.504386,-1.25 0.2774123,0.6875 0.2774123,1.8125 0,2.5 -0.2774123,0.6875 -0.504386,0.125 -0.504386,-1.25 z m -30.1578947,-5.05901699 c 0,-0.58245935 -0.4948957,-0.75315464 -1.0997682,-0.37932287 -0.7729496,0.47770911 -0.762494,0.0494915 0.035184,-1.44098301 1.3471963,-2.51725945 2.2729949,-2.8273611 1.3632609,-0.45663222 -0.4264506,1.11131242 -0.2537495,1.42622267 0.5199304,0.94806222 0.7568924,-0.46778523 0.9520406,-0.17799899 0.5629499,0.83595508 -0.6861785,1.78815258 -1.3815568,2.03625415 -1.381557,0.4929208 z m 36,-0.94098301 c -0.5887021,-1.1 -0.8453675,-2 -0.5703675,-2 0.275,0 0.9816654,0.9 1.5703675,2 0.5887021,1.1 0.8453675,2 0.5703675,2 -0.275,0 -0.9816654,-0.9 -1.5703675,-2 z m -9.7551665,-3.25 c -0.9974732,-1.24677182 -2.9156826,-6.69903849 -2.0229575,-5.75 0.7030205,0.74736727 3.6720599,7 3.323924,7 -0.1655008,0 -0.7509357,-0.5625 -1.3009665,-1.25 z m -24.2448335,-2.75 c 0.5887021,-1.1 1.2953675,-2 1.5703675,-2 0.275,0 0.018335,0.9 -0.5703675,2 -0.5887021,1.1 -1.2953675,2 -1.5703675,2 -0.275,0 -0.018335,-0.9 0.5703675,-2 z m 2.7001256,-4.6609231 c 0.2801942,-0.73017437 0.9122908,-1.07861672 1.4046592,-0.77431634 1.3694386,0.84635962 1.0651288,2.10190611 -0.509444,2.10190611 -0.7725626,0 -1.1754094,-0.5974154 -0.8952152,-1.32758977 z m 1.7460237,-2.42620919 c -0.3695366,-0.59792276 -0.1710943,-1.58792276 0.440983,-2.2 0.8171569,-0.81715695 1.1128677,-0.52828459 1.1128677,1.08713229 0,2.41451129 -0.5194594,2.78654804 -1.5538507,1.11286771 z m 20.5080142,-0.99851407 c -0.6139123,-1.14710551 -0.9278432,-2.27400725 -0.6976244,-2.50422611 0.2302189,-0.23021886 0.9320306,0.70832201 1.5595815,2.08564637 1.3780711,3.02453647 0.7070917,3.35037441 -0.8619571,0.41857974 z m -5.0332578,-2.16344706 c -0.2976482,-2.14973389 -0.1448496,-3.37485044 0.3581786,-2.87182233 0.4824991,0.4824991 0.7160907,2.16959114 0.5190925,3.74909342 -0.3297165,2.64361799 -0.3994274,2.57390718 -0.8772711,-0.87727109 z m 3.3991684,-7.75090658 c 0,-3.575 0.1814947,-5.0375 0.4033215,-3.25 0.2218267,1.7875 0.2218267,4.7125 0,6.5 -0.2218268,1.7875 -0.4033215,0.325 -0.4033215,-3.25 z m -16.0572478,2.1609884 c 0.1060322,-1.40761265 0.4982908,-1.79987126 1.149081,-1.14908105 0.6507903,0.6507902 0.5958341,1.38035126 -0.1609883,2.1371737 -0.8654414,0.8654414 -1.1093427,0.62154019 -0.9880927,-0.98809265 z m 8.1464177,0.46310097 c -0.8472158,-2.20780883 0.2799104,-3.33493499 1.8074227,-1.8074227 0.9019063,0.90190637 0.9057391,1.46092752 0.016116,2.35055077 -0.8896233,0.88962326 -1.3233075,0.7604535 -1.8235387,-0.54312807 z m 4.5230233,-2.12408937 c -0.3484164,-2.41806206 -0.9172156,-3 -2.9322673,-3 -1.6334434,0 -2.8421611,0.77990093 -3.4871285,2.25 -1.0300922,2.34792902 -3.5128715,3.11034659 -3.5128715,1.07874067 0,-0.64419263 -0.5625,-1.90374682 -1.25,-2.79900931 -0.6875,-0.89526248 -0.3288775,-0.67433484 0.7969388,0.49095032 l 2.0469388,2.11870029 1.7497462,-2.31969099 c 3.0871036,-4.09266578 8.2643703,-2.08522056 7.4154074,2.87526696 -0.3424034,2.00066177 -0.4515774,1.90889272 -0.8267639,-0.69495794 z m -14.8299058,-4.63921604 c -0.056299,-1.45156882 0.6851385,-3.49777731 1.6476385,-4.54712997 0.9625,-1.04935267 1.355098,-1.32143191 0.8724401,-0.60462053 -0.482658,0.71681138 -1.2240953,2.76301987 -1.6476385,4.54712998 -0.7060616,2.97417465 -0.778588,3.02443709 -0.8724401,0.60462052 z m 15.1833719,-5.56023117 c -1.2178466,-1.26530403 -1.850091,-2.30055279 -1.4049876,-2.30055279 0.9751585,0 4.6133484,3.88817595 4.0297901,4.3066836 -0.2257948,0.16193209 -1.4069559,-0.74082677 -2.6248025,-2.00613081 z m -7.0167015,-2.99354351 c 0.9729675,-0.25354341 2.3229675,-0.23686912 3,0.037054 0.6770325,0.2739231 -0.1190319,0.48136771 -1.7690319,0.46098802 -1.65,-0.0203797 -2.2039356,-0.24449859 -1.2309681,-0.49804202 z"
                     id="path20374" />
                <path
                     style="fill:#302f2f"
                     d="m 25.38948208,38.20645065 c 1.2439125,-0.2391932 3.0439125,-0.2301119 4,0.020181 0.9560874,0.2502926 -0.061659,0.4459962 -2.2616592,0.4348968 -2.2,-0.011099 -2.9822534,-0.2158842 -1.7383408,-0.4550778 z m 8.9883408,0.04498 c 0.6875,-0.2774123 1.8125,-0.2774123 2.5,0 0.6875,0.2774123 0.125,0.504386 -1.25,0.504386 -1.375,0 -1.9375,-0.2269737 -1.25,-0.504386 z m 6.75,-4.7422278 c 0,-6.563273 1.4363433,-6.3781936 1.6571037,0.2135255 l 0.1571037,4.690983 0.6857926,-5 0.6857926,-5 0.1571037,5.25 c 0.1314638,4.3931824 -0.1285022,5.25 -1.5928963,5.25 -1.4507975,0 -1.75,-0.9240242 -1.75,-5.4045085 z m 8.25,4.7422278 c 0.6875,-0.2774123 1.8125,-0.2774123 2.5,0 0.6875,0.2774123 0.125,0.504386 -1.25,0.504386 -1.375,0 -1.9375,-0.2269737 -1.25,-0.504386 z m 9.5833333,-0.7937306 c 0,-0.8008063 0.375,-1.2242486 0.8333334,-0.940983 0.4583333,0.2832655 0.8333333,0.9384706 0.8333333,1.4560113 0,0.5175406 -0.375,0.940983 -0.8333333,0.940983 -0.4583334,0 -0.8333334,-0.6552051 -0.8333334,-1.4560113 z m 6.1666667,-4.5439887 c 0,-7.7810857 1.2218861,-7.7797454 1.661179,0.00182 0.2010398,3.5611867 -0.067828,6.0010812 -0.661179,6 -0.5553531,-0.00101 -1,-2.6697037 -1,-6.0018222 z m 6.9406926,4.9040387 c -0.3725377,-0.6027788 0.1387589,-1.8402788 1.1362147,-2.75 1.6933518,-1.5444075 1.7286288,-1.5409505 0.5322344,0.052156 -0.7047268,0.9384073 -0.9910234,2.1759073 -0.6362146,2.75 0.3548088,0.5740927 0.4201069,1.0438049 0.1451069,1.0438049 -0.275,0 -0.8048036,-0.4931826 -1.1773414,-1.0959609 z m 5.3093074,0.4336806 c 0.6875,-0.2774123 1.8125,-0.2774123 2.5,0 0.6875,0.2774123 0.125,0.504386 -1.25,0.504386 -1.375,0 -1.9375,-0.2269737 -1.25,-0.504386 z m -20.7682699,-5.0394057 c -0.2649516,-2.8609275 -0.1153687,-4.8345661 0.3324064,-4.3858635 0.447775,0.4487026 0.6645536,2.7894614 0.4817301,5.2016864 l -0.3324064,4.3858635 z m 20.6313569,2.5187078 c 0.2888103,-0.4673048 0.9440154,-0.5907472 1.4560113,-0.2743163 1.3083819,0.8086245 1.1610578,1.1239616 -0.5251096,1.1239616 -0.8008063,0 -1.219712,-0.3823404 -0.9309017,-0.8496453 z m 0.7202463,-7.1503547 c 0,-0.7333334 0.5928557,-1.3333334 1.317457,-1.3333334 0.9844984,0 1.0377959,0.3369711 0.2108887,1.3333334 -0.6086127,0.7333333 -1.2014683,1.3333333 -1.317457,1.3333333 -0.1159888,0 -0.2108887,-0.6 -0.2108887,-1.3333333 z m -31.3333333,-0.6666667 c 1.9583724,-1.2655974 3.2821822,-1.2655974 2.5,0 -0.3399187,0.55 -1.3789763,0.9931093 -2.309017,0.9846872 -1.4572749,-0.013196 -1.4836704,-0.1492885 -0.190983,-0.9846872 z m 24.75,-0.6622807 c 0.6875,-0.2774123 1.8125,-0.2774123 2.5,0 0.6875,0.2774123 0.125,0.504386 -1.25,0.504386 -1.375,0 -1.9375,-0.2269737 -1.25,-0.504386 z m -26,-16 c 0.6875,-0.2774123 1.8125,-0.2774123 2.5,0 0.6875,0.2774123 0.125,0.504386 -1.25,0.504386 -1.375,0 -1.9375,-0.2269737 -1.25,-0.504386 z m 7.0625,-0.020833 c 0.721875,-0.2888706 1.584375,-0.2533443 1.9166667,0.078947 0.3322916,0.3322917 -0.2583334,0.5686404 -1.3125,0.5252193 -1.164943,-0.047984 -1.4018994,-0.2849403 -0.6041667,-0.6041663 z m -12.4075124,-10.566886 -1.9049876,-2.25 2.25,1.90498756 c 2.1144448,1.79021821 2.7052408,2.59501244 1.9049876,2.59501244 -0.1897569,0 -1.2022569,-1.0125 -2.25,-2.25 z m -7.2470929,-9.75 c 0,-1.375 0.2269737,-1.9375 0.504386,-1.25 0.2774123,0.6875 0.2774123,1.8125 0,2.5 -0.2774123,0.6875 -0.504386,0.125 -0.504386,-1.25 z m 27.8220493,-12.52416597 c -0.69572,-0.83829129 -1.0712854,-1.71782601 -0.8345898,-1.95452161 0.2366956,-0.2366956 0.9796342,0.44917909 1.6509746,1.52416597 1.4518133,2.32472264 0.9676283,2.57995984 -0.8163848,0.43035564 z m -19.3132773,-9.1425007 c -0.3666667,-0.36666666 -0.6666667,-1.13166666 -0.6666667,-1.7 0,-0.62660407 0.4657706,-0.56756272 1.1833333,0.15 0.6508334,0.65083334 0.9508334,1.41583334 0.6666667,1.7 -0.2841667,0.28416667 -0.8166667,0.21666667 -1.1833333,-0.15 z m 10.7916925,-8.40070954 c -0.4946619,-0.80037983 -0.3570808,-0.98806427 0.3871323,-0.52811529 0.6349797,0.39243902 1.1545085,0.27446784 1.1545085,-0.26215817 0,-0.53662602 -0.5625,-1.20265735 -1.25,-1.48006963 -0.9013071,-0.36368533 -0.9177702,-0.52640867 -0.059017,-0.58333333 1.7076789,-0.11319789 2.7139007,1.91616891 1.5347524,3.09531721 -0.6666666,0.66666667 -1.255792,0.58611974 -1.7673762,-0.24164079 z m 4.6995355,-1.93262379 c 0,-1.375 0.2269737,-1.9375 0.504386,-1.25 0.2774123,0.6875 0.2774123,1.8125 0,2.5 -0.2774123,0.6875 -0.504386,0.125 -0.504386,-1.25 z m -4.3453947,-4.68311404 c 0.721875,-0.28887061 1.584375,-0.25334429 1.9166667,0.0789474 0.3322916,0.33229167 -0.2583334,0.56864035 -1.3125,0.5252193 -1.164943,-0.0479839 -1.4018994,-0.2849403 -0.6041667,-0.6041667 z m -9.8125,-4.69444124 c 0,-0.20765541 0.7875,-0.99515541 1.75,-1.75 1.5860556,-1.24387067 1.6214259,-1.20850034 0.3775553,0.37755528 -1.3063698,1.66574802 -2.1275553,2.1954789 -2.1275553,1.37244472 z m 7.2690319,-4.31543544 c 0.9729675,-0.25354341 2.3229675,-0.23686912 3,0.037054 0.6770325,0.2739231 -0.1190319,0.48136771 -1.7690319,0.46098802 -1.65,-0.0203797 -2.2039356,-0.24449859 -1.2309681,-0.49804202 z"
                     id="path20370" />
                <path
                     style="fill:#292828"
                     d="m 25.37782288,38.25143085 c 0.6875,-0.2774123 1.8125,-0.2774123 2.5,0 0.6875,0.2774123 0.125,0.504386 -1.25,0.504386 -1.375,0 -1.9375,-0.2269737 -1.25,-0.504386 z m 40.0625,-0.020833 c 0.721875,-0.2888706 1.584375,-0.2533443 1.9166667,0.078947 0.3322916,0.3322917 -0.2583334,0.5686404 -1.3125,0.5252193 -1.164943,-0.047984 -1.4018994,-0.2849403 -0.6041667,-0.6041663 z m -23.5603166,-4.816886 c 0.011099,-2.2 0.2158842,-2.9822534 0.4550775,-1.7383408 0.2391932,1.2439125 0.2301119,3.0439125 -0.020181,4 -0.2502926,0.9560874 -0.4459962,-0.061659 -0.4348965,-2.2616592 z m 29.7478166,3.1224447 c 0,-0.2076554 0.7875,-0.9951554 1.75,-1.75 1.5860556,-1.2438706 1.6214259,-1.2085003 0.3775553,0.3775553 -1.3063698,1.665748 -2.1275553,2.1954789 -2.1275553,1.3724447 z m -18.4357071,-75.91557277 c 0.3755314,-0.98622044 0.9346919,-1.54122044 1.242579,-1.23333333 0.3078871,0.3078871 6.342e-4,1.11479473 -0.6827842,1.79312807 -0.9876158,0.98026727 -1.1024794,0.86540371 -0.5597948,-0.55979474 z"
                     id="path20368" />
            </g>
            <rect
                 style="opacity:1;fill:#ffffff;fill-opacity:1;stroke:none;stroke-width:2;stroke-linecap:round;stroke-linejoin:round;stroke-miterlimit:4;stroke-dasharray:none;stroke-opacity:1;paint-order:markers stroke fill"
                 id="rect21028"
                 width="102.6336288"
                 height="38.56536484"
                 x="21.77076912"
                 y="108.4996948" />
        </g>
        <g
             aria-label="Linux"
             id="text23645"
             style="font-size:36px;line-height:1.25;font-family:'Eras Bold ITC';-inkscape-font-specification:'Eras Bold ITC, Normal';font-variant-ligatures:none;white-space:pre;shape-inside:url(#rect23647)"
             transform="matrix(1.153970919,0,0,1.153970919,-35.55581036,-3.202275654)">
            <path
                 d="m 127.0097656,58.22098477 q 0.4394531,-4.1484375 0.6328125,-6.76757813 0.3691406,-4.78125 0.5449219,-9.4921875 0.1933594,-4.72851562 0.1933594,-7.734375 2.390625,0.0351563 4.2363281,0.0351563 1.2480469,0 3.5859375,-0.0351563 l -0.421875,6.36328125 -0.5273437,9.94921875 -0.070312,2.44335938 q 3.0234375,0.0527344 3.9375,0.0527344 4.6230468,0 6.9960937,-0.12304687 l -0.3867187,5.30859375 q -4.6230469,-0.0351563 -8.8066407,-0.0351563 -5.6601562,0 -9.914063,0.0351563 z"
                 id="path29945" />
            <path
                 d="m 160.1428223,38.04129727 q 0.1054688,-2.09179688 0.1054688,-3.3046875 0,-0.3515625 -0.017578,-0.94921875 2.1269532,0.0351563 3.5683594,0.0351563 1.9863281,0 3.4804688,-0.0351563 -0.052734,0.54492187 -0.070312,0.9140625 l -0.1054688,2.1796875 q -0.035156,0.4921875 -0.035156,1.16015625 -1.7402344,-0.0351563 -3.3398438,-0.0351563 -1.6523437,0 -3.5859384,0.0351563 z m -1.1074219,20.1796875 q 0.2460938,-2.14453125 0.3691407,-3.53320313 0.1230468,-1.38867187 0.2285156,-3.55078125 0.1230469,-2.16210937 0.2109375,-4.78125 0.087891,-2.61914062 0.140625,-6.08203125 2.2851562,0.0351563 3.65625,0.0351563 1.2480469,0 3.5859375,-0.0351563 -0.2988281,3.32226563 -0.4394531,5.8359375 -0.1230469,2.51367188 -0.1582032,5.32617188 -0.070312,4.9921875 -0.070312,6.78515625 -2.0917968,-0.0351563 -3.6035156,-0.0351563 -1.4941406,0 -3.9199224,0.0351563 z"
                 id="path29947" />
            <path
                 d="m 181.0639648,58.22098477 q 0.5097656,-3.99023438 0.7734375,-8.80664063 0.28125,-4.83398437 0.3339844,-9.140625 2.109375,0.0351563 3.6386719,0.0351563 1.7753906,0 3.4101562,-0.0351563 l -0.1757812,2.390625 q 0.5800781,-0.65039062 1.0019531,-1.01953125 0.421875,-0.38671875 1.0371094,-0.73828125 0.6328125,-0.36914062 1.3359375,-0.59765625 0.703125,-0.22851562 1.5292968,-0.3515625 0.84375,-0.140625 1.7578125,-0.140625 1.265625,0 2.4609375,0.28125 1.2128907,0.26367188 2.0214844,0.7734375 0.8085938,0.4921875 1.3535156,1.24804688 0.5449219,0.73828125 0.7207032,1.59960937 0.1757812,0.86132813 0.1757812,1.77539063 0,0.66796875 -0.140625,2.8828125 l -0.2988281,6.36328125 q -0.087891,1.88085937 -0.087891,3.48046875 -1.7753907,-0.0351563 -3.3222657,-0.0351563 -2.0917968,0 -3.8144531,0.0351563 0.1582031,-1.59960938 0.3339844,-4.74609375 0.1757812,-3.1640625 0.1757812,-4.44726563 0,-1.98632812 -0.7734375,-2.75976562 -0.7558593,-0.79101563 -1.9160156,-0.79101563 -1.0195312,0 -1.9335937,0.66796875 -0.8964844,0.66796875 -1.3886719,1.95117188 -0.4921875,1.265625 -0.703125,4.18359375 -0.1933594,2.91796875 -0.2636719,5.94140625 -1.7578125,-0.0351563 -3.4277344,-0.0351563 -1.7578125,0 -3.8144527,0.0351563 z"
                 id="path29949" />
            <path
                 d="m 231.5915527,58.22098477 q -2.0039062,-0.0351563 -3.3398437,-0.0351563 -1.6523438,0 -3.3222656,0.0351563 l -0.017578,-2.40820313 q -0.6328125,0.79101563 -1.0722656,1.1953125 -0.4394531,0.38671875 -0.9667969,0.68554688 -0.5097656,0.29882812 -1.1601562,0.52734375 -0.6328125,0.2109375 -1.4765625,0.33398437 -0.8261719,0.12304688 -1.6875,0.12304688 -1.3886719,0 -2.6367188,-0.33398438 -1.2304687,-0.31640625 -2.1796875,-1.08984375 -0.9316406,-0.7734375 -1.2832031,-1.7578125 -0.3339844,-0.984375 -0.3339844,-2.28515625 0,-0.31640625 0.052734,-0.984375 l 0.28125,-3.99023437 q 0.1230469,-2.19726563 0.2285156,-4.86914063 0.070312,-1.63476562 0.070312,-3.09375 2.1796875,0.0351563 3.7089844,0.0351563 1.546875,0 3.4101563,-0.0351563 l -0.5449219,6.69726563 q -0.1230469,1.52929687 -0.140625,2.09179687 0,0.54492188 0,0.73828125 0,1.84570313 0.7382812,2.49609375 0.7558594,0.65039063 1.7929688,0.65039063 0.421875,0 0.84375,-0.12304688 0.421875,-0.12304687 0.8085937,-0.3515625 0.3339844,-0.2109375 0.6152344,-0.52734375 0.2988281,-0.33398437 0.5273438,-0.80859375 0.28125,-0.58007812 0.421875,-1.24804687 0.1933593,-0.93164063 0.2988281,-2.35546875 0.070312,-1.03710938 0.1933594,-3.5859375 l 0.140625,-3.67382813 q 2.2675781,0.0351563 3.7265625,0.0351563 1.6347656,0 3.2871093,-0.0351563 -0.4042968,4.46484375 -0.6328125,8.49023438 -0.2285156,4.02539062 -0.3515618,9.45703125 z"
                 id="path29951" />
            <path
                 d="m 241.5136719,58.22098477 4.0078125,-5.32617188 2.9707031,-4.078125 -5.5195312,-8.54296875 q 2.5664062,0.0351563 4.4121093,0.0351563 2.3203125,0 3.8144532,-0.0351563 l 1.8632812,4.02539063 q 0.1757813,0.36914062 0.5097656,1.14257812 1.3535157,-2.3203125 3.1992188,-5.16796875 1.5644531,0.0351563 3.7441406,0.0351563 2.0214844,0 3.8496094,-0.0351563 l -2.8125,3.69140625 q -0.8261719,1.08984375 -3.5332031,4.78125 1.6171875,2.79492188 5.90625,9.47460938 -1.9863282,-0.0351563 -3.9199219,-0.0351563 -2.3554688,0 -4.21875,0.0351563 -1.1425781,-2.4609375 -1.7578125,-3.63867188 -0.5976563,-1.17773437 -1.0195313,-2.16210937 l -0.5625,0.96679687 q -0.2636718,0.43945313 -0.8085937,1.30078125 l -2.2324219,3.53320313 q -1.8984375,-0.0351563 -3.6914062,-0.0351563 -2.0742188,0 -4.2011719,0.0351563 z"
                 id="path29953" />
        </g>
        <text
             xml:space="preserve"
             id="text32151"
             style="font-size:26px;line-height:1.25;font-family:Consolas;-inkscape-font-specification:'Consolas, Normal';font-variant-ligatures:none;white-space:pre;shape-inside:url(#rect32153)"
             transform="translate(61.31230936,-0.6220219939)"><tspan
                 x="156.75"
                 y="113.2988281"
                 id="tspan34690">入門</tspan></text>
        <rect
             style="opacity:0.628849;mix-blend-mode:normal;fill:#08ff00;fill-opacity:1;stroke:none;stroke-width:1.51023;stroke-linecap:round;stroke-linejoin:round;stroke-miterlimit:4;stroke-dasharray:none;stroke-opacity:1;paint-order:markers stroke fill;filter:url(#filter33243)"
             id="rect33051"
             width="176.7131348"
             height="11.04866123"
             x="98.01160431"
             y="59.09209061" />
    </g>
</svg>
