<?xml version="1.0" encoding="UTF-8" standalone="no"?>
<svg
     viewBox="0 0 600 300"
     version="1.1"
     width="600"
     height="300"
     id="svg8"
     sodipodi:docname="DoS攻撃.svg"
     inkscape:version="1.1 (c68e22c387, 2021-05-23)"
     inkscape:export-filename="C:\Program Files\XAMPP\htdocs\koko-campus.org\subjects\情報処理安全確保支援士試験\pics\DoS攻撃.png"
     inkscape:export-xdpi="96"
     inkscape:export-ydpi="96"
     xmlns:inkscape="http://www.inkscape.org/namespaces/inkscape"
     xmlns:sodipodi="http://sodipodi.sourceforge.net/DTD/sodipodi-0.dtd"
     xmlns:xlink="http://www.w3.org/1999/xlink"
     xmlns="http://www.w3.org/2000/svg"
     xmlns:svg="http://www.w3.org/2000/svg">
    <defs
         id="defs12" />
    <sodipodi:namedview
         id="namedview10"
         pagecolor="#ffffff"
         bordercolor="#666666"
         borderopacity="1.0"
         inkscape:pageshadow="2"
         inkscape:pageopacity="0.0"
         inkscape:pagecheckerboard="0"
         showgrid="false"
         inkscape:zoom="0.7183"
         inkscape:cx="-80.746"
         inkscape:cy="362.66"
         inkscape:window-width="1920"
         inkscape:window-height="1009"
         inkscape:window-x="-8"
         inkscape:window-y="-8"
         inkscape:window-maximized="1"
         inkscape:current-layer="svg8" />
    <g
         id="g2056"
         transform="matrix(1.0658,0,0,1.0658,-301.27,-240.03)">
        <ellipse
             cx="335.9"
             cy="363.31"
             rx="34.054"
             ry="29.77"
             id="ellipse2"
             style="fill:#d200ff;fill-opacity:1;stroke-width:2.55746" />
        <path
             class="eye0"
             d="m 353.73,350.26 -16.92,14.89 c 0,0 6.84,0.68 10.15,0 2.18,-0.48 4.63,-1.04 6.09,-2.71 1.55,-1.77 1.98,-4.42 2.04,-6.77 0.16,-1.85 -1.36,-5.41 -1.36,-5.41 z"
             id="path4"
             style="stroke-width:2.55746" />
        <path
             d="m 313.13,350.26 16.91,14.89 c 0,0 -6.83,0.68 -10.14,0 -2.18,-0.48 -4.63,-1.04 -6.09,-2.71 -1.57,-1.77 -1.98,-4.42 -2.04,-6.77 -0.16,-1.85 1.36,-5.41 1.36,-5.41 z"
             id="path6"
             style="stroke-width:2.55746" />
    </g>
    <g
         id="g2088"
         transform="matrix(1.0658,0,0,1.0658,-25.277,-192.55)">
        <rect
             width="54.125"
             height="87.957"
             x="517.32"
             y="281.67"
             id="rect8-09"
             style="fill:#000050;fill-opacity:1;stroke-width:2.55711" />
        <rect
             class="window"
             width="22.549"
             height="9.9214"
             x="525.39"
             y="292.03"
             id="rect10-5"
             style="fill:#ffffff;fill-opacity:1;stroke-width:2.55711" />
        <rect
             class="window"
             width="22.549"
             height="9.9214"
             x="525.85"
             y="311.87"
             id="rect12-5"
             style="fill:#ffffff;fill-opacity:1;stroke-width:2.55711" />
    </g>
    <path
         id="path993"
         style="opacity:0.5;fill:#00ff00;fill-opacity:1;stroke:#000000;stroke-width:3;stroke-linecap:round;stroke-linejoin:round;stroke-miterlimit:4;stroke-dasharray:none;stroke-dashoffset:0.499999;paint-order:markers stroke fill;stop-color:#000000"
         inkscape:transform-center-y="-0.0032612"
         d="m 77.736,449.01 v -12.59 l 54.454,6.3 z"
         inkscape:transform-center-x="-9.0751" />
    <use
         id="use1897"
         inkscape:spray-origin="#path993"
         xlink:href="#path993"
         x="0"
         y="0"
         width="100%"
         height="100%"
         transform="matrix(1.0658,0,0,1.0658,79.999,-301.99)" />
    <use
         id="use1899"
         inkscape:spray-origin="#path993"
         xlink:href="#path993"
         x="0"
         y="0"
         width="100%"
         height="100%"
         transform="matrix(1.0658,0,0,1.0658,136.08,-338.68)" />
    <use
         id="use1901"
         inkscape:spray-origin="#path993"
         xlink:href="#path993"
         x="0"
         y="0"
         width="100%"
         height="100%"
         transform="matrix(1.0658,0,0,1.0658,253.95,-298.09)" />
    <use
         id="use1903"
         inkscape:spray-origin="#path993"
         xlink:href="#path993"
         x="0"
         y="0"
         width="100%"
         height="100%"
         transform="matrix(1.0658,0,0,1.0658,335.81,-314.87)" />
    <use
         id="use1905"
         inkscape:spray-origin="#path993"
         xlink:href="#path993"
         x="0"
         y="0"
         width="100%"
         height="100%"
         transform="matrix(1.0658,0,0,1.0658,304.22,-309.7)" />
    <use
         id="use1907"
         inkscape:spray-origin="#path993"
         xlink:href="#path993"
         x="0"
         y="0"
         width="100%"
         height="100%"
         transform="matrix(1.0658,0,0,1.0658,229.14,-355.72)" />
    <use
         id="use1909"
         inkscape:spray-origin="#path993"
         xlink:href="#path993"
         x="0"
         y="0"
         width="100%"
         height="100%"
         transform="matrix(1.0658,0,0,1.0658,227.87,-295.73)" />
    <use
         id="use1911"
         inkscape:spray-origin="#path993"
         xlink:href="#path993"
         x="0"
         y="0"
         width="100%"
         height="100%"
         transform="matrix(1.0658,0,0,1.0658,217.37,-316.18)" />
    <use
         id="use1913"
         inkscape:spray-origin="#path993"
         xlink:href="#path993"
         x="0"
         y="0"
         width="100%"
         height="100%"
         transform="matrix(1.0658,0,0,1.0658,87.564,-336.7)" />
    <use
         id="use1915"
         inkscape:spray-origin="#path993"
         xlink:href="#path993"
         x="0"
         y="0"
         width="100%"
         height="100%"
         transform="matrix(1.0658,0,0,1.0658,69.111,-343.12)" />
    <use
         id="use1917"
         inkscape:spray-origin="#path993"
         xlink:href="#path993"
         x="0"
         y="0"
         width="100%"
         height="100%"
         transform="matrix(1.0658,0,0,1.0658,39.182,-350.31)" />
    <use
         id="use1919"
         inkscape:spray-origin="#path993"
         xlink:href="#path993"
         x="0"
         y="0"
         width="100%"
         height="100%"
         transform="matrix(1.0658,0,0,1.0658,26.08,-305.55)" />
    <use
         id="use1921"
         inkscape:spray-origin="#path993"
         xlink:href="#path993"
         x="0"
         y="0"
         width="100%"
         height="100%"
         transform="matrix(1.0658,0,0,1.0658,127.36,-264.63)" />
    <use
         id="use1923"
         inkscape:spray-origin="#path993"
         xlink:href="#path993"
         x="0"
         y="0"
         width="100%"
         height="100%"
         transform="matrix(1.0658,0,0,1.0658,51.048,-271.87)" />
    <use
         id="use1925"
         inkscape:spray-origin="#path993"
         xlink:href="#path993"
         x="0"
         y="0"
         width="100%"
         height="100%"
         transform="matrix(1.0658,0,0,1.0658,185.4,-281.99)" />
    <use
         id="use1927"
         inkscape:spray-origin="#path993"
         xlink:href="#path993"
         x="0"
         y="0"
         width="100%"
         height="100%"
         transform="matrix(1.0658,0,0,1.0658,259.58,-303.76)" />
    <use
         id="use1929"
         inkscape:spray-origin="#path993"
         xlink:href="#path993"
         x="0"
         y="0"
         width="100%"
         height="100%"
         transform="matrix(1.0658,0,0,1.0658,312.68,-320.27)" />
    <use
         id="use1931"
         inkscape:spray-origin="#path993"
         xlink:href="#path993"
         x="0"
         y="0"
         width="100%"
         height="100%"
         transform="matrix(1.0658,0,0,1.0658,334.34,-361.42)" />
    <use
         id="use1933"
         inkscape:spray-origin="#path993"
         xlink:href="#path993"
         x="0"
         y="0"
         width="100%"
         height="100%"
         transform="matrix(1.0658,0,0,1.0658,319.91,-353.61)" />
    <use
         id="use1935"
         inkscape:spray-origin="#path993"
         xlink:href="#path993"
         x="0"
         y="0"
         width="100%"
         height="100%"
         transform="matrix(1.0658,0,0,1.0658,174.53,-379.92)" />
    <use
         id="use1937"
         inkscape:spray-origin="#path993"
         xlink:href="#path993"
         x="0"
         y="0"
         width="100%"
         height="100%"
         transform="matrix(1.0658,0,0,1.0658,135.4,-297.43)" />
    <use
         id="use1939"
         inkscape:spray-origin="#path993"
         xlink:href="#path993"
         x="0"
         y="0"
         width="100%"
         height="100%"
         transform="matrix(1.0658,0,0,1.0658,289.94,-280.06)" />
    <use
         id="use1941"
         inkscape:spray-origin="#path993"
         xlink:href="#path993"
         x="0"
         y="0"
         width="100%"
         height="100%"
         transform="matrix(1.0658,0,0,1.0658,319.91,-340.18)" />
    <use
         id="use1943"
         inkscape:spray-origin="#path993"
         xlink:href="#path993"
         x="0"
         y="0"
         width="100%"
         height="100%"
         transform="matrix(1.0658,0,0,1.0658,349.52,-286.69)" />
    <use
         id="use1945"
         inkscape:spray-origin="#path993"
         xlink:href="#path993"
         x="0"
         y="0"
         width="100%"
         height="100%"
         transform="matrix(1.0658,0,0,1.0658,333.89,-299.28)" />
    <use
         id="use1947"
         inkscape:spray-origin="#path993"
         xlink:href="#path993"
         x="0"
         y="0"
         width="100%"
         height="100%"
         transform="matrix(1.0658,0,0,1.0658,259.27,-267.78)" />
    <use
         id="use1949"
         inkscape:spray-origin="#path993"
         xlink:href="#path993"
         x="0"
         y="0"
         width="100%"
         height="100%"
         transform="matrix(1.0658,0,0,1.0658,122.25,-312.17)" />
    <use
         id="use1951"
         inkscape:spray-origin="#path993"
         xlink:href="#path993"
         x="0"
         y="0"
         width="100%"
         height="100%"
         transform="matrix(1.0658,0,0,1.0658,23.919,-368.14)" />
    <use
         id="use1953"
         inkscape:spray-origin="#path993"
         xlink:href="#path993"
         x="0"
         y="0"
         width="100%"
         height="100%"
         transform="matrix(1.0658,0,0,1.0658,78.041,-345.39)" />
    <use
         id="use1955"
         inkscape:spray-origin="#path993"
         xlink:href="#path993"
         x="0"
         y="0"
         width="100%"
         height="100%"
         transform="matrix(1.0658,0,0,1.0658,178.31,-364.83)" />
    <use
         id="use1957"
         inkscape:spray-origin="#path993"
         xlink:href="#path993"
         x="0"
         y="0"
         width="100%"
         height="100%"
         transform="matrix(1.0658,0,0,1.0658,199.63,-361.83)" />
    <use
         id="use1959"
         inkscape:spray-origin="#path993"
         xlink:href="#path993"
         x="0"
         y="0"
         width="100%"
         height="100%"
         transform="matrix(1.0658,0,0,1.0658,141.59,-368.54)" />
    <use
         id="use1961"
         inkscape:spray-origin="#path993"
         xlink:href="#path993"
         x="0"
         y="0"
         width="100%"
         height="100%"
         transform="matrix(1.0658,0,0,1.0658,124.21,-316.49)" />
    <use
         id="use1963"
         inkscape:spray-origin="#path993"
         xlink:href="#path993"
         x="0"
         y="0"
         width="100%"
         height="100%"
         transform="matrix(1.0658,0,0,1.0658,240.41,-308.44)" />
    <use
         id="use1965"
         inkscape:spray-origin="#path993"
         xlink:href="#path993"
         x="0"
         y="0"
         width="100%"
         height="100%"
         transform="matrix(1.0658,0,0,1.0658,233.03,-327.76)" />
    <g
         id="g896"
         transform="matrix(0.19762,0,0,0.19762,127.13,586.93)">
        <path
             style="fill:#aaaaaa;stroke-width:0.81166"
             d="m 281.64,-553.61 v -305.59 h 117.49 117.49 l 42.41,25.77 42.4,25.77 -0.19,249.08 -0.21,249.09 -42.42,30.73 -42.44,30.74 h -117.26 -117.27 z"
             id="path851"
             sodipodi:nodetypes="ccccccccccccc" />
        <path
             style="fill:#626262;stroke-width:0.81166"
             d="m 282.45,-554.02 v -305.18 h 116.86 116.86 l 11.99,7.32 c 6.6,4.03 25.69,15.66 42.44,25.85 l 30.43,18.53 0.2,248.69 0.2,248.7 -29.7,21.51 c -16.33,11.83 -35.37,25.61 -42.31,30.64 l -12.63,9.13 h -117.16 -117.18 z"
             id="path849" />
        <path
             style="fill:#575757;stroke-width:0.81166"
             d="m 282.46,-484.42 v -235.58 l 5.48,-2.25 c 4.99,-2.04 5.58,-2.54 6.48,-5.41 0.69,-2.23 0.74,-3.85 0.17,-5.5 -0.51,-1.47 -0.69,-12.03 -0.47,-28.27 0.19,-14.27 0.36,-26.67 0.36,-27.56 0,-0.89 -0.15,-13.47 -0.36,-27.95 -0.4,-28.13 -0.2,-29.95 3.44,-31.6 1.46,-0.67 29.65,-0.92 102.92,-0.92 100.85,0 100.91,0 103.04,1.68 l 2.14,1.69 v 15.36 c 0,8.45 0.27,15.36 0.6,15.36 0.32,0 2.5,-0.79 4.85,-1.77 l 4.26,-1.76 0.22,-20.19 0.22,-20.17 32.47,19.77 c 17.85,10.87 37.12,22.63 42.81,26.13 l 10.35,6.36 -0.2,248.38 -0.21,248.38 -9.74,7.17 c -5.35,3.95 -24.34,17.76 -42.18,30.71 l -32.43,23.53 h -117.12 -117.11 z m 48.69,215.7 v -3.65 h -4.46 -4.46 v -19.88 -19.89 h 4.46 4.46 v -4.06 -4.06 h -15.78 c -15.38,0 -15.81,0.1 -17.04,1.8 -1.91,2.72 -1.9,50.21 0,52.12 1.07,1.07 3.79,1.28 17.04,1.28 h 15.77 z m -24.35,-23.53 v -19.89 h 4.06 4.06 v 19.89 19.88 h -4.06 -4.06 z m 24.35,-34.91 v -3.65 h -4.46 -4.46 v -19.88 -19.89 h 4.46 4.46 v -4.06 -4.06 h -15.78 c -15.38,0 -15.81,0.1 -17.04,1.81 -1.91,2.71 -1.9,50.2 0,52.11 1.07,1.07 3.79,1.28 17.04,1.28 h 15.77 z m -24.35,-23.53 v -19.89 h 4.06 4.06 v 19.89 19.88 h -4.06 -4.06 z m 24.35,-34.91 v -3.65 h -4.46 -4.46 v -19.88 -19.89 h 4.46 4.46 v -4.06 -4.06 h -15.78 c -15.38,0 -15.81,0.1 -17.04,1.81 -1.91,2.71 -1.9,50.21 0,52.11 1.07,1.07 3.79,1.28 17.04,1.28 h 15.77 z m -24.35,-23.53 v -19.89 h 4.06 4.06 v 19.89 19.88 h -4.06 -4.06 z m 24.35,-34.91 v -3.65 h -4.46 -4.46 v -19.88 -19.89 h 4.46 4.46 v -4.06 -4.06 h -15.78 c -15.38,0 -15.81,0.1 -17.04,1.81 -1.91,2.72 -1.9,50.21 0,52.11 1.07,1.07 3.79,1.28 17.04,1.28 h 15.77 z m -24.35,-23.53 v -19.89 h 4.06 4.06 v 19.89 19.88 h -4.06 -4.06 z m 24.35,-34.9 v -3.66 h -4.46 -4.46 v -19.88 -19.89 h 4.46 4.46 v -4.06 -4.06 h -15.78 c -15.38,0 -15.81,0.1 -17.04,1.81 -1.91,2.72 -1.9,50.21 0,52.11 1.07,1.07 3.79,1.28 17.04,1.28 h 15.77 z m -24.35,-23.54 v -19.89 h 4.06 4.06 v 19.89 19.88 h -4.06 -4.06 z m 24.35,-34.9 v -3.66 h -4.46 -4.46 v -19.88 -19.89 h 4.46 4.46 v -4.06 -4.05 h -15.78 c -15.38,0 -15.81,0 -17.04,1.8 -1.91,2.72 -1.9,50.21 0,52.11 1.07,1.08 3.79,1.28 17.04,1.28 h 15.77 z m -24.35,-23.54 v -19.89 h 4.06 4.06 v 19.89 19.88 h -4.06 -4.06 z m 24.35,-34.9 v -3.66 h -4.46 -4.46 v -19.88 -19.89 h 4.46 4.46 v -4.06 -4.05 h -15.78 c -15.38,0 -15.81,0 -17.04,1.8 -1.91,2.72 -1.9,50.21 0,52.11 1.07,1.08 3.79,1.28 17.04,1.28 h 15.77 z m -24.35,-23.54 v -19.89 h 4.06 4.06 v 19.89 19.88 h -4.06 -4.06 z m 24.35,-34.9 v -3.66 h -4.46 -4.46 v -19.88 -19.89 h 4.46 4.46 v -4.06 -4.05 h -15.78 c -15.38,0 -15.81,0.1 -17.04,1.8 -1.91,2.72 -1.9,50.21 0,52.11 1.07,1.08 3.79,1.28 17.04,1.28 h 15.77 z m -24.35,-23.54 v -19.89 h 4.06 4.06 v 19.89 19.88 h -4.06 -4.06 z m 24.35,-34.9 v -3.66 h -4.46 -4.46 v -19.88 -19.89 h 4.46 4.46 v -4.05 -4.06 h -15.78 c -15.38,0 -15.81,0.1 -17.04,1.8 -1.91,2.72 -1.9,50.21 0,52.11 1.07,1.08 3.79,1.28 17.04,1.28 h 15.77 z m -24.35,-23.54 v -19.89 h 4.06 4.06 v 19.89 19.88 h -4.06 -4.06 z m 24.35,-34.9 v -3.65 h -4.46 -4.46 v -19.89 -19.89 h 4.46 4.46 v -4.05 -4.06 h -15.78 c -15.38,0 -15.81,0.1 -17.04,1.8 -1.91,2.72 -1.9,50.21 0,52.12 1.07,1.07 3.79,1.27 17.04,1.27 h 15.77 z m -24.35,-23.54 v -19.89 h 4.06 4.06 v 19.89 19.89 h -4.06 -4.06 z"
             id="path847" />
        <path
             style="fill:#02f602;stroke-width:0.81166"
             d="m 282.66,-401.48 0.2,-152.65 5.28,-2.2 5.27,-2.2 0.55,-26.76 c 0.3,-14.72 0.51,-27.85 0.47,-29.19 0,-1.34 -0.1,-14.49 0,-29.22 0,-14.74 0,-27.88 0,-29.22 0,-1.34 0,-14.49 0,-29.22 0,-14.73 0,-27.88 0,-29.22 -0.1,-2.12 0,-52.51 0.1,-57.43 0,-1 -0.14,-13.67 -0.35,-28.15 -0.39,-28.13 -0.2,-29.95 3.44,-31.6 1.46,-0.67 29.66,-0.92 102.92,-0.92 100.85,0 100.91,0 103.04,1.68 l 2.14,1.69 v 27.18 c 0,16.62 -0.31,27.78 -0.82,28.71 -0.54,1.01 -0.54,1.68 0,2.02 1.12,0.68 1.12,54.35 0,56.42 -0.54,1.01 -0.54,1.68 0,2.02 1.06,0.65 1.09,54.72 0,56.38 -0.45,0.72 -0.46,1.55 0,2.09 0.42,0.49 0.85,5.67 0.98,11.52 l 0.23,10.63 4.46,-1.89 4.46,-1.89 0.41,-103.18 0.41,-103.18 19.47,11.89 c 10.72,6.54 29.99,18.3 42.82,26.12 l 23.34,14.23 -0.21,248.41 -0.2,248.4 -24.35,17.73 c -13.39,9.75 -32.38,23.55 -42.18,30.69 l -17.83,12.96 h -117.11 -117.11 z m 101.25,108.82 v -27.6 h -42.16 -42.16 l -1.26,1.8 c -1.91,2.72 -1.9,50.21 0,52.12 1.13,1.13 6.19,1.28 43.42,1.28 h 42.15 z m -77.11,0.41 v -19.89 h 4.06 4.06 v 19.89 19.88 h -4.06 -4.06 z m 15.43,0 v -19.89 h 4.46 4.46 v 19.89 19.88 h -4.46 -4.46 z m 15.42,0 v -19.89 h 4.46 4.47 v 19.89 19.88 h -4.47 -4.46 z m 15.42,0 v -19.89 h 4.46 4.47 v 19.89 19.88 h -4.47 -4.46 z m 16.23,0 v -19.89 h 4.06 4.06 v 19.89 19.88 h -4.06 -4.06 z m 14.61,-58.85 v -27.6 h -42.16 -42.16 l -1.26,1.81 c -1.91,2.71 -1.9,50.2 0,52.11 1.13,1.13 6.19,1.28 43.42,1.28 h 42.15 z m -77.11,0.41 v -19.89 h 4.06 4.06 v 19.89 19.88 h -4.06 -4.06 z m 15.43,0 v -19.89 h 4.46 4.46 v 19.89 19.88 h -4.46 -4.46 z m 15.42,0 v -19.89 h 4.46 4.47 v 19.89 19.88 h -4.47 -4.46 z m 15.42,0 v -19.89 h 4.46 4.47 v 19.89 19.88 h -4.47 -4.46 z m 16.23,0 v -19.89 h 4.06 4.06 v 19.89 19.88 h -4.06 -4.06 z m 14.61,-58.85 v -27.6 h -42.16 -42.16 l -1.26,1.81 c -1.91,2.71 -1.9,50.21 0,52.11 1.13,1.13 6.19,1.28 43.42,1.28 h 42.15 z m -77.11,0.41 v -19.89 h 4.06 4.06 v 19.89 19.88 h -4.06 -4.06 z m 15.43,0 v -19.89 h 4.46 4.46 v 19.89 19.88 h -4.46 -4.46 z m 15.42,0 v -19.89 h 4.46 4.47 v 19.89 19.88 h -4.47 -4.46 z m 15.42,0 v -19.89 h 4.46 4.47 v 19.89 19.88 h -4.47 -4.46 z m 16.23,0 v -19.89 h 4.06 4.06 v 19.89 19.88 h -4.06 -4.06 z m 14.61,-58.85 v -27.6 h -42.16 -42.16 l -1.26,1.81 c -1.91,2.72 -1.9,50.21 0,52.11 1.13,1.13 6.19,1.28 43.42,1.28 h 42.15 z m -77.11,0.41 v -19.89 h 4.06 4.06 v 19.89 19.88 h -4.06 -4.06 z m 15.43,0 v -19.89 h 4.46 4.46 v 19.89 19.88 h -4.46 -4.46 z m 15.42,0 v -19.89 h 4.46 4.47 v 19.89 19.88 h -4.47 -4.46 z m 15.42,0 v -19.89 h 4.46 4.47 v 19.89 19.88 h -4.47 -4.46 z m 16.23,0 v -19.89 h 4.06 4.06 v 19.89 19.88 h -4.06 -4.06 z m 14.61,-58.85 v -27.6 h -42.16 -42.16 l -1.26,1.81 c -1.91,2.72 -1.9,50.21 0,52.11 1.13,1.13 6.19,1.28 43.42,1.28 h 42.15 z m -77.11,0.41 v -19.89 h 4.06 4.06 v 19.89 19.88 h -4.06 -4.06 z m 15.43,0 v -19.89 h 4.46 4.46 v 19.89 19.88 h -4.46 -4.46 z m 15.42,0 v -19.89 h 4.46 4.47 v 19.89 19.88 h -4.47 -4.46 z m 15.42,0 v -19.89 h 4.46 4.47 v 19.89 19.88 h -4.47 -4.46 z m 16.23,0 v -19.89 h 4.06 4.06 v 19.89 19.88 h -4.06 -4.06 z m 14.61,-58.85 v -27.59 h -42.16 -42.16 l -1.26,1.8 c -1.91,2.72 -1.9,50.21 0,52.11 1.13,1.13 6.19,1.28 43.42,1.28 h 42.15 z m -77.11,0.41 v -19.89 h 4.06 4.06 v 19.89 19.88 h -4.06 -4.06 z m 15.43,0 v -19.89 h 4.46 4.46 v 19.89 19.88 h -4.46 -4.46 z m 15.42,0 v -19.89 h 4.46 4.47 v 19.89 19.88 h -4.47 -4.46 z m 15.42,0 v -19.89 h 4.46 4.47 v 19.89 19.88 h -4.47 -4.46 z m 16.23,0 v -19.89 h 4.06 4.06 v 19.89 19.88 h -4.06 -4.06 z m 14.61,-58.85 v -27.59 h -42.16 -42.16 l -1.26,1.8 c -1.91,2.72 -1.9,50.21 0,52.11 1.13,1.13 6.19,1.28 43.42,1.28 h 42.15 z m -77.11,0.41 v -19.89 h 4.06 4.06 v 19.89 19.88 h -4.06 -4.06 z m 15.43,0 v -19.89 h 4.46 4.46 v 19.89 19.88 h -4.46 -4.46 z m 15.42,0 v -19.89 h 4.46 4.47 v 19.89 19.88 h -4.47 -4.46 z m 15.42,0 v -19.89 h 4.46 4.47 v 19.89 19.88 h -4.47 -4.46 z m 16.23,0 v -19.89 h 4.06 4.06 v 19.89 19.88 h -4.06 -4.06 z m 14.61,-58.85 v -27.59 h -42.16 -42.16 l -1.26,1.8 c -1.91,2.72 -1.9,50.21 0,52.11 1.13,1.13 6.19,1.28 43.42,1.28 h 42.15 z m -77.11,0.41 v -19.89 h 4.06 4.06 v 19.89 19.88 h -4.06 -4.06 z m 15.43,0 v -19.89 h 4.46 4.46 v 19.89 19.88 h -4.46 -4.46 z m 15.42,0 v -19.89 h 4.46 4.47 v 19.89 19.88 h -4.47 -4.46 z m 15.42,0 v -19.89 h 4.46 4.47 v 19.89 19.88 h -4.47 -4.46 z m 16.23,0 v -19.89 h 4.06 4.06 v 19.89 19.88 h -4.06 -4.06 z m 14.61,-58.85 v -27.59 h -42.16 -42.16 l -1.26,1.8 c -1.91,2.72 -1.9,50.21 0,52.11 1.13,1.13 6.19,1.28 43.42,1.28 h 42.15 z m -77.11,0.41 v -19.89 h 4.06 4.06 v 19.89 19.88 h -4.06 -4.06 z m 15.43,0 v -19.89 h 4.46 4.46 v 19.89 19.88 h -4.46 -4.46 z m 15.42,0 v -19.89 h 4.46 4.47 v 19.89 19.88 h -4.47 -4.46 z m 15.42,0 v -19.89 h 4.46 4.47 v 19.89 19.88 h -4.47 -4.46 z m 16.23,0 v -19.89 h 4.06 4.06 v 19.89 19.88 h -4.06 -4.06 z m 14.61,-58.85 v -27.59 h -42.16 -42.16 l -1.26,1.8 c -1.91,2.72 -1.9,50.21 0,52.12 1.13,1.12 6.19,1.27 43.42,1.27 h 42.15 z m -77.11,0.41 v -19.89 h 4.06 4.06 v 19.89 19.89 h -4.06 -4.06 z m 15.43,0 v -19.89 h 4.46 4.46 v 19.89 19.89 h -4.46 -4.46 z m 15.42,0 v -19.89 h 4.46 4.47 v 19.89 19.89 h -4.47 -4.46 z m 15.42,0 v -19.89 h 4.46 4.47 v 19.89 19.89 h -4.47 -4.46 z m 16.23,0 v -19.89 h 4.06 4.06 v 19.89 19.89 h -4.06 -4.06 z"
             id="path845" />
        <path
             style="fill:#474747;stroke-width:0.81166"
             d="m 282.66,-401.48 0.2,-152.65 5.28,-2.2 5.27,-2.2 0.55,-26.76 c 0.3,-14.72 0.51,-27.85 0.47,-29.19 0,-1.34 -0.1,-14.49 0,-29.22 0,-14.74 0,-27.88 0,-29.22 0,-1.34 0,-14.49 0,-29.22 0,-14.73 0,-27.88 0,-29.22 -0.1,-2.12 0,-52.51 0.1,-57.43 0,-1 -0.14,-13.67 -0.35,-28.15 -0.39,-28.13 -0.2,-29.95 3.44,-31.6 1.46,-0.67 29.66,-0.92 102.92,-0.92 100.85,0 100.91,0 103.04,1.68 l 2.14,1.69 v 27.18 c 0,16.62 -0.31,27.78 -0.82,28.71 -0.54,1.01 -0.54,1.68 0,2.02 1.12,0.68 1.12,54.35 0,56.42 -0.54,1.01 -0.54,1.68 0,2.02 1.06,0.65 1.09,54.72 0,56.38 -0.45,0.72 -0.46,1.55 0,2.09 0.42,0.49 0.85,5.67 0.98,11.52 l 0.23,10.63 4.46,-1.89 4.46,-1.89 0.41,-103.18 0.41,-103.18 19.47,11.89 c 10.72,6.54 29.99,18.3 42.82,26.12 l 23.34,14.23 -0.21,248.41 -0.2,248.4 -24.35,17.73 c -13.39,9.75 -32.38,23.55 -42.18,30.69 l -17.83,12.96 h -117.11 -117.11 z m 101.25,108.82 v -27.6 h -42.16 -42.16 l -1.26,1.8 c -1.91,2.72 -1.9,50.21 0,52.12 1.13,1.13 6.19,1.28 43.42,1.28 h 42.15 z m -77.11,0.41 v -19.89 h 4.06 4.06 v 19.89 19.88 h -4.06 -4.06 z m 15.43,0 v -19.89 h 4.46 4.46 v 19.89 19.88 h -4.46 -4.46 z m 15.42,0 v -19.89 h 4.46 4.47 v 19.89 19.88 h -4.47 -4.46 z m 15.42,0 v -19.89 h 4.46 4.47 v 19.89 19.88 h -4.47 -4.46 z m 16.23,0 v -19.89 h 4.06 4.06 v 19.89 19.88 h -4.06 -4.06 z m 38.66,6.27 c 4.37,-3.54 4.67,-8.15 0.79,-12.04 -5.35,-5.35 -13.42,-1.97 -13.46,5.63 0,6.29 7.88,10.29 12.67,6.41 z m 27.96,-0.93 c 5.97,-5.98 0,-15.91 -7.94,-13.27 -1.25,0.41 -3.12,1.99 -4.16,3.53 -2.37,3.51 -1.88,6.8 1.5,9.87 3.4,3.1 7.42,3.05 10.6,-0.13 z m 29.79,-5.55 -0.22,-7.91 h -8.12 -8.12 l -0.23,7.91 -0.24,7.92 h 8.59 8.58 z m 26.97,-0.2 v -8.12 h -8.12 -8.12 v 8.12 8.12 h 8.12 8.12 z m -108.77,-58.44 v -27.6 h -42.16 -42.16 l -1.26,1.81 c -1.91,2.71 -1.9,50.2 0,52.11 1.13,1.13 6.19,1.28 43.42,1.28 h 42.15 z m -77.11,0.41 v -19.89 h 4.06 4.06 v 19.89 19.88 h -4.06 -4.06 z m 15.43,0 v -19.89 h 4.46 4.46 v 19.89 19.88 h -4.46 -4.46 z m 15.42,0 v -19.89 h 4.46 4.47 v 19.89 19.88 h -4.47 -4.46 z m 15.42,0 v -19.89 h 4.46 4.47 v 19.89 19.88 h -4.47 -4.46 z m 16.23,0 v -19.89 h 4.06 4.06 v 19.89 19.88 h -4.06 -4.06 z m 38.66,6.27 c 4.37,-3.54 4.67,-8.15 0.79,-12.04 -5.35,-5.35 -13.42,-1.97 -13.46,5.63 0,6.29 7.88,10.29 12.67,6.41 z m 27.96,-0.93 c 5.97,-5.98 0,-15.91 -7.94,-13.27 -1.25,0.41 -3.12,1.99 -4.16,3.53 -2.37,3.51 -1.88,6.8 1.5,9.87 3.4,3.11 7.42,3.05 10.6,-0.13 z m 29.79,-5.55 -0.22,-7.91 h -8.12 -8.12 l -0.23,7.91 -0.24,7.92 h 8.59 8.58 z m 26.97,-0.2 v -8.12 h -8.12 -8.12 v 8.12 8.12 h 8.12 8.12 z m -108.77,-58.44 v -27.6 h -42.16 -42.16 l -1.26,1.81 c -1.91,2.71 -1.9,50.21 0,52.11 1.13,1.13 6.19,1.28 43.42,1.28 h 42.15 z m -77.11,0.41 v -19.89 h 4.06 4.06 v 19.89 19.88 h -4.06 -4.06 z m 15.43,0 v -19.89 h 4.46 4.46 v 19.89 19.88 h -4.46 -4.46 z m 15.42,0 v -19.89 h 4.46 4.47 v 19.89 19.88 h -4.47 -4.46 z m 15.42,0 v -19.89 h 4.46 4.47 v 19.89 19.88 h -4.47 -4.46 z m 16.23,0 v -19.89 h 4.06 4.06 v 19.89 19.88 h -4.06 -4.06 z m 38.66,6.27 c 4.37,-3.54 4.67,-8.15 0.79,-12.04 -5.35,-5.35 -13.42,-1.97 -13.46,5.63 0,6.29 7.88,10.29 12.67,6.41 z m 27.96,-0.93 c 5.97,-5.98 0,-15.91 -7.94,-13.27 -1.25,0.41 -3.12,1.99 -4.16,3.53 -2.37,3.51 -1.88,6.8 1.5,9.87 3.4,3.11 7.42,3.05 10.6,-0.13 z m 29.79,-5.55 -0.22,-7.91 h -8.12 -8.12 l -0.23,7.91 -0.24,7.92 h 8.59 8.58 z m 26.97,-0.2 v -8.12 h -8.12 -8.12 v 8.12 8.12 h 8.12 8.12 z m -108.77,-58.44 v -27.6 h -42.16 -42.16 l -1.26,1.81 c -1.91,2.72 -1.9,50.21 0,52.11 1.13,1.13 6.19,1.28 43.42,1.28 h 42.15 z m -77.11,0.41 v -19.89 h 4.06 4.06 v 19.89 19.88 h -4.06 -4.06 z m 15.43,0 v -19.89 h 4.46 4.46 v 19.89 19.88 h -4.46 -4.46 z m 15.42,0 v -19.89 h 4.46 4.47 v 19.89 19.88 h -4.47 -4.46 z m 15.42,0 v -19.89 h 4.46 4.47 v 19.89 19.88 h -4.47 -4.46 z m 16.23,0 v -19.89 h 4.06 4.06 v 19.89 19.88 h -4.06 -4.06 z m 38.66,6.27 c 4.37,-3.54 4.67,-8.15 0.79,-12.04 -5.35,-5.34 -13.42,-1.97 -13.46,5.63 0,6.29 7.88,10.29 12.67,6.41 z m 27.96,-0.93 c 5.97,-5.98 0,-15.91 -7.94,-13.27 -1.25,0.41 -3.12,1.99 -4.16,3.53 -2.37,3.51 -1.88,6.8 1.5,9.88 3.4,3.1 7.42,3.04 10.6,-0.14 z m 29.79,-5.55 -0.22,-7.91 h -8.12 -8.12 l -0.23,7.91 -0.24,7.92 h 8.59 8.58 z m 26.97,-0.2 v -8.12 h -8.12 -8.12 v 8.12 8.12 h 8.12 8.12 z m -108.77,-58.44 v -27.6 h -42.16 -42.16 l -1.26,1.81 c -1.91,2.72 -1.9,50.21 0,52.11 1.13,1.13 6.19,1.28 43.42,1.28 h 42.15 z m -77.11,0.41 v -19.89 h 4.06 4.06 v 19.89 19.88 h -4.06 -4.06 z m 15.43,0 v -19.89 h 4.46 4.46 v 19.89 19.88 h -4.46 -4.46 z m 15.42,0 v -19.89 h 4.46 4.47 v 19.89 19.88 h -4.47 -4.46 z m 15.42,0 v -19.89 h 4.46 4.47 v 19.89 19.88 h -4.47 -4.46 z m 16.23,0 v -19.89 h 4.06 4.06 v 19.89 19.88 h -4.06 -4.06 z m 38.66,6.27 c 4.37,-3.54 4.67,-8.15 0.79,-12.04 -5.35,-5.34 -13.42,-1.97 -13.46,5.63 0,6.29 7.88,10.29 12.67,6.41 z m 27.96,-0.93 c 5.97,-5.98 0,-15.91 -7.94,-13.27 -1.25,0.41 -3.12,1.99 -4.16,3.53 -2.37,3.51 -1.88,6.8 1.5,9.88 3.4,3.1 7.42,3.04 10.6,-0.14 z m 29.79,-5.55 -0.22,-7.91 h -8.12 -8.12 l -0.23,7.91 -0.24,7.92 h 8.59 8.58 z m 26.97,-0.2 v -8.12 h -8.12 -8.12 v 8.12 8.12 h 8.12 8.12 z m -108.77,-58.44 v -27.59 h -42.16 -42.16 l -1.26,1.8 c -1.91,2.72 -1.9,50.21 0,52.11 1.13,1.13 6.19,1.28 43.42,1.28 h 42.15 z m -77.11,0.41 v -19.89 h 4.06 4.06 v 19.89 19.88 h -4.06 -4.06 z m 15.43,0 v -19.89 h 4.46 4.46 v 19.89 19.88 h -4.46 -4.46 z m 15.42,0 v -19.89 h 4.46 4.47 v 19.89 19.88 h -4.47 -4.46 z m 15.42,0 v -19.89 h 4.46 4.47 v 19.89 19.88 h -4.47 -4.46 z m 16.23,0 v -19.89 h 4.06 4.06 v 19.89 19.88 h -4.06 -4.06 z m 38.66,6.27 c 4.37,-3.54 4.67,-8.15 0.79,-12.04 -5.35,-5.34 -13.42,-1.97 -13.46,5.63 0,6.29 7.88,10.29 12.67,6.41 z m 27.96,-0.93 c 5.97,-5.98 0,-15.91 -7.94,-13.27 -1.25,0.41 -3.12,2 -4.16,3.53 -2.37,3.51 -1.88,6.8 1.5,9.88 3.4,3.1 7.42,3.04 10.6,-0.14 z m 29.79,-5.55 -0.22,-7.91 h -8.12 -8.12 l -0.23,7.91 -0.24,7.92 h 8.59 8.58 z m 26.97,-0.2 v -8.11 h -8.12 -8.12 v 8.11 8.12 h 8.12 8.12 z m -108.77,-58.44 v -27.59 h -42.16 -42.16 l -1.26,1.8 c -1.91,2.72 -1.9,50.21 0,52.11 1.13,1.13 6.19,1.28 43.42,1.28 h 42.15 z m -77.11,0.41 v -19.89 h 4.06 4.06 v 19.89 19.88 h -4.06 -4.06 z m 15.43,0 v -19.89 h 4.46 4.46 v 19.89 19.88 h -4.46 -4.46 z m 15.42,0 v -19.89 h 4.46 4.47 v 19.89 19.88 h -4.47 -4.46 z m 15.42,0 v -19.89 h 4.46 4.47 v 19.89 19.88 h -4.47 -4.46 z m 16.23,0 v -19.89 h 4.06 4.06 v 19.89 19.88 h -4.06 -4.06 z m 38.66,6.27 c 4.37,-3.54 4.67,-8.15 0.79,-12.03 -5.35,-5.35 -13.42,-1.98 -13.46,5.62 0,6.29 7.88,10.29 12.67,6.41 z m 27.96,-0.93 c 5.97,-5.98 0,-15.91 -7.94,-13.27 -1.25,0.41 -3.12,2 -4.16,3.53 -2.37,3.51 -1.88,6.8 1.5,9.88 3.4,3.1 7.42,3.04 10.6,-0.14 z m 29.79,-5.54 -0.22,-7.92 h -8.12 -8.12 l -0.23,7.92 -0.24,7.91 h 8.59 8.58 z m 26.97,-0.21 v -8.11 h -8.12 -8.12 v 8.11 8.12 h 8.12 8.12 z m -108.77,-58.44 v -27.59 h -42.16 -42.16 l -1.26,1.8 c -1.91,2.72 -1.9,50.21 0,52.11 1.13,1.13 6.19,1.28 43.42,1.28 h 42.15 z m -77.11,0.41 v -19.89 h 4.06 4.06 v 19.89 19.88 h -4.06 -4.06 z m 15.43,0 v -19.89 h 4.46 4.46 v 19.89 19.88 h -4.46 -4.46 z m 15.42,0 v -19.89 h 4.46 4.47 v 19.89 19.88 h -4.47 -4.46 z m 15.42,0 v -19.89 h 4.46 4.47 v 19.89 19.88 h -4.47 -4.46 z m 16.23,0 v -19.89 h 4.06 4.06 v 19.89 19.88 h -4.06 -4.06 z m 38.66,6.27 c 4.37,-3.54 4.67,-8.15 0.79,-12.03 -5.35,-5.35 -13.42,-1.98 -13.46,5.62 0,6.29 7.88,10.29 12.67,6.41 z m 27.96,-0.93 c 5.97,-5.98 0,-15.91 -7.94,-13.27 -1.25,0.41 -3.12,2 -4.16,3.53 -2.37,3.51 -1.88,6.8 1.5,9.88 3.4,3.1 7.42,3.04 10.6,-0.14 z m 29.79,-5.54 -0.22,-7.92 h -8.12 -8.12 l -0.23,7.92 -0.24,7.91 h 8.59 8.58 z m 26.97,-0.21 v -8.11 h -8.12 -8.12 v 8.11 8.12 h 8.12 8.12 z m -108.77,-58.44 v -27.59 h -42.16 -42.16 l -1.26,1.8 c -1.91,2.72 -1.9,50.21 0,52.11 1.13,1.13 6.19,1.28 43.42,1.28 h 42.15 z m -77.11,0.41 v -19.89 h 4.06 4.06 v 19.89 19.88 h -4.06 -4.06 z m 15.43,0 v -19.89 h 4.46 4.46 v 19.89 19.88 h -4.46 -4.46 z m 15.42,0 v -19.89 h 4.46 4.47 v 19.89 19.88 h -4.47 -4.46 z m 15.42,0 v -19.89 h 4.46 4.47 v 19.89 19.88 h -4.47 -4.46 z m 16.23,0 v -19.89 h 4.06 4.06 v 19.89 19.88 h -4.06 -4.06 z m 38.66,6.27 c 4.37,-3.54 4.67,-8.15 0.79,-12.03 -5.35,-5.35 -13.42,-1.98 -13.46,5.62 0,6.29 7.88,10.29 12.67,6.41 z m 27.96,-0.93 c 5.97,-5.97 0,-15.91 -7.94,-13.27 -1.25,0.41 -3.12,2 -4.16,3.53 -2.37,3.51 -1.88,6.8 1.5,9.88 3.4,3.1 7.42,3.04 10.6,-0.14 z m 29.79,-5.54 -0.22,-7.92 h -8.12 -8.12 l -0.23,7.92 -0.24,7.91 h 8.59 8.58 z m 26.97,-0.21 v -8.11 h -8.12 -8.12 v 8.11 8.12 h 8.12 8.12 z m -108.77,-58.44 v -27.59 h -42.16 -42.16 l -1.26,1.8 c -1.91,2.72 -1.9,50.21 0,52.12 1.13,1.12 6.19,1.27 43.42,1.27 h 42.15 z m -77.11,0.41 v -19.89 h 4.06 4.06 v 19.89 19.89 h -4.06 -4.06 z m 15.43,0 v -19.89 h 4.46 4.46 v 19.89 19.89 h -4.46 -4.46 z m 15.42,0 v -19.89 h 4.46 4.47 v 19.89 19.89 h -4.47 -4.46 z m 15.42,0 v -19.89 h 4.46 4.47 v 19.89 19.89 h -4.47 -4.46 z m 16.23,0 v -19.89 h 4.06 4.06 v 19.89 19.89 h -4.06 -4.06 z m 38.66,6.27 c 4.37,-3.54 4.67,-8.15 0.79,-12.03 -5.35,-5.35 -13.42,-1.98 -13.46,5.62 0,6.29 7.88,10.29 12.67,6.41 z m 27.96,-0.93 c 5.97,-5.97 0,-15.91 -7.94,-13.27 -1.25,0.41 -3.12,2 -4.16,3.53 -2.37,3.51 -1.88,6.8 1.5,9.88 3.4,3.1 7.42,3.04 10.6,-0.14 z m 29.79,-5.54 -0.22,-7.92 h -8.12 -8.12 l -0.23,7.92 -0.24,7.91 h 8.59 8.58 z m 26.97,-0.21 v -8.11 h -8.12 -8.12 v 8.11 8.12 h 8.12 8.12 z"
             id="path843" />
        <path
             style="fill:#323232;stroke-width:0.81166"
             d="m 282.65,-280.14 0.21,-31.33 5.15,-2.18 c 6.2,-2.63 8.03,-5.58 6.58,-10.56 -0.56,-1.93 -0.73,-11.79 -0.48,-28.51 0.22,-14.06 0.36,-26.67 0.32,-28.01 0,-1.33 -0.1,-14.48 0,-29.22 0,-14.73 0,-27.88 0,-29.22 0,-1.33 0,-14.48 0,-29.21 0,-14.74 0,-27.89 0,-29.22 -0.1,-2.12 0,-52.51 0.1,-57.43 0,-1.01 -0.14,-13.63 -0.35,-28.06 -0.31,-22 -0.17,-26.61 0.83,-28.62 1.04,-2.08 1.04,-2.69 0,-4.61 -1.71,-3.27 -1.7,-50.7 0,-53.97 1.01,-1.93 1.01,-2.52 0,-4.46 -0.93,-1.8 -1.16,-7.06 -1.16,-26.99 0,-19.92 0.23,-25.19 1.16,-26.98 1.01,-1.94 1.01,-2.53 0,-4.47 -1.7,-3.26 -1.71,-50.7 0,-53.96 1,-1.93 1,-2.53 0,-4.62 -1,-1.99 -1.16,-6.74 -0.96,-28.08 l 0.23,-25.7 2.29,-1.96 2.29,-1.97 101.88,0.22 101.88,0.21 1.55,1.91 c 1.46,1.8 1.55,3.54 1.55,28.86 0,18.4 -0.28,27.22 -0.89,27.82 -0.64,0.64 -0.64,1.35 0,2.55 1.23,2.3 1.23,54.66 0,55.89 -0.64,0.64 -0.64,1.35 0,2.55 1.23,2.3 1.23,54.66 0,55.89 -0.64,0.64 -0.64,1.35 0,2.55 1.17,2.17 1.23,53.98 0.1,56.14 -0.54,1.02 -0.54,1.69 0,2.03 1.11,0.68 1.11,54.35 0,56.42 -0.54,1.01 -0.54,1.68 0,2.02 1.11,0.68 1.11,54.35 0,56.42 -0.54,1.01 -0.54,1.68 0,2.02 1.11,0.68 1.11,54.35 0,56.42 -0.54,1.01 -0.54,1.68 0,2.02 0.51,0.31 0.82,6.45 0.82,15.82 v 15.31 l 4.67,-1.9 4.67,-1.9 0.4,-224.4 0.41,-224.41 42.81,26 42.82,26 -0.21,248.41 -0.2,248.41 -42.2,30.65 -42.21,30.64 -117.09,0.1 h -117.1 z m 179.18,5.34 v -9.74 h 2.03 2.03 v -8.12 -8.12 h -2.03 -2.03 v -9.74 -9.74 h -81.11 c -72.65,0 -81.24,0.13 -82.38,1.28 -1.1,1.1 -1.28,4.61 -1.28,26.03 0,15.51 0.32,25.33 0.84,26.32 0.83,1.53 2.6,1.57 82.39,1.57 h 81.54 z m -155.03,-17.45 v -19.89 h 4.06 4.06 v 19.89 19.88 h -4.06 -4.06 z m 16,19.38 c -0.31,-0.32 -0.57,-9.29 -0.57,-19.93 v -19.34 h 4.47 4.48 l -0.21,19.68 -0.22,19.69 -3.68,0.24 c -2.03,0.13 -3.95,0 -4.27,-0.34 z m 15.43,0 c -0.32,-0.32 -0.58,-9.29 -0.58,-19.93 v -19.34 h 4.48 4.48 l -0.22,19.68 -0.22,19.69 -3.68,0.24 c -2.03,0.13 -3.95,0 -4.26,-0.34 z m 15.38,0 c -0.3,-0.29 -0.54,-9.25 -0.54,-19.89 v -19.34 h 4.46 4.47 v 19.89 19.88 h -3.93 c -2.15,0 -4.16,-0.24 -4.46,-0.54 z m 15.69,-19.34 v -19.89 h 4.06 4.06 v 19.89 19.88 h -4.06 -4.06 z m 123.38,-0.41 v -8.12 h -8.12 -8.12 v 8.12 8.12 h 8.12 8.12 z m -30.85,-40.58 v -9.74 h 2.03 2.03 v -8.12 -8.12 h -2.03 -2.03 v -9.74 -9.74 h -81.11 c -72.65,0 -81.24,0.13 -82.38,1.28 -1.1,1.1 -1.28,4.61 -1.28,26.03 0,15.51 0.32,25.33 0.84,26.32 0.83,1.53 2.6,1.57 82.39,1.57 h 81.54 z m -155.03,-17.45 v -19.89 h 4.06 4.06 v 19.89 19.88 h -4.06 -4.06 z m 16,19.38 c -0.31,-0.32 -0.57,-9.29 -0.57,-19.93 v -19.34 h 4.47 4.48 l -0.21,19.68 -0.22,19.69 -3.68,0.24 c -2.03,0.13 -3.95,0 -4.27,-0.34 z m 15.43,0 c -0.32,-0.32 -0.58,-9.29 -0.58,-19.93 v -19.34 h 4.48 4.48 l -0.22,19.68 -0.22,19.69 -3.68,0.24 c -2.03,0.13 -3.95,0 -4.26,-0.34 z m 15.38,0 c -0.3,-0.29 -0.54,-9.25 -0.54,-19.89 v -19.34 h 4.46 4.47 v 19.89 19.88 h -3.93 c -2.15,0 -4.16,-0.24 -4.46,-0.54 z m 15.69,-19.34 v -19.89 h 4.06 4.06 v 19.89 19.88 h -4.06 -4.06 z m 123.38,-0.41 v -8.12 h -8.12 -8.12 v 8.12 8.12 h 8.12 8.12 z m -30.85,-40.58 v -9.74 h 2.03 2.03 v -8.12 -8.11 h -2.03 -2.03 v -9.74 -9.74 h -81.11 c -72.65,0 -81.24,0.13 -82.38,1.27 -1.1,1.1 -1.28,4.61 -1.28,26.03 0,15.51 0.32,25.33 0.84,26.32 0.83,1.54 2.6,1.57 82.39,1.57 h 81.54 z m -155.03,-17.45 v -19.89 h 4.06 4.06 v 19.89 19.88 h -4.06 -4.06 z m 16,19.38 c -0.31,-0.32 -0.57,-9.29 -0.57,-19.93 v -19.34 h 4.47 4.48 l -0.21,19.68 -0.22,19.69 -3.68,0.24 c -2.03,0.13 -3.95,0 -4.27,-0.34 z m 15.43,0 c -0.32,-0.32 -0.58,-9.29 -0.58,-19.93 v -19.34 h 4.48 4.48 l -0.22,19.68 -0.22,19.69 -3.68,0.24 c -2.03,0.13 -3.95,0 -4.26,-0.34 z m 15.38,0 c -0.3,-0.29 -0.54,-9.24 -0.54,-19.89 v -19.34 h 4.46 4.47 v 19.89 19.88 h -3.93 c -2.15,0 -4.16,-0.24 -4.46,-0.54 z m 15.69,-19.34 v -19.89 h 4.06 4.06 v 19.89 19.88 h -4.06 -4.06 z m 123.38,-0.41 v -8.11 h -8.12 -8.12 v 8.11 8.12 h 8.12 8.12 z m -30.85,-40.58 v -9.74 h 2.03 2.03 v -8.12 -8.11 h -2.03 -2.03 v -9.74 -9.74 h -81.11 c -72.65,0 -81.24,0.13 -82.38,1.27 -1.1,1.1 -1.28,4.61 -1.28,26.03 0,15.51 0.32,25.33 0.84,26.32 0.83,1.54 2.6,1.57 82.39,1.57 h 81.54 z m -155.03,-17.45 v -19.89 h 4.06 4.06 v 19.89 19.88 h -4.06 -4.06 z m 16,19.38 c -0.31,-0.32 -0.57,-9.28 -0.57,-19.93 v -19.34 h 4.47 4.48 l -0.21,19.69 -0.22,19.68 -3.68,0.24 c -2.03,0.13 -3.95,0 -4.27,-0.34 z m 15.43,0 c -0.32,-0.32 -0.58,-9.28 -0.58,-19.93 v -19.34 h 4.48 4.48 l -0.22,19.69 -0.22,19.68 -3.68,0.24 c -2.03,0.13 -3.95,0 -4.26,-0.34 z m 15.38,0 c -0.3,-0.29 -0.54,-9.24 -0.54,-19.88 v -19.35 h 4.46 4.47 v 19.89 19.88 h -3.93 c -2.15,0 -4.16,-0.24 -4.46,-0.54 z m 15.69,-19.34 v -19.89 h 4.06 4.06 v 19.89 19.88 h -4.06 -4.06 z m 123.38,-0.41 v -8.11 h -8.12 -8.12 v 8.11 8.12 h 8.12 8.12 z m -30.85,-40.58 v -9.74 h 2.03 2.03 v -8.12 -8.11 h -2.03 -2.03 v -9.74 -9.74 h -81.11 c -72.65,0 -81.24,0.13 -82.38,1.27 -1.1,1.11 -1.28,4.61 -1.28,26.03 0,15.51 0.32,25.33 0.84,26.32 0.83,1.54 2.6,1.57 82.39,1.57 h 81.54 z m -155.03,-17.45 v -19.89 h 4.06 4.06 v 19.89 19.89 h -4.06 -4.06 z m 16,19.38 c -0.31,-0.31 -0.57,-9.28 -0.57,-19.92 v -19.35 h 4.47 4.48 l -0.21,19.69 -0.22,19.68 -3.68,0.24 c -2.03,0.13 -3.95,0 -4.27,-0.34 z m 15.43,0 c -0.32,-0.31 -0.58,-9.28 -0.58,-19.92 v -19.35 h 4.48 4.48 l -0.22,19.69 -0.22,19.68 -3.68,0.24 c -2.03,0.13 -3.95,0 -4.26,-0.34 z m 15.38,-0.1 c -0.3,-0.29 -0.54,-9.24 -0.54,-19.88 v -19.35 h 4.46 4.47 v 19.89 19.88 h -3.93 c -2.15,0 -4.16,-0.24 -4.46,-0.54 z m 15.69,-19.34 v -19.89 h 4.06 4.06 v 19.89 19.88 h -4.06 -4.06 z m 123.38,-0.41 v -8.11 h -8.12 -8.12 v 8.11 8.12 h 8.12 8.12 z m -30.85,-40.58 v -9.74 h 2.03 2.03 v -8.12 -8.11 h -2.03 -2.03 v -9.74 -9.74 h -81.11 c -72.65,0 -81.24,0.13 -82.38,1.27 -1.1,1.11 -1.28,4.61 -1.28,26.03 0,15.51 0.32,25.33 0.84,26.32 0.83,1.54 2.6,1.57 82.39,1.57 h 81.54 z m -155.03,-17.45 v -19.89 h 4.06 4.06 v 19.89 19.89 h -4.06 -4.06 z m 16,19.38 c -0.31,-0.31 -0.57,-9.28 -0.57,-19.92 v -19.35 h 4.47 4.48 l -0.21,19.69 -0.22,19.68 -3.68,0.24 c -2.03,0.13 -3.95,0 -4.27,-0.34 z m 15.43,0 c -0.32,-0.31 -0.58,-9.28 -0.58,-19.92 v -19.35 h 4.48 4.48 l -0.22,19.69 -0.22,19.68 -3.68,0.24 c -2.03,0.13 -3.95,0 -4.26,-0.34 z m 15.38,-0.1 c -0.3,-0.29 -0.54,-9.24 -0.54,-19.88 v -19.35 h 4.46 4.47 v 19.89 19.88 h -3.93 c -2.15,0 -4.16,-0.24 -4.46,-0.54 z m 15.69,-19.34 v -19.89 h 4.06 4.06 v 19.89 19.88 h -4.06 -4.06 z m 123.38,-0.41 v -8.11 h -8.12 -8.12 v 8.11 8.12 h 8.12 8.12 z m -30.85,-40.58 v -9.74 h 2.03 2.03 v -8.12 -8.11 h -2.03 -2.03 v -9.74 -9.74 h -81.11 c -72.65,0 -81.24,0.13 -82.38,1.27 -1.1,1.11 -1.28,4.61 -1.28,26.03 0,15.51 0.32,25.34 0.84,26.32 0.83,1.54 2.6,1.57 82.39,1.57 h 81.54 z m -155.03,-17.45 v -19.89 h 4.06 4.06 v 19.89 19.89 h -4.06 -4.06 z m 16,19.38 c -0.31,-0.32 -0.57,-9.28 -0.57,-19.92 v -19.35 h 4.47 4.48 l -0.21,19.69 -0.22,19.68 -3.68,0.24 c -2.03,0.13 -3.95,0 -4.27,-0.34 z m 15.43,0 c -0.32,-0.32 -0.58,-9.28 -0.58,-19.92 v -19.35 h 4.48 4.48 l -0.22,19.69 -0.22,19.68 -3.68,0.24 c -2.03,0.13 -3.95,0 -4.26,-0.34 z m 15.38,0 c -0.3,-0.3 -0.54,-9.25 -0.54,-19.88 v -19.35 h 4.46 4.47 v 19.89 19.88 h -3.93 c -2.15,0 -4.16,-0.24 -4.46,-0.54 z m 15.69,-19.34 v -19.89 h 4.06 4.06 v 19.89 19.88 h -4.06 -4.06 z m 123.38,-0.41 v -8.12 h -8.12 -8.12 v 8.12 8.12 h 8.12 8.12 z m -30.85,-40.58 v -9.74 h 2.03 2.03 v -8.12 -8.12 h -2.03 -2.03 v -9.74 -9.74 h -81.11 c -72.65,0 -81.24,0.14 -82.38,1.28 -1.1,1.1 -1.28,4.61 -1.28,26.03 0,15.51 0.32,25.33 0.84,26.32 0.83,1.53 2.6,1.57 82.39,1.57 h 81.54 z m -155.03,-17.45 v -19.89 h 4.06 4.06 v 19.89 19.88 h -4.06 -4.06 z m 16,19.38 c -0.31,-0.32 -0.57,-9.28 -0.57,-19.92 v -19.35 h 4.47 4.48 l -0.21,19.68 -0.22,19.69 -3.68,0.24 c -2.03,0.13 -3.95,0 -4.27,-0.34 z m 15.43,0 c -0.32,-0.32 -0.58,-9.28 -0.58,-19.92 v -19.35 h 4.48 4.48 l -0.22,19.68 -0.22,19.69 -3.68,0.24 c -2.03,0.13 -3.95,0 -4.26,-0.34 z m 15.38,0 c -0.3,-0.3 -0.54,-9.25 -0.54,-19.89 v -19.34 h 4.46 4.47 v 19.88 19.89 h -3.93 c -2.15,0 -4.16,-0.24 -4.46,-0.54 z m 15.69,-19.35 v -19.88 h 4.06 4.06 v 19.88 19.89 h -4.06 -4.06 z m 123.38,-0.4 v -8.12 h -8.12 -8.12 v 8.12 8.11 h 8.12 8.12 z m -30.85,-40.59 v -9.74 h 2.03 2.03 v -8.11 -8.12 h -2.03 -2.03 v -9.74 -9.74 h -81.11 c -72.65,0 -81.24,0.13 -82.38,1.27 -1.1,1.11 -1.28,4.61 -1.28,26.03 0,15.51 0.32,25.34 0.84,26.32 0.83,1.54 2.6,1.57 82.39,1.57 h 81.54 z m -155.03,-17.45 v -19.88 h 4.06 4.06 v 19.88 19.89 h -4.06 -4.06 z m 16,19.39 c -0.31,-0.32 -0.57,-9.29 -0.57,-19.93 v -19.34 h 4.47 4.48 l -0.21,19.68 -0.22,19.68 -3.68,0.24 c -2.03,0.14 -3.95,0 -4.27,-0.33 z m 15.43,0 c -0.32,-0.32 -0.58,-9.29 -0.58,-19.93 v -19.34 h 4.48 4.48 l -0.22,19.68 -0.22,19.68 -3.68,0.24 c -2.03,0.14 -3.95,0 -4.26,-0.33 z m 15.38,0 c -0.3,-0.3 -0.54,-9.25 -0.54,-19.89 v -19.34 h 4.46 4.47 v 19.88 19.89 h -3.93 c -2.15,0 -4.16,-0.25 -4.46,-0.54 z m 15.69,-19.35 v -19.88 h 4.06 4.06 v 19.88 19.89 h -4.06 -4.06 z m 123.38,-0.4 v -8.12 h -8.12 -8.12 v 8.12 8.11 h 8.12 8.12 z m -30.85,-40.59 v -9.74 h 2.03 2.03 v -8.11 -8.12 h -2.03 -2.03 v -9.74 -9.74 h -81.11 c -72.65,0 -81.24,0.13 -82.38,1.27 -1.1,1.11 -1.28,4.61 -1.28,26.03 0,15.52 0.32,25.34 0.84,26.33 0.83,1.53 2.6,1.56 82.39,1.56 h 81.54 z m -155.03,-17.45 v -19.88 h 4.06 4.06 v 19.88 19.89 h -4.06 -4.06 z m 16,19.39 c -0.31,-0.32 -0.57,-9.29 -0.57,-19.93 v -19.34 h 4.47 4.48 l -0.21,19.68 -0.22,19.68 -3.68,0.25 c -2.03,0.13 -3.95,0 -4.27,-0.34 z m 15.43,0 c -0.32,-0.32 -0.58,-9.29 -0.58,-19.93 v -19.34 h 4.48 4.48 l -0.22,19.68 -0.22,19.68 -3.68,0.25 c -2.03,0.13 -3.95,0 -4.26,-0.34 z m 15.38,-0.1 c -0.3,-0.29 -0.54,-9.24 -0.54,-19.88 v -19.34 h 4.46 4.47 v 19.88 19.89 h -3.93 c -2.15,0 -4.16,-0.25 -4.46,-0.55 z m 15.69,-19.34 v -19.88 h 4.06 4.06 v 19.88 19.89 h -4.06 -4.06 z m 123.38,-0.4 v -8.12 h -8.12 -8.12 v 8.12 8.11 h 8.12 8.12 z"
             id="path841" />
        <path
             style="fill:#090909;stroke-width:0.81166"
             d="m 516.01,-553.41 c 0.23,-167.51 0.49,-304.67 0.59,-304.79 0.11,-0.12 11.2,6.45 24.65,14.61 l 24.46,14.83 -0.19,272.21 -0.2,272.21 -24.35,17.72 c -13.39,9.74 -24.58,17.72 -24.86,17.75 -0.28,0 -0.32,-137.02 -0.1,-304.54 z m -219.82,289.49 -1.97,-2.1 0.12,-26.2 c 0.1,-18.62 0.4,-26.72 1.09,-28.01 0.7,-1.32 0.73,-2.07 0.1,-2.71 -1.24,-1.24 -1.24,-53.59 0,-55.89 0.64,-1.21 0.64,-1.91 0,-2.55 -1.24,-1.24 -1.24,-53.59 0,-55.89 0.64,-1.21 0.64,-1.91 0,-2.55 -0.61,-0.6 -0.89,-9.35 -0.89,-27.57 0,-17.73 0.3,-27.23 0.89,-28.32 0.64,-1.2 0.64,-1.91 0,-2.55 -1.24,-1.24 -1.24,-53.59 0,-55.89 0.64,-1.2 0.64,-1.91 0,-2.55 -0.61,-0.6 -0.89,-9.35 -0.89,-27.57 0,-17.73 0.3,-27.22 0.89,-28.32 0.64,-1.2 0.64,-1.91 0,-2.55 -1.24,-1.23 -1.24,-53.59 0,-55.89 0.64,-1.2 0.64,-1.91 0,-2.55 -1.24,-1.23 -1.24,-53.59 0,-55.89 0.64,-1.2 0.64,-1.91 0,-2.55 -1.24,-1.23 -1.24,-53.59 0,-55.89 0.64,-1.2 0.64,-1.91 0,-2.55 -0.61,-0.6 -0.89,-9.45 -0.89,-27.91 0,-25.95 0.1,-27.1 1.62,-28.65 1.61,-1.61 2.71,-1.63 103.9,-1.63 101.62,0 102.28,0 103.91,1.65 1.6,1.6 1.64,2.38 1.31,29.02 -0.19,15.05 -0.33,28.01 -0.32,28.79 0,0.78 0,13.84 0,29.01 0,15.18 0,28.33 0,29.22 0,0.9 0,14.04 0,29.22 0,15.18 0,28.33 0,29.22 0,0.9 0,14.04 0,29.22 0,15.18 0,28.33 0,29.22 0,0.89 0,14.04 0,29.22 0,15.18 0,28.33 0,29.22 0,0.89 0,14.04 0,29.22 0,15.18 0,28.33 0,29.22 0,0.89 0,14.04 0,29.22 0,15.18 0,28.24 0,29.02 0,0.78 0.13,13.79 0.32,28.91 0.24,19.19 0.1,27.81 -0.56,28.55 -0.63,0.77 -0.64,1.54 0,2.7 1.21,2.27 1.19,54.64 0,55.86 -0.64,0.64 -0.64,1.34 0,2.55 0.59,1.1 0.89,10.61 0.89,28.43 v 26.78 l -2.14,1.68 c -2.13,1.68 -2.18,1.68 -103.74,1.68 h -101.62 z m 185.12,-1.05 20.7,-0.5 0.21,-26.28 c 0.16,-18.72 -0.1,-26.61 -0.7,-27.39 -1.28,-1.55 -201.94,-1.68 -203.48,-0.14 -0.72,0.71 -0.98,7.78 -0.98,26.73 0,25.71 0,25.77 1.81,27.03 1.6,1.13 10.59,1.25 81.77,1.15 43.99,-0.1 89.29,-0.34 100.67,-0.6 z m -174.51,-27.69 v -19.48 h 4.06 4.06 v 19.48 19.48 h -4.06 -4.06 z m 16.24,0 v -19.48 h 3.65 3.65 v 19.48 19.48 h -3.65 -3.65 z m 15.42,0 v -19.48 h 3.65 3.65 v 19.48 19.48 h -3.65 -3.65 z m 15.42,0 v -19.48 h 4.06 4.06 v 19.48 19.48 h -4.06 -4.06 z m 15.42,0 v -19.48 h 4.06 4.06 v 19.48 19.48 h -4.06 -4.06 z m 112.01,-30.75 20.7,-0.5 0.21,-26.28 c 0.16,-18.72 -0.1,-26.61 -0.7,-27.39 -1.28,-1.55 -201.94,-1.68 -203.48,-0.14 -0.72,0.71 -0.98,7.78 -0.98,26.73 0,25.71 0,25.77 1.81,27.03 1.6,1.13 10.59,1.25 81.77,1.15 43.99,-0.1 89.29,-0.34 100.67,-0.6 z m -174.51,-27.69 v -19.48 h 4.06 4.06 v 19.48 19.48 h -4.06 -4.06 z m 16.24,0 v -19.48 h 3.65 3.65 v 19.48 19.48 h -3.65 -3.65 z m 15.42,0 v -19.48 h 3.65 3.65 v 19.48 19.48 h -3.65 -3.65 z m 15.42,0 v -19.48 h 4.06 4.06 v 19.48 19.48 h -4.06 -4.06 z m 15.42,0 v -19.48 h 4.06 4.06 v 19.48 19.48 h -4.06 -4.06 z m 112.01,-30.75 20.7,-0.5 0.21,-26.28 c 0.16,-18.72 -0.1,-26.61 -0.7,-27.39 -1.28,-1.55 -201.94,-1.68 -203.48,-0.14 -0.72,0.71 -0.98,7.78 -0.98,26.73 0,25.71 0,25.77 1.81,27.03 1.6,1.13 10.59,1.25 81.77,1.15 43.99,-0.1 89.29,-0.34 100.67,-0.6 z m -174.51,-27.69 v -19.48 h 4.06 4.06 v 19.48 19.48 h -4.06 -4.06 z m 16.24,0 v -19.48 h 3.65 3.65 v 19.48 19.48 h -3.65 -3.65 z m 15.42,0 v -19.48 h 3.65 3.65 v 19.48 19.48 h -3.65 -3.65 z m 15.42,0 v -19.48 h 4.06 4.06 v 19.48 19.48 h -4.06 -4.06 z m 15.42,0 v -19.48 h 4.06 4.06 v 19.48 19.48 h -4.06 -4.06 z m 112.01,-30.75 20.7,-0.5 0.21,-26.28 c 0.16,-18.72 -0.1,-26.61 -0.7,-27.39 -1.28,-1.55 -201.94,-1.68 -203.48,-0.14 -0.72,0.71 -0.98,7.78 -0.98,26.73 0,25.71 0,25.77 1.81,27.03 1.6,1.13 10.59,1.25 81.77,1.16 43.99,-0.1 89.29,-0.35 100.67,-0.61 z m -174.51,-27.69 v -19.48 h 4.06 4.06 v 19.48 19.48 h -4.06 -4.06 z m 16.24,0 v -19.48 h 3.65 3.65 v 19.48 19.48 h -3.65 -3.65 z m 15.42,0 v -19.48 h 3.65 3.65 v 19.48 19.48 h -3.65 -3.65 z m 15.42,0 v -19.48 h 4.06 4.06 v 19.48 19.48 h -4.06 -4.06 z m 15.42,0 v -19.48 h 4.06 4.06 v 19.48 19.48 h -4.06 -4.06 z m 112.01,-30.75 20.7,-0.5 0.21,-26.28 c 0.16,-18.72 -0.1,-26.61 -0.7,-27.39 -1.28,-1.55 -201.94,-1.68 -203.48,-0.14 -0.72,0.71 -0.98,7.78 -0.98,26.74 0,25.7 0,25.77 1.81,27.02 1.6,1.13 10.59,1.25 81.77,1.16 43.99,-0.1 89.29,-0.35 100.67,-0.61 z m -174.51,-27.69 v -19.48 h 4.06 4.06 v 19.48 19.48 h -4.06 -4.06 z m 16.24,0 v -19.48 h 3.65 3.65 v 19.48 19.48 h -3.65 -3.65 z m 15.42,0 v -19.48 h 3.65 3.65 v 19.48 19.48 h -3.65 -3.65 z m 15.42,0 v -19.48 h 4.06 4.06 v 19.48 19.48 h -4.06 -4.06 z m 15.42,0 v -19.48 h 4.06 4.06 v 19.48 19.48 h -4.06 -4.06 z m 112.01,-30.75 20.7,-0.5 0.21,-26.28 c 0.16,-18.72 -0.1,-26.6 -0.7,-27.39 -1.28,-1.54 -201.94,-1.68 -203.48,-0.14 -0.72,0.72 -0.98,7.78 -0.98,26.74 0,25.7 0,25.77 1.81,27.02 1.6,1.13 10.59,1.25 81.77,1.16 43.99,-0.1 89.29,-0.34 100.67,-0.61 z m -174.51,-27.69 v -19.48 h 4.06 4.06 v 19.48 19.48 h -4.06 -4.06 z m 16.24,0 v -19.48 h 3.65 3.65 v 19.48 19.48 h -3.65 -3.65 z m 15.42,0 v -19.48 h 3.65 3.65 v 19.48 19.48 h -3.65 -3.65 z m 15.42,0 v -19.48 h 4.06 4.06 v 19.48 19.48 h -4.06 -4.06 z m 15.42,0 v -19.48 h 4.06 4.06 v 19.48 19.48 h -4.06 -4.06 z m 112.01,-30.75 20.7,-0.5 0.21,-26.28 c 0.16,-18.72 -0.1,-26.6 -0.7,-27.39 -1.28,-1.54 -201.94,-1.68 -203.48,-0.14 -0.72,0.72 -0.98,7.78 -0.98,26.74 0,25.7 0,25.77 1.81,27.03 1.6,1.12 10.59,1.25 81.77,1.15 43.99,-0.1 89.29,-0.34 100.67,-0.61 z m -174.51,-27.69 v -19.48 h 4.06 4.06 v 19.48 19.48 h -4.06 -4.06 z m 16.24,0 v -19.48 h 3.65 3.65 v 19.48 19.48 h -3.65 -3.65 z m 15.42,0 v -19.48 h 3.65 3.65 v 19.48 19.48 h -3.65 -3.65 z m 15.42,0 v -19.48 h 4.06 4.06 v 19.48 19.48 h -4.06 -4.06 z m 15.42,0 v -19.48 h 4.06 4.06 v 19.48 19.48 h -4.06 -4.06 z m 112.01,-30.75 20.7,-0.5 0.21,-26.28 c 0.16,-18.72 -0.1,-26.6 -0.7,-27.39 -1.28,-1.54 -201.94,-1.68 -203.48,-0.14 -0.72,0.72 -0.98,7.78 -0.98,26.74 0,25.7 0,25.77 1.81,27.03 1.6,1.12 10.59,1.25 81.77,1.15 43.99,-0.1 89.29,-0.34 100.67,-0.61 z m -174.51,-27.69 v -19.48 h 4.06 4.06 v 19.48 19.48 h -4.06 -4.06 z m 16.24,0 v -19.48 h 3.65 3.65 v 19.48 19.48 h -3.65 -3.65 z m 15.42,0 v -19.48 h 3.65 3.65 v 19.48 19.48 h -3.65 -3.65 z m 15.42,0 v -19.48 h 4.06 4.06 v 19.48 19.48 h -4.06 -4.06 z m 15.42,0 v -19.48 h 4.06 4.06 v 19.48 19.48 h -4.06 -4.06 z m 112.01,-30.75 20.7,-0.5 0.21,-26.28 c 0.16,-18.71 -0.1,-26.6 -0.7,-27.39 -1.28,-1.54 -201.94,-1.67 -203.48,-0.14 -0.72,0.72 -0.98,7.78 -0.98,26.74 0,25.7 0,25.77 1.81,27.03 1.6,1.12 10.59,1.25 81.77,1.15 43.99,-0.1 89.29,-0.34 100.67,-0.61 z m -174.51,-27.69 v -19.48 h 4.06 4.06 v 19.48 19.48 h -4.06 -4.06 z m 16.24,0 v -19.48 h 3.65 3.65 v 19.48 19.48 h -3.65 -3.65 z m 15.42,0 v -19.48 h 3.65 3.65 v 19.48 19.48 h -3.65 -3.65 z m 15.42,0 v -19.48 h 4.06 4.06 v 19.48 19.48 h -4.06 -4.06 z m 15.42,0 v -19.48 h 4.06 4.06 v 19.48 19.48 h -4.06 -4.06 z m 112.01,-30.75 20.7,-0.5 0.21,-26.28 c 0.16,-18.71 -0.1,-26.6 -0.7,-27.39 -1.28,-1.54 -201.94,-1.67 -203.48,-0.14 -0.72,0.72 -0.98,7.79 -0.98,26.74 0,25.7 0,25.77 1.81,27.03 1.6,1.12 10.59,1.25 81.77,1.15 43.99,-0.1 89.29,-0.34 100.67,-0.61 z m -174.51,-27.69 v -19.48 h 4.06 4.06 v 19.48 19.48 h -4.06 -4.06 z m 16.24,0 v -19.48 h 3.65 3.65 v 19.48 19.48 h -3.65 -3.65 z m 15.42,0 v -19.48 h 3.65 3.65 v 19.48 19.48 h -3.65 -3.65 z m 15.42,0 v -19.48 h 4.06 4.06 v 19.48 19.48 h -4.06 -4.06 z m 15.42,0 v -19.48 h 4.06 4.06 v 19.48 19.48 h -4.06 -4.06 z"
             id="path839" />
    </g>
</svg>
