<?xml version="1.0" encoding="UTF-8" standalone="no"?>
<svg
     viewBox="0 0 600 400"
     version="1.1"
     class="fw_svg"
     id="svg34"
     sodipodi:docname="firewall2.svg"
     width="600"
     height="400"
     inkscape:version="1.1 (c68e22c387, 2021-05-23)"
     inkscape:export-filename="C:\Program Files\XAMPP\htdocs\koko-campus.org\subjects\情報処理安全確保支援士試験\pics\firewall2.png"
     inkscape:export-xdpi="96"
     inkscape:export-ydpi="96"
     xmlns:inkscape="http://www.inkscape.org/namespaces/inkscape"
     xmlns:sodipodi="http://sodipodi.sourceforge.net/DTD/sodipodi-0.dtd"
     xmlns="http://www.w3.org/2000/svg"
     xmlns:svg="http://www.w3.org/2000/svg">
    <defs
         id="defs38">
        <filter
             inkscape:collect="always"
             style="color-interpolation-filters:sRGB"
             id="filter1089"
             x="-0.24231"
             y="-0.39375"
             width="1.4846"
             height="1.7875">
            <feGaussianBlur
                 inkscape:collect="always"
                 stdDeviation="3.9375"
                 id="feGaussianBlur1091" />
        </filter>
    </defs>
    <sodipodi:namedview
         id="namedview36"
         pagecolor="#ffffff"
         bordercolor="#666666"
         borderopacity="1.0"
         inkscape:pageshadow="2"
         inkscape:pageopacity="0.0"
         inkscape:pagecheckerboard="0"
         showgrid="false"
         inkscape:zoom="0.47917"
         inkscape:cx="20.869"
         inkscape:cy="-32.348"
         inkscape:window-width="1920"
         inkscape:window-height="1009"
         inkscape:window-x="-8"
         inkscape:window-y="-8"
         inkscape:window-maximized="1"
         inkscape:current-layer="svg34" />
    <polyline
         points="30,20 125,35"
         id="polyline2"
         transform="matrix(3.7562,0,0,3.7562,3.0049,-0.00254)"
         style="stroke:#0000ff;stroke-opacity:1;stroke-width:1.33113;stroke-miterlimit:4;stroke-dasharray:none" />
    <polyline
         points="77,27.5 77,80"
         id="polyline4"
         transform="matrix(3.7562,0,0,3.7562,3.0049,-0.00254)"
         style="stroke:#0000ff;stroke-opacity:1;stroke-width:1.33113;stroke-miterlimit:4;stroke-dasharray:none" />
    <ellipse
         cx="30.7"
         cy="20.5"
         rx="19.5"
         ry="12"
         class="i"
         id="ellipse6"
         style="fill:#00ffff;fill-opacity:1;filter:url(#filter1089)"
         transform="matrix(5.1728,0,0,2.7864,-18.526,9.4436)" />
    <ellipse
         cx="490.27"
         cy="127.44"
         rx="99.999"
         ry="32.896"
         class="p"
         id="ellipse8"
         style="fill:#00ff00;fill-opacity:1;stroke-width:3.92906" />
    <ellipse
         cx="290.77"
         cy="334.21"
         rx="231"
         ry="46.952"
         class="m"
         id="ellipse10"
         style="fill:#ffff00;fill-opacity:1;stroke-width:3.75617" />
    <rect
         width="64.606"
         height="80.382"
         x="260.68"
         y="164.14"
         rx="6.6109"
         class="w"
         id="rect12"
         style="stroke-width:3.75617" />
    <path
         d="m 287.72,232.13 -10.89,-6.76 -3.76,-12.02 0.76,-12.4 4.13,-6.01 0.75,12.77 1.88,3.38 3,-16.15 -1.13,-6.01 4.14,4.89 2.25,10.89 -0.75,6.01 2.63,4.51 0.37,-15.03 -4.13,-15.02 -4.88,-6.39 6.76,3.01 2.25,-0.38 0.38,-4.88 -3.01,-3.76 6.01,2.63 4.89,10.89 -0.38,7.52 1.13,3.38 1.88,-6.39 v 9.39 l -1.51,5.64 8.64,-12.02 -1.5,-13.15 -3,-5.26 12.02,15.78 -1.13,9.39 -4.88,26.67 -15.4,6.01 z"
         class="f"
         id="path14"
         style="fill:#ff0000;fill-opacity:1;stroke-width:3.75617" />
    <path
         d="m 239.39,87.77 3.38,-19.532 121.33,29.298 z"
         class="ok"
         id="path16"
         style="stroke-width:3.75617;fill:#ff00ff;fill-opacity:1" />
    <path
         d="m 351.46,144.73 4.13,-19.15 -123.2,-19.16 z"
         class="ok"
         id="path18"
         style="stroke-width:3.75617;fill:#ff00ff;fill-opacity:1" />
    <path
         d="m 401.4,168.03 22.54,9.02 -56.72,99.16 z"
         class="ok"
         id="path20"
         style="stroke-width:3.75617;fill:#ff00ff;fill-opacity:1" />
    <path
         d="m 427.45,286.59 -22.53,-9.76 56.34,-96.54 z"
         class="ok"
         id="path22"
         style="stroke-width:3.75617;fill:#ff00ff;fill-opacity:1" />
    <path
         d="m 162.26,268.44 -19.54,4.13 -16.15,-124.7 z"
         class="ok"
         id="path24"
         style="stroke-width:3.75617;fill:#ff00ff;fill-opacity:1" />
    <path
         d="m 161.89,151 19.53,-4.51 19.16,123.95 z"
         class="ng"
         id="path26"
         style="stroke-width:3.75617" />
    <text
         x="29.298"
         y="75.121"
         id="text28"
         style="font-size:32px;stroke-width:3.75617">インターネット</text>
    <text
         x="393.23"
         y="134.38"
         id="text30"
         style="font-size:24px;stroke-width:3.75617">バリアセグメント</text>
    <text
         x="165.33"
         y="347.85"
         id="text32"
         style="font-size:36px;stroke-width:3.75617">内部セグメント</text>
</svg>
