<?xml version="1.0" encoding="UTF-8" standalone="no"?>
<svg
     viewBox="0 0 600 400"
     version="1.1"
     class="fw_svg"
     id="svg26"
     sodipodi:docname="firewall5.svg"
     width="600"
     height="400"
     inkscape:version="1.1 (c68e22c387, 2021-05-23)"
     inkscape:export-filename="C:\Program Files\XAMPP\htdocs\koko-campus.org\subjects\情報処理安全確保支援士試験\pics\firewall5.png"
     inkscape:export-xdpi="96"
     inkscape:export-ydpi="96"
     xmlns:inkscape="http://www.inkscape.org/namespaces/inkscape"
     xmlns:sodipodi="http://sodipodi.sourceforge.net/DTD/sodipodi-0.dtd"
     xmlns="http://www.w3.org/2000/svg"
     xmlns:svg="http://www.w3.org/2000/svg">
    <defs
         id="defs30">
        <filter
             inkscape:collect="always"
             style="color-interpolation-filters:sRGB"
             id="filter1798"
             x="-0.24231"
             y="-0.39375"
             width="1.4846"
             height="1.7875">
            <feGaussianBlur
                 inkscape:collect="always"
                 stdDeviation="3.9375"
                 id="feGaussianBlur1800" />
        </filter>
    </defs>
    <sodipodi:namedview
         id="namedview28"
         pagecolor="#ffffff"
         bordercolor="#666666"
         borderopacity="1.0"
         inkscape:pageshadow="2"
         inkscape:pageopacity="0.0"
         inkscape:pagecheckerboard="0"
         showgrid="false"
         inkscape:zoom="0.95833"
         inkscape:cx="264"
         inkscape:cy="231.13"
         inkscape:window-width="1920"
         inkscape:window-height="1009"
         inkscape:window-x="-8"
         inkscape:window-y="-8"
         inkscape:window-maximized="1"
         inkscape:current-layer="svg26" />
    <polyline
         points="30,20 79,20 79,80"
         id="polyline2"
         transform="matrix(3.9154,0,0,3.9154,-12.347,-16.433)"
         style="fill:none;fill-opacity:1;stroke:#0000ff;stroke-opacity:1;stroke-width:1.27701;stroke-miterlimit:4;stroke-dasharray:none" />
    <polyline
         points="30,53 125,53"
         id="polyline4"
         transform="matrix(3.9154,0,0,3.9154,-12.347,-16.433)"
         style="stroke:#0000ff;stroke-opacity:1;stroke-width:1.27701;stroke-miterlimit:4;stroke-dasharray:none" />
    <ellipse
         cx="473.17"
         cy="191.09"
         rx="85.748"
         ry="32.89"
         class="p"
         id="ellipse8"
         style="stroke-width:3.91544;stroke:none;fill:#00ff00;fill-opacity:1" />
    <ellipse
         cx="296.85"
         cy="330.87"
         rx="240.8"
         ry="48.943"
         class="m"
         id="ellipse10"
         style="stroke-width:3.91544;fill:#ffff00;fill-opacity:1" />
    <rect
         width="60.298"
         height="70.869"
         x="266.04"
         y="157.02"
         rx="6.1864"
         class="w"
         id="rect12"
         style="stroke-width:3.91544" />
    <path
         d="m 291.49,217.32 -10.18,-5.87 -3.91,-10.97 1.17,-10.96 3.92,-4.7 0.39,10.57 1.96,3.14 2.74,-13.71 -0.79,-5.48 3.53,3.92 1.96,10.18 -0.4,4.69 2.35,4.31 v -13.31 l -3.91,-12.92 -4.31,-6.27 6.27,2.74 1.95,-0.39 0.4,-3.91 -2.75,-3.13 5.88,1.95 4.3,9.79 v 6.27 l 0.79,3.13 1.96,-5.48 v 8.22 l -1.57,5.09 8.22,-10.96 -1.17,-11.36 -3.14,-4.7 10.97,13.71 -0.78,8.61 -4.7,23.1 -14.49,5.48 z"
         class="f"
         id="path14"
         style="stroke-width:3.91544;fill:#ff0000;fill-opacity:1" />
    <ellipse
         cx="110.99"
         cy="191.09"
         rx="85.748"
         ry="32.851"
         class="p"
         id="ellipse16"
         style="stroke-width:3.91544;stroke:none;fill:#00ff00;fill-opacity:1" />
    <text
         x="59.443"
         y="202.05"
         id="text20"
         style="font-size:36px;stroke-width:3.91544">DMZ1</text>
    <text
         x="421.5"
         y="204.14"
         id="text22"
         style="font-size:36px;stroke-width:3.91544">DMZ2</text>
    <text
         x="172.49"
         y="341.35"
         id="text24"
         style="font-size:36px;stroke-width:3.91544">内部セグメント</text>
    <ellipse
         cx="30.7"
         cy="20.5"
         rx="19.5"
         ry="12"
         class="i"
         id="ellipse7"
         style="mix-blend-mode:normal;fill:#00ffff;fill-opacity:1;filter:url(#filter1798)"
         transform="matrix(5.4568,0,0,3.2358,-13.091,1.4922)" />
    <text
         x="44.739"
         y="79.369"
         id="text19"
         style="font-size:32px;stroke-width:3.66157">インターネット</text>
</svg>
