<?xml version="1.0" encoding="UTF-8" standalone="no"?>
<svg
     viewBox="0 0 600 400"
     version="1.1"
     class="fw_svg"
     id="svg34"
     sodipodi:docname="firewall3.svg"
     width="600"
     height="400"
     inkscape:version="1.1 (c68e22c387, 2021-05-23)"
     inkscape:export-filename="C:\Program Files\XAMPP\htdocs\koko-campus.org\subjects\情報処理安全確保支援士試験\pics\firewall3.png"
     inkscape:export-xdpi="96"
     inkscape:export-ydpi="96"
     xmlns:inkscape="http://www.inkscape.org/namespaces/inkscape"
     xmlns:sodipodi="http://sodipodi.sourceforge.net/DTD/sodipodi-0.dtd"
     xmlns="http://www.w3.org/2000/svg"
     xmlns:svg="http://www.w3.org/2000/svg">
    <defs
         id="defs38">
        <filter
             inkscape:collect="always"
             style="color-interpolation-filters:sRGB"
             id="filter1798"
             x="-0.24231"
             y="-0.39375"
             width="1.4846"
             height="1.7875">
            <feGaussianBlur
                 inkscape:collect="always"
                 stdDeviation="3.9375"
                 id="feGaussianBlur1800" />
        </filter>
    </defs>
    <sodipodi:namedview
         id="namedview36"
         pagecolor="#ffffff"
         bordercolor="#666666"
         borderopacity="1.0"
         inkscape:pageshadow="2"
         inkscape:pageopacity="0.0"
         inkscape:pagecheckerboard="0"
         showgrid="false"
         inkscape:zoom="0.95833"
         inkscape:cx="129.39"
         inkscape:cy="101.74"
         inkscape:window-width="1920"
         inkscape:window-height="1009"
         inkscape:window-x="-8"
         inkscape:window-y="-8"
         inkscape:window-maximized="1"
         inkscape:current-layer="svg34" />
    <polyline
         points="30,20 80,20 80,90"
         id="polyline2"
         transform="matrix(4.073,0,0,4.073,-17.733,-24.645)"
         style="fill:none;fill-opacity:1;stroke:#0000ff;stroke-opacity:1;stroke-width:1.2276;stroke-miterlimit:4;stroke-dasharray:none" />
    <polyline
         points="80,48 123,48"
         id="polyline4"
         transform="matrix(4.073,0,0,4.073,-17.733,-24.645)"
         style="stroke:#0000ff;stroke-opacity:1;stroke-width:1.2276;stroke-miterlimit:4;stroke-dasharray:none" />
    <ellipse
         cx="483.25"
         cy="168.01"
         rx="89.199"
         ry="34.214"
         class="p"
         id="ellipse8"
         style="stroke-width:4.07303;fill:#00ff00;fill-opacity:1" />
    <ellipse
         cx="310.15"
         cy="336.64"
         rx="250.49"
         ry="50.913"
         class="m"
         id="ellipse10"
         style="stroke-width:4.07303;fill:#ffff00;fill-opacity:1" />
    <rect
         width="62.725"
         height="73.722"
         x="271.86"
         y="134.62"
         rx="6.4354"
         class="w"
         id="rect12"
         style="stroke-width:4.07303" />
    <path
         d="m 298.33,196.93 -10.58,-6.11 -4.08,-11.4 1.23,-11.41 4.06,-4.89 0.42,11.01 2.03,3.25 2.86,-14.26 -0.83,-5.7 3.68,4.08 2.03,10.59 -0.41,4.89 2.44,4.48 v -13.85 l -4.06,-13.44 -4.49,-6.52 6.52,2.85 2.03,-0.41 0.41,-4.08 -2.85,-3.25 6.11,2.04 4.49,10.18 v 6.52 l 0.81,3.26 2.04,-5.7 v 8.55 l -1.64,5.29 8.55,-11.4 -1.21,-11.81 -3.26,-4.89 11.4,14.26 -0.81,8.95 -4.89,24.04 -15.07,5.7 z"
         class="f"
         id="path14"
         style="stroke-width:4.07303;fill:#ff0000;fill-opacity:1" />
    <path
         d="m 434.38,204.27 20.36,4.48 -36.66,79.41 z"
         class="ok"
         id="path20"
         style="stroke-width:4.07303;fill:#ff00ff;fill-opacity:1" />
    <path
         d="m 401.79,281.65 -21.99,-6.11 38.28,-76.57 z"
         class="ok"
         id="path22"
         style="stroke-width:4.07303;fill:#ff00ff;fill-opacity:1" />
    <path
         d="m 148.85,288.16 -21.58,4.08 -21.19,-167.4 z"
         class="ok"
         id="path24"
         style="stroke-width:4.07303;fill:#ff00ff;fill-opacity:1" />
    <path
         d="m 132.56,126.47 21.58,-5.29 30.97,166.17 z"
         class="ng"
         id="path26"
         style="stroke-width:4.07303" />
    <text
         x="440.43"
         y="180.31"
         id="text30"
         style="font-size:36px;stroke-width:4.07303">DMZ</text>
    <text
         x="192.7"
         y="348.57"
         id="text32"
         style="font-size:36px;stroke-width:4.07303">内部セグメント</text>
    <ellipse
         cx="30.7"
         cy="20.5"
         rx="19.5"
         ry="12"
         class="i"
         id="ellipse7"
         style="mix-blend-mode:normal;fill:#00ffff;fill-opacity:1;filter:url(#filter1798)"
         transform="matrix(5.4568,0,0,3.2358,-19.955,4.4993)" />
    <text
         x="37.874"
         y="82.373"
         id="text19"
         style="font-size:32px;stroke-width:3.66157">インターネット</text>
    <path
         id="path5686"
         style="fill:#ff00ff;stroke:none;stroke-width:1.47549;stroke-linecap:round;stroke-linejoin:round;paint-order:markers stroke fill;stop-color:#000000;fill-opacity:1"
         inkscape:transform-center-y="-14.412"
         d="m 428.09,104.37 -4.94,16.7 -141.71,-50.984 z"
         inkscape:transform-center-x="72.631" />
    <path
         id="path5686-8"
         style="fill:#ff00ff;stroke:none;stroke-width:1.47549;stroke-linecap:round;stroke-linejoin:round;paint-order:markers stroke fill;stop-color:#000000;fill-opacity:1"
         inkscape:transform-center-y="14.412"
         d="m 272.5,100.79 4.94,-16.704 141.71,50.984 z"
         inkscape:transform-center-x="-72.629" />
</svg>
