<?xml version="1.0" encoding="UTF-8" standalone="no"?>
<svg
     viewBox="0 0 600 400"
     version="1.1"
     class="fw_svg"
     id="svg38"
     sodipodi:docname="firewall4.svg"
     width="600"
     height="400"
     inkscape:version="1.1 (c68e22c387, 2021-05-23)"
     inkscape:export-filename="C:\Program Files\XAMPP\htdocs\koko-campus.org\subjects\情報処理安全確保支援士試験\pics\firewall4.png"
     inkscape:export-xdpi="96"
     inkscape:export-ydpi="96"
     xmlns:inkscape="http://www.inkscape.org/namespaces/inkscape"
     xmlns:sodipodi="http://sodipodi.sourceforge.net/DTD/sodipodi-0.dtd"
     xmlns="http://www.w3.org/2000/svg"
     xmlns:svg="http://www.w3.org/2000/svg">
    <defs
         id="defs42">
        <filter
             inkscape:collect="always"
             style="color-interpolation-filters:sRGB"
             id="filter1798"
             x="-0.24231"
             y="-0.39375"
             width="1.4846"
             height="1.7875">
            <feGaussianBlur
                 inkscape:collect="always"
                 stdDeviation="3.9375"
                 id="feGaussianBlur1800" />
        </filter>
    </defs>
    <sodipodi:namedview
         id="namedview40"
         pagecolor="#ffffff"
         bordercolor="#666666"
         borderopacity="1.0"
         inkscape:pageshadow="2"
         inkscape:pageopacity="0.0"
         inkscape:pagecheckerboard="0"
         showgrid="false"
         inkscape:zoom="1"
         inkscape:cx="228"
         inkscape:cy="264.5"
         inkscape:window-width="1920"
         inkscape:window-height="1009"
         inkscape:window-x="-8"
         inkscape:window-y="-8"
         inkscape:window-maximized="1"
         inkscape:current-layer="svg38" />
    <polyline
         points="30,20 77,20 77,80"
         id="polyline2"
         transform="matrix(3.9291,0,0,3.9291,-3.2762,-13.091)"
         style="fill:none;stroke:#0000ff;stroke-opacity:1;stroke-width:1.27256;stroke-miterlimit:4;stroke-dasharray:none" />
    <polyline
         points="77,47 123,47"
         id="polyline4"
         transform="matrix(3.9291,0,0,3.9291,-3.2762,-13.091)"
         style="stroke:#0000ff;stroke-opacity:1;stroke-width:1.27256;stroke-miterlimit:4;stroke-dasharray:none" />
    <ellipse
         cx="480"
         cy="172.76"
         rx="86.048"
         ry="33.005"
         class="p"
         id="ellipse8"
         style="stroke-width:3.92912;fill:#00ff00;fill-opacity:1" />
    <ellipse
         cx="298.02"
         cy="337.43"
         rx="241.64"
         ry="49.114"
         class="m"
         id="ellipse10"
         style="fill:#ffff00;fill-opacity:1;stroke-width:3.92912" />
    <rect
         width="60.508"
         height="71.117"
         x="270.19"
         y="85.922"
         rx="6.208"
         class="w"
         id="rect12"
         style="stroke-width:3.92912" />
    <path
         d="m 295.73,146.04 -10.22,-5.89 -3.93,-11 1.18,-11.01 3.93,-4.71 0.4,10.61 1.96,3.14 2.75,-13.75 -0.79,-5.51 3.54,3.94 1.97,10.21 -0.4,4.72 2.36,4.32 v -13.36 l -3.93,-12.97 -4.32,-6.285 6.29,2.755 1.96,-0.4 0.39,-3.926 -2.75,-3.144 5.9,1.965 4.32,9.825 v 6.29 l 0.78,3.14 1.97,-5.5 v 8.25 l -1.57,5.11 8.25,-11 -1.18,-11.4 -3.14,-4.715 11,13.755 -0.79,8.64 -4.71,23.19 -14.54,5.5 z"
         class="f"
         id="path14"
         style="stroke-width:3.92912;fill:#ff0000;fill-opacity:1" />
    <rect
         width="60.508"
         height="71.117"
         x="270.19"
         y="193.98"
         rx="6.208"
         class="w"
         id="rect16"
         style="stroke-width:3.92912" />
    <path
         d="m 295.73,254.09 -10.22,-5.89 -3.93,-11 1.18,-11 3.93,-4.72 0.4,10.61 1.96,3.14 2.75,-13.75 -0.79,-5.5 3.54,3.93 1.97,10.21 -0.4,4.72 2.36,4.32 v -13.36 l -3.93,-12.96 -4.32,-6.29 6.29,2.75 1.96,-0.39 0.39,-3.93 -2.75,-3.14 5.9,1.96 4.32,9.82 v 6.29 l 0.78,3.14 1.97,-5.5 v 8.25 l -1.57,5.11 8.25,-11 -1.18,-11.4 -3.14,-4.71 11,13.75 -0.79,8.65 -4.71,23.18 -14.54,5.5 z"
         class="f"
         id="path18"
         style="stroke-width:3.92912;fill:#ff0000;fill-opacity:1" />
    <path
         d="m 248.97,51.739 9.83,-14.145 c 0,0 69.54,3.143 100.19,17.681 30.65,14.538 77.79,67.195 77.79,67.195 0,0 -54.22,-42.441 -86.04,-54.622 -32.22,-12.18 -65.62,-12.573 -101.77,-16.109 z"
         class="ok"
         id="path20"
         style="stroke-width:3.92912;fill:#ff00ff;fill-opacity:1" />
    <path
         d="m 452.5,113.04 7.86,-15.723 c 0,0 -55.01,-50.686 -90.76,-63.652 -38.9,-14.499 -123.77,-12.652 -123.77,-12.652 0,0 81.73,7.151 118.27,23.654 33.39,15.323 88.4,68.373 88.4,68.373 z"
         class="ok"
         id="path22"
         style="stroke-width:3.92912;fill:#ff00ff;fill-opacity:1" />
    <path
         d="m 432.86,207.73 19.64,4.32 -35.36,76.62 z"
         class="ok"
         id="path24"
         style="stroke-width:3.92912;fill:#ff00ff;fill-opacity:1" />
    <path
         d="m 401.42,282.38 -21.21,-5.89 36.93,-73.87 z"
         class="ok"
         id="path26"
         style="stroke-width:3.92912;fill:#ff00ff;fill-opacity:1" />
    <path
         d="m 157.42,288.67 -20.82,3.93 -20.43,-161.49 z"
         class="ok"
         id="path28"
         style="stroke-width:3.92912;fill:#ff00ff;fill-opacity:1" />
    <path
         d="m 141.71,132.68 20.82,-5.11 29.86,160.31 z"
         class="ng"
         id="path30"
         style="stroke-width:3.92912" />
    <text
         x="439.57"
         y="186.37"
         id="text34"
         style="font-size:36px;stroke-width:3.92912">DMZ</text>
    <text
         x="176.47"
         y="347.53"
         id="text36"
         style="font-size:36px;stroke-width:3.92912">内部セグメント</text>
    <ellipse
         cx="30.7"
         cy="20.5"
         rx="19.5"
         ry="12"
         class="i"
         id="ellipse7"
         style="mix-blend-mode:normal;fill:#00ffff;fill-opacity:1;filter:url(#filter1798)"
         transform="matrix(5.4568,0,0,3.2358,-8.522,10.666)" />
    <text
         x="49.304"
         y="88.542"
         id="text19"
         style="font-size:32px;stroke-width:3.66157">インターネット</text>
</svg>
