<?xml version="1.0" encoding="UTF-8" standalone="no"?>
<!-- Created with Inkscape (http://www.inkscape.org/) -->

<svg
     width="600"
     height="400"
     viewBox="0 0 600 400"
     version="1.1"
     id="svg5"
     sodipodi:docname="ISMS適合性評価制度.svg"
     inkscape:version="1.1 (c68e22c387, 2021-05-23)"
     inkscape:export-filename="C:\Program Files\XAMPP\htdocs\koko-campus.org\subjects\情報処理安全確保支援士試験\pics\ISMS適合性評価制度.png"
     inkscape:export-xdpi="96"
     inkscape:export-ydpi="96"
     xmlns:inkscape="http://www.inkscape.org/namespaces/inkscape"
     xmlns:sodipodi="http://sodipodi.sourceforge.net/DTD/sodipodi-0.dtd"
     xmlns:xlink="http://www.w3.org/1999/xlink"
     xmlns="http://www.w3.org/2000/svg"
     xmlns:svg="http://www.w3.org/2000/svg">
    <sodipodi:namedview
         id="namedview7"
         pagecolor="#ffffff"
         bordercolor="#666666"
         borderopacity="1.0"
         inkscape:pageshadow="2"
         inkscape:pageopacity="0.0"
         inkscape:pagecheckerboard="0"
         inkscape:document-units="px"
         showgrid="false"
         units="px"
         width="600px"
         inkscape:zoom="1.0608"
         inkscape:cx="222.47"
         inkscape:cy="116.42"
         inkscape:window-width="1920"
         inkscape:window-height="1009"
         inkscape:window-x="-8"
         inkscape:window-y="-8"
         inkscape:window-maximized="1"
         inkscape:current-layer="layer1" />
    <defs
         id="defs2">
        <linearGradient
             inkscape:collect="always"
             id="linearGradient2629">
            <stop
                 style="stop-color:#000000;stop-opacity:1;"
                 offset="0"
                 id="stop2625" />
            <stop
                 style="stop-color:#000000;stop-opacity:0;"
                 offset="1"
                 id="stop2627" />
        </linearGradient>
        <linearGradient
             inkscape:collect="always"
             xlink:href="#linearGradient2629"
             id="linearGradient2631"
             x1="88.107"
             y1="116.42"
             x2="162.3"
             y2="116.42"
             gradientUnits="userSpaceOnUse" />
        <linearGradient
             inkscape:collect="always"
             xlink:href="#linearGradient2629"
             id="linearGradient2633"
             x1="88.107"
             y1="294.17"
             x2="162.3"
             y2="294.17"
             gradientUnits="userSpaceOnUse" />
    </defs>
    <g
         inkscape:label="レイヤー 1"
         inkscape:groupmode="layer"
         id="layer1">
        <path
             id="rect8"
             style="fill:none;stroke:#ff0000;stroke-opacity:1"
             class="o_s"
             d="m 350.77,130.68 h 72.87 c 5.91,0 10.67,4.76 10.67,10.66 v 28.44 c 0,5.91 -4.76,10.67 -10.67,10.67 h -72.87 c -5.91,0 -10.67,-4.76 -10.67,-10.67 v -28.44 c 0,-5.9 4.76,-10.66 10.67,-10.66 z" />
        <path
             id="rect10"
             style="fill:none;stroke:#ff0000;stroke-width:1.09984;stroke-opacity:1"
             class="o_s"
             d="m 351.81,184 h 69.23 c 4.77,0 8.6,3.17 8.6,7.11 v 24.17 c 0,3.94 -3.83,7.11 -8.6,7.11 h -69.23 c -4.76,0 -8.6,-3.17 -8.6,-7.11 v -24.17 c 0,-3.94 3.84,-7.11 8.6,-7.11 z" />
        <path
             d="m 510.03,207.82 h 42.66 l -14.22,-27.37 c 0,0 17.78,-9.6 14.22,-16.71 0,-9.6 -10.67,-20.27 -21.33,-19.9 -10.67,0 -21.33,10.66 -21.33,19.9 0,7.11 14.22,16.36 14.22,16.36 z"
             class="p_f"
             id="path12"
             style="stroke-width:3.55494;fill:#c800ff;fill-opacity:1" />
        <path
             class="bl_f"
             d="m 276.92,296.34 h -19.2 l 9.6,-45.15 z"
             id="path14"
             style="fill:#ff8200;fill-opacity:1;stroke-width:3.55494" />
        <path
             d="m 140.31,163.74 -11.37,-12.09 64.35,-48.7 z"
             class="b_f"
             id="path16"
             style="stroke-width:3.55494;fill:#007dff;fill-opacity:1" />
        <path
             d="m 140.31,239.1 -11.37,12.09 63.98,48.7 z"
             class="b_f"
             id="path18"
             style="stroke-width:3.55494;fill:#007dff;fill-opacity:1" />
        <path
             d="m 296.73,106.51 14.23,-16.003 25.95,37.333 z"
             class="g_f"
             id="path20"
             style="stroke-width:3.55494;stroke:none;stroke-opacity:1;fill:#00c807;fill-opacity:1" />
        <path
             d="m 438.93,217.06 v -21.33 l 49.77,10.32 z"
             class="o_f"
             id="path22"
             style="stroke-width:3.55494;fill:#ff0000;fill-opacity:1" />
        <path
             d="m 495.81,169.07 v -21.33 l -49.77,10.32 z"
             class="p_f"
             id="path24"
             style="stroke-width:3.55494;fill:#c800ff;fill-opacity:1" />
        <path
             d="m 250.41,233.42 h 34.13 l -11.38,-21.33 c 0,0 14.22,-7.82 11.38,-13.5 0,-7.47 -8.53,-16 -17.07,-15.65 -8.53,0 -17.06,8.53 -17.06,15.65 0,5.68 11.37,13.15 11.37,13.15 z"
             class="bl_f"
             id="path26"
             style="stroke-width:3.55494" />
        <polyline
             points="70,28 70,45"
             id="polyline28"
             transform="matrix(3.4493,-0.86009,0.86009,3.4493,-18.339,75.911)"
             style="stroke:#000000;stroke-opacity:1;stroke-width:2.53171;stroke-miterlimit:4;stroke-dasharray:1.26585,1.26585;stroke-dashoffset:2.53171" />
        <g
             id="g3897">
            <path
                 id="rect2"
                 style="fill:none;stroke:#007dff;stroke-width:0.942616;stroke-opacity:1"
                 class="b_s"
                 d="m 22.741,168.1 h 111.759 c 6.17,0 11.14,4.05 11.14,9.07 v 45.97 c 0,5.03 -4.97,9.07 -11.14,9.07 h -111.759 c -6.171,0 -11.14,-4.04 -11.14,-9.07 v -45.97 c 0,-5.02 4.969,-9.07 11.14,-9.07 z" />
            <text
                 x="40.779"
                 y="206.98"
                 class="b_f"
                 id="text30"
                 style="font-size:19.0894px;stroke-width:3.55494;fill:#007dff;fill-opacity:1">認定機関</text>
        </g>
        <g
             id="g3905">
            <path
                 id="rect4"
                 style="fill:none;stroke:#00c800;stroke-opacity:1"
                 class="g_s"
                 d="m 202.56,48.243 h 82.4 c 4.55,0 8.22,3.441 8.22,7.714 v 38.963 c 0,4.273 -3.67,7.71 -8.22,7.71 h -82.4 c -4.55,0 -8.21,-3.437 -8.21,-7.71 v -38.963 c 0,-4.273 3.66,-7.714 8.21,-7.714 z" />
            <text
                 x="205.92"
                 y="82.259"
                 class="g_f"
                 id="text32"
                 style="font-size:19.0894px;fill:#00c807;fill-opacity:1;stroke:none;stroke-width:3.55494;stroke-opacity:1">認証機関</text>
        </g>
        <g
             id="g4791">
            <path
                 id="rect6"
                 style="fill:none;stroke:#ff8200;stroke-width:1;stroke-miterlimit:4;stroke-dasharray:none;stroke-opacity:1"
                 class="r_s"
                 d="m 207.94,301.36 h 114.54 c 6.33,0 11.43,3.02 11.43,6.76 v 34.17 c 0,3.74 -5.1,6.76 -11.43,6.76 h -114.54 c -6.32,0 -11.41,-3.02 -11.41,-6.76 v -34.17 c 0,-3.74 5.09,-6.76 11.41,-6.76 z" />
            <text
                 x="208.47"
                 y="326.33"
                 class="r_f"
                 id="text34"
                 style="font-size:20.7755px;fill:#ff8200;fill-opacity:1;stroke-width:3.86892"
                 transform="scale(0.98089,1.0195)">要員認証機関</text>
        </g>
        <text
             x="368.3"
             y="162.46"
             class="o_f"
             id="text36"
             style="font-size:19.0894px;stroke-width:3.55494;fill:#ff0000;fill-opacity:1">企業</text>
        <text
             x="348.17"
             y="210.17"
             class="o_f"
             id="text38"
             style="font-size:19.0894px;stroke-width:3.55494;fill:#ff0000;fill-opacity:1">認証文書</text>
        <text
             x="478.04"
             y="229.86"
             class="small p_f"
             id="text40"
             style="font-size:19.0894px;stroke-width:3.55494;fill:#c800ff;fill-opacity:1">顧客・取引先</text>
        <text
             x="86.988"
             y="123.21"
             class="b_f"
             id="text42"
             style="font-size:19.0894px;stroke-width:3.55494;fill-opacity:1;fill:#007dff">認定審査</text>
        <text
             x="86.988"
             y="300.96"
             class="b_f"
             id="text44"
             style="font-size:19.0894px;stroke-width:3.55494;fill-opacity:1;fill:#007dff">認定審査</text>
        <text
             x="325.18"
             y="105.44"
             class="g_f"
             id="text46"
             style="font-size:19.0894px;stroke-width:3.55494;stroke:none;stroke-opacity:1;fill:#00c807;fill-opacity:1">認証審査</text>
        <text
             x="424.71"
             y="247.63"
             class="o_f"
             id="text48"
             style="font-size:19.0894px;stroke-width:3.55494;fill:#ff0000;fill-opacity:1">アピール</text>
        <text
             x="453.15"
             y="133.88"
             class="p_f"
             id="text50"
             style="font-size:19.0894px;stroke-width:3.55494;fill:#c800ff;fill-opacity:1">信頼</text>
        <text
             x="284.74"
             y="283.19"
             id="text52"
             style="font-size:19.0894px;fill:#ff8200;fill-opacity:1;stroke-width:3.55494">認証・登録</text>
    </g>
</svg>
