<svg
	id="control_svg"
	viewBox="0 0 159 106"
	version="1.1"
	xmlns="http://www.w3.org/2000/svg"
	xmlns:svg="http://www.w3.org/2000/svg">
	<rect
		width="35.8"
		height="3.02"
		x="-15"
		y="62"
		class="line"
		transform="rotate(-42.9)" />
	<rect
		width="35.8"
		height="3.02"
		x="57.4"
		y="-15.3"
		class="line"
		transform="matrix(0.733,0.681,0.681,-0.733,0,0)" />
	<rect
		width="35.8"
		height="3.02"
		x="35"
		y="82.6"
		class="line"
		transform="rotate(-42.9)" />
	<rect
		width="35.8"
		height="3.02"
		x="80.8"
		y="33.1"
		class="line"
		transform="matrix(0.733,0.681,0.681,-0.733,0,0)" />
	<rect
		width="33.8"
		height="12.2"
		x="5.38"
		y="46.5"
		class="control_box" />
	<rect
		width="33.8"
		height="12.2"
		x="55"
		y="28.2"
		class="control_box" />
	<rect
		width="33.8"
		height="12.2"
		x="55"
		y="64.8"
		class="control_box" />
	<rect
		width="33.8"
		height="12.2"
		x="105"
		y="10.3"
		class="control_box" />
	<rect
		width="33.8"
		height="12.2"
		x="105"
		y="44.6"
		class="control_box" />
	<text
		x="15"
		y="55">監査
	</text>
	<text
		x="60"
		y="35">内部統制
	</text>
	<text
		x="60"
		y="73">外部統制
	</text>
	<text
		x="112"
		y="18">会計統制
	</text>
	<text
		x="112"
		y="52">業務統制
	</text>
</svg>