<?xml version="1.0" encoding="UTF-8" standalone="no"?>
<!-- Created with Inkscape (http://www.inkscape.org/) -->

<svg
     width="600"
     height="500"
     viewBox="0 0 600 500"
     version="1.1"
     id="svg5"
     sodipodi:docname="チャレンジレスポンス認証.svg"
     inkscape:version="1.1 (c68e22c387, 2021-05-23)"
     xmlns:inkscape="http://www.inkscape.org/namespaces/inkscape"
     xmlns:sodipodi="http://sodipodi.sourceforge.net/DTD/sodipodi-0.dtd"
     xmlns="http://www.w3.org/2000/svg"
     xmlns:svg="http://www.w3.org/2000/svg">
    <sodipodi:namedview
         id="namedview7"
         pagecolor="#ffffff"
         bordercolor="#666666"
         borderopacity="1.0"
         inkscape:pageshadow="2"
         inkscape:pageopacity="0.0"
         inkscape:pagecheckerboard="0"
         inkscape:document-units="px"
         showgrid="false"
         units="px"
         width="600px"
         inkscape:zoom="1.0608"
         inkscape:cx="315.8"
         inkscape:cy="177.7"
         inkscape:window-width="1920"
         inkscape:window-height="1009"
         inkscape:window-x="-8"
         inkscape:window-y="-8"
         inkscape:window-maximized="1"
         inkscape:current-layer="layer1"
         showguides="false" />
    <defs
         id="defs2" />
    <g
         inkscape:label="レイヤー 1"
         inkscape:groupmode="layer"
         id="layer1">
        <g
             id="g1197">
            <path
                 style="fill:#a3c3e6;stroke-width:0.22908"
                 d="m 138.47,123.53 c 0,0 -2.28,-0.13 -4.96,-0.18 -6.43,-0.12 -6.55,-0.12 -9.34,-0.1 -3.18,0 -6.13,-0.1 -6.31,-0.25 -0.1,-0.1 -0.44,-0.1 -0.81,0 -0.36,0.1 -0.67,0.11 -0.67,0 0,-0.1 -0.38,-0.17 -0.85,-0.15 -0.48,0 -1.37,-0.1 -1.99,-0.24 -0.61,-0.16 -1.18,-0.28 -1.26,-0.27 -0.1,0 -0.18,0 -0.25,0 -0.14,-0.1 -4.95,-0.22 -8.59,-0.26 -1.67,0 -2.81,-0.14 -2.91,-0.29 -0.11,-0.17 -0.36,-0.17 -0.846,0 -0.375,0.15 -0.744,0.2 -0.817,0.13 -0.07,-0.1 -0.876,-0.16 -1.785,-0.19 -2.673,-0.1 -2.598,0 -2.902,-2.13 -0.213,-1.45 -0.207,-1.92 0.03,-2.3 0.163,-0.25 0.369,-0.47 0.458,-0.47 0.09,0 0.452,-0.26 0.804,-0.59 0.353,-0.33 1.029,-0.8 1.501,-1.04 0.472,-0.24 0.859,-0.52 0.859,-0.61 0,-0.15 0.825,-0.55 1.432,-0.69 0.09,0 0.378,-0.25 0.63,-0.5 0.256,-0.26 0.666,-0.46 0.916,-0.46 0.25,0 0.46,-0.1 0.46,-0.22 0,-0.11 0.36,-0.34 0.8,-0.5 0.44,-0.16 0.8,-0.36 0.8,-0.43 0,-0.23 2.46,-1.97 3.44,-2.43 0.19,-0.1 0.39,-0.23 0.46,-0.31 0.23,-0.29 1.76,-1.14 1.87,-1.04 0.1,0.1 0.5,-0.25 0.98,-0.69 0.48,-0.44 0.93,-0.8 1.01,-0.8 0.1,0 0.65,-0.47 1.27,-1.03 0.62,-0.56 1.21,-1.03 1.31,-1.03 0.11,0 0.67,-0.36 1.25,-0.8 0.57,-0.44 1.3,-0.86 1.6,-0.94 0.31,-0.1 0.56,-0.23 0.56,-0.33 0,-0.1 0.18,-0.25 0.4,-0.32 0.22,-0.1 0.76,-0.44 1.2,-0.81 0.44,-0.38 0.92,-0.79 1.06,-0.9 0.15,-0.12 0.31,-0.18 0.37,-0.12 0.1,0.1 0.11,-0.437 0.11,-1.101 0,-0.662 0.1,-1.565 0.16,-2.007 0.24,-1.23 0.32,-2.043 0.38,-3.665 0,-0.818 0.16,-1.682 0.27,-1.917 0.13,-0.273 0.13,-0.378 0,-0.291 -0.34,0.213 -0.14,-2.903 0.36,-5.352 0.14,-0.694 0.31,-2.137 0.39,-3.207 0.1,-1.072 0.19,-2.256 0.26,-2.634 0.1,-0.378 0.14,-0.919 0.16,-1.203 0,-0.284 0.13,-0.515 0.24,-0.515 0.11,0 0.14,-0.323 0.1,-0.72 -0.1,-0.412 0,-0.852 0.11,-1.028 0.14,-0.17 0.19,-0.461 0.12,-0.646 -0.1,-0.188 0,-0.406 0.1,-0.484 0.13,-0.08 0.19,-0.261 0.14,-0.407 -0.1,-0.147 0,-0.491 0.1,-0.765 0.1,-0.275 0.24,-1.37 0.31,-2.436 0.1,-1.063 0.23,-2.435 0.36,-3.051 0.12,-0.614 0.21,-1.372 0.18,-1.688 0,-0.633 0.25,-2.504 0.47,-2.864 0.13,-0.227 0.15,-0.346 0.23,-1.53 0,-0.337 0.16,-0.749 0.32,-0.916 0.16,-0.165 0.32,-0.765 0.36,-1.334 0,-0.565 0.16,-1.127 0.28,-1.246 0.24,-0.24 2.19,-0.288 18.89,-0.469 14.92,-0.161 15.33,-0.161 17.18,0 0.88,0.07 3.72,0.176 6.3,0.226 2.58,0.05 5.93,0.158 7.45,0.241 1.51,0.08 3.26,0.137 3.9,0.119 1.05,-0.03 1.21,0.04 1.8,0.742 0.52,0.628 0.66,1.045 0.73,2.197 0,0.784 0.13,1.498 0.18,1.588 0.1,0.09 0,0.68 -0.12,1.308 -0.13,0.627 -0.26,1.759 -0.3,2.515 -0.15,2.667 -0.37,4.763 -0.52,5.01 -0.17,0.284 -0.25,0.77 -0.32,2.091 0,0.504 -0.14,1.041 -0.26,1.194 -0.11,0.151 -0.14,0.387 -0.1,0.525 0.1,0.137 0,0.497 -0.21,0.799 -0.24,0.371 -0.33,0.891 -0.27,1.59 0.1,0.57 0,1.095 -0.1,1.164 -0.11,0.07 -0.15,0.279 -0.1,0.465 0.1,0.188 0,0.472 -0.11,0.634 -0.13,0.163 -0.22,0.6 -0.18,0.972 0,0.371 0,0.849 -0.12,1.062 -0.12,0.227 -0.1,0.447 0,0.532 0.13,0.08 0.18,0.218 0.13,0.307 -0.1,0.14 -0.19,0.792 -0.45,2.788 0,0.19 -0.12,0.456 -0.2,0.589 -0.1,0.132 -0.11,0.57 -0.1,0.969 0,0.4 0,0.728 -0.1,0.728 -0.1,0 -0.16,1.109 -0.16,2.463 0,2.206 -0.12,3.479 -0.49,5.669 -0.1,0.378 -0.12,1.359 -0.13,2.177 0,1.612 -0.28,2.162 -1.78,3.682 -0.44,0.45 -1.21,1.31 -1.71,1.9 -0.5,0.6 -2.02,2.21 -3.38,3.58 -1.36,1.37 -2.47,2.53 -2.47,2.58 0,0.1 -0.78,0.9 -1.72,1.88 -0.95,0.98 -1.72,1.88 -1.72,2.01 0,0.13 -0.77,0.98 -1.72,1.9 -0.94,0.92 -1.71,1.77 -1.71,1.9 0,0.13 -0.21,0.3 -0.45,0.38 -0.25,0.1 -0.51,0.33 -0.58,0.55 -0.1,0.23 -0.37,0.54 -0.67,0.7 -0.31,0.16 -0.73,0.63 -0.96,1.04 -0.86,1.6 -2.33,2.13 -5.48,1.96 -0.63,0 -1.66,0 -2.29,0 -2.1,0.1 -12.29,0.11 -12.39,0 z"
                 id="path1069" />
            <path
                 style="fill:#7493a8;stroke-width:0.22908"
                 d="m 140.83,123.6 c -0.16,-0.16 -2.89,-0.35 -4.29,-0.31 -2.93,0.1 -5.49,0.1 -5.49,0 0,-0.12 -5.21,-0.13 -5.62,0 -0.12,0 -0.33,0 -0.46,0 -0.26,-0.1 -2.21,-0.15 -6.41,-0.31 -4.23,-0.16 -5.54,-0.31 -6.34,-0.71 -0.39,-0.19 -0.81,-0.28 -0.95,-0.19 -0.13,0.1 -0.77,0.13 -1.4,0.11 -9.86,-0.34 -11.001,-0.4 -11.333,-0.61 -0.119,-0.1 -0.287,0 -0.369,0.11 -0.08,0.14 -0.346,0.18 -0.589,0.1 -0.243,-0.1 -0.971,-0.17 -1.619,-0.22 -0.649,0 -1.256,-0.17 -1.352,-0.27 -0.09,-0.1 -0.266,-0.93 -0.38,-1.84 -0.2,-1.58 -0.07,-2.36 0.403,-2.36 0.119,0 0.499,-0.29 0.847,-0.65 0.349,-0.36 1.02,-0.83 1.492,-1.06 0.472,-0.22 0.859,-0.49 0.859,-0.6 0,-0.11 0.112,-0.21 0.25,-0.21 0.139,0 1.177,-0.56 2.311,-1.26 1.13,-0.69 2.1,-1.26 2.14,-1.26 0.25,0 2.17,-1.43 2.17,-1.61 0,-0.12 0.17,-0.22 0.37,-0.22 0.2,0 0.74,-0.3 1.2,-0.66 0.46,-0.36 1.3,-0.9 1.87,-1.19 0.56,-0.29 1.33,-0.81 1.7,-1.17 0.37,-0.35 0.79,-0.65 0.92,-0.65 0.13,0 0.55,-0.32 0.93,-0.71 0.38,-0.39 1.05,-0.89 1.49,-1.12 0.44,-0.22 1.05,-0.63 1.35,-0.89 0.3,-0.27 0.68,-0.48 0.83,-0.48 0.15,0 0.41,-0.15 0.56,-0.34 0.16,-0.19 0.37,-0.29 0.47,-0.23 0.1,0.1 0.24,0 0.31,-0.23 0.1,-0.19 0.25,-0.35 0.4,-0.35 0.15,0 0.44,-0.14 0.64,-0.33 1.15,-1.06 1.4,-1.26 1.45,-1.23 0,0 0.21,-0.1 0.4,-0.17 0.24,-0.15 0.35,-0.63 0.36,-1.587 0,-1.148 0.2,-2.749 0.32,-2.749 0.1,0 0.24,-3.478 0.3,-5.842 0,-1.324 0.13,-2.513 0.21,-2.643 0.2,-0.321 0.43,-1.925 0.54,-3.886 0.1,-0.882 0.15,-1.83 0.21,-2.105 0.1,-0.277 0.18,-1.051 0.25,-1.718 0.1,-0.669 0.19,-1.372 0.26,-1.56 0.1,-0.19 0.17,-0.603 0.19,-0.916 0.1,-1.166 0.38,-2.855 0.51,-3.068 0.1,-0.119 0.16,-0.792 0.2,-1.496 0,-0.703 0.13,-1.743 0.21,-2.309 0.16,-1.07 0.26,-2.016 0.44,-4.075 0.1,-0.667 0.16,-1.292 0.22,-1.388 0.1,-0.1 0.17,-0.683 0.24,-1.302 0.1,-0.618 0.27,-1.335 0.44,-1.589 0.16,-0.257 0.31,-0.775 0.32,-1.153 0,-0.378 0.13,-0.971 0.26,-1.317 0.2,-0.522 0.39,-0.637 1.1,-0.666 1.24,-0.05 1.97,0.04 2.26,0.281 0.14,0.115 0.3,0.158 0.37,0.09 0.16,-0.165 2.59,-0.348 5.91,-0.446 6.98,-0.207 8.61,-0.213 8.89,-0.04 0.16,0.103 0.42,0.09 0.57,-0.02 0.15,-0.113 1.15,-0.168 2.22,-0.122 1.08,0.05 2.47,0.07 3.1,0.06 3.77,-0.08 11.25,-0.03 12.71,0.09 2,0.158 3.44,0.199 6.3,0.174 1.13,0 2.78,0.03 3.67,0.09 0.88,0.06 2.98,0.146 4.67,0.187 l 3.08,0.08 0.68,0.845 c 0.63,0.8 0.67,0.963 0.69,3.07 0,1.223 -0.1,2.586 -0.22,3.031 -0.13,0.444 -0.17,1.01 -0.1,1.26 0.1,0.249 0.1,0.763 0,1.141 -0.11,0.378 -0.22,1.356 -0.24,2.176 0,0.818 -0.11,1.642 -0.2,1.832 -0.1,0.188 -0.32,1.272 -0.51,2.406 -0.19,1.134 -0.45,2.501 -0.57,3.04 -0.13,0.593 -0.14,1.031 0,1.108 0.12,0.08 0.1,0.266 -0.1,0.452 -0.14,0.176 -0.2,0.472 -0.13,0.659 0.1,0.186 0,0.399 -0.1,0.475 -0.13,0.08 -0.22,0.414 -0.21,0.753 0,1.959 -0.1,3.249 -0.23,3.249 -0.11,0 -0.14,0.204 -0.1,0.456 0.1,0.249 0,0.634 -0.1,0.859 -0.25,0.568 -0.29,0.918 -0.44,4.526 -0.1,1.764 -0.28,4.238 -0.47,5.498 -0.37,2.52 -0.41,3.141 -0.27,4.039 0.1,0.48 -0.14,0.86 -1.05,1.83 -0.64,0.68 -1.48,1.64 -1.87,2.15 -0.4,0.5 -1.69,1.91 -2.88,3.13 -2.93,3 -6.48,6.81 -6.7,7.2 -0.25,0.43 -3.39,3.77 -5.15,5.47 -0.78,0.76 -1.43,1.46 -1.43,1.54 0,0.35 -1.1,1.23 -1.84,1.48 -0.45,0.15 -2.27,0.27 -4.23,0.29 -7.23,0 -8.06,0 -9.47,0 -0.81,0 -1.54,0 -1.63,0.1 -0.1,0.1 -0.23,0 -0.3,0 z m -4.96,-6.48 c 0.18,0 1.82,-1.6 1.82,-1.74 0,-0.18 0.9,-1.03 1.09,-1.03 0.1,0 0.35,-0.39 0.56,-0.86 0.5,-1.15 0.24,-1.33 -1.9,-1.28 -4.97,0.1 -8.47,0 -8.81,-0.19 -0.13,-0.1 -0.37,-0.1 -0.54,0 -0.16,0.1 -0.64,0.11 -1.06,0 -0.42,-0.1 -1.18,-0.1 -1.69,0 -0.51,0.1 -0.99,0.11 -1.06,0 -0.1,-0.1 -0.51,-0.15 -0.96,-0.18 -0.66,0 -1.17,0.17 -2.5,1.06 -0.92,0.61 -1.88,1.18 -2.14,1.27 -0.26,0.1 -0.46,0.24 -0.46,0.36 0,0.11 -0.14,0.21 -0.31,0.21 -0.37,0 -1.63,1.12 -1.46,1.29 0.1,0.1 0.71,0.16 1.43,0.21 0.73,0.1 1.66,0.2 2.08,0.31 0.41,0.11 0.8,0.15 0.88,0.1 0.21,-0.21 4.49,0 7,0.34 0.98,0.14 7.42,0.2 8.03,0.1 z m 23.29,-6.27 c 0.57,-0.15 0.95,-0.44 1.83,-1.37 0.33,-0.35 0.76,-0.63 0.96,-0.63 0.2,0 0.5,-0.21 0.66,-0.47 0.16,-0.25 0.38,-0.41 0.49,-0.34 0.11,0.1 0.25,-0.1 0.31,-0.33 0.1,-0.25 0.36,-0.55 0.66,-0.67 0.29,-0.12 0.83,-0.53 1.18,-0.92 0.36,-0.39 0.76,-0.71 0.9,-0.71 0.13,0 0.47,-0.25 0.77,-0.57 0.29,-0.31 0.63,-0.57 0.75,-0.57 0.25,0 0.59,-0.89 0.42,-1.06 -0.1,-0.1 -3.04,-0.17 -6.61,-0.23 -3.57,-0.1 -7.27,-0.16 -8.21,-0.22 -0.95,-0.1 -5.74,-0.13 -10.66,-0.16 h -8.93 l -0.1,0.52 c 0,0.28 -0.18,0.51 -0.31,0.51 -0.13,0 -0.19,0.12 -0.14,0.27 0,0.16 0.79,0.3 1.95,0.34 1.59,0.1 2.03,0 3.08,-0.49 1.52,-0.72 1.78,-0.72 1.66,0 -0.1,0.53 -0.1,0.54 1.91,0.49 2,-0.1 2.78,-0.21 3.07,-0.66 0.11,-0.16 0.52,-0.12 1.26,0.13 1.11,0.37 4.89,0.54 4.89,0.22 0,-0.15 1.31,-0.72 1.66,-0.72 0.1,0 0.17,0.23 0.21,0.51 0.1,0.47 0.19,0.5 2.19,0.54 1.17,0 2.12,0 2.12,-0.14 0,-0.23 0.63,-0.47 1.55,-0.61 0.61,-0.1 0.72,0 0.6,0.26 -0.1,0.2 0,0.37 0.12,0.39 1.18,0.13 1.71,0.18 3.1,0.29 0.87,0.1 1.69,0.23 1.82,0.36 0.16,0.16 0.1,0.24 -0.23,0.24 -0.26,0 -0.54,0.1 -0.62,0.15 -0.1,0.1 -1.46,0.16 -3.07,0.17 -2.71,0 -2.96,0.1 -3.44,0.54 -0.29,0.28 -0.71,0.51 -0.94,0.51 -0.23,0 -0.61,0.21 -0.84,0.46 -0.46,0.51 -0.68,0.47 3.5,0.57 1.52,0 1.9,0.19 1.48,0.62 -0.18,0.17 -1.45,0.27 -3.72,0.28 -1.97,0 -3.52,0.12 -3.62,0.25 -0.51,0.72 -2.1,1.06 -2.1,0.46 0,-0.19 0.15,-0.35 0.34,-0.35 0.19,0 0.34,-0.1 0.34,-0.19 0,-0.17 -0.82,-0.24 -3.88,-0.32 -0.43,0 -0.83,0.1 -0.88,0.25 0,0.14 -0.28,0.26 -0.51,0.26 -0.24,0 -0.51,0.14 -0.61,0.31 -0.23,0.38 -1.17,0.64 -1.34,0.37 -0.1,-0.12 0.13,-0.43 0.45,-0.71 0.31,-0.27 0.53,-0.56 0.48,-0.64 0,-0.1 -1.14,-0.12 -2.43,-0.1 -2.16,0 -2.4,0.1 -2.95,0.63 -0.33,0.31 -0.92,0.64 -1.32,0.71 -0.65,0.14 -0.71,0.1 -0.6,-0.33 0.1,-0.27 0.26,-0.49 0.42,-0.49 0.16,0 0.36,-0.16 0.44,-0.37 0.12,-0.32 0,-0.35 -0.61,-0.21 -0.41,0.1 -1.54,0.17 -2.52,0.16 -1.56,0 -1.85,0.1 -2.36,0.53 -0.58,0.54 -1.65,0.94 -1.89,0.71 -0.1,-0.1 0.1,-0.32 0.26,-0.55 0.21,-0.23 0.38,-0.52 0.38,-0.64 0,-0.35 -4.63,-0.27 -4.75,0.1 0,0.15 -0.24,0.28 -0.42,0.28 -0.18,0 -0.33,0.1 -0.33,0.18 0,0.26 -1.38,0.81 -1.56,0.62 -0.1,-0.1 0,-0.22 0.13,-0.28 0.16,0 0.29,-0.24 0.29,-0.42 0,-0.18 0.1,-0.33 0.23,-0.33 0.12,0 0.23,-0.14 0.23,-0.31 0,-0.42 -4.19,-0.5 -4.63,-0.1 -0.62,0.58 -1.05,0.85 -1.86,1.19 -1.04,0.44 -1.16,0.1 -0.28,-0.88 l 0.56,-0.6 h -0.73 c -0.41,0 -0.89,0 -1.08,-0.1 -0.19,0 -0.68,-0.1 -1.09,-0.1 -0.41,0 -0.74,-0.13 -0.74,-0.24 0,-0.36 0.97,-0.54 3.16,-0.6 1.16,0 2.19,-0.12 2.27,-0.2 0.1,-0.1 0.31,-0.15 0.52,-0.15 0.41,0 1.6,-1.13 1.24,-1.17 -0.11,0 -0.83,-0.1 -1.58,-0.1 -1.86,-0.1 -1.95,-0.1 -1.95,-0.37 0,-0.13 0.1,-0.18 0.21,-0.11 0.12,0.1 0.27,0 0.34,-0.1 0.12,-0.18 0.87,-0.25 3.46,-0.31 0.5,0 1.07,-0.14 1.26,-0.3 0.19,-0.16 0.58,-0.35 0.86,-0.42 0.28,-0.1 0.73,-0.21 1,-0.28 0.4,-0.12 0.45,-0.1 0.33,0.32 -0.18,0.58 0.1,0.65 2.47,0.71 1.53,0 1.86,0 2.19,-0.41 0.21,-0.24 0.61,-0.48 0.9,-0.52 0.28,0 0.51,-0.18 0.51,-0.31 0,-0.14 -1.91,-0.25 -5,-0.28 -2.74,0 -5.47,-0.1 -6.07,-0.11 -0.95,-0.1 -1.25,0 -2.29,0.79 -0.66,0.47 -1.69,1.12 -2.29,1.44 -0.6,0.31 -1.21,0.78 -1.37,1.03 -0.16,0.25 -0.46,0.45 -0.69,0.45 -0.22,0 -0.4,0.1 -0.4,0.23 0,0.13 -0.1,0.23 -0.23,0.23 -0.12,0 -0.43,0.21 -0.69,0.46 -0.25,0.25 -0.61,0.46 -0.8,0.46 -0.19,0 -0.34,0.1 -0.34,0.23 0,0.12 -0.1,0.22 -0.23,0.22 -0.13,0 -0.41,0.16 -0.63,0.36 -0.22,0.19 -0.65,0.54 -0.95,0.76 -0.53,0.39 -0.47,0.4 2.29,0.42 4.31,0 7.76,0.15 7.76,0.29 0,0.1 2.4,0.15 5.33,0.19 7.52,0.1 18.49,0.4 18.73,0.52 0.1,0 0.94,0.1 1.95,0.11 1,0 2.03,0.11 2.29,0.17 0.25,0 0.64,0 0.86,-0.11 0.22,-0.11 0.4,-0.12 0.4,0 0,0.1 0.94,0.2 2.09,0.23 1.15,0 2.13,0.1 2.17,0.13 0.14,0.13 3.55,0 4.15,-0.13 z m -6.18,-3.89 c 0.28,0 0.58,-0.16 0.66,-0.24 0.1,-0.1 0.36,-0.16 0.6,-0.16 0.29,0 0.41,-0.11 0.33,-0.32 -0.1,-0.19 0.1,-0.37 0.32,-0.44 1.01,-0.26 0.31,-0.51 -1.57,-0.54 -1.83,0 -2.1,0 -3.2,0.65 -1.16,0.65 -1.36,0.88 -1.08,1.16 0.13,0.13 2.93,0.1 3.94,-0.11 z m -19.19,-0.21 c 0,-0.1 0.24,-0.23 0.52,-0.32 0.6,-0.18 1.32,-0.76 1.32,-1.08 0,-0.12 -0.14,-0.16 -0.31,-0.1 -0.17,0.1 -0.95,0 -1.73,0 -1.15,-0.14 -1.6,-0.1 -2.38,0.26 -1.03,0.46 -1.81,1.06 -1.67,1.29 0.12,0.2 4.25,0.18 4.25,0 z m 7.4,-0.6 c 1.72,-1.05 1.85,-1.29 0.59,-1.07 -0.55,0.1 -1.56,0.2 -2.26,0.22 -1.29,0 -2.29,0.28 -2.29,0.54 0,0.1 -0.32,0.29 -0.71,0.46 -1,0.45 -0.5,0.66 1.59,0.66 1.62,0 1.86,-0.1 3.08,-0.81 z m 5.99,0.38 c 0.5,-0.17 1.16,-0.55 1.47,-0.83 l 0.56,-0.51 h -0.89 c -0.49,0 -1.36,-0.1 -1.93,-0.1 -0.56,0 -1.23,0.1 -1.49,0.23 -0.25,0.15 -0.94,0.46 -1.54,0.68 -0.6,0.23 -1.09,0.5 -1.09,0.6 0,0.11 0.8,0.23 1.78,0.27 2.07,0.1 1.97,0.1 3.13,-0.32 z m -19.78,-0.13 c 2.05,-0.57 2.34,-1.52 0.47,-1.51 -1.8,0 -2.95,0.26 -3.79,0.83 -0.93,0.64 -0.91,0.66 0.55,0.72 0.5,0 0.98,0.11 1.07,0.19 0.2,0.2 0.1,0.22 1.7,-0.23 z"
                 id="path1067" />
            <path
                 style="fill:#34719e;stroke-width:0.22908"
                 d="m 144.41,123.52 c -0.1,-0.1 -1.62,-0.14 -3.47,-0.18 -1.85,0 -3.52,-0.1 -3.71,-0.1 -0.19,0 -0.76,0 -1.26,0 -1.96,0.1 -8.59,-0.1 -8.59,-0.24 0,-0.1 -0.44,-0.1 -0.97,0 -0.91,0.12 -1.67,0.15 -2.81,0.1 -0.25,0 -0.66,0 -0.92,0 -1.6,0 -4.87,-0.19 -5.11,-0.34 -0.16,-0.1 -0.45,0 -0.64,0.12 -0.21,0.17 -0.42,0.2 -0.51,0.1 -0.1,-0.12 -0.62,-0.22 -1.18,-0.22 -0.57,0 -1.62,-0.16 -2.33,-0.37 -0.89,-0.26 -1.59,-0.32 -2.24,-0.2 -0.51,0.1 -0.98,0.1 -1.03,0 0,-0.1 -1.32,-0.18 -2.81,-0.22 -1.48,0 -2.95,-0.1 -3.26,-0.11 -0.31,0 -0.94,0 -1.4,0.1 -0.45,0.1 -1.06,0.1 -1.35,0 -0.28,-0.11 -1.507,-0.24 -2.725,-0.31 -3.164,-0.16 -3.414,-0.23 -3.604,-1.1 -0.192,-0.88 -0.277,-2.68 -0.144,-3.08 0.05,-0.16 0.238,-0.29 0.414,-0.29 0.175,0 0.319,-0.1 0.319,-0.22 0,-0.13 0.153,-0.23 0.343,-0.23 0.191,0 0.344,-0.1 0.344,-0.21 0,-0.23 3.455,-2.47 3.626,-2.35 0.06,0 0.204,-0.1 0.317,-0.29 0.112,-0.2 0.38,-0.36 0.59,-0.36 0.22,0 0.69,-0.26 1.06,-0.57 0.36,-0.32 0.79,-0.58 0.94,-0.58 0.15,0 0.52,-0.21 0.82,-0.48 0.3,-0.26 0.78,-0.57 1.07,-0.68 0.28,-0.11 0.51,-0.35 0.51,-0.54 0,-0.19 0.13,-0.29 0.3,-0.23 0.16,0.1 0.51,-0.1 0.79,-0.35 0.27,-0.26 0.56,-0.47 0.64,-0.47 0.1,0 0.29,-0.15 0.48,-0.34 0.19,-0.19 0.53,-0.34 0.76,-0.34 0.23,0 0.48,-0.16 0.56,-0.36 0.1,-0.2 0.23,-0.3 0.34,-0.23 0.12,0.1 0.6,-0.28 1.08,-0.79 0.48,-0.5 1.01,-0.91 1.18,-0.91 0.16,0 0.36,-0.16 0.43,-0.35 0.1,-0.18 0.28,-0.34 0.45,-0.34 0.18,0 0.32,-0.1 0.32,-0.19 0,-0.11 0.28,-0.34 0.63,-0.52 0.62,-0.32 1.2,-0.74 1.77,-1.28 0.16,-0.15 0.57,-0.35 0.9,-0.43 0.33,-0.1 0.83,-0.39 1.11,-0.69 0.29,-0.3 0.59,-0.55 0.69,-0.55 0.1,0 0.64,-0.37 1.22,-0.81 0.57,-0.44 1.2,-0.8 1.37,-0.8 0.26,0 0.33,-0.33 0.31,-1.431 0,-0.788 0,-1.482 0,-1.546 0.26,-0.747 0.44,-2.729 0.57,-6.415 0,-1.195 0.11,-2.226 0.14,-2.29 0,-0.117 0.14,-0.841 0.28,-2.298 0,-0.444 0.17,-0.96 0.29,-1.145 0.11,-0.186 0.24,-1.368 0.28,-2.628 0.1,-2.857 0.11,-3.093 0.32,-3.093 0.1,0 0.11,-0.309 0,-0.687 -0.1,-0.467 0,-0.687 0.14,-0.687 0.19,0 0.24,-0.192 0.15,-0.559 -0.1,-0.307 0,-0.623 0.1,-0.701 0.13,-0.08 0.22,-0.47 0.21,-0.873 0,-0.724 0.12,-1.592 0.34,-1.949 0.1,-0.101 0.18,-1.004 0.25,-2.002 0.1,-1.002 0.18,-2.129 0.23,-2.507 0,-0.378 0.17,-1.564 0.25,-2.634 0.1,-1.072 0.22,-2.05 0.31,-2.176 0.1,-0.126 0.19,-0.639 0.23,-1.143 0,-0.502 0.21,-1.203 0.4,-1.558 0.18,-0.355 0.39,-1.155 0.47,-1.778 0.1,-0.623 0.24,-1.138 0.38,-1.143 0.14,0 0.85,-0.07 1.58,-0.137 0.89,-0.08 1.31,-0.04 1.31,0.13 0,0.172 0.37,0.218 1.09,0.135 0.6,-0.07 1.55,-0.135 2.12,-0.153 0.57,-0.02 1.12,-0.08 1.22,-0.14 0.11,-0.06 2.11,-0.144 4.44,-0.188 2.34,-0.04 4.3,-0.126 4.35,-0.181 0.1,-0.06 0.4,-0.02 0.77,0.09 0.39,0.112 0.72,0.103 0.8,-0.02 0.1,-0.12 0.25,-0.147 0.39,-0.06 0.14,0.09 4.3,0.165 9.24,0.174 4.94,0.02 9.06,0.09 9.14,0.172 0.1,0.08 0.45,0.06 0.82,-0.04 0.37,-0.106 0.67,-0.117 0.67,-0.02 0,0.09 2.35,0.19 5.21,0.215 6.64,0.06 8.13,0.119 8.48,0.348 0.17,0.101 0.63,0.108 1.04,0.02 1.32,-0.307 1.72,-0.208 2.44,0.605 0.53,0.607 0.7,1.029 0.73,1.821 0,0.568 0.1,1.496 0.1,2.062 0,0.568 0,1.276 -0.15,1.576 -0.1,0.3 -0.25,1.484 -0.32,2.634 -0.16,2.511 -0.24,3.425 -0.3,3.579 0,0.06 -0.1,0.423 -0.15,0.801 -0.1,0.378 -0.16,1.153 -0.24,1.718 -0.1,0.569 -0.17,1.187 -0.19,1.375 0,0.19 -0.16,0.706 -0.31,1.145 -0.14,0.442 -0.31,1.318 -0.37,1.948 -0.1,0.629 -0.17,1.61 -0.24,2.176 -0.1,0.566 -0.15,1.601 -0.19,2.3 0,0.696 -0.14,1.383 -0.23,1.525 -0.1,0.142 -0.1,0.422 0,0.624 0.1,0.201 0,0.499 -0.11,0.662 -0.13,0.16 -0.24,0.494 -0.23,0.742 0,0.747 -0.18,2.082 -0.34,2.343 -0.1,0.138 -0.1,0.298 0,0.36 0.1,0.06 0.16,0.506 0.13,0.99 0,0.483 -0.11,1.805 -0.17,2.939 -0.1,1.134 -0.16,2.268 -0.21,2.52 -0.3,1.436 -0.44,2.668 -0.42,3.833 0,1.11 -0.1,1.37 -0.49,1.67 -0.27,0.19 -0.5,0.43 -0.51,0.52 0,0.1 -0.31,0.5 -0.68,0.9 -1.11,1.19 -4.79,5.1 -6.34,6.74 -1.64,1.72 -4.18,4.56 -4.87,5.44 -0.26,0.32 -1.11,1.24 -1.9,2.04 -0.79,0.8 -1.43,1.54 -1.43,1.65 0,0.11 -0.21,0.27 -0.46,0.35 -0.25,0.1 -0.46,0.25 -0.46,0.37 0,0.29 -0.46,0.76 -0.92,0.93 -0.19,0.1 -0.5,0.43 -0.69,0.79 -0.78,1.51 -2.03,2.09 -4.23,1.98 -0.88,0 -1.76,-0.1 -1.95,-0.1 -0.19,0 -1.42,0 -2.75,0.14 -3.23,0.22 -5.05,0.26 -5.18,0.13 z m -11.5,-6.26 c 0.62,0 1.19,0.1 1.26,0.13 0.19,0.19 1.75,-0.1 2.08,-0.39 0.73,-0.65 0.92,-0.84 1.67,-1.71 0.44,-0.52 0.9,-0.94 1.03,-0.95 0.3,0 1.13,-1.8 0.92,-2.01 -0.24,-0.24 -3.24,-0.41 -3.95,-0.22 -0.37,0.1 -0.67,0.1 -0.71,0 0,-0.15 -0.23,-0.14 -0.51,0 -0.24,0.12 -0.82,0.18 -1.3,0.12 -0.48,-0.1 -1.77,-0.13 -2.87,-0.16 -1.1,0 -2,-0.14 -2,-0.25 0,-0.11 -0.19,-0.1 -0.41,0 -0.49,0.25 -3.49,0.22 -3.9,0 -0.36,-0.22 -2.11,0 -2.11,0.33 0,0.12 -0.14,0.21 -0.31,0.21 -0.17,0 -0.58,0.21 -0.9,0.46 -0.32,0.25 -0.73,0.46 -0.92,0.46 -0.19,0 -0.39,0.14 -0.46,0.31 -0.1,0.16 -0.7,0.59 -1.41,0.94 -1.19,0.58 -2.02,1.51 -1.67,1.86 0.22,0.22 1.67,0.34 4.93,0.41 1.67,0 3.1,0.14 3.18,0.22 0.1,0.1 0.32,0 0.54,-0.1 0.22,-0.11 0.46,-0.14 0.55,-0.1 0.1,0.1 0.43,0.17 0.77,0.19 2.88,0.19 4.75,0.37 4.83,0.45 0.1,0 0.2,0 0.32,0 0.13,-0.1 0.73,-0.14 1.35,-0.14 z m 26.35,-6.31 c 0.65,-0.26 1.4,-0.81 1.99,-1.47 0.2,-0.22 0.49,-0.4 0.64,-0.4 0.16,0 0.75,-0.47 1.33,-1.03 0.57,-0.57 1.11,-1.03 1.19,-1.03 0.1,0 0.43,-0.29 0.77,-0.63 0.88,-0.9 1.57,-1.43 1.83,-1.43 0.13,0 0.23,-0.11 0.23,-0.23 0,-0.13 0.16,-0.23 0.34,-0.23 0.19,0 0.35,-0.16 0.35,-0.35 0,-0.18 0.11,-0.34 0.24,-0.34 0.14,0 0.22,-0.16 0.17,-0.37 -0.1,-0.42 -0.12,-0.43 -8.43,-0.63 -10.03,-0.23 -12.71,-0.33 -13.12,-0.49 -0.23,-0.1 -0.4,-0.1 -0.4,0.1 0,0.14 -0.14,0.2 -0.31,0.13 -0.59,-0.22 -3.92,-0.24 -4.21,0 -0.18,0.13 -0.29,0.13 -0.29,0 0,-0.26 -14.22,-0.23 -14.64,0 -0.14,0.1 -0.39,0.1 -0.54,-0.1 -0.16,-0.12 -1.44,-0.23 -2.86,-0.25 -2.42,0 -2.65,0 -3.56,0.58 -0.53,0.34 -1.01,0.68 -1.08,0.77 -0.1,0.1 -0.65,0.45 -1.31,0.82 -0.67,0.37 -1.21,0.75 -1.21,0.84 0,0.1 -0.15,0.17 -0.34,0.17 -0.19,0 -0.34,0.11 -0.34,0.23 0,0.13 -0.15,0.23 -0.32,0.23 -0.17,0 -0.44,0.16 -0.6,0.34 -0.15,0.19 -0.37,0.29 -0.48,0.22 -0.12,-0.1 -0.21,0 -0.21,0.18 0,0.16 -0.19,0.4 -0.43,0.52 -1.14,0.6 -3.23,2.23 -3.11,2.42 0.1,0.13 0.23,0.17 0.34,0.1 0.1,-0.1 0.26,0 0.34,0.12 0.1,0.13 0.27,0.16 0.42,0.1 0.33,-0.21 3.34,-0.32 3.82,-0.14 0.55,0.22 1.37,0.22 1.37,0 0,-0.1 0.1,-0.14 0.19,-0.1 0.11,0.1 2.56,0.18 5.45,0.26 2.88,0.1 6.22,0.18 7.42,0.24 1.2,0.1 3.88,0.16 5.96,0.22 4.24,0.13 9.27,0.31 9.96,0.37 0.25,0 0.82,0 1.26,0 0.44,0 1.47,0 2.29,0.1 0.82,0 2.4,0.14 3.52,0.19 1.11,0.1 2.06,0.15 2.1,0.19 0.19,0.18 3.71,0 4.27,-0.24 z m -14.93,-1.67 c 0,-0.11 0.21,-0.41 0.46,-0.66 0.25,-0.25 0.46,-0.56 0.46,-0.69 0,-0.3 -1.18,-0.37 -2.81,-0.14 -0.35,0 -0.7,0 -0.77,-0.13 -0.1,-0.12 -0.26,-0.1 -0.44,0 -0.17,0.15 -0.41,0.2 -0.53,0.13 -0.12,-0.1 -0.52,0.11 -0.87,0.4 -1.59,1.33 -2.72,1.38 -1.31,0.1 l 0.61,-0.57 h -2.7 c -2.58,0 -2.74,0.1 -3.35,0.64 -1.14,1.06 -2.16,1.01 -1.1,0 0.26,-0.26 0.43,-0.52 0.36,-0.59 -0.1,-0.1 -1.14,-0.15 -2.39,-0.18 l -2.28,-0.1 -0.98,0.78 c -0.54,0.42 -1.07,0.77 -1.17,0.77 -0.36,0 -0.21,-0.86 0.16,-1.01 0.2,-0.1 0.32,-0.26 0.28,-0.4 -0.1,-0.18 -0.81,-0.28 -2.14,-0.31 -1.62,0 -2.2,0.1 -2.74,0.38 -1.37,0.83 -2.17,1.19 -2.33,1.04 -0.1,-0.1 0.12,-0.39 0.45,-0.67 0.86,-0.74 0.54,-1.1 -0.75,-0.86 -0.61,0.11 -1.07,0.1 -1.11,0 0,-0.12 -0.33,-0.15 -0.63,-0.1 -0.34,0.1 -0.56,0 -0.56,-0.12 0,-0.14 0.26,-0.25 0.56,-0.25 0.31,0 0.63,-0.11 0.71,-0.24 0.1,-0.13 0.25,-0.16 0.38,-0.1 0.32,0.19 2.21,0.2 2.4,0 0.1,-0.1 0.38,-0.1 0.66,0 0.28,0.1 0.58,0 0.67,-0.12 0.1,-0.13 0.3,-0.25 0.48,-0.25 0.39,0 1.25,-0.8 1.25,-1.17 0,-0.17 -0.32,-0.22 -0.92,-0.14 -0.5,0.1 -0.97,0 -1.04,-0.1 -0.1,-0.12 -0.4,-0.15 -0.72,-0.1 -0.43,0.1 -0.56,0.1 -0.49,-0.15 0.1,-0.21 0.73,-0.3 2.31,-0.32 1.42,0 2.32,-0.13 2.5,-0.31 0.15,-0.16 0.4,-0.29 0.55,-0.29 0.15,0 0.56,-0.15 0.92,-0.33 0.74,-0.39 0.98,-0.29 0.55,0.22 -0.16,0.19 -0.24,0.4 -0.18,0.46 0.1,0.1 1.11,0.16 2.34,0.22 2.06,0.11 2.27,0.1 2.62,-0.35 0.38,-0.47 1.64,-0.79 1.64,-0.41 0,0.1 -0.1,0.19 -0.21,0.19 -0.11,0 -0.25,0.19 -0.31,0.42 -0.1,0.39 0.1,0.42 2.21,0.39 1.66,0 2.48,-0.13 2.89,-0.39 0.9,-0.57 1.83,-0.72 1.83,-0.31 0,0.2 -0.12,0.35 -0.27,0.35 -0.14,0 -0.2,0.1 -0.13,0.13 0.1,0.1 1.13,0.16 2.35,0.19 1.99,0 2.26,0 2.75,-0.45 0.56,-0.52 1.84,-0.53 1.64,0 -0.1,0.18 0.65,0.26 2.4,0.27 1.37,0 2.49,-0.1 2.49,-0.15 0,-0.1 0.23,-0.26 0.51,-0.35 0.97,-0.33 1.09,-0.3 0.96,0.22 -0.12,0.48 -0.1,0.49 2.21,0.46 1.28,0 2.39,-0.12 2.47,-0.22 0.14,-0.19 0.44,-0.3 1.11,-0.41 0.16,0 0.35,-0.12 0.44,-0.21 0.32,-0.31 0.57,-0.15 0.43,0.28 -0.12,0.38 0,0.45 1.08,0.57 2.11,0.24 2.8,0.3 3.48,0.33 0.37,0 0.6,0.11 0.51,0.2 -0.1,0.1 -1.52,0.16 -3.19,0.17 -2.82,0 -3.09,0 -3.94,0.58 -0.51,0.32 -1,0.55 -1.09,0.52 -0.19,-0.1 -1.32,0.86 -1.32,1.08 0,0.1 0.39,0.14 0.86,0.16 0.47,0 1.68,0.1 2.69,0.16 1.01,0.1 1.94,0.14 2.06,0.14 0.13,0 0.1,0.1 -0.1,0.2 -0.16,0.1 -1.6,0.16 -3.21,0.13 -2.15,0 -3.2,0 -4,0.32 -0.6,0.2 -1.09,0.45 -1.09,0.55 0,0.1 -0.23,0.18 -0.5,0.18 -0.39,0 -0.44,-0.1 -0.23,-0.27 0.15,-0.16 0.27,-0.35 0.27,-0.44 0,-0.3 -0.72,-0.43 -1.14,-0.2 -0.27,0.14 -0.48,0.14 -0.57,0 -0.11,-0.19 -0.68,-0.25 -2.49,-0.27 -0.24,0 -0.61,0.16 -0.82,0.36 -0.22,0.19 -0.46,0.29 -0.53,0.22 -0.1,-0.1 -0.2,0.1 -0.27,0.32 -0.14,0.44 -1.28,0.86 -1.28,0.47 z m 8.42,-2.15 c 0.54,-0.1 0.97,-0.26 0.97,-0.37 0,-0.11 0.19,-0.2 0.42,-0.2 0.46,0 1.58,-1.06 1.36,-1.28 -0.1,-0.1 -1.03,-0.16 -2.12,-0.2 -1.84,-0.1 -3.08,0.19 -3.09,0.62 0,0.1 -0.16,0.17 -0.35,0.17 -0.18,0 -0.34,0.11 -0.34,0.23 0,0.13 -0.11,0.23 -0.24,0.23 -0.14,0 -0.41,0.16 -0.6,0.34 -0.35,0.36 -0.33,0.38 0.56,0.62 0.45,0.12 2.36,0 3.43,-0.16 z m -20.16,-0.19 c 0.66,0 1.2,0 1.2,-0.15 0,-0.11 0.3,-0.26 0.67,-0.34 0.37,-0.1 0.73,-0.3 0.8,-0.48 0.1,-0.18 0.28,-0.33 0.47,-0.33 0.2,0 0.36,-0.13 0.36,-0.29 0,-0.45 -4.01,-0.47 -4.99,0 -0.72,0.33 -1.89,1.27 -1.89,1.53 0,0.22 0.77,0.3 1.49,0.16 0.38,-0.1 1.23,-0.11 1.89,-0.1 z m 7.5,0 c 0.95,-0.37 2.64,-1.57 2.64,-1.88 0,-0.18 -0.1,-0.27 -0.2,-0.2 -0.1,0.1 -1,0.13 -2,0.15 -1.67,0 -3.02,0.31 -3.3,0.69 -0.1,0.1 -0.46,0.33 -0.88,0.54 -1.23,0.63 -0.49,0.96 2.03,0.91 0.69,0 1.46,-0.11 1.71,-0.21 z m 7.65,-0.34 c 0.3,-0.19 0.85,-0.61 1.22,-0.94 0.53,-0.47 0.6,-0.63 0.33,-0.73 -0.18,-0.1 -0.63,-0.1 -0.98,0 -0.35,0.1 -1.11,0.1 -1.68,0 -0.91,-0.15 -1.25,-0.1 -2.7,0.63 -2.38,1.14 -2.22,1.41 0.8,1.37 1.74,0 2.63,-0.14 3.01,-0.38 z m -19.32,-0.48 c 0.61,-0.31 1.14,-0.67 1.18,-0.81 0.12,-0.35 -1.43,-0.56 -3.09,-0.41 -1.75,0.15 -3.77,1.15 -3.18,1.58 0.21,0.15 1.12,0.25 2.18,0.24 1.45,0 2.04,-0.15 2.91,-0.6 z m -2.25,-19.943 c 0.65,-0.485 1.3,-0.882 1.43,-0.882 0.13,0 0.24,-0.08 0.24,-0.178 0,-0.101 0.33,-0.371 0.74,-0.605 0.41,-0.234 1.33,-0.873 2.05,-1.423 0.71,-0.552 1.41,-1.001 1.54,-1.001 0.14,0 0.25,-0.103 0.25,-0.229 0,-0.126 0.15,-0.229 0.33,-0.229 0.18,0 0.53,-0.259 0.77,-0.573 0.25,-0.316 0.52,-0.572 0.6,-0.572 0.14,0 1.05,-0.758 2.27,-1.89 0.37,-0.346 0.82,-0.63 0.99,-0.63 0.17,0 0.31,-0.1 0.31,-0.22 0,-0.261 0.75,-1.015 1.95,-1.956 0.48,-0.378 1.1,-0.919 1.38,-1.203 0.27,-0.284 0.61,-0.515 0.75,-0.515 0.14,0 0.33,-0.129 0.43,-0.287 0.1,-0.158 0.54,-0.536 0.99,-0.843 0.44,-0.304 0.88,-0.692 0.98,-0.859 0.1,-0.165 0.39,-0.302 0.63,-0.302 0.25,0 0.45,-0.11 0.45,-0.245 0,-0.316 0.59,-0.917 0.75,-0.761 0.1,0.07 0.36,-0.101 0.66,-0.369 1.75,-1.59 2.35,-2.061 2.61,-2.061 0.16,0 0.33,-0.08 0.37,-0.181 0,-0.1 0.54,-0.536 1.11,-0.974 0.56,-0.435 1.08,-0.845 1.14,-0.909 0.1,-0.06 0.53,-0.42 1.03,-0.788 0.51,-0.372 0.97,-0.731 1.03,-0.802 0.31,-0.344 2.29,-1.615 2.51,-1.615 0.14,0 0.32,-0.151 0.38,-0.335 0.1,-0.185 0.35,-0.405 0.62,-0.488 0.47,-0.149 1.08,-0.634 1.08,-0.856 0,-0.06 -0.44,-0.09 -0.98,-0.05 -0.53,0.03 -1.14,-0.02 -1.34,-0.128 -0.21,-0.103 -0.43,-0.131 -0.5,-0.06 -0.18,0.183 -4.19,0.176 -4.49,0 -0.14,-0.09 -0.25,-0.08 -0.25,0.02 0,0.225 -7.17,0.197 -7.54,-0.03 -0.14,-0.09 -0.25,-0.07 -0.25,0.03 0,0.103 -1.06,0.183 -2.35,0.181 -1.29,0 -2.79,0.06 -3.33,0.138 -0.54,0.08 -1.02,0.07 -1.08,0 -0.1,-0.08 -0.43,-0.117 -0.85,-0.08 -0.41,0.04 -1.28,0.115 -1.93,0.16 -0.65,0.05 -1.5,0.158 -1.89,0.246 -0.39,0.08 -1.05,0.05 -1.46,-0.08 -0.41,-0.126 -1.16,-0.161 -1.66,-0.07 -0.75,0.13 -0.93,0.263 -0.99,0.73 -0.1,0.312 -0.17,0.667 -0.29,0.786 -0.12,0.122 -0.21,0.584 -0.21,1.031 0,0.449 -0.12,1.226 -0.27,1.73 -0.15,0.504 -0.29,1.019 -0.31,1.145 0,0.126 -0.1,0.282 -0.1,0.344 0,0.06 -0.1,0.733 -0.1,1.489 0,0.756 -0.11,1.493 -0.21,1.637 -0.1,0.145 -0.16,0.507 -0.15,0.802 0,0.296 0,1.157 -0.13,1.913 -0.1,0.756 -0.16,1.633 -0.19,1.947 0,0.316 -0.12,0.697 -0.22,0.846 -0.1,0.148 -0.19,0.742 -0.22,1.317 0,0.575 -0.13,1.044 -0.23,1.044 -0.11,0 -0.14,0.09 -0.1,0.204 0.1,0.11 0,0.807 -0.13,1.544 -0.14,0.74 -0.26,2.041 -0.27,2.891 0,0.85 -0.11,1.547 -0.22,1.547 -0.11,0 -0.14,0.192 -0.1,0.428 0.1,0.236 0,0.699 -0.1,1.029 -0.28,0.762 -0.1,1.305 0.41,1.129 0.21,-0.07 0.92,-0.532 1.58,-1.017 z"
                 id="path1065" />
            <path
                 style="fill:#032e4d;stroke-width:0.22908"
                 d="m 138.48,123.31 c 0,0 -2.3,-0.11 -4.99,-0.14 -2.7,0 -5.01,-0.12 -5.15,-0.2 -0.13,-0.1 -0.31,0 -0.39,0.1 -0.11,0.17 -0.24,0.17 -0.45,0 -0.18,-0.14 -0.67,-0.19 -1.18,-0.1 -0.87,0.14 -1.8,0.19 -2.72,0.13 -0.25,0 -0.66,0 -0.92,0 -0.59,0 -3.73,-0.2 -5.49,-0.37 -1.47,-0.15 -2.67,-0.15 -2.82,0 -0.1,0 -0.62,-0.1 -1.27,-0.32 -0.77,-0.26 -2.02,-0.42 -3.59,-0.45 -8.3,-0.18 -13.01,-0.39 -14.032,-0.61 -0.73,-0.16 -1.085,-0.7 -1.085,-1.66 0,-0.58 0.1,-0.7 0.689,-0.78 0.378,-0.1 0.729,-0.1 0.777,0 0.05,0 0.95,0.14 2.004,0.2 1.052,0.1 2.277,0.15 2.717,0.21 0.44,0 1.42,0.14 2.17,0.21 0.76,0.1 1.71,0.17 2.1,0.24 0.41,0.1 0.78,0 0.85,-0.1 0.12,-0.2 0.71,-0.19 3.35,0.1 0.95,0.1 1.98,0.14 2.29,0.12 0.69,-0.1 0.23,-0.1 4.81,0.11 5.99,0.24 6.74,0.24 7.05,0 0.16,-0.12 0.29,-0.12 0.29,0 0,0.22 2.82,0.33 11.34,0.4 3.27,0 6.24,0.13 6.6,0.22 0.4,0.1 0.78,0.1 0.98,-0.1 0.17,-0.14 0.32,-0.17 0.32,-0.1 0,0.11 0.28,0.2 0.63,0.22 3.53,0.12 4.56,0.19 4.75,0.3 0.41,0.22 1.83,0.19 1.98,0 0.1,-0.13 0.33,-0.15 0.58,0 0.57,0.24 1.01,0.26 1.61,0.1 0.27,-0.1 0.81,-0.1 1.18,0 0.38,0.11 0.75,0.13 0.84,0 0.1,-0.1 0.27,-0.16 0.41,-0.17 0.15,0 0.46,0 0.69,-0.1 0.23,0 0.36,-0.12 0.3,-0.22 -0.1,-0.1 0.34,-0.62 0.9,-1.15 0.56,-0.52 1.02,-1.06 1.02,-1.18 0,-0.13 0.15,-0.23 0.34,-0.23 0.19,0 0.35,-0.1 0.35,-0.22 0,-0.13 0.36,-0.6 0.8,-1.06 0.44,-0.45 0.8,-0.87 0.8,-0.92 0,-0.1 1.26,-1.37 2.81,-2.92 1.54,-1.55 3.06,-3.2 3.37,-3.66 0.34,-0.5 0.71,-0.79 0.89,-0.72 0.2,0.1 0.27,0 0.18,-0.22 -0.1,-0.21 0.1,-0.39 0.32,-0.48 0.25,-0.1 0.45,-0.23 0.45,-0.35 0,-0.25 0.84,-1.13 1.09,-1.14 0.27,0 1.59,-1.28 1.87,-1.8 0.15,-0.27 0.41,-0.48 0.59,-0.48 0.19,0 0.59,-0.41 0.9,-0.9 0.31,-0.5 0.78,-0.97 1.04,-1.05 0.25,-0.1 0.46,-0.27 0.46,-0.42 0,-0.15 0.19,-0.39 0.42,-0.53 0.52,-0.33 1,-1.878 1.1,-3.518 0,-0.694 0.13,-1.519 0.21,-1.833 0.17,-0.657 0.39,-3.22 0.42,-4.982 0,-0.662 0.11,-1.203 0.21,-1.203 0.11,0 0.13,-0.1 0.1,-0.217 -0.1,-0.12 0,-0.919 0.11,-1.776 0.14,-0.857 0.3,-2.121 0.36,-2.811 0,-0.687 0.16,-1.461 0.24,-1.718 0.26,-0.804 0.32,-1.514 0.43,-5.161 0.1,-3.198 0.47,-6.167 0.88,-6.822 0.1,-0.133 0.21,-1.049 0.28,-2.036 0.1,-0.988 0.18,-2.103 0.24,-2.481 0.1,-0.378 0.14,-1.203 0.2,-1.833 0.1,-0.63 0.16,-1.404 0.24,-1.718 0.1,-0.316 0.25,-1.219 0.38,-2.009 l 0.23,-1.436 0.44,0.504 c 0.24,0.279 0.51,0.769 0.6,1.092 0.21,0.763 0.2,4.525 0,6.431 -0.1,0.817 -0.22,2.054 -0.29,2.749 -0.2,2.002 -0.38,3.307 -0.48,3.479 0,0.08 -0.14,0.752 -0.21,1.478 -0.1,0.728 -0.2,1.379 -0.3,1.448 -0.11,0.07 -0.2,0.277 -0.2,0.467 -0.1,1.171 -0.26,2.742 -0.4,2.98 -0.16,0.248 -0.4,3.349 -0.4,5.152 0,0.378 -0.1,0.745 -0.2,0.816 -0.11,0.07 -0.23,0.765 -0.26,1.544 0,0.781 -0.12,1.418 -0.2,1.42 -0.1,0 -0.13,1.056 -0.13,2.348 0,1.292 -0.1,2.914 -0.17,3.608 -0.3,2.176 -0.36,2.82 -0.39,4.401 0,1.467 -0.1,1.587 -0.98,2.547 -0.52,0.56 -1.4,1.56 -1.97,2.22 -0.57,0.66 -1.2,1.39 -1.4,1.63 -0.21,0.23 -0.49,0.43 -0.63,0.43 -0.14,0 -0.26,0.1 -0.26,0.22 0,0.13 -0.77,1.01 -1.72,1.96 -0.94,0.95 -1.72,1.83 -1.72,1.95 0,0.13 -0.26,0.35 -0.57,0.49 -0.32,0.14 -0.57,0.34 -0.57,0.43 0,0.1 -0.3,0.49 -0.67,0.88 -0.36,0.39 -0.62,0.71 -0.56,0.71 0.1,0 -0.28,0.42 -0.76,0.94 -0.48,0.51 -1.16,1.24 -1.51,1.61 -0.34,0.37 -0.63,0.74 -0.63,0.81 0,0.2 -0.94,0.99 -1.18,0.99 -0.1,0 -0.19,0.11 -0.19,0.23 0,0.13 -0.82,1.05 -1.83,2.05 -1.01,1 -1.84,1.89 -1.84,1.96 0,0.25 -0.63,0.8 -0.91,0.8 -0.14,0 -0.2,0.1 -0.13,0.2 0.19,0.32 -1.03,0.71 -2.16,0.68 -0.57,0 -1.29,0 -1.61,0 -0.31,0 -1.32,0 -2.23,-0.1 -0.91,-0.1 -1.66,0 -1.66,0.1 0,0.16 -10.96,0.22 -11.12,0 z m 28.91,-21.95 c -0.2,-0.2 -16.31,-0.61 -19.62,-0.5 -2.78,0.1 -15.6,0 -18.59,-0.14 -1.96,-0.1 -4.57,-0.18 -5.79,-0.2 -1.84,0 -2.2,-0.1 -2.14,-0.37 0,-0.286 0.57,-0.353 2.93,-0.375 1.57,-0.02 2.96,-0.05 3.09,-0.09 0.12,-0.03 0.33,-0.04 0.45,0 0.25,0.05 0.34,0.05 11.63,-0.08 4.13,-0.05 7.5,-0.02 7.5,0.06 0,0.181 2.35,0.165 2.65,-0.02 0.12,-0.08 0.58,-0.101 1.02,-0.06 0.94,0.09 4.21,0.115 5.84,0.04 0.63,-0.03 1.64,0 2.24,0.08 0.61,0.07 1.15,0.06 1.21,-0.04 0.1,-0.1 1.32,-0.126 2.8,-0.06 1.47,0.06 3.74,0.126 5.03,0.14 1.29,0.02 2.35,0.117 2.35,0.231 0,0.124 0.29,0.154 0.66,0.06 0.8,-0.228 1.91,0.1 1.8,0.41 -0.14,0.41 -1.73,0.83 -3.41,0.9 -0.88,0 -1.63,0 -1.65,0 z m -44.04,-4.685 c -0.26,-0.417 -0.29,-1.166 -0.1,-1.732 0.22,-0.593 0.41,-2.293 0.55,-5.106 0,-0.818 0.1,-1.654 0.1,-1.853 0,-0.202 0.53,-0.642 1.15,-0.978 0.62,-0.339 1.16,-0.701 1.2,-0.804 0.1,-0.181 1.21,-0.979 2.8,-1.964 2.36,-1.463 6.01,-4.231 7.5,-5.683 0.36,-0.346 0.7,-0.63 0.78,-0.63 0.1,0 0.52,-0.387 1,-0.859 0.48,-0.472 1.26,-1.168 1.73,-1.546 1.03,-0.821 1.74,-1.393 2.13,-1.723 0.16,-0.133 0.29,-0.172 0.29,-0.08 0,0.08 0.24,-0.09 0.54,-0.392 0.3,-0.302 0.82,-0.756 1.15,-1.008 0.34,-0.252 0.87,-0.689 1.17,-0.973 0.31,-0.284 0.66,-0.516 0.79,-0.516 0.14,0 0.24,-0.08 0.24,-0.183 0,-0.101 0.41,-0.435 0.91,-0.744 0.5,-0.31 0.92,-0.639 0.92,-0.733 0,-0.09 0.16,-0.172 0.35,-0.172 0.19,0 0.34,-0.103 0.34,-0.229 0,-0.126 0.14,-0.229 0.31,-0.229 0.17,0 0.57,-0.284 0.88,-0.63 0.7,-0.752 1.56,-1.478 1.56,-1.304 0,0.07 0.23,-0.112 0.52,-0.403 0.53,-0.541 1.9,-1.558 2.1,-1.558 0.1,0 0.39,-0.259 0.73,-0.575 0.34,-0.316 0.67,-0.524 0.73,-0.462 0.1,0.06 0.52,-0.25 1.01,-0.692 0.49,-0.445 0.97,-0.752 1.08,-0.685 0.11,0.07 0.37,-0.145 0.58,-0.468 0.26,-0.396 0.47,-0.517 0.66,-0.373 0.15,0.117 0.6,0.186 1.01,0.154 0.41,-0.03 0.75,0.05 0.75,0.174 0,0.155 0.1,0.153 0.29,0 0.26,-0.216 4.42,-0.186 8.87,0.07 0.69,0.04 1.98,0.101 2.86,0.135 0.88,0.04 1.67,0.17 1.76,0.296 0.1,0.149 0.28,0.13 0.5,-0.05 0.29,-0.236 0.39,-0.206 0.59,0.174 0.21,0.389 0.14,1.929 -0.11,2.33 0,0.07 0,0.508 0.12,0.975 0.1,0.466 0.11,0.898 0,0.96 -0.1,0.06 -0.16,0.55 -0.13,1.086 0,0.536 0,1.084 -0.12,1.214 -0.11,0.131 -0.2,1.059 -0.23,2.062 0,1.003 -0.12,2.133 -0.23,2.511 -0.1,0.378 -0.23,1.099 -0.28,1.603 -0.1,0.504 -0.17,1.091 -0.26,1.306 -0.1,0.215 -0.1,0.495 0,0.625 0.1,0.129 0,0.438 -0.1,0.685 -0.13,0.248 -0.3,1.153 -0.37,2.009 -0.13,1.647 -0.26,2.706 -0.33,2.706 0,0 -0.1,0.808 -0.12,1.796 -0.1,0.987 -0.2,2.16 -0.35,2.602 -0.15,0.445 -0.31,1.954 -0.36,3.358 -0.1,1.405 -0.14,3.017 -0.2,3.583 -0.1,0.566 -0.11,1.361 -0.12,1.767 0,0.405 -0.11,0.801 -0.24,0.881 -0.25,0.149 -11.84,0.372 -14.89,0.285 -0.58,-0.02 -1.15,0.03 -1.27,0.107 -0.13,0.08 -0.63,0.05 -1.12,-0.06 -0.49,-0.11 -0.97,-0.151 -1.07,-0.09 -0.1,0.06 -1.29,0.1 -2.65,0.08 -1.35,-0.02 -2.72,-0.03 -3.04,-0.04 -0.31,0 -4.33,0.02 -8.93,0.05 -4.6,0.03 -8.59,-0.02 -8.87,-0.104 -0.29,-0.09 -0.63,-0.1 -0.77,-0.02 -0.37,0.231 -6.16,0.295 -6.3,0.07 z"
                 id="path1063" />
        </g>
        <g
             id="g1207">
            <path
                 style="fill:#96a7af;stroke-width:0.269624"
                 d="m 460.3,132.31 c -1.68,-0.65 -2.31,-1.02 -2.37,-1.41 -0.13,-0.8 -12.61,-5.33 -13.63,-4.95 -0.98,0.38 -5.39,-1.22 -5.53,-2.01 -0.1,-0.29 -0.27,-0.63 -0.48,-0.74 -0.31,-0.19 -0.37,-5.52 -0.37,-34.419 0,-32.322 0,-34.211 0.47,-34.385 0.26,-0.101 7.57,-2.774 16.25,-5.939 l 15.78,-5.754 12.8,4.662 12.8,4.662 0.1,34.285 c 0.1,32.468 0,34.288 -0.4,34.458 -0.26,0.1 -0.6,0.34 -0.74,0.53 -0.37,0.46 -4.67,2.05 -5.67,2.08 -1.06,0 -20.89,7.23 -20.89,7.58 0,0.22 -5.37,2.36 -5.7,2.27 -0.1,0 -1.13,-0.43 -2.39,-0.92 z m -15.91,-36.239 c 0,-1.24 -0.1,-1.339 -0.85,-1.618 -0.47,-0.164 -0.89,-0.295 -0.94,-0.295 -0.1,0 -0.1,0.586 -0.1,1.306 0,1.09 0.1,1.357 0.61,1.6 1.11,0.536 1.28,0.406 1.28,-0.993 z m 0,-7.85 c 0,-1.208 -0.1,-1.386 -0.69,-1.618 -1.1,-0.421 -1.2,-0.338 -1.2,1.033 0,1.161 0.1,1.325 0.74,1.588 1.14,0.448 1.15,0.438 1.15,-1.003 z m 0,-15.86 c 0,-1.138 -0.1,-1.346 -0.69,-1.618 -1.08,-0.493 -1.2,-0.396 -1.2,1.014 0,1.2 0.1,1.351 0.74,1.596 1.14,0.413 1.15,0.402 1.15,-0.992 z"
                 id="path961" />
            <path
                 style="fill:#6a9aaf;stroke-width:0.269624"
                 d="m 460.3,132.18 c -1.51,-0.56 -2.05,-0.89 -2.11,-1.3 -0.1,-0.51 0.1,-0.49 2.36,0.37 1.35,0.51 2.57,0.93 2.72,0.93 0.17,0 0.26,-11.79 0.26,-34.18 v -34.175 l 15.94,-5.797 c 8.77,-3.189 16.05,-5.838 16.18,-5.887 0.13,-0.05 0.24,14.406 0.24,34.041 0,34.058 0,34.128 -0.56,34.678 -0.66,0.67 -5.13,2.42 -6.14,2.41 -0.91,0 -20.19,6.97 -20.71,7.5 -0.47,0.47 -5.02,2.22 -5.69,2.19 -0.26,0 -1.38,-0.36 -2.49,-0.78 z m -19.35,-7.06 c -1.69,-0.62 -2.22,-0.93 -2.22,-1.32 0,-0.54 -0.29,-0.62 4.8,1.29 0.8,0.29 1.05,0.5 0.81,0.65 -0.55,0.35 -1,0.27 -3.39,-0.62 z m 9.64,-7.81 c -5.26,-1.93 -9.66,-3.6 -9.78,-3.71 -0.12,-0.12 -0.18,-1.49 -0.14,-3.05 l 0.1,-2.83 10.11,3.67 10.11,3.67 0.1,2.9 c 0.1,2.63 0,2.89 -0.41,2.87 -0.26,0 -4.78,-1.59 -10.05,-3.52 z m 2.97,-6.85 c -3.78,-1.39 -8.24,-3.04 -9.91,-3.65 l -3.03,-1.12 v -2.96 c 0,-2.26 0.1,-2.94 0.33,-2.853 0.19,0.06 4.8,1.733 10.25,3.713 l 9.91,3.61 v 2.91 c 0,2.17 -0.1,2.91 -0.34,2.9 -0.19,0 -3.43,-1.16 -7.21,-2.55 z m -2.9,-9 -10.04,-3.662 v -3.026 -3.023 l 1.41,0.536 c 0.78,0.297 5.36,1.978 10.18,3.735 l 8.76,3.195 0.1,2.775 c 0,1.52 0,2.85 -0.13,2.95 -0.12,0.1 -4.73,-1.46 -10.26,-3.48 z m -6.27,-5.294 c 0,-1.454 0,-1.507 -0.93,-1.887 -0.52,-0.216 -1,-0.392 -1.08,-0.392 -0.1,0 -0.15,0.667 -0.15,1.484 0,1.412 0,1.499 0.88,1.865 1.28,0.558 1.28,0.558 1.28,-1.07 z m 6.2,-2.676 -9.84,-3.593 -0.1,-3.025 c -0.1,-2.375 0,-2.998 0.27,-2.893 0.19,0.07 4.81,1.753 10.26,3.732 l 9.91,3.599 v 2.906 c 0,2.154 -0.1,2.902 -0.34,2.89 -0.19,0 -4.77,-1.636 -10.18,-3.616 z m -6.2,-5.373 c 0,-1.391 0,-1.468 -0.85,-1.751 -1.27,-0.445 -1.31,-0.412 -1.31,1.165 0,1.347 0.1,1.478 0.75,1.729 1.32,0.483 1.41,0.412 1.41,-1.143 z m 6.27,-2.534 -10.04,-3.685 v -2.904 c 0,-1.596 0.1,-2.902 0.23,-2.902 0.19,0 18.01,6.439 19.78,7.148 0.42,0.165 0.48,0.583 0.48,3.128 0,1.616 -0.1,2.928 -0.2,2.92 -0.12,0 -4.73,-1.674 -10.25,-3.705 z m -0.2,-7.991 -9.71,-3.562 -0.1,-3.047 c -0.1,-2.829 0,-3.031 0.41,-2.852 0.26,0.105 4.48,1.647 9.38,3.426 4.89,1.78 9.29,3.4 9.77,3.603 l 0.88,0.366 v 2.845 c 0,2.54 -0.1,2.842 -0.48,2.815 -0.25,-0.03 -4.83,-1.634 -10.17,-3.594 z m -6.07,-5.245 c 0,-1.453 -0.1,-1.601 -0.65,-1.752 -0.36,-0.09 -0.84,-0.237 -1.08,-0.326 -0.36,-0.141 -0.43,0.07 -0.43,1.318 0,1.459 0,1.488 1.01,1.901 0.56,0.232 1.05,0.426 1.08,0.434 0,0 0.1,-0.701 0.1,-1.575 z m 6.27,-2.642 -10.04,-3.668 v -2.926 c 0,-1.61 0.1,-2.926 0.17,-2.926 0.13,0 17.72,6.344 19.98,7.209 0.37,0.142 0.5,6.013 0.14,5.989 -0.12,0 -4.73,-1.661 -10.25,-3.678 z"
                 id="path959" />
            <path
                 style="fill:#6b7a83;stroke-width:0.269624"
                 d="m 460.3,132.18 c -1.22,-0.45 -2.06,-0.93 -2.11,-1.19 -0.12,-0.58 0,-0.57 2.85,0.48 l 2.49,0.91 v -34.216 -34.216 l 0.61,-0.269 c 0.33,-0.147 7.58,-2.805 16.11,-5.905 l 15.5,-5.636 0.1,34.085 c 0.1,34.087 0.1,34.087 -0.48,34.637 -0.67,0.67 -5.13,2.42 -6.15,2.41 -0.94,0 -20.31,6.99 -20.71,7.48 -0.37,0.45 -4.99,2.24 -5.69,2.21 -0.26,0 -1.38,-0.36 -2.49,-0.78 z m -19.35,-7.06 c -1.64,-0.6 -2.22,-0.94 -2.22,-1.3 0,-0.42 0.35,-0.35 2.98,0.61 1.95,0.72 2.86,1.16 2.63,1.31 -0.55,0.35 -1,0.27 -3.39,-0.62 z m 9.51,-7.89 -9.71,-3.57 -0.1,-2.88 c -0.1,-2.2 0,-2.87 0.27,-2.86 0.19,0 4.78,1.63 10.19,3.6 l 9.84,3.59 0.1,2.87 c 0.1,2.61 0,2.87 -0.41,2.84 -0.26,0 -4.84,-1.63 -10.18,-3.59 z m -6.07,-5.25 c 0,-1.45 -0.1,-1.6 -0.65,-1.75 -0.36,-0.1 -0.84,-0.24 -1.08,-0.33 -0.36,-0.14 -0.43,0.1 -0.43,1.35 0,1.44 0,1.53 0.88,1.89 1.28,0.56 1.28,0.57 1.28,-1.16 z m 6.27,-2.64 -10.04,-3.66 v -2.96 c 0,-2.25 0.1,-2.928 0.33,-2.831 0.19,0.07 4.59,1.671 9.78,3.561 5.19,1.89 9.65,3.55 9.9,3.69 0.41,0.21 0.48,0.66 0.48,3.07 0,1.55 -0.1,2.81 -0.2,2.81 -0.12,0 -4.73,-1.66 -10.25,-3.68 z m -6.27,-5.3 c 0,-1.28 -0.1,-1.47 -0.69,-1.75 -1.28,-0.59 -1.47,-0.44 -1.47,1.15 0,1.35 0.1,1.48 0.75,1.73 1.32,0.48 1.41,0.41 1.41,-1.13 z m 6.07,-2.7 -9.71,-3.554 -0.1,-2.892 c 0,-1.592 0,-2.894 0.15,-2.894 0.21,0 17.75,6.325 19.55,7.047 l 0.74,0.298 v 2.795 c 0,2.5 -0.1,2.8 -0.48,2.78 -0.25,0 -4.83,-1.62 -10.17,-3.58 z m -6.07,-5.265 c 0,-1.454 -0.1,-1.602 -0.65,-1.753 -0.36,-0.09 -0.84,-0.237 -1.08,-0.326 -0.36,-0.142 -0.43,0.08 -0.43,1.359 0,1.464 0,1.539 0.88,1.905 0.48,0.21 0.97,0.386 1.08,0.392 0.11,0 0.2,-0.704 0.2,-1.577 z m 10.25,-1.137 c -3.19,-1.181 -7.65,-2.823 -9.91,-3.652 l -4.11,-1.508 v -2.933 c 0,-1.612 0,-2.931 0.1,-2.925 0,0 4.62,1.674 10.18,3.708 l 10.11,3.699 0.1,2.897 c 0.1,2.227 0,2.894 -0.27,2.878 -0.19,0 -2.96,-0.985 -6.14,-2.164 z m -10.25,-6.685 c 0,-1.543 0,-1.602 -0.85,-1.887 -1.27,-0.445 -1.31,-0.412 -1.31,1.157 0,1.426 0,1.462 1.01,1.872 0.56,0.233 1.05,0.427 1.08,0.435 0,0 0.1,-0.704 0.1,-1.577 z m 6.27,-2.702 -10.04,-3.662 v -2.898 c 0,-1.593 0.1,-2.899 0.17,-2.899 0.12,0 17.41,6.237 19.98,7.21 0.38,0.143 0.5,5.614 0.14,5.808 -0.12,0.06 -4.73,-1.543 -10.25,-3.559 z m -6.27,-5.277 c 0,-1.445 0,-1.488 -0.98,-1.887 -0.53,-0.224 -1.02,-0.407 -1.07,-0.407 -0.1,0 -0.11,0.709 -0.11,1.58 0,1.542 0,1.583 0.88,1.858 0.48,0.156 0.97,0.293 1.08,0.31 0.11,0 0.2,-0.639 0.2,-1.454 z m 6.2,-2.69 -9.84,-3.594 -0.1,-2.991 -0.1,-2.99 1.83,0.674 c 1,0.371 5.59,2.047 10.18,3.726 l 8.36,3.055 0.1,2.874 c 0.1,2.209 0,2.875 -0.27,2.861 -0.19,0 -4.78,-1.636 -10.19,-3.615 z m -6.2,-5.239 c 0,-1.542 0,-1.602 -0.85,-1.888 -1.29,-0.453 -1.34,-0.407 -1.25,1.232 0.1,1.586 0.14,1.651 2.03,2.225 0,0 0.1,-0.696 0.1,-1.569 z m 6.27,-2.683 -10.04,-3.662 v -2.936 c 0,-2.235 0.1,-2.908 0.33,-2.816 13.63,4.911 19.55,7.091 19.82,7.296 0.37,0.282 0.5,5.461 0.14,5.664 -0.12,0.06 -4.73,-1.535 -10.25,-3.546 z m -6.32,-5.34 c -0.1,-1.495 -0.1,-1.531 -1.1,-1.873 l -1.01,-0.349 v 1.552 c 0,1.442 0.1,1.572 0.75,1.845 1.36,0.54 1.44,0.471 1.36,-1.175 z"
                 id="path957" />
            <path
                 style="fill:#637279;stroke-width:0.269624"
                 d="m 460.37,132.12 c -1.23,-0.45 -2.23,-0.98 -2.23,-1.17 0,-0.25 0.65,-0.12 2.23,0.47 1.22,0.46 2.49,0.89 2.83,0.96 l 0.6,0.13 0.1,-34.34 0.1,-34.337 15.37,-5.587 c 8.45,-3.073 15.64,-5.711 15.97,-5.863 l 0.61,-0.276 v 34.237 c 0,20.886 -0.1,34.236 -0.25,34.236 -0.14,0 -0.45,0.2 -0.69,0.44 -0.58,0.58 -5.23,2.33 -5.71,2.14 -0.2,-0.1 -2.02,0.47 -4.05,1.21 -2.03,0.75 -3.86,1.29 -4.06,1.21 -0.2,-0.1 -0.31,0 -0.23,0.1 0.1,0.13 -2.65,1.24 -6.06,2.47 -3.41,1.23 -6.29,2.39 -6.4,2.58 -0.17,0.31 -5.17,2.29 -5.66,2.25 -0.1,0 -1.19,-0.39 -2.41,-0.85 z m -19.42,-7.04 c -1.22,-0.46 -2.22,-0.98 -2.22,-1.16 0,-0.24 0.23,-0.25 0.93,0 0.52,0.16 0.87,0.39 0.8,0.51 -0.1,0.13 0,0.17 0.21,0.1 0.41,-0.15 3,0.78 2.77,1 -0.1,0.1 0.19,0.1 0.6,0 0.59,-0.1 0.67,-0.1 0.35,0.17 -0.57,0.4 -0.93,0.34 -3.44,-0.6 z m 12.88,-6.83 c -3.78,-1.38 -8.24,-3.02 -9.91,-3.63 l -3.03,-1.11 v -2.76 -2.76 l 9.87,3.59 c 5.43,1.97 9.93,3.64 9.99,3.7 0.1,0.1 0.1,1.32 0,2.8 l -0.1,2.69 z m 4.22,-0.7 c -0.1,-0.19 -0.13,0 -0.13,0.33 0,0.37 0.1,0.53 0.13,0.34 0.1,-0.18 0.1,-0.49 0,-0.67 z m -1.34,-0.4 c -0.1,-0.26 -0.13,-0.12 -0.13,0.33 0,0.44 0.1,0.66 0.12,0.48 0.1,-0.19 0.1,-0.55 0,-0.81 z m -0.77,-0.75 c 0.34,0.13 0.37,0.1 0.14,-0.15 -0.44,-0.43 -0.91,-0.1 -0.87,0.64 0,0.57 0,0.57 0.16,0 0.1,-0.45 0.24,-0.58 0.57,-0.45 z m 2.11,-0.74 c -0.1,-0.19 -0.13,0 -0.13,0.34 0,0.37 0.1,0.52 0.13,0.33 0.1,-0.18 0.1,-0.48 0,-0.67 z m -5.66,-0.27 c -0.1,-0.19 -0.14,0 -0.14,0.34 0,0.37 0.1,0.52 0.14,0.33 0.1,-0.18 0.1,-0.48 0,-0.67 z m 4.32,-0.13 c -0.1,-0.26 -0.13,-0.11 -0.13,0.33 0,0.45 0.1,0.66 0.12,0.48 0.1,-0.18 0.1,-0.55 0,-0.81 z m -5.66,-0.12 c -0.1,-0.22 -0.15,-0.15 -0.17,0.16 0,0.28 0.1,0.44 0.14,0.35 0.1,-0.1 0.1,-0.32 0,-0.51 z m 4.3,-0.29 c -0.1,-0.19 -0.13,0 -0.13,0.34 0,0.37 0.1,0.52 0.13,0.33 0.1,-0.18 0.1,-0.48 0,-0.67 z m -1.79,0.5 c 0,-0.1 -0.19,-0.18 -0.42,-0.26 -0.24,-0.1 -0.35,0 -0.25,0.1 0.15,0.26 0.67,0.38 0.67,0.16 z m -1.17,-1.4 c 0,-0.67 0,-0.69 -0.1,-0.11 -0.1,0.37 -0.27,0.77 -0.44,0.9 -0.21,0.15 -0.18,0.18 0.1,0.11 0.23,-0.1 0.42,-0.45 0.45,-0.9 z m -7.73,-1.88 c 0,-1.45 0,-1.5 -0.93,-1.88 -1.42,-0.59 -1.5,-0.53 -1.5,1.18 0,1.55 0,1.59 0.88,1.86 1.51,0.49 1.55,0.46 1.55,-1.16 z m 6,-2.9 -9.77,-3.55 v -2.79 c 0,-2.52 0,-2.76 0.47,-2.62 0.26,0.1 4.72,1.7 9.91,3.6 l 9.43,3.44 0.1,2.75 c 0,1.52 0,2.76 -0.14,2.75 -0.11,0 -4.6,-1.62 -9.98,-3.58 z m 7.39,0.56 c -0.1,-0.19 -0.13,0 -0.13,0.33 0,0.37 0.1,0.53 0.13,0.34 0.1,-0.18 0.1,-0.49 0,-0.67 z m -1.35,-0.54 c -0.1,-0.19 -0.13,0 -0.13,0.34 0,0.36 0.1,0.52 0.13,0.33 0.1,-0.18 0.1,-0.49 0,-0.67 z m -1.35,-0.54 c -0.1,-0.19 -0.13,0 -0.13,0.34 0,0.37 0.1,0.52 0.13,0.33 0.1,-0.18 0.1,-0.49 0,-0.67 z m 2.7,-0.81 c -0.1,-0.19 -0.13,0 -0.13,0.34 0,0.37 0.1,0.52 0.13,0.34 0.1,-0.19 0.1,-0.49 0,-0.68 z m -5.66,-0.27 c -0.1,-0.19 -0.14,0 -0.14,0.34 0,0.37 0.1,0.52 0.14,0.33 0.1,-0.18 0.1,-0.48 0,-0.67 z m 4.31,-0.27 c -0.1,-0.18 -0.13,0 -0.13,0.34 0,0.37 0.1,0.52 0.13,0.34 0.1,-0.19 0.1,-0.49 0,-0.68 z m -5.65,0 c -0.1,-0.22 -0.15,-0.15 -0.17,0.16 0,0.29 0.1,0.44 0.14,0.36 0.1,-0.1 0.1,-0.33 0,-0.52 z m 4.3,-0.56 c -0.1,-0.18 -0.13,0 -0.13,0.34 0,0.37 0.1,0.52 0.13,0.34 0.1,-0.19 0.1,-0.49 0,-0.68 z m -2.96,-1.08 c -0.1,-0.18 -0.14,0 -0.14,0.34 0,0.37 0.1,0.52 0.14,0.34 0.1,-0.19 0.1,-0.49 0,-0.68 z m -1.35,-0.26 c -0.1,-0.19 -0.14,0 -0.14,0.33 0,0.37 0.1,0.52 0.14,0.34 0.1,-0.19 0.1,-0.49 0,-0.67 z m -6.38,-1.26 c 0,-1.49 -0.1,-1.61 -0.74,-1.86 -0.41,-0.15 -0.96,-0.35 -1.23,-0.46 -0.44,-0.18 -0.48,0 -0.4,1.5 0.1,1.66 0.1,1.7 1.02,2.03 0.52,0.19 1.04,0.35 1.15,0.36 0.11,0 0.2,-0.69 0.2,-1.57 z m 6.2,-2.85 -9.84,-3.593 -0.1,-2.833 -0.1,-2.837 3.04,1.148 c 1.67,0.631 6.17,2.273 9.98,3.654 l 6.95,2.504 v 2.797 c 0,1.54 0,2.78 -0.1,2.78 0,0 -4.5,-1.64 -9.91,-3.62 z m 7.19,0.33 c -0.1,-0.19 -0.13,0 -0.13,0.34 0,0.37 0.1,0.52 0.13,0.33 0.1,-0.18 0.1,-0.48 0,-0.67 z m -1.35,-0.54 c -0.1,-0.19 -0.13,0 -0.13,0.34 0,0.37 0.1,0.52 0.13,0.34 0.1,-0.19 0.1,-0.49 0,-0.68 z m -1.34,-0.25 c -0.1,-0.22 -0.15,-0.15 -0.16,0.16 0,0.28 0.1,0.44 0.14,0.35 0.1,-0.1 0.1,-0.32 0,-0.51 z m 2.69,-1.097 c -0.1,-0.186 -0.13,-0.04 -0.13,0.337 0,0.37 0.1,0.52 0.13,0.34 0.1,-0.19 0.1,-0.491 0,-0.677 z m -5.66,-0.271 c -0.1,-0.186 -0.14,-0.03 -0.14,0.338 0,0.37 0.1,0.52 0.14,0.34 0.1,-0.188 0.1,-0.492 0,-0.678 z m 4.32,-0.129 c -0.1,-0.261 -0.13,-0.113 -0.13,0.332 0,0.445 0.1,0.665 0.12,0.475 0.1,-0.18 0.1,-0.544 0,-0.807 z m -1.35,-0.123 c -0.1,-0.217 -0.15,-0.152 -0.16,0.163 0,0.283 0.1,0.443 0.14,0.354 0.1,-0.09 0.1,-0.323 0,-0.517 z m -1.8,0.216 c 0,-0.06 -0.19,-0.178 -0.42,-0.267 -0.24,-0.09 -0.35,-0.05 -0.25,0.105 0.15,0.255 0.67,0.38 0.67,0.162 z m -1.16,-1.711 c -0.1,-0.261 -0.13,-0.113 -0.14,0.332 0,0.445 0.1,0.661 0.13,0.477 0.1,-0.182 0.1,-0.546 0,-0.809 z m -1.35,-0.123 c -0.1,-0.217 -0.15,-0.152 -0.17,0.164 0,0.283 0.1,0.442 0.14,0.353 0.1,-0.09 0.1,-0.323 0,-0.517 z m -6.39,-1.446 c 0,-1.452 0,-1.507 -0.93,-1.887 -1.42,-0.59 -1.5,-0.532 -1.5,1.205 0,1.495 0,1.612 0.75,1.867 1.53,0.558 1.68,0.449 1.68,-1.185 z m 5.86,-2.9 -9.63,-3.527 v -2.772 -2.769 l 2.22,0.79 c 1.22,0.437 5.68,2.056 9.91,3.597 l 7.68,2.806 0.1,2.732 c 0.1,2.097 0,2.722 -0.27,2.702 -0.19,-0.03 -4.68,-1.618 -9.99,-3.559 z m 7.53,0.285 c -0.1,-0.186 -0.13,-0.03 -0.13,0.338 0,0.368 0.1,0.522 0.13,0.336 0.1,-0.186 0.1,-0.488 0,-0.674 z m -1.35,-0.269 c -0.1,-0.186 -0.13,-0.04 -0.13,0.336 0,0.37 0.1,0.524 0.13,0.338 0.1,-0.186 0.1,-0.488 0,-0.674 z m -1.35,-0.54 c -0.1,-0.186 -0.13,-0.03 -0.13,0.338 0,0.368 0.1,0.522 0.13,0.336 0.1,-0.186 0.1,-0.488 0,-0.674 z m 2.7,-0.809 c -0.1,-0.186 -0.13,-0.03 -0.13,0.338 0,0.368 0.1,0.522 0.13,0.336 0.1,-0.186 0.1,-0.488 0,-0.674 z m -5.66,-0.269 c -0.1,-0.186 -0.14,-0.04 -0.14,0.336 0,0.37 0.1,0.524 0.14,0.338 0.1,-0.186 0.1,-0.487 0,-0.674 z m 4.31,-0.271 c -0.1,-0.186 -0.13,-0.03 -0.13,0.338 0,0.37 0.1,0.524 0.13,0.338 0.1,-0.186 0.1,-0.489 0,-0.676 z m -5.65,0.03 c -0.1,-0.217 -0.15,-0.152 -0.17,0.164 0,0.283 0.1,0.442 0.14,0.353 0.1,-0.09 0.1,-0.323 0,-0.517 z m 4.31,-0.417 c -0.1,-0.261 -0.12,-0.113 -0.13,0.332 0,0.445 0,0.661 0.12,0.477 0.1,-0.182 0.1,-0.546 0,-0.809 z m -2.97,-1.217 c -0.1,-0.186 -0.14,-0.04 -0.14,0.336 0,0.37 0.1,0.523 0.14,0.337 0.1,-0.186 0.1,-0.487 0,-0.673 z m -1.35,-0.271 c -0.1,-0.186 -0.14,-0.03 -0.14,0.338 0,0.37 0.1,0.523 0.14,0.337 0.1,-0.186 0.1,-0.489 0,-0.675 z m -6.38,-1.256 v -1.589 l -1.21,-0.417 -1.22,-0.412 v 1.601 c 0,1.547 0,1.612 0.88,1.984 1.46,0.639 1.55,0.574 1.55,-1.167 z m 6.2,-2.812 -9.84,-3.58 -0.1,-2.748 c 0,-1.51 0,-2.747 0.11,-2.747 0.1,0 4.59,1.607 9.98,3.57 l 9.81,3.569 v 2.766 c 0,1.521 0,2.765 -0.1,2.759 0,0 -4.5,-1.62 -9.91,-3.589 z m 7.19,0.294 c -0.1,-0.186 -0.13,-0.03 -0.13,0.338 0,0.368 0.1,0.522 0.13,0.336 0.1,-0.186 0.1,-0.487 0,-0.674 z m -1.34,-0.399 c -0.1,-0.261 -0.13,-0.113 -0.13,0.332 0,0.446 0.1,0.66 0.12,0.478 0.1,-0.184 0.1,-0.548 0,-0.81 z m -1.94,0.466 c -0.1,-0.148 -0.31,-0.266 -0.49,-0.264 -0.19,0 -0.16,0.108 0.1,0.264 0.51,0.336 0.61,0.336 0.4,0 z m 0.58,-0.876 c -0.1,-0.186 -0.13,-0.03 -0.13,0.337 0,0.37 0.1,0.523 0.13,0.337 0.1,-0.186 0.1,-0.488 0,-0.674 z m 2.69,-0.628 v -0.787 l -0.12,0.763 c -0.1,0.536 -0.25,0.717 -0.53,0.609 -0.23,-0.09 -0.32,-0.04 -0.22,0.127 0.31,0.507 0.8,0.09 0.83,-0.712 z m -5.65,-0.72 c -0.1,-0.186 -0.14,-0.03 -0.14,0.337 0,0.37 0.1,0.523 0.14,0.337 0.1,-0.186 0.1,-0.488 0,-0.674 z m 4.31,0 c -0.1,-0.186 -0.13,-0.03 -0.13,0.337 0,0.37 0.1,0.523 0.13,0.337 0.1,-0.186 0.1,-0.488 0,-0.674 z m -5.66,-0.269 c -0.1,-0.186 -0.14,-0.04 -0.14,0.337 0,0.369 0.1,0.523 0.14,0.337 0.1,-0.186 0.1,-0.488 0,-0.674 z m 4.31,-0.27 c -0.1,-0.186 -0.13,-0.03 -0.13,0.337 0,0.369 0.1,0.523 0.13,0.337 0.1,-0.186 0.1,-0.488 0,-0.674 z m -2.96,-1.079 c -0.1,-0.186 -0.14,-0.03 -0.14,0.338 0,0.369 0.1,0.522 0.14,0.336 0.1,-0.186 0.1,-0.488 0,-0.674 z m -1.34,-0.253 c -0.1,-0.216 -0.15,-0.151 -0.17,0.164 0,0.284 0.1,0.443 0.14,0.354 0.1,-0.09 0.1,-0.324 0,-0.518 z m -6.39,-1.437 c 0,-1.583 0,-1.561 -1.82,-2.133 -0.58,-0.183 -0.61,-0.127 -0.61,1.424 0,1.515 0,1.628 0.75,1.884 1.52,0.558 1.68,0.448 1.68,-1.175 z m 15.64,0.696 c -0.22,-0.119 -4.68,-1.764 -9.91,-3.657 l -9.5,-3.44 v -2.793 -2.795 l 1.68,0.633 c 0.93,0.347 5.27,1.932 9.65,3.521 4.38,1.588 8.12,2.982 8.31,3.095 0.23,0.145 0.3,0.984 0.25,2.928 -0.1,2.324 -0.14,2.694 -0.48,2.508 z m -2.25,-3.05 c -0.1,-0.186 -0.13,-0.03 -0.13,0.337 0,0.369 0.1,0.523 0.13,0.337 0.1,-0.186 0.1,-0.488 0,-0.674 z m -1.35,-0.539 c -0.1,-0.186 -0.13,-0.03 -0.13,0.337 0,0.369 0.1,0.523 0.13,0.337 0.1,-0.186 0.1,-0.488 0,-0.674 z m -0.89,-0.831 c 0.21,-0.145 0.17,-0.186 -0.1,-0.113 -0.22,0.06 -0.42,0.405 -0.45,0.763 0,0.515 0,0.539 0.1,0.113 0.1,-0.296 0.28,-0.639 0.45,-0.763 z m 2.24,-0.517 c -0.1,-0.186 -0.13,-0.03 -0.13,0.337 0,0.369 0.1,0.523 0.13,0.337 0.1,-0.186 0.1,-0.488 0,-0.674 z m -5.66,-0.27 c -0.1,-0.186 -0.14,-0.03 -0.14,0.337 0,0.37 0.1,0.523 0.14,0.337 0.1,-0.186 0.1,-0.488 0,-0.674 z m -1.35,-0.27 c -0.1,-0.186 -0.14,-0.04 -0.14,0.337 0,0.37 0.1,0.523 0.14,0.337 0.1,-0.186 0.1,-0.488 0,-0.674 z m 3.73,0.607 c -0.1,-0.148 -0.31,-0.267 -0.49,-0.264 -0.19,0 -0.16,0.108 0.1,0.264 0.51,0.334 0.61,0.334 0.4,0 z m 1.93,-0.607 c -0.1,-0.186 -0.13,-0.04 -0.13,0.337 0,0.37 0.1,0.523 0.13,0.337 0.1,-0.186 0.1,-0.488 0,-0.674 z m -1.35,-0.269 c -0.1,-0.186 -0.13,-0.03 -0.13,0.337 0,0.369 0.1,0.523 0.13,0.337 0.1,-0.186 0.1,-0.488 0,-0.674 z m -3.54,-0.202 c -0.1,-0.149 -0.32,-0.267 -0.49,-0.265 -0.2,0 -0.16,0.108 0.1,0.265 0.52,0.334 0.61,0.334 0.41,0 z m 0.58,-1.146 c -0.1,-0.186 -0.14,-0.03 -0.14,0.337 0,0.369 0.1,0.523 0.14,0.337 0.1,-0.186 0.1,-0.488 0,-0.674 z m -1.34,-0.254 c -0.1,-0.216 -0.15,-0.151 -0.17,0.165 0,0.283 0.1,0.442 0.14,0.353 0.1,-0.09 0.1,-0.324 0,-0.518 z m -6.39,-1.167 c 0,-1.321 -0.1,-1.524 -0.67,-1.793 -0.36,-0.167 -0.62,-0.375 -0.56,-0.467 0.1,-0.09 -0.19,-0.162 -0.55,-0.162 -0.61,0 -0.65,0.09 -0.65,1.648 0,1.618 0,1.65 0.88,1.925 1.51,0.485 1.55,0.453 1.55,-1.151 z m 6.07,-2.92 -9.71,-3.56 -0.1,-2.789 c -0.1,-2.182 0,-2.763 0.27,-2.666 0.19,0.07 4.68,1.69 9.98,3.605 l 9.64,3.482 v 2.764 c 0,1.52 -0.1,2.755 -0.2,2.742 -0.11,0 -4.57,-1.621 -9.91,-3.578 z m 7.32,0.296 c -0.1,-0.186 -0.13,-0.03 -0.13,0.337 0,0.37 0.1,0.523 0.13,0.337 0.1,-0.186 0.1,-0.488 0,-0.674 z m -1.34,-0.399 c -0.1,-0.262 -0.13,-0.113 -0.13,0.332 0,0.445 0.1,0.661 0.12,0.477 0.1,-0.183 0.1,-0.547 0,-0.809 z m -1.36,-0.41 c -0.1,-0.185 -0.13,-0.03 -0.13,0.337 0,0.37 0.1,0.524 0.13,0.338 0.1,-0.186 0.1,-0.489 0,-0.675 z m 2.7,-0.627 c 0,-0.679 0,-0.695 -0.1,-0.114 -0.1,0.371 -0.28,0.774 -0.45,0.897 -0.21,0.148 -0.18,0.187 0.1,0.114 0.23,-0.06 0.43,-0.452 0.45,-0.897 z m -5.66,-0.451 c -0.1,-0.185 -0.14,-0.03 -0.14,0.337 0,0.371 0.1,0.523 0.14,0.337 0.1,-0.185 0.1,-0.489 0,-0.674 z m 4.31,-0.27 c -0.1,-0.185 -0.13,-0.03 -0.13,0.337 0,0.371 0.1,0.523 0.13,0.337 0.1,-0.185 0.1,-0.488 0,-0.674 z m -1.35,-0.539 c -0.1,-0.185 -0.13,-0.03 -0.13,0.337 0,0.371 0.1,0.523 0.13,0.337 0.1,-0.185 0.1,-0.488 0,-0.674 z m -2.96,-1.078 c -0.1,-0.186 -0.14,-0.03 -0.14,0.337 0,0.37 0.1,0.522 0.14,0.337 0.1,-0.186 0.1,-0.489 0,-0.674 z m -7.73,-1.708 c 0,-1.565 0,-1.544 -1.82,-2.117 -0.58,-0.181 -0.61,-0.124 -0.61,1.411 0,1.597 0,1.599 1.01,1.998 0.56,0.219 1.11,0.349 1.22,0.29 0.11,-0.06 0.2,-0.772 0.2,-1.582 z"
                 id="path955" />
        </g>
        <g
             id="arrs">
            <path
                 id="path13320"
                 style="opacity:0.8;fill:#ffffff;stroke:#000000;stroke-width:1;stroke-linecap:round;stroke-linejoin:round;stroke-miterlimit:4;stroke-dasharray:none;paint-order:markers stroke fill;stop-color:#000000"
                 inkscape:transform-center-x="-21.676"
                 inkscape:transform-center-y="0.0047324"
                 d="m 236.96,184.25 v -19.22 l 130.06,9.61 z"
                 class="tp" />
            <path
                 id="path13320-9"
                 style="opacity:0.8;fill:#ffffff;stroke:#000000;stroke-width:1;stroke-linecap:round;stroke-linejoin:round;stroke-miterlimit:4;stroke-dasharray:none;paint-order:markers stroke fill;stop-color:#000000"
                 inkscape:transform-center-x="0.0041207"
                 inkscape:transform-center-y="5.1074"
                 d="m 481.02,388.29 h 19.8 l -9.9,30.65 z" />
            <path
                 id="path13320-2"
                 style="opacity:0.8;fill:#ffffff;stroke:#000000;stroke-width:1;stroke-linecap:round;stroke-linejoin:round;stroke-miterlimit:4;stroke-dasharray:none;paint-order:markers stroke fill;stop-color:#000000"
                 inkscape:transform-center-x="-21.676"
                 inkscape:transform-center-y="0.0047324"
                 d="m 233.6,365.56 v -19.22 l 130.06,9.61 z" />
            <path
                 id="path13320-2-6"
                 style="opacity:0.8;fill:#ffffff;stroke:#000000;stroke-width:1;stroke-linecap:round;stroke-linejoin:round;stroke-miterlimit:4;stroke-dasharray:none;paint-order:markers stroke fill;stop-color:#000000"
                 inkscape:transform-center-x="21.675"
                 inkscape:transform-center-y="0.0047324"
                 d="m 364.32,456.22 v -19.22 l -130.06,9.61 z" />
            <path
                 id="path13320-3"
                 style="opacity:0.8;fill:#ffffff;stroke:#000000;stroke-width:1;stroke-linecap:round;stroke-linejoin:round;stroke-miterlimit:4;stroke-dasharray:none;paint-order:markers stroke fill;stop-color:#000000"
                 inkscape:transform-center-x="21.675"
                 inkscape:transform-center-y="0.0047324"
                 d="m 367.02,221.86 v -19.22 l -130.06,9.61 z" />
            <path
                 style="fill:none;stroke:#000000;stroke-width:1px;stroke-linecap:butt;stroke-linejoin:miter;stroke-opacity:1"
                 d="m 77.323,201.97 5.832,92.82 -19.163,-1.5 23.33,32 25.998,-28 -15.999,-1.33 46.659,-53.33 -7.33,-5.66 -43.829,51.16 -6.832,-86.49 z"
                 id="path20879"
                 sodipodi:nodetypes="ccccccccccc" />
            <path
                 style="fill:none;stroke:#000000;stroke-width:1px;stroke-linecap:butt;stroke-linejoin:miter;stroke-opacity:1"
                 d="m 512.41,202.34 -6.33,93.16 19.66,-1.84 -23.33,32 -26,-28 19,-1.66 -49.66,-53 7.33,-5.66 45.66,50.33 5,-85.66 z"
                 id="path20879-5"
                 sodipodi:nodetypes="ccccccccccc" />
        </g>
        <text
             xml:space="preserve"
             style="font-size:22px;line-height:1.25;font-family:Consolas;-inkscape-font-specification:'Consolas, Normal';font-variant-ligatures:none"
             x="443.28"
             y="453.94"
             id="text27026"><tspan
                 sodipodi:role="line"
                 id="tspan27024"
                 x="443.28"
                 y="453.94">チェック!</tspan></text>
        <g
             id="g31868">
            <text
                 xml:space="preserve"
                 style="font-size:16px;line-height:1.25;font-family:Consolas;-inkscape-font-specification:'Consolas, Normal';font-variant-ligatures:none"
                 x="29.329"
                 y="161.32"
                 id="text3227"><tspan
                     sodipodi:role="line"
                     x="29.329"
                     y="161.32"
                     id="tspan10844">パスワード(Seed)</tspan></text>
            <text
                 xml:space="preserve"
                 style="font-size:16px;line-height:1.25;font-family:Consolas;-inkscape-font-specification:'Consolas, Normal';font-variant-ligatures:none"
                 x="26.938"
                 y="178.58"
                 id="text30062"><tspan
                     sodipodi:role="line"
                     id="tspan30060"
                     x="26.938"
                     y="178.58">:koko0123</tspan></text>
        </g>
        <g
             id="g32010">
            <text
                 xml:space="preserve"
                 style="font-size:16px;line-height:1.25;font-family:Consolas;-inkscape-font-specification:'Consolas, Normal';font-variant-ligatures:none"
                 x="455.68"
                 y="163.86"
                 id="text3227-9"><tspan
                     sodipodi:role="line"
                     x="455.68"
                     y="163.86"
                     id="tspan10844-6">パスワード(Seed)</tspan></text>
            <text
                 xml:space="preserve"
                 style="font-size:16px;line-height:1.25;font-family:Consolas;-inkscape-font-specification:'Consolas, Normal';font-variant-ligatures:none"
                 x="453.29"
                 y="181.12"
                 id="text30062-2"><tspan
                     sodipodi:role="line"
                     id="tspan30060-3"
                     x="453.29"
                     y="181.12">:koko0123</tspan></text>
        </g>
        <g
             id="g36162">
            <text
                 xml:space="preserve"
                 style="font-size:16px;line-height:1.25;font-family:Consolas;-inkscape-font-specification:'Consolas, Normal';font-variant-ligatures:none"
                 x="387.69"
                 y="205.86"
                 id="text14853"><tspan
                     sodipodi:role="line"
                     x="387.69"
                     y="205.86"
                     id="tspan19803">adgjzcbm</tspan></text>
            <text
                 xml:space="preserve"
                 style="font-size:16px;line-height:1.25;font-family:Consolas;-inkscape-font-specification:'Consolas, Normal';font-variant-ligatures:none"
                 x="374.25"
                 y="226.25"
                 id="text34638"><tspan
                     sodipodi:role="line"
                     id="tspan34636"
                     x="374.25"
                     y="226.25">(チャレンジ)</tspan></text>
        </g>
        <g
             id="g40072">
            <text
                 xml:space="preserve"
                 style="font-size:16px;line-height:1.25;font-family:Consolas;-inkscape-font-specification:'Consolas, Normal';font-variant-ligatures:none"
                 x="20.543"
                 y="350.28"
                 id="text14853-8-0"><tspan
                     sodipodi:role="line"
                     x="20.543"
                     y="350.28"
                     id="tspan19803-1-0">9s51f7h5k3x8v5n2</tspan></text>
            <text
                 xml:space="preserve"
                 style="font-size:16px;line-height:1.25;font-family:Consolas;-inkscape-font-specification:'Consolas, Normal';font-variant-ligatures:none"
                 x="42.051"
                 y="367.99"
                 id="text38094"><tspan
                     sodipodi:role="line"
                     id="tspan38092"
                     x="42.051"
                     y="367.99">(レスポンス)</tspan></text>
        </g>
    </g>
</svg>
