<?xml version="1.0" encoding="UTF-8" standalone="no"?>
<svg
     viewBox="0 0 600 400"
     version="1.1"
     id="svg41"
     sodipodi:docname="ディジタル署名.svg"
     width="600"
     height="400"
     inkscape:version="1.1 (c68e22c387, 2021-05-23)"
     xmlns:inkscape="http://www.inkscape.org/namespaces/inkscape"
     xmlns:sodipodi="http://sodipodi.sourceforge.net/DTD/sodipodi-0.dtd"
     xmlns="http://www.w3.org/2000/svg"
     xmlns:svg="http://www.w3.org/2000/svg">
    <defs
         id="defs45" />
    <sodipodi:namedview
         id="namedview43"
         pagecolor="#ffffff"
         bordercolor="#666666"
         borderopacity="1.0"
         inkscape:pageshadow="2"
         inkscape:pageopacity="0.0"
         inkscape:pagecheckerboard="0"
         showgrid="false"
         inkscape:zoom="0.95984"
         inkscape:cx="432.36"
         inkscape:cy="318.28"
         inkscape:window-width="1920"
         inkscape:window-height="1009"
         inkscape:window-x="-8"
         inkscape:window-y="-8"
         inkscape:window-maximized="1"
         inkscape:current-layer="arws" />
    <g
         id="faces">
        <g
             id="g7066">
            <ellipse
                 cx="76.904"
                 cy="46.805"
                 rx="33.365"
                 ry="30.615"
                 class="e_node_face"
                 id="ellipse8"
                 style="stroke-width:3.74616;fill:#00d2ff;fill-opacity:1" />
            <circle
                 cx="85.467"
                 cy="39.025"
                 class="white"
                 r="6.9664"
                 id="circle10"
                 style="stroke-width:3.74616;fill:#ffffff;fill-opacity:1" />
            <circle
                 cx="68.28"
                 cy="38.743"
                 class="white"
                 r="6.9664"
                 id="circle12"
                 style="stroke-width:3.74616;fill:#ffffff;fill-opacity:1" />
            <path
                 d="m 54.356,48.858 22.458,22.458 22.548,-22.548 -22.462,12.965 z"
                 class="white"
                 id="path14"
                 style="stroke-width:3.74616;fill:#ffffff;fill-opacity:1" />
        </g>
        <g
             id="g7060">
            <ellipse
                 cx="479.98"
                 cy="48.783"
                 rx="31.322"
                 ry="28.74"
                 class="d_node_face"
                 id="ellipse16"
                 style="stroke-width:3.74616;fill:#ff14ff;fill-opacity:1" />
            <circle
                 cx="488.03"
                 cy="41.48"
                 r="6.5397"
                 class="white"
                 id="circle18"
                 style="stroke-width:3.74616;fill:#ffffff;fill-opacity:1" />
            <circle
                 cx="471.89"
                 cy="41.216"
                 r="6.5397"
                 class="white"
                 id="circle20"
                 style="stroke-width:3.74616;fill:#ffffff;fill-opacity:1" />
            <path
                 d="m 458.81,50.712 21.09,21.08 21.17,-21.166 -21.09,12.171 z"
                 class="white"
                 id="path22"
                 style="stroke-width:3.74616;fill:#ffffff;fill-opacity:1" />
        </g>
    </g>
    <path
         d="m 49.62,102.55 h 39.71 l 11.61,14.61 v 50.95 h -51.32 z"
         id="doc"
         class="doc num0"
         style="stroke-width:3.74616" />
    <g
         id="arws">
        <path
             d="m 108.15,150.64 2.76,-3.82 2.77,-3.82 19.09,16.73 19.09,16.73 -21.86,-12.91 z"
             id="arw0"
             class=" arw num1 d"
             style="stroke-width:3.74616" />
        <path
             d="m 150.02,86.447 6.36,-1.873 7.5,-1.499 13.11,87.655 12.36,85.04 -20.23,-83.91 z"
             id="arw1"
             class="arw num2 d"
             style="stroke-width:3.74616" />
        <path
             d="m 149.64,247.53 12.74,-9.37 -50.57,-53.19 z"
             id="arw2"
             class="arw num3 d"
             style="stroke-width:3.74616" />
        <path
             d="m 180.36,75.957 5.62,2.997 6.37,4.87 -44.21,59.186 -42.33,56.94 36.34,-62.19 z"
             id="arw3"
             class="arw num3 d"
             style="stroke-width:3.74616" />
        <path
             d="m 130.91,176.73 -0.75,-18.74 -0.37,-23.6 138.98,6.37 135.98,6.74 -136.73,16.49 z"
             id="arw4"
             class="arw num4 d"
             style="stroke-width:3.74616" />
        <path
             d="m 186.73,81.202 6.74,2.248 7.12,1.873 -43.46,134.107 -43.45,131.49 35.96,-133.36 z"
             class="arw num3 d"
             id="arw_"
             style="stroke-width:3.74616" />
        <path
             d="m 419.74,178.6 h 14.98 l -7.49,43.83 z"
             id="arw5"
             class="arw num5 d"
             style="stroke-width:3.74616" />
        <path
             d="m 498.41,178.6 h 14.98 l -7.49,43.83 z"
             id="arw6"
             class="arw num5 d"
             style="stroke-width:3.74616" />
    </g>
    <g
         id="box">
        <rect
             width="51.697"
             height="29.446"
             x="155.27"
             y="186.68"
             id="box1"
             class="h num1 d"
             style="stroke-width:3.74616" />
        <rect
             width="51.746"
             height="29.384"
             x="49.62"
             y="189.84"
             id="box2"
             class="public num3 d"
             style="stroke-width:3.74616" />
        <rect
             width="51.697"
             height="29.446"
             x="401.01"
             y="231.04"
             id="box3"
             class="h num1 d"
             style="stroke-width:3.74616" />
    </g>
    <g
         id="icons">
        <path
             d="m 144.4,35.454 c 11.61,-5.544 18.35,3.671 10.49,13.112 l 4.49,6.368 5.62,-4.121 1.5,2.248 -6,3.746 3.38,4.87 5.62,-3.746 1.49,1.873 -7.49,4.87 -10.49,-14.61 c -11.61,3.372 -17.23,-5.994 -8.61,-14.61 z"
             id="s_key"
             class="key"
             style="fill:#ffffff;fill-opacity:1;stroke:#000000;stroke-width:1;stroke-miterlimit:4;stroke-dasharray:none;stroke-opacity:1" />
        <path
             d="m 197.63,32.411 6.74,12.101 -8.99,5.244 3.74,6.743 6,-3.371 1.12,2.247 -5.99,3.372 2.99,4.87 5.62,-3.372 1.13,1.874 -7.87,4.12 -8.62,-15.359 -8.24,4.495 -7.11,-12.175 z"
             id="p_key"
             class="key"
             style="fill:#ffffff;fill-opacity:1;stroke:#000000;stroke-width:1;stroke-miterlimit:4;stroke-dasharray:none;stroke-opacity:1" />
        <path
             d="m 232.43,62.471 -7.49,-13.111 7.49,-13.187 7.49,13.187 z"
             id="ico_hash0"
             class="hash"
             style="stroke-width:1;stroke-miterlimit:4;stroke-dasharray:none;fill:#ffff00;fill-opacity:1;stroke:#000000;stroke-opacity:1" />
    </g>
    <g
         id="info">
        <path
             d="m 523.75,391.09 -7.49,-13.11 7.49,-13.19 7.49,13.19 z"
             class="hash"
             id="path6"
             style="fill:#ffff00;fill-opacity:1;stroke:#000000;stroke-width:1;stroke-miterlimit:4;stroke-dasharray:none;stroke-opacity:1" />
        <path
             d="m 323.79,366.27 c 11.62,-5.55 18.37,3.67 10.5,13.11 l 4.49,6.37 5.62,-4.12 1.5,2.24 -5.99,3.75 3.37,4.87 5.62,-3.75 1.5,1.88 -7.49,4.87 -10.49,-14.61 c -11.63,3.37 -17.25,-6 -8.63,-14.61 z"
             id="s_key-5"
             class="key"
             style="fill:#ffffff;fill-opacity:1;stroke:#000000;stroke-width:1;stroke-miterlimit:4;stroke-dasharray:none;stroke-opacity:1" />
        <path
             d="m 436.72,362.54 6.74,12.1 -8.99,5.24 3.75,6.74 5.99,-3.37 1.13,2.25 -6,3.37 3,4.87 5.62,-3.37 1.12,1.87 -7.87,4.12 -8.61,-15.36 -8.24,4.5 -7.12,-12.18 z"
             id="p_key-0"
             class="key"
             style="fill:#ffffff;fill-opacity:1;stroke:#000000;stroke-width:1;stroke-miterlimit:4;stroke-dasharray:none;stroke-opacity:1" />
        <text
             xml:space="preserve"
             style="font-size:16px;line-height:1.25;font-family:Consolas;-inkscape-font-specification:'Consolas, Normal';font-variant-ligatures:none"
             x="350.4"
             y="382.62"
             id="text3171"><tspan
                 sodipodi:role="line"
                 id="tspan3169"
                 x="350.4"
                 y="382.62">秘密鍵</tspan></text>
        <text
             xml:space="preserve"
             style="font-size:16px;line-height:1.25;font-family:Consolas;-inkscape-font-specification:'Consolas, Normal';font-variant-ligatures:none"
             x="447.99"
             y="382.59"
             id="text3703"><tspan
                 sodipodi:role="line"
                 id="tspan3701"
                 x="447.99"
                 y="382.59">公開鍵</tspan></text>
        <text
             xml:space="preserve"
             style="font-size:16px;line-height:1.25;font-family:Consolas;-inkscape-font-specification:'Consolas, Normal';font-variant-ligatures:none"
             x="534.72"
             y="382.34"
             id="text4455"><tspan
                 sodipodi:role="line"
                 id="tspan4453"
                 x="534.72"
                 y="382.34">ハッシュ</tspan></text>
    </g>
</svg>
