<?xml version="1.0" encoding="UTF-8" standalone="no"?>
<!-- Created with Inkscape (http://www.inkscape.org/) -->

<svg
     width="500"
     height="500"
     viewBox="0 0 500 500"
     version="1.1"
     id="svg5"
     sodipodi:docname="calc-gpa.svg"
     inkscape:version="1.1 (c68e22c387, 2021-05-23)"
     inkscape:export-filename="C:\Program Files\XAMPP\htdocs\koko-campus.org\program\pics\calc-gpa.png"
     inkscape:export-xdpi="96"
     inkscape:export-ydpi="96"
     xmlns:inkscape="http://www.inkscape.org/namespaces/inkscape"
     xmlns:sodipodi="http://sodipodi.sourceforge.net/DTD/sodipodi-0.dtd"
     xmlns="http://www.w3.org/2000/svg"
     xmlns:svg="http://www.w3.org/2000/svg">
    <sodipodi:namedview
         id="namedview7"
         pagecolor="#ffffff"
         bordercolor="#666666"
         borderopacity="1.0"
         inkscape:pageshadow="2"
         inkscape:pageopacity="0.0"
         inkscape:pagecheckerboard="0"
         inkscape:document-units="px"
         showgrid="false"
         units="px"
         inkscape:zoom="0.375049102395779"
         inkscape:cx="-2.66631753978904"
         inkscape:cy="198.640656714283"
         inkscape:window-width="1920"
         inkscape:window-height="1009"
         inkscape:window-x="-8"
         inkscape:window-y="-8"
         inkscape:window-maximized="1"
         inkscape:current-layer="g1221" />
    <defs
         id="defs2">
        <rect
             x="64.65820042"
             y="391.2820994"
             width="372.6178766"
             height="59.99214472"
             id="rect5495" />
    </defs>
    <g
         inkscape:label="レイヤー 1"
         inkscape:groupmode="layer"
         id="layer1">
        <g
             id="g1221"
             transform="matrix(0.2255989397,0,0,0.2255989397,26.56083795,46.95014462)">
            <path
                 style="fill:#000000;stroke-width:4.43264"
                 d="m 1384.80438793443,847.113001208167 c 1.61283476436,-55.41861921138 2.9324268443,-118.39098126305 2.9324268443,-139.93858233705 v -39.17745649817 h 52.71986926997 52.71986926997 l 2.65563444639,72.03047892253 c 1.46059894551,39.61676340738 3.16895763975,101.95083170572 3.79635265385,138.52015177408 l 1.14071820747,66.48967285157 -16.48804622166,1.367728204 -16.48804622166,1.367728204 -1.24253320542,-56.41321535845 c -0.8700801482,-39.50318475634 -2.86298285995,-56.951322871361 -6.64848293368,-58.20838508499 -4.02361593208,-1.336134051482 -5.72379677909,12.739327439109 -6.64896728515,55.04548715445 -1.20579720251,55.13864601129 -1.54165805156,56.88307059418 -11.21646848464,58.25711276961 -9.90635296763,1.406926458809 -9.97345092773,1.02670468491 -9.97345092773,-56.51622192382 0,-48.017349800031 -1.11532158887,-57.932677812461 -6.51653341011,-57.932677812461 -5.32801315213,0 -6.7427997856,10.307731186711 -7.75712849935,56.51622192383 l -1.24059508924,56.516221923831 -17.3385226288,1.41843056295 -17.33852262881,1.41843056297 z m -440.332058832787,-39.96407559674 c -99.40385485379,-11.57700103841 -165.58879250621,-30.6267902497 -191.26377233012,-55.05081179918 l -17.07053593811,-16.23881072052 v -122.58406749481 c 0,-67.42123712214 1.7478272218,-122.5840674948 3.88406049289,-122.5840674948 2.13623327109,0 69.9742222601,25.93097241211 150.75108664226,57.62438313802 80.77686438215,31.69341072591 150.819361159627,57.62438313802 155.649992838807,57.62438313802 4.8306316792,0 74.87312845666,-25.93097241211 155.64999283881,-57.62438313802 80.77686438216,-31.69341072591 148.61485337117,-57.62438313802 150.75108664226,-57.62438313802 2.13623327109,0 3.88406049289,55.16283037266 3.88406049289,122.5840674948 v 122.58406749481 l -17.17793329809,16.34097537469 c -19.74661135142,18.78450010415 -66.28877780837,35.47674089648 -131.31566940373,47.09606235283 -38.25344446263,6.83531162447 -224.789667300147,12.389184187 -263.742368977867,7.85258479218 z m 447.697130533857,-192.54518537686 c 0,-18.00609411356 2.18184301642,-24.54655115739 11.19536668416,-33.56007482514 11.0847560374,-11.0847560374 11.18329411022,-11.83964156054 9.97345092774,-76.40512449581 l -1.22191575643,-65.20975781166 -177.30579427083,69.73739240004 c -97.51818684896,38.35556582003 -181.76414878271,69.83650430052 -187.21324874167,69.95764106779 -14.67997474168,0.32634466189 -538.997649294677,-206.30135871896 -544.150480291027,-214.44358924572 -2.93919519397,-4.64436051744 -2.89922663386,-9.36343457035 0.11984156163,-14.14965168654 2.49139774614,-3.94968571881 125.65331415313,-54.67804778535 273.693147571089,-112.729693481201 l 269.163333487208,-105.548446719741 269.16333348721,105.548446719741 c 148.03983341796,58.051645695851 271.20174982495,108.780007762391 273.69314757109,112.729693481201 8.12489851159,12.88063925873 -2.79488890685,20.51359475371 -63.02267531286,44.05298907422 l -58.73254435221,22.95499475332 v 76.12913534817 76.12913534817 l 13.29793457031,13.29793457031 c 10.90157474578,10.90157474579 13.29793457032,16.95391943081 13.29793457032,33.58580910708 v 20.28787453675 h -50.97541585287 -50.97541585286 z"
                 id="path1060" />
            <text
                 xml:space="preserve"
                 style="font-size:638.301px;line-height:1.25;font-family:Consolas;-inkscape-font-specification:'Consolas, Normal';font-variant-ligatures:none;stroke-width:4.43264"
                 x="490.937774658203"
                 y="1549.94885253906"
                 id="text2022"><tspan
                     sodipodi:role="line"
                     id="tspan2020"
                     style="font-size:638.301px;stroke-width:4.43264"
                     x="490.937774658203"
                     y="1549.94885253906">GPA</tspan></text>
        </g>
    </g>
</svg>
