<?xml version="1.0" encoding="UTF-8" standalone="no"?>
<!-- Created with Inkscape (http://www.inkscape.org/) -->

<svg
     width="500"
     height="500"
     viewBox="0 0 500 500"
     version="1.1"
     id="svg5"
     inkscape:version="1.1 (c68e22c387, 2021-05-23)"
     sodipodi:docname="find-you.svg"
     inkscape:export-filename="C:\Program Files\XAMPP\htdocs\koko-campus.org\program\pics\find-you.png"
     inkscape:export-xdpi="96"
     inkscape:export-ydpi="96"
     xmlns:inkscape="http://www.inkscape.org/namespaces/inkscape"
     xmlns:sodipodi="http://sodipodi.sourceforge.net/DTD/sodipodi-0.dtd"
     xmlns="http://www.w3.org/2000/svg"
     xmlns:svg="http://www.w3.org/2000/svg">
    <sodipodi:namedview
         id="namedview7"
         pagecolor="#ffffff"
         bordercolor="#666666"
         borderopacity="1.0"
         inkscape:pageshadow="2"
         inkscape:pageopacity="0.0"
         inkscape:pagecheckerboard="0"
         inkscape:document-units="px"
         showgrid="false"
         units="px"
         inkscape:zoom="1"
         inkscape:cx="205"
         inkscape:cy="216.5"
         inkscape:window-width="1920"
         inkscape:window-height="1009"
         inkscape:window-x="-8"
         inkscape:window-y="-8"
         inkscape:window-maximized="1"
         inkscape:current-layer="layer1" />
    <defs
         id="defs2">
        <rect
             x="330"
             y="363"
             width="182"
             height="68"
             id="rect13012" />
        <rect
             x="10"
             y="297"
             width="188"
             height="68"
             id="rect8042" />
        <rect
             x="89.32163765"
             y="75.99004994"
             width="114.6516543"
             height="454.6071408"
             id="rect36492" />
        <rect
             x="206.6396095"
             y="79.98952625"
             width="113.3184955"
             height="341.2886453"
             id="rect29080" />
        <rect
             x="350.6207567"
             y="55.99266837"
             width="127.983242"
             height="293.2949296"
             id="rect13982" />
        <rect
             x="39.99476312"
             y="31.9958105"
             width="431.9434417"
             height="154.6464174"
             id="rect4016" />
        <filter
             inkscape:collect="always"
             style="color-interpolation-filters:sRGB"
             id="filter14660"
             x="-0.05252331979"
             y="-0.8355982694"
             width="1.10504664"
             height="2.671196539">
            <feGaussianBlur
                 inkscape:collect="always"
                 stdDeviation="3.829825464"
                 id="feGaussianBlur14662" />
        </filter>
        <filter
             inkscape:collect="always"
             style="color-interpolation-filters:sRGB"
             id="filter14886"
             x="-0.0877597398"
             y="-1.629823739"
             width="1.17551948"
             height="4.259647478">
            <feGaussianBlur
                 inkscape:collect="always"
                 stdDeviation="4.753652441"
                 id="feGaussianBlur14888" />
        </filter>
    </defs>
    <g
         inkscape:label="レイヤー 1"
         inkscape:groupmode="layer"
         id="layer1">
        <path
             style="opacity:0.597148;fill:#ff00ff;fill-opacity:0.960124;stroke:#000000;stroke-width:1;stroke-linecap:butt;stroke-linejoin:miter;stroke-miterlimit:4;stroke-dasharray:none;stroke-opacity:1"
             d="m 103.5027928,80.6336783 c 0,0 -31.42095255,-16.4609142 -30.74675563,-31.1108218 0.70534068,-15.32664342 19.85939056,-29.81233204 35.01713843,-29.38244268 16.3107036,0.46258835 35.1549297,17.20898866 35.8712149,33.70339028 0.5220546,12.0217195 -23.9141433,26.7898742 -23.9141433,26.7898742 37.3968101,25.199304 27.3619636,91.6168412 27.3304494,91.6040863 l -79.4291187,2.5925684 c -0.068185,0.0069 -5.27268297,-91.97899 35.8712149,-94.1966547 z"
             id="path1859"
             sodipodi:nodetypes="ssaasccs" />
        <path
             style="opacity:0.597148;fill:#ff00ff;fill-opacity:0.960124;stroke:#000000;stroke-width:1;stroke-linecap:butt;stroke-linejoin:miter;stroke-miterlimit:4;stroke-dasharray:none;stroke-opacity:1"
             d="m 238.0814183,91.7631433 c 0,0 -29.9778577,-15.2629898 -29.3346252,-28.846767 0.672946,-14.2112643 18.9472927,-27.64277341 33.4088787,-27.24416871 15.5615891,0.428924 33.5403416,15.95662401 34.2237294,31.25066421 0.4980778,11.1468525 -22.8158196,24.8402715 -22.8158196,24.8402715 35.6792573,23.3654532 26.1052891,84.9495294 26.0752224,84.9377027 l -75.781115,2.4038972 c -0.065053,0.0064 -5.0305203,-85.2853233 34.2237293,-87.3415999 z"
             id="path1859-4"
             sodipodi:nodetypes="ssaasccs" />
        <path
             style="opacity:0.597148;fill:#ff00ff;fill-opacity:0.960124;stroke:#000000;stroke-width:1;stroke-linecap:butt;stroke-linejoin:miter;stroke-miterlimit:4;stroke-dasharray:none;stroke-opacity:1"
             d="m 370.3921307,87.7384872 c 0,0 -25.9910492,-13.6689094 -25.4333613,-25.8339845 0.5834497,-12.727027 16.4274586,-24.75573711 28.9657727,-24.39876311 13.4920258,0.3841268 29.0797521,14.29009971 29.6722549,27.98681651 0.4318376,9.9826652 -19.7815033,22.2459311 -19.7815033,22.2459311 30.9342097,20.9251441 22.6335005,76.0773236 22.6074323,76.066732 l -65.7028502,2.1528321 c -0.056402,0.00573 -4.3615025,-76.3780469 29.6722549,-78.2195641 z"
             id="path1859-2"
             sodipodi:nodetypes="ssaasccs" />
        <path
             style="fill:#507dff;stroke:#000000;stroke-width:1px;stroke-linecap:butt;stroke-linejoin:miter;stroke-opacity:1;fill-opacity:0.9601242542"
             d="m 252.5587117,386.03501 c 0,0 -34.6808256,-17.956093 -33.9366819,-33.9366819 0.7785187,-16.7187941 21.9197703,-32.5202477 38.65011,-32.0513106 18.0029128,0.5046062 38.8021969,18.7721166 39.5927955,36.7647387 0.576217,13.1136771 -26.395197,29.2232538 -26.395197,29.2232538 41.2766687,27.4882088 30.2007231,99.9385879 30.1659394,99.9246744 l -87.6697615,2.8280568 c -0.075259,0.00753 -5.8197153,-100.3336315 39.5927955,-102.7527312 z"
             id="path1859-9"
             sodipodi:nodetypes="ssaasccs" />
        <path
             style="opacity:0.597148;fill:#ff00ff;fill-opacity:0.960124;stroke:#000000;stroke-width:1;stroke-linecap:butt;stroke-linejoin:miter;stroke-miterlimit:4;stroke-dasharray:none;stroke-opacity:1"
             d="m -17.45060194,79.7538991 c 0,0 -30.3496086,-14.5624051 -29.69839943,-27.5226748 0.68129105,-13.5589548 19.18225522,-26.3739457 33.82317719,-25.99363735 15.754566045,0.40923601 33.95627032,15.22420085 34.64813269,29.81623105 0.50425444,10.6352022 -23.098755123,23.7000811 -23.098755123,23.7000811 36.121710423,22.2929583 26.429016893,81.050271 26.398577253,81.0389871 l -76.72086524,2.2935563 c -0.0658601,0.00611 -5.09290304,-81.3706517 34.64813266,-83.3325434 z"
             id="path1859-99"
             sodipodi:nodetypes="ssaasccs" />
        <path
             style="opacity:0.597148;fill:#ff00ff;fill-opacity:0.960124;stroke:#000000;stroke-width:1;stroke-linecap:butt;stroke-linejoin:miter;stroke-miterlimit:4;stroke-dasharray:none;stroke-opacity:1"
             d="m 491.4268204,81.7560436 c 0,0 -27.4537546,-13.0666746 -26.8646815,-24.695772 0.6162846,-12.1662903 17.3519512,-23.66503074 30.5958873,-23.32378454 14.2513202,0.3672026 30.7162811,13.66049614 31.3421284,26.75375294 0.4561402,9.5428416 -20.8947523,21.2658036 -20.8947523,21.2658036 32.6751025,20.0032088 23.9072521,72.7254532 23.8797169,72.7153284 l -69.4004272,2.0579809 c -0.059576,0.00548 -4.606956,-73.012927 31.3421284,-74.7733093 z"
             id="path1859-0"
             sodipodi:nodetypes="ssaasccs" />
        <path
             style="fill:#ff00af;stroke:#000000;stroke-width:0.394315px;stroke-linecap:butt;stroke-linejoin:miter;stroke-opacity:1;fill-opacity:0.9601242542"
             d="m 180.8450068,238.1405906 c -5.1932964,-7.8871568 -30.4613293,-14.2788945 -22.6563636,9.8416175 9.828443,28.9693455 33.3444333,20.7796787 33.3444333,20.7796787 0.8782902,-2.7101788 20.8267793,-1.5083848 10.0258919,-40.9226472 -9.1649169,-19.4347586 -21.3625482,2.0435276 -20.7139616,10.301351 z"
             id="path3843"
             sodipodi:nodetypes="ccccc" />
        <path
             style="fill:#ff00af;fill-opacity:0.960124;stroke:#000000;stroke-width:0.286315px;stroke-linecap:butt;stroke-linejoin:miter;stroke-opacity:1"
             d="m 241.4257376,279.1285251 c -0.5030696,-6.8987448 -14.1187084,-19.5382664 -17.6460351,-1.1440302 -3.9513688,22.2440627 13.6569746,24.7566752 13.6569746,24.7566752 1.4971848,-1.4792732 13.5887599,5.9840099 20.5773973,-23.4195557 1.0382235,-15.7835789 -14.1116428,-5.8131979 -16.5883368,-0.1930893 z"
             id="path3843-1"
             sodipodi:nodetypes="ccccc" />
        <text
             xml:space="preserve"
             id="text8040"
             style="font-size:56px;line-height:1.25;font-family:Consolas;-inkscape-font-specification:'Consolas, Normal';font-variant-ligatures:none;white-space:pre;shape-inside:url(#rect8042)"
             transform="translate(31,7)"><tspan
                 x="10"
                 y="345.5898438"
                 id="tspan15182">find</tspan></text>
        <text
             xml:space="preserve"
             id="text13010"
             style="font-size:56px;line-height:1.25;font-family:Consolas;-inkscape-font-specification:'Consolas, Normal';font-variant-ligatures:none;white-space:pre;shape-inside:url(#rect13012)"
             transform="translate(21,10)"><tspan
                 x="330"
                 y="411.5898438"
                 id="tspan15184">you</tspan></text>
        <ellipse
             style="opacity:0.597148;fill:#ff00af;fill-opacity:0.960124;stroke:none;stroke-width:1;stroke-linecap:round;stroke-linejoin:round;stroke-miterlimit:4;stroke-dasharray:none;paint-order:markers stroke fill;filter:url(#filter14660)"
             id="path14636"
             cx="103.5"
             cy="354.5"
             rx="87.5"
             ry="5.5" />
        <ellipse
             style="opacity:0.9304812834;fill:#0050ff;fill-opacity:0.960124;stroke:none;stroke-width:1;stroke-linecap:round;stroke-linejoin:round;stroke-miterlimit:4;stroke-dasharray:none;paint-order:markers stroke fill;filter:url(#filter14886)"
             id="path14664"
             cx="398"
             cy="428.5"
             rx="65"
             ry="3.5"
             transform="matrix(1.085553056,0,0,1.085553056,-33.55011614,-37.42099727)" />
    </g>
</svg>
