<?xml version="1.0" encoding="UTF-8" standalone="no"?>
<!-- Created with Inkscape (http://www.inkscape.org/) -->

<svg
     width="500"
     height="500"
     viewBox="0 0 132.2916636 132.2916704"
     version="1.1"
     id="svg5"
     sodipodi:docname="type!.svg"
     inkscape:version="1.1 (c68e22c387, 2021-05-23)"
     inkscape:export-filename="C:\Program Files\XAMPP\htdocs\koko-campus.org\program\pics\type!.png"
     inkscape:export-xdpi="96"
     inkscape:export-ydpi="96"
     xmlns:inkscape="http://www.inkscape.org/namespaces/inkscape"
     xmlns:sodipodi="http://sodipodi.sourceforge.net/DTD/sodipodi-0.dtd"
     xmlns="http://www.w3.org/2000/svg"
     xmlns:svg="http://www.w3.org/2000/svg">
    <sodipodi:namedview
         id="namedview7"
         pagecolor="#ffffff"
         bordercolor="#666666"
         borderopacity="1.0"
         inkscape:pageshadow="2"
         inkscape:pageopacity="0.0"
         inkscape:pagecheckerboard="0"
         inkscape:document-units="px"
         showgrid="false"
         units="px"
         width="500px"
         inkscape:zoom="0.7500982043"
         inkscape:cx="-41.3279219"
         inkscape:cy="261.9656985"
         inkscape:window-width="1920"
         inkscape:window-height="1027"
         inkscape:window-x="-8"
         inkscape:window-y="-8"
         inkscape:window-maximized="1"
         inkscape:current-layer="layer1" />
    <defs
         id="defs2">
        <rect
             x="157.312735"
             y="218.6380385"
             width="213.9719828"
             height="43.32766007"
             id="rect20702" />
        <rect
             x="193.3080219"
             y="67.32451796"
             width="206.6396096"
             height="112.6519162"
             id="rect2413" />
        <filter
             inkscape:collect="always"
             style="color-interpolation-filters:sRGB"
             id="filter17906"
             x="-0.07439879871"
             y="-0.07439879871"
             width="1.148797597"
             height="1.148797597">
            <feGaussianBlur
                 inkscape:collect="always"
                 stdDeviation="3.7505346"
                 id="feGaussianBlur17908" />
        </filter>
        <filter
             inkscape:collect="always"
             style="color-interpolation-filters:sRGB"
             id="filter18018"
             x="-0.2073305246"
             y="-0.2073305246"
             width="1.414661049"
             height="1.414661049">
            <feGaussianBlur
                 inkscape:collect="always"
                 stdDeviation="6.002921173"
                 id="feGaussianBlur18020" />
        </filter>
        <filter
             inkscape:collect="always"
             style="color-interpolation-filters:sRGB"
             id="filter18068"
             x="-0.58597762"
             y="-0.58597762"
             width="2.17195524"
             height="2.17195524">
            <feGaussianBlur
                 inkscape:collect="always"
                 stdDeviation="10.59300755"
                 id="feGaussianBlur18070" />
        </filter>
    </defs>
    <g
         inkscape:label="レイヤー 1"
         inkscape:groupmode="layer"
         id="layer1">
        <circle
             style="opacity:0.910891;fill:#bff7cc;fill-opacity:0.893665;stroke-width:0.396875;stroke-linecap:round;stroke-linejoin:bevel;paint-order:markers stroke fill;filter:url(#filter17906)"
             id="path17806"
             cx="65.96081543"
             cy="65.25534058"
             r="60.49346924" />
        <path
             id="path846"
             style="opacity:0.910891;mix-blend-mode:normal;fill:#fff700;fill-opacity:0.893665;stroke-width:0.334121;stroke-linecap:round;stroke-linejoin:bevel;paint-order:markers stroke fill;filter:url(#filter18018)"
             d="m 47.11392558,35.83078615 a 34.74406545,34.74406545 0 0 1 48.67553618,6.70763395 34.74406545,34.74406545 0 0 1 -6.70763412,48.67553623 34.74406545,34.74406545 0 0 1 -48.67553609,-6.70763414 34.74406545,34.74406545 0 0 1 6.70763403,-48.67553604 z" />
        <g
             aria-label="type! type! type! type!"
             id="text2411"
             style="font-size:19.8438px;line-height:1.25;font-family:Consolas;-inkscape-font-specification:'Consolas, Normal';font-variant-ligatures:none;white-space:pre"
             transform="translate(-0.7054631847,-4.5855107)">
            <path
                 d="m 51.6042754,30.32640976 q -0.42502523,0.40900423 -0.92685808,0.76137584 -0.49704174,0.3607935 -1.04446507,0.67221596 -1.59173862,0.90552067 -2.78221983,0.63523305 -1.19527232,-0.27870952 -2.04329962,-1.76938537 l -2.51054408,-4.41307426 -2.36655318,1.34630322 -0.69950274,-1.22959703 2.36655318,-1.34630322 -1.32234765,-2.32444369 1.24981,-1.21263934 1.5379478,2.70342908 3.79827575,-2.16079271 0.69950274,1.22959703 -3.79827574,2.16079271 2.44346847,4.2951677 q 0.51744039,0.90956492 1.25620873,1.09125385 0.74239913,0.16847591 1.68565165,-0.36812893 0.40425107,-0.2299735 0.85076142,-0.56202032 0.44171924,-0.34046872 0.88721905,-0.77226819 z"
                 style="font-size:19.8438px"
                 id="path17698" />
            <path
                 d="m 60.51111091,17.70359207 -1.042881,9.25208533 q -0.16683628,1.41349778 -0.46288754,2.48004763 -0.2866671,1.06413726 -0.76341317,1.81698303 -0.47433347,0.76222994 -1.15268907,1.23676189 -0.6783556,0.47453196 -1.60738797,0.71337811 -0.24398829,0.0627273 -0.44346835,0.10400745 -0.19948006,0.0412802 -0.43890937,0.0828265 l -0.38118881,-1.48269811 q 0.21368939,-0.0249244 0.46250287,-0.0688834 0.25122606,-0.0345748 0.52336685,-0.10453982 0.45043993,-0.11580419 0.80141449,-0.34609859 0.36035871,-0.23270699 0.63037003,-0.62226601 0.27242391,-0.38017486 0.47085615,-0.9314111 0.19843225,-0.55123624 0.32743183,-1.29471477 l -6.18528808,-8.45425438 1.85806473,-0.47769232 3.98553605,5.61828854 0.85495607,1.34088783 0.15826759,-1.64139652 0.61297113,-6.76050714 z"
                 style="font-size:19.8438px"
                 id="path17700" />
            <path
                 d="m 73.61016513,22.03501257 q -0.0168286,1.29826129 -0.39755093,2.26234071 -0.37103381,0.96420501 -1.01876466,1.59535842 -0.64773085,0.63115341 -1.52384175,0.93957168 -0.8761109,0.30841826 -1.8934052,0.29523166 -0.46504882,-0.006028 -0.92946971,-0.0604989 -0.45473238,-0.0543452 -0.92796267,-0.17676111 l -0.0527464,4.0691772 -1.68580198,-0.0218521 0.17757956,-13.69956323 1.50172015,0.0194659 0.0854751,1.62905233 q 0.73957421,-0.98849826 1.56824722,-1.37505259 0.8287986,-0.39624286 1.7879618,-0.38380978 0.83321247,0.0108005 1.45844496,0.36775021 0.6252325,0.35694975 1.04323853,1.00191769 0.41813162,0.63527943 0.61959944,1.53907443 0.2015934,0.89410648 0.18727654,1.99859748 z m -1.72556074,0.0551537 q 0.009921,-0.76539286 -0.0980521,-1.40634203 -0.098285,-0.64082358 -0.33459533,-1.09932355 -0.23631035,-0.45849998 -0.61089726,-0.7152993 -0.37446133,-0.26648785 -0.89764126,-0.27326953 -0.31972106,-0.004144 -0.6505121,0.0981594 -0.33066545,0.0926152 -0.69228025,0.33018144 -0.3518007,0.22800329 -0.75417895,0.62008344 -0.39256416,0.38251722 -0.84577114,0.95805126 l -0.0611607,4.71830785 q 0.46253709,0.1997985 0.97452145,0.3227168 0.51210996,0.11322978 1.00622433,0.1196347 1.36608092,0.0177077 2.15309302,-0.89265447 0.78713769,-0.92005071 0.81125029,-2.78024601 z"
                 style="font-size:19.8438px"
                 id="path17702" />
            <path
                 d="m 85.51623934,24.58344772 q -0.09771,0.34493299 -0.17305281,0.57535501 -0.0753428,0.23042202 -0.15208567,0.43023568 l -6.5723718,-1.86177195 q -0.40668493,1.43566703 0.17586386,2.43654539 0.58518961,0.99155585 2.09543675,1.41936728 0.41019058,0.1161957 0.82830359,0.20442386 0.42075383,0.0789056 0.81882173,0.13124382 0.39806791,0.0523382 0.76148658,0.0847906 0.37538199,0.0257707 0.69746971,0.0263741 l -0.37763601,1.33311938 q -0.71471466,-0.001047 -1.58543058,-0.12685019 -0.86403422,-0.11383954 -1.75899549,-0.36735742 -1.2026042,-0.34066466 -1.97716953,-0.91254807 -0.77456533,-0.57188341 -1.15962258,-1.34561795 -0.37309392,-0.78041625 -0.38992892,-1.75196105 -0.004872,-0.97822649 0.3173073,-2.1155731 0.279926,-0.9881864 0.80783766,-1.7852783 0.53987498,-0.8037736 1.26807834,-1.31250498 0.74016669,-0.51541308 1.64349439,-0.68248968 0.90332769,-0.16707659 1.91015912,0.11813103 0.97886388,0.27728518 1.64684068,0.79883383 0.66797679,0.52154865 1.01962553,1.23546657 0.36361206,0.70723623 0.39489185,1.59223759 0.0432431,0.87831966 -0.2393237,1.87582855 z m -1.6213546,-0.71104967 q 0.20490189,-0.61668595 0.2009863,-1.17167716 -0.001275,-0.56431371 -0.21260777,-1.02700183 -0.20201049,-0.46004729 -0.6100383,-0.79718315 -0.405387,-0.34645837 -1.02067287,-0.52075191 -0.53138325,-0.15052625 -1.02763922,-0.0695491 -0.49625596,0.0809772 -0.91885386,0.36409011 -0.4225979,0.28311294 -0.76625611,0.74971664 -0.34365821,0.4666037 -0.56720513,1.07800803 z"
                 style="font-size:19.8438px"
                 id="path17704" />
            <path
                 d="m 97.79100625,21.67576512 -5.36209015,8.42122612 -1.27923263,-0.76817729 4.88860794,-8.70555147 z m -6.69339166,9.17016795 q 0.22428104,0.13468043 0.36877217,0.34577013 0.14947929,0.202783 0.20090632,0.43710248 0.0597337,0.23930766 0.0180967,0.49685693 -0.0283422,0.25423074 -0.16302261,0.47851178 -0.13468043,0.22428105 -0.34577013,0.36877217 -0.202783,0.14947929 -0.44209065,0.20921303 -0.22601278,0.0564152 -0.47525535,0.0197663 -0.25423074,-0.0283422 -0.47851178,-0.16302262 -0.23258776,-0.13966859 -0.37707888,-0.35075829 -0.14947929,-0.202783 -0.21420119,-0.43378395 -0.0597337,-0.23930765 -0.0313916,-0.49353838 0.0366489,-0.24924257 0.17132932,-0.47352362 0.13468043,-0.22428105 0.33746342,-0.37376033 0.21607787,-0.15279783 0.45538552,-0.21253157 0.23930765,-0.0597337 0.48855022,-0.0230849 0.25423074,0.0283422 0.48681852,0.16801084 z"
                 style="font-size:19.8438px"
                 id="path17706" />
            <path
                 d="m 106.8394967,51.83904218 q -0.4025171,-0.43117385 -0.7472443,-0.93828838 -0.3532207,-0.50245159 -0.6563126,-1.05453089 -0.8812979,-1.60527674 -0.5930026,-2.79152575 0.2967888,-1.19091197 1.8001432,-2.01625451 l 4.4506085,-2.44338695 -1.3102895,-2.38668129 1.240055,-0.68079102 1.3102896,2.38668129 2.3442136,-1.28697481 1.1935624,1.26804098 -2.7264223,1.49680765 2.1029914,3.830581 -1.2400551,0.68079102 -2.1029914,-3.830581 -4.3316991,2.37810563 q -0.917301,0.50359883 -1.1101632,1.23952933 -0.1797058,0.73976108 0.3425449,1.69103618 0.2238217,0.40768933 0.5490646,0.85917975 0.3337365,0.44682746 0.758736,0.89881894 z"
                 style="font-size:19.8438px"
                 id="path17708" />
            <path
                 d="m 119.3244377,60.93763522 -9.2350963,-1.18392573 q -1.4107877,-0.18838368 -2.4726963,-0.50067364 -1.0596395,-0.30287009 -1.8051236,-0.7910474 -0.7549039,-0.48590819 -1.2190305,-1.17142512 -0.4641265,-0.68551693 -0.6887699,-1.6180854 -0.058997,-0.24491698 -0.097229,-0.44500366 -0.038232,-0.20008668 -0.07612,-0.44012202 l 1.4883416,-0.35852179 q 0.021661,0.21404482 0.061819,0.46350004 0.030738,0.25172435 0.096542,0.52490098 0.1089181,0.45215441 0.3338306,0.80660188 0.2271816,0.36386736 0.6125755,0.63979105 0.375974,0.27819281 0.9241185,0.48501259 0.5481444,0.20681978 1.2895681,0.34714816 l 8.547644,-6.05557505 0.4492867,1.86513695 -5.6784449,3.89934959 -1.3537764,0.8343976 1.6387906,0.18329321 6.7503676,0.71605 z"
                 style="font-size:19.8438px"
                 id="path17710" />
            <path
                 d="m 114.7951222,73.96836368 q -1.2978586,-0.0364492 -2.2560735,-0.43169949 -0.9584869,-0.38556481 -1.5797782,-1.04276119 -0.6212912,-0.65719638 -0.9164324,-1.53786877 -0.2951411,-0.88067238 -0.2665802,-1.89765117 0.013056,-0.46490459 0.07454,-0.92844913 0.061212,-0.45385904 0.1907665,-0.92518503 l -4.0679151,-0.11424363 0.04733,-1.68527913 13.6953143,0.3846202 -0.042161,1.5012544 -1.6301582,0.0608432 q 0.9772072,0.7544303 1.3511924,1.5888512 0.3836708,0.8346929 0.3567419,1.79355861 -0.023393,0.83295406 -0.3897517,1.45272004 -0.366359,0.61976599 -1.0175712,1.02797596 -0.6415267,0.40848198 -1.5482635,0.59626645 -0.8970513,0.18805647 -2.0012001,0.15704748 z m -0.029067,-1.72619725 q 0.7651555,0.0214887 1.4076634,-0.0767849 0.6422359,-0.0885881 1.1042552,-0.31794146 0.4620193,-0.22935341 0.724451,-0.60001616 0.2721171,-0.37039074 0.2868056,-0.89340841 0.00898,-0.3196219 -0.088316,-0.65192141 -0.087607,-0.3320275 -0.3196803,-0.69719167 -0.22266,-0.35520665 -0.6086136,-0.76346501 -0.3765402,-0.39830083 -0.9451585,-0.86015491 l -4.7168445,-0.13246821 q -0.2067666,0.45946442 -0.3374092,0.96953247 -0.1209571,0.51034005 -0.1348296,1.00430118 -0.038353,1.36565722 0.8600098,2.16633902 0.9080485,0.80095381 2.7676667,0.85317947 z"
                 style="font-size:19.8438px"
                 id="path17712" />
            <path
                 d="m 112.0671892,85.83466791 q -0.3434154,-0.10291693 -0.5726713,-0.18173689 -0.2292559,-0.07882 -0.4278857,-0.15857681 l 1.9609847,-6.54345511 q -1.4293505,-0.42835694 -2.438927,0.13898407 -1.0002951,0.57012254 -1.4509043,2.07372499 -0.1223877,0.40838585 -0.2169309,0.82511632 -0.085262,0.419512 -0.1436158,0.8167426 -0.058354,0.39723059 -0.096301,0.76011673 -0.031446,0.37494918 -0.036922,0.69699092 l -1.3272541,-0.39776001 q 0.011859,-0.71461704 0.1508199,-1.58333019 0.1268974,-0.8622132 0.3939252,-1.75323688 0.3588184,-1.19731306 0.9423539,-1.9631384 0.5835355,-0.76582533 1.3630066,-1.13913358 0.785971,-0.36124522 1.7576593,-0.36338091 0.9781883,0.009927 2.1105308,0.34927504 0.9838387,0.29484309 1.7728532,0.83475262 0.7955145,0.55197256 1.2931715,1.2877886 0.504157,0.74787908 0.6575491,1.65363091 0.153392,0.90575184 -0.1470141,1.90815347 -0.2920616,0.97455715 -0.8236556,1.6345676 -0.531594,0.66001045 -1.2507499,1.00081891 -0.712656,0.35287149 -1.5980293,0.37075954 -0.8788733,0.0299511 -1.8719932,-0.26767354 z m 0.7354959,-1.61041243 q 0.6135156,0.21420758 1.1685026,0.21868826 0.5642684,0.007262 1.0301006,-0.19704713 0.4630506,-0.19502784 0.8063205,-0.59790883 0.3525513,-0.40009944 0.5361329,-1.01267822 0.1585477,-0.5290453 0.085087,-1.02646949 -0.073461,-0.49742419 -0.3501481,-0.92425662 -0.2766876,-0.42683243 -0.7380391,-0.77751002 -0.4613515,-0.35067759 -1.0693041,-0.58344816 z"
                 style="font-size:19.8438px"
                 id="path17714" />
            <path
                 d="m 114.7869877,98.15321124 -8.3383737,-5.49004401 0.7876196,-1.26735464 8.6298953,5.02095819 z m -9.0669014,-6.8326255 q -0.1380891,0.22219854 -0.3513604,0.36344982 -0.2050417,0.14636568 -0.440119,0.19420903 -0.2401918,0.0560729 -0.4970754,0.0105084 -0.2537683,-0.0322206 -0.4759669,-0.17030974 -0.2221985,-0.13808915 -0.3634498,-0.3513604 -0.1463657,-0.20504167 -0.2024386,-0.44523346 -0.052958,-0.22684781 -0.012508,-0.47550176 0.032221,-0.25376836 0.1703098,-0.4759669 0.1432035,-0.23042812 0.3564748,-0.37167939 0.2050416,-0.14636568 0.4370039,-0.20755302 0.2401918,-0.0560729 0.4939601,-0.0238523 0.248654,0.0404502 0.4708525,0.17853931 0.2221985,0.13808916 0.3685642,0.34313083 0.1494809,0.21838566 0.2055538,0.45857745 0.056073,0.2401918 0.015623,0.48884575 -0.032221,0.25376835 -0.175424,0.48419638 z"
                 style="font-size:19.8438px"
                 id="path17716" />
            <path
                 d="m 84.4908818,106.7425595 q 0.43723223,-0.3959278 0.94951945,-0.7329201 0.5077537,-0.3455555 1.06436873,-0.6402349 1.61846522,-0.8568371 2.80020289,-0.5505742 1.1862712,0.3148262 1.98870596,1.8305317 l 2.37556957,4.4871734 2.40628956,-1.2739218 0.66189534,1.250243 -2.40628956,1.2739218 1.2512542,2.363473 -1.28600676,1.1741831 -1.45526304,-2.7488219 -3.86205193,2.0446219 -0.66189534,-1.250243 3.86205193,-2.0446219 -2.31210015,-4.3672871 q -0.48962121,-0.9248373 -1.22254037,-1.1288447 -0.73694895,-0.1909106 -1.69603945,0.3168447 -0.41103878,0.2176095 -0.86741263,0.5359638 -0.45184032,0.3269177 -0.91022895,0.7450094 z"
                 style="font-size:19.8438px"
                 id="path17718" />
            <path
                 d="m 75.20263107,119.086804 1.32463661,-9.2159656 q 0.20987832,-1.4077505 0.5383276,-2.4647727 0.3189959,-1.0548971 0.81848614,-1.792849 0.49736505,-0.7474053 1.18988084,-1.2010228 0.6925158,-0.4536174 1.62840195,-0.6640116 0.24578828,-0.055255 0.44643478,-0.090431 0.2006465,-0.035176 0.44123177,-0.069399 l 0.33578073,1.4936364 q -0.21435029,0.018394 -0.46438896,0.054742 -0.25216386,0.026895 -0.52631233,0.088525 -0.45376298,0.1020093 -0.81159947,0.3214898 -0.36728988,0.2216057 -0.64905929,0.6027466 -0.2838946,0.3716874 -0.49905032,0.9166138 -0.21515572,0.5449264 -0.36677557,1.2841237 l 5.92450679,8.639006 -1.87177229,0.4207885 -3.81229155,-5.7372551 -0.8136535,-1.3663448 -0.20826582,1.6358045 -0.81891959,6.7386617 z"
                 style="font-size:19.8438px"
                 id="path17720" />
            <path
                 d="m 62.2432549,114.360759 q 0.0560547,-1.2971598 0.46573791,-2.2492933 0.40000288,-0.9525519 1.06651152,-1.5638424 0.66650864,-0.6112906 1.55153988,-0.8930917 0.88503123,-0.281801 1.90146239,-0.2378776 0.46465425,0.020079 0.9272169,0.08856 0.45288235,0.068062 0.92219707,0.2047236 l 0.17569397,-4.0657246 1.68437164,0.072788 -0.59150304,13.6879396 -1.500446,-0.064839 -0.0362057,-1.6308914 q -0.76910911,0.9656966 -1.60908542,1.3270317 -0.84039462,0.3710154 -1.798744,0.3296018 -0.83250552,-0.035975 -1.44666533,-0.4116569 -0.6141598,-0.3756814 -1.01248381,-1.032987 -0.39874232,-0.6476253 -0.57280519,-1.557096 -0.17448118,-0.8997903 -0.12679279,-2.0033448 z m 1.72643937,-0.00298 q -0.0330472,0.7647434 0.0555073,1.4086629 0.0788742,0.643501 0.30122064,1.108933 0.22234643,0.4654319 0.58900171,0.7334341 0.36623696,0.2776824 0.88897298,0.3002716 0.3194498,0.013805 0.6531814,-0.078456 0.33331328,-0.08258 0.70194223,-0.3091097 0.35853034,-0.2172676 0.77257359,-0.5970087 0.40394463,-0.3704791 0.87433742,-0.9320543 l 0.20372134,-4.7143045 q -0.45628786,-0.2136852 -0.96432377,-0.3520197 -0.50845422,-0.1286542 -1.00214935,-0.1499885 -1.36492184,-0.058983 -2.17908589,0.8271797 -0.81458236,0.895843 -0.8948996,2.7544601 z"
                 style="font-size:19.8438px"
                 id="path17722" />
            <path
                 d="m 50.41940565,111.4538777 q 0.10810263,-0.3418185 0.19038328,-0.5698552 0.0822807,-0.2280367 0.16503457,-0.4254367 l 6.51302673,2.0597933 q 0.44994067,-1.4227037 -0.10205572,-2.4407511 -0.55491808,-1.0088091 -2.05152848,-1.4821233 -0.40648677,-0.1285545 -0.82173862,-0.229394 -0.41817355,-0.091601 -0.81447547,-0.1559605 -0.39630193,-0.064359 -0.7585722,-0.1077936 -0.3744303,-0.037118 -0.69635228,-0.047467 l 0.41780205,-1.321082 q 0.71435569,0.022673 1.58086623,0.1747657 0.86019389,0.1399323 1.74707412,0.4204148 1.19174532,0.3768984 1.94865131,0.9719575 0.75690598,0.5950592 1.11837442,1.3800909 0.3493084,0.7913484 0.33673764,1.7629577 -0.0247308,0.977926 -0.38117728,2.1050029 -0.30969943,0.9792636 -0.86148861,1.7600164 -0.56394921,0.7870694 -1.30721287,1.2735331 -0.75542368,0.4927803 -1.66339331,0.6324466 -0.90796964,0.1396662 -1.9057099,-0.1758766 -0.97002526,-0.3067778 -1.6219146,-0.8482999 -0.65188935,-0.5415222 -0.98177456,-1.2657538 -0.34204525,-0.7179149 -0.34653139,-1.6034576 -0.0166462,-0.8792259 0.29597494,-1.8677276 z m 1.59909647,0.7597847 q -0.22346842,0.6102034 -0.23634814,1.165059 -0.0158014,0.5640939 0.18143429,1.0329649 0.18799738,0.4659492 0.58563693,0.8152773 0.39471786,0.3585663 1.00444802,0.551398 0.52658514,0.1665365 1.02506416,0.1006127 0.49847902,-0.065924 0.92945015,-0.3361197 0.43097112,-0.2701959 0.78859096,-0.7261872 0.35761984,-0.4559912 0.59956493,-1.0603513 z"
                 style="font-size:19.8438px"
                 id="path17724" />
            <path
                 d="m 38.05993583,113.9850129 5.61675535,-8.2535519 1.25517754,0.806884 -5.15217665,8.5522038 z m 6.97030703,-8.9614894 q -0.2200636,-0.1414666 -0.35804111,-0.3568703 -0.14321702,-0.2072532 -0.18746446,-0.4430339 -0.0523979,-0.2410202 -0.002915,-0.4971778 0.0360926,-0.2532467 0.1775593,-0.4733103 0.14146668,-0.2200636 0.35687037,-0.3580411 0.2072532,-0.143217 0.44827338,-0.195615 0.22763017,-0.049487 0.47563732,-0.00524 0.25324665,0.036093 0.47331025,0.1775593 0.2282141,0.1467062 0.36619161,0.3621099 0.14321702,0.2072532 0.20085447,0.4401229 0.0523979,0.2410201 0.0163053,0.4942668 -0.0442431,0.2480071 -0.1857098,0.4680707 -0.14146667,0.2200636 -0.34871987,0.3632807 -0.2206432,0.146128 -0.46166338,0.1985259 -0.24102018,0.052398 -0.48902733,0.00815 -0.25324666,-0.036093 -0.48146075,-0.1827988 z"
                 style="font-size:19.8438px"
                 id="path17726" />
            <path
                 d="m 29.93183814,83.56318099 q 0.38923905,0.44319732 0.71840889,0.96054554 0.33780105,0.51294531 0.62398949,1.07397332 0.83214793,1.63129683 0.50796553,2.80824487 -0.33281359,1.18135093 -1.86053602,1.96066407 l -4.52274887,2.30711913 1.23721465,2.42536724 -1.26015522,0.64282326 -1.23721465,-2.42536723 -2.38221124,1.21520015 -1.15450845,-1.30369837 2.77061525,-1.41333061 -1.9857075,-3.89267126 1.26015522,-0.64282327 1.9857075,3.89267126 4.40191207,-2.24547854 q 0.93216961,-0.4755131 1.14728917,-1.20524806 0.20208546,-0.73396326 -0.29103924,-1.70065767 -0.21133915,-0.41429761 -0.5227228,-0.87545572 -0.32001485,-0.45675522 -0.7310938,-0.92144324 z"
                 style="font-size:19.8438px"
                 id="path17728" />
            <path
                 d="m 17.73108859,74.08753917 9.19470283,1.4649654 q 1.40438765,0.23131284 2.45628038,0.57583659 1.04991189,0.33503905 1.78016416,0.84572015 0.73973696,0.50870027 1.18274537,1.20805028 0.44300842,0.69935001 0.63911213,1.63833454 0.051502,0.246602 0.0836151,0.44776138 0.0321131,0.20115939 0.0626648,0.44223838 l -1.49858137,0.31297361 q -0.0151245,-0.21460577 -0.0476571,-0.46516946 -0.0230479,-0.25254453 -0.0804924,-0.52760061 -0.0950806,-0.45526523 -0.30908095,-0.81640577 -0.21598121,-0.37062524 -0.59278265,-0.65817179 -0.36731674,-0.2895274 -0.90890011,-0.51296466 -0.54158336,-0.22343725 -1.27838357,-0.38630737 l -8.72831193,5.79213058 -0.39220742,-1.87796907 5.79470086,-3.72439331 1.37858887,-0.79273121 -1.63243981,-0.23317686 -6.72539559,-0.92154458 z"
                 style="font-size:19.8438px"
                 id="path17730" />
            <path
                 d="m 22.65262923,61.20240705 q 1.29616511,0.0756413 2.24200199,0.49965919 0.94640138,0.41434504 1.54755491,1.09001087 0.60115353,0.67566583 0.86955454,1.56485256 0.268401,0.88918673 0.20912985,1.9048385 -0.0270954,0.46429795 -0.10255513,0.92577346 -0.0748953,0.45180264 -0.21862962,0.91899962 l 4.06260707,0.23708458 -0.0982208,1.68308007 -13.67744377,-0.79818475 0.0874955,-1.49929546 1.63125219,-0.0115678 q -0.95396949,-0.78360771 -1.30257592,-1.62894597 -0.3582793,-0.84590274 -0.30239508,-1.80351727 0.0485459,-0.83186716 0.43346102,-1.44028243 0.38491512,-0.60841527 1.04816223,-0.99676558 0.65357424,-0.38891479 1.56557024,-0.54922072 0.90232312,-0.16087041 2.00503078,-0.0965189 z m -0.0230957,1.72628746 q -0.76415705,-0.0445945 -1.40934057,0.0342239 -0.64461904,0.0691455 -1.1133563,0.28443642 -0.46873725,0.21529095 -0.74224697,0.57785637 -0.28318259,0.36200094 -0.3136649,0.88433613 -0.0186281,0.31920484 0.068581,0.65429191 0.0775362,0.33452259 0.29847201,0.7065311 0.21182744,0.36177116 0.5852713,0.78150296 0.36433547,0.40949444 0.9187415,0.88831587 l 4.71068962,0.27490521 q 0.22055286,-0.4530082 0.36654517,-0.95889668 0.13631943,-0.50645296 0.16510827,-0.99976953 0.0795927,-1.36387523 -0.79417138,-2.19133142 -0.88343693,-0.82802068 -2.74062875,-0.93640224 z"
                 style="font-size:19.8438px"
                 id="path17732" />
            <path
                 d="m 25.73788553,49.42367952 q 0.3401423,0.11326618 0.56690693,0.19899042 0.22676464,0.0857242 0.42288892,0.17145777 l -2.15817991,6.48108982 q 1.41572742,0.47143221 2.44201668,-0.0650852 1.01709623,-0.53957868 1.51301842,-2.02885039 0.13469491,-0.40449355 0.24181072,-0.81817084 0.0979228,-0.41673854 0.16827574,-0.81202047 0.070353,-0.39528194 0.11926789,-0.75685298 0.0427831,-0.37382532 0.0580058,-0.69555368 l 1.31460403,0.43775848 q -0.0334879,0.71393046 -0.19868381,1.57803861 -0.15294162,0.85797636 -0.44682144,1.74050774 -0.394901,1.18590154 -1.00135331,1.93371013 -0.6064523,0.74780859 -1.39686751,1.09734833 -0.796547,0.33728546 -1.76785457,0.31000366 -0.97743937,-0.0395361 -2.09898966,-0.41300835 -0.97446173,-0.32449229 -1.7467696,-0.88804067 -0.77843966,-0.57580266 -1.25359277,-1.32634732 -0.4812849,-0.76279894 -0.60718629,-1.67277935 -0.12590139,-0.90998041 0.20471341,-1.90282822 0.32143105,-0.96526869 0.8727623,-1.60888336 0.55133126,-0.64361466 1.28047505,-0.96249547 0.72301201,-0.33113508 1.60852102,-0.32221149 0.87937722,-0.003331 1.86303196,0.32422283 z m -0.78391179,1.58740818 q -0.60674961,-0.23268273 -1.16134652,-0.25396281 -0.56378994,-0.0243413 -1.03559378,0.16577194 -0.4687426,0.18092024 -0.82405178,0.57322454 -0.36450221,0.38924306 -0.56654458,0.99598338 -0.17449115,0.52400301 -0.11612303,1.02342312 0.0583681,0.49942011 0.32200709,0.93443323 0.26363897,0.43501313 0.71416273,0.79949676 0.45052376,0.36448363 1.05115088,0.61555243 z"
                 style="font-size:19.8438px"
                 id="path17734" />
            <path
                 d="m 23.39604088,37.02628805 8.16678662,5.7421822 -0.8259641,1.24270502 -8.47250061,-5.28221996 z m 8.85396446,7.10639047 q 0.14481189,-0.21787686 0.36229821,-0.35254774 0.20941681,-0.14003428 0.4458459,-0.18067474 0.2417925,-0.04871 0.49716436,0.00468 0.25266575,0.039957 0.4705426,0.18476892 0.21787685,0.14481189 0.35254773,0.36229821 0.14003429,0.20941681 0.18874426,0.4512093 0.0460039,0.22835958 -0.002023,0.47566193 -0.039957,0.25266575 -0.18476892,0.4705426 -0.15017529,0.22594637 -0.36766161,0.36061725 -0.20941681,0.14003428 -0.44313979,0.19410766 -0.2417925,0.04871 -0.49445825,0.008753 -0.24730234,-0.0480265 -0.4651792,-0.19283844 -0.21787685,-0.14481189 -0.35791113,-0.3542287 -0.1427404,-0.22284972 -0.19145037,-0.46464222 -0.04871,-0.24179249 -6.8343e-4,-0.48909484 0.039957,-0.25266575 0.19013264,-0.47861219 z"
                 style="font-size:19.8438px"
                 id="path17736" />
        </g>
        <circle
             style="opacity:0.664659;fill:#4ff700;fill-opacity:0.893665;stroke-width:0.396875;stroke-linecap:round;stroke-linejoin:bevel;paint-order:markers stroke fill;filter:url(#filter18068)"
             id="path18044"
             cx="69.13539124"
             cy="66.3135376"
             r="21.69299316" />
        <text
             xml:space="preserve"
             transform="matrix(0.3847264093,0,0,0.3847264093,-20.96716803,-25.21719062)"
             id="text20700"
             style="font-style:normal;font-variant:normal;font-weight:normal;font-stretch:normal;font-size:20px;line-height:1.25;font-family:'UD Digi Kyokasho N-R';-inkscape-font-specification:'UD Digi Kyokasho N-R, Normal';font-variant-ligatures:none;font-variant-caps:normal;font-variant-numeric:normal;font-variant-east-asian:normal;white-space:pre;shape-inside:url(#rect20702)"><tspan
                 x="157.3125"
                 y="238.7363281"
                 id="tspan23196">タイピング練習!</tspan></text>
    </g>
</svg>
