<?xml version="1.0" encoding="UTF-8" standalone="no"?>
<!-- Created with Inkscape (http://www.inkscape.org/) -->

<svg
     width="100"
     height="100"
     viewBox="0 0 100 100"
     version="1.1"
     id="svg5"
     sodipodi:docname="updated.svg"
     inkscape:version="1.1 (c68e22c387, 2021-05-23)"
     inkscape:export-filename="C:\Program Files\XAMPP\htdocs\koko-campus.org\program\pics\framework\updated.png"
     inkscape:export-xdpi="96"
     inkscape:export-ydpi="96"
     xmlns:inkscape="http://www.inkscape.org/namespaces/inkscape"
     xmlns:sodipodi="http://sodipodi.sourceforge.net/DTD/sodipodi-0.dtd"
     xmlns="http://www.w3.org/2000/svg"
     xmlns:svg="http://www.w3.org/2000/svg">
    <sodipodi:namedview
         id="namedview7"
         pagecolor="#ffffff"
         bordercolor="#666666"
         borderopacity="1.0"
         inkscape:pageshadow="2"
         inkscape:pageopacity="0.0"
         inkscape:pagecheckerboard="0"
         inkscape:document-units="px"
         showgrid="false"
         units="px"
         width="600px"
         inkscape:zoom="2.12159810558638"
         inkscape:cx="-71.4084348025601"
         inkscape:cy="119.485400808244"
         inkscape:window-width="1920"
         inkscape:window-height="1009"
         inkscape:window-x="-8"
         inkscape:window-y="-8"
         inkscape:window-maximized="1"
         inkscape:current-layer="layer1" />
    <defs
         id="defs2" />
    <g
         inkscape:label="レイヤー 1"
         inkscape:groupmode="layer"
         id="layer1">
        <g
             id="g951"
             transform="matrix(0.174721955551488,0,0,0.174721955551489,71.2696935226477,87.8724817210198)">
            <path
                 style="fill:#d1eaf4"
                 d="m -142.817993164062,55.604060786857 c -16.868078501838,-1.576021535303 -46.131112929753,-8.83896197835 -62.665745160199,-15.5533280746691 -66.672128168098,-27.0741478069879 -118.271859865939,-82.305187065715 -139.339822859354,-149.1457992788549 -8.007704587978,-25.405392882533 -10.62925589448,-41.907985644041 -10.994544607866,-69.210353355208 -0.315800104353,-23.603495690772 0.509741649237,-33.066882579464 4.568879280316,-52.374179851384 11.537018858021,-54.875856146899 40.824975082066,-102.540392400286 84.931233347103,-138.220906230196 28.888762823422,-23.370059986866 69.327264835551,-41.933998282753 104.109896904031,-47.793306031414 l 7.390103095969,-1.244899703058 0.263664333474,-32.683354091974 c 0.176440489814,-21.871244126252 0.609018844793,-32.683354091974 1.307618179348,-32.683354091974 1.625080241411,0 167.9265959013081,83.408074619902 167.927720043214,84.223693022492 0.0013077041,0.948801524588 -165.643592403165,83.776306977508 -167.542387335753,83.776306977508 -1.246925877627,0 -1.456615220283,-4.894523653906 -1.456615220283,-34 0,-19.256577384243 -0.386812824672,-34 -0.892034121358,-34 -1.93172558866,0 -24.030484882605,6.069719894031 -31.107965878642,8.544219014511 -10.016359395693,3.502018942748 -29.617964147825,12.987692868452 -39.5,19.11497169764 -34.909588801051,21.645416753801 -64.620355857728,56.459429807641 -80.052723220378,93.802914811095 -19.087211917046,46.187535277771 -21.455623006966,94.269980151843 -6.922516288524,140.537894476754 9.407680662918,29.950496569027 24.566511631987,56.0006368902429 45.574753744315,78.3192801982389 27.272829787904,28.9739882462 59.82883170652,48.65613537120392 96.036228820053,58.059929769385 14.578361410143,3.786295737677 32.314960504852,6.715824599347 44.364256944534,7.3275812601699 10.506069838034,0.533405268487 34.5218344348311,-0.9679965902239 43.0000000000011,-2.688245867184 2.2,-0.44638765075 7.375,-1.4994963400341 11.5,-2.340241531742 24.006955000269,-4.893025935518 54.355982179955,-18.71011146970808 74.99999999999995,-34.145457412153 3.02499999999998,-2.26176521852 6.625,-4.824476841967 8.00000000000004,-5.694914718771 1.375,-0.8704378768039 7.581742909559,-6.425710902287 13.7927620212419,-12.3450511677419 21.2608989076321,-20.262454956379 39.4754574399,-48.38853805748 50.184684556957,-77.4928805302019 7.0377547897961,-19.126424661871 12.0225534218011,-45.131488852576 12.0225534218011,-62.720141083079 v -7.279858916921 h 17.4999999999989 17.5 l -0.0096258051,4.75 c -0.0245030298,12.091392910398 -4.474244240322,42.851810480497 -8.137013826989,56.25 -6.585559249532,24.0895772527779 -19.7003986654148,53.5755414332579 -30.4974916105629,68.5672097619759 -2.799416678944,3.886965369088 -5.673347248626,8.161965369088 -6.386512377072,9.5 -6.9277809495639,12.9978464399919 -38.231425618911,43.812589475001857 -59.3598752574829,58.432790238023 -3.974175009486,2.75 -9.337107129631,6.484118305352 -11.91762693365603,8.298040678561 -2.58051980402399,1.8139223732081 -4.691854189135028,3.0807632761691 -4.691854189135028,2.81520200658 0,-0.26556126959 -4.837499999999993,1.929511287321 -10.75000000000004,4.877939015357 -25.1112863326221,12.522420788119 -57.5567195417821,22.308856925457 -80.75,24.3564236913001 -12.0365060235751,1.062615948405 -40.9212607002901,1.096986205139 -52.0000000000021,0.061875316935 z"
                 id="path965" />
            <path
                 style="fill:#acd9ec"
                 d="m -137.817993164062,55.584420012101 c -23.788693450658,-1.986931537929 -45.576980342885,-7.3184421266371 -72.259534761196,-17.6816321824661 -2.892744118658,-1.123507765207 -10.918435631152,-5.020530545332 -17.834870027764,-8.660050622501 -64.647069336449,-34.01815057992596 -110.008797999797,-94.873360003602 -123.772993636344,-166.0481571290089 -3.973381047602,-20.546394241452 -5.272098232372,-41.707063223608 -3.731542497273,-60.799946673233 1.609443148045,-19.946639867888 1.75806447959,-20.998458746063 5.11504427146,-36.200053326767 7.738884473539,-35.044412408614 24.857566247432,-70.691569636184 47.274045106562,-98.441301786852 7.920543752023,-9.804972894606 26.175807136242,-27.997628733671 35.709851544555,-35.587382419022 29.926325913193,-23.823409317314 67.091492973545,-41.120207886684 104,-48.401963276349 l 8.5,-1.676982511587 0.263664333474,-32.696185003095 c 0.14501538341,-17.982901751702 0.59501538341,-32.711604731914 1,-32.730451067137 1.079839556859,-0.05025133658 168.2236566319521,83.443960368263 168.2305185515681,84.037057289703 0.0075566155,0.653141630943 -166.6819168458471,83.997208774339 -167.9957672178941,83.997208774339 -0.644977445077,0 -0.998415667148,-12.035968530772 -0.998415667148,-34 0,-24.189399403286 -0.319398106871,-34 -1.10691853435,-34 -2.868917547312,0 -16.556397794524,3.583586838071 -27.39308146565,7.171918017161 -30.499275208885,10.09916903483 -56.242806716347,26.245699018784 -80.039585093649,50.201409245005 -30.446979123104,30.650325753028 -48.737958531348,66.080651182135 -56.594998475365,109.626672737834 -2.958913391912,16.399166513565 -3.265048247993,50.113591819889 -0.590215181318,65 0.938843178574,5.225 1.950861125096,10.85 2.248928770047,12.5 0.298067644951,1.65 1.684815720629,7.05 3.081662390396,12 7.256014497311,25.713109777248 19.488427945602,49.8669678936399 35.957044652804,70.9999999999989 7.205615529856,9.24646599322 28.174323411746,30.061084882933 36.937162937085,36.665729416102 37.418169292269,28.20246867955696 84.364186479545,43.177515115587 130,41.467970092499 15.303617513587,-0.573282716739 20.988855936871,-1.234187654382 39.4271417177219,-4.583377283121 7.996248050709,-1.452464256089 28.5847852229861,-8.41462413175602 38.520172697041,-13.02586961429098 4.76909609736,-2.21344893615401 8.8297036524689,-4.024452611188968 9.0235723446869,-4.024452611188968 1.057007013422,0 25.133045263333759,-15.171294682108952 31.52911324054975,-19.86778152920095 4.12500000000025,-3.028893425347 13.81268509797625,-11.835235346191 21.52818910661435,-19.569648712987 14.041027549876,-14.075439665864 21.607503133737,-24.097737412325 33.446625457753,-44.302269297871 13.9974614439571,-23.887932595085 24.564301599117,-60.816464267219 25.111994031132,-87.76030045994 0.100619582122,-4.95 0.39539516634,-9.5625 0.655056853817,-10.25 0.351288997012,-0.930099422028 4.675451175641,-1.25 16.8965081512071,-1.25 14.009329188582,0 16.513071006253,0.231083382553 17.027457383238,1.571552793754 1.635421879608,4.261841102541 -3.449613646964,40.795564044675 -8.209935440823,58.984741640541 -14.5983376162779,55.780211297786 -46.188920630183,100.906758412545 -95.5166411566301,136.443705565704 -3.4354697880149,2.475 -7.077221483667,4.8229991081751 -8.09278154589521,5.217775795945 -1.01556006222699,0.39477668777 -1.84647284041295,1.0799449162441 -1.84647284041295,1.522596063276 0,0.442651147031 -1.46249999999998,1.536967936581 -3.25,2.431815087888 -1.78750000000003,0.894847151306 -7.75000000000001,3.877880994561 -13.25000000000001,6.62896409612 -40.36047007756193,20.188183127522 -84.61803057364782,28.795657285272 -128.99999999999971,25.088688890748 z"
                 id="path963" />
            <path
                 style="fill:#90cee7"
                 d="m -129.817993164062,56.0605788837109 c -46.532013333085,-3.5929702294209 -82.361857980632,-15.4181672765549 -118.5,-39.109459275351 -15.061179421742,-9.87374501255496 -24.08870505241,-17.259021481045966 -37.5431115508,-30.713427979435 -13.466253986556,-13.4662539865569 -20.851970906856,-22.496763489918 -30.705110726947,-37.5431115508 -33.016137293585,-50.4176640558979 -45.489850773189,-108.4885511962369 -36.194052214734,-168.4999999999999 11.811903050335,-76.254816702692 61.784181592594,-143.294487269684 131.960494339116,-177.029911911471 18.12867151123,-8.71488409247 39.5092696888,-15.829986098389 57.231780153365,-19.04576992606 l 9.25,-1.678430404396 v -32.872943879037 c 0,-18.08011913347 0.226058811665,-32.872943879036 0.502352914812,-32.872943879036 0.276294103146,0 38.389999348322,18.944884542933 84.6971227670569,42.099743428739 l 84.1947698522451,42.099743428739 -83.819926793852,41.900256571261 c -46.100959736618,23.045141114194 -84.214664981794,41.900256571261 -84.697122767057,41.900256571261 -0.48572804323,0 -0.877195973205,-15.173245233342 -0.877195973205,-34 0,-29.155097693755 -0.208227476954,-34 -1.461274917209,-34 -4.975426951236,0 -28.332114864239,6.78435118256 -39.538725082791,11.484701823798 -27.631163920314,11.589245678947 -48.451399913485,25.9055543785 -70.033154306585,48.155854553493 -15.494130599119,15.974097865332 -24.416626049107,28.392260141806 -34.530415192332,48.058785990524 -5.157092077037,10.028099577813 -12.80547222911,28.441181274391 -13.839059692871,33.316824172187 -0.289601299577,1.366108402999 -1.646852785304,6.758833459998 -3.016114412726,11.983833459998 -5.034733954976,19.212168359883 -7.131009872303,51.556893273851 -4.56913615944,70.5 0.520675617633,3.85 1.232180479067,9.25 1.581121914299,12 0.348941435232,2.75 1.92749460796,10.016298484257 3.507895939397,16.147329965016 9.386123622524,36.4126619405319 27.448279055082,68.0869907963749 53.826938099839,94.3925073086329 37.165915088251,37.062861739420142 84.645626143245,57.793402170389 136.626817619515,59.653854323912 25.8952756408491,0.926814487392 41.9486419459091,-1.1664265285769 71.1428016813901,-9.2764986259279 15.4776145732249,-4.29964661498095 42.795317047602,-18.45452012913895 60.25546327935684,-31.221822627883 4.15076267658606,-3.035143119025 14.31091753220316,-12.308250904152 22.57812190137016,-20.60690618917 17.203711159252,-17.269159217367 25.94832013156,-29.384111181437 37.236709468731,-51.58846415458 13.2476097919859,-26.058155427285 21.920855461345,-60.08639867265 22.187099328332,-87.047922039244 l 0.04491053172,-4.547922039244 16.2499999999999,0.178895148722 c 8.9375,0.0983923318 16.572422284239,0.232457249457 16.966493964976,0.297922039244 0.823391491585,0.136785142257 0.185782124797,11.717420846426 -1.327951060377,24.119026890522 -3.54571592784,29.049090362817 -10.360410577242,53.255371420192 -21.8503713735599,77.614076328832 -4.5635403525851,9.674700789485 -14.59657590134,27.055990166777 -19.271421800185,33.385923671169 -17.3345362050149,23.471674549603 -30.301055982268,37.3758978892955 -46.8038494327829,50.18857695435054 -10.8398945116441,8.41603513327716 -21.0904994377981,15.81142304564916 -21.91590933182913,15.81142304564916 -0.52118590650503,0 -1.30747129020699,0.591496549063 -1.74730085267095,1.314436775695 -0.85017101678102,1.397411361129 -23.42001661904382,12.742875970373 -34.29969011357092,17.241851235904 -17.395251998114,7.193304883327 -42.952302941096,13.998875286475 -59.947339117685,15.963337779345 -12.7407773949421,1.4727111529691 -35.7557744688402,2.448409736441 -43.5526608823112,1.8463730146412 z"
                 id="path961" />
            <path
                 style="fill:#77c3e1"
                 d="m -132.317993164062,55.54203232617 c -73.00279142979,-4.536934041327 -141.093234282685,-43.110750040889 -181.765606003273,-102.971764424659 -18.724842867717,-27.558955645335 -33.036404597376,-62.821044621545 -38.10062705318,-93.875687823386 -3.190203592882,-19.562851984244 -4.422527269508,-48.213724522279 -2.674590385418,-62.18280933612 3.930027475958,-31.407820060354 8.657166316863,-49.760414570345 19.013339444936,-73.81719066388 14.951338511565,-34.731072802979 41.418451251483,-69.071062943088 70.730699024271,-91.770172703168 30.113800315315,-23.319823984467 65.179081941523,-39.586176535845 100.046784972664,-46.410472140082 l 10.75,-2.103986536768 v -32.857684309991 c 0,-18.071726370495 0.224287050217,-32.857684309991 0.498415667148,-32.857684309991 1.032618446568,0 167.501584332852,83.518571957202 167.501584332852,84.036643404182 0,0.540963353241 -166.352700206369,83.963356595818 -167.431435915409,83.963356595818 -0.312710246525,0 -0.568564084591,-15.34222704565 -0.568564084591,-34.093837879223 v -34.093837879223 l -5.25,0.708294711982 c -7.558397436012,1.019728178092 -29.130496388209,7.806183899512 -39.955124104303,12.569647542343 -25.192511358983,11.086165277695 -44.288540804312,24.455921065464 -64.336202966766,45.043883307818 -17.727044678014,18.20480231271 -27.901205422389,32.460864314162 -37.866943452328,53.059265252939 -14.361927423225,29.684980523116 -20.591729476603,56.984333278466 -20.591729476603,90.234149015976 0,54.996572390683 20.42849588757,104.760620560058 58.991614126945,143.7042425031725 33.213616318444,33.54133629028999 73.626793214894,53.4966302734439 120.417663294177,59.460058731756 15.448547224531,1.968894914804 45.963684252684,1.4265545610861 59.0907225788779,-1.05020938806 4.4,-0.830176701358 9.308686955023,-1.7292975334101 10.908193233385,-1.998046293447 10.111861982396,-1.698993249483 29.4742675847911,-8.53008674358212 43.8885611220631,-15.4839677725391 23.36428673316743,-11.27162214705595 40.0493964837501,-23.4668453850219 59.4603842197804,-43.4598675235039 21.5814596474156,-22.228575195616 37.5606863973698,-48.7935776330595 47.2005707065116,-78.4695840098015 5.7217748337201,-17.61425977807 10.015375587833,-41.737949821545 10.0347014590047,-56.380190320189 l 0.0075892593,-5.75 h 16.6481596720102 16.648159672011 l -0.649818974652,12.25 c -1.470370642387,27.718550968607 -8.795890383504,58.436332509114 -19.801558053744,83.0330073431524 -16.3833647047193,36.615342785527 -42.0084181703714,69.295963331906 -72.381832131297,92.31134653066591 -18.52509721705868,14.03734897214308 -21.9177292221676,16.22791067114808 -35.76421446023267,23.09231247998308 -41.15772890341833,20.4039641739179 -81.41928247764143,28.850501544669 -124.69889572414031,26.1607858942436 z"
                 id="path959" />
            <path
                 style="fill:#67badc"
                 d="m -140.317993164062,55.0472771530131 c -1.375,-0.2062163495951 -7.45,-1.086297899525 -13.5,-1.955736777623 -48.577677291202,-6.981044833827 -96.257685797009,-31.14145153628 -132.006597278997,-66.890363018268 -36.811377155564,-36.811377155564 -60.306265964728,-84.286002750149 -67.556242616334,-136.5065972789971 -2.775681981112,-19.992859321085 -2.363523584956,-51.520373203349 0.921644727127,-70.5 13.8258356714,-79.876942752019 64.308932747064,-145.255693967795 138.141195168204,-178.901441367901 10.63435463657,-4.846130920712 35.381087650404,-13.052885379312 44,-14.591711801979 3.575,-0.638282910639 8.6375,-1.613228022678 11.25,-2.166544693421 l 4.75,-1.006030310442 v -33.000469246462 c 0,-18.832832862699 0.381602350427,-32.857363843142 0.888860801373,-32.667135913128 3.122020107196,1.170794535497 167.0706874501989,83.431405993906 167.0887275570339,83.836124558994 0.02178091631,0.488641296656 -166.4831065421309,83.997208774339 -167.4791726912589,83.997208774339 -0.274128616932,0 -0.498415667148,-15.346466166664 -0.498415667148,-34.103258148142 v -34.103258148143 l -5.246702507856,0.639036014 c -16.084616363526,1.959068407684 -48.73878006706,14.925844261657 -65.590581334353,26.045633078096 -2.935506113215,1.937015962304 -5.557089324523,3.521847204189 -5.825740469573,3.521847204189 -1.706785801047,0 -22.328860878342,17.13136253047 -30.744286700056,25.540180569862 -17.716166868934,17.702256155829 -28.155333231839,31.993921166938 -38.995438656823,53.386422523635 -9.881375311188,19.500486984511 -18.326070303498,46.371128378181 -20.136485991142,64.073396906503 -0.365616196194,3.575 -0.866406414016,6.831012220454 -1.112867150715,7.235582712121 -0.592287305557,0.972252090236 -0.635223962216,40.478994769576 -0.04508660064,41.484942434265 0.251502625156,0.428711169488 0.760382415228,3.704474853614 1.130843977937,7.279474853614 1.078647365828,10.409080781901 6.138717145691,31.431493748628 9.748301796222,40.5 9.545059553677,23.9804411345541 15.166466464766,34.6498132843571 27.409944488017,52.0237910141661 10.303629746782,14.621256592025 31.263051542793,35.580678388037 45.884308134819,45.884308134819 17.42234948653,12.2775657002098 27.331361222225,17.4981187058789 52.203833552959,27.50353793412 8.028008738253,3.229417322337 28.563582193331,7.954710960719 41.819957461205,9.622890706273 11.016422419846,1.3863045046549 41.396760361605,2.101547940922 44.6262769536738,1.0506351752029 0.755547675479,-0.2458617798159 4.7487230463259,-0.724106663572 8.8737230463259,-1.0627664083459 13.5716013492651,-1.114219405849 49.307798360897,-11.24460083486912 56.7148167056551,-16.07733261931212 1.21814918811,-0.79478516530697 2.637775345148,-1.44506393692201 3.154724793418,-1.44506393692201 2.939726139089,0 34.94592223270377,-19.94193801725687 42.531683517764,-26.49999999999987 26.3900735520701,-22.814814700867 41.25858221076,-41.895267208205 55.716622479864,-71.5 5.368900557772,-10.9935277146941 14.2704757268421,-36.7118284491721 15.283355317713,-44.1564465644901 0.325029854748,-2.388954389531 1.013700813316,-5.814377743863 1.5303799079291,-7.612051898516 0.516679094612,-1.797674154652 0.936559059879,-3.489157627883 0.933066589482,-3.758852162735 -0.0084011537,-0.648751449187 1.1876391556869,-11.293982804466 1.626068185568,-14.47264937426 0.189651825018,-1.375 0.381825225612,-5.7625 0.42705200132,-9.75 l 0.08223050129,-7.25 h 16.6023359786651 16.602335978664 l -0.641052300215,11.747527326036 c -2.277479331303,41.735675341864 -15.768624018451,83.215261201136 -38.0527957673991,116.9963146806001 -10.729890410024,16.265670802278 -19.573501126025,27.238515456945 -32.021470870177,39.731127562711 -9.5191596800011,9.55329840120873 -38.643964653621,32.5250304306539 -41.2369936598433,32.5250304306539 -0.68879764783196,0 -1.252359359695,0.438443934196 -1.252359359695,0.974319853768 0,0.805088613642 -5.25553823884605,4.2099444395539 -7.000000000000017,4.53502375936 -0.274999999999977,0.05124607196 -5.100497532081023,2.4306877768369 -10.723327849068784,5.2876482330559 -5.6228303169881,2.85696045622 -11.922830316988,5.81038199452 -14,6.563158974001 -2.077169683012,0.7527769794811 -7.601672150931,2.811959763239 -12.276672150931,4.575961741684 -13.788038019272,5.202593870561 -37.4205786345579,10.9701612149809 -51.5,12.5686748231149 -11.623893509245,1.31972411875 -45.6859595805838,1.869848992656 -52.5000000000038,0.8479096899033 z"
                 id="path957" />
            <path
                 style="fill:#4fb1d9"
                 d="m -142.317993164062,54.623431729317 c -22.61641231411,-2.84458248869 -37.6488080775,-6.32491503644 -56.074622227942,-12.9825169530221 -65.016560574456,-23.491736905401 -116.759070877434,-74.3096085444269 -141.39593995968,-138.86919449938 -5.056419793501,-13.2500752101709 -9.356021104036,-29.0485095574079 -12.267907490958,-45.0771401987899 -2.361141424223,-12.997026240766 -2.64078335945,-17.039507386292 -2.697856856034,-39 -0.06212184854,-23.902975596709 0.195440268593,-27.012313081224 4.022880794182,-48.564960516106 3.067630006458,-17.274088923866 11.434028606175,-40.780758501748 21.638120772808,-60.795591942022 32.431125336537,-63.612084376697 91.100540079803,-108.509741560482 162.249025894114,-124.163521570379 6.58553550957,-1.448920843982 12.334499017067,-2.857387017566 12.775474461105,-3.129924830186 0.440975444038,-0.27253781262 0.766650640622,-14.74938081094 0.723722659076,-32.17076221849 -0.04292798155,-17.421381407549 0.283108510957,-31.762622783805 0.724525538896,-31.869425280568 0.658887492791,-0.159420287081 161.31796317737894,79.731559945225 165.3511728497871,82.224220606531 0.76624888846,0.47356785691 -30.877573142428,16.82028370469 -82.501650041146,42.619094143532 -46.0595631182871,23.017979384228 -83.8126746053731,41.851082349452 -83.8958033046371,41.85133992272 -0.08312869926,2.57573268e-4 -0.0267206413,-15.152819978462 0.125351239914,-33.67350567051 0.152071881216,-18.520685692049 -0.07631792309,-34.026786238118 -0.507532898452,-34.458001213488 -2.339272693309,-2.339272693334 -33.541049587807,7.329422682339 -51.768961431033,16.041981188573 -22.495602805096,10.752425031353 -38.692458579904,22.208352280777 -56.60665145486,40.037504187016 -31.908536901915,31.757062989169 -51.475755046136,70.638361679997 -58.529322588917,116.301461811195 -1.933732313385,12.518518000648 -2.147050571969,41.150254360876 -0.411635994825,55.250091382182 3.479416664387,28.269445551055 15.970807241803,62.205002767593 31.448853399071,85.437594581997 11.559355067295,17.350625213775 27.595969903767,35.228798970726 42.598756639531,47.490569599486 31.219403214741,25.51560374269607 71.386391543625,41.859961263539 111,45.167032936571 17.647523026105,1.473272084342 47.5182943366869,0.145809490324 57.9999999999999,-2.577530712298 1.925,-0.5001504581839 8.2250000000001,-2.137864698206 14,-3.639364977828 25.205844429378,-6.55352077208894 48.74040228011,-18.02046184564595 71.0958934800364,-34.640651686692 46.48859951596759,-34.561949119787 77.57235009540079,-92.792130985448 80.59845074773869,-150.987649741236 l 0.610986609023,-11.75 h 16.443564798515 16.443564798514 l -0.658275020201,10.75 c -2.716367222183,44.359799084517 -15.276584054961,83.003295054568 -38.434556791319,118.25 -29.407448866315,44.75848059711803 -70.722497253847,77.27072106874 -120.099628622307,94.510551450772 -9.8808705546631,3.4498669256031 -26.009864974668,7.9969070192921 -31.915843536194,8.997623559407 -1.8787139449061,0.318331686989 -3.749291478327,0.7848670471531 -4.1568389631571,1.036745244807 -0.40754748483,0.2518781976549 -7.130981952954,1.132312221142 -14.9409654847199,1.956520052193 -14.992743049152,1.5822230840559 -42.068332854394,1.800626763273 -52.986352015929,0.427411344013 z"
                 id="path955" />
            <path
                 style="fill:#37a7d4"
                 d="m -141.817993164062,54.560191566841 c -30.56847170606,-3.705946761655 -57.102906881719,-11.543500036693 -82.725571958922,-24.434892740088 -45.723937100159,-23.00483682424998 -82.19169628957,-59.464089325791 -105.180303227543,-105.155768240211 -10.892898101881,-21.650498608358 -18.099499665997,-43.677586967948 -22.3375126613,-68.274950508417 -2.405395269246,-13.960877883514 -2.665397784342,-17.883156825527 -2.61840106176,-39.5 0.0462104439,-21.255182572269 0.349303009967,-25.681985716452 2.650165913454,-38.706864211448 4.168687631049,-23.598385542962 10.395200894166,-42.919810603392 20.630520965791,-64.018343485963 7.436548024091,-15.329296194077 10.943497295343,-21.466803007972 17.16819685975,-30.046036329284 2.702097843792,-3.724184214682 4.91290517053,-7.050668154812 4.91290517053,-7.392186533622 0,-0.811086463092 7.402181848553,-9.606622108689 17.433480700611,-20.715081588957 24.340281087862,-26.953939882607 61.024890915109,-50.876000177681 97.066519299389,-63.297146630363 7.302073805381,-2.516538020366 25.858729720176,-7.355625658729 35.75,-9.322659420201 l 5.75,-1.143477410735 v -32.429102194714 c 0,-17.836006207092 0.224278475739,-32.429102194713 0.498396612754,-32.429102194713 1.148019347764,0 165.501603387246,82.54912628715 165.501603387246,83.125736737555 0,0.63258774292 -164.06752230418,82.874263262445 -165.329499312373,82.874263262445 -0.368775378195,0 -0.670500687627,-15.351094698778 -0.670500687627,-34.113543775062 v -34.113543775062 l -4.25,0.648525045984 c -5.873377440953,0.896242911759 -25.695843237369,6.766930832451 -34.75,10.291676491677 -13.451519188431,5.236620605587 -30.257592180567,14.261937025083 -43.002795814383,23.093666160404 -21.216078156561,14.701581942198 -45.66973359821,40.767631580176 -58.520885636828,62.379561759505 -13.557905897419,22.80048627177 -23.996383709569,52.540598730302 -27.487299637057,78.313658092554 -1.770554826907,13.071817140792 -1.971747190478,39.167665936873 -0.40266777084,52.228410046692 3.521490895639,29.312277566922 14.320984727222,59.546728474859 30.53578757893,85.488522414854 8.297765961753,13.275458031204 13.346001547918,19.381084435985 28.812922965282,34.84800585335 15.460075780745,15.460075780745 21.574177022256,20.516200637654 34.822897909672,28.79718747790578 25.561971428276,15.97726684766405 51.347488852468,25.39464086986522 82.742040405224,30.21900740006022 10.03514694804,1.542090097396 43.211747638475,1.580632099055 54.4999999999999,0.06331387323 25.6394055400661,-3.446338377213 55.306087954765,-13.77714350048514 76.6731145758341,-26.69981745194216 17.78548459824344,-10.75657472645984 26.9533141635749,-17.96372800129184 41.838589791054,-32.89078699359884 24.4870382505499,-24.555774018593 38.459281076999,-47.491886367324 50.031447370386,-82.129040563518 6.005205097514,-17.974440538522 8.4905231408257,-32.521688354107 9.8107146104292,-57.424802057035 l 0.1855458798738,-3.5 16.095096213231,-0.274123209322 16.09509621323,-0.274123209323 -0.283419785795,3.274123209323 c -0.155880882188,1.800767765127 -0.575646157139,8.449123209322 -0.932811722115,14.774123209322 -1.313587371135,23.262153290165 -7.088310644411,47.546653295733 -17.477904032961,73.5 -11.0229411296919,27.535458043519 -34.9940551747895,61.674408117896 -57.6069086535608,82.04205172789488 -11.8217511006007,10.647980074217 -19.9714518118389,17.45794827210502 -20.8924695851112,17.45794827210502 -0.4115552060111,0 -2.3880391461401,1.2867598216251 -4.3921865336211,2.8594662702781 -4.8745508872478,3.825186541943 -17.11713258474042,12.1405337297221 -17.874356016756493,12.1405337297221 -0.332219399571044,0 -5.514999849017956,2.512020000073 -11.517289887659106,5.582266666828 -23.4446817641293,11.9922488876869 -53.1924847159058,20.9641032781089 -79.2522584364584,23.90226007469 -12.6054913378559,1.42122914979 -41.6638159236999,1.634184616689 -51.9999999999999,0.3810847471999 z"
                 id="path953" />
        </g>
    </g>
</svg>
