<?xml version="1.0" encoding="UTF-8" standalone="no"?>
<!-- Created with Inkscape (http://www.inkscape.org/) -->

<svg
     width="600"
     height="600"
     viewBox="0 0 600 600"
     version="1.1"
     id="svg5"
     sodipodi:docname="20220419.svg"
     inkscape:version="1.1 (c68e22c387, 2021-05-23)"
     inkscape:export-filename="C:\Program Files\XAMPP\htdocs\koko-campus.org\blog2\data\20220419.png"
     inkscape:export-xdpi="96"
     inkscape:export-ydpi="96"
     xmlns:inkscape="http://www.inkscape.org/namespaces/inkscape"
     xmlns:sodipodi="http://sodipodi.sourceforge.net/DTD/sodipodi-0.dtd"
     xmlns="http://www.w3.org/2000/svg"
     xmlns:svg="http://www.w3.org/2000/svg">
    <sodipodi:namedview
         id="namedview7"
         pagecolor="#ffffff"
         bordercolor="#666666"
         borderopacity="1.0"
         inkscape:pageshadow="2"
         inkscape:pageopacity="0.0"
         inkscape:pagecheckerboard="0"
         inkscape:document-units="px"
         showgrid="false"
         units="px"
         width="600px"
         inkscape:zoom="0.5304"
         inkscape:cx="297.89"
         inkscape:cy="491.14"
         inkscape:window-width="1920"
         inkscape:window-height="1009"
         inkscape:window-x="-8"
         inkscape:window-y="-8"
         inkscape:window-maximized="1"
         inkscape:current-layer="layer1" />
    <defs
         id="defs2" />
    <g
         inkscape:label="レイヤー 1"
         inkscape:groupmode="layer"
         id="layer1">
        <path
             style="fill:none;stroke:black;stroke-width:1px;stroke-linecap:butt;stroke-linejoin:miter;stroke-opacity:1"
             d="m 342.38,198.41 c -0.49,0.1 -0.99,0.18 -1.47,0.27 -0.35,0.1 -2.91,-0.88 -3.42,-1.07 -0.79,-0.29 -1.75,-0.37 -2.5,-0.73 -2.21,-1.06 -4.23,-2.49 -6.42,-3.58 -1.5,-0.75 -3.04,-1.31 -4.47,-2.24 -1.26,-0.8 -2.37,-1.81 -3.69,-2.54 -3.49,-1.95 0.2,0.51 -2.39,-1.09 -2.17,-1.35 -4.48,-2.5 -6.77,-3.67 -1.79,-0.94 -3.55,-1.97 -5.41,-2.75 -2.77,-1.16 0,0.56 -3.44,-1.23 -0.8,-0.42 -1.5,-1.03 -2.3,-1.45 -0.96,-0.5 -1.99,-0.84 -2.96,-1.32 -0.59,-0.3 -1.1,-0.77 -1.71,-1.04 -0.81,-0.37 -1.7,-0.57 -2.53,-0.9 -1.41,-0.56 -2.66,-1.45 -4.08,-1.96 -0.69,-0.26 -1.44,-0.23 -2.12,-0.47 -1.66,-0.57 -2.53,-1.4 -4.12,-2.13 -1.82,-0.61 -1.32,-0.38 -2.92,-1.15 -1.98,-0.98 -2.91,-1.56 -4.96,-2.15 -0.32,-0.1 -0.6,-0.29 -0.91,-0.34 -0.62,-0.12 -1.28,0 -1.89,-0.17 -1.1,-0.26 -2.05,-0.96 -3.12,-1.3 -0.76,-0.24 -1.56,-0.33 -2.31,-0.59 -1.35,0.24 -2.14,-1.18 -3.17,-1.62 -0.76,-0.33 -1.56,-0.53 -2.34,-0.76 -3.78,-1.1 -0.17,-0.14 -3.79,-0.33 -1.44,-0.1 -2.83,-0.59 -4.24,-0.93 -1.9,-0.44 -3.73,-0.97 -5.55,-1.69 -0.45,-0.17 -0.85,-0.46 -1.3,-0.62 -3.9,-1.23 0.43,0.43 -3.63,-0.35 -0.46,-0.1 -0.83,-0.5 -1.3,-0.61 -0.78,-0.18 -1.62,-0.1 -2.41,-0.24 -0.67,-0.13 -1.29,-0.53 -1.98,-0.66 -0.56,-0.1 -1.14,0.1 -1.7,0 -1.02,-0.2 -1.9,-0.93 -2.92,-1.17 -0.32,-0.1 -0.68,0.13 -1.01,0 -5.76,-1.32 -0.18,-0.42 -4.49,-1.38 -1.72,-0.38 -3.65,-0.8 -5.41,-0.88 -0.51,0 -1,0.18 -1.51,0.1 -0.84,-0.1 -1.64,-0.39 -2.47,-0.56 -1.52,-0.31 -3.14,-0.57 -4.7,-0.67 -0.79,-0.1 -1.6,0 -2.38,-0.1 -0.45,-0.1 -0.83,-0.33 -1.27,-0.44 -0.54,-0.13 -2.82,-0.47 -3.49,-0.55 -4.21,-0.53 0.84,0.1 -3.59,-0.19 -2.02,-0.14 -4.09,-0.61 -6.09,-0.92 -1.79,-0.28 -3.83,0 -5.52,-0.52 -0.24,-0.1 -0.58,0.22 -0.82,0.15 -1.24,-0.36 -2.05,-0.79 -3.52,-0.72 -1.69,0.1 0.18,0.4 -2.19,0.1 -0.64,-0.1 -1.23,-0.3 -1.2,-0.11 0,0.1 0.12,0 0.16,0 0.25,0.11 0.54,0.17 0.75,0.37 0.32,0.3 0.53,0.72 0.85,1.02 0.24,0.23 0.59,0.3 0.78,0.54 0.13,0.12 0,0.36 0.1,0.49 0.15,0.19 0.4,0.26 0.58,0.41 0.28,0.24 0.43,0.61 0.67,0.89 0.23,0.26 0.56,0.44 0.81,0.69 0.71,0.74 1.24,1.63 1.96,2.36 0.12,0.11 0.29,0.14 0.38,0.27 0.14,0.19 0.18,0.43 0.29,0.63 0.47,0.62 1.33,0.82 1.8,1.53 0.27,0.4 0.49,1.06 0.76,1.38 0.15,0.19 0.43,0.23 0.58,0.41 0.44,0.54 0.35,0.82 0.73,1.21 0.73,0.76 1.45,1.56 2.12,2.33 0.31,0.36 0.44,0.85 0.73,1.22 1.58,2.1 -0.92,-1.44 1,0.84 0.14,0.17 0.19,0.42 0.28,0.63 0.24,0.35 0.42,0.74 0.7,1.06 0.29,0.32 0.71,0.51 1.01,0.83 0.28,0.32 0.44,0.72 0.7,1.05 0.67,0.91 1.57,1.79 2.33,2.63 0.42,0.46 0.98,1.04 1.45,1.43 0.24,0.2 0.56,0.31 0.77,0.54 0.12,0.1 0,0.22 0.1,0.33 0.15,0.26 0.29,0.52 0.49,0.75 1.42,1.74 3.35,2.88 5.01,4.34 1.57,1.38 3.05,2.92 4.68,4.23 0.43,0.34 0.92,0.6 1.35,0.94 1.9,1.53 3.65,3.29 5.61,4.74 1.07,0.79 2.41,1.26 3.55,1.89 4.32,2.39 0,0.12 2.5,1.58 1.05,0.64 2.25,1.25 3.37,1.75 0.93,0.43 0.82,0.21 1.65,0.72 0.33,0.2 0.62,0.5 0.97,0.68 0.22,0.11 0.49,0.11 0.72,0.2 1.55,0.58 3.11,1.34 4.61,2.04 0.8,0.38 1.56,0.96 2.42,1.25 0.78,0.66 1.79,0.26 2.64,0.54 0.41,0.13 0.74,0.45 1.13,0.64 1.49,0.68 3.15,0.95 4.68,1.51 1.1,0.42 1.79,0.84 2.93,1.17 0.27,0.1 0.46,0.33 0.74,0.37 0.29,0 0.58,0 0.85,0 0.53,0.13 1.11,0.55 1.66,0.71 0.67,0.2 1.46,0.18 2.11,0.46 0.15,0.1 0.24,0.29 0.39,0.27 0.1,0 -0.28,-0.94 -0.27,-1.48 0,-1.28 0.64,-2.24 1.07,-3.41 0.2,-0.51 0.22,-1.07 0.4,-1.59 0.46,-1.4 1.24,-2.06 1.78,-3.2 0.1,-0.24 0.1,-0.5 0.2,-0.72 0.37,-0.73 0.92,-1.4 1.32,-2.1 0.25,-0.46 0.34,-1 0.58,-1.47 0.67,-1.28 1.45,-2.43 2.03,-3.75 0.28,-0.68 0.89,-1.24 1.17,-1.92 0.32,-0.75 0.7,-1.58 0.92,-2.36 0.18,-0.63 0.48,-1.35 0.66,-1.99 0.1,-0.28 0.1,-0.6 0.17,-0.87 0.1,-0.12 0.26,-0.15 0.31,-0.23 0.11,-0.33 0.1,-0.7 0.14,-1.05 0.13,-0.66 0.79,-2.36 1.17,-2.91 0.19,-0.27 0.28,-1.09 0.67,-0.98 1.02,0.31 0.13,0.17 1.16,0.81 0.88,0.53 0.83,0.1 1.49,0.74 0.61,0.41 0.83,1.13 1.31,1.63 0.35,0.37 1.48,1.23 1.8,1.54 0.24,0.22 0.4,0.51 0.64,0.72 1.39,1.21 3.13,2.03 4.63,3.06 0.61,0.43 1.15,0.94 1.77,1.37 1.07,0.74 2.33,1.06 3.51,1.57 0.83,0.35 1.62,0.89 2.43,1.25 0.86,0.37 1.84,0.68 2.73,1.03 0.83,0.32 1.67,0.64 2.53,0.89 0.41,0.12 0.85,0.11 1.23,0.28 0.55,0.24 1,0.64 1.53,0.91 1.6,0.82 3.41,1.13 5.06,1.78 0.41,0.16 0.75,0.47 1.13,0.64 7.15,2.95 0.7,0.1 3.16,1.46 1.17,0.67 2.54,0.92 3.8,1.34 0.99,0.21 1.8,0.87 2.76,1.2 1.56,0.54 3.2,0.94 4.81,1.32 1.4,0.34 2.75,0.94 4.13,1.29 1.89,0.46 0.17,-0.23 2.41,0.23 0.44,0.1 0.84,0.34 1.27,0.45 1.41,0.32 2.9,0.38 4.33,0.56 1.03,0.13 1.88,0.39 2.84,0.67 0.16,0.1 0.33,-0.1 0.49,-0.1 0.82,0.1 0,0.1 0.55,0.24 0.29,0.1 1.68,0.31 1.92,0.33 0.24,0.1 0.45,-0.1 0.66,-0.12 0.49,0 1.13,0.25 1.6,0.39 0.21,0.1 2.06,0.54 2.11,0.46 0.16,-0.23 -0.2,-0.53 -0.15,-0.82 0,-0.1 0.49,-0.58 0.54,-0.78 0.26,-0.91 0.26,-2.17 1,-2.89 z"
             id="path981" />
        <path
             style="fill:none;stroke:black;stroke-width:1px;stroke-linecap:butt;stroke-linejoin:miter;stroke-opacity:1"
             d="m 197.8,166.31 c 1.4,0.25 2.81,0.44 4.2,0.76 5.97,1.73 0.27,0.19 4.79,1.16 0.61,0.13 1.18,0.43 1.79,0.51 0.45,0.1 0.92,0 1.37,0.1 1.23,0.17 2.5,0.58 3.71,0.85 0.47,0.1 0.95,0.1 1.4,0.25 0.46,0.14 0.85,0.45 1.3,0.61 1.47,0.52 2.98,0.79 4.46,1.22 0.95,0.27 2.07,0.98 3.08,1.14 0.29,0.1 0.58,0 0.85,0 0.48,0.11 1.21,0.67 1.68,0.89 2.47,1.12 0.47,0.15 2.7,0.86 0.51,0.16 0.96,0.45 1.47,0.58 1.08,0.26 2.22,0.35 3.32,0.58 1.62,0.33 3.22,0.86 4.81,1.33 2.57,0.74 5.24,1.3 7.81,1.96 3.04,0.78 -0.13,-0.18 2.61,0.37 0.52,0.11 0.96,0.45 1.47,0.58 0.73,0.19 1.72,0.16 2.44,0.4 0.22,0.1 0.36,0.32 0.58,0.41 0.12,0.1 0.22,0 0.33,-0.1 0.18,0.1 0.37,0 0.52,0.1 0.29,0.13 0.5,0.38 0.78,0.53 0.64,0.37 1.44,0.27 2.11,0.47 0.67,0.19 1.32,0.51 1.98,0.66 0.58,0.1 0.99,0.11 1.57,0.22 0.37,0.1 0.7,0.27 1.07,0.31 0.51,0.1 1.27,0 1.73,0.2 0.15,0.1 0.24,0.22 0.39,0.26 0.35,0.1 0.58,0 1.07,0.31"
             id="path983" />
        <path
             style="fill:none;stroke:black;stroke-width:1px;stroke-linecap:butt;stroke-linejoin:miter;stroke-opacity:1"
             d="m 223.13,176.1 c -2.68,0.95 -6.24,0.29 -8.59,2.07"
             id="path985" />
        <path
             style="fill:none;stroke:black;stroke-width:1px;stroke-linecap:butt;stroke-linejoin:miter;stroke-opacity:1"
             d="m 236.14,181.51 c -2.73,0.5 -5.47,1 -8.19,1.49 -0.31,0.1 -1.47,0.1 -1.78,0.5"
             id="path987" />
        <path
             style="fill:none;stroke:black;stroke-width:1px;stroke-linecap:butt;stroke-linejoin:miter;stroke-opacity:1"
             d="m 254.99,184.51 c -4.48,0.92 -8.73,2.56 -12.96,4.23 -1.22,0.48 -2.37,1.11 -3.64,1.34"
             id="path989" />
        <path
             style="fill:none;stroke:black;stroke-width:1px;stroke-linecap:butt;stroke-linejoin:miter;stroke-opacity:1"
             d="m 113.15,189.48 c -2.51,-0.16 -2.58,0 -4.83,-0.84 -0.58,-0.22 -1.07,-0.66 -1.67,-0.83 -0.81,-0.23 -1.7,-0.1 -2.5,-0.33 -1.67,-0.57 -3.25,-1.39 -4.83,-2.17 -4.321,-2.12 -8.771,-4.31 -11.998,-8 -1.345,-1.53 -2.753,-4.24 -3.5,-6.16 -0.122,-0.32 -0.06,-0.68 -0.166,-1 -0.541,-1.69 -1.196,-3.35 -1.833,-5 -0.323,-0.84 -0.824,-1.62 -1,-2.5 -0.218,-1.09 0,-2.24 -0.167,-3.34 -0.216,-1.35 -0.768,-2.64 -1,-3.99 -0.103,-0.61 0,-1.23 0,-1.84 0,-2.28 0,-4.55 0,-6.83 0,-2.94 0,-5.89 0,-8.83 0,-1.11 -0.157,-2.24 0,-3.34 0.283,-1.98 0.974,-3.11 1.833,-4.83 0.702,-1.4 1.153,-2.92 1.833,-4.33 0.66,-1.37 1.223,-1.6 2,-3 1.884,-3.39 -1.319,1.12 1.333,-3.17 0.375,-0.6 0.902,-1.1 1.333,-1.66 1.209,-1.59 2.37,-3.32 3.667,-4.84 1.401,-1.63 3.083,-2.9 4.666,-4.33 0.582,-0.53 1.063,-1.16 1.666,-1.67 0.403,-0.33 0.894,-0.54 1.333,-0.83 0.672,-0.44 1.29,-0.95 2,-1.33 3.01,-1.62 1.48,-0.51 4.33,-1.5 1.61,-0.56 3.27,-1.77 5,-2 3.58,-0.49 7.23,-0.5 10.83,-0.5 3.5,0 7,0 10.5,0 1,0 2,0 3,0 0.67,0 1.35,-0.13 2,0 1.04,0.21 2,0.67 3,1 2.34,0.78 5.19,1.61 7.33,2.83 1.25,0.71 2.32,1.7 3.5,2.5 0.54,0.36 1.15,0.62 1.67,1 1.45,1.07 5.13,4.35 6.33,5.33 2.79,2.3 5.87,4.33 8.17,7.17 3.13,3.87 4.25,8.99 4.66,13.83 0.7,8.17 -0.94,-4.67 0.17,5.33 0.1,0.51 0.26,1 0.33,1.5 0.34,2.35 0.17,4.8 0.17,7.17 0,1.11 0.19,2.24 0,3.33 -0.1,0.52 -0.37,0.99 -0.5,1.5 -0.33,1.33 -0.28,2.9 -0.83,4.17 -0.98,2.25 -1.54,2.14 -2.34,4.33 -0.19,0.53 -0.17,1.12 -0.33,1.67 -0.51,1.7 -1.41,3.32 -2,5 -0.1,0.26 0,0.57 -0.17,0.83 -0.57,1.22 -1.42,2.29 -1.99,3.5 -0.34,0.7 -1.13,2.8 -1.67,3.67 -0.65,1.04 -1.48,1.97 -2.17,3 -0.65,0.97 -1.12,2.06 -1.83,2.99 -0.45,0.6 -1.03,1.09 -1.5,1.67 -1.35,1.66 0.1,0.4 -1.67,2.17 -0.72,0.72 -1.59,1.29 -2.33,2 -0.4,0.38 -0.73,0.83 -1.17,1.16 -1.23,0.93 -3.82,2.52 -5.16,3.17 -1.08,0.52 -2.28,0.77 -3.34,1.33 -0.42,0.23 -0.72,0.66 -1.16,0.84 -2.39,0.97 -5.3,1.05 -7.83,1.16 -2.62,0.12 -5.21,0.17 -7.84,0.17 -1.05,0 -2.12,0.14 -3.16,0 -0.8,-0.11 -1.54,-0.51 -2.34,-0.67 -3.73,-0.74 -7,-2.6 -10.49,-4"
             id="path860" />
        <path
             style="fill:none;stroke:black;stroke-width:1px;stroke-linecap:butt;stroke-linejoin:miter;stroke-opacity:1"
             d="m 99.987,135.82 c 0,-4.69 -0.638,-5.58 1.663,-9.67 1.43,-2.52 1.52,-1.81 3.34,-2.66 0.4,-0.19 0.76,-0.47 1.16,-0.67 1.28,-0.64 3.79,-0.73 5.17,-0.5 0.74,0.12 1.38,0.79 2,1.17 1.52,0.91 2.95,1.85 4.16,3.16 1.52,1.63 2.54,3.35 3.17,5.5 0.1,0.33 0.1,0.68 0.17,1 0.1,0.17 0.75,1.17 0.16,1.17"
             id="path862" />
        <path
             style="fill:none;stroke:black;stroke-width:1px;stroke-linecap:butt;stroke-linejoin:miter;stroke-opacity:1"
             d="m 133.65,132.82 c -0.55,-4.44 -0.89,-3.45 0.33,-7.67 0.55,-1.88 0.65,-1.31 2,-2.66 0.14,-0.15 0.19,-0.36 0.34,-0.5 0.45,-0.46 2.17,-0.8 2.83,-1 0.93,-0.29 1.84,-0.73 2.83,-0.84 2.25,-0.25 4.92,-0.1 6.67,1.5 1.35,1.21 1.81,2.91 2.83,4.34 1.01,1.41 -0.34,-0.53 0.5,1.16 0.14,0.28 0.51,0.4 0.67,0.67 0.6,1.06 0.17,0.56 0.33,1.67 0,0.19 0.33,0.29 0.33,0.5 0,0.16 -0.33,0 -0.5,0"
             id="path864" />
        <path
             style="fill:none;stroke:black;stroke-width:1px;stroke-linecap:butt;stroke-linejoin:miter;stroke-opacity:1"
             d="m 113.32,157.15 c 0.33,-0.1 0.68,-0.1 1,-0.17 3.24,-1.04 6.29,-2.5 9.66,-3.16 2.42,-0.48 5.16,-0.77 7.67,-1 1.02,-0.1 2.48,-0.41 3.5,-0.5 0.61,-0.1 1.23,0.1 1.83,0 0.68,-0.1 1.33,-0.37 2,-0.5 0.5,-0.1 1.17,0 1.67,0 1.28,-0.13 2.54,-0.17 3.83,-0.17 1.19,0 2.35,-0.1 3.5,0.17 0.22,0 0.46,-0.1 0.67,0 1.35,0.45 0.83,6.23 0.83,7.49 0,1.97 -0.11,3.07 -1,4.84 -0.41,0.82 -1.11,1.49 -1.5,2.33 -0.38,0.82 -0.43,1.76 -1,2.5 -0.33,0.44 -0.81,0.75 -1.17,1.17 -0.25,0.3 -0.36,0.73 -0.66,1 -0.17,0.15 -0.48,0 -0.67,0.16 -1.27,0.85 -1.86,2.14 -3.33,2.84 -0.78,0.36 -2.86,0.81 -3.67,1.16 -1.86,0.8 -0.1,0.68 -2.33,1.17 -0.33,0.1 -0.67,0 -1,0 -1.5,0.14 -2.99,0.68 -4.5,0.83 -1.45,0.15 -3.2,0.14 -4.67,0 -3.16,-0.29 -5.69,-2.29 -8.33,-3.83 -2.79,-1.63 -5.52,-3.12 -7.33,-5.83 -0.15,-0.23 -0.39,-0.42 -0.5,-0.67 -0.12,-0.26 -0.1,-0.57 -0.17,-0.83 -1.48,-4.16 0,0.71 -1,-2.67 -0.45,-1.57 -0.77,-3.35 -0.5,-5 0,-0.14 0.97,-0.17 1.17,-0.17 1.21,0 2.6,0.2 3.67,-0.33 0.31,-0.16 0.53,0.13 0.83,-0.17"
             id="path866" />
        <path
             style="fill:none;stroke:black;stroke-width:1px;stroke-linecap:butt;stroke-linejoin:miter;stroke-opacity:1"
             d="m 96.478,485.94 c -2.51,-0.16 -2.58,0 -4.83,-0.84 -0.58,-0.22 -1.07,-0.66 -1.67,-0.83 -0.81,-0.23 -1.7,-0.1 -2.5,-0.33 -1.67,-0.57 -3.25,-1.39 -4.83,-2.17 -4.321,-2.12 -8.771,-4.31 -11.998,-8 -1.345,-1.53 -2.753,-4.24 -3.5,-6.16 -0.122,-0.32 -0.06,-0.68 -0.166,-1 -0.541,-1.69 -1.196,-3.35 -1.833,-5 -0.323,-0.84 -0.824,-1.62 -1,-2.5 -0.218,-1.09 0,-2.24 -0.167,-3.34 -0.216,-1.35 -0.768,-2.64 -1,-3.99 -0.103,-0.61 0,-1.23 0,-1.84 0,-2.28 0,-4.55 0,-6.83 0,-2.94 0,-5.89 0,-8.83 0,-1.11 -0.157,-2.24 0,-3.34 0.283,-1.98 0.974,-3.11 1.833,-4.83 0.702,-1.4 1.153,-2.92 1.833,-4.33 0.66,-1.37 1.223,-1.6 2,-3 1.884,-3.39 -1.319,1.12 1.333,-3.17 0.375,-0.6 0.902,-1.1 1.333,-1.66 1.209,-1.59 2.37,-3.32 3.667,-4.84 1.401,-1.63 3.083,-2.9 4.666,-4.33 0.582,-0.53 1.063,-1.16 1.666,-1.67 0.403,-0.33 0.894,-0.54 1.333,-0.83 0.672,-0.44 1.29,-0.95 2,-1.33 3.01,-1.62 1.48,-0.51 4.33,-1.5 1.61,-0.56 3.27,-1.77 5,-2 3.58,-0.49 7.232,-0.5 10.832,-0.5 3.5,0 7,0 10.5,0 1,0 2,0 3,0 0.67,0 1.35,-0.13 2,0 1.04,0.21 2,0.67 3,1 2.34,0.78 5.19,1.61 7.33,2.83 1.25,0.71 2.32,1.7 3.5,2.5 0.54,0.36 1.15,0.62 1.67,1 1.45,1.07 5.13,4.35 6.33,5.33 2.79,2.3 5.87,4.33 8.17,7.17 3.13,3.87 4.25,8.99 4.66,13.83 0.7,8.17 -0.94,-4.67 0.17,5.33 0.1,0.51 0.26,1 0.33,1.5 0.34,2.35 0.17,4.8 0.17,7.17 0,1.11 0.19,2.24 0,3.33 -0.1,0.52 -0.37,0.99 -0.5,1.5 -0.33,1.33 -0.28,2.9 -0.83,4.17 -0.98,2.25 -1.54,2.14 -2.34,4.33 -0.19,0.53 -0.17,1.12 -0.33,1.67 -0.51,1.7 -1.41,3.32 -2,5 -0.1,0.26 0,0.57 -0.17,0.83 -0.57,1.22 -1.42,2.29 -1.99,3.5 -0.34,0.7 -1.13,2.8 -1.67,3.67 -0.65,1.04 -1.48,1.97 -2.17,3 -0.65,0.97 -1.12,2.06 -1.83,2.99 -0.45,0.6 -1.03,1.09 -1.5,1.67 -1.35,1.66 0.1,0.4 -1.67,2.17 -0.72,0.72 -1.59,1.29 -2.33,2 -0.4,0.38 -0.73,0.83 -1.17,1.16 -1.23,0.93 -3.82,2.52 -5.16,3.17 -1.08,0.52 -2.28,0.77 -3.34,1.33 -0.42,0.23 -0.72,0.66 -1.16,0.84 -2.39,0.97 -5.3,1.05 -7.83,1.16 -2.62,0.12 -5.21,0.17 -7.84,0.17 -1.05,0 -2.12,0.14 -3.16,0 -0.8,-0.11 -1.54,-0.51 -2.34,-0.67 -3.73,-0.74 -7.002,-2.6 -10.492,-4"
             id="path860-9" />
        <path
             style="fill:none;stroke:black;stroke-width:1px;stroke-linecap:butt;stroke-linejoin:miter;stroke-opacity:1"
             d="m 83.315,432.28 c 0,-4.69 -0.638,-5.58 1.663,-9.67 1.43,-2.52 1.52,-1.81 3.34,-2.66 0.4,-0.19 0.76,-0.47 1.16,-0.67 1.28,-0.64 3.79,-0.73 5.17,-0.5 0.74,0.12 1.38,0.79 2,1.17 1.52,0.91 2.95,1.85 4.162,3.16 1.52,1.63 2.54,3.35 3.17,5.5 0.1,0.33 0.1,0.68 0.17,1 0.1,0.17 0.75,1.17 0.16,1.17"
             id="path862-7" />
        <path
             style="fill:none;stroke:black;stroke-width:1px;stroke-linecap:butt;stroke-linejoin:miter;stroke-opacity:1"
             d="m 116.98,429.28 c -0.55,-4.44 -0.89,-3.45 0.33,-7.67 0.55,-1.88 0.65,-1.31 2,-2.66 0.14,-0.15 0.19,-0.36 0.34,-0.5 0.45,-0.46 2.17,-0.8 2.83,-1 0.93,-0.29 1.84,-0.73 2.83,-0.84 2.25,-0.25 4.92,-0.1 6.67,1.5 1.35,1.21 1.81,2.91 2.83,4.34 1.01,1.41 -0.34,-0.53 0.5,1.16 0.14,0.28 0.51,0.4 0.67,0.67 0.6,1.06 0.17,0.56 0.33,1.67 0,0.19 0.33,0.29 0.33,0.5 0,0.16 -0.33,0 -0.5,0"
             id="path864-7" />
        <path
             style="fill:none;stroke:black;stroke-width:1px;stroke-linecap:butt;stroke-linejoin:miter;stroke-opacity:1"
             d="m 96.648,453.61 c 0.33,-0.1 0.68,-0.1 1,-0.17 3.242,-1.04 6.292,-2.5 9.662,-3.16 2.42,-0.48 5.16,-0.77 7.67,-1 1.02,-0.1 2.48,-0.41 3.5,-0.5 0.61,-0.1 1.23,0.1 1.83,0 0.68,-0.1 1.33,-0.37 2,-0.5 0.5,-0.1 1.17,0 1.67,0 1.28,-0.13 2.54,-0.17 3.83,-0.17 1.19,0 2.35,-0.1 3.5,0.17 0.22,0 0.46,-0.1 0.67,0 1.35,0.45 0.83,6.23 0.83,7.49 0,1.97 -0.11,3.07 -1,4.84 -0.41,0.82 -1.11,1.49 -1.5,2.33 -0.38,0.82 -0.43,1.76 -1,2.5 -0.33,0.44 -0.81,0.75 -1.17,1.17 -0.25,0.3 -0.36,0.73 -0.66,1 -0.17,0.15 -0.48,0 -0.67,0.16 -1.27,0.85 -1.86,2.14 -3.33,2.84 -0.78,0.36 -2.86,0.81 -3.67,1.16 -1.86,0.8 -0.1,0.68 -2.33,1.17 -0.33,0.1 -0.67,0 -1,0 -1.5,0.14 -2.99,0.68 -4.5,0.83 -1.45,0.15 -3.2,0.14 -4.67,0 -3.16,-0.29 -5.69,-2.29 -8.332,-3.83 -2.79,-1.63 -5.52,-3.12 -7.33,-5.83 -0.15,-0.23 -0.39,-0.42 -0.5,-0.67 -0.12,-0.26 -0.1,-0.57 -0.17,-0.83 -1.48,-4.16 0,0.71 -1,-2.67 -0.45,-1.57 -0.77,-3.35 -0.5,-5 0,-0.14 0.97,-0.17 1.17,-0.17 1.21,0 2.6,0.2 3.67,-0.33 0.31,-0.16 0.53,0.13 0.83,-0.17"
             id="path866-2" />
        <path
             style="fill:none;stroke:black;stroke-width:1px;stroke-linecap:butt;stroke-linejoin:miter;stroke-opacity:1"
             d="m 535.61,487.79 c -0.5,0 -1.01,0 -1.5,0 -0.35,0 -2.7,-1.38 -3.17,-1.66 -0.72,-0.43 -1.65,-0.68 -2.33,-1.17 -1.98,-1.44 -3.71,-3.2 -5.67,-4.67 -1.34,-1 -2.76,-1.83 -4,-3 -1.09,-1.02 -2.01,-2.21 -3.17,-3.16 -3.09,-2.55 0.1,0.53 -2.16,-1.5 -1.89,-1.72 -3.96,-3.27 -6,-4.83 -1.6,-1.24 -3.14,-2.57 -4.83,-3.67 -2.52,-1.64 -0.13,0.54 -3.17,-1.83 -0.71,-0.56 -1.29,-1.28 -2,-1.84 -0.85,-0.66 -1.81,-1.18 -2.67,-1.83 -0.53,-0.4 -0.95,-0.95 -1.5,-1.33 -0.73,-0.51 -1.57,-0.86 -2.33,-1.34 -1.28,-0.8 -2.36,-1.9 -3.66,-2.66 -0.63,-0.37 -1.38,-0.48 -2,-0.84 -1.53,-0.86 -2.24,-1.83 -3.67,-2.83 -1.68,-0.93 -1.24,-0.61 -2.67,-1.66 -1.77,-1.31 -2.58,-2.05 -4.5,-3 -0.29,-0.15 -0.53,-0.39 -0.83,-0.5 -0.59,-0.23 -1.25,-0.25 -1.83,-0.5 -1.03,-0.46 -1.84,-1.32 -2.84,-1.84 -0.7,-0.37 -1.47,-0.61 -2.16,-1 -1.37,0 -1.9,-1.54 -2.83,-2.16 -0.69,-0.46 -1.44,-0.8 -2.17,-1.17 -3.52,-1.76 -0.14,-0.16 -3.67,-1 -1.4,-0.33 -2.67,-1.09 -4,-1.67 -1.79,-0.78 -3.5,-1.63 -5.16,-2.66 -0.41,-0.25 -0.75,-0.61 -1.17,-0.84 -3.61,-1.91 0.35,0.5 -3.5,-1 -0.44,-0.17 -0.73,-0.64 -1.17,-0.83 -0.74,-0.32 -1.58,-0.37 -2.33,-0.67 -0.64,-0.25 -1.18,-0.75 -1.83,-1 -0.53,-0.2 -1.14,-0.12 -1.67,-0.33 -0.97,-0.38 -1.7,-1.25 -2.66,-1.67 -0.31,-0.13 -0.69,0 -1,-0.16 -5.43,-2.33 -0.1,-0.45 -4.17,-2.17 -1.62,-0.68 -3.45,-1.44 -5.17,-1.83 -0.49,-0.11 -1.01,0 -1.5,-0.17 -0.81,-0.24 -1.54,-0.68 -2.33,-1 -1.44,-0.57 -2.99,-1.12 -4.5,-1.5 -0.77,-0.19 -1.58,-0.25 -2.33,-0.5 -0.43,-0.14 -0.76,-0.48 -1.17,-0.66 -0.51,-0.23 -2.69,-0.97 -3.33,-1.17 -4.05,-1.28 0.81,0.24 -3.5,-0.83 -1.97,-0.5 -3.92,-1.33 -5.83,-2 -1.71,-0.6 -3.76,-0.71 -5.34,-1.5 -0.22,-0.11 -0.61,0.11 -0.83,0 -1.16,-0.58 -1.87,-1.15 -3.33,-1.34 -1.68,-0.21 0.1,0.42 -2.17,-0.33 -0.61,-0.21 -1.16,-0.52 -1.16,-0.33 0,0.1 0.12,0 0.16,0 0.23,0.15 0.5,0.27 0.67,0.5 0.27,0.35 0.4,0.8 0.66,1.16 0.19,0.26 0.52,0.4 0.67,0.67 0.1,0.14 -0.1,0.35 0,0.5 0.11,0.21 0.35,0.32 0.5,0.5 0.23,0.29 0.31,0.68 0.5,1 0.18,0.3 0.47,0.54 0.67,0.83 0.56,0.85 0.93,1.82 1.5,2.67 0.1,0.13 0.26,0.19 0.33,0.33 0.1,0.21 0.1,0.46 0.17,0.67 0.35,0.7 1.16,1.05 1.5,1.83 0.19,0.44 0.29,1.13 0.5,1.5 0.11,0.21 0.38,0.3 0.5,0.5 0.33,0.61 0.19,0.87 0.5,1.33 0.58,0.87 1.14,1.79 1.66,2.67 0.25,0.41 0.29,0.91 0.5,1.33 1.18,2.35 -0.64,-1.58 0.84,1 0.11,0.2 0.11,0.45 0.16,0.67 0.17,0.39 0.28,0.81 0.5,1.17 0.23,0.37 0.61,0.63 0.84,1 0.22,0.36 0.31,0.79 0.5,1.16 0.5,1.01 1.23,2.04 1.83,3 0.33,0.53 0.77,1.2 1.17,1.67 0.2,0.24 0.49,0.4 0.66,0.67 0.1,0.1 0,0.22 0,0.33 0.1,0.29 0.19,0.57 0.34,0.83 1.09,1.97 2.79,3.43 4.16,5.17 1.29,1.64 2.47,3.42 3.84,5 0.36,0.41 0.8,0.75 1.16,1.16 1.6,1.85 3,3.89 4.67,5.67 0.91,0.97 2.15,1.67 3.16,2.5 3.82,3.12 0,0.12 2.17,2 0.92,0.82 1.99,1.63 3,2.33 0.84,0.59 0.77,0.35 1.5,1 0.29,0.26 0.52,0.6 0.83,0.84 0.2,0.15 0.46,0.2 0.67,0.33 1.42,0.85 2.82,1.87 4.17,2.83 0.72,0.52 1.36,1.23 2.16,1.67 0.65,0.79 1.71,0.57 2.5,1 0.38,0.2 0.65,0.58 1,0.83 1.34,0.94 2.93,1.5 4.33,2.33 1.01,0.61 1.61,1.14 2.67,1.67 0.25,0.13 0.4,0.41 0.67,0.5 0.27,0.1 0.57,0.1 0.83,0.17 0.5,0.22 0.99,0.74 1.5,1 0.63,0.31 1.41,0.44 2,0.83 0.13,0.1 0.18,0.33 0.33,0.33 0.1,0 -0.1,-0.97 0,-1.5 0.26,-1.26 1.03,-2.09 1.67,-3.16 0.28,-0.47 0.4,-1.02 0.67,-1.5 0.71,-1.29 1.59,-1.8 2.33,-2.83 0.14,-0.21 0.18,-0.47 0.33,-0.67 0.49,-0.65 1.15,-1.21 1.67,-1.83 0.33,-0.41 0.51,-0.92 0.83,-1.34 0.89,-1.14 1.87,-2.13 2.67,-3.33 0.4,-0.61 1.1,-1.06 1.5,-1.67 0.45,-0.68 0.97,-1.43 1.33,-2.16 0.29,-0.59 0.71,-1.24 1,-1.84 0.14,-0.26 0.17,-0.58 0.33,-0.83 0.1,-0.1 0.28,-0.1 0.34,-0.17 0.17,-0.3 0.21,-0.67 0.33,-1 0.24,-0.63 1.2,-2.19 1.67,-2.66 0.23,-0.23 0.47,-1.02 0.83,-0.84 0.95,0.48 0.1,0.19 1,1 0.77,0.68 0.8,0.23 1.33,1 0.53,0.51 0.62,1.26 1,1.84 0.28,0.42 1.24,1.47 1.5,1.83 0.19,0.26 0.3,0.58 0.5,0.83 1.15,1.44 2.71,2.55 4,3.84 0.53,0.53 0.97,1.13 1.5,1.66 0.92,0.92 2.1,1.46 3.17,2.17 0.75,0.5 1.43,1.17 2.17,1.67 0.78,0.52 1.69,1 2.5,1.5 0.76,0.47 1.53,0.93 2.33,1.33 0.38,0.19 0.81,0.26 1.16,0.5 0.5,0.33 0.87,0.81 1.34,1.17 1.43,1.09 3.15,1.72 4.66,2.66 0.37,0.23 0.65,0.59 1,0.83 6.5,4.18 0.67,0.2 2.84,2 1.03,0.87 2.34,1.36 3.5,2 0.94,0.38 1.62,1.18 2.5,1.67 1.44,0.81 2.98,1.5 4.5,2.17 1.31,0.58 2.53,1.41 3.83,2 1.78,0.8 0.21,-0.19 2.33,0.66 0.42,0.17 0.76,0.49 1.17,0.67 1.33,0.57 2.78,0.9 4.16,1.33 0.99,0.31 1.78,0.72 2.67,1.17 0.15,0.1 0.34,0 0.5,0 0.8,0.2 0,0.1 0.5,0.33 0.27,0.14 1.59,0.61 1.83,0.67 0.22,0.1 0.45,0 0.67,0 0.48,0.1 1.07,0.45 1.5,0.67 0.2,0.1 1.93,0.9 2,0.83 0.2,-0.2 -0.1,-0.56 0,-0.83 0,-0.1 0.58,-0.49 0.67,-0.67 0.42,-0.85 0.64,-2.09 1.5,-2.67 z"
             id="path981-1" />
        <path
             style="fill:none;stroke:black;stroke-width:1px;stroke-linecap:butt;stroke-linejoin:miter;stroke-opacity:1"
             d="m 399.12,430.3 c 1.33,0.5 2.69,0.94 4,1.5 5.56,2.78 0.23,0.24 4.5,2 0.58,0.24 1.08,0.64 1.67,0.83 0.43,0.15 0.9,0.19 1.33,0.34 1.18,0.39 2.36,1.02 3.5,1.5 0.44,0.18 0.92,0.27 1.33,0.5 0.43,0.22 0.76,0.59 1.17,0.83 1.35,0.78 2.79,1.31 4.17,2 0.89,0.44 1.86,1.34 2.83,1.67 0.27,0.1 0.57,0.1 0.83,0.16 0.45,0.19 1.07,0.87 1.5,1.17 2.22,1.55 0.43,0.23 2.5,1.33 0.47,0.25 0.86,0.62 1.34,0.84 1.02,0.45 2.12,0.74 3.16,1.16 1.54,0.62 3.02,1.43 4.5,2.17 2.39,1.19 4.92,2.22 7.33,3.33 2.85,1.31 -0.1,-0.2 2.5,0.83 0.49,0.2 0.86,0.62 1.34,0.84 0.69,0.31 1.67,0.46 2.33,0.83 0.2,0.12 0.3,0.38 0.5,0.5 0.1,0.1 0.22,0 0.33,0 0.17,0.1 0.36,0.1 0.5,0.17 0.26,0.18 0.43,0.46 0.67,0.66 0.57,0.48 1.37,0.52 2,0.84 0.62,0.31 1.2,0.74 1.83,1 0.55,0.21 0.95,0.29 1.5,0.5 0.35,0.13 0.64,0.39 1,0.5 0.49,0.14 1.25,0.22 1.67,0.5 0.13,0.1 0.19,0.26 0.33,0.33 0.33,0.16 0.57,0.1 1,0.5"
             id="path983-9" />
        <path
             style="fill:none;stroke:black;stroke-width:1px;stroke-linecap:butt;stroke-linejoin:miter;stroke-opacity:1"
             d="m 422.29,444.47 c -2.81,0.46 -6.19,-0.83 -8.83,0.5"
             id="path985-6" />
        <path
             style="fill:none;stroke:black;stroke-width:1px;stroke-linecap:butt;stroke-linejoin:miter;stroke-opacity:1"
             d="m 434.12,452.13 c -2.78,0 -5.56,0 -8.33,0 -0.31,0 -1.46,-0.2 -1.84,0.17"
             id="path987-9" />
        <path
             style="fill:none;stroke:black;stroke-width:1px;stroke-linecap:butt;stroke-linejoin:miter;stroke-opacity:1"
             d="m 452.12,458.46 c -4.57,0.1 -9.04,0.95 -13.5,1.84 -1.29,0.25 -2.53,0.66 -3.83,0.66"
             id="path989-2" />
        <path
             style="fill:none;stroke:black;stroke-width:1px;stroke-linecap:butt;stroke-linejoin:miter;stroke-opacity:1"
             d="m 21.997,32.496 c 4.209,-1.045 8.286,-2.768 12.665,-3.167 1.051,-0.09 2.112,0.05 3.166,0 5.484,-0.238 -1.014,-0.03 4.167,-0.499 1.438,-0.131 2.888,0 4.332,0 0.125,0 6.708,0 6.833,0 7.277,0 14.553,0 21.83,0"
             id="path1146" />
        <path
             style="fill:none;stroke:black;stroke-width:1px;stroke-linecap:butt;stroke-linejoin:miter;stroke-opacity:1"
             d="m 39.995,21.497 c 1.489,9.786 0.43,5.188 2.999,13.832"
             id="path1148" />
        <path
             style="fill:none;stroke:black;stroke-width:1px;stroke-linecap:butt;stroke-linejoin:miter;stroke-opacity:1"
             d="m 59.159,19.164 c 0.144,4.331 0.41,5.966 -0.333,10.332 -0.148,0.866 -0.621,1.648 -0.834,2.5 -0.792,3.169 0.07,1.363 -0.5,2.499"
             id="path1150" />
        <path
             style="fill:none;stroke:black;stroke-width:1px;stroke-linecap:butt;stroke-linejoin:miter;stroke-opacity:1"
             d="m 22.997,51.493 c 1.938,-1.364 5.698,-4.264 8.166,-5.166 0.525,-0.192 7.939,-1.839 8.998,-1.999 0.495,-0.08 1.003,0.05 1.5,0 0.564,-0.06 1.104,-0.268 1.667,-0.334 1.691,-0.199 3.463,0.08 5.166,0 3.832,-0.174 7.656,-0.166 11.498,-0.166 1.747,0 3.591,-0.152 5.333,0 1.296,-0.458 2.317,0.554 3.499,0.666 0.774,0.07 1.556,-0.03 2.333,0 2.378,0.1 1.135,0.265 3.833,0.5 0.554,0.05 1.115,-0.06 1.667,0 2.962,0.349 0.522,0.333 1.333,0.333"
             id="path1152" />
        <path
             style="fill:none;stroke:black;stroke-width:1px;stroke-linecap:butt;stroke-linejoin:miter;stroke-opacity:1"
             d="m 50.827,34.829 c 0,1.222 0,2.444 0,3.666 0,4.051 -0.246,6.097 0.333,9.665 0.522,3.22 1.166,5.884 1.166,9.166"
             id="path1154" />
        <path
             style="fill:none;stroke:black;stroke-width:1px;stroke-linecap:butt;stroke-linejoin:miter;stroke-opacity:1"
             d="m 30.663,60.492 c 0.555,0.778 1.308,1.447 1.666,2.333 0.913,2.259 3.166,11.187 3.166,13.832"
             id="path1156" />
        <path
             style="fill:none;stroke:black;stroke-width:1px;stroke-linecap:butt;stroke-linejoin:miter;stroke-opacity:1"
             d="m 35.495,61.492 c 3.647,-2.021 7.369,-3.543 11.499,-4.166 1.432,-0.216 2.89,-0.208 4.333,-0.333 3.506,-0.305 6.661,-0.334 10.165,-0.334 2.484,0 5.088,-0.289 7.332,0.833 0.179,0.09 0.269,0.457 0.334,0.5 0.146,0.1 0.402,0.02 0.5,0.167 1.046,1.57 0.832,3.91 0.999,5.666 0.243,2.543 0.334,5.11 0.334,7.666 0,0.989 -0.195,2.192 0,3.166 0.02,0.08 0.166,0.09 0.166,0.167 0,0.06 -0.111,0 -0.166,0"
             id="path1158" />
        <path
             style="fill:none;stroke:black;stroke-width:1px;stroke-linecap:butt;stroke-linejoin:miter;stroke-opacity:1"
             d="m 35.495,76.657 c 0.722,0.666 1.186,1.938 2.167,1.999 2.003,0.125 3.873,-1.064 5.832,-1.499 2.769,-0.616 7.049,-1.16 9.999,-1.334 3.36,-0.197 6.802,0 10.165,0 0.499,0 5.537,0.231 6,0 0.496,-0.248 0.889,-0.666 1.333,-0.999"
             id="path1160" />
        <path
             style="fill:none;stroke:black;stroke-width:1px;stroke-linecap:butt;stroke-linejoin:miter;stroke-opacity:1"
             d="m 127.98,12.665 c 0,2.889 0,5.777 0,8.666"
             id="path1162" />
        <path
             style="fill:none;stroke:black;stroke-width:1px;stroke-linecap:butt;stroke-linejoin:miter;stroke-opacity:1"
             d="m 104.82,25.163 c 7.28,0.376 14.58,0.196 21.83,-0.166 1.83,-0.09 3.68,0.121 5.5,0 0.17,-0.01 0.32,-0.152 0.5,-0.167 0.5,-0.04 1,0.03 1.5,0 1.85,-0.109 3.84,-0.392 5.67,-0.666 2.49,-0.375 0.49,-0.344 2.99,-0.5 2.48,-0.155 5.02,0 7.5,0 1.23,0 2.45,-0.167 3.67,-0.167"
             id="path1164" />
        <path
             style="fill:none;stroke:black;stroke-width:1px;stroke-linecap:butt;stroke-linejoin:miter;stroke-opacity:1"
             d="m 104.82,25.163 c -0.26,8.94 -0.17,17.887 -0.17,26.83 0,2.089 0.15,4.25 0,6.333 -0.1,0.993 -0.3,1.669 -0.5,2.666 -0.38,1.921 -0.54,3.658 -1.33,5.499 -0.23,0.526 -0.58,0.989 -0.83,1.5 -1.24,2.465 -1.99,5.486 -4.003,7.499"
             id="path1166" />
        <path
             style="fill:none;stroke:black;stroke-width:1px;stroke-linecap:butt;stroke-linejoin:miter;stroke-opacity:1"
             d="m 91.655,39.162 c 1.662,0.178 2.881,1.107 4.332,1.833"
             id="path1168" />
        <path
             style="fill:none;stroke:black;stroke-width:1px;stroke-linecap:butt;stroke-linejoin:miter;stroke-opacity:1"
             d="m 91.155,56.159 c 2.477,-1.804 3.85,-4.683 5.999,-6.832"
             id="path1170" />
        <path
             style="fill:none;stroke:black;stroke-width:1px;stroke-linecap:butt;stroke-linejoin:miter;stroke-opacity:1"
             d="m 117.65,32.662 c 5.68,0.02 11.32,-0.666 17,-0.666 0.17,0 -0.37,-0.1 -0.5,0 -0.32,0.228 -0.57,0.546 -0.83,0.833 -0.51,0.546 -1.02,1.097 -1.5,1.666 -1.08,1.263 -2.15,2.528 -3.17,3.833 -2.08,2.655 -0.35,0.849 -1.83,2.333"
             id="path1172" />
        <path
             style="fill:none;stroke:black;stroke-width:1px;stroke-linecap:butt;stroke-linejoin:miter;stroke-opacity:1"
             d="m 121.98,38.328 c 2.68,0.622 4.85,2.551 7,4.166 0.34,0.256 0.59,0.25 0.84,0.5"
             id="path1174" />
        <path
             style="fill:none;stroke:black;stroke-width:1px;stroke-linecap:butt;stroke-linejoin:miter;stroke-opacity:1"
             d="m 115.48,46.661 c -0.31,4.391 -0.7,8.786 -1.16,13.164 -0.1,0.782 -0.28,1.55 -0.33,2.334 -0.12,1.702 0,3.464 -0.17,5.166 -0.13,1.037 -0.44,4.017 -0.17,4.832 0,0.155 0.59,0.593 0.67,0.667"
             id="path1176" />
        <path
             style="fill:none;stroke:black;stroke-width:1px;stroke-linecap:butt;stroke-linejoin:miter;stroke-opacity:1"
             d="m 115.48,46.661 c 0.67,-0.111 1.35,-0.161 2,-0.334 1.47,-0.384 2.88,-0.938 4.34,-1.333 2.67,-0.723 5.77,-1.273 8.5,-1.5 2.34,-0.195 5.35,-0.166 7.83,-0.166 2,0 6.09,-0.507 7.66,1.333 0.47,0.542 0.37,1.172 0.5,1.833 0.37,1.818 0.82,3.648 1,5.499 0.1,0.442 -0.1,0.896 0,1.333 0.15,0.796 0.47,1.549 0.67,2.333 0.28,1.1 0.4,2.231 0.67,3.333 0.87,3.686 2.16,7.166 2.16,10.999 0,0.695 0,4.579 -0.5,4.833 -0.19,0.1 -0.79,0 -1,0 -0.49,0 -0.89,0.05 -1.33,-0.167"
             id="path1178" />
        <path
             style="fill:none;stroke:black;stroke-width:1px;stroke-linecap:butt;stroke-linejoin:miter;stroke-opacity:1"
             d="m 129.65,47.16 c 0.28,2.056 0.57,4.109 0.83,6.166 0.36,2.83 0.58,5.679 1,8.499 0.52,3.395 1,6.753 1,10.166"
             id="path1180" />
        <path
             style="fill:none;stroke:black;stroke-width:1px;stroke-linecap:butt;stroke-linejoin:miter;stroke-opacity:1"
             d="m 122.65,53.16 c 0.83,-0.111 1.68,-0.157 2.5,-0.334 1.52,-0.324 2.97,-0.901 4.5,-1.166 1.04,-0.181 2.11,-0.116 3.17,-0.167 1.08,-0.05 4.33,-0.241 5.83,-0.166 0.83,0.04 1.67,0.06 2.5,0.166 1.53,0.192 -0.31,0.167 0.5,0.167"
             id="path1182" />
        <path
             style="fill:none;stroke:black;stroke-width:1px;stroke-linecap:butt;stroke-linejoin:miter;stroke-opacity:1"
             d="m 121.48,60.492 c 4.24,0.678 8.47,-0.307 12.67,-0.667 1.61,-0.137 3.74,0.318 5.33,0 0.67,-0.134 1.37,-0.333 2,-0.333"
             id="path1184" />
        <path
             style="fill:none;stroke:black;stroke-width:1px;stroke-linecap:butt;stroke-linejoin:miter;stroke-opacity:1"
             d="m 271.3,102.65 c -1.55,-0.4 -3.12,-0.4 -4.67,-0.66 -2.9,-0.49 -9.35,0 -12.33,0 -9.44,0 -18.89,0 -28.33,0 -2.96,0 -5.73,0.34 -8.67,0.66 -0.28,0 -2.66,-0.1 -2.66,0.34 0,0.31 0.63,-0.36 0.67,-0.67 0.1,-0.88 0,-1.78 0,-2.666 0,-0.963 0.32,-12.011 0,-12.665 -0.22,-0.437 -5.78,0.694 -6.34,0.999 -2.48,1.353 -4.63,3.471 -7,5 -2.77,1.798 -1.77,0.685 -4,2.666 -2.07,1.839 -0.57,0.937 -3,2.666 -2.29,1.64 -7.72,5.71 -8.99,8 -2.04,3.67 0.65,0.68 -1.67,3 -0.39,0.39 -1.43,0.99 -1,1.33 1.01,0.81 3.4,1.79 4.33,2.34 4.86,2.83 -1.73,-0.71 2.34,1.99 0.29,0.2 0.69,0.16 0.99,0.34 2.12,1.27 2.74,3.77 4,5.66 0.73,1.09 3.91,4.22 5,5 0.18,0.13 0.48,-0.1 0.67,0 1,0.67 2,1.34 3,2 0.11,0 0.23,0 0.33,0 0.83,-0.18 0.84,0.75 1.34,1 0.89,0.45 1.74,0.3 2.66,0.67 2.04,0.82 3.66,2.33 5.67,2.67 0.17,0 1.23,0.1 1.33,0 0.79,-0.79 -0.18,-2.23 -0.33,-3.34 -0.23,-1.68 -0.13,-3.34 -0.33,-5 -0.25,-1.94 -0.67,-3.7 -0.67,-5.66 0,-0.88 -0.1,-2.96 0,-3 1.05,-0.53 4.01,0 5.33,0 1.92,0 3.77,-0.43 5.67,-0.67 1.97,-0.24 4.03,0.25 6,0 11.18,-1.4 22.65,-1 33.99,-1 0.78,0 1.6,-0.24 2.34,0 0.14,0 0.17,0.3 0.33,0.34 0.2,0 4.77,0.56 5,0.33 0.4,-0.4 -0.26,-1.11 -0.34,-1.67 -0.14,-0.99 0.13,-2.01 0,-3 -0.17,-1.35 -0.54,-1.41 -1,-2.33 -0.52,-1.05 0.14,-3.67 0.34,-4.67 z"
             id="path1337" />
        <path
             style="fill:none;stroke:black;stroke-width:1px;stroke-linecap:butt;stroke-linejoin:miter;stroke-opacity:1"
             d="m 197.37,99.807 c -4.08,3.783 -4.03,3.673 -8.83,8.483 -0.14,0.14 -0.32,0.28 -0.36,0.47 0,0.1 0.17,0.17 0.24,0.12 0.25,-0.18 0.44,-0.44 0.59,-0.71 0.16,-0.29 0.19,-0.64 0.35,-0.94 1.14,-2.13 2.53,-4.1 4.01,-6.01 0.39,-0.51 0.72,-1.08 1.18,-1.531 0.58,-0.581 1.29,-0.702 1.88,-1.178 0.14,-0.114 0.16,-0.374 0.36,-0.472 0.46,-0.231 0.58,0.713 0.58,1.768 0,0.283 -0.2,0.543 -0.23,0.823 -0.1,0.86 0,1.73 -0.12,2.59 -0.1,0.81 -0.36,1.58 -0.59,2.36 -0.1,0.36 -0.24,0.7 -0.35,1.06 0,0.1 -0.1,0.29 0,0.24 0.51,-0.51 0.54,-1.34 0.82,-2.01 0.29,-0.68 0.55,-1.37 0.95,-2 0.94,-1.5 1.99,-2.942 3.06,-4.359 0.79,-1.041 2.94,-2.96 3.65,-3.653 0.52,-0.503 1,-1.043 1.53,-1.532 0.67,-0.609 1.2,-0.96 1.77,-1.532 0,-0.04 -0.1,0.07 -0.12,0.118 -0.32,0.621 -0.65,1.245 -0.94,1.885 -0.26,0.579 -0.44,1.192 -0.71,1.768 -2.17,4.715 -0.55,1.209 -2.35,4.242 -0.46,0.773 -0.82,1.593 -1.3,2.353 -0.19,0.31 -0.47,0.55 -0.71,0.83 -0.31,0.51 -0.63,1.02 -0.94,1.53 -0.58,0.96 -1.04,1.84 -1.53,2.83 -0.44,0.89 -0.1,-0.36 -0.59,1.06 0,0.11 0,0.47 0,0.35 0,-0.67 -0.11,-1.34 0,-2 0.24,-1.45 2.41,-8.9 2.48,-9.074 0.4,-1.087 1.15,-2.013 1.65,-3.064 0.81,-1.738 1.45,-3.549 2.23,-5.303 0.1,-0.108 0.46,-1.296 0.71,-1.296 0,0 0,0.09 0,0.118 -0.22,0.327 -0.46,0.637 -0.71,0.943 -1.95,2.417 -0.7,0.579 -2.23,3.064 -1.1,1.774 -2.52,3.166 -3.89,4.713 -0.71,0.794 0,0.19 -0.83,1.296 -0.39,0.525 -1.41,1.648 -1.88,2.123 0,0 -0.1,0 -0.12,0 -0.44,0.44 -0.66,1.25 -0.94,1.77 -0.17,0.29 -0.44,0.52 -0.59,0.82 0,0.1 0,0.16 0,0.24 -0.1,0.15 -0.15,0.31 -0.24,0.47 -0.3,0.54 -0.63,0.99 -0.94,1.53 -0.51,0.88 -1.26,1.59 -1.77,2.47 -0.19,0.33 -0.23,0.71 -0.35,1.06 -0.1,0.12 -0.24,0.33 -0.12,0.36 1.28,0.25 2.08,-2.25 2.59,-2.95 0.58,-0.78 1.28,-1.47 1.89,-2.24 2.7,-3.42 -0.52,0.25 2.71,-3.65 0.41,-0.492 0.88,-0.924 1.29,-1.414 1.22,-1.452 1.99,-2.608 3.77,-3.417 0.32,-0.144 4.6,-2.429 4.6,-2.592 0,-0.04 -0.1,0 -0.12,0 -0.23,0 -0.53,-0.158 -0.7,0 -0.67,0.599 -1.19,1.353 -1.65,2.121 -0.38,0.619 -0.53,1.345 -0.83,2.003 -1.17,2.596 -2.57,5.079 -3.77,7.659 -0.24,0.51 -0.47,1.02 -0.71,1.53 -0.31,0.47 -0.69,0.91 -0.94,1.42 -0.23,0.48 -0.28,1.03 -0.47,1.53 -0.18,0.46 -0.49,0.85 -0.71,1.29 -0.1,0.16 -0.41,0.45 -0.23,0.48 0.23,0 0.5,0.12 0.7,0 0.91,-0.55 3.87,-4.31 4.25,-4.72 1.42,-1.52 2.9,-2.99 4.36,-4.48 0.42,-0.43 0.9,-0.82 1.29,-1.29 0.1,-0.1 -0.2,-0.1 -0.23,0 -0.31,0.64 -0.45,1.34 -0.71,2 -0.41,1.03 -0.79,2.08 -1.3,3.07 -1.49,2.86 -3.13,5.66 -4.71,8.48 -0.66,1.18 -1.42,2.31 -2,3.53 -0.13,0.28 -0.59,2.28 -0.59,2.71 0,0 0,-0.1 0,-0.11 0.76,-0.88 1.55,-1.75 2.35,-2.6 0.65,-0.68 1.34,-1.33 2.01,-2 0.59,-0.78 1.12,-1.62 1.76,-2.36 0.46,-0.52 1.09,-0.88 1.54,-1.41 0.97,-1.16 0.99,-1.86 1.65,-3.18 0,-0.1 0.82,-1.53 1.17,-1.89 0.1,0 0.48,-0.21 0.48,-0.35 0,0 -0.11,0 -0.12,0 -0.35,1.56 -0.57,3.16 -0.95,4.71 -1.57,6.51 -0.36,-0.82 -3.06,8.13 -0.34,1.14 -0.27,2.37 -0.47,3.54 -0.1,0.48 -0.26,0.94 -0.35,1.41 0,0.2 -0.16,0.71 0,0.59 0.58,-0.44 0.83,-1.09 1.29,-1.65 0.55,-0.66 1.2,-1.23 1.77,-1.88 0.64,-0.74 1.2,-1.55 1.89,-2.24 0.3,-0.31 0.15,0.86 0.11,1.29 -0.1,0.83 -0.17,1.67 -0.35,2.48 -0.18,0.8 -0.48,1.57 -0.71,2.36 0,0.1 -0.1,0.21 0,0.23 0.46,0.11 0.44,0 0.83,-0.12 0.28,0 0.29,0.12 0.47,0.12 0.11,0 -0.66,-2.85 -0.83,-3.3 0,-0.13 -0.7,-0.43 -0.82,-0.7 -0.1,-0.18 0,-0.4 0,-0.59 0,-0.63 0,-1.26 0,-1.89 0.1,-1.65 0,-3.34 0.35,-4.95 0.73,-3.02 1.78,-5.96 2.95,-8.84 0.53,-1.3 1.35,-2.47 2.12,-3.65 0.72,-1.1 1.59,-2.107 2.36,-3.181 0.21,-0.301 0.38,-0.634 0.59,-0.942 0,-0.05 0.11,-0.06 0.11,-0.118 0,-0.04 -0.1,-0.03 -0.11,0 -0.19,0.338 -0.29,0.721 -0.48,1.06 -0.48,0.88 -1.06,1.707 -1.53,2.591 -1.25,2.34 1.16,-0.887 -1.41,2.71 -0.39,0.55 -0.87,1.02 -1.3,1.53 -0.16,0.2 -0.36,0.37 -0.47,0.59 0,0 0,0.16 0,0.12 0.23,-1.14 0.73,-3.93 0.83,-4.83 0,-0.55 0,-1.101 0,-1.65 0,-1.416 0.13,-2.83 0.23,-4.242 0,-0.316 0.1,-0.628 0.12,-0.943 0,-0.08 0,-0.18 0,-0.236 -0.5,-0.494 -1.19,0.768 -1.65,1.297 -0.83,0.956 -1.43,2.09 -2.24,3.063 -0.92,1.112 -2.01,2.081 -2.95,3.181 -0.1,0.1 0.18,0 0.24,0 0.11,-0.1 0.19,-0.22 0.24,-0.35 3.25,-8.683 0.47,-2.765 2.94,-6.955 0.16,-0.314 0.32,-0.628 0.47,-0.943 0.1,-0.08 0.18,-0.143 0.24,-0.235 0,-0.07 0,-0.315 0,-0.236 0,1.325 0,0.956 -0.94,3.535 -1.18,3.136 -2.45,6.234 -3.77,9.314 -0.64,1.48 -1.38,2.92 -2.13,4.36 -1.76,3.36 -1.42,2.03 -2.35,4.47 -0.15,0.4 -0.58,1.43 -0.36,1.65 0.29,0.29 0.22,-0.78 0.24,-1.18 0,-0.27 0,-0.55 0,-0.82 0,0 0,-0.12 0,-0.12 0,0 0,0.1 0,0.12 -0.37,0.56 -0.73,1.14 -1.18,1.65 -0.17,0.2 -0.7,0.62 -0.71,0.35 0,-1.21 -0.19,-2.45 0,-3.65 0.21,-1.23 0.79,-2.36 1.18,-3.54 0.16,-0.47 0.29,-0.95 0.47,-1.41 0,-0.1 0,0.17 0,0.24 -0.32,0.64 -0.61,1.31 -1.06,1.88 -0.27,0.35 -0.69,0.56 -1.06,0.83 -0.1,0 -0.14,0.11 -0.23,0.11 0,0 0.38,-0.31 0.35,-0.23 -0.4,0.96 -0.77,1.93 -1.3,2.83 -0.26,0.45 -0.7,0.78 -1.06,1.17 -0.1,0.1 -0.31,0.16 -0.23,0.24 0,0 0.1,-0.1 0.12,-0.12 1.88,-1.73 3.63,-3.61 5.65,-5.18 1.18,-0.92 2.6,-1.49 3.89,-2.24 0.79,-0.46 1.56,-0.96 2.36,-1.41 0,0 0.11,0 0.12,0 0.15,2.64 -0.11,2.19 -0.83,5.3 -5.39,23.13 -1.27,4.56 -2.12,9.66 0,0 0,-0.1 0,-0.12 0.73,-0.92 1.35,-1.94 2.24,-2.71 5.23,-4.5 9.88,-7.05 15.79,-10.72 0.19,-0.12 0.38,-0.25 0.59,-0.35 0,0 0.13,0 0.12,0 -0.34,1.33 -0.86,2.64 -1.42,3.88 -0.37,0.84 -0.75,1.67 -1.18,2.48 0,0.1 -0.58,0.51 -0.7,0.23 -1.14,-2.47 -1.23,-3.9 -0.95,-6.71 0.1,-0.66 0.41,-1.26 0.59,-1.89 0,-0.1 0.1,-0.2 0,-0.23 -0.66,-0.33 -1.4,0.5 -2,0.94 -0.49,0.36 -0.86,0.86 -1.3,1.3 -0.94,0.94 -1.91,1.86 -2.82,2.82 -0.5,0.53 -0.91,1.14 -1.42,1.65 -0.16,0.16 -2,1.42 -2,1.89 0,0 0.1,0 0.12,0 0.36,-0.22 0.72,-0.44 1.06,-0.71 0.61,-0.48 1.16,-1.03 1.76,-1.53 2.19,-1.81 5.63,-4.39 7.55,-5.89 2.01,-1.59 1.08,-1.02 3.29,-1.53 0.1,0 0.16,-0.15 0.24,-0.12 0.1,0 0.11,0.15 0.12,0.23 0,0.79 0.1,1.58 0,2.36 -0.1,0.99 -0.33,1.96 -0.47,2.95 -0.1,0.66 -0.17,1.33 -0.24,2 0,0.2 0,0.39 0,0.59 0,0 0,0.12 0,0.12 0.36,0 0.73,-0.1 1.06,-0.24 0.86,-0.37 1.66,-0.84 2.48,-1.29 0.67,-0.38 1.37,-0.73 2,-1.18 1.18,-0.85 2.25,-1.85 3.42,-2.71 0.17,-0.13 0.37,-0.24 0.59,-0.24 0.11,0 -0.18,0.14 -0.24,0.24 -1.37,2.09 -2.19,3.4 -3.3,5.53 -0.14,0.27 -0.25,0.55 -0.35,0.83 0,0 0,0.14 0,0.12 1.75,-1.54 3.33,-3.27 4.95,-4.95 0.57,-0.6 1.12,-1.24 1.65,-1.89 0,0 0,-0.11 0,-0.11 -2.24,-0.32 -3.47,0.58 -5.42,1.53 -0.7,0.33 -1.47,0.53 -2.13,0.94 -0.42,0.27 -0.82,0.59 -1.17,0.94 -0.1,0.1 0.17,0 0.23,0 1.18,-0.93 2.04,-2.24 3.65,-2.47 0.16,0 0,0.31 0,0.47 0,0.9 0,1.81 0,2.71 0,0.27 0,0.55 0,0.82 0,0 0,0.16 0,0.12 0,-0.78 0,-0.83 0.24,-2.12 0,-0.21 0.24,-0.38 0.24,-0.59 0,-0.1 -0.16,0 -0.24,0 -0.35,0 -0.71,0 -1.06,0 -3.23,0.35 -2.94,0.88 -5.54,2.83 -0.22,0.17 -0.47,0.31 -0.71,0.47 -0.1,0 -0.18,0.29 -0.11,0.24 2.66,-2.18 0.62,-1.15 4.47,-5.19 0.49,-0.51 1.17,-0.8 1.77,-1.18 0,0 0.12,0 0.12,0 0.17,1.69 0,3.52 -0.24,5.19 0,0 -0.15,0.81 -0.11,0.82 1.09,0.37 2.22,-0.63 3.3,-1.06 0.8,-0.32 1.59,-0.65 2.35,-1.06 1.07,-0.57 1.97,-1.77 3.18,-1.77 0,0 0,0.1 0,0.12 -0.22,0.79 -0.47,1.57 -0.7,2.36 -0.21,0.7 -0.41,1.41 -0.59,2.12 0,0.1 -0.1,0.28 0,0.24 2.09,-1.4 2.81,-2.2 5.07,-3.66 0.98,-0.64 2.02,-1.21 3.06,-1.76 0.14,-0.1 0.31,-0.1 0.47,-0.12 0.1,0 0.18,0 0.24,0 0,0 0,-0.13 0,-0.12 -1.32,0.26 -1.04,1.39 -1.77,2.71 -0.5,0.89 -1.16,1.69 -1.65,2.59 -0.26,0.48 -0.41,1.02 -0.59,1.53 -0.1,0.19 -0.28,0.71 -0.12,0.59 1.93,-1.44 3.08,-3.67 4.95,-5.18 4.48,-3.6 2.41,-2.12 6.13,-3.65 0.18,-0.1 -0.41,-0.1 -0.59,0 -1.42,0.61 -2.28,1.47 -3.54,2.47 -1.85,1.48 -4.1,2.91 -5.65,4.71 0,0 0.1,0 0.12,0 0.91,-0.57 1.8,-1.18 2.71,-1.76 1.45,-0.95 2.76,-2.15 4.36,-2.83 0.94,-0.41 4.94,-0.87 6.36,-0.94 0.63,0 1.26,0 1.88,0 0,0 0.16,0 0.12,0 -1.55,0 -3.59,2.75 -4.24,3.53 -0.43,0.52 -0.78,1.1 -1.18,1.65 -0.13,0.19 -0.58,0.59 -0.35,0.59 0.1,0 0.1,-0.1 0.12,-0.12 0.97,-0.79 1.9,-1.64 2.94,-2.35 1.45,-1 3,-1.99 4.72,-2.48 0.11,0 0.23,0 0.35,0 0.63,-0.16 1.26,-0.28 1.88,-0.47 0.41,-0.13 0.77,-0.39 1.18,-0.47 0.1,0 0,0.16 0,0.23 -0.24,2.07 -0.83,3.46 -1.41,5.42 0,0 0.1,0 0.12,0 0.39,-0.14 0.81,-0.25 1.17,-0.47 1.08,-0.64 3.49,-3.16 4.84,-2.71 0.1,0 0.21,0 0.23,0.12 0.25,1.23 -0.53,4.08 -0.94,5.42 0,0 -0.12,0 -0.12,0 0,0 0.11,-0.1 0.12,-0.12 0.14,-0.58 0.29,-1.17 0.35,-1.76 0.13,-1.21 0.39,-5.78 -0.12,-6.96 0,-0.1 -0.71,0 -1.06,0 -0.79,-0.1 -1.04,-0.67 -2.12,-0.11 -0.96,0.49 -1.63,1.44 -2.47,2.12 -0.96,0.77 -1.98,1.47 -2.95,2.24 -3.47,2.73 -1.38,1.51 -4.48,3.06 -0.1,0 -0.14,0.12 -0.23,0.12 0,0 0,-0.1 0,-0.12 -0.1,-0.43 -0.24,-0.86 -0.24,-1.3 0,-3.42 0.34,-2.03 1.3,-5.54 0.15,-0.56 0.22,-1.08 -0.12,-0.94 -1.66,0.71 -1.62,0.95 -3.42,1.89 -1.78,0.93 -3.63,1.76 -5.42,2.71 -0.96,0.51 -1.89,1.08 -2.82,1.65 -0.37,0.22 -1,0.81 -1.06,0.7 -0.83,-1.32 -0.66,-1.84 -0.48,-3.77 0,-0.41 0.61,-1.27 0.36,-1.53 -0.1,-0.1 -0.24,0 -0.36,0 -0.51,0 -1.03,-0.11 -1.53,0 -0.74,0.17 -1.4,0.57 -2.12,0.83 -1.95,0.69 -3.91,1.39 -5.89,2 -1.48,0.45 -2.99,0.76 -4.48,1.18 -0.2,0 -0.41,0.12 -0.59,0.23 -0.1,0.1 0.16,0 0.24,0 0.91,-0.29 1.84,-0.53 2.71,-0.94 0.9,-0.42 4.72,-2.75 5.65,-3.42 0.53,-0.37 0.92,-0.91 0.83,-0.94 -0.41,-0.14 -0.86,0 -1.3,0 -3.07,0 -2.26,-0.21 -5.89,1.06 -1.28,0.45 -2.49,1.08 -3.77,1.53 -3.98,1.43 -8.87,2.62 -12.84,3.42 -1.68,0.34 -3.39,0.39 -5.07,0.71 -0.42,0.1 -0.79,0.29 -1.18,0.47 0,0 -0.12,0.1 -0.12,0.12 0,0 0.1,0 0.12,0 0.12,0 0.28,0.1 0.35,0 0.28,-0.35 0.37,-0.8 0.59,-1.18 0.61,-1.04 1.2,-2.09 1.89,-3.07 0.46,-0.65 1.08,-2.33 1.65,-1.76 0.91,0.9 -1.52,2.09 -2.48,2.94 -1.31,1.18 -2.7,2.31 -4.24,3.18 -2.24,1.28 -4.88,1.82 -7.07,3.19 -0.28,0.17 0.93,1.09 1.42,1.06 0.55,0 1.1,0 1.65,-0.12 0.14,0 0.22,-0.17 0.35,-0.24 0.13,-0.1 0.14,0 0.12,0.12 -0.86,2.91 -0.49,1.15 -1.3,4.83 -0.31,1.42 -0.43,2.72 -0.74,4.14"
             id="path1339" />
        <path
             style="fill:none;stroke:black;stroke-width:1px;stroke-linecap:butt;stroke-linejoin:miter;stroke-opacity:1"
             d="m 173.64,428.61 c 9.98,0.34 20.04,-0.59 30,0 2.9,0.17 5.77,0.77 8.67,1 7.85,0.62 15.79,0.9 23.66,1.33 3.37,0.19 6.61,0.67 10,0.67 19.24,0 38.43,-0.33 57.66,-0.33 6.16,0 12.59,0.42 18.66,-0.34 1.65,-0.2 5.92,0.1 7,-1 0.56,-0.55 -0.26,-3.59 -0.33,-4.66 -0.42,-6.24 -0.19,-12.78 0.33,-19 0.1,-1.02 -0.15,-3.76 1,-4.33 1.16,-0.58 3.43,1.21 4,1.66 2.07,1.66 4.17,3.39 6,5.34 2.91,3.1 5.45,6.51 8.66,9.33 1.38,1.2 2.97,2.13 4.34,3.33 1.41,1.25 2.78,2.56 4,4 0.57,0.69 0.83,1.59 1.33,2.33 1.15,1.72 2.3,3.45 3.67,5 1.04,1.18 2.25,2.19 3.33,3.34 2.56,2.73 4.9,5.81 7.33,8.66 0.59,0.7 3.59,3.7 4,5.33 1.65,6.6 -6.62,13.57 -10,18 -2.39,3.15 -4.61,6.44 -7.33,9.33 -1.18,1.26 -2.52,2.38 -3.67,3.67 -0.63,0.71 -1.01,1.63 -1.66,2.33 -2.1,2.26 -4.86,4.48 -7.34,6.34 -2.36,1.77 -5.11,3.18 -7.66,4.66 -0.43,0.25 -0.87,0.48 -1.33,0.67 -0.49,0.19 -7.24,2.43 -7.34,2.33 -1.05,-1.06 -2.24,-2.04 -3,-3.33 -1.03,-1.75 -0.66,-11.7 -0.66,-13.67 0,-5.91 -0.67,-11.75 -0.67,-17.66 0,-0.1 0.44,-7.56 0.33,-7.67 0,0 -5.92,0 -6.33,0 -9,0 -18,0 -27,0 -11.22,0 -22.44,0 -33.66,0 -5.32,0 -10.68,0.23 -16,0 -9.98,-0.43 -19.99,-0.66 -29.99,-0.66 -8,0 -16,0 -24,0 -3.58,0 -7.68,0.43 -11,-0.67 -1.34,-0.45 -3.34,0.33 -4.66,-0.33 -0.2,-0.1 0,-0.45 0,-0.67 -0.21,-1.45 -0.43,-2.89 -0.67,-4.33 -0.46,-2.79 0,-5.55 -0.33,-8.33 -0.4,-3.59 -0.67,-7.07 -0.67,-10.67"
             id="path1531" />
        <path
             style="fill:none;stroke:black;stroke-width:1px;stroke-linecap:butt;stroke-linejoin:miter;stroke-opacity:1"
             d="m 178.98,432.94 c -1.52,1.88 -2.98,3.8 -4.5,5.67 -0.2,0.24 -0.53,0.38 -0.67,0.67 -0.1,0.1 0.22,0 0.33,0 0.5,0 1.05,0.2 1.5,0 0.99,-0.44 1.77,-1.24 2.67,-1.84 0.77,-0.51 1.56,-1 2.33,-1.5 0.4,-0.25 4.24,-2.48 4.34,-2.66 0,0 -0.12,0 -0.17,0 -1.61,0.18 -1.12,-0.12 -2.17,1 -0.56,0.6 -1.16,1.17 -1.66,1.83 -1.05,1.37 -1.74,3.05 -2.67,4.5 -0.23,0.36 -0.64,0.61 -0.83,1 0,0.1 0.11,0 0.16,0 0.45,-0.1 0.95,0.1 1.34,-0.17 1.05,-0.63 1.83,-1.63 2.83,-2.33 2.76,-1.95 10.1,-6.52 13,-8 0.5,-0.26 1.11,-0.2 1.66,-0.33 0.11,0 -0.23,-0.1 -0.33,0 -1.92,1.15 -2.44,1.62 -3.83,3.33 -0.43,0.53 -0.74,1.14 -1.17,1.67 -0.74,0.92 -1.57,1.76 -2.33,2.66 -1.6,1.9 -3.07,3.91 -4.83,5.67 -0.64,0.64 -1.36,1.19 -2,1.83 -0.33,0.33 -1.46,1.58 -1.34,1.83 0.1,0.1 0.23,0 0.34,0 2.31,0 0.7,0.2 4.16,-2.33 1.76,-1.28 3.16,-2.17 5.17,-3.5 1.38,-0.9 2.67,-1.96 4.16,-2.66 0.23,-0.11 1.98,-0.46 2.17,-0.84 0.12,-0.23 -0.26,-0.32 -0.17,-0.66 0.22,-0.76 0.43,-1.39 0.84,-2 0.55,-0.83 -0.68,-0.5 -1.17,-0.5 -0.44,0 -0.93,-0.19 -1.33,0 -1.71,0.81 -3.1,2.58 -4.5,3.83 -3.45,3.06 -0.87,0.66 -4.67,3.67 -1.14,0.9 -2.07,2.07 -3.33,2.83 -0.73,0.44 0.1,0.42 0.17,0.33 0.57,-0.48 1.02,-1.09 1.5,-1.66 1.52,-1.83 2.87,-3.79 4.33,-5.67 0.6,-0.78 0.37,-0.14 1.33,-0.5 0,0 1.1,-0.9 1,-1 -0.41,-0.41 -1.19,0.17 -1.66,0.5 -0.71,0.49 -1.23,1.22 -1.84,1.83 -2.38,2.38 -1.39,1.49 -4.16,3.84 -0.36,0.3 -4.5,3.45 -4.5,3.99 0,0.1 0.11,0 0.16,0 0.45,-0.15 0.91,-0.28 1.34,-0.5 5.32,-2.74 2.29,-1.37 7,-4.33 4.42,-2.77 6.6,-3.8 11.16,-6.5 0.8,-0.47 1.51,-1.08 2.33,-1.5 0.31,-0.15 0.68,-0.1 1,-0.16 1.64,-0.55 3.1,-1.64 4.67,-2.34 0.11,-0.1 0.67,0 0.67,-0.33 0,0 -0.7,0 -1,0.17 -0.31,0.17 -2.31,1.81 -2.67,2.16 -0.75,0.75 -1.43,1.57 -2.17,2.34 -1.92,2.01 -4.02,3.86 -6,5.83 -0.61,0.61 -1.22,1.22 -1.83,1.83 -0.33,0.22 -0.7,0.4 -1,0.67 -0.43,0.4 -0.75,0.91 -1.17,1.33 -0.72,0.73 -1.6,1.28 -2.33,2 -0.36,0.36 -0.64,0.81 -1,1.17 0,0.1 -2.35,2.05 -2,2.16 1.35,0.45 2.72,-0.88 4,-1.5 4.38,-2.08 8.51,-4.86 12.33,-7.83 1.95,-1.52 3.59,-3.2 5.67,-4.5 0.41,-0.26 1.3,-0.63 1.67,-1 0.19,-0.19 0.28,-0.48 0.5,-0.66 0.21,-0.18 0.86,-0.31 0.66,-0.5 -0.5,-0.5 -2.52,0.55 -2.66,0.66 -2.05,1.54 -2.6,2.52 -4.17,4.34 -1.75,2.02 -3.53,3.9 -5,6.16 -0.19,0.3 -2.17,3.33 -2.5,3 -0.95,-0.95 6.5,-6.72 7,-7.16 0.7,-0.63 1.32,-1.35 2,-2 1.29,-1.25 2.66,-2.48 4,-3.67 0.5,-0.44 1.13,-0.78 1.5,-1.33 0.11,-0.17 0.33,-0.7 0.33,-0.5 0,0.12 -0.1,0.23 -0.16,0.33 -0.6,0.84 -1.29,1.62 -1.84,2.5 -0.39,0.63 -0.61,1.36 -1,2 -0.87,1.43 -1.57,2 -2.5,3.33 -2.88,4.12 0.53,-0.66 -2,4.17 -0.23,0.45 -0.67,0.77 -1,1.16 -0.32,0.4 -1.29,1.57 -1.83,1.84 -0.38,0.19 -2.67,-0.3 -2.67,0.33 0,0.1 0.12,0 0.17,0 0.98,0 0.11,0.16 0.83,-0.83 0.89,-1.21 1.94,-2.3 2.84,-3.5 0.38,-0.52 0.58,-1.17 1,-1.67 0.75,-0.9 1.77,-1.57 2.5,-2.5 0.34,-0.43 0.38,-1.03 0.66,-1.5 0.1,-0.1 0.27,-0.1 0.34,-0.16 0.17,-0.31 0.16,-0.69 0.33,-1 2.2,-4.09 -0.62,1.88 1.83,-2.34 0,-0.1 0.15,-1.5 0.5,-1.5 0.1,0 0,0.11 0,0.17 -0.1,0.72 0,1.47 -0.16,2.17 -0.73,2 -1.45,4 -2.17,6 -0.1,0.55 0,1.12 -0.17,1.66 -0.2,0.8 -0.56,1.56 -0.83,2.33 -0.1,0.22 -0.35,0.81 -0.17,0.67 2.41,-1.75 3.39,-3.19 5.84,-5.5 5.72,-5.4 3.17,-2.81 7.66,-6.66 1.08,-0.93 2.11,-1.9 3.17,-2.84 0.1,-0.1 0.67,-0.44 0.5,-0.5 -1.24,-0.41 -1.79,1.92 -2.5,3 -2.31,3.5 -4.6,7.14 -7.33,10.33 -2.6,3.03 -1.38,0.84 -3,3.5 -0.62,1.02 -3.48,5.91 -0.84,-2.33 0.56,-1.73 1.63,-3.24 2.5,-4.83 1.47,-2.69 3.03,-5.32 4.5,-8 1.03,-1.87 2.06,-3.75 3,-5.67 0.42,-0.85 1,-1.71 1,-2.66 0,-0.1 -0.11,0 -0.17,0 -0.27,0 -0.63,-0.19 -0.83,0 -2.13,2.01 -2.88,4.66 -4.5,7 -1.44,2.09 -5.78,7.11 -7.16,10.16 0,0.1 2.83,-1.96 3.66,-2.5 6.86,-4.38 3.36,-1.97 10.17,-6 1.07,-0.63 2.06,-1.4 3.16,-2 1,-0.53 1.69,-0.41 1.67,-0.33 -0.9,3.76 -2.74,6.92 -4.5,10.33 -0.87,1.69 -2.33,3.82 -2.33,5.83 0,0.1 0.12,0 0.16,0 0.91,-0.58 1.82,-1.17 2.67,-1.83 2.45,-1.91 2.42,-2.69 5,-5.33 1.37,-1.41 2.89,-2.66 4.33,-4 0.15,-0.14 0.52,-0.41 0.34,-0.5 -0.78,-0.39 -1.22,1.26 -1.67,2 -1.09,1.81 -2.08,3.68 -3.17,5.5 -2.4,4.02 -2.48,3.64 -4.5,7.66 -0.21,0.43 -0.36,0.88 -0.5,1.34 0,0.16 -0.12,0.61 0,0.5 1.95,-1.71 2.46,-2.98 4.34,-5.34 3.51,-4.41 7.13,-8.75 10.66,-13.16 1,-1.24 3.96,-2.71 2.84,-3.83 -0.28,-0.28 -0.82,-0.16 -1.17,0 -1.25,0.56 -3.55,2.38 -4.5,3.33 -0.72,0.72 -1.23,1.66 -2,2.33 -2.44,1.95 -4.89,3.89 -7.33,5.84 -0.56,0.27 -1.15,0.48 -1.67,0.83 -0.33,0.22 -0.47,0.69 -0.83,0.83 -0.16,0.1 -0.1,-0.35 0,-0.5 0.49,-1.03 1.09,-2.01 1.66,-3 0.42,-0.7 1.57,-2.61 2.34,-3.16 0.13,-0.1 0,0.33 0,0.5 0,0.77 -0.1,1.56 -0.17,2.33 -0.12,0.9 -0.34,1.77 -0.5,2.67 0,0.1 -0.1,0.14 0,0.16 1.82,0.61 3.32,-1.91 5,-2.83 0.68,-0.37 1.46,-0.53 2.17,-0.83 0.57,-0.25 1.12,-0.54 1.66,-0.84 0.18,-0.1 0.3,-0.33 0.5,-0.33 0.16,0 -0.27,0.19 -0.33,0.33 -0.44,0.98 -0.66,2.05 -1.17,3 -0.45,0.85 -1.17,1.52 -1.66,2.34 -0.68,1.12 -1.18,2.35 -1.84,3.49 -0.1,0.1 0,-0.22 0,-0.33 0.31,-1.01 0.57,-2.04 1,-3 0.3,-0.66 0.68,-1.3 1.17,-1.83 0.15,-0.17 0.47,-0.1 0.67,-0.17 1.19,-0.7 0.98,-0.95 2,-1.33 0.77,-0.29 1.57,-0.12 2.33,-0.5 1.4,-0.7 3.34,-2.36 4.5,-3.33 1.12,-0.95 1.76,-1.6 2.66,-2.5 0.17,-0.17 0.27,-0.5 0.5,-0.5 0.1,0 0.21,0.1 0.17,0.16 -2.26,4.53 -2.12,3.97 -6.16,7.67 -0.64,0.59 -1.33,1.12 -2,1.67 -0.72,0.56 -1.45,1.1 -2.17,1.66 -0.1,0.1 -0.22,0.11 -0.17,0.17 0.1,0.1 0.25,0.1 0.34,0 0.77,-0.73 1.4,-1.6 2.16,-2.33 4.17,-4.05 2.69,-2.44 8,-5.84 0.47,-0.3 0.87,-0.69 1.33,-1 0.1,0 0.19,-0.1 0.17,0 -1.43,4.55 -2.65,6.13 -6,10.83 -0.87,1.22 -2.01,2.21 -3,3.34 -0.18,0.21 -0.27,0.51 -0.5,0.66 -0.1,0.1 -0.1,-0.25 0,-0.33 0.67,-0.77 1.35,-1.55 2.17,-2.17 6,-4.54 9.86,-6.76 16.33,-10.49 1.5,-0.87 -0.1,2.36 -0.17,2.5 -1.18,1.88 -2.56,3.63 -4,5.33 -0.96,1.14 -2.13,2.08 -3.16,3.16 0,0 -0.1,0.2 0,0.17 6.52,-4.22 3.55,-3.9 13.33,-12.5 2.69,-2.36 5.74,-4.27 8.66,-6.33 0.1,-0.1 0.31,-0.11 0.34,0 0.61,2.23 0,2.11 -1.34,4.17 -1.32,2.11 -2.41,4.4 -3.99,6.33 -0.4,0.48 -0.95,0.84 -1.34,1.33 -0.29,0.38 0.96,-0.2 1.34,-0.5 1.17,-0.94 2.42,-2.67 3.16,-3.83 0.1,-0.11 -0.24,0.1 -0.33,0.17 -1.52,1.25 -2.93,2.64 -4.5,3.83 -6.52,4.96 -8.25,5.25 -12.5,9.5 -0.1,0.1 0.25,-0.1 0.33,-0.17 1.15,-1.3 2.06,-2.83 3.34,-4 7.09,-6.48 9,-8.84 15.66,-12 0.14,-0.1 -0.25,0.2 -0.33,0.34 -0.81,1.26 -1.46,2.61 -2.34,3.83 -0.96,1.35 -2.13,2.53 -3.16,3.83 0,0.1 -0.1,0.17 0,0.17 0.73,-0.1 1.55,0.1 2.17,-0.33 1.36,-0.9 3.97,-3.95 5.49,-5.34 0.1,0 0,0.12 0,0.17 -0.36,0.9 -0.73,1.8 -1.16,2.67 -0.68,1.35 -1.54,2.61 -2.17,4 -0.16,0.35 -0.32,0.8 -0.17,1.16 0.1,0.21 0.52,0.16 0.67,0 7.02,-8.02 3.75,-4.58 9.67,-10.5 0.1,-0.1 -0.12,0.11 -0.17,0.17 -0.51,0.71 -1,1.44 -1.5,2.17 -1,1.44 -2.04,2.86 -3,4.33 -0.49,0.75 -0.91,1.54 -1.33,2.33 0,0.1 -0.1,0.2 0,0.17 0.8,-0.63 1.62,-1.27 2.33,-2 1.02,-1.05 1.83,-2.28 2.83,-3.33 0.12,-0.13 0.34,-0.23 0.5,-0.17 0.11,0 0.1,0.24 0,0.33 -0.84,1.42 -1.75,2.79 -2.66,4.17 -1.15,1.73 -2.25,3.5 -3.5,5.16 -0.43,0.57 -1.04,0.97 -1.5,1.5 -0.1,0.1 0.28,0 0.33,-0.16 1.18,-2.36 2.18,-4.8 3.33,-7.17 5.61,-11.52 -0.44,1.33 5.84,-10.5 0.1,-0.1 -0.26,-0.1 -0.34,0 -0.61,0.62 -1.09,1.36 -1.66,2 -4.25,4.76 -3.46,3.34 -11,9 -0.74,0.56 -2.31,2.19 -2.83,1.67 -0.1,-0.1 -0.1,-0.23 0,-0.33 0.51,-1.14 0.8,-2.44 1.66,-3.34 1.75,-1.83 3.97,-3.14 6,-4.66 1.86,-1.39 2.4,-1.36 1.33,2.33 -0.44,1.53 -1.31,2.9 -2,4.33 -0.48,1.01 -0.97,2.01 -1.5,3 -0.12,0.25 -0.43,0.34 -0.66,0.5 -8.06,5.56 -1.54,1.3 -6.17,4 -0.17,0.1 -2.32,0.96 -2.5,0.33 -0.99,-3.48 0.93,-2.74 4,-5.33 6.2,-5.23 4.57,-4.46 8.83,-7.66 0.51,-0.38 0.41,0 1.17,-0.34 0.65,-0.32 1.24,-0.76 1.83,-1.16 1.08,-0.74 2.22,-1.74 3.5,-2.17 0.1,0 0,0.11 0,0.17 -0.26,1.17 -0.39,2.38 -0.83,3.5 -2.22,4.78 -3.98,8.31 -5.83,13.16 -0.12,0.32 -0.1,0.68 -0.17,1 -0.1,0.16 -0.1,-0.35 0,-0.5 0.54,-1.04 0.98,-2.2 1.83,-3 3.63,-3.4 7.66,-6.34 11.5,-9.5 1.44,-1.18 2.9,-2.32 4.34,-3.5 0.1,-0.1 0.23,-0.2 0.16,-0.16 -0.18,0.1 -0.37,0.18 -0.5,0.33 -1.1,1.3 -2.04,2.73 -3.16,4 -2.55,2.87 -5.43,5.48 -8,8.33 0,0 0.13,0 0.16,0 0.87,-1.03 1.59,-2.18 2.5,-3.17 3.92,-4.19 7.53,-8.08 11.83,-11.66 0.1,-0.1 0.25,-0.1 0.34,-0.17 0.12,-0.11 -0.34,0 -0.5,0 -0.5,0 -1,0 -1.5,0 -1.63,0 -2.53,0.3 -4.17,0.5 -1.53,0.19 -2.84,0 -2.33,2 0.1,0.4 0.6,0.8 0.83,1 1.34,1.19 1.62,0.84 3.34,0.84 1.7,0 3.49,-0.12 5.16,-0.5 2.16,-0.5 4.31,-1.29 6.5,-1.67 2.27,-0.39 4.72,-0.33 7,-0.33 0.1,0 -0.11,0 -0.17,0 -0.41,0 -1.27,-0.13 -1.66,0 -0.81,0.26 -1.13,0.52 -2.17,1 -0.96,0.44 -4.09,1.63 -5.17,2.16 -0.91,0.46 -1.75,1.05 -2.66,1.5 -2.9,1.45 -3.5,1.27 -6,3.17 -2.16,1.64 -1.7,1.71 -3.33,3.16 -0.1,0.1 -0.25,0.1 -0.34,0.17 -0.12,0.12 -0.16,0.48 0,0.5 3.15,0.39 3.19,-1.68 6.33,-4.5 2.79,-2.49 2.64,-2.48 5.67,-4.5 0.93,-0.62 0.7,1.19 0.67,1.34 -1.25,5.44 -1.33,4.3 -4.34,9.49 -0.26,0.46 -0.95,1.76 -0.5,1.5 4.6,-2.6 6.93,-4.4 11.17,-7.99 1.22,-1.04 2.56,-2.87 4,-3.84 0.1,0 0,0.12 0,0.17 -0.59,1.07 -1.22,2.11 -1.83,3.17 -0.5,0.83 -1,1.66 -1.5,2.5 -0.17,0.27 -0.32,0.56 -0.5,0.83 -0.1,0.1 -0.17,0.1 -0.17,0.16 0,0.1 0.12,0 0.17,0 0.1,0.1 0.16,0.28 0.33,0.17 1.41,-0.92 2.9,-1.73 4.17,-2.83 0.8,-0.7 1.33,-1.67 2,-2.5 0.44,-0.56 0.92,-1.08 1.33,-1.67 0,0 -0.11,0 -0.17,0 -0.22,0 -0.5,-0.14 -0.66,0 -1.16,1.01 -2.09,2.25 -3.17,3.34 -3.43,3.43 -8.03,8.1 -12.17,10.83 -0.67,0.44 -1.55,0.46 -2.33,0.66 0,0 -0.15,0.1 -0.17,0 -1.32,-5.65 0,-5.31 2.84,-9.83 0.42,-0.67 0.6,-1.47 1,-2.16 0.55,-0.97 1.38,-1.75 2,-2.67 0,-0.1 0,-0.2 0,-0.17 -0.86,0.58 -1.75,1.13 -2.5,1.84 -1.64,1.52 -3.1,3.23 -4.67,4.83 -1.15,1.18 -2.24,2.44 -3.5,3.5 -1.44,1.21 -3.2,1.99 -4.66,3.16 -0.1,0 0.11,0 0.16,0 0.73,-0.15 1.52,-0.14 2.17,-0.5 1.99,-1.1 3.74,-2.6 5.66,-3.83 3.03,-1.94 6.17,-3.69 9.17,-5.66 5.54,-3.65 1.22,-2.01 7,-3.84 1.81,-0.57 3.52,-0.88 5.33,-1.33 0.11,0 -0.28,-0.1 -0.33,0 -0.76,1.4 -1.38,2.87 -2,4.33 -0.6,1.43 -1.06,2.91 -1.67,4.33 -0.17,0.42 -0.46,0.77 -0.66,1.17 -0.1,0.2 0.14,0.33 0.33,0.17 1.38,-1.17 2.67,-2.44 4,-3.67 1.5,-1.38 2.92,-2.87 4.5,-4.16 1.94,-1.45 3.89,-2.89 5.83,-4.34 0.17,-0.1 0.34,-0.1 0.5,-0.16 0,0 -0.13,0 -0.17,0 -0.42,0.47 -0.81,0.97 -1.16,1.5 -0.87,1.3 -1.64,2.68 -2.5,4 -0.97,1.46 -2.04,2.86 -3,4.33 -0.71,1.08 -1.36,2.21 -2,3.33 -0.1,0.1 -0.1,0.4 0,0.33 2.3,-1.78 4.3,-3.92 6.5,-5.83 2.64,-2.3 5.36,-4.51 8,-6.83 0.59,-0.52 1.13,-1.09 1.66,-1.67 0,0 0.1,-0.15 0,-0.16 -0.99,-0.2 -1.56,0.27 -2.33,1 -15.55,14.6 7.11,-6.11 -7.5,8.5 -1.15,1.14 -2.55,2 -3.83,2.99 -1,0.78 -1.98,1.59 -3,2.34 -0.2,0.14 -0.42,0.33 -0.67,0.33 -0.12,0 0.11,-0.22 0.17,-0.33 0.83,-1.56 1.55,-3.18 2.5,-4.67 9.81,-15.3 4.01,-6.24 10,-13.83 0,0 -0.12,0 -0.17,0 -0.9,0.48 -1.94,0.78 -2.67,1.5 -3.92,3.92 -7.97,9.57 -11.49,14 -0.82,1.02 -1.6,2.06 -2.5,3 -0.44,0.45 -0.99,0.8 -1.5,1.16 -0.1,0 -0.19,0.1 -0.17,0 3.11,-7.35 2.46,-5.08 10.83,-12.99 1.06,-1.01 2.25,-1.86 3.33,-2.84 0.1,0 0,-0.22 0,-0.16 -0.23,1.22 -0.44,2.44 -0.66,3.66 -0.17,0.89 -0.35,1.78 -0.5,2.67 0,0.11 -0.11,0.31 0,0.33 1.27,0.21 2.28,-0.45 3.5,-0.83 0.1,0 0.35,-0.11 0.33,0 -0.28,1.29 -0.57,2.58 -1,3.83 -0.57,1.65 -1.35,3.22 -2,4.83 -0.24,0.61 -0.55,1.2 -0.67,1.84 0,0.11 0.28,0.1 0.34,0 0.91,-1.45 1.66,-3 2.5,-4.5 0.49,-0.89 1,-1.78 1.5,-2.67 0.1,-0.11 0.16,-0.21 0.16,-0.33 0,-0.1 -0.11,0 -0.16,0 -0.39,0 -0.86,-0.23 -1.17,0 -1.1,0.82 -1.84,2.05 -2.83,3 -1.29,1.22 -2.61,2.4 -4,3.5 -0.28,0.22 -0.69,0.49 -1,0.33 -1,-0.5 0.1,-2.25 0.33,-3.33 1.21,-4.96 3.76,-6.93 -2.33,-0.83 -1.25,1.25 -2.4,2.59 -3.67,3.83 -1.01,0.99 -2.11,1.88 -3.16,2.83 -0.1,0.1 -0.26,0.42 -0.17,0.33 2.14,-1.9 2.41,-2.99 5.17,-5.16 1.54,-1.22 3.35,-2.08 4.99,-3.17 1.3,-0.86 2.54,-1.8 3.84,-2.66 2.26,-1.51 0.31,2.43 -0.17,4.16 -0.42,1.52 -1.01,3 -1.5,4.5 -0.1,0.27 -0.44,0.78 -0.17,0.83 2.67,0.54 5.51,-3.72 6.67,-5.16 0.87,-1.08 1.63,-2.25 2.5,-3.33 0.77,-0.95 1.59,-1.46 1.17,-1.67 -1.73,-0.87 -5.6,5.58 -5.67,5.66 -0.83,1.13 -2.96,2.25 -2.33,3.5 0,0.1 0.12,0 0.16,0 0.58,-0.36 1.21,-0.66 1.67,-1.16 1.28,-1.41 2.44,-2.93 3.5,-4.5 1.49,-2.21 2.85,-4.52 4.17,-6.83 0.54,-0.95 2.1,-2.23 1.33,-3 -0.1,-0.1 -0.53,0 -0.67,0 -0.34,0 -1.02,-0.13 -1.33,0 -1.31,0.52 -2.23,1.94 -3.33,2.66 -0.61,0.4 -1.36,0.51 -2,0.84 -0.14,0.1 -0.2,0.26 -0.34,0.33 -0.41,0.21 -1.51,0.26 -2,0.33 -0.23,0 -2.66,0.27 -2.66,0.5 0,0.11 0.24,-0.1 0.33,0 0.13,0.1 0.19,0.27 0.33,0.34 0.31,0.13 2.76,0.68 2.84,1 0.5,2.01 -0.47,3.75 -1.34,5.49 0,0.1 0,-0.11 0,-0.16 0.1,-0.3 0.17,-0.83 0.31,-1.01"
             id="path1535" />
        <path
             style="fill:none;stroke:black;stroke-width:1px;stroke-linecap:butt;stroke-linejoin:miter;stroke-opacity:1"
             d="m 333.12,407.28 c 1.73,0.51 -2.84,1.66 -2,2.17 1.1,0.65 4.39,-0.18 5.34,-0.34 0.1,0 0.22,0 0.16,0 -1.92,0 -2.39,2.16 -3.33,3.34 -0.61,0.76 -1.29,1.48 -2,2.16 -0.63,0.6 -1.34,1.11 -2,1.67 -0.1,0.1 -0.17,0.1 -0.17,0.17 0,0.1 0.11,0 0.17,0 0.22,0 0.44,0 0.67,0 0.55,0 1.13,0.16 1.66,0 0.58,-0.19 0.97,-0.74 1.5,-1 0.7,-0.35 1.47,-0.5 2.17,-0.84 0.92,-0.44 1.73,-1.33 2.83,-1.33 0.18,0 -0.39,0 -0.5,0.17 -0.68,0.83 -1.18,1.8 -1.83,2.66 -0.34,0.46 -2.44,2.56 -2.83,3.34 0,0 0.11,0 0.16,0 0.45,0 0.92,0.14 1.34,0 0.81,-0.3 4.98,-5.27 3.83,-5.5 -2.55,-0.51 -3.71,2.3 -5.33,3.66 -0.79,0.67 -1.62,1.29 -2.5,1.84 -0.3,0.18 -0.66,0.24 -1,0.33 -0.12,0 0.26,-0.1 0.33,-0.17 0.77,-1.08 1.38,-2.26 2.17,-3.33 0.44,-0.6 1,-1.11 1.5,-1.67 0.55,-0.72 1.14,-1.42 1.66,-2.16 0.26,-0.37 0.42,-0.8 0.67,-1.17 0.11,-0.17 0.52,-0.57 0.33,-0.5 -2.82,1.13 -2.2,1.55 -4.66,4.83 -0.5,0.67 -1.1,1.27 -1.5,2 -0.22,0.4 -0.39,0.88 -0.34,1.34 0,0.1 1.5,0.44 2.34,0.16 2.44,-0.81 1.76,-1.45 3.66,-2.66 0.67,-0.43 1.44,-0.69 2.17,-1 0,0 0.17,-0.1 0.17,0 0,0.1 -0.14,0.1 -0.17,0.16 -0.41,0.82 -0.73,1.69 -1.17,2.5 -1.44,2.65 -3.85,4.63 -5.83,6.83 -0.93,1.04 -2.5,1.95 -2.5,3.34 0,0.1 0.11,0 0.17,0 1.17,-0.38 2.48,-0.48 3.5,-1.17 1.43,-0.97 2.43,-2.45 3.66,-3.67 2.27,-2.23 4.56,-4.43 6.84,-6.66 0.5,-0.5 1,-1 1.49,-1.5 0.12,-0.11 0.29,-0.19 0.34,-0.33 0.27,-0.82 -1.34,1.12 -1.83,1.83 -0.56,0.79 -1,1.67 -1.5,2.5 -0.78,1.22 -1.49,2.49 -2.34,3.66 -1.15,1.61 -2.43,3.13 -3.66,4.67 -0.55,0.68 -1.15,1.31 -1.67,2 -0.17,0.23 -0.34,1.06 -0.17,0.83 1.34,-1.73 2.46,-3.63 3.84,-5.33 1.18,-1.47 2.55,-2.78 3.83,-4.17 0.72,-0.77 1.39,-1.61 2.17,-2.33 0.1,-0.1 0,0.22 0,0.34 0,0.5 0.1,1 0,1.49 -0.49,2.67 -2.35,4.11 -4.17,6 -0.65,0.68 -1.33,1.34 -2,2 -0.1,0.1 -0.17,0.25 -0.17,0.17 0,-2 11.71,-13.38 0.34,-1.5 -3.51,3.66 -7.09,7.25 -10.67,10.83 -1.47,1.47 -2.93,2.97 -4.5,4.34 -0.6,0.52 -1.43,1.9 -2,1.33 -0.57,-0.57 0.77,-1.43 1.33,-2 1.9,-1.89 3.95,-3.62 6,-5.33 3.28,-2.74 6.68,-5.33 10,-8 0.68,-0.55 1.28,-1.19 2,-1.67 0.29,-0.19 0.66,-0.24 1,-0.33 0.1,0 0.2,0 0.17,0 -4.21,5.75 -9.26,10.68 -14,16 -1.7,1.91 -3.36,3.86 -5,5.83 -0.81,0.97 -2.05,1.76 -2.33,3 -0.15,0.65 1.34,-0.38 1.83,-0.84 1.71,-1.57 3.01,-3.54 4.67,-5.16 12.77,-12.51 7.64,-7.58 17,-14.83 0.46,-0.36 0.8,-0.91 1.33,-1.17 0.15,-0.1 0.1,0.36 0,0.5 -0.59,0.89 -1.37,1.64 -2,2.5 -1.26,1.7 -2.33,3.53 -3.67,5.17 -1.86,2.28 -4.26,4.08 -6.16,6.33 -0.1,0.1 0.25,0.1 0.33,0 2.05,-2 4.05,-4.06 6,-6.17 2.05,-2.22 3.97,-4.58 6,-6.83 1.97,-2.19 4.03,-4.3 6,-6.5 1.26,-1.41 2.49,-2.85 3.66,-4.33 0.11,-0.14 0,-0.42 0.17,-0.5 0.11,-0.1 0.23,0.22 0.17,0.33 -0.75,1.39 -1.52,2.78 -2.5,4 -0.87,1.07 -2.02,1.87 -3,2.83 -2.74,2.71 -5.41,5.48 -8.17,8.17 -1.8,1.76 -3.68,3.43 -5.5,5.17 -0.79,0.76 -1.5,1.61 -2.33,2.33 -0.84,0.73 -1.72,1.41 -2.67,2 -0.1,0.1 -0.1,-0.24 0,-0.33 0.45,-0.65 0.99,-1.24 1.5,-1.84 0.77,-0.9 1.59,-1.75 2.34,-2.66 1.07,-1.32 1.75,-3.06 3.16,-4 0.1,0 0,0.12 0,0.16 -0.47,0.8 -0.92,1.61 -1.5,2.34 -2.09,2.61 -4.38,5.06 -6.5,7.66 -0.77,0.96 -1.48,1.98 -2.16,3 0,0.1 0.13,0 0.16,0 2.65,-3.3 5.01,-6.85 7.84,-10 3.62,-4.03 7.66,-7.66 11.49,-11.5 0.34,-0.33 1.1,-1.8 2,-1.5 0.1,0 0,0.12 0,0.17 -0.15,1.06 -0.12,2.17 -0.5,3.17 -0.52,1.37 -1.36,2.6 -2.16,3.83 -4.66,7.16 -6.04,8.11 -11.5,15.66 -1.85,2.56 -3.62,5.18 -5.33,7.84 0,0.1 0.11,0.22 0.16,0.16 1.51,-1.61 2.89,-3.33 4.34,-5 3.66,-3.83 7.32,-7.67 10.99,-11.49 0.66,-0.68 1.29,-1.4 2,-2 0.1,0 0.2,0.1 0.17,0.16 -0.38,0.87 -0.84,1.7 -1.33,2.5 -3.75,6.1 -6.06,8.07 -11.83,14.67 -0.81,0.91 -1.67,1.78 -2.5,2.66 -0.17,0.17 -0.4,0.29 -0.5,0.5 0,0.1 0.11,0.23 0.16,0.17 1.01,-1.17 1.85,-2.48 2.84,-3.67 6.13,-7.34 12.82,-14.79 20.99,-19.83 0.1,0 -0.12,0.11 -0.16,0.17 -0.9,1.27 -1.69,2.62 -2.67,3.83 -3.97,4.91 -8.01,9.75 -12.16,14.5 -2.91,3.32 -9.53,5.67 -8.67,10 0,0.1 0.1,0.21 0.17,0.17 1.77,-1.39 3.55,-2.77 5.16,-4.34 3.73,-3.6 7.13,-7.53 10.83,-11.16 1.58,-1.54 3.53,-2.69 5,-4.33 0.47,-0.53 0.46,-1.33 0.67,-2 0,-0.1 0.1,-0.2 0,-0.17 -3.3,2.42 -3.03,2.64 -6.5,6.16 -2.26,2.3 -4.61,4.51 -6.83,6.84 -3.56,3.72 -7.15,7.42 -10.5,11.33 -0.1,0.1 -0.75,1.87 0,1.33 2.48,-1.78 5.09,-3.42 7.33,-5.5 2.51,-2.33 4.49,-5.17 6.84,-7.66 0.99,-1.06 2.1,-2.01 3.16,-3 0.61,-0.57 1.25,-1.08 1.83,-1.67 0.59,-0.58 0.93,-1.46 1.67,-1.83 0.1,0 0,0.12 0,0.16 -0.7,1.08 -1.35,2.19 -2.17,3.17 -3.35,4.02 -6.94,7.84 -10.33,11.83 -3.78,4.45 -7.39,9.04 -11.16,13.5 -5.75,6.8 -2.65,2.57 -6.17,7.17 -0.12,0.16 -0.5,0.61 -0.33,0.5 0.49,-0.33 0.95,-0.72 1.33,-1.17 3.29,-3.89 6.21,-8.09 9.67,-11.83 3.11,-3.38 6.47,-6.55 10,-9.5 4.37,-3.67 9.17,-6.8 13.66,-10.33 1.24,-0.97 2.39,-2.06 3.5,-3.17 0.28,-0.28 0.57,-0.61 0.67,-1 0,-0.19 -0.37,0.19 -0.5,0.33 -0.7,0.75 -1.38,1.53 -2,2.34 -15.29,19.78 -3.02,5.16 -18.5,22.33 -0.53,0.58 -1.03,1.2 -1.5,1.83 0,0.1 0,0.21 0,0.17 8.24,-8.83 -9.37,8.15 12.33,-14.67 1.82,-1.91 4.17,-3.26 6.17,-5 1.06,-0.93 1.97,-2.02 3,-3 0,0 0,0.12 0,0.17 -0.43,0.85 -0.85,1.69 -1.34,2.5 -0.95,1.58 -1.77,3.29 -3,4.67 -5.06,5.69 -10.62,10.93 -15.83,16.49 -1.96,2.1 -3.8,4.32 -5.66,6.5 -0.1,0.1 -0.23,0.23 -0.17,0.34 0,0.1 0.22,0 0.33,0 0.56,0 1.22,0.33 1.67,0 3.1,-2.3 5.8,-5.08 8.67,-7.67 3.47,-3.14 6.81,-6.41 10.33,-9.5 0.98,-0.86 2.03,-1.67 3.16,-2.33 0.15,-0.1 0.1,0.35 0,0.5 -1.37,2.54 -2.75,5.08 -4.33,7.5 -3.74,5.71 -7.48,9.24 -12.16,14.5 -0.63,0.7 -1.25,1.42 -1.84,2.16 0,0 0,0.21 0,0.17 5.4,-6.05 10.5,-12.37 16,-18.33 3.41,-3.69 6.94,-7.28 10.5,-10.83 0.1,-0.1 0.1,0.23 0,0.33 -0.51,1.02 -1.02,2.06 -1.67,3 -3.99,5.84 -8.25,11.1 -13,16.33 -0.13,0.15 -0.35,0.19 -0.5,0.33 0,0 0.13,0 0.17,0 1.75,-1.52 3.65,-2.91 5.17,-4.66 2.11,-2.44 3.76,-5.23 5.66,-7.83 0.1,-0.1 0.14,-0.25 0.17,-0.17 0.41,1.23 -0.62,2.58 -1.33,3.67 -1.97,2.99 -4.11,5.86 -6.34,8.66 -2.29,2.9 -5.06,5.39 -7.5,8.17 0,0 0.13,0 0.17,0 0.92,-0.81 1.88,-1.57 2.67,-2.5 0.4,-0.48 0.55,-1.11 0.83,-1.67 0.11,-0.22 0.24,-0.44 0.33,-0.67 0,-0.1 0,-0.2 0,-0.16 -4.12,4.12 -1.65,2.45 -7.66,6.83 -0.95,0.69 -2.04,1.17 -3,1.83 -0.1,0.1 0.26,0.1 0.33,0 5.53,-5.96 4.8,-4.83 7.67,-9.5 0.1,-0.17 -0.22,0.34 -0.34,0.5 -1.27,1.73 -2.54,3.46 -3.83,5.17 -0.76,1.01 -1.58,1.98 -2.33,3 0,0 -0.1,0.2 0,0.17 4.85,-3.54 2.59,-1.39 4.66,-4.5 0,-0.1 0,0.11 0,0.16 -0.31,1.01 -0.48,2.08 -0.99,3 -0.56,1 -1.48,1.76 -2.17,2.67 0,0 -0.1,0.19 0,0.17 1.33,-0.82 2.5,-1.87 3.83,-2.67 0.1,0 0,0.12 0,0.17 -0.75,1.02 -1.38,2.16 -2.33,3 -0.81,0.7 -1.89,0.99 -2.83,1.5 -2.22,1.18 -4.28,2.53 -6.84,2.83 -0.12,0 -0.23,-0.23 -0.16,-0.33 4.57,-6.52 6.82,-9.72 12.33,-14.84 0.42,-0.39 1.39,-0.27 1.5,-0.83 0.1,-0.44 -0.93,-0.19 -1.34,0 -2.86,1.33 -5.61,2.9 -8.33,4.5 -0.78,0.46 -1.38,1.2 -2.16,1.67 -0.2,0.11 -0.79,0.19 -0.67,0 0.51,-0.84 1.52,-1.31 2,-2.17 0.76,-1.35 1.13,-2.88 1.67,-4.33 0,-0.1 0.1,-0.17 0,-0.17 -0.1,0 -0.77,0.93 -0.34,0.5 3.55,-3.54 5.99,-8.04 8.83,-12.16 0.2,-0.29 0.45,-1.34 0.34,-1 -0.89,2.66 -1.33,5.52 -2.67,7.99 -1.08,2 -6.14,7.7 -8.66,9.84 -0.1,0.1 0,-0.24 0,-0.34 0.51,-1.07 1.13,-2.1 1.66,-3.16 0.25,-0.49 0.42,-1.01 0.67,-1.5 0,-0.1 0,0.11 0,0.16 -0.26,0.84 -0.38,1.75 -0.83,2.5 -0.84,1.39 -2.02,2.54 -3,3.84 -0.1,0.1 -0.1,0.27 -0.17,0.33 -0.1,0 -0.16,-0.1 -0.17,-0.17 -0.1,-1 -0.38,-2.07 0,-3 2.04,-4.88 4.7,-9.48 7.17,-14.16 1.74,-3.3 5.1,-8.14 6.5,-12.33 0,-0.15 -0.23,0.22 -0.34,0.33 -3.98,4.18 -2.42,2.55 -6.83,7.33 -0.1,0.1 -0.25,0.42 -0.16,0.34 1.08,-1.03 2.22,-2.02 3.16,-3.17 1.84,-2.24 3.36,-4.74 5.17,-7 0.42,-0.52 0.88,-1.07 1.5,-1.33 0.27,-0.12 -0.18,0.57 -0.34,0.83 -1.4,2.36 -2.78,4.73 -4.33,7 -3.29,4.82 -1.99,2.17 -5.5,6 -1.01,1.11 -1.77,2.44 -2.83,3.5 -1.24,1.23 -3.08,2.08 -4.33,3.33 0,0 0.13,0 0.16,0 1.93,-2.42 3.93,-4.78 5.67,-7.33 4.02,-5.9 8.84,-13.02 10.83,-20.17 1.16,-4.16 0.66,-2.89 1,-6.49 0,-0.29 0.12,-0.56 0.17,-0.84 0,-0.1 0,-0.2 0,-0.16 -4.72,4.28 -2.68,2.53 -6.83,7.16 -0.87,0.97 -1.8,1.88 -2.67,2.83 -0.27,0.31 -0.99,1.38 -0.5,0.5 0.94,-1.66 1.65,-3.49 2.83,-4.99 6.72,-8.53 4.33,-3.05 7,-8 0.16,-0.3 -0.61,-1.62 -0.67,-2 -0.32,-2.3 0.19,-2.77 1.17,-5 0,0 0,0.11 0,0.16 0,0.89 0.14,1.79 0,2.67 -0.19,1.2 -0.62,2.35 -1,3.5 0,0.1 -0.17,-0.1 -0.17,0 0,0.1 2.01,0.1 2.34,-0.17 3.12,-2.02 2.1,-1.35 5.16,-3.83 0.56,-0.45 1.12,-0.88 1.67,-1.33 0.1,-0.1 0.26,-0.42 0.17,-0.34 -0.59,0.53 -1.14,1.09 -1.67,1.67 -1.19,1.31 -2.42,2.6 -3.5,4 -0.59,0.77 -1.02,1.65 -1.5,2.5 0,0.1 -0.1,0.19 0,0.17 1.08,-0.46 2.17,-0.89 3.17,-1.5 0.63,-0.4 1.11,-1 1.66,-1.5 0.1,-0.1 0.11,-0.23 0.17,-0.17 0.1,0.1 0.1,0.24 0,0.33 -0.56,0.82 -1.29,1.51 -1.83,2.34 -0.96,1.45 -1.87,2.95 -2.67,4.5 -0.23,0.44 -0.57,1.8 -0.17,1.5 4.68,-3.55 4.77,-4.13 9,-7.17 0.16,-0.12 0.78,-0.4 0.5,0.17 -1.23,2.46 -2.52,4.9 -3.83,7.33 -0.13,0.24 -0.36,0.43 -0.5,0.67 0,0 -0.1,0.19 0,0.16 2.86,-1.9 1.68,-1.4 4.5,-4.33 0.78,-0.81 2.84,-2.78 2.33,-1.67 -2.8,6.17 -4.28,9.29 -8,14.5 -0.36,0.51 -0.94,0.84 -1.33,1.33 -0.1,0.1 0.1,0.22 0.17,0.17 0.66,-0.49 1.22,-1.11 1.83,-1.67 1.27,-1.16 7.17,-6.56 7.17,-6 0,0.21 -0.26,0.32 -0.34,0.5 -0.42,0.94 -0.78,1.89 -1.16,2.84 -0.89,2.16 -1.81,4.32 -2.67,6.5 -0.19,0.49 -0.65,0.99 -0.5,1.5 0.1,0.32 0.73,0.36 1,0.16 1.16,-0.86 6.67,-6.97 7.5,-7.66 0.55,-0.46 1.33,-0.57 2,-0.84 0.16,-0.1 0.35,-0.26 0.5,-0.16 0.14,0.1 0,0.33 0,0.5 -1.11,6.22 -0.15,2.29 -3,8 -0.51,1.02 -0.91,2.1 -1.33,3.16 0,0.1 0,0.23 0,0.17 0,-0.11 -0.1,-0.23 0,-0.33 1.23,-2.47 2.33,-5.02 3.83,-7.34 1.65,-2.55 4.05,-4.58 5.66,-7.16 0,-0.1 -0.12,0 -0.16,0 -0.81,0.86 -1.73,1.65 -2.34,2.66 -1.18,1.96 -1.89,4.17 -3,6.17 -0.67,1.23 -1.57,2.32 -2.33,3.5 -0.52,0.82 -0.91,1.72 -1.5,2.5 -0.26,0.35 -0.69,0.53 -1,0.83 0,0 0.13,0 0.17,0 1.41,-1.14 2.84,-2.26 4.16,-3.5 1.35,-1.26 2.58,-2.64 3.84,-4 0.24,-0.26 0.41,-0.58 0.66,-0.83 0,0 0,0.12 0,0.17 -0.47,0.84 -0.98,1.68 -1.5,2.5 -0.92,1.45 -1.91,2.87 -2.83,4.33 -0.75,1.2 -1.43,2.45 -2.16,3.67 -0.1,0.1 -0.1,0.16 -0.17,0.16 -0.1,0 0,-0.11 0,-0.16 0.48,-1.23 0.92,-2.48 1.5,-3.67 1.64,-3.37 3.45,-6.66 5.16,-10 0.51,-0.99 1.03,-1.99 1.5,-3 0,-0.1 0.1,-0.2 0,-0.17 -2.36,1.86 -3.85,3.37 -5.66,6 -0.86,1.25 -1.33,2.74 -2.17,4 -0.83,1.25 -1.85,2.37 -2.83,3.5 -1.54,1.77 -5.87,6.4 -7.67,8 -5.62,5 -1.86,1.52 -4.83,3.5 -0.1,0 0.13,0 0.17,0 1.08,-1.08 2.07,-2.25 3.16,-3.33 3.8,-3.76 7.78,-7.33 11.5,-11.17 1.79,-1.83 3.39,-3.84 5,-5.83 0.28,-0.35 0.67,-0.72 0.67,-1.17 0,-0.24 -0.54,0.13 -0.67,0.34 -0.5,0.83 -0.8,1.76 -1.17,2.66 -4.68,11.56 2.85,-5.86 -3.83,7.5 -0.31,0.62 -0.33,1.34 -0.5,2 -0.34,1.37 -0.75,2.57 -1.66,3.67 -0.58,0.69 -1.2,1.36 -1.84,2 -1.01,1.01 -2.31,1.65 -3.33,2.66 -1.74,1.74 -3.32,3.7 -5.17,5.34 -0.53,0.47 -1.13,0.85 -1.66,1.33 -0.59,0.53 -1.08,1.15 -1.67,1.67 -0.41,0.37 -0.93,0.62 -1.33,1 -0.38,0.35 -0.63,0.82 -1,1.16 -0.35,0.33 -0.81,0.53 -1.17,0.84 0,0 -0.1,0.16 0,0.16 0.1,0 0,-0.12 0,-0.16 1.14,-1.31 2.44,-2.47 3.5,-3.84 5.43,-7.01 7.62,-10.9 12.17,-18.66 1.32,-2.26 2.42,-3.94 2.83,-6.5 0.12,-0.77 0,-1.56 0,-2.33 0,-0.68 0.64,-2.72 0.33,-3.34 0,0 -0.11,0 -0.16,0 -0.9,0.43 -1.93,0.68 -2.67,1.34 -1.35,1.2 -2.29,2.82 -3.5,4.16 -1.34,1.49 -2.81,2.86 -4.17,4.34 -4.31,4.72 0.32,0.18 -1.66,1.83 -0.53,0.44 -0.8,0.93 -0.67,0.67 2.88,-5.76 8.01,-9.82 11.67,-15 0.43,-0.61 0.6,-1.37 1,-2 0.2,-0.33 0.65,-0.48 0.83,-0.83 0.2,-0.41 -1.1,-0.1 -1.33,0.16"
             id="path1537" />
        <path
             style="fill:none;stroke:black;stroke-width:1;stroke-linecap:butt;stroke-linejoin:miter;stroke-opacity:1;stroke-miterlimit:4;stroke-dasharray:none"
             d="m 22.31,301.71 c 5.391,0.92 15.625,-2.39 21.816,-2.39"
             id="path1539" />
        <path
             style="fill:none;stroke:black;stroke-width:1;stroke-linecap:butt;stroke-linejoin:miter;stroke-opacity:1;stroke-miterlimit:4;stroke-dasharray:none"
             d="m 31.574,302.9 c -0.506,6.59 -0.156,2.6 -1.195,11.96"
             id="path1541" />
        <path
             style="fill:none;stroke:black;stroke-width:1;stroke-linecap:butt;stroke-linejoin:miter;stroke-opacity:1;stroke-miterlimit:4;stroke-dasharray:none"
             d="m 19.321,323.82 c 6.215,-1.23 11.827,-4.42 17.931,-5.97 1.644,-0.42 3.401,-0.1 5.081,-0.3 3.674,-0.51 3.992,-1.2 6.276,-1.2"
             id="path1543" />
        <path
             style="fill:none;stroke:black;stroke-width:1;stroke-linecap:butt;stroke-linejoin:miter;stroke-opacity:1;stroke-miterlimit:4;stroke-dasharray:none"
             d="m 61.161,297.38 c -0.05,5.32 0.163,10.68 -0.448,15.98 -0.07,0.6 -0.246,1.2 -0.299,1.8 -0.123,1.41 0,2.9 0,4.33"
             id="path1549" />
        <path
             style="fill:none;stroke:black;stroke-width:1;stroke-linecap:butt;stroke-linejoin:miter;stroke-opacity:1;stroke-miterlimit:4;stroke-dasharray:none"
             d="m 61.161,297.38 c 1.195,-0.1 2.4,-0.13 3.587,-0.3 1.575,-0.23 5.681,-1.43 8.218,-1.2 0.292,0 3.669,0.7 3.736,0.89 0.132,0.4 0.07,2.93 0,3.3 -0.123,0.61 -0.445,1.18 -0.597,1.79 -0.207,0.82 -0.488,3.32 -0.599,4.03 -0.191,1.25 -1.261,4.1 -0.896,5.38 0.107,0.37 1.029,1.77 1.046,1.8 0.412,0.63 0.865,1.47 1.494,1.93 1.262,0.95 5.938,1.6 7.472,1.05 0.893,-0.32 1.392,-1.23 2.092,-1.79 0.28,-0.22 0.736,-0.28 0.896,-0.6 0.04,-0.1 -2.056,-2.77 -2.092,-2.99 -0.05,-0.24 0,-0.5 0,-0.74"
             id="path1551" />
        <path
             style="fill:none;stroke:black;stroke-width:1;stroke-linecap:butt;stroke-linejoin:miter;stroke-opacity:1;stroke-miterlimit:4;stroke-dasharray:none"
             d="m 67.437,304.24 c 1.645,3.84 0.749,2.17 2.54,5.09"
             id="path1553" />
        <path
             style="fill:none;stroke:black;stroke-width:1;stroke-linecap:butt;stroke-linejoin:miter;stroke-opacity:1;stroke-miterlimit:4;stroke-dasharray:none"
             d="m 31.574,340.11 c -1.396,7.58 -1.041,4.18 -1.345,12.56 -0.05,1.37 -0.215,1.13 0.449,1.79"
             id="path1555" />
        <path
             style="fill:none;stroke:black;stroke-width:1;stroke-linecap:butt;stroke-linejoin:miter;stroke-opacity:1;stroke-miterlimit:4;stroke-dasharray:none"
             d="m 42.483,328.9 c 0.249,3.47 -0.398,7 0,10.47 0.109,0.95 0.655,1.81 1.045,2.69 0.407,0.91 0.74,1.88 1.345,2.69 1.848,2.44 5.214,5.08 8.07,6.42 0.829,0.38 1.721,0.64 2.54,1.05 1.276,0.63 2.441,1.49 3.736,2.09 5.034,2.33 2.885,0.95 6.574,2.39 0.416,0.16 0.769,0.47 1.197,0.59 2.395,0.7 5.139,0.76 7.62,0.76 1.413,0 2.811,0.12 4.184,-0.31 0.319,-0.1 0.583,-0.33 0.896,-0.45 0.82,-0.29 1.757,-0.47 2.541,-0.89 0.475,-0.25 0.863,-0.66 1.345,-0.9 1.246,-0.62 3.433,-0.93 4.782,-1.49 0.26,-0.11 0.356,-0.46 0.597,-0.6 0.34,-0.21 0.84,-0.33 1.047,-0.74 0.381,-0.77 -1.447,-4.5 -1.794,-5.54"
             id="path1557" />
        <path
             style="fill:none;stroke:black;stroke-width:1;stroke-linecap:butt;stroke-linejoin:miter;stroke-opacity:1;stroke-miterlimit:4;stroke-dasharray:none"
             d="m 73.714,329.8 c 2.545,0.64 0.332,-0.1 3.736,5.23 0.269,0.42 0.597,0.8 0.896,1.2"
             id="path1559" />
        <path
             style="fill:none;stroke:black;stroke-width:1;stroke-linecap:butt;stroke-linejoin:miter;stroke-opacity:1;stroke-miterlimit:4;stroke-dasharray:none"
             d="m 85.668,329.5 c 0.455,4.55 -0.613,3.42 0.598,4.63"
             id="path1561" />
        <path
             style="fill:none;stroke:black;stroke-width:1;stroke-linecap:butt;stroke-linejoin:miter;stroke-opacity:1;stroke-miterlimit:4;stroke-dasharray:none"
             d="m 115.71,312.31 c -5.94,10.01 -3.76,5.74 -7.03,12.56"
             id="path1563" />
        <path
             style="fill:none;stroke:black;stroke-width:1;stroke-linecap:butt;stroke-linejoin:miter;stroke-opacity:1;stroke-miterlimit:4;stroke-dasharray:none"
             d="m 129.3,311.72 c 2.39,0.98 3.31,4.54 5.83,5.38"
             id="path1565" />
        <path
             style="fill:none;stroke:black;stroke-width:1;stroke-linecap:butt;stroke-linejoin:miter;stroke-opacity:1;stroke-miterlimit:4;stroke-dasharray:none"
             d="m 120.64,289.91 c -0.11,2.63 -0.26,5.27 -0.31,7.91 -0.1,5.83 0,11.66 0,17.49 0,1.94 0.1,3.88 0,5.83 -0.18,4.08 -0.14,8.16 -0.14,12.25 0,3.03 -0.1,6.08 0,9.12 0.1,1.96 0.41,3.87 0.59,5.82 0.3,3.26 -0.34,6.61 0,9.86 0,0.21 0.75,2.09 0.76,2.1 0.14,0.58 0.19,1.19 0.29,1.79 0.2,0.59 0.45,1.18 0.6,1.79 0.1,0.35 0,1.79 0.3,2.09"
             id="path1567" />
        <path
             style="fill:none;stroke:black;stroke-width:1;stroke-linecap:butt;stroke-linejoin:miter;stroke-opacity:1;stroke-miterlimit:4;stroke-dasharray:none"
             d="m 145.29,309.18 c 0.45,0 0.9,0 1.34,0 24.08,-2.04 8.83,-1.49 34.22,-1.49"
             id="path1569" />
        <path
             style="fill:none;stroke:black;stroke-width:1;stroke-linecap:butt;stroke-linejoin:miter;stroke-opacity:1;stroke-miterlimit:4;stroke-dasharray:none"
             d="m 170.24,297.08 c -9.85,10.72 -4.18,3.68 -11.65,14.94 -1.6,2.42 -3.47,4.66 -4.94,7.17 -1.23,2.14 -2.04,4.5 -3.13,6.73 -0.42,0.85 -0.92,1.68 -1.34,2.53"
             id="path1571" />
        <path
             style="fill:none;stroke:black;stroke-width:1;stroke-linecap:butt;stroke-linejoin:miter;stroke-opacity:1;stroke-miterlimit:4;stroke-dasharray:none"
             d="m 155.3,319.79 c -0.1,5.08 0.17,10.16 0,15.24 0,0.74 -0.15,1.39 -0.15,2.1"
             id="path1577" />
        <path
             style="fill:none;stroke:black;stroke-width:1;stroke-linecap:butt;stroke-linejoin:miter;stroke-opacity:1;stroke-miterlimit:4;stroke-dasharray:none"
             d="m 158.74,321.73 c 2.69,-0.3 5.38,-0.6 8.07,-0.9 3.81,-0.41 7.07,-0.72 10.61,0.45 0.47,0.16 0.84,0.15 1.34,0.45 0.1,0.1 0.1,0.22 0.15,0.3 0.26,0.25 0.61,0.43 0.75,0.75 0.1,0.23 0.1,0.5 0.15,0.74 0.32,1.16 0.73,2.28 1.04,3.44 0.79,2.87 1.5,5.51 1.5,8.52 0,0.66 0.21,1.75 0,2.39 0,0 -1.22,0 -1.79,0"
             id="path1579" />
        <path
             style="fill:none;stroke:black;stroke-width:1;stroke-linecap:butt;stroke-linejoin:miter;stroke-opacity:1;stroke-miterlimit:4;stroke-dasharray:none"
             d="m 165.62,312.47 c 0.1,3.39 0.25,6.77 0.29,10.16 0.22,15.43 0,30.89 0,46.32"
             id="path1581" />
    </g>
</svg>
