<?xml version="1.0" encoding="UTF-8" standalone="no"?>
<!-- Created with Inkscape (http://www.inkscape.org/) -->

<svg
     width="600"
     height="400"
     viewBox="0 0 600 400"
     version="1.1"
     id="svg5"
     sodipodi:docname="20220411.svg"
     inkscape:version="1.1 (c68e22c387, 2021-05-23)"
     inkscape:export-filename="C:\Program Files\XAMPP\htdocs\koko-campus.org\blog2\data\20220411.png"
     inkscape:export-xdpi="96"
     inkscape:export-ydpi="96"
     xmlns:inkscape="http://www.inkscape.org/namespaces/inkscape"
     xmlns:sodipodi="http://sodipodi.sourceforge.net/DTD/sodipodi-0.dtd"
     xmlns="http://www.w3.org/2000/svg"
     xmlns:svg="http://www.w3.org/2000/svg">
    <sodipodi:namedview
         id="namedview7"
         pagecolor="#ffffff"
         bordercolor="#666666"
         borderopacity="1.0"
         inkscape:pageshadow="2"
         inkscape:pageopacity="0.0"
         inkscape:pagecheckerboard="0"
         inkscape:document-units="px"
         showgrid="false"
         units="px"
         width="600px"
         inkscape:zoom="1.5002"
         inkscape:cx="243.3"
         inkscape:cy="127.65"
         inkscape:window-width="1920"
         inkscape:window-height="1009"
         inkscape:window-x="-8"
         inkscape:window-y="-8"
         inkscape:window-maximized="1"
         inkscape:current-layer="layer1" />
    <defs
         id="defs2" />
    <g
         inkscape:label="レイヤー 1"
         inkscape:groupmode="layer"
         id="layer1">
        <path
             style="fill:none;stroke:black;stroke-width:1px;stroke-linecap:butt;stroke-linejoin:miter;stroke-opacity:1"
             d="m 372.62,369.29 c -22.7,4.21 -45.82,0.53 -68.66,2 -22.4,1.45 -3.8,0.64 -14,2 -22.17,2.96 6.51,-1.02 -12,0.67 -3.13,0.28 -6.2,1.08 -9.33,1.33 -3.76,0.3 -7.55,0 -11.33,0 -16.38,0 -32.96,-0.68 -49.33,0 -23.97,1 -48.01,0.96 -71.99,0 -9.35,-0.37 -18.7,-0.45 -27.99,-1.33 -8.323,-0.8 -16.384,0 -24.667,-0.67 -2.477,-0.19 -4.868,-1.03 -7.333,-1.33 -12.069,-1.51 -4.953,-0.12 -15.998,-0.67 -5.71,-0.29 -12.395,-0.95 -17.997,-2 -1.381,-0.26 -2.614,-1.1 -4,-1.33 -1.549,-0.26 -5.368,0.74 -4.666,-0.67 0.356,-0.71 5.317,-2.72 5.999,-3.33 5.479,-4.93 10.299,-14.27 13.332,-20 5.846,-11.04 10.23,-21.96 17.998,-32 2.406,-3.1 5.724,-5.46 7.999,-8.66 6.3,-8.88 9.517,-19.48 15.331,-28.66 8.722,-13.77 20.072,-25.25 29.332,-38.67 1.75,-2.54 3.11,-5.33 4.66,-7.99 2,-2.89 3.94,-5.83 6,-8.67 9.19,-12.63 0,0.91 10,-12.66 15.98,-21.63 -1.91,2.74 9.33,-16 8.59,-14.32 3.56,-4.93 10.67,-13.33 2.59,-3.06 4.08,-6.95 6.66,-10 1.13,-1.33 2.85,-2.04 4,-3.34 2.43,-2.72 4.31,-5.88 6.67,-8.66 6.04,-7.11 13.34,-13.59 18.66,-21.33 1.47,-2.14 2.57,-4.51 4,-6.67 3.99,-5.98 8.89,-11.1 13.34,-16.66 1.63,-2.04 2.91,-5.46 5.33,-6.67 0.2,-0.1 0,0.45 0,0.67 0.2,2 0.18,4.05 0.66,6 1.81,7.21 6.26,17.73 9.34,24.66 13.61,30.62 -2.18,-6.88 10,19.33 1.51,3.26 2.33,6.82 3.99,10 1.03,1.97 2.82,3.45 4,5.33 2.55,4.04 4.02,8.7 6.67,12.67 1.58,2.37 3.67,4.36 5.33,6.66 2.22,3.07 7.45,12.58 8.67,14.67 6.69,11.47 14.63,22.63 23.33,32.66 0.62,0.71 8.24,9.19 9.33,10.67 1.9,2.58 3.41,5.43 5.33,8 0.76,1 2.01,1.59 2.67,2.66 1.15,1.87 1.5,4.15 2.67,6 1.52,2.41 3.55,4.44 5.33,6.67 5.34,6.67 11.12,13.84 15.33,21.33 1.3,2.31 2.38,6.43 4,8.66 0.92,1.27 2.22,2.22 3.33,3.34 0.67,1.55 1.15,3.2 2,4.66 1.59,2.73 4.51,4.55 6,7.33 0.99,1.86 1.17,4.07 2,6 1.95,4.54 1.76,2.08 4,6 4.1,7.18 8.29,14.73 10.67,22.67 3.17,10.59 -0.89,-1.12 0.66,6.66 0.28,1.38 1.06,2.62 1.34,4 0.21,1.09 -0.5,2.34 0,3.33 1.93,3.86 1.7,-3.48 3.33,4.67 z"
             id="path868" />
        <path
             style="fill:none;stroke:black;stroke-width:1px;stroke-linecap:butt;stroke-linejoin:miter;stroke-opacity:1"
             d="m 149.31,202.65 c 28.79,-2.88 57.85,-0.1 86.66,-2 2.22,-0.23 4.44,-0.45 6.67,-0.67 0.22,-0.22 0.38,-0.53 0.66,-0.67 1.57,-0.78 20.57,0 25.33,0"
             id="path870" />
        <path
             style="fill:none;stroke:black;stroke-width:1px;stroke-linecap:butt;stroke-linejoin:miter;stroke-opacity:1"
             d="m 90.655,281.3 c 41.975,1.08 83.995,0.67 125.985,0.67 11.09,0 22.24,0.33 33.33,0 42.48,-1.29 -4.77,0 18.66,-1.33 1.78,-0.11 3.57,0.23 5.33,0 2.73,-0.37 5.29,-1.55 8,-2 2.4,-0.4 4.18,0 6.67,-0.67 1.35,-0.37 2.71,-0.76 4,-1.33 0.73,-0.33 1.22,-1.14 2,-1.34 0.66,-0.16 5.06,0.14 6,0 2.08,-0.29 2.61,-1.59 4.66,-2 0.88,-0.17 1.8,0.18 2.67,0 1.92,-0.38 3.41,-1.61 5.33,-2 1.68,-0.33 3.62,0 5.34,0"
             id="path874" />
        <path
             style="fill:none;stroke:black;stroke-width:1.14749px;stroke-linecap:butt;stroke-linejoin:miter;stroke-opacity:1"
             d="m 378.67,305.95 c 2.31,4.44 9.46,-2.45 11.89,0 0.26,0.25 -0.11,0.73 0,1.07 0.52,2.03 1.46,3.18 1.63,5.41 0.13,1.69 1.48,15.96 0.54,17.85 -0.99,2 -2.43,2.75 -3.78,4.33 -1.64,1.9 -1.71,3.76 -4.87,2.71 -2.94,-0.99 -2.95,-9.41 -2.71,-11.36 0.14,-1.15 1.43,-1.83 2.16,-2.71 4.95,-5.93 9.08,-1.92 15.69,-3.25 0.25,0 0.3,-0.49 0.55,-0.54 4.06,-0.67 8.9,0 12.98,0"
             id="path876" />
        <path
             style="fill:none;stroke:black;stroke-width:1.14749px;stroke-linecap:butt;stroke-linejoin:miter;stroke-opacity:1"
             d="m 404.09,305.41 c 1.95,9.06 2.16,18.34 2.16,27.58"
             id="path878" />
        <path
             style="fill:none;stroke:black;stroke-width:1.14749px;stroke-linecap:butt;stroke-linejoin:miter;stroke-opacity:1"
             d="m 425.18,318.92 c 3.25,-1.8 6.45,-3.68 9.74,-5.4 2.01,-1.07 17.9,-10.62 23.25,-7.04 0.75,0.5 2.95,2.52 3.25,3.25 1.33,3.34 -1.07,10.26 -3.25,12.44 -0.2,0.21 -1.83,0 -2.16,0"
             id="path880" />
        <path
             style="fill:none;stroke:black;stroke-width:1.14749px;stroke-linecap:butt;stroke-linejoin:miter;stroke-opacity:1"
             d="m 446.28,295.12 c 1.27,6.36 0.4,3.71 2.16,8.12"
             id="path882" />
        <path
             style="fill:none;stroke:black;stroke-width:1.14749px;stroke-linecap:butt;stroke-linejoin:miter;stroke-opacity:1"
             d="m 433.84,298.91 c 7.42,6.48 8.44,14.76 9.73,23.8 0.36,2.55 1.62,5.07 2.17,7.57 0.47,2.13 0,3.81 1.07,5.95"
             id="path884" />
        <path
             style="fill:none;stroke:black;stroke-width:1.14749px;stroke-linecap:butt;stroke-linejoin:miter;stroke-opacity:1"
             d="m 481.43,312.43 c 23.09,-4.92 18.54,-4.33 38.94,-4.33"
             id="path886" />
        <path
             style="fill:none;stroke:black;stroke-width:1.14749px;stroke-linecap:butt;stroke-linejoin:miter;stroke-opacity:1"
             d="m 504.14,296.75 c 0.99,8.91 0.55,18.04 0.55,27.04 0,2.21 0.68,6.06 0,8.11 0,0.13 -2.45,0 -2.7,0 -0.43,0 -2.44,0.28 -2.71,0 -2,-2 -1.94,-8.77 -1.08,-11.36 0.22,-0.66 1.44,-1.43 2.17,-1.08 0.87,0.44 3.96,3.24 4.32,4.33 0.45,1.38 0.2,13.61 -0.55,14.61 -1.31,1.74 -0.95,1.61 -2.15,1.61"
             id="path890" />
        <path
             style="fill:none;stroke:black;stroke-width:1.14749px;stroke-linecap:butt;stroke-linejoin:miter;stroke-opacity:1"
             d="m 534.44,312.43 c -2.53,-4.49 0.98,23.36 5.4,18.93 1.95,-1.94 2.1,-5.07 3.25,-7.57"
             id="path892" />
        <path
             style="fill:none;stroke:black;stroke-width:1.14749px;stroke-linecap:butt;stroke-linejoin:miter;stroke-opacity:1"
             d="m 552.83,311.89 c 1.27,1.85 8.11,8.22 8.11,12.44"
             id="path894" />
        <path
             style="fill:none;stroke:black;stroke-width:1.09412px;stroke-linecap:butt;stroke-linejoin:miter;stroke-opacity:1"
             d="m 381.72,216.05 c 2.22,4.23 9.03,-2.33 11.35,0 0.24,0.24 -0.11,0.7 0,1.03 0.49,1.93 1.39,3.03 1.55,5.15 0.12,1.61 1.42,15.22 0.52,17.02 -0.95,1.91 -2.32,2.62 -3.61,4.13 -1.57,1.81 -1.63,3.59 -4.64,2.58 -2.8,-0.94 -2.81,-8.97 -2.58,-10.83 0.13,-1.1 1.35,-1.74 2.05,-2.58 4.72,-5.66 8.66,-1.83 14.96,-3.1 0.24,0 0.29,-0.47 0.53,-0.51 3.87,-0.65 8.49,0 12.37,0"
             id="path876-5" />
        <path
             style="fill:none;stroke:black;stroke-width:1.09412px;stroke-linecap:butt;stroke-linejoin:miter;stroke-opacity:1"
             d="m 405.97,215.53 c 1.86,8.65 2.06,17.5 2.06,26.31"
             id="path878-7" />
        <path
             style="fill:none;stroke:black;stroke-width:1.09412px;stroke-linecap:butt;stroke-linejoin:miter;stroke-opacity:1"
             d="m 426.08,228.42 c 3.1,-1.72 6.15,-3.51 9.28,-5.15 1.92,-1.02 17.07,-10.12 22.18,-6.71 0.71,0.47 2.81,2.4 3.09,3.1 1.27,3.18 -1.01,9.78 -3.09,11.86 -0.2,0.19 -1.75,0 -2.07,0"
             id="path880-1" />
        <path
             style="fill:none;stroke:black;stroke-width:1.09412px;stroke-linecap:butt;stroke-linejoin:miter;stroke-opacity:1"
             d="m 446.19,205.73 c 1.22,6.06 0.38,3.53 2.07,7.73"
             id="path882-9" />
        <path
             style="fill:none;stroke:black;stroke-width:1.09412px;stroke-linecap:butt;stroke-linejoin:miter;stroke-opacity:1"
             d="m 434.33,209.34 c 7.08,6.18 8.05,14.07 9.28,22.69 0.35,2.43 1.54,4.84 2.07,7.22 0.45,2.03 0,3.64 1.02,5.67"
             id="path884-9" />
        <path
             style="fill:none;stroke:black;stroke-width:1.09412px;stroke-linecap:butt;stroke-linejoin:miter;stroke-opacity:1"
             d="m 479.71,222.23 c 22.02,-4.7 17.67,-4.13 37.13,-4.13"
             id="path886-8" />
        <path
             style="fill:none;stroke:black;stroke-width:1.09412px;stroke-linecap:butt;stroke-linejoin:miter;stroke-opacity:1"
             d="m 501.37,207.28 c 0.94,8.49 0.52,17.2 0.52,25.78 0,2.11 0.65,5.78 0,7.74 0,0.12 -2.34,0 -2.58,0 -0.4,0 -2.32,0.26 -2.58,0 -1.91,-1.91 -1.85,-8.36 -1.03,-10.84 0.21,-0.63 1.38,-1.36 2.07,-1.02 0.83,0.41 3.77,3.08 4.12,4.12 0.43,1.31 0.19,12.98 -0.52,13.93 -1.25,1.66 -0.91,1.54 -2.06,1.54"
             id="path890-4" />
        <path
             style="fill:none;stroke:black;stroke-width:1.09412px;stroke-linecap:butt;stroke-linejoin:miter;stroke-opacity:1"
             d="m 530.25,222.23 c -2.4,-4.28 0.94,22.28 5.16,18.05 1.86,-1.85 2,-4.83 3.09,-7.22"
             id="path892-3" />
        <path
             style="fill:none;stroke:black;stroke-width:1.09412px;stroke-linecap:butt;stroke-linejoin:miter;stroke-opacity:1"
             d="m 547.79,221.71 c 1.22,1.77 7.74,7.84 7.74,11.86"
             id="path894-0" />
        <path
             style="fill:none;stroke:black;stroke-width:1px;stroke-linecap:butt;stroke-linejoin:miter;stroke-opacity:1"
             d="m 420.19,144.31 c 2.83,-1.57 5.62,-3.2 8.48,-4.7 1.76,-0.93 15.6,-9.25 20.27,-6.13 0.65,0.43 2.57,2.19 2.83,2.83 1.16,2.91 -0.93,8.93 -2.83,10.83 -0.18,0.18 -1.6,0 -1.89,0"
             id="path880-1-5" />
        <path
             style="fill:none;stroke:black;stroke-width:1px;stroke-linecap:butt;stroke-linejoin:miter;stroke-opacity:1"
             d="m 438.57,123.58 c 1.11,5.54 0.35,3.23 1.89,7.07"
             id="path882-9-9" />
        <path
             style="fill:none;stroke:black;stroke-width:1px;stroke-linecap:butt;stroke-linejoin:miter;stroke-opacity:1"
             d="m 427.73,126.88 c 6.47,5.65 7.36,12.86 8.48,20.73 0.32,2.22 1.41,4.42 1.89,6.6 0.41,1.85 0,3.32 0.94,5.18"
             id="path884-9-7" />
        <path
             style="fill:none;stroke:black;stroke-width:1px;stroke-linecap:butt;stroke-linejoin:miter;stroke-opacity:1"
             d="m 469.21,138.66 c 20.12,-4.29 16.15,-3.77 33.93,-3.77"
             id="path886-8-3" />
        <path
             style="fill:none;stroke:black;stroke-width:1px;stroke-linecap:butt;stroke-linejoin:miter;stroke-opacity:1"
             d="m 489,125 c 0.86,7.76 0.48,15.72 0.48,23.55 0,1.93 0.59,5.28 0,7.07 0,0.11 -2.14,0 -2.36,0 -0.37,0 -2.12,0.24 -2.36,0 -1.74,-1.74 -1.69,-7.64 -0.94,-9.9 0.19,-0.58 1.26,-1.25 1.89,-0.94 0.76,0.38 3.45,2.82 3.77,3.77 0.39,1.2 0.17,11.86 -0.48,12.73 -1.14,1.52 -0.83,1.41 -1.88,1.41"
             id="path890-4-7" />
        <path
             style="fill:none;stroke:black;stroke-width:1px;stroke-linecap:butt;stroke-linejoin:miter;stroke-opacity:1"
             d="m 515.4,138.66 c -2.2,-3.91 0.86,20.35 4.71,16.49 1.7,-1.69 1.83,-4.42 2.83,-6.6"
             id="path892-3-5" />
        <path
             style="fill:none;stroke:black;stroke-width:1px;stroke-linecap:butt;stroke-linejoin:miter;stroke-opacity:1"
             d="m 531.43,138.19 c 1.11,1.61 7.07,7.15 7.07,10.83"
             id="path894-0-2" />
        <path
             style="fill:none;stroke:black;stroke-width:1.09412px;stroke-linecap:butt;stroke-linejoin:miter;stroke-opacity:1"
             d="m 351.07,223.74 c 1.99,-1.28 8.63,0.13 10.32,-1.54"
             id="path896" />
        <path
             style="fill:none;stroke:black;stroke-width:1.09412px;stroke-linecap:butt;stroke-linejoin:miter;stroke-opacity:1"
             d="m 348.49,209.3 c -0.14,6.05 -0.52,12 -0.52,18.05 0,2.58 0,5.15 0,7.73 0,4.92 0,4.29 -1.54,8.25 -0.72,1.8 -0.23,3.94 -2.07,5.16 -1.97,1.31 -5.09,-0.44 -6.18,-1.55 -0.24,-0.24 0.11,-0.7 0,-1.02 -1.04,-3.12 -1.27,-7.18 1.54,-9.29 0.52,-0.37 5.3,-0.52 6.19,-0.52 0.21,0 5.32,1.78 6.19,2.07 0.47,0.15 0.56,0.91 1.04,1.03 0.49,0.13 1.03,-0.11 1.54,0 1.8,0.36 3.07,2.82 4.64,3.61 0.3,0.15 0.74,-0.19 1.04,0 1.71,1.15 3.11,2.1 4.64,3.61"
             id="path898" />
        <path
             style="fill:none;stroke:black;stroke-width:1px;stroke-linecap:butt;stroke-linejoin:miter;stroke-opacity:1"
             d="m 286.69,127.31 c -0.15,1.1 -0.31,2.2 -0.47,3.3 0,1.26 0.16,2.53 0,3.77 -0.16,1.29 -0.76,2.49 -0.94,3.77 -0.62,4.33 0,9.31 0,13.67 0,1.42 -0.33,2.87 0,4.24 1.1,4.65 1.22,4.52 3.3,6.6"
             id="path1075" />
        <path
             style="fill:none;stroke:black;stroke-width:1px;stroke-linecap:butt;stroke-linejoin:miter;stroke-opacity:1"
             d="m 275.38,140.04 c 7.58,-0.24 5.7,0.8 3.77,7.54 -0.26,0.92 -0.15,1.93 -0.47,2.83 -0.55,1.53 -2.3,4.56 -3.3,6.12 -1.27,2 -3.32,4.23 -2.83,4.72 0.4,0.4 0.98,-0.58 1.42,-0.94 2.12,-1.78 2.53,-1.4 4.24,-4.25 0.33,-0.55 0.1,-1.38 0.47,-1.88 2.06,-2.58 4.27,-3.56 6.6,-5.66 0.75,-0.67 1.09,-1.73 1.88,-2.35 1.44,-1.14 3.21,-1.79 4.72,-2.83 0.55,-0.38 0.79,-1.17 1.41,-1.42 2.22,-0.88 5.65,-0.47 8.01,-0.47 1.58,0 3.66,-0.38 5.19,0 5.77,1.45 4.24,8.76 4.24,13.2 0,2.21 0.69,4.49 -0.94,6.13"
             id="path1077" />
        <path
             style="fill:none;stroke:black;stroke-width:1px;stroke-linecap:butt;stroke-linejoin:miter;stroke-opacity:1"
             d="m 325.34,146.17 c 1.89,-0.63 3.83,-1.12 5.66,-1.89 2.26,-0.96 4.28,-2.47 6.6,-3.3 1.9,-0.68 12.08,-2.05 12.72,-1.41 0.11,0.11 -0.11,0.36 0,0.47 0.99,0.98 2.32,1.13 3.3,2.36 0.95,1.18 0.48,11.07 0,12.25 -0.34,0.85 -1,1.54 -1.41,2.36 -0.59,1.17 -1.27,4.56 -2.36,5.65"
             id="path1079" />
        <path
             style="fill:none;stroke:black;stroke-width:1px;stroke-linecap:butt;stroke-linejoin:miter;stroke-opacity:1"
             d="m 334.77,125.43 c -1.25,10.42 0.94,20.72 0.94,31.1"
             id="path1081" />
        <path
             style="fill:none;stroke:black;stroke-width:1px;stroke-linecap:butt;stroke-linejoin:miter;stroke-opacity:1"
             d="m 362.58,127.78 c 6.52,4.07 7.54,13.11 7.54,20.74"
             id="path1083" />
        <path
             style="fill:none;stroke:black;stroke-width:1px;stroke-linecap:butt;stroke-linejoin:miter;stroke-opacity:1"
             d="m 382.85,134.38 c 0.47,2.36 0.94,4.72 1.41,7.07"
             id="path1085" />
        <path
             style="fill:none;stroke:black;stroke-width:1px;stroke-linecap:butt;stroke-linejoin:miter;stroke-opacity:1"
             d="m 396.04,128.25 c 4,16.98 6.55,17.58 -0.47,35.83 -0.84,2.18 -3.45,3.14 -5.18,4.71"
             id="path1087" />
        <path
             style="fill:none;stroke:black;stroke-width:1px;stroke-linecap:butt;stroke-linejoin:miter;stroke-opacity:1"
             d="m 86.269,84.243 c -0.771,-3.852 -2.53,-7.461 -3.3,-11.312 -0.339,-1.695 0,-3.457 0,-5.185 0,-8.661 -0.918,-17.248 -0.471,-25.924 5.551,0.912 11.372,0.471 16.972,0.471 6.12,0 12.25,0 18.38,0 2.99,0 6.69,-0.851 8.95,1.414 1.25,1.243 0.58,3.466 0.95,5.185 0.63,3.021 1.8,5.919 2.35,8.956 1.13,6.204 0.27,8.286 2.36,14.14 0.67,1.871 1.35,3.566 0.94,3.771 -1.87,0.938 -6.14,-0.958 -7.07,-1.886"
             id="path1287" />
        <path
             style="fill:none;stroke:black;stroke-width:1px;stroke-linecap:butt;stroke-linejoin:miter;stroke-opacity:1"
             d="m 103.71,28.153 c 0,10.018 0.23,16.839 -2.83,28.281 -1.07,4.009 -4.08,7.227 -6.13,10.841"
             id="path1289" />
        <path
             style="fill:none;stroke:black;stroke-width:1px;stroke-linecap:butt;stroke-linejoin:miter;stroke-opacity:1"
             d="m 104.65,50.778 c 4.47,3.355 1.2,1.032 10.37,6.127"
             id="path1291" />
        <path
             style="fill:none;stroke:black;stroke-width:1px;stroke-linecap:butt;stroke-linejoin:miter;stroke-opacity:1"
             d="m 166.16,26.739 c -0.3,3.882 0.1,2.083 -0.94,5.421"
             id="path1293" />
        <path
             style="fill:none;stroke:black;stroke-width:1px;stroke-linecap:butt;stroke-linejoin:miter;stroke-opacity:1"
             d="m 148.01,35.695 c 0.55,3.063 1.1,6.127 1.65,9.191"
             id="path1295" />
        <path
             style="fill:none;stroke:black;stroke-width:1px;stroke-linecap:butt;stroke-linejoin:miter;stroke-opacity:1"
             d="m 148.01,35.695 c 12.05,0.963 12.62,1.072 30.64,1.649 4.01,0.129 8.02,-0.157 12.02,0 0.18,0 -0.29,1.61 -0.47,3.064 -0.42,3.349 0.51,2.321 -0.47,3.299"
             id="path1297" />
        <path
             style="fill:none;stroke:black;stroke-width:1px;stroke-linecap:butt;stroke-linejoin:miter;stroke-opacity:1"
             d="m 161.45,48.892 c -3.53,2.175 -4.97,8.484 -9.19,8.484"
             id="path1299" />
        <path
             style="fill:none;stroke:black;stroke-width:1px;stroke-linecap:butt;stroke-linejoin:miter;stroke-opacity:1"
             d="m 179.83,49.128 c 3.69,2.828 7.38,5.656 11.08,8.484"
             id="path1301" />
        <path
             style="fill:none;stroke:black;stroke-width:1px;stroke-linecap:butt;stroke-linejoin:miter;stroke-opacity:1"
             d="m 172.05,56.434 c -9.02,4.157 -16.45,10.799 -23.56,17.911"
             id="path1303" />
        <path
             style="fill:none;stroke:black;stroke-width:1px;stroke-linecap:butt;stroke-linejoin:miter;stroke-opacity:1"
             d="m 172.05,56.434 c 7.17,-1.791 1.12,-0.741 16.03,7.541 0.92,0.512 1.88,0.943 2.83,1.414"
             id="path1305" />
        <path
             style="fill:none;stroke:black;stroke-width:1px;stroke-linecap:butt;stroke-linejoin:miter;stroke-opacity:1"
             d="m 166.4,65.389 c 0.88,8.257 -1.26,7.692 6.12,8.013 0.15,0 3.8,0.579 4.48,0.236 0.1,-0.03 0,-3.013 0.24,-4.242 0.2,-0.903 2.26,-5.351 1.65,-5.657 -1.22,-0.61 -8.15,-0.235 -9.9,-0.235"
             id="path1307" />
        <path
             style="fill:none;stroke:black;stroke-width:1px;stroke-linecap:butt;stroke-linejoin:miter;stroke-opacity:1"
             d="m 212.82,55.727 c 1.5,-1.022 3.11,-1.89 4.48,-3.064 1.31,-1.118 2.19,-2.695 3.54,-3.771 1.79,-1.431 3.89,-2.423 5.89,-3.535 0.63,-0.35 1.68,-0.846 2.36,-0.943 1.1,-0.157 5.61,-0.18 6.36,0.236 0.34,0.191 0.54,0.585 0.71,0.943 1.6,3.524 1.16,9.825 0.23,13.433 -0.33,1.3 -1.04,2.48 -1.41,3.771 -0.49,1.718 -0.26,4.117 -1.42,5.656 -0.15,0.199 -0.48,0.124 -0.7,0.236 -1.55,0.775 -3.06,-1.408 -4.01,-2.357"
             id="path1317" />
        <path
             style="fill:none;stroke:black;stroke-width:1px;stroke-linecap:butt;stroke-linejoin:miter;stroke-opacity:1"
             d="m 226.49,39.701 c -3.07,17.232 -1.41,8.829 -4.95,25.217"
             id="path1319" />
        <path
             style="fill:none;stroke:black;stroke-width:1px;stroke-linecap:butt;stroke-linejoin:miter;stroke-opacity:1"
             d="m 243.23,38.051 c 7.75,18.755 5.16,11.672 8.48,20.975"
             id="path1321" />
        <path
             style="fill:none;stroke:black;stroke-width:1px;stroke-linecap:butt;stroke-linejoin:miter;stroke-opacity:1"
             d="m 252.42,39.23 c 2.16,7.22 2.12,4.609 2.12,7.541"
             id="path1323" />
        <path
             style="fill:none;stroke:black;stroke-width:1px;stroke-linecap:butt;stroke-linejoin:miter;stroke-opacity:1"
             d="m 259.72,38.523 c 0.78,0.618 1.03,2.912 1.65,3.535"
             id="path1327" />
        <path
             style="fill:none;stroke:black;stroke-width:1px;stroke-linecap:butt;stroke-linejoin:miter;stroke-opacity:1"
             d="m 293.66,29.096 c -12.43,11.182 -3.5,2.513 -22.63,29.694"
             id="path1329" />
        <path
             style="fill:none;stroke:black;stroke-width:1px;stroke-linecap:butt;stroke-linejoin:miter;stroke-opacity:1"
             d="m 284.94,40.172 c -1.12,8.181 2.83,15.947 2.83,24.039"
             id="path1331" />
        <path
             style="fill:none;stroke:black;stroke-width:1px;stroke-linecap:butt;stroke-linejoin:miter;stroke-opacity:1"
             d="m 301.2,34.516 c 5.11,0 10.21,0 15.32,0"
             id="path1333" />
        <path
             style="fill:none;stroke:black;stroke-width:1px;stroke-linecap:butt;stroke-linejoin:miter;stroke-opacity:1"
             d="m 297.19,42.293 c 9.51,0 19.02,0 28.52,0"
             id="path1335" />
        <path
             style="fill:none;stroke:black;stroke-width:1px;stroke-linecap:butt;stroke-linejoin:miter;stroke-opacity:1"
             d="m 310.16,42.058 c -1.73,5.027 -3.46,10.055 -5.19,15.083 -0.1,0.157 -0.38,0.374 -0.23,0.471 0.73,0.491 6.97,-0.855 7.3,-0.943 0.82,-0.218 1.57,-0.639 2.36,-0.942 1.63,-0.629 3.45,-0.89 5.18,-1.179"
             id="path1337" />
        <path
             style="fill:none;stroke:black;stroke-width:1px;stroke-linecap:butt;stroke-linejoin:miter;stroke-opacity:1"
             d="m 316.52,48.421 c 4.24,1.699 3.6,7.14 6.36,9.898"
             id="path1341" />
        <path
             style="fill:none;stroke:black;stroke-width:1px;stroke-linecap:butt;stroke-linejoin:miter;stroke-opacity:1"
             d="m 350.22,34.516 c 0.63,10.448 1.26,20.896 1.89,31.345"
             id="path1343" />
        <path
             style="fill:none;stroke:black;stroke-width:1px;stroke-linecap:butt;stroke-linejoin:miter;stroke-opacity:1"
             d="m 345.74,46.3 c -1.7,5.922 1.98,-0.849 2.6,-0.236 0.49,0.497 -0.69,1.233 -0.95,1.886 -0.24,0.601 -0.27,1.268 -0.47,1.885 -0.9,2.827 -1.24,3.255 -2.12,5.892 -0.18,0.542 -0.26,1.118 -0.47,1.649 -0.24,0.596 -0.71,0.718 -0.71,1.414 0,0.111 0.16,-0.157 0.24,-0.235 0.63,-0.629 1.25,-1.257 1.88,-1.886 1.91,-1.904 3.7,-3.826 5.66,-5.656 1.22,-1.138 2.37,-2.573 3.77,-3.535 0.75,-0.519 1.61,-0.886 2.36,-1.414 0.59,-0.418 1.05,-1.002 1.65,-1.414 1.71,-1.183 4.07,-2.181 6.12,-2.592 0.81,-0.161 5.02,-0.204 5.42,0 0.41,0.205 0.76,0.521 1.18,0.707 0.3,0.131 0.67,0.06 0.94,0.235 1.21,0.752 0.99,1.361 1.65,2.593 0.27,0.484 1.41,1.988 1.65,2.592 0.79,1.96 1.43,8.849 0.95,10.605 -0.41,1.492 -1.25,2.834 -1.89,4.242 -0.2,0.454 -0.36,1.179 -0.94,1.179"
             id="path1345" />
        <path
             style="fill:none;stroke:black;stroke-width:1px;stroke-linecap:butt;stroke-linejoin:miter;stroke-opacity:1"
             d="m 397.83,31.217 c 5.82,-1.088 5.81,-1.179 9.42,-1.179 0.32,0 0.68,-0.174 0.95,0 0.21,0.145 -0.87,2.386 -1.89,4.243 -3.88,7.058 1.44,-3.5 -2.83,5.891 -0.53,1.164 -1.67,2.614 -2.12,3.771 -0.11,0.293 0.14,0.662 0,0.943 -0.2,0.397 -0.66,0.595 -0.94,0.942 -0.67,0.835 -1.25,1.731 -1.89,2.593 -0.31,0.425 -1.08,1.041 -0.7,1.414 0.58,0.589 3.72,-2.094 3.77,-2.121 0.1,-0.05 3.36,-1.593 4.24,-1.886 1.74,-0.58 5.68,0.547 7.07,1.414 0.91,0.572 2.51,1.119 3.06,2.122 0.68,1.216 0.69,2.703 1.18,4.006 0.16,0.429 0.54,0.753 0.71,1.178 0.49,1.222 0.4,3.26 0,4.478 -0.22,0.667 -0.69,1.23 -0.94,1.885 -0.35,0.907 -0.37,1.919 -0.71,2.828 -0.95,2.543 -2.07,3.667 -4.48,4.95 -2.83,1.509 -5.29,1.885 -8.48,1.885 -0.38,0 -2.06,0.211 -2.36,0 -1.63,-1.161 -1.65,-3.458 -1.65,-5.185 0,-2.906 -0.18,-4.209 2.12,-6.127 0.1,-0.07 0.13,-0.218 0.24,-0.236 0.62,-0.103 1.25,0 1.88,0 0.31,0 1.07,-0.07 1.42,0 0.47,0.09 2.32,0.738 2.59,1.178 0.17,0.278 0.1,0.653 0.23,0.943 0.15,0.298 0.48,0.471 0.71,0.707 1.17,1.168 1.65,2.182 1.65,3.771 0,0.72 -0.4,2.357 0.71,2.357"
             id="path1347" />
        <path
             style="fill:none;stroke:black;stroke-width:1px;stroke-linecap:butt;stroke-linejoin:miter;stroke-opacity:1"
             d="m 53.992,101.32 c -13.102,-19.976 -13.919,-45.455 -12.665,-68.657 0.09,-1.615 1.044,-3.074 1.333,-4.666 0.153,-0.842 -0.646,-4.01 0.667,-4.666 2.182,-1.091 37.496,-1.333 37.995,-1.333 19.208,0 38.328,0.667 57.328,-1.333 4.22,-0.445 8.51,-0.459 12.66,-1.333 1.86,-0.392 3.47,-1.661 5.34,-2 3.19,-4.808 7.15,-0.08 10.66,-0.667 11.24,-1.873 22.58,-4.147 34,-4.666 18.23,-0.828 36.4,-2.3721 54.66,-3.3327 4.88,-0.2569 9.77,0.1685 14.66,0 20.21,-0.6969 40.43,-1.3331 60.66,-1.3331 14.84,0 29.84,-0.6445 44.66,0 10.72,0.4661 21.43,1.8237 32,3.3328 3.31,0.474 0.98,-0.79 5.33,0 3.2,0.583 6.51,3.293 9.33,3.999 0.65,0.162 1.33,0 2,0 2.22,0.889 4.49,1.677 6.67,2.667 2.91,1.326 1.31,11.49 1.33,11.998 0.37,8.947 0.12,18.465 1.33,27.33 0.77,5.612 3.86,10.984 4.67,16.665 0.62,4.349 -1.09,3.27 -4,3.999 -4.21,1.051 -2.16,1.519 -6,2 -3.82,0.477 -3.07,-1.073 -8,0.666 -2.16,0.762 -3.87,2.504 -6,3.333 -8.97,3.488 -2.96,-0.124 -9.33,2 -0.94,0.314 -1.71,1.072 -2.67,1.333 -1.51,0.414 -3.13,0.307 -4.66,0.667 -2.26,0.531 -4.41,1.462 -6.67,1.999 -7.93,1.889 -8.54,1.068 -17.33,2.667 -1.59,0.289 -3.06,1.132 -4.67,1.333 -1.98,0.248 -4.01,-0.27 -6,0 -2.93,0.4 -5.74,1.479 -8.66,2 -13.23,2.363 -6.51,0.52 -19.33,1.999 -6.92,0.798 -13.73,2.037 -20.67,2.667 -8.69,0.792 -17.95,0 -26.66,0 -20.22,0 -40.44,0 -60.66,0 -8.82,0 -17.84,-0.384 -26.66,0 -18.86,0.822 -0.11,0.662 -14.67,0.662 -14.82,0 -29.86,-0.866 -44.66,0 -13.78,0.81 -27.58,1.69 -41.32,2.67 -4.88,0.35 -9.773,1.09 -14.669,1.33 -7.099,0.36 -7.547,-0.56 -13.998,0.67 -4.133,0.79 -10.788,4.27 -15.331,2"
             id="path1349" />
    </g>
</svg>
