<?xml version="1.0" encoding="UTF-8" standalone="no"?>
<!-- Created with Inkscape (http://www.inkscape.org/) -->

<svg
     width="600"
     height="400"
     viewBox="0 0 600 400"
     version="1.1"
     id="svg5"
     sodipodi:docname="20220402.svg"
     inkscape:version="1.1 (c68e22c387, 2021-05-23)"
     inkscape:export-filename="C:\Program Files\XAMPP\htdocs\koko-campus.org\blog2\data\20220402.png"
     inkscape:export-xdpi="96"
     inkscape:export-ydpi="96"
     xmlns:inkscape="http://www.inkscape.org/namespaces/inkscape"
     xmlns:sodipodi="http://sodipodi.sourceforge.net/DTD/sodipodi-0.dtd"
     xmlns="http://www.w3.org/2000/svg"
     xmlns:svg="http://www.w3.org/2000/svg">
    <sodipodi:namedview
         id="namedview7"
         pagecolor="#ffffff"
         bordercolor="#666666"
         borderopacity="1.0"
         inkscape:pageshadow="2"
         inkscape:pageopacity="0.0"
         inkscape:pagecheckerboard="0"
         inkscape:document-units="px"
         showgrid="false"
         units="px"
         width="600px"
         inkscape:zoom="0.7501"
         inkscape:cx="286.63"
         inkscape:cy="285.96"
         inkscape:window-width="1920"
         inkscape:window-height="1009"
         inkscape:window-x="-8"
         inkscape:window-y="-8"
         inkscape:window-maximized="1"
         inkscape:current-layer="layer1" />
    <defs
         id="defs2" />
    <g
         inkscape:label="レイヤー 1"
         inkscape:groupmode="layer"
         id="layer1">
        <path
             style="fill:none;stroke:black;stroke-width:1px;stroke-linecap:butt;stroke-linejoin:miter;stroke-opacity:1"
             d="m 29.995,385.29 c -3.382,0.79 -5.21,-1.88 -7.333,-4 -8.407,-8.41 -5.999,-12.37 -5.999,-23.33 0,-5.51 -0.975,-11.97 0,-17.33 1.5,-8.25 0.603,-0.84 2.666,-6 1.618,-2.41 1.035,-5.43 2,-8 1.345,-3.59 3.443,-7 4.666,-10.67 2.186,-6.55 4.331,-12.33 9.332,-17.33 2.289,-2.29 5.506,-4.59 7.999,-6.66 1.533,-1.28 1.468,-0.1 3.333,-1.34 2.638,-1.75 1.006,-1.89 3.333,-2.66 2.201,-0.74 4.415,-1.44 6.666,-2 0.137,0 5.332,0 5.332,0 0,-0.66 -2.273,-2.08 -2.666,-2.67 -2.482,-3.72 -5,-7.34 -5.332,-12 -0.283,-3.95 0.394,-8.05 0,-12 -0.694,-6.93 -1.792,-14.57 0.666,-21.33 2.423,-6.66 16.447,-11.11 22.664,-12.66 2.549,-1.42 5.375,-0.14 7.999,-0.67 0.974,-0.19 1.702,-1.09 2.666,-1.33 1.943,-0.49 4.003,0 6.003,0 2.59,0 6.27,-0.7 8.66,0.67 0.96,0.55 1.69,1.46 2.67,2 1.48,0.81 3.18,1.18 4.66,2 3.26,1.77 2.83,2.86 6,5.33 0.79,0.61 1.97,0.63 2.67,1.33 0.31,0.32 -0.2,0.94 0,1.33 0.12,2.11 2.49,2.49 3.33,4 0.82,1.48 1.24,3.16 2,4.67 1.16,2.32 3.09,4.24 4,6.67 0.79,2.11 0.33,8.36 0,10.66 -0.45,3.18 -7.7,19.03 -10,21.33 -0.1,0.1 -6.52,2.17 -8,2.67 -2.46,0.82 -1.49,-0.23 2,2 1.47,0.93 2.63,2.27 4,3.33 6.97,5.36 9.26,5.21 14,13.33 8.66,14.84 -1.88,-1.81 4.67,8.67 1.54,2.46 3.91,4.11 5.33,6.66 1.89,3.41 5.26,9.3 6.66,12.67 2.82,6.75 -0.14,1.03 0.67,4.66 0.85,3.84 3.01,7.4 3.33,11.34 0.34,4.09 0.3,8.81 -0.66,12.66 -0.79,3.14 0.63,6.83 0,10 -0.61,3.01 -0.79,1.46 -2,2.67 -0.8,0.8 -0.22,2.29 -0.67,3.33 -0.31,0.74 -1.04,1.25 -1.33,2 -1.02,2.53 0.44,5.89 -0.67,8.66 -0.16,0.42 -0.89,0 -1.33,0 -6.97,0 -14.44,-0.76 -21.33,0 -5.8,0.65 -11.54,2.09 -17.33,2.67 -5.88,0.59 -12.11,0 -18,0 -6.581,0 -13.431,0.55 -19.997,0 -9.752,-0.81 0.559,-0.67 -6.666,-0.67 -0.926,0 -6.406,0.47 -7.332,0 -3.536,-1.76 -10.212,-0.94 -13.998,0 -1.61,0.41 -3.668,0 -5.333,0 -0.271,0 -2.583,0.17 -2.666,0 -0.199,-0.39 0.199,-0.93 0,-1.33 -0.1,-0.2 -0.468,0.1 -0.667,0 -1.295,-0.65 -0.666,-2.18 -0.666,-3.33 z"
             id="path891" />
        <path
             style="fill:none;stroke:black;stroke-width:1px;stroke-linecap:butt;stroke-linejoin:miter;stroke-opacity:1"
             d="m 71.24,258.55 c 10.831,-0.46 6.441,-0.41 13.165,-0.41"
             id="path893" />
        <path
             style="fill:none;stroke:black;stroke-width:1px;stroke-linecap:butt;stroke-linejoin:miter;stroke-opacity:1"
             d="m 69.907,251.72 c 1.098,3.76 0.602,7.54 0.75,11.33 0.03,0.84 0.189,1.67 0.25,2.5 0.02,0.31 -0.03,0.62 0,0.92 0.02,0.2 0.133,0.38 0.166,0.58 0.07,0.43 0.09,2.34 0.5,2.67 0.733,0.59 1.678,0.8 2.583,0.92 0.166,0 0.337,0 0.5,0 0.232,0 0.433,0.21 0.667,0.25 1.28,0.22 4.26,0.29 5.666,0.1 0.458,-0.1 0.967,-0.27 1.416,-0.33 0.948,-0.14 1.501,0.1 2.5,-0.34"
             id="path895" />
        <path
             style="fill:none;stroke:black;stroke-width:1px;stroke-linecap:butt;stroke-linejoin:miter;stroke-opacity:1"
             d="m 97.24,248.72 c 1.56,6.98 1.16,4.26 1.91,11.5 0.34,3.26 0.58,6.48 0.58,9.75"
             id="path897" />
        <path
             style="fill:none;stroke:black;stroke-width:1px;stroke-linecap:butt;stroke-linejoin:miter;stroke-opacity:1"
             d="m 98.9,258.47 c 7.33,0.79 6.35,1.12 11.17,3.42"
             id="path899" />
        <path
             style="fill:none;stroke:black;stroke-width:1px;stroke-linecap:butt;stroke-linejoin:miter;stroke-opacity:1"
             d="m 406.62,351.29 c -5.08,-2.25 -11.24,-2.97 -16,-6 -1.06,-0.68 -1.72,-1.85 -2.67,-2.67 -3.99,-3.46 -8,-7.2 -12,-10.66 -1.67,-1.46 -3.66,-2.54 -5.33,-4 -25.56,-22.37 0.1,-0.98 -16.66,-15.33 -9.73,-8.34 -25.05,-20.19 -32.67,-30.67 -1.05,-1.45 -1.59,-3.23 -2.66,-4.66 -1.61,-2.14 -3.73,-3.86 -5.33,-6 -2.52,-3.35 -9.37,-15.26 -10.67,-18 -0.49,-1.02 -0.16,-2.32 -0.67,-3.33 -1.29,-2.59 -3.27,-4.8 -4.66,-7.34 -2.25,-4.09 -4.23,-8.34 -6,-12.66 -4.01,-9.79 -5.86,-20.38 -8,-30.66 -1.59,-7.61 -2.29,-8.67 -3.33,-16 -0.54,-3.77 -0.62,-7.6 -1.34,-11.33 -0.39,-2.07 -1.72,-3.91 -2,-6 -0.4,-3.09 0,-6.22 0,-9.33 0,-10.35 0,-19.9 2.67,-30 1.6,-5.96 3.63,-8.99 6,-14.66 1.19,-2.86 2,-5.88 3.33,-8.67 2.67,-5.57 6.19,-10.683 9.33,-15.998 9.71,-16.421 17.46,-27.953 34,-37.995 7.48,-4.544 14.72,-8.126 23.33,-9.999 13.46,-2.927 28.97,-1.8 41.99,2 3.38,0.984 6.62,2.386 10,3.333 7.78,2.178 16.06,3.221 24,4.666 3.56,0.647 7.31,0.656 10.67,2 20.38,8.155 -8.58,-1.728 14.66,6.665 13.57,4.9 26.02,8.885 38.66,15.998 7.88,4.432 14.84,10.542 22,15.998 2.65,2.02 5.64,3.643 8,5.999 1.48,1.483 2.1,3.634 3.33,5.333 1.67,2.31 3.83,4.25 5.33,6.67 2.02,3.22 6.6,13.33 8,17.33 0.61,1.73 0.68,3.62 1.34,5.33 5.59,14.7 2.51,2.92 5.99,14.66 3.34,11.25 5.86,22.81 9.34,34 2.46,7.93 6.03,16.05 10,23.33 1.76,3.24 6.2,9.68 7.33,13.33 1.06,3.46 1.33,7.11 2,10.67 2.2,11.76 4,23.33 4,35.33 0,5.02 1.01,12.27 0,17.33 -1.14,5.7 -4.37,14.72 -6.67,19.99 -10.09,23.21 0.13,-2.95 -6,11.34 -1.49,3.49 -2.3,7.27 -4,10.66 -0.71,1.43 -1.95,2.57 -2.66,4 -1.07,2.14 -1.37,4.66 -2.67,6.67 -1.19,1.84 -3.18,3.04 -4.67,4.66 -2.46,2.7 -2.96,4.39 -6,6.67 -4.13,3.1 -9.59,5.36 -13.99,8 -1.38,0.82 -2.5,2.1 -4,2.66 -2.12,0.8 -4.46,0.82 -6.67,1.34 -9.69,2.28 -19.41,3.17 -29.33,4 -7.99,0.66 -15.98,1.61 -23.99,2 -11.06,0.52 -22.26,0 -33.33,0 -5.97,0 -12.81,0.83 -18.67,0 -1.65,-0.24 -5.82,-1.92 -7.33,-2.67 -0.98,-0.49 -1.23,-1.9 -2,-2.67 -1.3,-1.3 -3.02,-2.93 -3.33,-4.66 -0.22,-1.18 0.89,-2.22 1.33,-3.34"
             id="path1033" />
        <path
             style="fill:none;stroke:black;stroke-width:1px;stroke-linecap:butt;stroke-linejoin:miter;stroke-opacity:1"
             d="m 314.63,199.97 c 54.66,-1.54 31.54,-1.33 69.32,-1.33 6.18,0 9.21,1.06 14,-1.33"
             id="path1035" />
        <path
             style="fill:none;stroke:black;stroke-width:1px;stroke-linecap:butt;stroke-linejoin:miter;stroke-opacity:1"
             d="m 358.62,175.98 c 2.84,51.08 8.42,33.04 -0.66,56.66"
             id="path1037" />
        <path
             style="fill:none;stroke:black;stroke-width:1px;stroke-linecap:butt;stroke-linejoin:miter;stroke-opacity:1"
             d="m 375.29,182.64 c 1.33,3.11 3.26,6.03 4,9.33 0.62,2.82 0,5.78 0,8.67 0,8.44 0,16.89 0,25.33"
             id="path1039" />
        <path
             style="fill:none;stroke:black;stroke-width:1px;stroke-linecap:butt;stroke-linejoin:miter;stroke-opacity:1"
             d="m 357.96,232.64 c -20.75,-15.62 19.3,6.1 20.66,-0.67 0.4,-1.97 0.45,-4 0.67,-6"
             id="path1041" />
        <path
             style="fill:none;stroke:black;stroke-width:1px;stroke-linecap:butt;stroke-linejoin:miter;stroke-opacity:1"
             d="m 334.63,179.98 c 11.21,17.95 0.32,41.31 9.33,59.32 0.83,1.67 -0.91,11.75 0,12.67 0.57,0.57 8.16,0 9.33,0 10.02,0 20.03,0 30,-0.67 3.3,-0.22 5.62,-1.33 8.66,-1.33"
             id="path1043" />
        <path
             style="fill:none;stroke:black;stroke-width:1px;stroke-linecap:butt;stroke-linejoin:miter;stroke-opacity:1"
             d="m 435.95,175.31 c 7.28,36.41 5.06,22.11 8,42.66"
             id="path1045" />
        <path
             style="fill:none;stroke:black;stroke-width:1px;stroke-linecap:butt;stroke-linejoin:miter;stroke-opacity:1"
             d="m 435.95,175.31 c 14.19,8.11 4.65,5.37 22.66,2.67 4.42,-0.67 8.9,-0.82 13.33,-1.34 0.96,-0.11 5.03,-1.12 5.33,-0.66 4.56,6.83 3.62,16.28 5.34,23.99 0.49,2.22 2.34,4.64 1.33,6.67 -0.48,0.97 -1.47,1.6 -2,2.67"
             id="path1047" />
        <path
             style="fill:none;stroke:black;stroke-width:1px;stroke-linecap:butt;stroke-linejoin:miter;stroke-opacity:1"
             d="m 460.61,181.31 c -0.44,8.97 0.56,17 3.33,25.33"
             id="path1049" />
        <path
             style="fill:none;stroke:black;stroke-width:1px;stroke-linecap:butt;stroke-linejoin:miter;stroke-opacity:1"
             d="m 445.28,193.31 c 9.22,2.48 18.18,-0.67 27.33,-0.67"
             id="path1051" />
        <path
             style="fill:none;stroke:black;stroke-width:1px;stroke-linecap:butt;stroke-linejoin:miter;stroke-opacity:1"
             d="m 443.95,217.97 c 11.45,-8.25 20.92,-5.39 32.66,-8 1.85,-0.41 3.8,0.86 5.33,-0.66"
             id="path1053" />
        <path
             style="fill:none;stroke:black;stroke-width:1px;stroke-linecap:butt;stroke-linejoin:miter;stroke-opacity:1"
             d="m 458.61,220.64 c -9.25,11.39 -7.05,10.21 -18.66,18.66 -1.42,1.03 -4.61,1.94 -6,3.33"
             id="path1055" />
        <path
             style="fill:none;stroke:black;stroke-width:1px;stroke-linecap:butt;stroke-linejoin:miter;stroke-opacity:1"
             d="m 481.94,209.31 c 6.61,15.3 12.09,18.91 29.33,24.66"
             id="path1057" />
        <path
             style="fill:none;stroke:black;stroke-width:1px;stroke-linecap:butt;stroke-linejoin:miter;stroke-opacity:1"
             d="m 464.61,234.64 c 2.22,5.55 4.44,11.11 6.67,16.66"
             id="path1059" />
        <path
             style="fill:none;stroke:black;stroke-width:1px;stroke-linecap:butt;stroke-linejoin:miter;stroke-opacity:1"
             d="m 481.94,209.31 c -1.58,10.2 -2.3,14.14 2.21,21.65 0.41,0.69 3.48,5.27 3.77,6.13 0.86,2.58 0.54,5.87 1.41,8.48 0.61,1.83 1.41,3.66 1.41,5.66"
             id="path1063" />
        <path
             style="fill:none;stroke:black;stroke-width:1px;stroke-linecap:butt;stroke-linejoin:miter;stroke-opacity:1"
             d="m 148.65,265.97 c 7.76,-0.52 15.85,1.47 23.33,-1.34 6.68,-2.5 12.54,-6.98 19.33,-9.33 5.33,-1.85 11.35,-2.01 16.66,-4 5.87,-2.2 11.06,-6.53 16.67,-9.33 6.73,-3.37 -2.91,1.29 8.66,-3.33 2.31,-0.93 4.31,-2.55 6.67,-3.34 0.42,-0.14 0.92,0.17 1.33,0 1.49,-0.59 2.54,-2 4,-2.66 1.73,-0.79 3.61,-1.21 5.33,-2 6.11,-2.82 12.53,-6.36 19.33,-7.34 5.34,-0.76 -0.15,1.48 7.34,-0.66 4.35,-1.25 7.38,-2.98 6.66,-3.34 -2.74,-1.37 -22.11,1.14 -25.33,1.34 -8.17,0.51 -18.19,0.63 -25.99,3.33 -8.05,2.79 -13.72,7.5 -20.67,12 -6.13,3.97 -12.49,7.53 -18.66,11.33 -2.84,1.75 -5.06,4.43 -8,6 -2.11,1.13 -4.48,1.69 -6.67,2.67 -5.75,2.55 -11.22,4.97 -17.33,6.66 -4.29,1.19 -17.74,3.75 -20.66,6.67 -0.16,0.16 0.44,0 0.66,0 2.67,0 5.34,-0.1 8,0 8.1,0.28 21.34,1.89 29.33,0.66 2.57,-0.39 4.88,-1.81 7.34,-2.66 3.32,-1.15 6.76,-1.97 9.99,-3.33 8.67,-3.65 -2.98,-0.57 5.34,-3.34 1.07,-0.36 2.35,-0.1 3.33,-0.66 2.87,-1.69 5.25,-4.13 8,-6 4.6,-3.14 9.82,-6.51 14.66,-9.34 3.54,-2.06 8.08,-2.88 11.34,-5.33 1,-0.75 1.6,-2 2.66,-2.66 5.76,-3.61 0.13,2.49 4,-2.67 1.54,-2.05 2.05,-0.55 4.67,-2 6.99,-3.89 0.53,-1.2 3.33,-4 0.39,-0.39 4,-0.44 4,-1.33 0,-0.23 -0.44,0 -0.67,0 -1.11,0 -2.22,0 -3.33,0 -2.44,0 -4.89,0 -7.33,0 -6.22,0 -12.48,-0.69 -18.67,0 -11.26,1.25 -20.68,7.56 -31.33,10.66 -3.05,0.89 -6.25,1.18 -9.33,2 -2.79,0.75 -5.28,2.36 -8,3.33 -7.94,2.86 -10.56,3.44 -17.99,7.34 -5.14,2.69 -9.66,6.41 -14.67,9.33 -3.5,2.04 -11.33,5.46 -11.33,6 0,1.14 11.04,1.33 12,1.33 4.89,0 9.89,1.05 14.66,0 12.18,-2.66 20,-8.17 30.66,-13.33 4.49,-6.58 12.29,-3.28 18,-6 8.5,-6.18 5.86,-4.87 15.33,-9.33 7.08,-3.33 17.89,-3.72 24,-8 9.21,-9.21 -1.96,1.08 6.67,-4.67 4.53,-3.02 -4.22,0.45 2,-2.66 0.88,-0.45 3.55,-0.89 2.66,-1.34 -1.67,-0.83 -11.96,0 -12.66,0 -2.68,0.12 -5.46,-0.18 -8,0.67 -13.91,4.64 -31.78,18.4 -44.66,26 -11.22,6.61 -8.12,4.12 -19.33,9.33 -3.16,1.46 -6.26,3.05 -9.34,4.67 -1.14,0.6 -2.11,1.56 -3.33,2 -3.25,1.14 -6.65,1.83 -10,2.66 -0.75,0.19 -8.16,-1.1 -4.66,-0.66 14.96,1.87 27.66,2.14 42.66,-2.67 5.09,-1.63 16.71,-9.33 22.66,-12 3.47,-1.55 7.18,-2.5 10.67,-4 8.61,-3.69 16.47,-9.57 25.33,-12.66 9.92,-3.48 2.37,0.9 10,-3.34 0.84,-0.47 3.2,-1.47 4,-2 1.74,-1.16 3.06,-3.33 4.66,-4.66 1.23,-1.03 2.87,-1.54 4,-2.67 0.35,-0.35 0.32,-0.98 0.67,-1.33 0.51,-0.52 2.4,0.22 2.66,-1.34 0.22,-1.31 0,-2.66 0,-3.99 0,-1.34 0,-2.67 0,-4 0,-0.45 0.32,-1.02 0,-1.34 -0.46,-0.46 -13.35,-0.66 -15.33,-0.66 -11.05,0 -21.58,1.85 -31.33,7.33 -2.09,1.18 -3.92,2.79 -6,4 -11.79,6.83 -1.47,0.1 -13.33,6 -2.76,1.38 -2.44,2.22 -4.66,4 -0.39,0.31 -0.89,0.44 -1.34,0.66 -1.55,1.11 -3.31,1.98 -4.66,3.34 -2.01,2.01 -3.47,4.51 -5.34,6.66 -2.75,3.18 -8.82,8.09 -11.33,10 -15.21,11.59 2.28,-2.01 -11.33,6 -2.18,1.28 -3.84,3.34 -6,4.67 -3.56,2.17 -7.42,3.86 -11.33,5.33 -2.36,0.88 -8.5,1.01 -10,4 -0.1,0.2 0.45,0 0.67,0 2,0 4,0 6,0 9.91,0 18.49,-1 27.99,-4 16.65,-5.26 13.83,-4.01 28,-11.33 2.47,-1.28 5.29,-2.11 7.33,-4 1.24,-1.15 1.11,-3.23 2,-4.67 0.91,-1.48 6.05,-7.08 7.33,-8 1.62,-1.15 3.58,-1.73 5.34,-2.66 5.45,-2.91 4.92,-2.95 10.66,-6.67 1.76,-1.14 3.75,-1.96 5.33,-3.33 7.24,-6.27 1.81,-4.09 8.67,-8.67 0.98,-0.65 8.11,-2.66 4.67,-2.66"
             id="path1211" />
        <path
             style="fill:none;stroke:black;stroke-width:1px;stroke-linecap:butt;stroke-linejoin:miter;stroke-opacity:1"
             d="m 149.81,213.14 c -4.77,4.34 0.37,-0.48 -8.5,9.5 -1.27,1.44 -2.63,2.8 -3.99,4.16 -1.21,1.21 -0.76,1.17 -1.5,1.17"
             id="path1213" />
        <path
             style="fill:none;stroke:black;stroke-width:1px;stroke-linecap:butt;stroke-linejoin:miter;stroke-opacity:1"
             d="m 142.65,221.47 c 4.4,14.55 4.33,9.34 4.33,15"
             id="path1215" />
        <path
             style="fill:none;stroke:black;stroke-width:1px;stroke-linecap:butt;stroke-linejoin:miter;stroke-opacity:1"
             d="m 151.65,220.47 c 6.38,1.35 8.49,1.33 6.16,1.33"
             id="path1217" />
        <path
             style="fill:none;stroke:black;stroke-width:1px;stroke-linecap:butt;stroke-linejoin:miter;stroke-opacity:1"
             d="m 157.81,231.14 c 6.08,-10.14 3.25,-7.25 6.34,-10.34"
             id="path1219" />
        <path
             style="fill:none;stroke:black;stroke-width:1px;stroke-linecap:butt;stroke-linejoin:miter;stroke-opacity:1"
             d="m 166.81,207.81 c 3.74,1.86 1.01,0.12 0.67,9.66"
             id="path1221" />
        <path
             style="fill:none;stroke:black;stroke-width:1px;stroke-linecap:butt;stroke-linejoin:miter;stroke-opacity:1"
             d="m 168.64,211.81 c 2.45,0 4.98,-0.63 7.34,0 0.64,0.17 0.13,1.33 0.16,2 0.18,3.08 0,6.23 0,9.33 0,1.47 0.54,3.23 0,4.66 -0.23,0.63 -0.61,0.66 -0.83,1.17 -0.23,0.54 -0.29,1.5 -1.17,1.5"
             id="path1223" />
        <path
             style="fill:none;stroke:black;stroke-width:1px;stroke-linecap:butt;stroke-linejoin:miter;stroke-opacity:1"
             d="m 167.48,217.47 c 6.55,2.07 4.18,1.46 7,2.17"
             id="path1225" />
        <path
             style="fill:none;stroke:black;stroke-width:1px;stroke-linecap:butt;stroke-linejoin:miter;stroke-opacity:1"
             d="m 182.48,216.14 c 2.29,0 0.49,0.14 4.5,-3"
             id="path1227" />
        <path
             style="fill:none;stroke:black;stroke-width:1px;stroke-linecap:butt;stroke-linejoin:miter;stroke-opacity:1"
             d="m 189.31,205.14 c 3.8,1.9 0.52,0.47 10.33,-3.83 0.1,0 -0.16,0.1 -0.17,0.16 -0.1,0.45 -0.13,0.89 -0.16,1.34 -0.14,2.02 -0.1,4.13 0,6.16 0,0.78 0.24,4.34 0.33,5.34 0.1,1.04 0.43,2.45 0.17,3.49 -0.12,0.49 -0.51,0.87 -0.67,1.34"
             id="path1229" />
        <path
             style="fill:none;stroke:black;stroke-width:1px;stroke-linecap:butt;stroke-linejoin:miter;stroke-opacity:1"
             d="m 206.64,207.64 c 1.83,-0.67 3.67,-1.33 5.5,-2"
             id="path1231" />
        <path
             style="fill:none;stroke:black;stroke-width:1px;stroke-linecap:butt;stroke-linejoin:miter;stroke-opacity:1"
             d="m 212.14,205.64 c -3.11,3.11 -1.99,0.98 -0.83,7.17"
             id="path1233" />
        <path
             style="fill:none;stroke:black;stroke-width:1px;stroke-linecap:butt;stroke-linejoin:miter;stroke-opacity:1"
             d="m 207.47,215.14 c 2.91,-2.09 5.87,-3.8 9.33,-4.67"
             id="path1235" />
        <path
             style="fill:none;stroke:black;stroke-width:1px;stroke-linecap:butt;stroke-linejoin:miter;stroke-opacity:1"
             d="m 220.8,202.81 c 7.05,-1.94 5.04,-0.21 7.5,-2.67"
             id="path1237" />
        <path
             style="fill:none;stroke:black;stroke-width:1px;stroke-linecap:butt;stroke-linejoin:miter;stroke-opacity:1"
             d="m 233.47,190.81 c 3.59,0.18 5.79,-3.85 9.16,-4.33 0.34,0 0.67,-0.1 1,-0.17 0.1,0 -0.13,-0.1 -0.16,0 -0.15,0.2 -0.27,0.43 -0.34,0.67 -0.16,0.6 -0.19,1.22 -0.33,1.83 -0.14,0.62 -0.39,1.21 -0.5,1.83 -0.11,0.66 -0.1,1.34 -0.17,2 -0.18,1.28 -0.49,2.55 -0.66,3.83 -0.13,1 -0.12,2.2 -0.33,3.17 -0.1,0.29 -0.29,0.54 -0.34,0.83 -0.1,0.44 0.1,0.9 0,1.34 -0.1,0.48 -0.95,3.33 -1.5,3.33"
             id="path1239" />
        <path
             style="fill:none;stroke:black;stroke-width:1px;stroke-linecap:butt;stroke-linejoin:miter;stroke-opacity:1"
             d="m 241.64,194.64 c 2.55,1.28 0.1,0.1 6.33,2.83 2.08,0.93 1.14,0.84 2.5,0.84"
             id="path1241" />
        <path
             style="fill:none;stroke:black;stroke-width:1px;stroke-linecap:butt;stroke-linejoin:miter;stroke-opacity:1"
             d="m 148.65,202.64 c -5.33,-0.5 -10.69,-0.67 -16,-1.33 -1,-0.13 -2.04,0 -3,-0.34 -1.85,-0.59 -3.52,-1.65 -5.33,-2.33 -0.86,-0.32 -1.82,-0.33 -2.67,-0.67 -7.48,-2.9 -14.23,-7.47 -21,-11.66 -1.52,-0.94 -3.147,-1.71 -4.663,-2.67 -3.551,-2.23 -4.968,-3.57 -8.332,-6 -0.358,-0.26 -3.357,-2.13 -3.666,-2.66 -0.462,-0.79 -0.393,-1.79 -0.667,-2.67 -0.605,-1.94 -1.317,-3.02 -1.666,-5 -0.194,-1.1 -0.128,-2.23 -0.333,-3.33 -0.07,-1.34 -1.078,-2.39 -1.333,-3.67 -0.268,-1.33 -0.288,-6.04 0,-7.33 0.564,-2.54 1.938,-4.84 2.666,-7.33 1.482,-5.09 2.425,-10.14 4.666,-15 0.791,-1.72 2.522,-3.04 3.333,-4.67 0.1,-0.2 -0.445,0 -0.667,0 -1,0 -2,0 -2.999,0 -2.044,0 -3.997,-0.11 -6,0.34 -1.051,0.23 -2.44,1 -3.333,1"
             id="path1356" />
        <path
             style="fill:none;stroke:black;stroke-width:1px;stroke-linecap:butt;stroke-linejoin:miter;stroke-opacity:1"
             d="m 90.655,125.98 c 1.674,4.01 2.044,8.42 3.999,12.34"
             id="path1358" />
        <path
             style="fill:none;stroke:black;stroke-width:1px;stroke-linecap:butt;stroke-linejoin:miter;stroke-opacity:1"
             d="m 121.65,101.99 c -18.66,1.79 -11.53,1.66 -21.33,1.66 0.73,3.48 -1.077,6.43 -1.666,9.67 -0.387,2.12 -0.345,3.68 -2,5.33"
             id="path1360" />
        <path
             style="fill:none;stroke:black;stroke-width:1px;stroke-linecap:butt;stroke-linejoin:miter;stroke-opacity:1"
             d="m 102.74,108.4 c 0.83,0 1.66,0.1 2.5,0.1"
             id="path1364" />
        <path
             style="fill:none;stroke:black;stroke-width:1px;stroke-linecap:butt;stroke-linejoin:miter;stroke-opacity:1"
             d="m 102.74,112.4 c 0,1.32 0,0.45 -0.34,2.58"
             id="path1366" />
        <path
             style="fill:none;stroke:black;stroke-width:1px;stroke-linecap:butt;stroke-linejoin:miter;stroke-opacity:1"
             d="m 104.82,111.65 c 2.76,0 2.08,-0.77 2.08,2.34 0,0.48 0.14,1.41 0,1.83 0,0.11 -3.77,0.25 -3.83,0.16 -0.24,-0.32 -0.45,-0.67 -0.67,-1"
             id="path1368" />
        <path
             style="fill:none;stroke:black;stroke-width:1px;stroke-linecap:butt;stroke-linejoin:miter;stroke-opacity:1"
             d="m 107.99,101.4 c 2.15,4.14 3.95,7.92 6.99,11.67 1.05,1.28 2.55,2.12 3.84,3.16 0.18,0.15 1.75,1.16 1.75,0.84"
             id="path1370" />
        <path
             style="fill:none;stroke:black;stroke-width:1px;stroke-linecap:butt;stroke-linejoin:miter;stroke-opacity:1"
             d="m 117.65,110.07 c -2.68,6.7 -0.97,4.97 -2.75,6.75"
             id="path1372" />
        <path
             style="fill:none;stroke:black;stroke-width:1px;stroke-linecap:butt;stroke-linejoin:miter;stroke-opacity:1"
             d="m 115.23,96.821 c 0.73,0 0.25,-0.07 1.25,0.75"
             id="path1374" />
        <path
             style="fill:none;stroke:black;stroke-width:1px;stroke-linecap:butt;stroke-linejoin:miter;stroke-opacity:1"
             d="m 100.49,122.07 c -0.1,2.47 -0.17,4.94 -0.25,7.41"
             id="path1376" />
        <path
             style="fill:none;stroke:black;stroke-width:1px;stroke-linecap:butt;stroke-linejoin:miter;stroke-opacity:1"
             d="m 104.99,121.23 c 0.41,1.84 0.26,3.9 1.25,5.5 3.1,5.03 7.56,4.08 12.74,4.59 0.67,0.1 1.34,0.1 2,0.1 0.2,0 0.56,0 0.67,0 0.34,-0.1 1.58,-0.75 1.83,-1 0.15,-0.14 0.2,-0.35 0.34,-0.5 0.78,-0.87 0.1,0 0.66,-0.42 0.17,-0.11 -0.21,-0.34 -0.33,-0.5 -0.6,-0.8 -1,-1.5 -1.25,-2.5"
             id="path1378" />
        <path
             style="fill:none;stroke:black;stroke-width:1px;stroke-linecap:butt;stroke-linejoin:miter;stroke-opacity:1"
             d="m 118.48,122.07 c 1.05,2.21 0.52,1.04 1.59,3.5"
             id="path1380" />
        <path
             style="fill:none;stroke:black;stroke-width:1px;stroke-linecap:butt;stroke-linejoin:miter;stroke-opacity:1"
             d="m 122.82,121.07 c 0.39,1.14 0.77,2.27 1.16,3.41"
             id="path1382" />
        <path
             style="fill:none;stroke:black;stroke-width:1px;stroke-linecap:butt;stroke-linejoin:miter;stroke-opacity:1"
             d="m 137.82,99.487 c 1.31,0.44 0.68,0 1.16,2.003"
             id="path1384" />
        <path
             style="fill:none;stroke:black;stroke-width:1px;stroke-linecap:butt;stroke-linejoin:miter;stroke-opacity:1"
             d="m 143.06,97.904 c 0,1 0,2 0,2.996"
             id="path1386" />
        <path
             style="fill:none;stroke:black;stroke-width:1px;stroke-linecap:butt;stroke-linejoin:miter;stroke-opacity:1"
             d="m 154.06,95.654 c -2.01,2.517 -0.53,0.503 -3.08,6.836"
             id="path1388" />
        <path
             style="fill:none;stroke:black;stroke-width:1px;stroke-linecap:butt;stroke-linejoin:miter;stroke-opacity:1"
             d="m 134.57,104.57 c 0.3,1.61 0.61,3.22 0.91,4.83"
             id="path1390" />
        <path
             style="fill:none;stroke:black;stroke-width:1px;stroke-linecap:butt;stroke-linejoin:miter;stroke-opacity:1"
             d="m 134.57,104.57 c 6.54,-1.14 -0.8,0.1 15.08,-0.75 10.82,-0.54 2,-0.5 6.41,-0.5 0.1,0 2.37,0 2.42,0 0.22,0.22 0,0.61 0,0.92 0,0.7 0.21,3.62 -0.17,4"
             id="path1392" />
        <path
             style="fill:none;stroke:black;stroke-width:1px;stroke-linecap:butt;stroke-linejoin:miter;stroke-opacity:1"
             d="m 141.15,108.57 c -0.29,4.67 -0.19,0.85 0,4.42 0,0.44 0,0.88 0,1.33 0,0.63 0.21,1.28 0.25,1.91 0,0.82 -0.1,1.63 0.16,2.42"
             id="path1396" />
        <path
             style="fill:none;stroke:black;stroke-width:1px;stroke-linecap:butt;stroke-linejoin:miter;stroke-opacity:1"
             d="m 141.15,108.57 c 1.52,0.27 7.87,-1.13 8.25,-0.75 0.77,0.77 0.58,1.46 0.75,2.42 0.42,2.44 0.25,0.7 0.5,2.75 0.17,1.4 0.18,2.85 0.41,4.24 0.1,0.31 0,0.62 0,0.92 0,0.89 -0.1,1.78 -0.1,2.67"
             id="path1398" />
        <path
             style="fill:none;stroke:black;stroke-width:1px;stroke-linecap:butt;stroke-linejoin:miter;stroke-opacity:1"
             d="m 143.06,112.82 c 1.71,-0.49 0.39,-0.16 4.09,-0.25"
             id="path1400" />
        <path
             style="fill:none;stroke:black;stroke-width:1px;stroke-linecap:butt;stroke-linejoin:miter;stroke-opacity:1"
             d="m 143.48,114.98 c 1.28,0.9 3.13,0.31 4.58,0.1"
             id="path1402" />
        <path
             style="fill:none;stroke:black;stroke-width:1px;stroke-linecap:butt;stroke-linejoin:miter;stroke-opacity:1"
             d="m 141.9,120.4 c 2.17,-0.47 5.28,-1.75 7.83,-1.75"
             id="path1404" />
        <path
             style="fill:none;stroke:black;stroke-width:1px;stroke-linecap:butt;stroke-linejoin:miter;stroke-opacity:1"
             d="m 143.73,122.48 c 0,1.2 0.19,2.41 0,3.59 -0.52,3.22 -2.12,6.95 -4.5,9.33 -0.5,0.5 -1.16,0.88 -1.75,1.25 -0.42,0.26 -0.75,0.65 -1.16,0.92 -1.01,0.65 -0.45,0.11 -0.75,0.41"
             id="path1406" />
        <path
             style="fill:none;stroke:black;stroke-width:1px;stroke-linecap:butt;stroke-linejoin:miter;stroke-opacity:1"
             d="m 147.31,120.82 c -0.17,3.32 -0.29,2.94 1.34,8 0.39,1.21 0.91,2.45 1.75,3.41 0.66,0.77 1.72,1.06 2.58,1.59 0.28,0.16 0.53,0.39 0.83,0.5 0.4,0.14 0.84,0.15 1.25,0.25 0.56,0.12 1.1,0.35 1.67,0.41 0.69,0.1 1.39,0 2.08,0 0.39,0 0.78,0 1.17,0 0.25,0 0.51,0.1 0.75,0 0.61,-0.14 0.94,-1.59 1.25,-2.08 0.1,-0.12 0.47,-0.64 0.58,-0.75 0.1,0 0.14,0 0.17,-0.1 0,0 -0.1,0 -0.1,-0.1 -0.13,-0.21 -0.24,-0.44 -0.34,-0.66 -0.15,-0.33 -0.37,-0.65 -0.41,-1 -0.1,-0.76 -0.1,-3.03 -0.1,-4.17"
             id="path1408" />
    </g>
</svg>
